<svg width="12" height="12" viewBox="0 0 12 12" fill="none" xmlns="http://www.w3.org/2000/svg">
<path fill-rule="evenodd" clip-rule="evenodd" d="M3.00375 2.65529C3.48369 1.94948 4.28951 1.40002 5.4999 1.40002C6.7103 1.40002 7.51611 1.94948 7.99606 2.65529C8.45427 3.32912 8.5999 4.11655 8.5999 4.64708V11H7.3999V4.64708C7.3999 4.29526 7.29554 3.75916 7.00375 3.33006C6.73369 2.93292 6.28951 2.60002 5.4999 2.60002C4.7103 2.60002 4.26611 2.93292 3.99606 3.33006C3.70427 3.75916 3.5999 4.29526 3.5999 4.64708H2.3999C2.3999 4.11655 2.54554 3.32912 3.00375 2.65529Z" fill="#333333"/>
<path fill-rule="evenodd" clip-rule="evenodd" d="M10 6.5H6V5.5H10V6.5Z" fill="#333333"/>
<path fill-rule="evenodd" clip-rule="evenodd" d="M10 8.5H6V7.5H10V8.5Z" fill="#333333"/>
</svg>
