<?xml version="1.0" encoding="utf-8"?><svg id="Слой_1" xmlns="http://www.w3.org/2000/svg" viewBox="0 0 612 160.7"><style>.st0{fill:#ececec}</style><path class="st0" d="M202.2 273.6c7.2 0 19.4.2 37.6.4 41.3.6 97.8 1.4 111.1-.3 20.3-2.5 392.1-.4 443.9-.1-5.7-20.1-22.7-92.2 10.4-137.1 18.1-24.5 48.1-36.6 89.1-35.9 43.2.8 74.5 14.3 93 40.2 14.7 20.6 21.1 49.4 18.5 83.3-1.3 17.6-4.7 32.2-6.7 39.7l67.5-4.7c.1 0 14.1-.1 24.7-6.7 10.3-6.4 16.2-23.1 20.2-37 4.4-15.3 3.6-30.3-2.5-46-6.9-17.5-32.7-33.3-55.6-47.3-14.9-9.1-51.3-17.4-77.8-23.4-15.2-3.5-28.3-6.4-34.7-8.9C925 84 828.7 75.1 807.3 77.7c-21.9 2.7-147.1 1.2-355.8-2.3-73.1-1.2-115.2-5.4-168.4-10.6-19.5-1.9-41.6-4.1-67.4-6.4-89.6-7.8-152.8-7.3-173.7-6-19.6 1.3-38.6 3.8-60 7.9-20.7 4-24.8 7.2-29 12-5 5.7-26 42.3-28.7 48.3-1.8 4.1-6.8 25.3-9.7 38.5l-.1.7-5 8.2c.2 2.3.9 8.8 3.8 19.9 3.7 14 25 41.4 43.9 56.4 11.9 9.4 24.3 10.7 31.2 10.4-6.8-14.2-21.9-54.7-2.5-100 11-25.9 32.6-45.8 60.6-55.9 35.2-12.7 76.1-8.7 115.2 11.4 33.1 17 48.3 52 43.9 101.3-2.4 27.5-10.1 51.9-14 62.8 1-.1 2.1-.3 3.2-.4.7-.2 3.2-.3 7.4-.3m-22.8 9.4l2.3-5.7c.5-1.2 49.1-122.7-23.8-160-37.1-19-75.7-22.9-108.8-11-26 9.4-45.8 27.7-56 51.5-22 51.7 4.6 97.7 4.9 98.2l2.8 4.7-5.3 1.2c-.9.2-22.7 4.9-43.3-11.4-20.7-16.4-42.5-44.7-46.6-60.7-4.1-15.6-4.1-22.7-4.1-23v-1.1l5.6-9c1.2-5.6 7.5-33.5 10.1-39.4 2.6-5.9 24.1-43.7 29.9-50.3 6-6.8 12.3-10.5 33.5-14.6 21.7-4.2 41.1-6.8 61-8 21.1-1.4 84.8-1.9 174.9 6 25.8 2.2 47.9 4.4 67.5 6.4 55.1 5.4 94.9 9.4 167.7 10.6 203.1 3.4 333.3 5 354.7 2.3 20.7-2.6 119.1 5.7 137.6 12.9 5.8 2.2 18.7 5.2 33.6 8.5 28.6 6.5 64.1 14.6 80.2 24.4 23.9 14.6 51 31.2 58.8 51.2 6.7 17.1 7.7 34.3 2.8 51.1-4.7 16.2-11.2 33.7-23.7 41.5-12.1 7.5-27 7.9-28.8 7.9l-78.7 5.5 1.8-5.6c.2-.8 23.8-75.5-9.2-121.6-16.9-23.7-46.1-36.1-86.7-36.8-38.4-.8-66.1 10.3-82.5 32.6-35.6 48.2-7.9 134.2-7.6 135.1l1.7 5.3h-5.5c-4.3 0-427.5-2.6-448.3 0-13.8 1.7-70.7.9-112.2.3-21.4-.3-41.6-.6-43.9-.3-6.3.9-10 1-10.2 1l-6.2.3z" transform="translate(57.323 14.878) scale(.47089)"/><path class="st0" d="M698 213.9h161.5c3.8-6.2 15.6-27.4 10.9-41.4-2.7-8.2-21.4-14.9-49-17.8-.2.8-.4 1.6-.6 2.3-4.7 16.2-11.2 33.7-23.7 41.5-12.1 7.5-27 7.9-28.8 7.9l-69.9 4.9-.4 2.6zm165.8 8H688.4l1.8-10h-.6l1.4-4.3 8.1-45.3 8.5-1.2-.4 5c-1.4 16.4-4.5 29.8-6.4 37l67.5-4.7c.1 0 14.1-.1 24.7-6.7 10.3-6.4 16.2-23.1 20.2-37 .5-1.7.9-3.5 1.3-5.2l.7-3.5 3.5.3c19.8 1.8 53.8 7.2 59.3 23.5 6.8 20.2-12.1 49-12.9 50.2l-1.3 1.9z" transform="translate(197.884 43.699) scale(.47089)"/><path class="st0" d="M165.7 66.9c46.9 4.9 199.4 19.6 357.5 23.4 156.2 3.7 288.3 1.3 330.6.4C811.3 67.1 662.8-7.2 494-2.1 329.4 3 205.3 50 165.7 66.9m531.5 33.4c-51.1 0-110.7-.5-174.1-2-189.6-4.5-371.1-24.8-372.9-25l-13.5-1.5 12.2-6c1.4-.7 143.2-69.6 344.9-75.8 202.1-6.2 374.8 99.9 376.5 100.9l11.2 7-13.2.4c-1.1 0-69.6 2-171.1 2" transform="translate(46.988 4.857) scale(.47089)"/><path class="st0" d="M96.8 61.1h93.7c4.9-3.8 19.8-10.8 65.8-25.6 14.6-4.7 26.3-8.3 35.4-11.1L84.4 27 62.2 44.4l34.6 16.7zm99.2 8H95L47.1 46l34.5-27h1.3l239.3-2.9.9 7.9c-.1 0-15.6 3.4-64.4 19.1C210.8 58.5 198.8 65 196 66.8v2.3z" transform="translate(27.447 6.83) scale(.47089)"/><path class="st0" d="M36.4 51.3l53.2.2 24.2-18.9C106.4 23 96 11 92.1 9.4c-3.9-1.6-30.7-2.1-55.7-1.8v43.7zm56 8.1l-63.9-.2V-.2l3.9-.1c9.1-.2 55.1-.9 62.8 2.3 7.9 3.2 24.2 24.7 27.4 28.9l2.3 3.1-32.5 25.4z" transform="translate(10.333 1.993) scale(.47089)"/><path class="st0" d="M38.2 38.4L26 63.4C42.8 53.3 76.1 36 123.6 25.1c26.5-6.1 50.5-8.9 72.4-9.2-1.3-.1-2.6-.2-3.9-.2-82.6-4.8-144.3 18.7-153.9 22.7m325.5 134.2h492.8c-5.6-14.6-37.2-63.7-212.2-85.2-127.5-15.6-221-33.4-296.1-47.7-29.6-5.6-56.3-10.7-80.7-14.8 32.6 9.1 59.3 23.9 82.7 39.3 20.4 13.4 28.7 37.6 24 69.9-2.3 16.5-7.5 30.9-10.5 38.5m502.1 8H351.4l2.7-5.7c.4-.8 34.9-75.7-8.2-104.1-49.5-32.5-114.4-62.5-220.4-38C58 48.4 18.9 77.6 18.5 77.9l-13.3 10 27-55.7 1.3-.6c.7-.3 67.3-29.3 159-23.9 43 2.5 93.3 12.1 157.1 24.2 75 14.3 168.3 32 295.5 47.7 214.3 26.3 220.2 94 220.4 96.9l.3 4.1z" transform="translate(10.822 40.996) scale(.47089)"/><path class="st0" d="M258.4 84.7c38.5 1.9 269.7 13.2 376.2 12.5 82.8-.6 137.8-1.3 162.6-1.7C762.7 77.3 666.7 29.8 577 15 465.5-3.5 381.8 6.2 381 6.3h-.1C374.4 6.9 296 21.7 280 45c-11.8 17.2-18.6 32.2-21.6 39.7m366.1 20.5c-120.4 0-369.4-12.7-372-12.9l-5.2-.3 1.6-5c.3-.9 7.1-21.2 24.5-46.6C292.2 12.9 376.5-1.1 380-1.6c.8-.1 85.6-10 198.2 8.7C691 25.7 813.1 95 814.3 95.7l12.5 7.2-14.4.3c-.6 0-62.1 1.2-177.9 2h-10" transform="translate(73.253 2.537) scale(.47089)"/><path class="st0" d="M698.4 65.3c16.2 15.2 45.3 41.7 58.8 48 13.6 6.3 36.6 9.5 48.9 10.8-6.8-9.3-21.4-26.1-43.1-36.1-20.8-9.4-47.9-17.9-64.6-22.7m122.7 68.1l-7.4-.5c-1.6-.1-39.6-2.8-60-12.3-20.3-9.5-70.3-58.4-72.4-60.5l-10.6-10.4 14.4 3.7c.5.1 48.4 12.5 81.1 27.5 33.5 15.4 50.5 44.8 51.2 46.1l3.7 6.4z" transform="translate(198.006 33.391) scale(.47089)"/><path class="st0" d="M251 67.9c-.7 0-1.3.6-1.4 1.3 0 .5.2.8.3 1 .1.2.4.4.9.5l66.3 5.2c.7 0 1.4-.5 1.5-1.3 0-.5-.2-.8-.3-1-.1-.2-.4-.4-.9-.5l-66.3-5.2h-.1m66.3 15.9h-.7l-66.2-5.2c-5.1-.4-9-4.9-8.6-10 .4-5.1 5-9 10-8.6l66.3 5.2c5.1.4 9 4.9 8.6 10-.5 4.9-4.6 8.6-9.4 8.6" transform="translate(71.168 21.389) scale(.47089)"/><path class="st0" d="M133.1 42.6c-42.8 0-77.7 34.9-77.7 77.7 0 42.8 34.9 77.7 77.7 77.7s77.7-34.9 77.7-77.7c-.1-42.8-34.9-77.7-77.7-77.7m0 163.4c-47.2 0-85.7-38.4-85.7-85.7s38.4-85.7 85.7-85.7 85.7 38.4 85.7 85.7-38.5 85.7-85.7 85.7" transform="translate(37.723 56.145) scale(.47089)"/><path class="st0" d="M133.1 20.7c-51.6 0-93.7 42-93.7 93.7s42 93.7 93.7 93.7 93.7-42 93.7-93.7-42.1-93.7-93.7-93.7m0 195.3c-56 0-101.6-45.6-101.6-101.6 0-56 45.6-101.6 101.6-101.6s101.6 45.6 101.6 101.6c0 56-45.6 101.6-101.6 101.6" transform="translate(37.723 58.97) scale(.47089)"/><path class="st0" d="M634 42.6c-42.8 0-77.7 34.9-77.7 77.7 0 42.8 34.9 77.7 77.7 77.7 42.8 0 77.7-34.9 77.7-77.7 0-42.8-34.8-77.7-77.7-77.7m0 163.4c-47.2 0-85.7-38.4-85.7-85.7s38.4-85.7 85.7-85.7c47.2 0 85.7 38.4 85.7 85.7S681.3 206 634 206" transform="translate(179.76 56.145) scale(.47089)"/><path class="st0" d="M133.1 82.9c-26.7 0-48.4 21.7-48.4 48.4s21.7 48.4 48.4 48.4 48.4-21.7 48.4-48.4-21.7-48.4-48.4-48.4m0 104.8c-31.1 0-56.4-25.3-56.4-56.4 0-31.1 25.3-56.4 56.4-56.4s56.4 25.3 56.4 56.4c0 31.1-25.3 56.4-56.4 56.4" transform="translate(37.723 50.965) scale(.47089)"/><path class="st0" d="M634 82.9c-26.7 0-48.4 21.7-48.4 48.4s21.7 48.4 48.4 48.4 48.4-21.7 48.4-48.4-21.7-48.4-48.4-48.4m0 104.8c-31.1 0-56.4-25.3-56.4-56.4 0-31.1 25.3-56.4 56.4-56.4s56.4 25.3 56.4 56.4c0 31.1-25.3 56.4-56.4 56.4" transform="translate(179.76 50.965) scale(.47089)"/><path class="st0" d="M634 20.7c-51.6 0-93.7 42-93.7 93.7s42 93.7 93.7 93.7c51.6 0 93.7-42 93.7-93.7s-42-93.7-93.7-93.7m0 195.3c-56 0-101.6-45.6-101.6-101.6 0-56 45.6-101.6 101.6-101.6s101.6 45.6 101.6 101.6c.1 56-45.5 101.6-101.6 101.6" transform="translate(179.76 58.97) scale(.47089)"/><path class="st0" d="M5.3 214.3h108.5l-3.7-13.1c-7.9-.2-28.5-1.6-39.6-11.7-10.2-9.2-28.3-27-34.9-33.4C26 163.7 7.7 180.2 6 191.8c-1.7 10.8-1.2 18.6-.7 22.5m119 8H-1.1l-.8-2.9c-.1-.4-2.8-10.8-.1-28.8 2.8-18.4 32.2-40.5 35.5-43l2.7-2 2.4 2.4c.2.2 24.8 24.4 37.1 35.6 9.4 8.5 30 9.8 37.1 9.6l3.1-.1 8.4 29.2z" transform="translate(1.505 43.53) scale(.47089)"/><path class="st0" d="M200 165.8l-7.8 25.4 604.2-1-5.7-24.4H200zm-18.7 33.4l12.8-41.4h603l9.4 40.3-625.2 1.1z" transform="translate(56.705 54.222) scale(.47089)"/></svg>