<svg xmlns="http://www.w3.org/2000/svg" viewBox="0 0 23 16"><path class="fill comment1" d="M9,0A2,2,0,0,0,7,2v8a2,2,0,0,0,2,2H23L20,9.75V2a2,2,0,0,0-2-2Z" style="fill-rule:evenodd" stroke="none" /><path class="fill comment2" d="M14,4a2,2,0,0,1,2,2v8a2,2,0,0,1-2,2H0l3-2.25V6A2,2,0,0,1,5,4Z" style="fill-rule:evenodd" stroke="none" /><rect class="fill white" x="6" y="7" width="7" height="1" stroke="none" /><rect class="fill white" x="6" y="9" width="7" height="1" stroke="none"/><rect class="fill white" x="6" y="11" width="7" height="1" stroke="none" /></svg>