<svg width="24" height="24" viewBox="0 0 24 24" fill="none" xmlns="http://www.w3.org/2000/svg">
<path d="M5.24262 18.3137C0.999976 14.0711 4.77121 10.2998 6.65683 8.41422L8.77815 10.5355C7.36394 11.9497 5.24262 14.0711 7.36394 16.1924C9.06099 17.8894 11.6066 16.1924 13.0208 14.7782L15.1421 16.8995C13.2565 18.7851 9.48526 22.5564 5.24262 18.3137Z" stroke="#333333"/>
<rect x="8.07104" y="7" width="3" height="2" transform="rotate(45 8.07104 7)" stroke="#333333"/>
<rect x="14.435" y="13.364" width="3" height="2" transform="rotate(45 14.435 13.364)" stroke="#333333"/>
<circle cx="17.1111" cy="4.55556" r="1.55556" stroke="#0094FF"/>
<path d="M14.3202 8.39914C14.5863 7.06875 15.7544 6.11111 17.1111 6.11111V6.11111C18.4678 6.11111 19.636 7.06875 19.902 8.39914L20.2222 10H14L14.3202 8.39914Z" stroke="#0094FF"/>
</svg>
