<svg xmlns="http://www.w3.org/2000/svg" viewBox="0 0 16 15.33"><path d="M15.47,6.27l-1-4.34A2.66,2.66,0,0,0,12,0H4A2.66,2.66,0,0,0,1.53,1.93l-1,4.34A1.38,1.38,0,0,0,0,7.33v7.34a.63.63,0,0,0,.67.66H2a.63.63,0,0,0,.67-.66v-2H13.33v2a.63.63,0,0,0,.67.66h1.33a.63.63,0,0,0,.67-.66V7.33A1.21,1.21,0,0,0,15.47,6.27Zm-12.6-4A1.35,1.35,0,0,1,4,1.33h8a1.27,1.27,0,0,1,1.13.94l.74,3.06H2.13ZM4,8.33a.32.32,0,0,1-.33.34h-2a.33.33,0,0,1-.34-.34V7.67a.33.33,0,0,1,.34-.34h2A.32.32,0,0,1,4,7.67Zm10.67,0a.33.33,0,0,1-.34.34h-2A.32.32,0,0,1,12,8.33V7.67a.32.32,0,0,1,.33-.34h2a.33.33,0,0,1,.34.34Z" fill="#333"/></svg>