<svg xmlns="http://www.w3.org/2000/svg" viewBox="0 0 16 24"><path d="M15,6.56V4c.55,0,1-.6,1-1.33V1.33C16,.6,15.55,0,15,0H1C.45,0,0,.6,0,1.33V2.67C0,3.4.45,4,1,4V6.56A4,4,0,0,0,2.5,9.68L5.4,12,2.5,14.32A4,4,0,0,0,1,17.44V20c-.55,0-1,.6-1,1.33v1.34C0,23.4.45,24,1,24H15c.55,0,1-.6,1-1.33V21.33c0-.73-.45-1.33-1-1.33V17.44a4,4,0,0,0-1.5-3.12L10.6,12l2.9-2.32A4,4,0,0,0,15,6.56Zm-2,0a2,2,0,0,1-.75,1.56l-2.9,2.32A2,2,0,0,0,9,13.25a2.27,2.27,0,0,0,.31.31l2.9,2.32A2,2,0,0,1,13,17.44V20H11.21l-2.8-3.9a.49.49,0,0,0-.7-.11.63.63,0,0,0-.12.11L4.79,20H3V17.44a2,2,0,0,1,.75-1.56l2.9-2.32A2,2,0,0,0,7,10.75a2.27,2.27,0,0,0-.31-.31L3.75,8.12A2,2,0,0,1,3,6.56V4H13ZM5.43,6.43a.26.26,0,0,1,0-.36A.29.29,0,0,1,5.61,6h4.78a.25.25,0,0,1,.25.25.29.29,0,0,1-.07.18L8.35,8.61a.48.48,0,0,1-.7,0Z"/></svg>