<svg xmlns="http://www.w3.org/2000/svg" viewBox="0 0 23.08 23.54"><path d="M22.9,16.57l-4.58,6.55a1,1,0,0,1-1.39.24,1.14,1.14,0,0,1-.25-.24L12.1,16.57A1,1,0,0,1,12.92,15H15V1a1,1,0,0,1,1-1h3a1,1,0,0,1,1,1V15h2.08a1,1,0,0,1,1,1A.94.94,0,0,1,22.9,16.57ZM1,4H3A1,1,0,0,0,4,3V1A1,1,0,0,0,3,0H1A1,1,0,0,0,0,1V3A1,1,0,0,0,1,4Zm0,6H5A1,1,0,0,0,6,9V7A1,1,0,0,0,5,6H1A1,1,0,0,0,0,7V9A1,1,0,0,0,1,10Zm0,6H7a1,1,0,0,0,1-1V13a1,1,0,0,0-1-1H1a1,1,0,0,0-1,1v2A1,1,0,0,0,1,16Zm8,2H1a1,1,0,0,0-1,1v2a1,1,0,0,0,1,1H9a1,1,0,0,0,1-1V19A1,1,0,0,0,9,18Z" stroke="none" /></svg>