<svg width="12" height="12" viewBox="0 0 12 12" fill="none" xmlns="http://www.w3.org/2000/svg">
<path d="M7.03434 9.11126H4.73352V11H3.4217V9.11126H2V8.0261H3.4217V7.08517H2V6.00687H3.4217V1H7.10989C8.18132 1 9.03068 1.27244 9.65797 1.81731C10.2853 2.36218 10.5989 3.09936 10.5989 4.02885C10.5989 5.00412 10.2967 5.75733 9.69231 6.28846C9.09249 6.81502 8.23855 7.08059 7.13049 7.08517H4.73352V8.0261H7.03434V9.11126ZM4.73352 6.00687H7.10989C7.8196 6.00687 8.35989 5.83974 8.73077 5.50549C9.10165 5.17125 9.28709 4.68361 9.28709 4.04258C9.28709 3.46108 9.09478 2.99176 8.71016 2.63462C8.32555 2.27289 7.80586 2.08974 7.1511 2.08516H4.73352V6.00687Z" fill="#333333"/>
</svg>
