<svg width="115" height="116" fill="none" xmlns="http://www.w3.org/2000/svg"><mask id="a" maskUnits="userSpaceOnUse" x="0" y="0" width="115" height="116"><circle cx="57.5" cy="57.75" r="57.5" fill="#C4C4C4"/></mask><g mask="url(#a)"><path d="M46.155 72.606l-.378 4.472-17.045 4.62c-9.24 2.505-16.527 8.499-19.662 16.176l-4.57 11.19s50.798 19.426 106 .089l-4.57-11.19c-3.135-7.677-10.421-13.67-19.662-16.175l-17.395-4.709-.575-4.473" fill="#CCC"/><path d="M69.052 77.76c0 12.178-23.275 12.059-23.275-.103v-7.575l23.275-.321v7.998z" fill="#DDD"/><path d="M40.218 55.986s-8.364-12.916-8.121-21.038c.244-8.122 4.951-6.606 6.083-6.214 0 0 5.41-7.193 17.383-9.255 11.973-2.061 21.735 1.064 21.735 1.064s-3.106 3.966-1.73 7.112c1.376 3.145 6.64 7.289 3.5 19.203l-6.104 9.625-.337-13.79-.074-4.294-15.139.56-17.369-2.615 3.682 7.47-3.51 12.172z" fill="#CCC"/><path d="M35.172 46.597s-2.686 1.995-2.794 5.748c-.109 3.752 1.495 7.763 6.067 8.137 0 0 1.59 7.459 7.332 12.124 5.742 4.667 12.213 4.473 12.213 4.473S72.665 74.543 75.867 60.7c0 0 6.022-.745 6.585-5.642.563-4.897-3.384-8.2-3.384-8.2L74.33 54.2l-.51-11.312.904-6.544-17.224.922-18.122-1.38 1.672 6.993-.925 11.66-4.952-7.943z" fill="#DDD"/><circle cx="57.5" cy="57.75" r="57" stroke="#CCC"/></g></svg>