<?xml version="1.0" encoding="utf-8"?><svg width="13" height="12" fill="none" xmlns="http://www.w3.org/2000/svg" viewBox="0 0 13 12"><path d="M5.5 10.5H7v1c0 .3-.2.5-.5.5H6c-.3 0-.5-.2-.5-.5v-1zM3 4h-.5V.5C2.5.2 2.3 0 2 0h-.5c-.3 0-.5.2-.5.5V4H.5c-.3 0-.5.2-.5.5V6c0 .3.2.5.5.5H3c.3 0 .5-.2.5-.5V4.5c0-.3-.2-.5-.5-.5zm-2 7.5c0 .3.2.5.5.5H2c.3 0 .5-.2.5-.5v-4H1v4zM12 3h-.5V.5c0-.3-.2-.5-.5-.5h-.5c-.3 0-.5.2-.5.5V3h-.5c-.3 0-.5.2-.5.5V5c0 .3.2.5.5.5H12c.3 0 .5-.2.5-.5V3.5c0-.3-.2-.5-.5-.5zm-2 8.5c0 .3.2.5.5.5h.5c.3 0 .5-.2.5-.5v-5H10v5zM7.5 7H7V.5c0-.3-.2-.5-.5-.5H6c-.3 0-.5.2-.5.5V7H5c-.3 0-.5.2-.5.5V9c0 .3.2.5.5.5h2.5c.3 0 .5-.2.5-.5V7.5c0-.3-.2-.5-.5-.5z" fill="#0094FF"/></svg>