<?xml version="1.0" encoding="utf-8"?><svg width="12" height="12" fill="none" xmlns="http://www.w3.org/2000/svg" viewBox="0 0 12 12"><path d="M11.6 4.7l-.75-3.25C10.65.65 9.85 0 9 0H3c-.85 0-1.65.65-1.85 1.45L.4 4.7c-.25.2-.4.5-.4.8V11c0 .3.2.5.5.5h1c.3 0 .5-.2.5-.5V9.5h8V11c0 .3.2.5.5.5h1c.3 0 .5-.2.5-.5V5.5c0-.35-.15-.65-.4-.8zm-9.45-3c.1-.35.5-.7.85-.7h6c.35 0 .8.35.85.7L10.4 4H1.6l.55-2.3zM3 6.25c0 .15-.1.25-.25.25h-1.5C1.1 6.5 1 6.4 1 6.25v-.5c0-.15.1-.25.25-.25h1.5c.15 0 .25.1.25.25v.5zm8 0c0 .15-.1.25-.25.25h-1.5C9.1 6.5 9 6.4 9 6.25v-.5c0-.15.1-.25.25-.25h1.5c.15 0 .25.1.25.25v.5z" fill="#0094FF"/></svg>