<?xml version="1.0" encoding="utf-8"?><svg width="14" height="14" fill="none" xmlns="http://www.w3.org/2000/svg" viewBox="0 0 14 14"><path d="M8.18 4.25v2.33c.317.162.529.541.529.92 0 .109 0 .163-.053.271l.846.867a.533.533 0 010 .758.502.502 0 01-.74 0l-.846-.867c-.106 0-.158.055-.264.055-.582 0-1.057-.488-1.057-1.084 0-.379.211-.758.528-.92V4.25c0-.324.212-.541.529-.541.317 0 .528.217.528.542zM7.6 1c-3.277.055-5.972 2.655-6.236 5.959H.253c-.212 0-.317.27-.212.433l1.85 2.762a.244.244 0 00.423 0l1.85-2.762c.105-.162 0-.433-.212-.433H2.895c.265-2.383 2.22-4.28 4.651-4.333 2.59-.054 4.757 2.112 4.862 4.712.106 2.762-2.06 5.037-4.756 5.037-1.269 0-2.431-.487-3.277-1.354-.211-.217-.634-.217-.793.108l-.317.434a.522.522 0 00.106.704A6.138 6.138 0 007.651 14c3.595 0 6.501-3.033 6.343-6.77C13.835 3.763 10.98.947 7.599 1z" fill="#fff"/><path d="M8.18 3.25v2.33c.317.162.529.541.529.92 0 .109 0 .163-.053.271l.846.867a.533.533 0 010 .758.502.502 0 01-.74 0l-.846-.867c-.106 0-.158.055-.264.055-.582 0-1.057-.488-1.057-1.084 0-.379.211-.758.528-.92V3.25c0-.324.212-.541.529-.541.317 0 .528.217.528.542zM7.6 0C4.322.056 1.627 2.656 1.363 5.96H.253c-.212 0-.317.27-.212.433l1.85 2.762a.244.244 0 00.423 0l1.85-2.762c.105-.162 0-.433-.212-.433H2.895c.265-2.383 2.22-4.28 4.651-4.333 2.59-.054 4.757 2.112 4.862 4.712.106 2.762-2.06 5.037-4.756 5.037-1.269 0-2.431-.487-3.277-1.354-.211-.217-.634-.217-.793.108l-.317.434a.522.522 0 00.106.704A6.138 6.138 0 007.651 13c3.595 0 6.501-3.033 6.343-6.77C13.835 2.763 10.98-.053 7.599 0z" fill="#1E6393"/></svg>