<?xml version="1.0" encoding="utf-8"?><svg width="24" height="23.04" fill="none" xmlns="http://www.w3.org/2000/svg" viewBox="0 0 25 24"><g clip-path="url(#axclip0_8440:7326)"><path d="M6.514 22.5l-5-5 .586-.586a2 2 0 012.829 0L7.1 19.086a2 2 0 010 2.828l-.586.586zM7.514 19.5l1.415-1.414a2 2 0 011.414-.586h5.547a2 2 0 001.138-.355l4.886-3.383c.601-.416.736-1.248.297-1.832v0a1.288 1.288 0 00-1.693-.332L16.514 14m-12 2.5L6.848 13a2 2 0 011.863-.88l3.803.38h2.75c.69 0 1.25.56 1.25 1.25v0c0 .69-.56 1.25-1.25 1.25h-2.75" stroke="#333"/><circle cx="12.514" cy="4" r="2" stroke="#0094FF"/><path d="M8.926 8.942A3.66 3.66 0 0112.514 6v0a3.66 3.66 0 013.589 2.942L16.514 11h-8l.412-2.058z" stroke="#0094FF"/></g><defs><clipPath id="axclip0_8440:7326"><path fill="#fff" transform="translate(.514)" d="M0 0h24v24H0z"/></clipPath></defs></svg>