<?xml version="1.0" encoding="utf-8"?><svg xmlns="http://www.w3.org/2000/svg" viewBox="0 0 24 24" width="24" height="24"><path d="M23.74 9.59A3.9 3.9 0 0122 10h-.21c.07.33.12.66.16 1h-2.56l-.75.82A3.26 3.26 0 0114 12a3.43 3.43 0 01-.73-1H13V9.46A4 4 0 0111 6H8.19A9.15 9.15 0 0111 2.94V2a4 4 0 01.56-2H11v.05A12 12 0 00.05 11H0v2h.05A12 12 0 0011 24h2a12 12 0 0011-11v-2a11.15 11.15 0 00-.26-1.41zM8.14 2.78A9.91 9.91 0 006 6H4a10 10 0 014.14-3.22zM2.84 8H5.4a16.85 16.85 0 00-.4 3H2a10 10 0 01.84-3zm0 8a10 10 0 01-.79-3H5a16.85 16.85 0 00.37 3zM4 18h2a9.91 9.91 0 002.12 3.22A10 10 0 014 18zm7 3.06A9.15 9.15 0 018.19 18H11zM11 16H7.44A14.46 14.46 0 017 13h4zm0-5H7a14.46 14.46 0 01.42-3H11zm2 2h4a14.46 14.46 0 01-.42 3H13zm0 8.06V18h2.81A9.15 9.15 0 0113 21.06zm2.86.16A9.91 9.91 0 0018 18h2a10 10 0 01-4.14 3.22zm5.3-5.22H18.6a16.85 16.85 0 00.4-3h3a9.71 9.71 0 01-.84 3zM22 0h-7a2 2 0 00-2 2v4a2 2 0 002 2v1.61a1.25 1.25 0 002.17.85L19.44 8H22a2 2 0 002-2V2a2 2 0 00-2-2zm0 6h-3.44L17 7.69V6h-2V2h7z"/></svg>