<?xml version="1.0" encoding="utf-8"?><svg xmlns="http://www.w3.org/2000/svg" viewBox="0 0 18 19.07" width="18" height="19.07"><path d="M0 5a5 5 0 019.82-1.32H15a2.19 2.19 0 011 .21l-.15.11s-.07 0-.07.08l-2 1.75H9.94A5 5 0 015 10a5.29 5.29 0 01-.9-.08v6.7a.33.33 0 00.35.35H15a.33.33 0 00.35-.35v-5.45l2.09-2.31v7.76A2.48 2.48 0 0115 19.07H4.45A2.48 2.48 0 012 16.62V9a5 5 0 01-2-4zm1.25 0A3.75 3.75 0 105 1.25 3.74 3.74 0 001.25 5zM5 5.83A.83.83 0 005.83 5a.81.81 0 00-.41-.71V2.5a.42.42 0 00-.84 0v1.79a1 1 0 00-.29.29h-1a.39.39 0 00-.37.42.39.39 0 00.41.42h1a.81.81 0 00.67.41zm12.88-.12l-.7-.7a.34.34 0 00-.49 0l-7.41 6.57-2.52-1.25a.43.43 0 00-.42.07l-.56.7c-.14.14-.07.34 0 .48L9 15a.76.76 0 001.05 0L18 6.27a.53.53 0 00-.12-.56z" fill="#333" fill-rule="evenodd"/></svg>