<?xml version="1.0" encoding="utf-8"?><svg xmlns="http://www.w3.org/2000/svg" viewBox="0 0 16 15.92" width="16" height="15.92"><path d="M13.36 13.71v1.63a.55.55 0 01-.58.58H.58a.55.55 0 01-.58-.58v-1.63a.91.91 0 01.52-.81l3-1.57A2.9 2.9 0 006.1 13h1.11a2.9 2.9 0 002.61-1.63l3 1.57a1 1 0 01.54.77zM3.25 7.84a1.88 1.88 0 00.75.88l.41 1.8a1.73 1.73 0 001.69 1.39h1.11a1.73 1.73 0 001.68-1.39l.41-1.8a1.65 1.65 0 00.46-.41 1.35 1.35 0 01-.93-.58 1.25 1.25 0 01-.17-1.28l.52-1.57-1.34-1a1.39 1.39 0 01-.52-1.57A1.46 1.46 0 017.5 2a4.25 4.25 0 00-.82 0c-2 0-3.19 1.16-3.19 2.9v1.49a.75.75 0 00-.35 1zm12.44-5.28h-2.5l-.35-1.17-.4-1.22a.25.25 0 00-.47 0l-.41 1.22-.35 1.17H8.72a.27.27 0 00-.18.44l1.05.76 1 .69-.35 1.17-.42 1.24c-.06.23.17.4.41.29l1-.76 1-.7 1 .7 1 .76a.28.28 0 00.41-.29l-.41-1.22L14 4.47l1-.69L16 3a.33.33 0 00-.31-.44z" fill="#333"/></svg>