<?xml version="1.0" encoding="utf-8"?><svg xmlns="http://www.w3.org/2000/svg" viewBox="0 0 16 15.33" width="16" height="15.33"><path d="M15.47 6.27l-1-4.34A2.66 2.66 0 0012 0H4a2.66 2.66 0 00-2.47 1.93l-1 4.34A1.38 1.38 0 000 7.33v7.34a.63.63 0 00.67.66H2a.63.63 0 00.67-.66v-2h10.66v2a.63.63 0 00.67.66h1.33a.63.63 0 00.67-.66V7.33a1.21 1.21 0 00-.53-1.06zm-12.6-4A1.35 1.35 0 014 1.33h8a1.27 1.27 0 011.13.94l.74 3.06H2.13zM4 8.33a.32.32 0 01-.33.34h-2a.33.33 0 01-.34-.34v-.66a.33.33 0 01.34-.34h2a.32.32 0 01.33.34zm10.67 0a.33.33 0 01-.34.34h-2a.32.32 0 01-.33-.34v-.66a.32.32 0 01.33-.34h2a.33.33 0 01.34.34z" fill="#333"/></svg>