<?xml version="1.0" encoding="utf-8"?><svg xmlns="http://www.w3.org/2000/svg" viewBox="0 0 16 14.26" width="16" height="14.26"><path d="M15.87 13L8.74.46a.83.83 0 00-1.48 0L.13 13a.77.77 0 000 .85.81.81 0 00.74.4h14.26a1 1 0 00.74-.4.77.77 0 000-.85zm-13.52-.45L8 2.57l5.65 10zm6.51-1.71v.57a.54.54 0 01-.57.57h-.58a.54.54 0 01-.57-.57v-.57a.54.54 0 01.57-.57h.58a.54.54 0 01.57.57zM7.71 5.7h.58a.54.54 0 01.57.57V8l-.35 1.47a.26.26 0 01-.28.23h-.46c-.11 0-.28-.12-.28-.23L7.14 8V6.27a.54.54 0 01.57-.57z"/></svg>