<?xml version="1.0" encoding="utf-8"?><svg width="17" height="15" fill="none" xmlns="http://www.w3.org/2000/svg" viewBox="0 0 17 15"><path d="M16.142 8.459c0 1.049-.408 2.098-1.108 2.914-.757.874-1.923 1.165-2.68 1.165h-.583V10.79h.583c.408 0 1.049-.175 1.398-.583.408-.466.7-1.107.7-1.748a2.885 2.885 0 00-2.914-2.914c-.117 0-.583.059-.874.117-.117 0-.291-.058-.291-.175l-.117-.35c-.466-1.34-1.573-2.33-2.972-2.447-2.098-.233-3.846 1.457-3.846 3.496 0 .233.058.525.117.816l.116.524c.058.175-.058.292-.175.35l-.524.175c-.758.233-1.224.874-1.224 1.69 0 .233.058.466.233.7.175.232.641.465 1.05.465h1.34v1.748H3.03c-.991 0-1.982-.466-2.448-1.165C.233 10.965 0 10.382 0 9.741c0-1.282.7-2.448 1.748-3.03v-.466A5.223 5.223 0 016.993 1c1.981 0 3.846 1.165 4.72 2.914 2.33-.117 4.429 1.98 4.429 4.545zm-5.944 2.914h-1.34V8.168c0-.175-.117-.292-.292-.292H7.401c-.175 0-.292.117-.292.292v3.205H5.77c-.233 0-.35.29-.233.466l2.214 3.03c.117.175.35.175.466 0l2.215-3.03c.116-.175 0-.466-.233-.466z" fill="#fff"/><path d="M16.142 7.459c0 1.049-.408 2.098-1.108 2.914-.757.874-1.923 1.165-2.68 1.165h-.583V9.79h.583c.408 0 1.049-.175 1.398-.583.408-.466.7-1.107.7-1.748a2.885 2.885 0 00-2.914-2.914c-.117 0-.583.059-.874.117-.117 0-.291-.058-.291-.175l-.117-.35c-.466-1.34-1.573-2.33-2.972-2.447-2.098-.233-3.846 1.457-3.846 3.496 0 .233.058.525.117.816l.116.524c.058.175-.058.292-.175.35l-.524.175c-.758.233-1.224.874-1.224 1.69 0 .233.058.466.233.7.175.232.641.465 1.05.465h1.34v1.748H3.03c-.991 0-1.982-.466-2.448-1.165C.233 9.965 0 9.382 0 8.741c0-1.282.7-2.448 1.748-3.03v-.466A5.223 5.223 0 016.993 0c1.981 0 3.846 1.165 4.72 2.914 2.33-.117 4.429 1.98 4.429 4.545zm-5.944 2.914h-1.34V7.168c0-.175-.117-.292-.292-.292H7.401c-.175 0-.292.117-.292.292v3.205H5.77c-.233 0-.35.29-.233.466l2.214 3.03c.117.175.35.175.466 0l2.215-3.03c.116-.175 0-.466-.233-.466z" fill="#1E6393"/></svg>