<?xml version="1.0" encoding="utf-8"?><svg xmlns="http://www.w3.org/2000/svg" viewBox="0 0 16 16" width="16" height="16"><path d="M14.22 0H1.78A1.78 1.78 0 000 1.78v12.44A1.78 1.78 0 001.78 16h12.44A1.78 1.78 0 0016 14.22V1.78A1.78 1.78 0 0014.22 0zm0 14.22H1.78V1.78h12.44zm-4.5-7.94a3 3 0 010 4.22l-2 1.94a2.91 2.91 0 01-2.11.89 2.85 2.85 0 01-2.09-.89 2.93 2.93 0 010-4.21L4.76 7v.54A3.65 3.65 0 005 8.84V9l-.36.36a1.48 1.48 0 00-.31.47 1.3 1.3 0 00-.12.55 1.33 1.33 0 00.12.55 1.44 1.44 0 00.31.46 1.45 1.45 0 002 0l1.98-1.98a1.46 1.46 0 00.43-1 1.41 1.41 0 00-.43-1 .85.85 0 01-.17-.25.8.8 0 01-.06-.3.73.73 0 01.06-.3.74.74 0 01.17-.25.79.79 0 011.1-.03zm3.61-.63a2.94 2.94 0 01-.89 2.12L11.25 9v-.56a3.65 3.65 0 00-.2-1.28L11 7l.36-.37a1.48 1.48 0 00.31-.47 1.3 1.3 0 00.12-.55 1.33 1.33 0 00-.12-.55 1.44 1.44 0 00-.31-.46 1.46 1.46 0 00-2 0l-1.95 2a1.4 1.4 0 000 2 .75.75 0 01.23.55.73.73 0 01-.23.55.65.65 0 01-.26.17.72.72 0 01-.29.06.74.74 0 01-.55-.23 3 3 0 010-4.22l2-1.94a2.89 2.89 0 011-.66 2.94 2.94 0 012.28 0 2.89 2.89 0 011 .66 2.84 2.84 0 01.74 2.11z" class="bxfill"/></svg>