<?xml version="1.0" encoding="utf-8"?><svg xmlns="http://www.w3.org/2000/svg" viewBox="0 0 14.81 14.16" width="14.81" height="14.16"><path d="M7.41 0a.75.75 0 01.67.42L10 4.23l4.21.61a.76.76 0 01.61.52.74.74 0 01-.19.76l-3.05 3 .72 4.2a.75.75 0 01-1.09.79l-3.76-2-3.77 2a.75.75 0 01-.83-.11.77.77 0 01-.3-.73l.72-4.2-3-3A.72.72 0 010 5.36a.75.75 0 01.6-.52l4.21-.61L6.73.42A.75.75 0 017.41 0zm0 2.44L6 5.25a.74.74 0 01-.56.41l-3.1.45L4.6 8.29a.77.77 0 01.22.71l-.53 3 2.77-1.45a.73.73 0 01.7 0L10.53 12 10 9a.79.79 0 01.21-.67l2.24-2.18-3.09-.49a.74.74 0 01-.57-.41z" class="fill" fill-rule="evenodd"/></svg>