<?xml version="1.0" encoding="utf-8"?><svg xmlns="http://www.w3.org/2000/svg" viewBox="0 0 29 26" width="24" height="21.52"><path d="M29 9v9a1 1 0 01-1 1h-2a1 1 0 01-1-1v-3a4 4 0 00-1.09-2.74L23.57 11h2.93a.5.5 0 00.5-.5v-1a.5.5 0 00-.5-.5H23l-.41-1.53a4.26 4.26 0 00-.12-.47h3.32l-1.06-3.63A2 2 0 0023 2H12a2 2 0 00-1.57 1H8.3v-.08A4 4 0 0112 0h11a4 4 0 013.67 2.92l1.15 4.26A2 2 0 0129 9zm-6 6v10a1 1 0 01-1 1h-2a1 1 0 01-1-1v-2H4v2a1 1 0 01-1 1H1a1 1 0 01-1-1V15a2 2 0 01.87-1.64l1.46-5.44A4 4 0 016 5h11a4 4 0 013.67 2.92l1.46 5.44A2 2 0 0123 15zM3.21 12h16.58l-1.06-3.63A2 2 0 0017 7H6a2 2 0 00-1.73 1.37zM6 15.5a.5.5 0 00-.5-.5h-3a.5.5 0 00-.5.5v1a.5.5 0 00.5.5h3a.5.5 0 00.5-.5zm15 0a.5.5 0 00-.5-.5h-3a.5.5 0 00-.5.5v1a.5.5 0 00.5.5h3a.5.5 0 00.5-.5z"/></svg>