<?xml version="1.0" encoding="utf-8"?><svg xmlns="http://www.w3.org/2000/svg" viewBox="0 0 24 24" width="24" height="24"><path d="M3.5 8H6v3H3.5a.51.51 0 00-.5.5V14H0v-2.5A3.5 3.5 0 013.5 8zM3 20.5V18H0v2.5A3.5 3.5 0 003.5 24H6v-3H3.5a.51.51 0 01-.5-.5zm10 0a.51.51 0 01-.5.5H10v3h2.5a3.5 3.5 0 003.5-3.5V18h-3zm11-17v9a3.5 3.5 0 01-3.5 3.5h-9A3.5 3.5 0 018 12.5v-9A3.5 3.5 0 0111.5 0h9A3.5 3.5 0 0124 3.5zm-3 0a.51.51 0 00-.5-.5h-9a.51.51 0 00-.5.5v9a.51.51 0 00.5.5h9a.51.51 0 00.5-.5z" class="cgfill"/></svg>