<?xml version="1.0" encoding="utf-8"?><svg xmlns="http://www.w3.org/2000/svg" viewBox="0 0 28 28" width="24" height="24"><path d="M5.36 13.37a1.28 1.28 0 01.57-1.71H6V9c0-3 2-5 5.5-5a6.86 6.86 0 012.65.5 8 8 0 003.59 8.26 1.57 1.57 0 01-.1.61l-.28.76A3 3 0 0116 15.59l-.66 3.05A3 3 0 0112.45 21h-1.9a3 3 0 01-2.93-2.36L7 15.59a3 3 0 01-1.32-1.46zM28 6a6 6 0 11-6-6 6 6 0 016 6zm-3-.5a.5.5 0 00-.5-.5H23V3.5a.5.5 0 00-.5-.5h-1a.5.5 0 00-.5.5V5h-1.5a.5.5 0 00-.5.5v1a.5.5 0 00.5.5H21v1.5a.5.5 0 00.5.5h1a.5.5 0 00.5-.5V7h1.5a.5.5 0 00.5-.5zm-2.93 17.37l-5.14-2.7A5 5 0 0112.45 23h-1.9a5 5 0 01-4.48-2.83l-5.14 2.7A1.59 1.59 0 000 24.24V27a1 1 0 001 1h21a1 1 0 001-1v-2.76a1.59 1.59 0 00-.93-1.37z"/></svg>