<?xml version="1.0" encoding="utf-8"?><svg xmlns="http://www.w3.org/2000/svg" viewBox="0 0 22 23" width="22" height="23"><path d="M10 13.5v1a.5.5 0 01-.5.5h-1a.5.5 0 01-.5-.5v-1a.5.5 0 01.5-.5h1a.5.5 0 01.5.5zM9.5 17h-1a.5.5 0 00-.5.5v1a.5.5 0 00.5.5h1a.5.5 0 00.5-.5v-1a.5.5 0 00-.5-.5zm0-8h-1a.5.5 0 00-.5.5v1a.5.5 0 00.5.5h1a.5.5 0 00.5-.5v-1a.5.5 0 00-.5-.5zm4 8h-1a.5.5 0 00-.5.5v1a.5.5 0 00.5.5h1a.5.5 0 00.5-.5v-1a.5.5 0 00-.5-.5zm-8-4h-1a.5.5 0 00-.5.5v1a.5.5 0 00.5.5h1a.5.5 0 00.5-.5v-1a.5.5 0 00-.5-.5zm0 4h-1a.5.5 0 00-.5.5v1a.5.5 0 00.5.5h1a.5.5 0 00.5-.5v-1a.5.5 0 00-.5-.5zm12-8h-1a.5.5 0 00-.5.5v1a.5.5 0 00.5.5h1a.5.5 0 00.5-.5v-1a.5.5 0 00-.5-.5zm0 4h-1a.5.5 0 00-.5.5v1a.5.5 0 00.5.5h1a.5.5 0 00.5-.5v-1a.5.5 0 00-.5-.5zm-4 0h-1a.5.5 0 00-.5.5v1a.5.5 0 00.5.5h1a.5.5 0 00.5-.5v-1a.5.5 0 00-.5-.5zm0-4h-1a.5.5 0 00-.5.5v1a.5.5 0 00.5.5h1a.5.5 0 00.5-.5v-1a.5.5 0 00-.5-.5zM22 2v19a2 2 0 01-2 2H2a2 2 0 01-2-2V2a2 2 0 012-2v1.5a.5.5 0 00.5.5h1a.5.5 0 00.5-.5v-1a.5.5 0 01.5-.5h1a.5.5 0 01.5.5v1a.5.5 0 00.5.5h1a.5.5 0 00.5-.5v-1a.5.5 0 01.5-.5h1a.5.5 0 01.5.5v1a.5.5 0 00.5.5h1a.5.5 0 00.5-.5v-1a.5.5 0 01.5-.5h1a.5.5 0 01.5.5v1a.5.5 0 00.5.5h1a.5.5 0 00.5-.5v-1a.5.5 0 01.5-.5h1a.5.5 0 01.5.5v1a.5.5 0 00.5.5h1a.5.5 0 00.5-.5V0a2 2 0 012 2zm-2 19V7H2v14z"/></svg>