<?xml version="1.0" encoding="utf-8"?><svg xmlns="http://www.w3.org/2000/svg" viewBox="0 0 24 23" width="24" height="23"><path d="M17 21.24v1.26a.5.5 0 01-.5.5H.5a.5.5 0 01-.5-.5v-1.26a1.87 1.87 0 01.83-1.56l2.95-2.42A5 5 0 007.55 19h1.9a5 5 0 003.77-1.73c1.12.93 2.52 2.08 3 2.41a1.66 1.66 0 01.78 1.56zm6.57-3l-2.21-1.55A4 4 0 0118.28 19a3.41 3.41 0 01.72 2h4.5a.5.5 0 00.5-.5V19a1 1 0 00-.43-.8zM2.64 10.13A3 3 0 004 11.59l.66 3.05A3 3 0 007.55 17h1.9a3 3 0 002.93-2.36l.62-3.05a3 3 0 001.32-1.46l.28-.76a1.28 1.28 0 00-.57-1.71h-.07V5c0-3-2-5-5.5-5S3 2 3 5v2.63a1.27 1.27 0 00-.67 1.67v.07zm17.08 5.12l.16-1.32a1.52 1.52 0 00.94-.88l.36-1.1a.66.66 0 00-.18-.76V9a4 4 0 00-3.9-4 4.1 4.1 0 00-1.1.14v1.53a3.35 3.35 0 01.51 3.4l-.28.75a4.67 4.67 0 01-1.39 1.94l-.51 2.31s0 .11-.05.17a2 2 0 002 1.75h1.46a2 2 0 001.98-1.74z"/></svg>