<?xml version="1.0" encoding="utf-8"?><svg xmlns="http://www.w3.org/2000/svg" viewBox="0 0 23.8 23.8" width="23.8" height="23.8"><path d="M9.62 8a.49.49 0 01-.07.62l-1 1a.49.49 0 01-.55 0L3.79 7l-1.7 1.7a.5.5 0 01-.71 0 .54.54 0 01-.14-.27L0 .58A.49.49 0 01.42 0h.16l7.81 1.24a.52.52 0 01.42.58.49.49 0 01-.15.27L7 3.79zm5.59 1.58a.49.49 0 00.62.07L20 7l1.71 1.7a.48.48 0 00.7 0 .42.42 0 00.14-.27L23.79.58a.5.5 0 00-.41-.58h-.16l-7.81 1.24a.51.51 0 00-.42.58.54.54 0 00.14.27l1.7 1.7L14.18 8a.49.49 0 00.07.62zm-6.62 4.7a.49.49 0 00-.59-.1l-4.21 2.65-1.7-1.7a.51.51 0 00-.71 0 .57.57 0 00-.14.28L0 23.22a.49.49 0 00.41.57.43.43 0 00.16 0l7.81-1.24a.51.51 0 00.43-.55.55.55 0 00-.15-.28L7 20l2.66-4.17a.49.49 0 00-.07-.62zm13.12.88L20 16.83l-4.17-2.65a.49.49 0 00-.62.07l-1 1a.49.49 0 00-.07.62L16.83 20l-1.7 1.7a.51.51 0 000 .71.44.44 0 00.28.14l7.81 1.24a.5.5 0 00.57-.41.43.43 0 000-.16l-1.24-7.81A.5.5 0 0022 15a.54.54 0 00-.29.13z"/></svg>