<?xml version="1.0" encoding="utf-8"?><svg xmlns="http://www.w3.org/2000/svg" viewBox="0 0 22 24.75" width="21.33" height="24"><path d="M22 6.25v15a3.51 3.51 0 01-3.5 3.5h-15a3.51 3.51 0 01-3.5-3.5v-15a3.5 3.5 0 013.5-3.5h2.64L4.55 5a2.7 2.7 0 00-.36.72H3.5a.5.5 0 00-.5.5v15a.51.51 0 00.5.5h15a.51.51 0 00.5-.5v-15a.5.5 0 00-.5-.5h-.69a2.64 2.64 0 00-.36-.72l-1.59-2.25h2.64a3.5 3.5 0 013.5 3.5zM7 7.75h1.75L10 17.29a.5.5 0 00.5.46h1.08a.5.5 0 00.5-.46l1.21-9.54H15a1 1 0 001-1 .94.94 0 00-.18-.57l-4-5.75a1 1 0 00-1.64 0l-4 5.75a1 1 0 00.25 1.39 1.07 1.07 0 00.57.18z"/></svg>