<?xml version="1.0" encoding="utf-8"?><svg xmlns="http://www.w3.org/2000/svg" viewBox="0 0 26 21.09" width="24" height="19.47"><path d="M26 6.8v8.25a3.51 3.51 0 01-3.5 3.5H8v2a.5.5 0 01-.5.5.47.47 0 01-.28-.05l-5.13-3.54a.51.51 0 01-.12-.7.49.49 0 01.12-.13l5.13-3.54a.49.49 0 01.69.13.47.47 0 01.09.28v2.05h14.5a.51.51 0 00.5-.5v-6.6a1 1 0 01.43-.82l1.79-1.24a.49.49 0 01.69.13.47.47 0 01.09.28zM3 13.14V6.05a.5.5 0 01.5-.5h15v2a.5.5 0 00.5.5.47.47 0 00.28-.05l5.13-3.54a.51.51 0 00.12-.7.49.49 0 00-.12-.13L19.28.09a.49.49 0 00-.69.13.47.47 0 00-.09.28v2.05h-15A3.5 3.5 0 000 6.05v8.74a.5.5 0 00.5.5.47.47 0 00.28-.09L2.57 14a1 1 0 00.43-.86z" class="djfill"/></svg>