<?xml version="1.0" encoding="utf-8"?><svg xmlns="http://www.w3.org/2000/svg" viewBox="0 0 27 27.43" width="23.62" height="24"><path d="M16.84 12.82L14 16v6.52a1 1 0 01-.36.77l-4.82 4a.5.5 0 01-.7-.07.47.47 0 01-.12-.29V16L.25 7.3A1 1 0 010 6.63V5a1 1 0 011-1h12.26a7.93 7.93 0 003.58 8.82zM27 6a6 6 0 11-6-6 6 6 0 016 6zm-3-.5a.5.5 0 00-.5-.5H22V3.5a.5.5 0 00-.5-.5h-1a.5.5 0 00-.5.5V5h-1.5a.5.5 0 00-.5.5v1a.5.5 0 00.5.5H20v1.5a.5.5 0 00.5.5h1a.5.5 0 00.5-.5V7h1.5a.5.5 0 00.5-.5z" class="fill"/></svg>