<?xml version="1.0" encoding="utf-8"?><svg xmlns="http://www.w3.org/2000/svg" viewBox="0 0 23.08 23.54" width="23.08" height="23.54"><path d="M22.9 16.57l-4.58 6.55a1 1 0 01-1.39.24 1.14 1.14 0 01-.25-.24l-4.58-6.55a1 1 0 01.82-1.57H15V1a1 1 0 011-1h3a1 1 0 011 1v14h2.08a1 1 0 011 1 .94.94 0 01-.18.57zM3 18H1a1 1 0 00-1 1v2a1 1 0 001 1h2a1 1 0 001-1v-2a1 1 0 00-1-1zm2-6H1a1 1 0 00-1 1v2a1 1 0 001 1h4a1 1 0 001-1v-2a1 1 0 00-1-1zm2-6H1a1 1 0 00-1 1v2a1 1 0 001 1h6a1 1 0 001-1V7a1 1 0 00-1-1zm2-6H1a1 1 0 00-1 1v2a1 1 0 001 1h8a1 1 0 001-1V1a1 1 0 00-1-1z"/></svg>