<?xml version="1.0" encoding="utf-8"?><svg width="12" height="14" fill="none" xmlns="http://www.w3.org/2000/svg" viewBox="0 0 12 14"><path d="M2.8 5.163l2.8-3.9c.2-.3.6-.3.8 0l2.8 3.9a.5.5 0 01-.4.8H7.5v3c0 .3-.2.5-.5.5H5c-.3 0-.5-.2-.5-.5v-3H3.2c-.4 0-.6-.45-.4-.8zm8.7 5.3H.5c-.3 0-.5.2-.5.5v2c0 .3.2.5.5.5h11c.3 0 .5-.2.5-.5v-2c0-.3-.2-.5-.5-.5z" fill="#fff"/><path d="M2.8 4.163l2.8-3.9c.2-.3.6-.3.8 0l2.8 3.9a.5.5 0 01-.4.8H7.5v3c0 .3-.2.5-.5.5H5c-.3 0-.5-.2-.5-.5v-3H3.2c-.4 0-.6-.45-.4-.8zm8.7 5.3H.5c-.3 0-.5.2-.5.5v2c0 .3.2.5.5.5h11c.3 0 .5-.2.5-.5v-2c0-.3-.2-.5-.5-.5z" fill="#1E6393"/></svg>