<?xml version="1.0" encoding="utf-8"?><svg width="24" height="24" fill="none" xmlns="http://www.w3.org/2000/svg" viewBox="0 0 24 24"><circle cx="8.416" cy="17.857" r="1.208" stroke="#333"/><circle cx="16.102" cy="17.857" r="1.208" stroke="#333"/><path d="M9.697 17.857h5.124m2.562 0l2.135-.214v-.774a1 1 0 00-.684-.948l-1.81-.604a.984.984 0 01-.132-.054l-3.14-1.57a1 1 0 00-.448-.106H8.767a1 1 0 00-.625.219L6.42 15.183a1 1 0 01-.308.168l-.428.143a1 1 0 00-.684.948v1.415h2.135" stroke="#333"/><path d="M2 22V7c.98-1.667 4.353-5 10-5s9.02 3.333 10 5v15" stroke="#333"/><path d="M7 6.5h10M15.5 5L17 6.5 15.5 8M17 10H7M8.5 8.5L7 10l1.5 1.5" stroke="#0094FF"/></svg>