<?xml version="1.0" encoding="utf-8"?><svg width="10" height="14" fill="none" xmlns="http://www.w3.org/2000/svg" viewBox="0 0 10 14"><path d="M8.571 6.643h-.428v-3C8.143 2.443 7.2 1.5 6 1.5H3.429c-1.2 0-2.143.943-2.143 2.143V4.5H3v-.857a.46.46 0 01.429-.429H6a.46.46 0 01.429.429v3H.857A.86.86 0 000 7.5v5.143a.86.86 0 00.857.857h7.714a.86.86 0 00.858-.857V7.5a.86.86 0 00-.858-.857zM5.143 10.37v1.2c0 .129-.086.215-.214.215H4.5c-.129 0-.214-.086-.214-.215v-1.2c-.257-.128-.429-.428-.429-.728a.86.86 0 01.857-.857.86.86 0 01.857.857c0 .3-.171.6-.428.728z" fill="#fff"/><path d="M8.571 5.643h-.428v-3C8.143 1.443 7.2.5 6 .5H3.429c-1.2 0-2.143.943-2.143 2.143V3.5H3v-.857a.46.46 0 01.429-.429H6a.46.46 0 01.429.429v3H.857A.86.86 0 000 6.5v5.143a.86.86 0 00.857.857h7.714a.86.86 0 00.858-.857V6.5a.86.86 0 00-.858-.857zM5.143 9.37v1.2c0 .129-.086.215-.214.215H4.5c-.129 0-.214-.086-.214-.215v-1.2c-.257-.128-.429-.428-.429-.728a.86.86 0 01.857-.857.86.86 0 01.857.857c0 .3-.171.6-.428.728z" fill="#1E6393"/></svg>