<?xml version="1.0" encoding="utf-8"?><svg width="11" height="14" fill="none" xmlns="http://www.w3.org/2000/svg" viewBox="0 0 11 14"><path d="M10 5.5h-.5V4c0-1.4-1.1-2.5-2.5-2.5H4C2.6 1.5 1.5 2.6 1.5 4v1.5H1c-.55 0-1 .45-1 1v6c0 .55.45 1 1 1h9c.55 0 1-.45 1-1v-6c0-.55-.45-1-1-1zM6 9.85v1.4c0 .15-.1.25-.25.25h-.5c-.15 0-.25-.1-.25-.25v-1.4c-.3-.15-.5-.5-.5-.85 0-.55.45-1 1-1s1 .45 1 1c0 .35-.2.7-.5.85zM7.5 5.5h-4V4c0-.25.25-.5.5-.5h3c.25 0 .5.25.5.5v1.5z" fill="#fff"/><path d="M10 5.5h-.5V4c0-1.4-1.1-2.5-2.5-2.5H4C2.6 1.5 1.5 2.6 1.5 4v1.5H1c-.55 0-1 .45-1 1v6c0 .55.45 1 1 1h9c.55 0 1-.45 1-1v-6c0-.55-.45-1-1-1zM6 9.85v1.4c0 .15-.1.25-.25.25h-.5c-.15 0-.25-.1-.25-.25v-1.4c-.3-.15-.5-.5-.5-.85 0-.55.45-1 1-1s1 .45 1 1c0 .35-.2.7-.5.85zM7.5 5.5h-4V4c0-.25.25-.5.5-.5h3c.25 0 .5.25.5.5v1.5z" fill="#fff"/><path d="M10 4.5h-.5V3C9.5 1.6 8.4.5 7 .5H4C2.6.5 1.5 1.6 1.5 3v1.5H1c-.55 0-1 .45-1 1v6c0 .55.45 1 1 1h9c.55 0 1-.45 1-1v-6c0-.55-.45-1-1-1zM6 8.85v1.4c0 .15-.1.25-.25.25h-.5c-.15 0-.25-.1-.25-.25v-1.4c-.3-.15-.5-.5-.5-.85 0-.55.45-1 1-1s1 .45 1 1c0 .35-.2.7-.5.85zM7.5 4.5h-4V3c0-.25.25-.5.5-.5h3c.25 0 .5.25.5.5v1.5z" fill="#1E6393"/><path d="M10 4.5h-.5V3C9.5 1.6 8.4.5 7 .5H4C2.6.5 1.5 1.6 1.5 3v1.5H1c-.55 0-1 .45-1 1v6c0 .55.45 1 1 1h9c.55 0 1-.45 1-1v-6c0-.55-.45-1-1-1zM6 8.85v1.4c0 .15-.1.25-.25.25h-.5c-.15 0-.25-.1-.25-.25v-1.4c-.3-.15-.5-.5-.5-.85 0-.55.45-1 1-1s1 .45 1 1c0 .35-.2.7-.5.85zM7.5 4.5h-4V3c0-.25.25-.5.5-.5h3c.25 0 .5.25.5.5v1.5z" fill="#1E6393"/></svg>