<?xml version="1.0" encoding="utf-8"?><svg xmlns="http://www.w3.org/2000/svg" viewBox="0 0 20 14.04" width="20" height="14.04"><path d="M9.26 5.71a1 1 0 01-1.07 0L.45.8A.33.33 0 11.8.24l7.39 4.67a1 1 0 001.07 0L16.6.24a.33.33 0 01.46.11.33.33 0 01-.06.45z" fill="#333"/><path d="M10.72 11a.35.35 0 01-.34.35H1a1 1 0 01-1-1V1a1 1 0 011-1h15.4a1 1 0 011 1v3.28a.34.34 0 01-.34.34.35.35 0 01-.35-.34v-2.6a1 1 0 00-1-1h-14a1 1 0 00-1 1v7.93a1 1 0 001 1h8.7a.34.34 0 01.31.39z" fill="#333"/><circle cx="15.02" cy="9.06" r="4.98" fill="#d9534f"/><path d="M17.66 9.89h-5.28V8.23h5.28z" fill="#fff" fill-rule="evenodd"/></svg>