<?xml version="1.0" encoding="utf-8"?><svg width="15" height="15" fill="none" xmlns="http://www.w3.org/2000/svg" viewBox="0 0 15 15"><path d="M14.82 3.69l-1.255 1.255-2.51-2.51 1.255-1.256c.239-.239.598-.239.837 0l1.674 1.674c.239.24.239.598 0 .837zM3.284 10.206l2.511 2.51 6.934-6.934-2.51-2.51-6.935 6.934zM1.012 14.63c-.06.239.12.418.358.358l3.527-1.494-2.45-2.451-1.435 3.587z" fill="#fff"/><path d="M14.462 3.303l-1.255 1.255-2.51-2.51L11.951.792c.239-.239.597-.239.836 0l1.674 1.674c.24.24.24.598 0 .837zM2.925 9.819l2.51 2.51 6.935-6.934-2.51-2.51-6.935 6.934zM.653 14.243c-.06.239.12.418.359.358l3.527-1.494-2.451-2.451-1.435 3.587z" fill="#1E6393"/></svg>