<?xml version="1.0" encoding="utf-8"?><svg width="13" height="14" fill="none" xmlns="http://www.w3.org/2000/svg" viewBox="0 0 13 14"><path d="M3.035 10.5h6V13c0 .3-.2.5-.5.5h-5c-.3 0-.5-.2-.5-.5v-2.5zm6.5-8.5c0-.3-.2-.5-.5-.5h-6c-.3 0-.5.2-.5.5v2h7V2zm2.5 4v5c0 .55-.45 1-1 1h-1v-2c0-.3-.25-.5-.5-.5h-7c-.25 0-.5.2-.5.5v2h-1c-.55 0-1-.45-1-1V6c0-.55.45-1 1-1h10c.55 0 1 .45 1 1zm-1 .25c0-.15-.1-.25-.25-.25h-1c-.15 0-.25.1-.25.25v.5c0 .15.1.25.25.25h1c.15 0 .25-.1.25-.25v-.5z" fill="#fff"/><path d="M3.058 9.5h6V12c0 .3-.2.5-.5.5h-5c-.3 0-.5-.2-.5-.5V9.5zm6.5-8.5c0-.3-.2-.5-.5-.5h-6c-.3 0-.5.2-.5.5v2h7V1zm2.5 4v5c0 .55-.45 1-1 1h-1V9c0-.3-.25-.5-.5-.5h-7c-.25 0-.5.2-.5.5v2h-1c-.55 0-1-.45-1-1V5c0-.55.45-1 1-1h10c.55 0 1 .45 1 1zm-1 .25c0-.15-.1-.25-.25-.25h-1c-.15 0-.25.1-.25.25v.5c0 .15.1.25.25.25h1c.15 0 .25-.1.25-.25v-.5z" fill="#1E6393"/></svg>