<?xml version="1.0" encoding="utf-8"?><svg width="13" height="14" fill="none" xmlns="http://www.w3.org/2000/svg" viewBox="0 0 13 14"><path d="M1.46 12.88c0 .616.504 1.12 1.12 1.12h7.84c.616 0 1.12-.504 1.12-1.12V3.92H1.46v8.96zm7.28-6.72c0-.336.224-.56.56-.56.336 0 .56.224.56.56v5.6c0 .336-.224.56-.56.56-.336 0-.56-.224-.56-.56v-5.6zm-2.8 0c0-.336.224-.56.56-.56.336 0 .56.224.56.56v5.6c0 .336-.224.56-.56.56-.336 0-.56-.224-.56-.56v-5.6zm-2.8 0c0-.336.224-.56.56-.56.336 0 .56.224.56.56v5.6c0 .336-.224.56-.56.56-.336 0-.56-.224-.56-.56v-5.6zm8.96-4.48V2.8H.9V1.68c0-.336.224-.56.56-.56h3.36V.56c0-.336.224-.56.56-.56h2.24c.336 0 .56.224.56.56v.56h3.36c.336 0 .56.224.56.56z" fill="#D9534F"/></svg>