<?xml version="1.0" encoding="utf-8"?><svg width="24" height="23.23" fill="none" xmlns="http://www.w3.org/2000/svg" viewBox="0 0 31 30"><circle cx="15.5" cy="15" r="14.5" stroke="#BABABA"/><path d="M23.144 12.96c-.61 1.354-1.828 2.438-3.318 2.64a3.834 3.834 0 01-1.964-.135l-7.314 7.315a.655.655 0 01-.949 0l-1.896-1.897a.655.655 0 010-.948l7.247-7.246a4.1 4.1 0 01-.136-2.032c.203-1.49 1.287-2.709 2.641-3.318.678-.271 1.287-.339 1.897-.339.27 0 .406.339.203.542l-1.626 1.625c-.067.068-.135.203-.067.339l.542 2.302c0 .136.135.204.27.271l2.303.542c.135 0 .203 0 .339-.068l1.625-1.625c.203-.203.542-.068.542.203.067.542-.068 1.152-.339 1.829z" fill="#333"/></svg>