<?xml version="1.0" encoding="utf-8"?><svg width="12" height="12" fill="none" xmlns="http://www.w3.org/2000/svg" viewBox="0 0 12 12"><path d="M7.034 9.111h-2.3V11H3.422V9.111H2V8.026h1.422v-.94H2v-1.08h1.422V1H7.11c1.071 0 1.92.272 2.548.817.627.545.94 1.282.94 2.212 0 .975-.301 1.728-.906 2.26-.6.526-1.453.792-2.562.796H4.734v.941h2.3v1.085zm-2.3-3.104H7.11c.71 0 1.25-.167 1.62-.502.372-.334.557-.821.557-1.462 0-.582-.192-1.051-.577-1.408-.384-.362-.904-.545-1.559-.55H4.734v3.922z" fill="#333"/></svg>