<?xml version="1.0" encoding="utf-8"?><svg width="24" height="23.23" fill="none" xmlns="http://www.w3.org/2000/svg" viewBox="0 0 31 30"><circle cx="15.5" cy="15" r="14.5" stroke="#BABABA"/><path d="M13.033 11.985h-2.4l2.4-3.533c.334-.467.934-.6 1.4-.267.467.334.6.933.267 1.4l-1.667 2.4zm4.934 0h2.4l-2.4-3.533c-.334-.467-.934-.6-1.4-.267-.467.334-.6.933-.267 1.4l1.667 2.4zm5.533 2v1.334c0 .4-.267.666-.667.666h-1l-.533 5.467c-.067.666-.667 1.2-1.333 1.2h-8.934c-.666 0-1.266-.534-1.333-1.2l-.533-5.467h-1c-.4 0-.667-.266-.667-.666v-1.334c0-.4.267-.666.667-.666h14.666c.4 0 .667.266.667.666zM12.833 19.32H11.5v1.333h1.333v-1.334zm0-3.334H11.5v1.334h1.333v-1.334zm3.334 3.334h-1.334v1.333h1.334v-1.334zm0-3.334h-1.334v1.334h1.334v-1.334zM19.5 19.32h-1.333v1.333H19.5v-1.334zm0-3.334h-1.333v1.334H19.5v-1.334z" fill="#333"/></svg>