<?xml version="1.0" encoding="utf-8"?><svg xmlns="http://www.w3.org/2000/svg" viewBox="0 0 12 13" width="12" height="13"><path d="M11.847 11.033l-3.37-3.37c.46-.715.714-1.532.714-2.451A4.577 4.577 0 004.596.616 4.577 4.577 0 000 5.212a4.577 4.577 0 004.596 4.595c.919 0 1.736-.255 2.45-.714l3.371 3.37c.204.204.51.204.715 0l.715-.715a.494.494 0 000-.715zM4.596 8.276a3.073 3.073 0 01-3.064-3.064 3.073 3.073 0 013.064-3.064A3.073 3.073 0 017.66 5.212a3.073 3.073 0 01-3.064 3.064z" class="fxfill"/></svg>