<?xml version="1.0" encoding="utf-8"?><svg xmlns="http://www.w3.org/2000/svg" viewBox="0 0 12 10.93" width="12" height="10.93"><path d="M2.14 0h1.07v1.07H0V0zm1.07 0h7.48v1.07H3.21zm0 2.14h7.48v1.07H3.21zm1.07 2.14H3.21v1.07h1.07zM3.21 6.41h1.07v1.07H3.21zm1.07 2.14H3.21v1.07h1.07zM2.14 3.21H0V2.14h3.21v1.07zm0 2.14h1.07V4.28H0v1.07zm0 2.13H0V6.41h3.21v1.07zm0 2.14h1.07V8.55H0v1.07zM12 9.6l-1.55-1.55a.3.3 0 000-.08 2.73 2.73 0 00.2-1 2.67 2.67 0 10-5.3.03 2.66 2.66 0 00.78 1.89A2.69 2.69 0 009 9.42h.08l1.54 1.54zM8 5.35a1.58 1.58 0 01.61.12 1.54 1.54 0 01.52.35 1.45 1.45 0 01.35.52 1.58 1.58 0 01.14.66A1.6 1.6 0 018 8.55a1.63 1.63 0 01-1.14-.47A1.61 1.61 0 016.41 7a1.59 1.59 0 01.13-.61 1.56 1.56 0 01.34-.52 1.64 1.64 0 01.52-.35 1.67 1.67 0 01.6-.17z" class="fyfill" fill-rule="evenodd"/></svg>