<?xml version="1.0" encoding="utf-8"?><svg xmlns="http://www.w3.org/2000/svg" viewBox="0 0 19.13 21" width="19.13" height="21"><path d="M5.7 11.47a2.6 2.6 0 11-2.6-2.6 2.6 2.6 0 012.6 2.6z" class="fill stroke"/><path d="M3.1 13.83a2.36 2.36 0 10-2.36-2.36 2.36 2.36 0 002.36 2.36zm2.6-2.36a2.6 2.6 0 11-2.6-2.6 2.6 2.6 0 012.6 2.6zM13.81 4.43a.11.11 0 010 .16l-7.92 5.3a.13.13 0 01-.17 0 .11.11 0 010-.16l7.89-5.3a.13.13 0 01.2 0z" class="fill stroke"/><path d="M13.82 16.63a.12.12 0 01-.16.06l-9.14-4a.11.11 0 01-.06-.15.11.11 0 01.15-.07l.2-.45-.2.45 9.15 4a.12.12 0 01.06.16zM16 5.46a2.36 2.36 0 10-2.33-2.36A2.36 2.36 0 0016 5.46zm2.6-2.36A2.6 2.6 0 1116 .5a2.59 2.59 0 012.63 2.6z" class="fill stroke"/><path d="M16 20.26a2.36 2.36 0 10-2.36-2.36A2.36 2.36 0 0016 20.26zm2.6-2.36a2.6 2.6 0 11-2.6-2.6 2.59 2.59 0 012.63 2.6z" class="fill stroke"/></svg>