<?xml version="1.0" encoding="utf-8"?><svg xmlns="http://www.w3.org/2000/svg" viewBox="0 0 587.5 587.5" width="24" height="24"><path d="M293.8 23C144.5 23 23 144.5 23 293.8s121.4 270.7 270.7 270.7S564.5 443 564.5 293.8 443 23 293.8 23m0 564.5C131.8 587.5 0 455.7 0 293.8 0 131.8 131.8 0 293.8 0s293.8 131.8 293.8 293.8c-.1 161.9-131.9 293.7-293.8 293.7"/><path d="M248 187.2c0 22.3 18 40.3 40.3 40.3 22.3 0 40.3-18 40.3-40.3 0-22.3-18-40.3-40.3-40.3-22.2 0-40.3 18-40.3 40.3m68.8 80.1L250.6 288l-4.5 15.3 37.3 1.8-16.1 146.1 67.8-18 .7-12.7-29.2-1.4 10.2-151.8z"/></svg>