<?xml version="1.0" encoding="utf-8"?><svg xmlns="http://www.w3.org/2000/svg" viewBox="0 0 8 8.36" width="8" height="8.36"><path d="M1.45 6.91V8a.34.34 0 01-.36.36H.36A.34.34 0 010 8V6.91a.34.34 0 01.36-.36h.73a.34.34 0 01.36.36zm1.82-1.46h-.72a.35.35 0 00-.37.37V8a.34.34 0 00.37.36h.72A.34.34 0 003.64 8V5.82a.35.35 0 00-.37-.37zm2.18-2.18h-.72a.35.35 0 00-.37.37V8a.34.34 0 00.37.36h.72A.34.34 0 005.82 8V3.64a.35.35 0 00-.37-.37zM7.64 0h-.73a.34.34 0 00-.36.36V8a.34.34 0 00.36.36h.73A.34.34 0 008 8V.36A.35.35 0 007.64 0z" class="fill"/></svg>