<?xml version="1.0" encoding="utf-8"?><svg width="13" height="14" fill="none" xmlns="http://www.w3.org/2000/svg" viewBox="0 0 13 14"><path d="M10.796 1.5h-8.5c-.85 0-1.5.65-1.5 1.5v9.5c0 .55.45 1 1 1h9.5c.55 0 1-.45 1-1V3c0-.85-.65-1.5-1.5-1.5zm-6.5 10.75c0 .15-.1.25-.25.25h-2c-.15 0-.25-.1-.25-.25v-1.5c0-.15.1-.25.25-.25h2c.15 0 .25.1.25.25v1.5zm0-3c0 .15-.1.25-.25.25h-2c-.15 0-.25-.1-.25-.25v-1.5c0-.15.1-.25.25-.25h2c.15 0 .25.1.25.25v1.5zm0-3c0 .15-.1.25-.25.25h-2c-.15 0-.25-.1-.25-.25v-1.5c0-.15.1-.25.25-.25h2c.15 0 .25.1.25.25v1.5zm3.5 6c0 .15-.1.25-.25.25h-2c-.15 0-.25-.1-.25-.25v-1.5c0-.15.1-.25.25-.25h2c.15 0 .25.1.25.25v1.5zm0-3c0 .15-.1.25-.25.25h-2c-.15 0-.25-.1-.25-.25v-1.5c0-.15.1-.25.25-.25h2c.15 0 .25.1.25.25v1.5zm0-3c0 .15-.1.25-.25.25h-2c-.15 0-.25-.1-.25-.25v-1.5c0-.15.1-.25.25-.25h2c.15 0 .25.1.25.25v1.5zm3.5 6c0 .15-.1.25-.25.25h-2c-.15 0-.25-.1-.25-.25v-1.5c0-.15.1-.25.25-.25h2c.15 0 .25.1.25.25v1.5zm0-3c0 .15-.1.25-.25.25h-2c-.15 0-.25-.1-.25-.25v-1.5c0-.15.1-.25.25-.25h2c.15 0 .25.1.25.25v1.5zm0-3c0 .15-.1.25-.25.25h-2c-.15 0-.25-.1-.25-.25v-1.5c0-.15.1-.25.25-.25h2c.15 0 .25.1.25.25v1.5z" fill="#fff"/><path d="M10.796.5h-8.5c-.85 0-1.5.65-1.5 1.5v9.5c0 .55.45 1 1 1h9.5c.55 0 1-.45 1-1V2c0-.85-.65-1.5-1.5-1.5zm-6.5 10.75c0 .15-.1.25-.25.25h-2c-.15 0-.25-.1-.25-.25v-1.5c0-.15.1-.25.25-.25h2c.15 0 .25.1.25.25v1.5zm0-3c0 .15-.1.25-.25.25h-2c-.15 0-.25-.1-.25-.25v-1.5c0-.15.1-.25.25-.25h2c.15 0 .25.1.25.25v1.5zm0-3c0 .15-.1.25-.25.25h-2c-.15 0-.25-.1-.25-.25v-1.5c0-.15.1-.25.25-.25h2c.15 0 .25.1.25.25v1.5zm3.5 6c0 .15-.1.25-.25.25h-2c-.15 0-.25-.1-.25-.25v-1.5c0-.15.1-.25.25-.25h2c.15 0 .25.1.25.25v1.5zm0-3c0 .15-.1.25-.25.25h-2c-.15 0-.25-.1-.25-.25v-1.5c0-.15.1-.25.25-.25h2c.15 0 .25.1.25.25v1.5zm0-3c0 .15-.1.25-.25.25h-2c-.15 0-.25-.1-.25-.25v-1.5c0-.15.1-.25.25-.25h2c.15 0 .25.1.25.25v1.5zm3.5 6c0 .15-.1.25-.25.25h-2c-.15 0-.25-.1-.25-.25v-1.5c0-.15.1-.25.25-.25h2c.15 0 .25.1.25.25v1.5zm0-3c0 .15-.1.25-.25.25h-2c-.15 0-.25-.1-.25-.25v-1.5c0-.15.1-.25.25-.25h2c.15 0 .25.1.25.25v1.5zm0-3c0 .15-.1.25-.25.25h-2c-.15 0-.25-.1-.25-.25v-1.5c0-.15.1-.25.25-.25h2c.15 0 .25.1.25.25v1.5z" fill="#1E6393"/></svg>