<?xml version="1.0" encoding="utf-8"?><svg width="12" height="12" fill="none" xmlns="http://www.w3.org/2000/svg" viewBox="0 0 12 12"><path d="M11.9 10.372l-5.323-9.36C6.444.788 6.222.655 6 .655c-.222 0-.444.133-.577.355L.1 10.371a.604.604 0 000 .666c.133.222.355.31.577.31h10.646c.222 0 .444-.132.577-.31.133-.222.133-.488 0-.665zm-5.013-.799c0 .266-.177.444-.443.444h-.888c-.266 0-.443-.178-.443-.444v-.887c0-.266.177-.444.443-.444h.888c.266 0 .443.178.443.444v.887zm0-3.992l-.266 1.597c0 .088-.089.177-.222.177h-.798c-.089 0-.222-.089-.222-.177L5.113 5.58V4.25c0-.266.177-.444.443-.444h.888c.266 0 .443.178.443.444v1.33z" fill="#0094FF"/></svg>