<?xml version="1.0" encoding="utf-8"?><svg width="12" height="12" fill="none" xmlns="http://www.w3.org/2000/svg" viewBox="0 0 12 12"><path d="M5.801 11c-1.063 0-1.88-.213-2.452-.64-.572-.427-.859-1.072-.859-1.935 0-.345.05-.658.15-.94H2v-.872h1.144c.182-.182.423-.345.722-.49.31-.155.627-.291.954-.41.336-.117.631-.217.886-.299.254-.09.418-.154.49-.19H2V4.35h5.204c.073-.127.123-.258.15-.395.037-.136.055-.308.055-.517 0-.427-.146-.759-.436-.995-.29-.245-.745-.368-1.363-.368a4.45 4.45 0 00-1.267.177c-.39.118-.74.25-1.049.395l-.34-1.076c.345-.163.767-.3 1.267-.409A6.83 6.83 0 015.678 1c.918 0 1.64.19 2.167.572.536.373.804.945.804 1.717 0 .19-.014.381-.041.572a1.63 1.63 0 01-.15.49h.75v.872H8.021c-.146.146-.373.296-.681.45-.31.145-.632.282-.968.409-.336.127-.64.236-.913.327-.272.09-.45.159-.53.204h4.277v.872h-5.3a1.573 1.573 0 00-.15.381c-.027.119-.04.282-.04.49 0 1.055.73 1.581 2.193 1.581.518 0 1.017-.063 1.499-.19.49-.137.899-.277 1.226-.423v1.104c-.309.145-.722.277-1.24.395A7.144 7.144 0 015.801 11z" fill="#333"/></svg>