<?xml version="1.0" encoding="utf-8"?><svg width="12" height="13" fill="none" xmlns="http://www.w3.org/2000/svg" viewBox="0 0 12 13"><g filter="url(#gvfilter0_add)"><path d="M12 4.91v2.18c0 .328-.218.546-.546.546H7.636v3.818c0 .328-.218.546-.545.546H4.909c-.327 0-.545-.218-.545-.546V7.636H.545C.218 7.636 0 7.418 0 7.091V4.909c0-.327.218-.545.545-.545h3.819V.545c0-.327.218-.545.545-.545h2.182c.327 0 .545.218.545.545v3.819h3.818c.328 0 .546.218.546.545z" fill="#fff"/></g><defs><filter id="gvfilter0_add" x="0" y="0" width="12" height="13" filterUnits="userSpaceOnUse" color-interpolation-filters="sRGB"><feFlood flood-opacity="0" result="BackgroundImageFix"/><feColorMatrix in="SourceAlpha" values="0 0 0 0 0 0 0 0 0 0 0 0 0 0 0 0 0 0 127 0" result="hardAlpha"/><feOffset dy="1"/><feColorMatrix values="0 0 0 0 0 0 0 0 0 0 0 0 0 0 0 0 0 0 0.2 0"/><feBlend in2="BackgroundImageFix" result="effect1_dropShadow"/><feBlend in="SourceGraphic" in2="effect1_dropShadow" result="shape"/></filter></defs></svg>