<?xml version="1.0" encoding="utf-8"?><svg width="12" height="15" fill="none" xmlns="http://www.w3.org/2000/svg" viewBox="0 0 12 15"><g filter="url(#gzfilter0_fetch)"><path d="M2.8 4.913l2.8-3.9c.2-.3.6-.3.8 0l2.8 3.9a.5.5 0 01-.4.8H7.5v3c0 .3-.2.5-.5.5H5c-.3 0-.5-.2-.5-.5v-3H3.2c-.4 0-.6-.45-.4-.8zm8.7 5.3H.5c-.3 0-.5.2-.5.5v2c0 .3.2.5.5.5h11c.3 0 .5-.2.5-.5v-2c0-.3-.2-.5-.5-.5z" fill="#1E6393"/></g><defs><filter id="gzfilter0_fetch" x="0" y=".787" width="12" height="13.425" filterUnits="userSpaceOnUse" color-interpolation-filters="sRGB"><feFlood flood-opacity="0" result="BackgroundImageFix"/><feColorMatrix in="SourceAlpha" values="0 0 0 0 0 0 0 0 0 0 0 0 0 0 0 0 0 0 127 0" result="hardAlpha"/><feOffset dy="1"/><feColorMatrix values="0 0 0 0 1 0 0 0 0 1 0 0 0 0 1 0 0 0 1 0"/><feBlend in2="BackgroundImageFix" result="effect1_dropShadow"/><feBlend in="SourceGraphic" in2="effect1_dropShadow" result="shape"/></filter></defs></svg>