<?xml version="1.0" encoding="utf-8"?><svg width="10" height="11" fill="none" xmlns="http://www.w3.org/2000/svg" viewBox="0 0 10 11"><g filter="url(#gwfilter0_d)"><path d="M10 4.09v1.82c0 .272-.182.454-.455.454H6.364v3.181c0 .273-.182.455-.455.455H4.091c-.273 0-.455-.182-.455-.455V6.364H.455C.182 6.364 0 6.182 0 5.909V4.091c0-.273.182-.455.455-.455h3.181V.455c0-.273.182-.455.455-.455h1.818c.273 0 .455.182.455.455v3.181h3.181c.273 0 .455.182.455.455z" fill="#1E6393"/></g><defs><filter id="gwfilter0_d" x="0" y="0" width="10" height="11" filterUnits="userSpaceOnUse" color-interpolation-filters="sRGB"><feFlood flood-opacity="0" result="BackgroundImageFix"/><feColorMatrix in="SourceAlpha" values="0 0 0 0 0 0 0 0 0 0 0 0 0 0 0 0 0 0 127 0" result="hardAlpha"/><feOffset dy="1"/><feColorMatrix values="0 0 0 0 1 0 0 0 0 1 0 0 0 0 1 0 0 0 1 0"/><feBlend in2="BackgroundImageFix" result="effect1_dropShadow"/><feBlend in="SourceGraphic" in2="effect1_dropShadow" result="shape"/></filter></defs></svg>