<?xml version="1.0" encoding="utf-8"?><svg width="13" height="12" fill="none" xmlns="http://www.w3.org/2000/svg" viewBox="0 0 13 12"><path d="M11.843 4.47c-.457 1.016-1.371 1.828-2.488 1.98a2.876 2.876 0 01-1.473-.1l-5.486 5.485a.49.49 0 01-.711 0L.263 10.412a.491.491 0 010-.71l5.435-5.435a3.075 3.075 0 01-.102-1.524C5.748 1.625 6.561.71 7.576.254A3.67 3.67 0 019 0c.203 0 .305.254.152.406l-1.219 1.22c-.05.05-.101.152-.05.253l.406 1.727c0 .102.102.153.203.203l1.727.407c.102 0 .152 0 .254-.051l1.22-1.219c.152-.152.405-.05.405.152.051.407-.05.864-.254 1.372z" fill="#0094FF"/></svg>