<?xml version="1.0" encoding="utf-8"?><svg xmlns="http://www.w3.org/2000/svg" viewBox="0 0 17 17" width="17" height="17"><path d="M14.5,1.5l-8,3v5l8,3Z" stroke="var(--svg-icon-stroke, #333)" fill="none"/><path d="M.5,6.5a2,2,0,0,1,2-2h4v5h-4a2,2,0,0,1-2-2Z" stroke="var(--svg-icon-stroke, #333)" fill="none"/><path d="M2.5,15.5v-6h2v6a1,1,0,0,1-2,0Z" stroke="var(--svg-icon-stroke, #333)" fill="none"/><path d="M15.5.5h0a1,1,0,0,1,1,1v11a1,1,0,0,1-1,1h0a1,1,0,0,1-1-1V1.5A1,1,0,0,1,15.5.5Z" stroke="var(--svg-icon-stroke_blue, #0094ff)" fill="none"/></svg>