<?xml version="1.0" encoding="utf-8"?><svg viewBox="0 0 24 24" xmlns="http://www.w3.org/2000/svg" width="24" height="24"><circle cx="11.944" cy="12.347" r="2.472" stroke="var(--svg-icon-stroke, #333)" fill="none"/><path d="M7.50885 18.4558C7.93172 16.3414 9.7882 14.8195 11.9444 14.8195V14.8195C14.1007 14.8195 15.9572 16.3414 16.38 18.4558L16.8889 21H7L7.50885 18.4558Z" stroke="var(--svg-icon-stroke, #333)" fill="none"/><path d="M5 4L5.95574 5.68454L7.85317 6.07295L6.54642 7.50246L6.76336 9.42705L5 8.626L3.23664 9.42705L3.45358 7.50246L2.14683 6.07295L4.04426 5.68454L5 4Z" stroke="var(--svg-icon-stroke_blue, #0094ff)" fill="none"/><path d="M19 4L19.9557 5.68454L21.8532 6.07295L20.5464 7.50246L20.7634 9.42705L19 8.626L17.2366 9.42705L17.4536 7.50246L16.1468 6.07295L18.0443 5.68454L19 4Z" stroke="var(--svg-icon-stroke_blue, #0094ff)" fill="none"/><path d="M12 2L12.9557 3.68454L14.8532 4.07295L13.5464 5.50246L13.7634 7.42705L12 6.626L10.2366 7.42705L10.4536 5.50246L9.14683 4.07295L11.0443 3.68454L12 2Z" stroke="var(--svg-icon-stroke_blue, #0094ff)" fill="none"/></svg>