<?xml version="1.0" encoding="utf-8"?><svg width="24" height="24" fill="none" xmlns="http://www.w3.org/2000/svg" viewBox="0 0 24 24"><path d="M10.5 6H13.5V6.96741C13.8491 7.07132 14.1831 7.21058 14.4976 7.38103L15.182 6.69669L17.3033 8.81801L16.619 9.50234C16.7894 9.8169 16.9287 10.1508 17.0326 10.5H18V13.5H17.0326C16.9287 13.8492 16.7894 14.1831 16.619 14.4977L17.3033 15.182L15.182 17.3033L14.4976 16.619C14.1831 16.7894 13.8491 16.9287 13.5 17.0326V18H10.5V17.0326C10.1509 16.9287 9.81693 16.7894 9.50237 16.619L8.81804 17.3033L6.69672 15.182L7.38104 14.4977C7.21059 14.1831 7.07132 13.8492 6.96741 13.5H6V10.5L6.96741 10.5C7.07132 10.1508 7.21058 9.81691 7.38104 9.50234L6.69672 8.81802L8.81804 6.6967L9.50237 7.38103C9.81692 7.21058 10.1509 7.07132 10.5 6.96741V6Z" stroke="var(--svg-icon-stroke, #333)"/><circle cx="12" cy="12" r="3" stroke="var(--svg-icon-stroke, #333)"/><path d="M5 5.33333C5.91168 4.22222 8.06325 2 11.5641 2C15.065 2 17.604 4.22222 18.3333 5.33333" stroke="var(--svg-icon-stroke_blue, #0094ff)"/><path d="M18.3333 3.11111V5.33334H16.1111" stroke="var(--svg-icon-stroke_blue, #0094ff)"/><path d="M18.3333 18.6667C17.4217 19.7778 15.2701 22 11.7692 22C8.26839 22 5.72936 19.7778 5.00001 18.6667" stroke="var(--svg-icon-stroke_blue, #0094ff)"/><path d="M5.00001 20.8889L5.00001 18.6667L7.22223 18.6667" stroke="var(--svg-icon-stroke_blue, #0094ff)"/></svg>