<?xml version="1.0" encoding="utf-8"?><svg width="24" height="24" fill="none" xmlns="http://www.w3.org/2000/svg" viewBox="0 0 24 24"><path d="M4 14.5C4 10.5 6 6.00005 12 6C18 5.99995 20 10.5 20 14.5" stroke="var(--svg-icon-stroke, #333)"/><path d="M10.6868 16.6464L10.1904 16.7062L10.2701 17.3681L10.8832 17.1062L10.6868 16.6464ZM10.3713 14.0274L9.9934 13.7L9.84836 13.8674L9.87485 14.0872L10.3713 14.0274ZM15.8472 7.70836L16.3197 7.87188L15.4693 7.38091L15.8472 7.70836ZM13.1126 15.6102L13.309 16.07L13.5127 15.983L13.5851 15.7737L13.1126 15.6102ZM11.1832 16.5866L10.8677 13.9676L9.87485 14.0872L10.1904 16.7062L11.1832 16.5866ZM10.7491 14.3549L16.225 8.0358L15.4693 7.38091L9.9934 13.7L10.7491 14.3549ZM15.3747 7.54484L12.6401 15.4466L13.5851 15.7737L16.3197 7.87188L15.3747 7.54484ZM12.9162 15.1504L10.4904 16.1866L10.8832 17.1062L13.309 16.07L12.9162 15.1504Z" fill="var(--svg-icon-fill_blue, #0094ff)"/></svg>