<?xml version="1.0" encoding="utf-8"?><svg width="24" height="24" fill="none" xmlns="http://www.w3.org/2000/svg" viewBox="0 0 24 24"><path d="M18.944 13.2235L18.9119 13.3999L18.9991 13.5565C19.328 14.1466 19.5018 14.8126 19.5 15.4861V15.4874C19.5 16.5493 19.0883 17.5459 18.3367 18.2958L18.3359 18.2966C17.586 19.0483 16.5894 19.4599 15.5274 19.4599C14.8407 19.4599 14.169 19.2807 13.5728 18.9444L13.4162 18.856L13.2391 18.8877C12.8317 18.9606 12.4171 18.9979 12.003 18.9979C11.0494 18.9979 10.1275 18.8111 9.25733 18.4433L9.25712 18.4432C8.41662 18.0883 7.66249 17.5806 7.01389 16.932C6.36529 16.2834 5.85765 15.5293 5.50277 14.6888L5.50253 14.6883C5.13489 13.8205 4.94807 12.8967 4.94807 11.9429C4.94807 11.5372 4.98532 11.1277 5.05477 10.726L5.08479 10.5524L4.99935 10.3983C4.67406 9.81171 4.50001 9.14697 4.50001 8.47251L4.50001 8.47129C4.49874 7.94983 4.60085 7.43329 4.80044 6.95153C5.00003 6.46978 5.29314 6.03236 5.66282 5.66458L5.66373 5.66368C6.41406 4.91335 7.41092 4.50004 8.47224 4.49996C9.12369 4.50088 9.76508 4.6608 10.3407 4.96583L10.4963 5.04828L10.6692 5.01503C11.1061 4.93101 11.5566 4.88801 12.005 4.88801C12.9586 4.88801 13.8805 5.07475 14.7507 5.44262L14.7512 5.44282C15.5895 5.7962 16.3512 6.30924 16.9937 6.95338L16.9941 6.95383C17.6431 7.60285 18.1526 8.35709 18.5072 9.19706L18.5075 9.19762C18.8751 10.0654 19.0619 10.9891 19.0619 11.9429C19.0619 12.3713 19.0209 12.8013 18.944 13.2235Z" stroke="var(--svg-icon-stroke, #333)"/><path d="M8.42519 14.103C8.42519 15.0912 9.62534 16.4113 12.3097 16.4113C14.864 16.4113 16.1301 15.1792 16.1301 13.533C16.1301 12.4688 15.6401 11.3387 13.7038 10.9066L11.9356 10.5146C11.2635 10.3606 10.4894 10.1586 10.4894 9.52447C10.4894 8.8904 11.0315 8.44634 12.0116 8.44634C13.9859 8.44634 13.8059 9.80251 14.786 9.80251C15.302 9.80251 15.7541 9.50047 15.7541 8.97841C15.7541 7.76226 13.8059 6.84814 12.1536 6.84814C10.3594 6.84814 8.44919 7.61024 8.44919 9.63849C8.44919 10.6146 8.79924 11.6547 10.7215 12.1368L13.1098 12.7329C13.8339 12.9109 14.0139 13.3189 14.0139 13.685C14.0139 14.2951 13.4078 14.8911 12.3097 14.8911C10.1674 14.8911 10.4634 13.2409 9.3153 13.2409C8.79924 13.2409 8.42519 13.595 8.42519 14.103Z" fill="var(--svg-icon-fill_blue, #0094ff)"/></svg>