<?xml version="1.0" encoding="utf-8"?><svg xmlns="http://www.w3.org/2000/svg" viewBox="0 0 17 9" width="17" height="9"><path d="M.15,3.58a.48.48,0,0,0,0,.7.48.48,0,0,0,.7,0Zm16,.7a.49.49,0,0,0,.7-.7Zm-15.3,0a10.57,10.57,0,0,1,15.3,0l.7-.7a11.53,11.53,0,0,0-16.7,0Z" fill="var(--svg-icon-fill, #333)"/><path d="M16.9,4.23a.5.5,0,1,0-.8-.6Zm-16-.6a.5.5,0,0,0-.7-.1.5.5,0,0,0-.1.7Zm15.2,0C13.89,6.58,11.17,8,8.5,8S3.11,6.58.9,3.63l-.8.6C2.46,7.37,5.45,9,8.5,9s6-1.63,8.4-4.77Z" fill="var(--svg-icon-fill, #333)"/><path d="M11.93,2.79c0,4.57-6.86,4.57-6.86,0" stroke="var(--svg-icon-stroke_blue, #0094ff)" fill="none" stroke-linecap="round" stroke-linejoin="round"/></svg>