<?xml version="1.0" encoding="utf-8"?><svg xmlns="http://www.w3.org/2000/svg" viewBox="0 0 21 15" width="21" height="15"><path d="M18.5,4V3.5a1,1,0,0,0-1-1H3.5a1,1,0,0,0-1,1v8a1,1,0,0,0,1,1H4" stroke="var(--svg-icon-stroke_blue, #0094ff)" fill="none"/><path d="M2.5,5.5l2,1" stroke="var(--svg-icon-stroke_blue, #0094ff)" fill="none"/><path d="M16.5,2V1.5a1,1,0,0,0-1-1H1.5a1,1,0,0,0-1,1v8a1,1,0,0,0,1,1H2" stroke="var(--svg-icon-stroke_blue, #0094ff)" fill="none"/><path d="M.5,3.5l2,1" stroke="var(--svg-icon-stroke_blue, #0094ff)" fill="none"/><rect x="4.5" y="4.5" width="16" height="10" rx="1" stroke="var(--svg-icon-stroke, #333)" fill="none"/><path d="M4.5,7.5l7.74,2,8.26-2" stroke="var(--svg-icon-stroke, #333)" fill="none"/></svg>