<?xml version="1.0" encoding="utf-8"?><svg viewBox="0 0 24 24" xmlns="http://www.w3.org/2000/svg" width="24" height="24"><path d="M20 4L4 7.75V17L20 13V4Z" stroke="var(--svg-icon-stroke, #333)" fill="none"/><path d="M5 20L9 16L5 17V20Z" stroke="var(--svg-icon-stroke, #333)" fill="none"/><path d="M9.4075 9.87299V9.53461C9.4075 9.29145 9.45844 9.05661 9.56031 8.83009C9.66219 8.60357 9.81217 8.40372 10.0103 8.23052C10.2084 8.05733 10.4517 7.93206 10.7404 7.85472C11.0375 7.7751 11.2851 7.76881 11.4832 7.83585C11.6841 7.90213 11.8341 8.02161 11.9332 8.19429C12.035 8.36621 12.086 8.57375 12.086 8.81692V9.1553C12.086 9.3926 12.035 9.62451 11.9332 9.85103C11.8341 10.0768 11.6855 10.2763 11.4874 10.4495C11.2894 10.6227 11.0446 10.7483 10.7531 10.8264C10.4588 10.9053 10.2112 10.9115 10.0103 10.8453C9.81217 10.7782 9.66219 10.6587 9.56031 10.4868C9.45844 10.3149 9.4075 10.1103 9.4075 9.87299ZM10.2183 9.31737V9.65575C10.2183 9.75829 10.2366 9.8515 10.2734 9.93539C10.3131 10.0156 10.3725 10.0744 10.4517 10.1117C10.5338 10.1454 10.6328 10.1467 10.7489 10.1156C10.8705 10.083 10.9696 10.0286 11.046 9.95251C11.1224 9.87344 11.179 9.78357 11.2158 9.68289C11.2526 9.57929 11.271 9.47621 11.271 9.37367V9.0353C11.271 8.9269 11.2512 8.8326 11.2115 8.75239C11.1747 8.6685 11.1167 8.60934 11.0375 8.5749C10.9611 8.53678 10.862 8.53402 10.7404 8.56663C10.6272 8.59696 10.531 8.65204 10.4517 8.73186C10.3725 8.80876 10.3131 8.89939 10.2734 9.00375C10.2366 9.10443 10.2183 9.20897 10.2183 9.31737ZM12.3619 12.6805V12.3421C12.3619 12.1019 12.4128 11.8685 12.5147 11.642C12.6194 11.4147 12.7708 11.2145 12.9689 11.0413C13.1698 10.8673 13.416 10.7413 13.7075 10.6632C14.0018 10.5843 14.248 10.5784 14.4461 10.6455C14.6442 10.7125 14.7941 10.832 14.896 11.0039C14.9979 11.1758 15.0488 11.3819 15.0488 11.6221V11.9605C15.0488 12.2008 14.9979 12.4341 14.896 12.6606C14.797 12.8864 14.6484 13.0859 14.4503 13.2591C14.2522 13.4323 14.0074 13.5579 13.716 13.636C13.4217 13.7149 13.174 13.7212 12.9731 13.6549C12.7722 13.5886 12.6194 13.4699 12.5147 13.2987C12.4128 13.1268 12.3619 12.9207 12.3619 12.6805ZM13.1769 12.1237V12.4621C13.1769 12.5676 13.1995 12.6611 13.2448 12.7427C13.2901 12.8244 13.3523 12.8824 13.4316 12.9168C13.5136 12.9505 13.6084 12.9529 13.716 12.9241C13.8518 12.8877 13.9579 12.8314 14.0343 12.7553C14.1107 12.6792 14.1631 12.5904 14.1914 12.4891C14.2225 12.387 14.2381 12.2832 14.2381 12.1778V11.8394C14.2381 11.7339 14.2183 11.6411 14.1786 11.5609C14.139 11.4777 14.0796 11.419 14.0004 11.3845C13.924 11.3464 13.8263 11.3433 13.7075 11.3751C13.5886 11.407 13.4896 11.4628 13.4103 11.5426C13.3339 11.6188 13.2759 11.709 13.2363 11.8134C13.1967 11.9148 13.1769 12.0183 13.1769 12.1237ZM14.0089 7.98527L10.9908 13.7949L10.3965 13.629L13.4146 7.81931L14.0089 7.98527Z" fill="var(--svg-icon-fill_blue, #0094ff)"/></svg>