<?xml version="1.0" encoding="utf-8"?><svg viewBox="0 0 24 24" xmlns="http://www.w3.org/2000/svg" width="24" height="24"><path d="M5.24262 18.3137C0.999976 14.071 4.77121 10.2998 6.65683 8.41418L8.77815 10.5355C7.36394 11.9497 5.24262 14.071 7.36394 16.1924C9.06099 17.8894 11.6066 16.1924 13.0208 14.7781L15.1421 16.8995C13.2565 18.7851 9.48526 22.5563 5.24262 18.3137Z" stroke="var(--svg-icon-stroke, #333)" fill="none"/><path transform="rotate(45 8.07104 7)" stroke="var(--svg-icon-stroke, #333)" fill="none" d="M8.071 7H11.071V9H8.071z"/><path transform="rotate(45 14.435 13.364)" stroke="var(--svg-icon-stroke, #333)" fill="none" d="M14.435 13.364H17.435000000000002V15.364H14.435z"/><circle cx="17.111" cy="4.556" r="1.556" stroke="var(--svg-icon-stroke_blue, #0094ff)" fill="none"/><path d="M14.3202 8.39917C14.5863 7.06878 15.7544 6.11115 17.1111 6.11115V6.11115C18.4678 6.11115 19.636 7.06878 19.902 8.39917L20.2222 10H14L14.3202 8.39917Z" stroke="var(--svg-icon-stroke_blue, #0094ff)" fill="none"/></svg>