<?xml version="1.0" encoding="utf-8"?><svg xmlns="http://www.w3.org/2000/svg" viewBox="0 0 20 20" width="20" height="20"><path d="M6,10.23V7A5,5,0,0,0,9.87,5,5.44,5.44,0,0,0,14,7v4.17A2.09,2.09,0,0,1,13,13L9.87,15,7.73,13.53A4,4,0,0,1,6,10.23Z" stroke="var(--svg-icon-stroke_blue, #0094ff)" fill="none"/><path d="M17,10h3" stroke="var(--svg-icon-stroke, #333)" fill="none"/><path d="M0,10H3" stroke="var(--svg-icon-stroke, #333)" fill="none"/><path d="M10,0V3" stroke="var(--svg-icon-stroke, #333)" fill="none"/><path d="M10,17v3" stroke="var(--svg-icon-stroke, #333)" fill="none"/><path d="M15.9,5.38a7.44,7.44,0,0,1,1.6,4.69A7.5,7.5,0,1,1,2.71,8.23a7.51,7.51,0,0,1,7.4-5.73" stroke="var(--svg-icon-stroke, #333)" fill="none"/></svg>