<?xml version="1.0" encoding="utf-8"?><svg xmlns="http://www.w3.org/2000/svg" viewBox="0 0 8.47 10" width="8.47" height="10"><path d="M8.38,6.92l-2,2.88a.41.41,0,0,1-.71,0l-2-2.88A.44.44,0,0,1,4,6.21h.93V.45A.42.42,0,0,1,5.32,0H6.65a.42.42,0,0,1,.44.45V6.21H8A.44.44,0,0,1,8.38,6.92ZM2.22,8.87H.58a.44.44,0,0,1-.45-.4,1.7,1.7,0,0,1,1-1.6c.49-.17.49-.31.49-.35a.3.3,0,0,0-.31-.31.47.47,0,0,0-.4.22.44.44,0,1,1-.66-.58,1.36,1.36,0,0,1,1.1-.53,1.19,1.19,0,0,1,1.2,1.2c0,.8-.8,1.06-1.06,1.2A.44.44,0,0,0,1.2,8H2.26a.42.42,0,0,1,.44.45A.45.45,0,0,1,2.22,8.87ZM1.77,3.11V.45a.39.39,0,0,0-.26-.4A.41.41,0,0,0,1,.13L.13,1a.44.44,0,0,0,0,.62.42.42,0,0,0,.62,0l.14-.13v1.6a.41.41,0,0,0,.44.44A.41.41,0,0,0,1.77,3.11Z" stroke="var(--svg-icon-stroke, #333)" fill="none"/></svg>