<?xml version="1.0" encoding="utf-8"?><svg viewBox="0 0 24 24" xmlns="http://www.w3.org/2000/svg" width="24" height="24"><circle cx="12" cy="7" r="4" stroke="var(--svg-icon-stroke, #333)" fill="none"/><path d="M4.8233 16.8835C5.5075 13.4625 8.51125 11 12 11V11C15.4887 11 18.4925 13.4625 19.1767 16.8835L20 21H4L4.8233 16.8835Z" stroke="var(--svg-icon-stroke, #333)" fill="none"/><path d="M11.0648 14.7885L10 21H14L12.9352 14.7885C12.8571 14.333 12.4622 14 12 14C11.5378 14 11.1429 14.333 11.0648 14.7885Z" stroke="var(--svg-icon-stroke_blue, #0094ff)" fill="none"/><path d="M12.2338 12H11.7662C10.9889 12 10.5088 12.848 10.9087 13.5145C11.0894 13.8157 11.4149 14 11.7662 14H12.2338C12.5851 14 12.9106 13.8157 13.0913 13.5145C13.4912 12.848 13.0111 12 12.2338 12Z" stroke="var(--svg-icon-stroke_blue, #0094ff)" fill="none"/></svg>