<?xml version="1.0" encoding="utf-8"?><svg viewBox="0 0 24 24" xmlns="http://www.w3.org/2000/svg" width="24" height="24"><path d="M20 8.5V8C20 7.44772 19.5523 7 19 7H5C4.44772 7 4 7.44772 4 8V16C4 16.5523 4.44772 17 5 17H5.5" stroke="var(--svg-icon-stroke_blue, #0094ff)" fill="none"/><path d="M4 10L6 11" stroke="var(--svg-icon-stroke_blue, #0094ff)" fill="none"/><path d="M18 6.5V6C18 5.44772 17.5523 5 17 5H3C2.44772 5 2 5.44772 2 6V14C2 14.5523 2.44772 15 3 15H3.5" stroke="var(--svg-icon-stroke_blue, #0094ff)" fill="none"/><path d="M2 8L4 9" stroke="var(--svg-icon-stroke_blue, #0094ff)" fill="none"/><rect x="6" y="9" width="16" height="10" rx="1" stroke="var(--svg-icon-stroke, #333)" fill="none"/><path d="M6 12L13.7419 14L22 12" stroke="var(--svg-icon-stroke, #333)" fill="none"/></svg>