<?xml version="1.0" encoding="utf-8"?><svg xmlns="http://www.w3.org/2000/svg" viewBox="0 0 17 17" width="17" height="17"><path d="M6,0h5V1.43c.25.09.5.19.73.3l1-1,3.54,3.54-1,1c.11.23.21.48.3.73H17v5H15.57c-.09.25-.19.5-.3.73l1,1-3.54,3.54-1-1c-.23.11-.48.21-.73.3V17H6V15.57c-.25-.09-.5-.19-.73-.3l-1,1L.72,12.74l1-1c-.11-.23-.21-.48-.3-.73H0V6H1.43c.09-.25.19-.5.3-.73l-1-1L4.26.72l1,1c.23-.11.48-.21.73-.3ZM7,1V2.16l-.36.11a6.64,6.64,0,0,0-1.23.51L5.08,3l-.82-.82L2.14,4.26,3,5.08l-.18.33a6.64,6.64,0,0,0-.51,1.23L2.16,7H1v3H2.16l.11.36a6.64,6.64,0,0,0,.51,1.23l.18.33-.82.82,2.12,2.12L5.08,14l.33.18a6.64,6.64,0,0,0,1.23.51l.36.11V16h3V14.84l.36-.11a6.64,6.64,0,0,0,1.23-.51l.33-.18.82.82,2.12-2.12L14,11.92l.18-.33a6.64,6.64,0,0,0,.51-1.23l.11-.36H16V7H14.84l-.11-.36a6.64,6.64,0,0,0-.51-1.23L14,5.08l.82-.82L12.74,2.14,11.92,3l-.33-.18a6.64,6.64,0,0,0-1.23-.51L10,2.16V1Z" fill="var(--svg-icon-fill, #333)" fill-rule="evenodd"/><path d="M8.5,5A3.5,3.5,0,1,0,12,8.5,3.5,3.5,0,0,0,8.5,5ZM4,8.5A4.5,4.5,0,1,1,8.5,13,4.49,4.49,0,0,1,4,8.5Z" fill="var(--svg-icon-fill_blue, #0094ff)" fill-rule="evenodd"/></svg>