<?xml version="1.0" encoding="utf-8"?><svg width="24" height="24" fill="none" xmlns="http://www.w3.org/2000/svg" viewBox="0 0 24 24"><path d="M12 7.5V4.5" stroke="var(--svg-icon-stroke_blue, #0094ff)"/><path d="M12 20V17" stroke="var(--svg-icon-stroke_blue, #0094ff)"/><path d="M15.3588 8.89122L17.4801 6.7699" stroke="var(--svg-icon-stroke_blue, #0094ff)"/><path d="M6.51992 17.7301L8.64124 15.6088" stroke="var(--svg-icon-stroke_blue, #0094ff)"/><path d="M16.75 12.25L19.75 12.25" stroke="var(--svg-icon-stroke_blue, #0094ff)"/><path d="M4.25 12.25L7.25 12.25" stroke="var(--svg-icon-stroke_blue, #0094ff)"/><path d="M15.3587 15.6088L17.48 17.7301" stroke="var(--svg-icon-stroke_blue, #0094ff)"/><path d="M6.51992 6.76991L8.64124 8.89124" stroke="var(--svg-icon-stroke_blue, #0094ff)"/><circle cx="12" cy="12" r="4.5" stroke="var(--svg-icon-stroke, #333)"/><circle cx="12" cy="3" r="1.5" stroke="var(--svg-icon-stroke, #333)"/><circle cx="12" cy="21" r="1.5" stroke="var(--svg-icon-stroke, #333)"/><circle cx="5.636" cy="5.636" r="1.5" transform="rotate(-45 5.63604 5.63599)" stroke="var(--svg-icon-stroke, #333)"/><circle cx="18.364" cy="18.364" r="1.5" transform="rotate(-45 18.3639 18.364)" stroke="var(--svg-icon-stroke, #333)"/><circle cx="3" cy="12" r="1.5" transform="rotate(-90 3 12)" stroke="var(--svg-icon-stroke, #333)"/><circle cx="21" cy="12" r="1.5" transform="rotate(-90 21 12)" stroke="var(--svg-icon-stroke, #333)"/><circle cx="5.636" cy="18.364" r="1.5" transform="rotate(-135 5.63605 18.364)" stroke="var(--svg-icon-stroke, #333)"/><circle cx="18.364" cy="5.636" r="1.5" transform="rotate(-135 18.364 5.63605)" stroke="var(--svg-icon-stroke, #333)"/></svg>