<?xml version="1.0" encoding="utf-8"?><svg width="9" height="11" fill="none" xmlns="http://www.w3.org/2000/svg" viewBox="0 0 9 11"><path d="M8.37986 7.41864L6.34032 10.3006C6.16297 10.5666 5.80826 10.5666 5.63091 10.3006L3.59137 7.41864C3.36968 7.10827 3.59137 6.70919 3.94607 6.70919H4.87717V0.945261C4.87717 0.679233 5.05452 0.501881 5.32055 0.501881H6.65068C6.91671 0.501881 7.09406 0.679233 7.09406 0.945261V6.70919H8.02516C8.37986 6.70919 8.60155 7.10827 8.37986 7.41864ZM2.21689 9.36946H0.576393C0.354703 9.36946 0.133014 9.19215 0.133014 8.97046C0.133014 8.57142 0.310367 7.68462 1.15279 7.37426C1.6405 7.19691 1.6405 7.06387 1.6405 7.01953C1.6405 6.84218 1.50749 6.70919 1.33014 6.70919C1.15278 6.70919 1.01977 6.79786 0.931097 6.93088C0.753746 7.10823 0.487714 7.15261 0.310363 6.97526C0.133011 6.79791 0.0886772 6.53182 0.266029 6.35446C0.620732 5.91108 1.06411 5.82243 1.37448 5.82243C2.03954 5.82243 2.5716 6.35446 2.5716 7.01953C2.5716 7.81761 1.77351 8.08362 1.50748 8.21663C1.33013 8.26097 1.24146 8.39403 1.19712 8.4827H2.26123C2.52726 8.4827 2.70461 8.66006 2.70461 8.92608C2.70461 9.19211 2.48292 9.36946 2.21689 9.36946ZM1.77351 3.60553V0.945261C1.77351 0.767909 1.68484 0.590601 1.50748 0.546263C1.33013 0.457587 1.15279 0.501903 1.01977 0.634917L0.133014 1.52167C-0.0443379 1.69903 -0.0443379 1.96501 0.133014 2.14236C0.310365 2.31971 0.57639 2.31971 0.753742 2.14236L0.886757 2.00933V3.60553C0.886757 3.87156 1.06411 4.04891 1.33014 4.04891C1.59616 4.04891 1.77351 3.87156 1.77351 3.60553Z" stroke="var(--svg-icon-stroke, #333)"/></svg>