<?xml version="1.0" encoding="utf-8"?><svg width="13" height="12" fill="none" xmlns="http://www.w3.org/2000/svg" viewBox="0 0 13 12"><path d="M5.5 10.5H7V11.5C7 11.8 6.8 12 6.5 12H6C5.7 12 5.5 11.8 5.5 11.5V10.5ZM3 4H2.5V0.5C2.5 0.2 2.3 0 2 0H1.5C1.2 0 1 0.2 1 0.5V4H0.5C0.2 4 0 4.2 0 4.5V6C0 6.3 0.2 6.5 0.5 6.5H3C3.3 6.5 3.5 6.3 3.5 6V4.5C3.5 4.2 3.3 4 3 4ZM1 11.5C1 11.8 1.2 12 1.5 12H2C2.3 12 2.5 11.8 2.5 11.5V7.5H1V11.5ZM12 3H11.5V0.5C11.5 0.2 11.3 0 11 0H10.5C10.2 0 10 0.2 10 0.5V3H9.5C9.2 3 9 3.2 9 3.5V5C9 5.3 9.2 5.5 9.5 5.5H12C12.3 5.5 12.5 5.3 12.5 5V3.5C12.5 3.2 12.3 3 12 3ZM10 11.5C10 11.8 10.2 12 10.5 12H11C11.3 12 11.5 11.8 11.5 11.5V6.5H10V11.5ZM7.5 7H7V0.5C7 0.2 6.8 0 6.5 0H6C5.7 0 5.5 0.2 5.5 0.5V7H5C4.7 7 4.5 7.2 4.5 7.5V9C4.5 9.3 4.7 9.5 5 9.5H7.5C7.8 9.5 8 9.3 8 9V7.5C8 7.2 7.8 7 7.5 7Z" fill="#0094FF"/></svg>