<?xml version="1.0" encoding="utf-8"?><svg width="12" height="12" fill="none" xmlns="http://www.w3.org/2000/svg" viewBox="0 0 12 12"><path fill-rule="evenodd" clip-rule="evenodd" d="M3.004 2.655C3.484 1.95 4.29 1.4 5.5 1.4s2.016.55 2.496 1.255c.458.674.604 1.462.604 1.992V11H7.4V4.647c0-.352-.104-.888-.396-1.317-.27-.397-.714-.73-1.504-.73s-1.234.333-1.504.73c-.292.43-.396.965-.396 1.317H2.4c0-.53.146-1.318.604-1.992z" fill="#333"/><path fill-rule="evenodd" clip-rule="evenodd" d="M10 6.5H6v-1h4v1zM10 8.5H6v-1h4v1z" fill="#333"/></svg>