<?xml version="1.0" encoding="utf-8"?><svg width="24" height="23.23" fill="none" xmlns="http://www.w3.org/2000/svg" viewBox="0 0 31 30"><circle cx="15.5" cy="15" r="14.5" stroke="#BABABA"/><path d="M23.367 20.954l-7.098-12.48C16.092 8.176 15.796 8 15.5 8c-.296 0-.591.177-.769.473l-7.098 12.48a.806.806 0 000 .888c.178.296.473.414.769.414h14.196c.296 0 .591-.177.769-.414.177-.296.177-.65 0-.887zm-6.684-1.065c0 .355-.237.592-.591.592h-1.183c-.355 0-.592-.237-.592-.592v-1.183c0-.355.237-.591.591-.591h1.184c.354 0 .591.236.591.591v1.183zm0-5.323l-.355 2.13c0 .117-.118.236-.296.236h-1.064c-.119 0-.296-.119-.296-.237l-.355-2.13v-1.774c0-.355.237-.591.591-.591h1.184c.354 0 .591.236.591.591v1.775z" fill="#333"/></svg>