<?xml version="1.0" encoding="utf-8"?><svg width="9" height="11" fill="none" xmlns="http://www.w3.org/2000/svg" viewBox="0 0 9 11"><path d="M8.38 7.034L6.34 9.916a.415.415 0 01-.71 0L3.592 7.034c-.221-.31 0-.709.355-.709h.931V.561c0-.266.178-.443.444-.443h1.33c.266 0 .443.177.443.443v5.764h.931c.355 0 .577.4.355.71zM2.217 8.985H.577c-.222 0-.444-.177-.444-.399 0-.399.177-1.286 1.02-1.596.488-.177.488-.31.488-.355a.303.303 0 00-.31-.31.466.466 0 00-.4.222c-.177.177-.443.221-.62.044-.178-.177-.222-.443-.045-.62a1.372 1.372 0 011.108-.533c.666 0 1.198.532 1.198 1.197 0 .798-.798 1.064-1.065 1.197a.479.479 0 00-.31.267h1.064c.266 0 .444.177.444.443s-.222.443-.488.443zm-.443-5.764V.561c0-.177-.09-.355-.267-.399C1.33.073 1.153.118 1.02.251l-.887.887a.429.429 0 000 .62.429.429 0 00.62 0l.134-.133v1.596c0 .266.177.444.443.444s.444-.178.444-.444z" fill="#333"/></svg>