<?xml version="1.0" encoding="utf-8"?><svg width="12" height="14" fill="none" xmlns="http://www.w3.org/2000/svg" viewBox="0 0 12 14"><path d="M11.8856 7.00376L6.27712 1.39527C6.12554 1.24369 5.87291 1.24369 5.72133 1.39527L0.112878 7.00376C-0.139755 7.2564 0.0623545 7.66051 0.41604 7.66051H1.4771V12.9658C1.4771 13.1174 1.57815 13.2184 1.72973 13.2184H2.9929V12.2079H9.05608V13.2184H10.3192C10.4708 13.2184 10.5719 13.1174 10.5719 12.9658V7.66051H11.6329C11.9361 7.66051 12.1382 7.2564 11.8856 7.00376ZM9.00555 10.1868V11.1974H2.94237V10.1868H9.00555ZM9.00555 8.16578V9.17631H2.94237V8.16578H9.00555Z" fill="#fff"/><path d="M11.8856 6.00376L6.27712 0.39527C6.12554 0.243691 5.87291 0.243691 5.72133 0.39527L0.112878 6.00376C-0.139755 6.2564 0.0623545 6.66051 0.41604 6.66051H1.4771V11.9658C1.4771 12.1174 1.57815 12.2184 1.72973 12.2184H2.9929V11.2079H9.05608V12.2184H10.3192C10.4708 12.2184 10.5719 12.1174 10.5719 11.9658V6.66051H11.6329C11.9361 6.66051 12.1382 6.2564 11.8856 6.00376ZM9.00555 9.18684V10.1974H2.94237V9.18684H9.00555ZM9.00555 7.16578V8.17631H2.94237V7.16578H9.00555Z" fill="#1E6393"/></svg>