<?xml version="1.0" encoding="utf-8"?><svg width="12" height="14" fill="none" xmlns="http://www.w3.org/2000/svg" viewBox="0 0 12 14"><path d="M11.886 7.004L6.277 1.395a.396.396 0 00-.556 0L.113 7.004c-.253.252-.05.657.303.657h1.061v5.305c0 .151.101.252.253.252h1.263v-1.01h6.063v1.01h1.263c.152 0 .253-.1.253-.252V7.66h1.06c.304 0 .506-.405.254-.657zm-2.88 3.183v1.01H2.942v-1.01h6.064zm0-2.021v1.01H2.942v-1.01h6.064z" fill="#fff"/><path d="M11.886 6.004L6.277.395a.396.396 0 00-.556 0L.113 6.004c-.253.252-.05.657.303.657h1.061v5.305c0 .151.101.252.253.252h1.263v-1.01h6.063v1.01h1.263c.152 0 .253-.1.253-.252V6.66h1.06c.304 0 .506-.405.254-.657zm-2.88 3.183v1.01H2.942v-1.01h6.064zm0-2.021v1.01H2.942v-1.01h6.064z" fill="#1E6393"/></svg>