<?xml version="1.0" encoding="utf-8"?><svg width="16" height="11" fill="none" xmlns="http://www.w3.org/2000/svg" viewBox="0 0 16 11"><path d="M14.639 10.803l-.325.13a.69.69 0 01-.779-.13C11.328 8.4 8.796 7.88 7.238 7.816v2.272c0 .52-.584.844-1.038.52L.292 6.388a.608.608 0 010-1.038L6.2 1.13a.649.649 0 011.038.52v2.077c3.636.519 6.752 3.505 7.725 6.296.13.26 0 .65-.324.78z" fill="#fff"/><path d="M14.639 9.803l-.325.13a.69.69 0 01-.779-.13C11.328 7.4 8.796 6.88 7.238 6.816v2.272c0 .52-.584.844-1.038.52L.292 5.388a.608.608 0 010-1.038L6.2.13a.649.649 0 011.038.52v2.077c3.636.519 6.752 3.505 7.725 6.297.13.26 0 .649-.324.779z" fill="#1E6393"/></svg>