<?xml version="1.0" encoding="utf-8"?><svg xmlns="http://www.w3.org/2000/svg" viewBox="0 0 19.79 20" width="19.79" height="20"><path d="M1.88,15l.06-.2-.1-.18A9.35,9.35,0,0,1,.58,9.91h0A9.39,9.39,0,0,1,9.93.5a9.36,9.36,0,0,1,9.36,9.41h0a9.39,9.39,0,0,1-9.35,9.41,9.21,9.21,0,0,1-4.47-1.15l-.17-.09-.2.05L.71,19.29Z" stroke="var(--svg-icon-stroke_green, #69C26A)" fill="none"/><path d="M8.12,7.87h0l-.49.56L7.4,8.7l.15.3a6.92,6.92,0,0,0,3.64,3.45l.32.13.24-.26.61-.7a1.36,1.36,0,0,1,2,0l.67.71a1.78,1.78,0,0,1,0,2.43,2.27,2.27,0,0,1-2.34.63l0,0h-.06c-3.93-.24-7.2-3.45-7.93-7.72v0l0,0A2.64,2.64,0,0,1,5.21,5,1.52,1.52,0,0,1,7.44,5l.68.71A1.59,1.59,0,0,1,8.12,7.87Z" stroke="var(--svg-icon-stroke, #333)" fill="none"/></svg>