<?xml version="1.0" encoding="utf-8"?><svg xmlns="http://www.w3.org/2000/svg" viewBox="0 0 14 18" width="14" height="18"><path d="M3.55,13.53a.8.8,0,0,1-.43-.42A1.06,1.06,0,0,1,3.2,12a2.56,2.56,0,0,1,.89-.79,7.91,7.91,0,0,1,1.49-.65A19.65,19.65,0,0,0,6.64,8.35a6.61,6.61,0,0,1-.43-1.3,2.74,2.74,0,0,1,0-1.13,1.12,1.12,0,0,1,.65-.83A1,1,0,0,1,7.41,5a.56.56,0,0,1,.28.13.63.63,0,0,1,.2.23A1.3,1.3,0,0,1,8,5.92a3.27,3.27,0,0,1,0,.61,9.58,9.58,0,0,1-.52,1.8,10.84,10.84,0,0,0,1,1.68,6.55,6.55,0,0,1,1.33.05,1.6,1.6,0,0,1,1,.47.8.8,0,0,1,.2.52,1.12,1.12,0,0,1-.13.56,1,1,0,0,1-.36.42.9.9,0,0,1-.51.13A1.66,1.66,0,0,1,9,11.75a5.45,5.45,0,0,1-.91-.95,11.25,11.25,0,0,0-2,.4,11.1,11.1,0,0,1-1,1.51,2.67,2.67,0,0,1-.93.79A.83.83,0,0,1,3.55,13.53Zm1.38-1.9a3.33,3.33,0,0,0-.46.24,1.93,1.93,0,0,0-.64.54.31.31,0,0,0,0,.36l0,.05h0a2.08,2.08,0,0,0,.63-.58A6.7,6.7,0,0,0,4.93,11.63ZM6.57,10.3c.34-.08.67-.14,1-.2-.18-.27-.35-.56-.51-.85-.15.35-.32.7-.5,1.05ZM9,10.75a5.24,5.24,0,0,0,.43.41,1,1,0,0,0,.5.25.08.08,0,0,0,.07,0,.32.32,0,0,0,.1-.13.66.66,0,0,0,.06-.2.09.09,0,0,0,0-.06.94.94,0,0,0-.52-.21A4.18,4.18,0,0,0,9,10.75ZM7,7.24a7.72,7.72,0,0,0,.2-.83,2.85,2.85,0,0,0,0-.46.64.64,0,0,0,0-.2l-.15,0a.35.35,0,0,0-.2.28,2.07,2.07,0,0,0,.05.83A2.46,2.46,0,0,0,7,7.24Z" fill="var(--svg-icon-fill_blue, #0094ff)"/><path d="M.5.5H9.79L13.5,4.21V17.5H.5Z" stroke="var(--svg-icon-stroke, #333)" fill="none"/></svg>