<?xml version="1.0" encoding="utf-8"?><svg xmlns="http://www.w3.org/2000/svg" viewBox="0 0 19 19" width="19" height="19"><path d="M17.79,6a9,9,0,0,1,.71,3.43,8.83,8.83,0,0,1-.66,3.45l-3.75-1.51a5,5,0,0,0,.36-1.9,5.11,5.11,0,0,0-.39-1.89Z" stroke="var(--svg-icon-stroke, #333)" fill="none"/><path d="M6,1.21A9,9,0,0,1,9.42.5a8.83,8.83,0,0,1,3.45.66L11.36,4.91a5,5,0,0,0-1.9-.36,5.11,5.11,0,0,0-1.89.39Z" stroke="var(--svg-icon-stroke, #333)" fill="none"/><path d="M1.21,13A9,9,0,0,1,.5,9.58a8.83,8.83,0,0,1,.66-3.45L4.91,7.64a5,5,0,0,0-.36,1.9,5.11,5.11,0,0,0,.39,1.89Z" stroke="var(--svg-icon-stroke, #333)" fill="none"/><path d="M13,17.79a9,9,0,0,1-3.43.71,8.83,8.83,0,0,1-3.45-.66l1.51-3.75a5,5,0,0,0,1.9.36,5.11,5.11,0,0,0,1.89-.39Z" stroke="var(--svg-icon-stroke, #333)" fill="none"/><path d="M17.84,12.87a8.86,8.86,0,0,1-1.92,2.94,9.22,9.22,0,0,1-2.91,2l-1.58-3.73A5.16,5.16,0,0,0,13,13a4.8,4.8,0,0,0,1.06-1.61Z" stroke="var(--svg-icon-stroke_blue, #4A8DC6)" fill="var(--svg-icon-fill_blue, #4A8DC6)"/><path d="M1.16,6.13A8.86,8.86,0,0,1,3.08,3.19,9.22,9.22,0,0,1,6,1.21L7.57,4.94A5.16,5.16,0,0,0,6,6,4.8,4.8,0,0,0,4.91,7.64Z" stroke="var(--svg-icon-stroke_blue, #4A8DC6)" fill="var(--svg-icon-fill_blue, #4A8DC6)"/><path d="M6.13,17.84A9,9,0,0,1,1.21,13l3.73-1.58a5,5,0,0,0,2.7,2.66Z" stroke="var(--svg-icon-stroke_blue, #4A8DC6)" fill="var(--svg-icon-fill_blue, #4A8DC6)"/><path d="M12.87,1.16a8.86,8.86,0,0,1,2.94,1.92,9.22,9.22,0,0,1,2,2.91L14.06,7.57A5.16,5.16,0,0,0,13,6a4.8,4.8,0,0,0-1.61-1.06Z" stroke="var(--svg-icon-stroke_blue, #4A8DC6)" fill="var(--svg-icon-fill_blue, #4A8DC6)"/></svg>