<?xml version="1.0" encoding="utf-8"?><svg width="24" height="24" fill="none" xmlns="http://www.w3.org/2000/svg" viewBox="0 0 24 24"><path d="M5.51562 20.4844L5.55762 20.5L5.51562 20.5156L5.5 20.5576L5.48438 20.5156L5.44141 20.5L5.48438 20.4844L5.5 20.4414L5.51562 20.4844Z" stroke="var(--svg-icon-stroke, #333)"/><path d="M19.7061 18.998L19.7861 19.2139L20.002 19.2939L20.5586 19.5L20.002 19.7061L19.7861 19.7861L19.7061 20.002L19.5 20.5586L19.2939 20.002L19.2139 19.7861L18.998 19.7061L18.4404 19.5L18.998 19.2939L19.2139 19.2139L19.2939 18.998L19.5 18.4404L19.7061 18.998Z" stroke="var(--svg-icon-stroke, #333)"/><path d="M5.5 4L6.17523 5.82477L8 6.5L6.17523 7.17523L5.5 9L4.82477 7.17523L3 6.5L4.82477 5.82477L5.5 4Z" stroke="var(--svg-icon-stroke, #333)"/><path d="M12.7399 13.8546H11.2539L11.0433 7H12.9505L12.7399 13.8546ZM11.9969 14.928C12.2982 14.928 12.5397 15.0254 12.7214 15.2201C12.9071 15.4149 13 15.6639 13 15.9674C13 16.2663 12.9071 16.5131 12.7214 16.7079C12.5397 16.9026 12.2982 17 11.9969 17C11.6997 17 11.4582 16.9026 11.2724 16.7079C11.0908 16.5131 11 16.2663 11 15.9674C11 15.6685 11.0908 15.4216 11.2724 15.2269C11.4582 15.0276 11.6997 14.928 11.9969 14.928Z" fill="var(--svg-icon-fill_blue, #0094ff)"/></svg>