<?xml version="1.0" encoding="utf-8"?><svg xmlns="http://www.w3.org/2000/svg" viewBox="0 0 16 15.96" width="16" height="15.96"><path d="M14.94,9.22l0,.18.09.16a3.94,3.94,0,0,1,.5,1.93h0a4,4,0,0,1-1.16,2.81h0a4,4,0,0,1-4.77.64l-.15-.08-.18,0A7.33,7.33,0,0,1,8,15a7,7,0,0,1-2.74-.56h0A7,7,0,0,1,3,12.93,7.25,7.25,0,0,1,1.5,10.69h0A7,7,0,0,1,1,7.94a8.23,8.23,0,0,1,.1-1.21l0-.18L1,6.4A3.94,3.94,0,0,1,.5,4.47h0A4,4,0,0,1,1.66,1.66h0A4,4,0,0,1,6.34,1l.16.08.17,0A6.69,6.69,0,0,1,8,.89a7,7,0,0,1,2.74.55h0A7.14,7.14,0,0,1,13,3h0A7.15,7.15,0,0,1,14.51,5.2h0a7,7,0,0,1,.55,2.74A6.85,6.85,0,0,1,14.94,9.22Z" stroke="var(--svg-icon-stroke, #333)" fill="none"/><path d="M4.43,10.1c0,1,1.2,2.31,3.88,2.31s3.82-1.23,3.82-2.88c0-1.06-.49-2.19-2.43-2.62l-1.76-.4c-.68-.15-1.45-.35-1.45-1S7,4.45,8,4.45c2,0,1.8,1.35,2.78,1.35a.87.87,0,0,0,1-.82c0-1.22-1.94-2.13-3.6-2.13s-3.7.76-3.7,2.79c0,1,.35,2,2.27,2.5l2.39.59c.72.18.9.59.9,1,0,.61-.6,1.2-1.7,1.2-2.14,0-1.85-1.65-3-1.65A.84.84,0,0,0,4.43,10.1Z" fill="var(--svg-icon-fill_blue, #0094ff)"/></svg>