<?xml version="1.0" encoding="utf-8"?><svg xmlns="http://www.w3.org/2000/svg" viewBox="0 0 16 16" width="16" height="16"><path d="M8,.5a7.22,7.22,0,0,1,7.5,7.26A7.22,7.22,0,0,1,8,15a8.14,8.14,0,0,1-2.18-.29h0a1.1,1.1,0,0,0-.76.06h0l-1.58.7a.15.15,0,0,1-.2-.13l0-1.42a1.12,1.12,0,0,0-.3-.73l-.08-.08A7.11,7.11,0,0,1,.5,7.76,7.22,7.22,0,0,1,8,.5Z" stroke="var(--svg-icon-stroke, #333)" fill="none"/><path d="M9.37,9.11,7.45,7.72l-.1-.06a.73.73,0,0,0-.66,0l-.1.07L4.74,9.17,6.63,5.88l1.92,1.4a.71.71,0,0,0,.86,0l1.85-1.43Z" fill="var(--svg-icon-fill_blue, #0094ff)" stroke="var(--svg-icon-stroke_blue, #0094ff)"/></svg>