<?xml version="1.0" encoding="utf-8"?><svg width="24" height="24" fill="none" xmlns="http://www.w3.org/2000/svg" viewBox="0 0 24 24"><path d="M10 21.6667V18C11.5 19 12.5 19 14 18V21.6667C13.8333 22.1111 13.2 23 12 23C10.8 23 10.1667 22.1111 10 21.6667Z" stroke="var(--svg-icon-stroke, #333)"/><path d="M14 20C13.8333 20.1667 13.2 21 12 21C10.8 21 10.1667 20.1667 10 20" stroke="var(--svg-icon-stroke, #333)"/><path d="M12 4C9.60003 4 6 5.17355 6 10.2667C6 13.1529 8.04723 15.8626 9.75 17.6172C10.9623 18.8665 12 18.9211 12 18.9211C12 18.9211 13.0528 18.8659 14.2764 17.6172C15.9739 15.8851 18 13.2234 18 10.3872C18 5.44611 14.4 4 12 4Z" stroke="var(--svg-icon-stroke, #333)" stroke-linecap="round" stroke-linejoin="round"/><path d="M11 18.5V12.8L10 11" stroke="var(--svg-icon-stroke, #333)"/><path d="M9 10.5L10.5 9L12 10.5L13.5 9L15 10.5" stroke="var(--svg-icon-stroke_blue, #0094ff)"/><path d="M13 18.5V12.8L14 11" stroke="var(--svg-icon-stroke, #333)"/><path d="M18 3.97461L21.8598 1.45436" stroke="var(--svg-icon-stroke_blue, #0094ff)"/><path d="M19 8L22.5 7" stroke="var(--svg-icon-stroke_blue, #0094ff)"/><path d="M5.85985 3.97461L2.00002 1.45436" stroke="var(--svg-icon-stroke_blue, #0094ff)"/><path d="M4.5 8L1 7" stroke="var(--svg-icon-stroke_blue, #0094ff)"/></svg>