<?xml version="1.0" encoding="utf-8"?><svg width="24" height="24" fill="none" xmlns="http://www.w3.org/2000/svg" viewBox="0 0 24 24"><path d="M3.58452 7.8255C3.58027 7.80175 3.5743 7.77834 3.56666 7.75545C3.10256 6.36423 3.42492 4.77027 4.53094 3.66425C5.61192 2.58327 7.36453 2.58327 8.44551 3.66425L9.50159 4.72033C10.4779 5.69664 10.4779 7.27955 9.50159 8.25586L7.18479 10.5727C7.03116 10.7263 6.99432 10.9616 7.09364 11.1548C8.27695 13.457 10.242 15.2576 12.6242 16.1569C12.808 16.2263 13.0154 16.1816 13.1543 16.0427L15.6779 13.5191C16.6542 12.5427 18.2371 12.5427 19.2135 13.5191L20.2695 14.5751C21.3505 15.6561 21.3505 17.4087 20.2695 18.4897C19.2004 19.5589 17.6754 19.8957 16.318 19.4977C16.2815 19.487 16.2439 19.4805 16.2059 19.4784C9.91373 19.1177 4.73322 14.2376 3.58452 7.8255Z" stroke="var(--svg-icon-stroke, #333)" stroke-linecap="round" stroke-linejoin="round"/><path d="M12.7647 4.23535H21" stroke="var(--svg-icon-stroke_blue, #0094ff)"/><path d="M19.7647 3L21 4.23529L19.7647 5.47058" stroke="var(--svg-icon-stroke_blue, #0094ff)"/><path d="M21 8.76465H12.7647" stroke="var(--svg-icon-stroke_blue, #0094ff)"/><path d="M14 7.5293L12.7647 8.76459L14 9.99988" stroke="var(--svg-icon-stroke_blue, #0094ff)"/></svg>