<?xml version="1.0" encoding="utf-8"?><svg xmlns="http://www.w3.org/2000/svg" viewBox="0 0 18 14" width="18" height="14"><path d="M3,9H15" stroke="var(--svg-icon-stroke_blue, #0094ff)" fill="none"/><path d="M3,11H15" stroke="var(--svg-icon-stroke_blue, #0094ff)" fill="none"/><path d="M17.5.5v13H.5V.5Z" stroke="var(--svg-icon-stroke, #333)" fill="none"/><circle cx="6.59" cy="6.24" r=".79" stroke="var(--svg-icon-stroke_blue, #0094ff)" fill="none"/><circle cx="12.41" cy="6.24" r=".79" stroke="var(--svg-icon-stroke_blue, #0094ff)" fill="none"/><path d="M7.56,6.24h3.88m1.94,0L15,6.07V5.66a1,1,0,0,0-.68-1l-1.19-.39L13,4.26,10.68,3.11A1,1,0,0,0,10.23,3H6.94a1,1,0,0,0-.63.22l-1.2,1a.94.94,0,0,1-.31.17l-.12,0a1,1,0,0,0-.68,1v.9H5.62" stroke="var(--svg-icon-stroke_blue, #0094ff)" fill="none"/></svg>