<?xml version="1.0" encoding="utf-8"?><svg width="24" height="24" fill="none" xmlns="http://www.w3.org/2000/svg" viewBox="0 0 24 24"><path fill-rule="evenodd" clip-rule="evenodd" d="M7.40546 6.53851C7.37602 6.56795 7.3171 6.56795 7.28766 6.56795C7.16983 6.56795 7.08147 6.50907 7.02256 6.39124C6.96368 6.244 7.02256 6.06729 7.16983 6.00837C8.90752 5.15425 10.3212 4.80082 12 4.80082C13.4846 4.80082 14.7621 5.07753 16.2395 5.73219L15.7993 4.38852C15.7404 4.24128 15.8288 4.06457 15.976 4.00565C16.1233 3.97618 16.2705 4.06453 16.3295 4.2118L16.953 6.11064C16.9859 6.16182 17.002 6.22388 16.9994 6.2868C16.9996 6.32408 16.9923 6.36142 16.9774 6.39124C16.9367 6.49316 16.8395 6.55266 16.7347 6.56019L14.8274 7.18645C14.798 7.21589 14.7685 7.21589 14.739 7.21589C14.6212 7.21589 14.5034 7.12753 14.474 7.00974C14.4151 6.86246 14.5034 6.71523 14.6507 6.65631L15.9387 6.23441C14.5567 5.63327 13.3777 5.38988 12 5.38988C10.4096 5.38988 9.08423 5.71386 7.40546 6.53851ZM12 18.9378C13.5904 18.9378 14.9158 18.6139 16.5945 17.7892C16.7418 17.7303 16.9185 17.7892 16.9774 17.9364C17.0363 18.0837 16.9774 18.2604 16.8302 18.3193C15.0925 19.1734 13.6788 19.5268 12 19.5268C10.5385 19.5268 9.27775 19.2588 7.82936 18.6259L8.25958 19.9392C8.3185 20.0864 8.23014 20.2631 8.08287 20.322H7.9356C7.8178 20.322 7.69997 20.2337 7.67053 20.1159L7.04703 18.2171C6.9957 18.1373 6.98483 18.0309 7.02259 17.9365C7.04648 17.8768 7.08986 17.8319 7.14263 17.8032C7.16731 17.7857 7.19599 17.7707 7.22878 17.7597L9.20206 17.1118C9.3493 17.0529 9.52601 17.1413 9.58493 17.2885C9.64384 17.4358 9.55549 17.6125 9.40821 17.6714L8.08673 18.1043C9.45774 18.6974 10.6307 18.9378 12 18.9378Z" fill="var(--svg-icon-fill_blue, #0094ff)"/><path d="M7.40546 6.53851L7.31728 6.359L7.2875 6.37363L7.26404 6.39709L7.40546 6.53851ZM7.02256 6.39124L6.83686 6.4655L6.83995 6.47324L6.84367 6.48068L7.02256 6.39124ZM7.16983 6.00837L7.24412 6.19407L7.2512 6.19123L7.25805 6.18786L7.16983 6.00837ZM16.2395 5.73219L16.1585 5.91504L16.5695 6.09719L16.4295 5.66993L16.2395 5.73219ZM15.7993 4.38852L15.9898 4.32613L15.985 4.31422L15.7993 4.38852ZM15.976 4.00565L15.9368 3.80954L15.9188 3.81314L15.9017 3.81996L15.976 4.00565ZM16.3295 4.2118L16.5199 4.14929L16.5152 4.13752L16.3295 4.2118ZM16.953 6.11064L16.7629 6.17303L16.7709 6.19733L16.7848 6.21884L16.953 6.11064ZM16.9994 6.2868L16.7994 6.27857L16.7994 6.28773L16.9994 6.2868ZM16.9774 6.39124L16.7985 6.3018L16.7948 6.30927L16.7917 6.31703L16.9774 6.39124ZM16.7347 6.56019L16.7204 6.3607L16.6957 6.36247L16.6723 6.37017L16.7347 6.56019ZM14.8274 7.18645L14.765 6.99643L14.7197 7.01131L14.686 7.04503L14.8274 7.18645ZM14.474 7.00974L14.668 6.96124L14.6647 6.94806L14.6597 6.93545L14.474 7.00974ZM14.6507 6.65631L14.5883 6.46586L14.5764 6.47062L14.6507 6.65631ZM15.9387 6.23441L16.0009 6.42447L16.5007 6.26077L16.0185 6.05101L15.9387 6.23441ZM16.5945 17.7892L16.5203 17.6035L16.5132 17.6063L16.5063 17.6097L16.5945 17.7892ZM16.9774 17.9364L17.1631 17.8622L17.1631 17.8621L16.9774 17.9364ZM16.8302 18.3193L16.7559 18.1336L16.7488 18.1364L16.7419 18.1398L16.8302 18.3193ZM7.82936 18.6259L7.90945 18.4426L7.5003 18.2638L7.6393 18.6881L7.82936 18.6259ZM8.25958 19.9392L8.06913 20.0016L8.07389 20.0135L8.25958 19.9392ZM8.08287 20.322V20.522H8.12139L8.15715 20.5077L8.08287 20.322ZM7.67053 20.1159L7.86456 20.0674L7.8628 20.0604L7.86054 20.0535L7.67053 20.1159ZM7.04703 18.2171L7.23705 18.1547L7.22907 18.1304L7.21524 18.1089L7.04703 18.2171ZM7.02259 17.9365L6.83691 17.8621L6.83689 17.8622L7.02259 17.9365ZM7.14263 17.8032L7.23814 17.9789L7.24868 17.9732L7.25847 17.9662L7.14263 17.8032ZM7.22878 17.7597L7.16639 17.5697L7.16547 17.57L7.22878 17.7597ZM9.20206 17.1118L9.26458 17.3022L9.27636 17.2975L9.20206 17.1118ZM9.58493 17.2885L9.39924 17.3628L9.58493 17.2885ZM9.40821 17.6714L9.47061 17.8618L9.4825 17.8571L9.40821 17.6714ZM8.08673 18.1043L8.02447 17.9142L7.52321 18.0784L8.00733 18.2879L8.08673 18.1043ZM7.28766 6.76795C7.30123 6.76795 7.33888 6.76831 7.37943 6.76155C7.41537 6.75557 7.48781 6.73901 7.54688 6.67993L7.26404 6.39709C7.28014 6.38099 7.29557 6.37348 7.30307 6.37042C7.31059 6.36734 7.31483 6.3668 7.31369 6.36699C7.3129 6.36713 7.31026 6.36747 7.30527 6.3677C7.30023 6.36793 7.29521 6.36795 7.28766 6.36795V6.76795ZM6.84367 6.48068C6.88499 6.56333 6.94275 6.63732 7.02209 6.6902C7.10268 6.74392 7.19377 6.76795 7.28766 6.76795V6.36795C7.26372 6.36795 7.25172 6.36255 7.24394 6.35736C7.23492 6.35135 7.21904 6.33699 7.20144 6.3018L6.84367 6.48068ZM7.09554 5.82268C6.82802 5.9297 6.74442 6.23436 6.83686 6.4655L7.20826 6.31698C7.19736 6.28972 7.19771 6.25983 7.20656 6.23583C7.21494 6.21306 7.22871 6.20023 7.24412 6.19407L7.09554 5.82268ZM12 4.60082C10.2863 4.60082 8.84253 4.96334 7.08161 5.82888L7.25805 6.18786C8.9725 5.34516 10.3562 5.00082 12 5.00082V4.60082ZM16.3205 5.54934C14.8194 4.88415 13.5144 4.60082 12 4.60082V5.00082C13.4548 5.00082 14.7048 5.2709 16.1585 5.91504L16.3205 5.54934ZM15.6093 4.45078L16.0494 5.79445L16.4295 5.66993L15.9894 4.32626L15.6093 4.45078ZM15.9017 3.81996C15.6653 3.91454 15.5085 4.20012 15.6136 4.46282L15.985 4.31422C15.9793 4.29991 15.978 4.27718 15.9911 4.24958C16.0044 4.22147 16.0272 4.20058 16.0503 4.19134L15.9017 3.81996ZM16.5152 4.13752C16.4251 3.91236 16.1904 3.75879 15.9368 3.80954L16.0153 4.20176C16.0562 4.19357 16.116 4.21671 16.1438 4.28609L16.5152 4.13752ZM17.143 6.04825L16.5195 4.14941L16.1394 4.2742L16.7629 6.17303L17.143 6.04825ZM17.1992 6.29502C17.2034 6.19334 17.1776 6.09019 17.1212 6.00244L16.7848 6.21884C16.7942 6.23345 16.8006 6.25442 16.7996 6.27858L17.1992 6.29502ZM17.1563 6.48069C17.1882 6.41685 17.1997 6.34708 17.1994 6.28587L16.7994 6.28773C16.7994 6.2933 16.7989 6.29803 16.7982 6.30134C16.7975 6.30482 16.797 6.30472 16.7985 6.3018L17.1563 6.48069ZM16.749 6.75967C16.9175 6.74758 17.0895 6.64966 17.1631 6.46545L16.7917 6.31703C16.7838 6.33667 16.7615 6.35775 16.7204 6.3607L16.749 6.75967ZM14.8898 7.37647L16.7971 6.75021L16.6723 6.37017L14.765 6.99643L14.8898 7.37647ZM14.739 7.41589C14.7714 7.41589 14.8772 7.41951 14.9688 7.32787L14.686 7.04503C14.6906 7.04036 14.6977 7.03452 14.7073 7.02913C14.7169 7.02371 14.7265 7.02024 14.7347 7.01817C14.7425 7.01623 14.7479 7.01587 14.7487 7.01582C14.749 7.01579 14.7486 7.01583 14.747 7.01586C14.7451 7.01589 14.743 7.01589 14.739 7.01589V7.41589ZM14.2799 7.05823C14.3322 7.26745 14.5319 7.41589 14.739 7.41589V7.01589C14.7105 7.01589 14.6746 6.98762 14.668 6.96124L14.2799 7.05823ZM14.5764 6.47062C14.3565 6.55861 14.1773 6.80667 14.2883 7.08402L14.6597 6.93545C14.6533 6.9195 14.6545 6.90718 14.6618 6.89347C14.6705 6.87691 14.6908 6.85569 14.725 6.842L14.5764 6.47062ZM15.8764 6.04434L14.5884 6.46625L14.7129 6.84637L16.0009 6.42447L15.8764 6.04434ZM12 5.58988C13.3491 5.58988 14.501 5.82715 15.8589 6.41781L16.0185 6.05101C14.6124 5.4394 13.4063 5.18988 12 5.18988V5.58988ZM7.49364 6.71802C9.14891 5.90492 10.4443 5.58988 12 5.58988V5.18988C10.3749 5.18988 9.01955 5.52281 7.31728 6.359L7.49364 6.71802ZM16.5063 17.6097C14.8511 18.4228 13.5557 18.7378 12 18.7378V19.1378C13.6251 19.1378 14.9804 18.8049 16.6827 17.9687L16.5063 17.6097ZM17.1631 17.8621C17.0561 17.5946 16.7514 17.5111 16.5203 17.6035L16.6688 17.9749C16.6961 17.964 16.726 17.9644 16.75 17.9732C16.7728 17.9816 16.7856 17.9954 16.7917 18.0107L17.1631 17.8621ZM16.9044 18.505C17.172 18.398 17.2556 18.0933 17.1631 17.8622L16.7917 18.0107C16.8026 18.0379 16.8023 18.0678 16.7934 18.0918C16.785 18.1146 16.7713 18.1274 16.7559 18.1336L16.9044 18.505ZM12 19.7268C13.7137 19.7268 15.1574 19.3643 16.9184 18.4988L16.7419 18.1398C15.0275 18.9825 13.6438 19.3268 12 19.3268V19.7268ZM7.74928 18.8091C9.2214 19.4524 10.5093 19.7268 12 19.7268V19.3268C10.5676 19.3268 9.3341 19.0652 7.90945 18.4426L7.74928 18.8091ZM8.44964 19.8769L8.01942 18.5636L7.6393 18.6881L8.06952 20.0014L8.44964 19.8769ZM8.15715 20.5077C8.39359 20.4132 8.55038 20.1276 8.44527 19.8649L8.07389 20.0135C8.07962 20.0278 8.08087 20.0505 8.0678 20.0781C8.05448 20.1062 8.03166 20.1271 8.00858 20.1363L8.15715 20.5077ZM7.9356 20.522H8.08287V20.122H7.9356V20.522ZM7.47649 20.1644C7.52878 20.3736 7.7285 20.522 7.9356 20.522V20.122C7.9071 20.122 7.87115 20.0938 7.86456 20.0674L7.47649 20.1644ZM6.85701 18.2794L7.48051 20.1783L7.86054 20.0535L7.23705 18.1547L6.85701 18.2794ZM6.83689 17.8622C6.77563 18.0154 6.79176 18.1899 6.87882 18.3252L7.21524 18.1089C7.19965 18.0846 7.19404 18.0464 7.2083 18.0107L6.83689 17.8622ZM7.04713 17.6275C6.95732 17.6763 6.87971 17.7552 6.83691 17.8621L7.20827 18.0108C7.21324 17.9983 7.22239 17.9875 7.23814 17.9789L7.04713 17.6275ZM7.16547 17.57C7.11374 17.5873 7.06739 17.6113 7.0268 17.6402L7.25847 17.9662C7.26723 17.96 7.27824 17.9541 7.29209 17.9495L7.16547 17.57ZM9.13967 16.9218L7.16639 17.5697L7.29117 17.9498L9.26445 17.3018L9.13967 16.9218ZM9.77061 17.2142C9.67604 16.9779 9.39049 16.821 9.12776 16.9261L9.27636 17.2975C9.29066 17.2918 9.31338 17.2905 9.34099 17.3036C9.36911 17.3169 9.39001 17.3398 9.39924 17.3628L9.77061 17.2142ZM9.4825 17.8571C9.71893 17.7625 9.87573 17.4769 9.77061 17.2142L9.39924 17.3628C9.40497 17.3771 9.40622 17.3999 9.39314 17.4275C9.37983 17.4556 9.35701 17.4765 9.33393 17.4857L9.4825 17.8571ZM8.149 18.2944L9.47048 17.8614L9.34595 17.4813L8.02447 17.9142L8.149 18.2944ZM12 18.7378C10.6591 18.7378 9.51308 18.5034 8.16614 17.9207L8.00733 18.2879C9.4024 18.8913 10.6023 19.1378 12 19.1378V18.7378Z" fill="var(--svg-icon-fill_blue, #0094ff)"/><circle r="1.5" transform="matrix(-1 0 0 1 18 14)" stroke="var(--svg-icon-stroke, #333)"/><path d="M24 14H19.5M16.5 14L14 13.75V12.7208C14 12.2903 14.2754 11.9082 14.6838 11.7721L16.9326 11.0225C16.9775 11.0075 17.0212 10.9894 17.0636 10.9682L20.7889 9.10557C20.9277 9.03614 21.0808 9 21.2361 9H24" stroke="var(--svg-icon-stroke, #333)"/><circle cx="6" cy="14" r="1.5" stroke="var(--svg-icon-stroke, #333)"/><path d="M0 14H4.5M7.5 14L10 13.75V12.7208C10 12.2903 9.72457 11.9082 9.31623 11.7721L7.06742 11.0225C7.02253 11.0075 6.97876 10.9894 6.93644 10.9682L3.21115 9.10557C3.07229 9.03614 2.91918 9 2.76393 9H0" stroke="var(--svg-icon-stroke, #333)"/></svg>