<?xml version="1.0" encoding="utf-8"?><svg xmlns="http://www.w3.org/2000/svg" viewBox="0 0 14.53 20" width="14.53" height="20"><path d="M11.79,17.34h-9" stroke="var(--svg-icon-stroke, #333)" fill="none" stroke-linecap="round" stroke-linejoin="round"/><path d="M13.16,2.55H2.74" stroke="var(--svg-icon-stroke_blue, #0094ff)" fill="none" stroke-linecap="round" stroke-linejoin="round"/><path d="M7.24,4.11V15.69" stroke="var(--svg-icon-stroke, #333)" fill="none" stroke-linecap="round" stroke-linejoin="round"/><path d="M13.16,0h0a1.37,1.37,0,0,1,1.37,1.37V3.94a1.37,1.37,0,0,1-1.37,1.38h0a1.37,1.37,0,0,1-1.37-1.38V1.37A1.37,1.37,0,0,1,13.16,0Z" fill="var(--svg-icon-fill_blue, #0094ff)"/><path d="M1.37,0h0A1.37,1.37,0,0,1,2.74,1.37V3.94A1.37,1.37,0,0,1,1.37,5.32h0A1.37,1.37,0,0,1,0,3.94V1.37A1.37,1.37,0,0,1,1.37,0Z" fill="var(--svg-icon-fill_blue, #0094ff)"/><path d="M13.16,15.18h0a.87.87,0,0,1,.87.87v2.58a.87.87,0,0,1-.87.87h0a.87.87,0,0,1-.87-.87V16.05A.87.87,0,0,1,13.16,15.18Z" stroke="var(--svg-icon-stroke, #333)" fill="none"/><path d="M1.37,15.18h0a.87.87,0,0,1,.87.87v2.58a.87.87,0,0,1-.87.87h0a.87.87,0,0,1-.87-.87V16.05A.87.87,0,0,1,1.37,15.18Z" stroke="var(--svg-icon-stroke, #333)" fill="none"/></svg>