<?xml version="1.0" encoding="utf-8"?><svg width="24" height="24" fill="none" xmlns="http://www.w3.org/2000/svg" viewBox="0 0 24 24"><path d="M5.4287 16.2232L15.1544 17.7429C15.6412 17.8189 16 18.2382 16 18.7309V20C16 20.5523 15.5523 21 15 21H5.85633C5.38278 21 4.97416 20.6679 4.87742 20.2043L4.29542 17.4155C4.15261 16.7312 4.73804 16.1153 5.4287 16.2232Z" stroke="var(--svg-icon-stroke, #333)" stroke-linecap="round" stroke-linejoin="round"/><path d="M15 10.1465L12.1022 16.0527C12.035 16.1898 11.9866 16.3435 12.0227 16.4919C12.1395 16.9715 12.737 16.8262 14.5 17.5C16.1 18.1115 16.3333 16.7706 16.5 16.2611C17 14.2229 18 10.8344 18 10.5286C18 10.1465 17.5 9 16.5 9C15.7 9 15.1667 9.76432 15 10.1465Z" stroke="var(--svg-icon-stroke, #333)" stroke-linecap="round" stroke-linejoin="round"/><rect x="15.5" y="3.5" width="3" height="5" rx="1.5" stroke="var(--svg-icon-stroke_blue, #0094ff)"/></svg>