<?xml version="1.0" encoding="utf-8"?><svg width="24" height="24" fill="none" xmlns="http://www.w3.org/2000/svg" viewBox="0 0 24 24"><path d="M21.4 12.1571C21.5657 11.9362 21.5209 11.6228 21.3 11.4571C21.0791 11.2915 20.7657 11.3362 20.6 11.5571L21.4 12.1571ZM3.4 11.5571C3.23431 11.3362 2.92091 11.2915 2.7 11.4571C2.47909 11.6228 2.43432 11.9362 2.6 12.1571L3.4 11.5571ZM20.6 11.5571C18.1006 14.8897 15.0229 16.5 12 16.5C8.97708 16.5 5.89944 14.8897 3.4 11.5571L2.6 12.1571C5.24341 15.6817 8.59435 17.5 12 17.5C15.4056 17.5 18.7566 15.6817 21.4 12.1571L20.6 11.5571Z" fill="var(--svg-icon-fill, #333)"/></svg>