<?xml version="1.0" encoding="utf-8"?><svg width="24" height="24" fill="none" xmlns="http://www.w3.org/2000/svg" viewBox="0 0 24 24"><path d="M11.0269 20.0269C17.5606 20.0269 19.7672 14.0089 20.0537 11L2.00001 11C2.28658 14.0089 4.49314 20.0269 11.0269 20.0269Z" stroke="var(--svg-icon-stroke, #333)"/><path d="M20.0268 12.9999C20.7425 13.5221 21.9049 15.0324 20.829 16.896C19.753 18.7597 17.8638 18.5082 17.0537 18.1494" stroke="var(--svg-icon-stroke, #333)"/><path d="M2.05374 22H20.0537" stroke="var(--svg-icon-stroke, #333)" stroke-linecap="round"/><path d="M13.0537 9C15.0537 6.5 14.5537 4 13.0537 2" stroke="var(--svg-icon-stroke, #333)" stroke-linecap="round"/><path d="M10.5087 9C11.5087 6.5 11.0087 5 10.0087 3" stroke="var(--svg-icon-stroke, #333)" stroke-linecap="round"/><path d="M7.63365 9C8.13365 8 8.13365 7 7.63365 6" stroke="var(--svg-icon-stroke, #333)" stroke-linecap="round"/><path d="M13.0392 18.0634C13.3426 17.4804 13.6363 16.6822 13.6865 15.7385H14.4808C14.4027 16.7272 13.8447 17.5785 13.0392 18.0634ZM8.51923 15.7385H9.36153C9.40516 16.7476 9.80311 17.5942 10.195 18.1902C9.26465 17.7381 8.60476 16.8204 8.51923 15.7385ZM10.068 12.8717C9.75001 13.4545 9.42598 14.2767 9.36635 15.2615H8.51923C8.60072 14.229 9.2041 13.3434 10.068 12.8717ZM14.4808 15.2615H13.6879C13.6351 14.2572 13.2323 13.4166 12.841 12.8271C13.7525 13.2853 14.3963 14.1936 14.4808 15.2615ZM11.7385 15.7385H13.2089C13.1385 16.9262 12.633 17.8736 12.2923 18.3835C12.1136 18.4325 11.9288 18.4658 11.7385 18.4809V15.7385ZM11.2615 15.2615H9.84394C9.92654 14.0412 10.4661 13.0793 10.8013 12.5925C10.9508 12.5567 11.1042 12.5316 11.2615 12.5192V15.2615ZM12.0386 12.5581C12.4391 13.028 13.1346 14.016 13.2106 15.2615H11.7385V12.5192C11.84 12.5272 11.9402 12.5402 12.0386 12.5581ZM10.9811 18.445C10.5723 17.9562 9.90047 16.9709 9.83881 15.7385H11.2615V18.4809C11.1667 18.4734 11.0733 18.4611 10.9811 18.445ZM11.5 12C9.56698 12 8 13.567 8 15.5C8 17.4331 9.56698 19.0001 11.5 19.0001C13.4331 19.0001 15 17.4331 15 15.5C15 13.567 13.4331 12 11.5 12Z" fill="var(--svg-icon-fill_blue, #0094ff)"/></svg>