<?xml version="1.0" encoding="utf-8"?><svg xmlns="http://www.w3.org/2000/svg" viewBox="0 0 16 16.57" width="16" height="16.57"><path d="M8,.5a7.22,7.22,0,0,1,7.5,7.26A7.22,7.22,0,0,1,8,15a8.14,8.14,0,0,1-2.18-.29h0a1.1,1.1,0,0,0-.76.06H5l0,0-1.12.62L2.79,16a.32.32,0,0,1-.16,0,.71.71,0,0,1-.21,0,.19.19,0,0,1-.09,0A5.31,5.31,0,0,0,2,14.4c-.17-.49-.42-1.09-.63-1.65a13.76,13.76,0,0,1-.86-5A7.22,7.22,0,0,1,8,.5Z" stroke="var(--svg-icon-stroke, #333)" fill="none"/><path d="M8,4.5a3.3,3.3,0,0,1,3.5,3.25A3.3,3.3,0,0,1,8,11a3.83,3.83,0,0,1-1-.13.85.85,0,0,0-.5,0h0l-1,.35a10.47,10.47,0,0,1-.65-1.3A6.53,6.53,0,0,1,4.5,7.75,3.3,3.3,0,0,1,8,4.5Z" stroke="var(--svg-icon-stroke_blue, #0094ff)" fill="none"/></svg>