<?xml version="1.0" encoding="utf-8"?><svg xmlns="http://www.w3.org/2000/svg" viewBox="0 0 20.93 17.55" width="20.93" height="17.55"><path d="M3.46,14.93H.5v1.23l3.56.62,2.37-1.85H14.5L16.87,17l3.56-.84V14.93h-3L16.28,13l1.18-1.94h3V9.84l-3.56-.62L14.5,11.07H6.43L4.06,9,.5,9.85v1.22h3L4.65,13Z" stroke="var(--svg-icon-stroke, #333)" fill="none"/><path d="M12,6.07H10.42V7H9V6.07H8V4.9H9V4.53H8V3.37H9V0H11.7a3.18,3.18,0,0,1,1.38.28A2,2,0,0,1,14,1.1a2.1,2.1,0,0,1,.34,1.19,2,2,0,0,1-.71,1.64,2.93,2.93,0,0,1-2,.6H10.42V4.9H12Zm-1.53-2.7h1.24c.81,0,1.22-.36,1.22-1.07a1.13,1.13,0,0,0-.31-.81,1.19,1.19,0,0,0-.85-.32h-1.3Z" fill="var(--svg-icon-fill_blue, #0094ff)"/></svg>