<?xml version="1.0" encoding="utf-8"?><svg xmlns="http://www.w3.org/2000/svg" viewBox="0 0 20.32 21" width="20.32" height="21"><path d="M6.13,12.6v-.07a1.34,1.34,0,0,1,.29-1.31.7.7,0,0,1,1,0l.39.42a.7.7,0,0,1,0,1l-.86.92-.24.25.15.31a4.27,4.27,0,0,0,2.23,2.12l.32.12.23-.24.94-1a.57.57,0,0,1,.86,0l.4.41a.84.84,0,0,1,0,1.13,1.13,1.13,0,0,1-1.15.31l-.06,0h-.06A5,5,0,0,1,6.13,12.6Z" stroke="var(--svg-icon-stroke_blue, #0094ff)" fill="none"/><path d="M9.58,18.53c6.53,0,8.74-6,9-9H.55C.84,12.51,3,18.53,9.58,18.53Z" stroke="var(--svg-icon-stroke, #333)" fill="none"/><path d="M18.58,11.5a3,3,0,0,1-3,5.15" stroke="var(--svg-icon-stroke, #333)" fill="none"/><path d="M.6,20.5h18" stroke="var(--svg-icon-stroke, #333)" fill="none" stroke-linecap="round"/><path d="M11.6,7.5a5.31,5.31,0,0,0,0-7" stroke="var(--svg-icon-stroke, #333)" fill="none" stroke-linecap="round"/><path d="M9.06,7.5c1-2.5.5-4-.5-6" stroke="var(--svg-icon-stroke, #333)" fill="none" stroke-linecap="round"/><path d="M6.18,7.5a3.19,3.19,0,0,0,0-3" stroke="var(--svg-icon-stroke, #333)" fill="none" stroke-linecap="round"/></svg>