<?xml version="1.0" encoding="utf-8"?><svg xmlns="http://www.w3.org/2000/svg" viewBox="0 0 20.96 17.87" width="20.96" height="17.87"><circle cx="4.74" cy="15.75" r="1.62" stroke="var(--svg-icon-stroke, #333)" fill="none"/><circle cx="14.26" cy="15.75" r="1.62" stroke="var(--svg-icon-stroke, #333)" fill="none"/><path d="M6.32,15.75h6.36m3.17,0,2.65-.26V14.36a1,1,0,0,0-.68-.95l-2.43-.81-.13,0-4-2a1,1,0,0,0-.45-.11H5.09a1,1,0,0,0-.63.22L2.23,12.47a.92.92,0,0,1-.31.16l-.74.25a1,1,0,0,0-.68.95v1.92H3.15" stroke="var(--svg-icon-stroke, #333)" fill="none"/><path d="M16.52.5v8" stroke="var(--svg-icon-stroke_blue, #0094ff)" fill="none" stroke-linecap="round" stroke-linejoin="round"/><path d="M20.46,4.44h-8" stroke="var(--svg-icon-stroke_blue, #0094ff)" fill="none" stroke-linecap="round" stroke-linejoin="round"/></svg>