<?xml version="1.0" encoding="utf-8"?><svg xmlns="http://www.w3.org/2000/svg" viewBox="0 0 24 24" width="24" height="24"><path stroke="var(--svg-icon-stroke, #333)" fill="none" d="M6,4l0.6,1.1l1.3,0.3L7,6.3l0.1,1.3L6,7.1L4.8,7.6L5,6.3l-0.9-1l1.3-0.3L6,4z"/><path stroke="var(--svg-icon-stroke, #333)" fill="none" d="M3,10l0.6,1.1l1.3,0.3l-0.9,1l0.1,1.3L3,13.1l-1.2,0.5L2,12.3l-0.9-1l1.3-0.3L3,10z"/><path stroke="var(--svg-icon-stroke_blue, #0094ff)" fill="none" d="M21,10l0.6,1.1l1.3,0.3l-0.9,1l0.1,1.3L21,13.1l-1.2,0.5l0.1-1.3l-0.9-1l1.3-0.3L21,10z"/><path stroke="var(--svg-icon-stroke, #333)" fill="none" d="M6,16l0.6,1.1l1.3,0.3l-0.9,1l0.1,1.3L6,19.1l-1.2,0.5L5,18.3l-0.9-1l1.3-0.3L6,16z"/><path stroke="var(--svg-icon-stroke_blue, #0094ff)" fill="none" d="M18,4l0.6,1.1l1.3,0.3l-0.9,1l0.1,1.3L18,7.1l-1.2,0.5L17,6.3l-0.9-1l1.3-0.3L18,4z"/><path stroke="var(--svg-icon-stroke_blue, #0094ff)" fill="none" d="M18,16l0.6,1.1l1.3,0.3l-0.9,1l0.1,1.3L18,19.1l-1.2,0.5l0.1-1.3l-0.9-1l1.3-0.3L18,16z"/><path stroke="var(--svg-icon-stroke_blue, #0094ff)" fill="none" d="M12,2l0.6,1.1l1.3,0.3l-0.9,1l0.1,1.3L12,5.1l-1.2,0.5L11,4.3l-0.9-1l1.3-0.3L12,2z"/><path stroke="var(--svg-icon-stroke, #333)" fill="none" d="M12,19l0.6,1.1l1.3,0.3l-0.9,1l0.1,1.3L12,22.1l-1.2,0.5l0.1-1.3l-0.9-1l1.3-0.3L12,19z"/></svg>