<?xml version="1.0" encoding="utf-8"?><svg width="24" height="24" fill="none" xmlns="http://www.w3.org/2000/svg" viewBox="0 0 24 24"><path stroke="var(--svg-icon-stroke, #333)" d="M2.5 2.5H21.5V21.5H2.5z"/><path d="M13.1749 14.5683H11.3173L11.0542 6H13.4381L13.1749 14.5683ZM12.2461 15.91C12.6228 15.91 12.9247 16.0317 13.1517 16.2751C13.3839 16.5186 13.5 16.8299 13.5 17.2092C13.5 17.5829 13.3839 17.8914 13.1517 18.1349C12.9247 18.3783 12.6228 18.5 12.2461 18.5C11.8746 18.5 11.5728 18.3783 11.3406 18.1349C11.1135 17.8914 11 17.5829 11 17.2092C11 16.8356 11.1135 16.5271 11.3406 16.2836C11.5728 16.0345 11.8746 15.91 12.2461 15.91Z" fill="var(--svg-icon-fill_blue, #0094ff)"/></svg>