<?xml version="1.0" encoding="utf-8"?><svg width="24" height="24" fill="none" xmlns="http://www.w3.org/2000/svg" viewBox="0 0 24 24"><circle cx="7.235" cy="16.294" r="1.618" stroke="var(--svg-icon-stroke, #333)"/><circle cx="16.765" cy="16.294" r="1.618" stroke="var(--svg-icon-stroke, #333)"/><path d="M8.82353 16.2941H15.1765M18.3529 16.2941L21 16.0294V14.8972C21 14.4668 20.7246 14.0847 20.3162 13.9485L17.891 13.1401C17.8461 13.1252 17.8023 13.107 17.76 13.0859L13.7994 11.1056C13.6605 11.0361 13.5074 11 13.3522 11H9.35294H7.58608C7.359 11 7.13869 11.0773 6.96138 11.2191L4.7275 13.0062C4.63538 13.0799 4.53095 13.1367 4.41904 13.174L3.68377 13.4191C3.27543 13.5552 3 13.9374 3 14.3678V16.2941H5.64706" stroke="var(--svg-icon-stroke, #333)"/><path d="M20.759 8.92951C21.1058 8.26332 21.4415 7.3511 21.4988 6.27257H22.4066C22.3174 7.40247 21.6796 8.37543 20.759 8.92951ZM15.5934 6.27257H16.556C16.6059 7.42583 17.0607 8.39329 17.5086 9.07451C16.4453 8.55774 15.6912 7.50898 15.5934 6.27257ZM17.3634 2.99624C17 3.66224 16.6297 4.60197 16.5615 5.72746H15.5934C15.6865 4.54737 16.3761 3.53533 17.3634 2.99624ZM22.4066 5.72746H21.5004C21.44 4.57962 20.9798 3.61893 20.5326 2.94526C21.5742 3.46893 22.3101 4.5069 22.4066 5.72746ZM19.2725 6.27257H20.953C20.8726 7.62987 20.2948 8.7126 19.9055 9.29536C19.7012 9.35136 19.4901 9.38947 19.2725 9.40669V6.27257ZM18.7274 5.72746H17.1074C17.2018 4.33277 17.8184 3.23346 18.2015 2.67713C18.3724 2.6362 18.5477 2.60755 18.7274 2.59333V5.72746ZM19.6156 2.63784C20.0732 3.17489 20.8681 4.30397 20.9549 5.72746H19.2725V2.59333C19.3886 2.60251 19.503 2.61733 19.6156 2.63784ZM18.407 9.36562C17.9398 8.80707 17.172 7.68103 17.1015 6.27257H18.7274V9.40669C18.619 9.39809 18.5124 9.38409 18.407 9.36562ZM19 2C16.7908 2 15 3.79086 15 6.00001C15 8.20916 16.7908 10 19 10C21.2092 10 23 8.20916 23 6.00001C23 3.79086 21.2092 2 19 2Z" fill="var(--svg-icon-fill_blue, #0094ff)"/></svg>