<?xml version="1.0" encoding="utf-8"?><svg width="24" height="24" fill="none" xmlns="http://www.w3.org/2000/svg" viewBox="0 0 24 24"><path d="M6 10V21H18V10" stroke="var(--svg-icon-stroke_blue, #0094ff)"/><path d="M9 21V14.5" stroke="var(--svg-icon-stroke_blue, #0094ff)"/><path d="M15 21L15 16" stroke="var(--svg-icon-stroke_blue, #0094ff)"/><path d="M12 21L12 18" stroke="var(--svg-icon-stroke_blue, #0094ff)"/><path d="M5 9L5 10L19 10L19 9C19 8.44772 18.5523 8 18 8L13.3333 8L13.3333 3C13.3333 2.44772 12.8856 2 12.3333 2L11.6667 2C11.1144 2 10.6667 2.44772 10.6667 3L10.6667 8L6 8C5.44772 8 5 8.44772 5 9Z" stroke="var(--svg-icon-stroke, #333)" stroke-linecap="round" stroke-linejoin="round"/></svg>