<?xml version="1.0" encoding="utf-8"?><svg width="24" height="24" fill="none" xmlns="http://www.w3.org/2000/svg" viewBox="0 0 24 24"><path d="M17 2L5.5 5.5H17V2Z" stroke="var(--svg-icon-stroke, #333)"/><path d="M8 14H16" stroke="var(--svg-icon-stroke_blue, #0094ff)"/><path d="M8 17H16" stroke="var(--svg-icon-stroke_blue, #0094ff)"/><path d="M8 20H16" stroke="var(--svg-icon-stroke_blue, #0094ff)"/><path d="M5.5 5.5H18.5V22.5H5.5V5.5Z" stroke="var(--svg-icon-stroke, #333)"/><circle cx="9.714" cy="10.143" r=".5" stroke="var(--svg-icon-stroke_blue, #0094ff)" stroke-width=".714"/><circle cx="13.571" cy="10.143" r=".5" stroke="var(--svg-icon-stroke_blue, #0094ff)" stroke-width=".714"/><path d="M10.3571 10.1428H12.9285M14.2142 10.1428L15.2857 10.0357V10.0065C15.2857 9.57604 15.0102 9.1939 14.6019 9.05778L14.0674 8.87961C14.0225 8.86465 13.9787 8.84652 13.9364 8.82536L12.4968 8.10557C12.358 8.03615 12.2049 8 12.0496 8H10.5714H10.0651C9.83799 8 9.61767 8.07728 9.44036 8.21913L8.74782 8.77317C8.67839 8.82871 8.59968 8.87153 8.51533 8.89964V8.89964C8.20758 9.00223 8 9.29023 8 9.61463V10.1428H9.07142" stroke="var(--svg-icon-stroke_blue, #0094ff)"/></svg>