<?xml version="1.0" encoding="utf-8"?><svg width="24" height="24" fill="none" xmlns="http://www.w3.org/2000/svg" viewBox="0 0 24 24"><path d="M15.518 17.8591C16.2115 16.5267 16.8829 14.7022 16.9976 12.5452H18.8132C18.6347 14.805 17.3592 16.7509 15.518 17.8591ZM5.1868 12.5452H7.11205C7.21178 14.8517 8.12138 16.7866 9.01711 18.1491C6.89062 17.1155 5.38231 15.018 5.1868 12.5452ZM8.7268 5.99249C8 7.32449 7.25938 9.20396 7.12307 11.4549H5.1868C5.37307 9.09476 6.75222 7.07067 8.7268 5.99249ZM18.8132 11.4549H17.0008C16.8801 9.15925 15.9596 7.23787 15.0652 5.89053C17.1484 6.93787 18.6201 9.01383 18.8132 11.4549ZM12.5451 12.5452H15.906C15.7452 15.2598 14.5896 17.4253 13.811 18.5908C13.4025 18.7028 12.9802 18.779 12.5451 18.8134V12.5452ZM11.4549 11.4549H8.21471C8.40351 8.66556 9.63676 6.46693 10.403 5.35427C10.7448 5.2724 11.0954 5.21511 11.4549 5.18667V11.4549ZM13.2311 5.27569C14.1464 6.34978 15.7363 8.60796 15.9098 11.4549H12.5451V5.18667C12.7772 5.20502 13.0061 5.23467 13.2311 5.27569ZM10.8139 18.7313C9.87951 17.6142 8.34391 15.3621 8.20298 12.5452H11.4549V18.8134C11.238 18.7962 11.0247 18.7682 10.8139 18.7313ZM12 4C7.58164 4 4 7.58174 4 12C4 16.4184 7.58164 20.0001 12 20.0001C16.4184 20.0001 20 16.4184 20 12C20 7.58174 16.4184 4 12 4Z" fill="var(--svg-icon-fill_blue, #0094ff)"/></svg>