<?xml version="1.0" encoding="utf-8"?><svg xmlns="http://www.w3.org/2000/svg" viewBox="0 0 10.14 14" width="10.14" height="14"><path d="M2.5,11.44a5,5,0,0,0,2.86.79,5,5,0,0,0,2.29-.49,4.17,4.17,0,0,0,1.6-1.32A4.25,4.25,0,0,0,10,8.53H8.19a2.67,2.67,0,0,1-.57,1.11,2.55,2.55,0,0,1-1,.71,3.37,3.37,0,0,1-1.29.25A3.15,3.15,0,0,1,3.48,10,3.61,3.61,0,0,1,2.25,8.46a6.07,6.07,0,0,1-.43-2.39,5.65,5.65,0,0,1,.44-2.34A3.54,3.54,0,0,1,3.5,2.19a3.17,3.17,0,0,1,1.86-.56A2.78,2.78,0,0,1,8.19,3.7H10a4,4,0,0,0-.79-1.94A4.37,4.37,0,0,0,7.58.46,5.29,5.29,0,0,0,5.33,0a4.94,4.94,0,0,0-2.8.79A5.2,5.2,0,0,0,.66,3,7.29,7.29,0,0,0,0,6.13,7.36,7.36,0,0,0,.65,9.28,5,5,0,0,0,2.5,11.44Z" fill="var(--svg-valute-fill, var(--svg-icon-fill, #333))"/><path d="M10.14,12.87H0V14H10.14Z" fill="var(--svg-valute-fill, var(--svg-icon-fill, #333))"/></svg>