<?xml version="1.0" encoding="utf-8"?><svg width="24" height="24" fill="none" xmlns="http://www.w3.org/2000/svg" viewBox="0 0 24 24"><path d="M6 22.5001L1 17.5001L1.58579 16.9143C2.36683 16.1333 3.63316 16.1333 4.41421 16.9143L6.58579 19.0859C7.36684 19.867 7.36684 21.1333 6.58579 21.9143L6 22.5001Z" stroke="var(--svg-icon-stroke, #333)"/><path d="M7 19.5001L8.41421 18.0859C8.78929 17.7108 9.29799 17.5001 9.82843 17.5001H15.3752C15.7821 17.5001 16.1792 17.3761 16.5137 17.1445L21.3998 13.7618C22.0006 13.3459 22.1355 12.5142 21.6971 11.9296V11.9296C21.301 11.4015 20.5698 11.2582 20.0037 11.5979L16 14.0001M4 16.5001L6.33313 13.0004C6.7435 12.3849 7.46012 12.0461 8.19624 12.1197L12 12.5001H14.75C15.4404 12.5001 16 13.0598 16 13.7501V13.7501C16 14.4405 15.4404 15.0001 14.75 15.0001H12" stroke="var(--svg-icon-stroke, #333)"/><circle cx="12" cy="4" r="2" stroke="var(--svg-icon-stroke_blue, #0094ff)"/><path d="M8.41165 8.94186C8.75375 7.23137 10.2556 6.00012 12 6.00012V6.00012C13.7444 6.00012 15.2462 7.23137 15.5883 8.94186L16 11.0001H8L8.41165 8.94186Z" stroke="var(--svg-icon-stroke_blue, #0094ff)"/></svg>