<?xml version="1.0" encoding="utf-8"?><svg xmlns="http://www.w3.org/2000/svg" viewBox="0 0 16 16" width="16" height="16"><path d="M11.52,13.86A13.22,13.22,0,0,0,13,8.55h1.81A6.83,6.83,0,0,1,11.52,13.86ZM1.19,8.55H3.11A11.13,11.13,0,0,0,5,14.15,6.81,6.81,0,0,1,1.19,8.55ZM4.73,2A13.12,13.12,0,0,0,3.12,7.45H1.19A6.81,6.81,0,0,1,4.73,2ZM14.81,7.45H13a11.27,11.27,0,0,0-1.93-5.56A6.82,6.82,0,0,1,14.81,7.45ZM8.55,8.55h3.36a12.39,12.39,0,0,1-2.1,6,6.65,6.65,0,0,1-1.26.22Zm-1.1-1.1H4.21A12.66,12.66,0,0,1,6.4,1.35a7.39,7.39,0,0,1,1-.16ZM9.23,1.28a10.86,10.86,0,0,1,2.68,6.17H8.55V1.19A5.06,5.06,0,0,1,9.23,1.28ZM6.81,14.73A10.89,10.89,0,0,1,4.2,8.55H7.45v6.26A4.66,4.66,0,0,1,6.81,14.73ZM8,0a8,8,0,1,0,8,8A8,8,0,0,0,8,0Z" fill="var(--svg-icon-fill_blue, #0094ff)"/></svg>