<?xml version="1.0" encoding="utf-8"?><svg xmlns="http://www.w3.org/2000/svg" viewBox="0 0 22.16 19.71" width="22.16" height="19.71"><path d="M.94,13.06a2.49,2.49,0,0,1,3.53,0l2.18,2.17a2.52,2.52,0,0,1,0,3.54l-.94.94L0,14Zm2.83.71a1.49,1.49,0,0,0-2.12,0L1.41,14l4.3,4.29.23-.23a1.49,1.49,0,0,0,0-2.12Z" fill="var(--svg-icon-fill, #333)" fill-rule="evenodd"/><path d="M19.45,7.67a1.79,1.79,0,0,1,1.94,3l-4.88,3.39a2.59,2.59,0,0,1-1.43.44H9.54a1.54,1.54,0,0,0-1.07.44L7.06,16.35l-.71-.7,1.42-1.42a2.49,2.49,0,0,1,1.77-.73h5.54a1.46,1.46,0,0,0,.86-.27l4.88-3.38A.79.79,0,0,0,20,8.53L16.1,10.85A1.75,1.75,0,0,1,14.46,12H11.71V11h2.75a.75.75,0,0,0,0-1.5H11.68L7.85,9.12a1.48,1.48,0,0,0-1.39.66l-2.34,3.5-.83-.56,2.33-3.5A2.51,2.51,0,0,1,8,8.12l3.78.38h2.73a1.75,1.75,0,0,1,1.65,1.17Z" fill="var(--svg-icon-fill, #333)" fill-rule="evenodd"/><path d="M6.12.33A1.54,1.54,0,0,1,7.06,0h5.41a1.44,1.44,0,0,1,.67.16L16.87,2l.06,0,2.25.75a1.5,1.5,0,0,1,1,1.42V5.69L17.77,6l-.12-1,1.56-.19V4.22a.5.5,0,0,0-.34-.47L16.62,3l-.2-.08L12.69,1.05A.51.51,0,0,0,12.47,1H7.06a.47.47,0,0,0-.31.11L4.66,2.78A1.72,1.72,0,0,1,4.2,3l-.65.22a.48.48,0,0,0-.34.47V5h2V6h-3V3.72a1.5,1.5,0,0,1,1-1.42l.65-.22A.36.36,0,0,0,4,2ZM13.71,6h-5V5h5Z" fill="var(--svg-icon-fill_blue, #0094ff)" fill-rule="evenodd"/><path d="M6.71,6.5a1,1,0,1,0-1-1A1,1,0,0,0,6.71,6.5Zm0,1a2,2,0,1,0-2-2A2,2,0,0,0,6.71,7.5Z" fill="var(--svg-icon-fill, #333)" fill-rule="evenodd"/><path d="M15.71,6.5a1,1,0,1,0-1-1A1,1,0,0,0,15.71,6.5Zm0,1a2,2,0,1,0-2-2A2,2,0,0,0,15.71,7.5Z" fill="var(--svg-icon-fill, #333)" fill-rule="evenodd"/></svg>