<?xml version="1.0" encoding="utf-8"?><svg width="24" height="24" fill="none" xmlns="http://www.w3.org/2000/svg" viewBox="0 0 24 24"><path fill-rule="evenodd" clip-rule="evenodd" d="M23 12.5C23 18.299 18.299 23 12.5 23C6.70101 23 2 18.299 2 12.5C2 6.701 6.70101 2 12.5 2C18.299 2 23 6.701 23 12.5ZM12.8672 9.74605C11.8443 10.1744 9.80724 11.0575 6.74729 12.3864C6.2577 12.5874 5.99542 12.7798 5.96919 12.9721C5.93048 13.2973 6.33749 13.4237 6.88658 13.5941C6.95748 13.6161 7.03075 13.6388 7.10574 13.6628C7.64779 13.8377 8.36469 14.0387 8.74063 14.0475C9.08159 14.0562 9.45753 13.9163 9.87718 13.6278C12.736 11.6957 14.2048 10.7165 14.301 10.699C14.3709 10.6815 14.4584 10.664 14.5196 10.7165C14.5808 10.769 14.5808 10.8738 14.572 10.9001C14.5303 11.0739 12.8243 12.6577 12.0483 13.378C11.8485 13.5635 11.7104 13.6917 11.6782 13.724C11.5962 13.8084 11.5127 13.8883 11.4324 13.9651C10.9306 14.4455 10.554 14.806 11.4509 15.3938C11.8587 15.6631 12.1876 15.8875 12.5115 16.1085C12.9029 16.3755 13.2869 16.6375 13.7939 16.9675C13.9134 17.046 14.0278 17.1274 14.1394 17.2068C14.5749 17.5166 14.9679 17.7961 15.455 17.7544C15.7348 17.7282 16.0233 17.4659 16.1719 16.679C16.5216 14.8256 17.2036 10.7952 17.3609 9.13406C17.3784 8.99417 17.3609 8.8106 17.3435 8.72318C17.326 8.63575 17.2997 8.52207 17.1948 8.43464C17.0637 8.32975 16.8713 8.31225 16.7839 8.31225C16.3905 8.321 15.7785 8.53082 12.8672 9.74605Z" stroke="var(--svg-icon-stroke_blue, #0094ff)"/></svg>