<?xml version="1.0" encoding="utf-8"?><svg width="24" height="24" fill="none" xmlns="http://www.w3.org/2000/svg" viewBox="0 0 24 24"><path d="M6 22.5L1 17.5L1.58579 16.9142C2.36683 16.1332 3.63316 16.1332 4.41421 16.9142L6.58579 19.0858C7.36684 19.8668 7.36684 21.1332 6.58579 21.9142L6 22.5Z" stroke="var(--svg-icon-stroke, #333)"/><path d="M7 19.5L8.41421 18.0858C8.78929 17.7107 9.29799 17.5 9.82843 17.5H15.3752C15.7821 17.5 16.1792 17.3759 16.5137 17.1444L21.3998 13.7617C22.0006 13.3458 22.1355 12.514 21.6971 11.9295V11.9295C21.301 11.4014 20.5698 11.2581 20.0037 11.5978L16 14M4 16.5L6.33313 13.0003C6.7435 12.3848 7.46012 12.046 8.19624 12.1196L12 12.5H14.75C15.4404 12.5 16 13.0596 16 13.75V13.75C16 14.4404 15.4404 15 14.75 15H12" stroke="var(--svg-icon-stroke, #333)"/><path d="M10 6.1926V3C10 3 12.6667 3 14 1C15.3333 3 18 3 18 3V5.47902C18 7.26223 17.1088 8.92747 15.6251 9.91662L14 11L11.7812 9.5208C10.6684 8.77894 10 7.53001 10 6.1926Z" stroke="var(--svg-icon-stroke_blue, #0094ff)"/></svg>