<?xml version="1.0" encoding="utf-8"?><svg xmlns="http://www.w3.org/2000/svg" viewBox="0 0 9.23 16" width="9.23" height="16"><path d="M4.1,16V0h1V16ZM7.55,4.8a2,2,0,0,0-.91-1.48,3.52,3.52,0,0,0-2-.52,3.78,3.78,0,0,0-1.49.27,2.48,2.48,0,0,0-1,.76,1.85,1.85,0,0,0-.35,1.1,1.59,1.59,0,0,0,.24.88,2.16,2.16,0,0,0,.64.6,5.08,5.08,0,0,0,.81.4q.44.15.78.24l1.31.35q.5.13,1.11.36a5.85,5.85,0,0,1,1.18.63,3.29,3.29,0,0,1,.94,1,3,3,0,0,1,.37,1.52,3.39,3.39,0,0,1-.55,1.87,3.7,3.7,0,0,1-1.57,1.33,5.79,5.79,0,0,1-2.51.5,5.78,5.78,0,0,1-2.38-.45A3.78,3.78,0,0,1,.64,12.94,3.51,3.51,0,0,1,0,11.1H1.6a2,2,0,0,0,.49,1.2,2.63,2.63,0,0,0,1.09.7,4.36,4.36,0,0,0,1.42.23,4.21,4.21,0,0,0,1.59-.29,2.8,2.8,0,0,0,1.12-.81,1.93,1.93,0,0,0,.42-1.23,1.51,1.51,0,0,0-.36-1,2.76,2.76,0,0,0-.94-.65,12.14,12.14,0,0,0-1.25-.44L3.6,8.32A5.65,5.65,0,0,1,1.23,7.09,2.68,2.68,0,0,1,.35,5,3.06,3.06,0,0,1,.93,3.13,3.79,3.79,0,0,1,2.51,1.88a5.15,5.15,0,0,1,2.22-.45,5.18,5.18,0,0,1,2.2.44,3.81,3.81,0,0,1,1.52,1.2,3,3,0,0,1,.6,1.73Z" fill="var(--svg-valute-fill, var(--svg-icon-fill, #333))"/></svg>