<?xml version="1.0" encoding="utf-8"?><svg width="24" height="24" fill="none" xmlns="http://www.w3.org/2000/svg" viewBox="0 0 24 24"><path fill-rule="evenodd" clip-rule="evenodd" d="M4 6V19H8.69727C9.72135 19 10.5529 18.8477 11.1919 18.543C11.8309 18.2383 12.2985 17.8257 12.5947 17.3052C12.891 16.7847 13.0391 16.1986 13.0391 15.5469C13.0391 14.8613 12.9036 14.2816 12.6328 13.8076C12.362 13.3337 12.0256 12.9697 11.6235 12.7158C11.2215 12.4619 10.8216 12.3223 10.4238 12.2969V12.1699C10.7962 12.0684 11.1411 11.9118 11.4585 11.7002C11.7801 11.4886 12.0383 11.2008 12.2329 10.8369C12.4318 10.473 12.5313 10.0117 12.5313 9.45312C12.5313 8.81836 12.3874 8.24072 12.0996 7.72022C11.8119 7.19548 11.3739 6.77865 10.7856 6.46973C10.1974 6.15658 9.45052 6 8.54492 6H4ZM8.69727 17.6035H5.57422V13.084H8.77344C9.3405 13.084 9.83138 13.1982 10.2461 13.4268C10.6608 13.651 10.9803 13.9515 11.2046 14.3281C11.4289 14.7005 11.541 15.1068 11.541 15.5469C11.541 16.1182 11.3231 16.6048 10.8872 17.0068C10.4556 17.4046 9.72559 17.6035 8.69727 17.6035ZM8.49414 11.7129H5.57422V7.39648H8.54492C9.4082 7.39648 10.0387 7.59749 10.4365 7.99951C10.8343 8.3973 11.0332 8.88184 11.0332 9.45312C11.0332 9.91016 10.9189 10.3079 10.6904 10.6465C10.4661 10.985 10.1615 11.2474 9.77637 11.4336C9.39551 11.6198 8.9681 11.7129 8.49414 11.7129Z" fill="var(--svg-valute-fill, var(--svg-icon-fill, #333))"/><path d="M14.8499 9.24902V18.999H16.348V12.8291C16.348 12.389 16.4538 11.9976 16.6653 11.6548C16.8812 11.3078 17.1732 11.0369 17.5413 10.8423C17.9137 10.6434 18.3369 10.5439 18.8109 10.5439C19.0097 10.5439 19.1981 10.5588 19.3758 10.5884C19.5578 10.6138 19.6741 10.6328 19.7249 10.6455V9.12207C19.6403 9.11361 19.5154 9.10726 19.3504 9.10303C19.1854 9.0988 19.0478 9.09668 18.9378 9.09668C18.3538 9.09668 17.8291 9.24691 17.3636 9.54736C16.8981 9.84782 16.5765 10.2393 16.3987 10.7217H16.2972V9.24902H14.8499Z" fill="var(--svg-valute-fill, var(--svg-icon-fill, #333))"/></svg>