<?xml version="1.0" encoding="utf-8"?><svg width="24" height="24" fill="none" xmlns="http://www.w3.org/2000/svg" viewBox="0 0 24 24"><path d="M3 7C3 6.44772 3.44772 6 4 6H20C20.5523 6 21 6.44772 21 7V7C21 7.55228 20.5523 8 20 8H4C3.44772 8 3 7.55228 3 7V7Z" stroke="var(--svg-icon-stroke, #333)"/><path d="M3 17C3 16.4477 3.44772 16 4 16H20C20.5523 16 21 16.4477 21 17V17C21 17.5523 20.5523 18 20 18H4C3.44772 18 3 17.5523 3 17V17Z" stroke="var(--svg-icon-stroke_blue, #0094ff)"/><path d="M3 12C3 11.4477 3.44772 11 4 11H14C14.5523 11 15 11.4477 15 12V12C15 12.5523 14.5523 13 14 13H4C3.44772 13 3 12.5523 3 12V12Z" stroke="var(--svg-icon-stroke, #333)"/></svg>