<?xml version="1.0" encoding="utf-8"?><svg width="24" height="24" fill="none" xmlns="http://www.w3.org/2000/svg" viewBox="0 0 24 24"><path d="M12 20L12 8" stroke="var(--svg-icon-stroke_blue, #0094ff)"/><path d="M9 11L12 8L15 11" stroke="var(--svg-icon-stroke_blue, #0094ff)"/><path d="M4.12799 9.60937L4.52834 9.50676L4.5029 9.09425C4.50098 9.06314 4.5 9.03172 4.5 9C4.5 8.17157 5.17157 7.5 6 7.5C6.24159 7.5 6.46848 7.55674 6.66942 7.65717L7.08721 7.86599L7.32396 7.46337C8.36732 5.68908 10.2951 4.5 12.5 4.5C15.6686 4.5 18.2639 6.95646 18.4847 10.0685L18.5134 10.4729L18.9151 10.5284C20.3753 10.7302 21.5 11.9842 21.5 13.5C21.5 15.1569 20.1569 16.5 18.5 16.5H18.499H18.498H18.497H18.496H18.495H18.494H18.4929H18.4919H18.4909H18.4899H18.4888H18.4878H18.4868H18.4857H18.4847H18.4836H18.4826H18.4815H18.4805H18.4794H18.4783H18.4773H18.4762H18.4751H18.474H18.473H18.4719H18.4708H18.4697H18.4686H18.4675H18.4664H18.4653H18.4642H18.4631H18.462H18.4609H18.4598H18.4586H18.4575H18.4564H18.4553H18.4541H18.453H18.4519H18.4507H18.4496H18.4484H18.4473H18.4461H18.445H18.4438H18.4427H18.4415H18.4403H18.4392H18.438H18.4368H18.4357H18.4345H18.4333H18.4321H18.431H18.4298H18.4286H18.4274H18.4262H18.425H18.4238H18.4226H18.4214H18.4202H18.419H18.4178H18.4166H18.4154H18.4142H18.413H18.4118H18.4105H18.4093H18.4081H18.4069H18.4057H18.4044H18.4032H18.402H18.4007H18.3995H18.3983H18.397H18.3958H18.3946H18.3933H18.3921H18.3908H18.3896H18.3883H18.3871H18.3858H18.3846H18.3833H18.3821H18.3808H18.3795H18.3783H18.377H18.3758H18.3745H18.3732H18.372H18.3707H18.3694H18.3682H18.3669H18.3656H18.3643H18.3631H18.3618H18.3605H18.3592H18.358H18.3567H18.3554H18.3541H18.3528H18.3515H18.3503H18.349H18.3477H18.3464H18.3451H18.3438H18.3425H18.3412H18.34H18.3387H18.3374H18.3361H18.3348H18.3335H18.3322H18.3309H18.3296H18.3283H18.327H18.3257H18.3244H18.3231H18.3218H18.3205H18.3192H18.3179H18.3166H18.3153H18.314H18.3127H18.3114H18.3101H18.3088H18.3075H18.3062H18.3049H18.3036H18.3023H18.301H18.2997H18.2984H18.2971H18.2958H18.2945H18.2932H18.2919H18.2906H18.2893H18.288H18.2867H18.2854H18.2841H18.2828H18.2815H18.2802H18.2789H18.2776H18.2763H18.275H18.2737H18.2724H18.2711H18.2698H18.2685H18.2672H18.2659H18.2646H18.2633H18.262H18.2607H18.2594H18.2581H18.2568H18.2556H18.2543H18.253H18.2517H18.2504H18.2491H18.2478H18.2465H18.2453H18.244H18.2427H18.2414H18.2401H18.2389H18.2376H18.2363H18.235H18.2338H18.2325H18.2312H18.2299H18.2287H18.2274H18.2261H18.2249H18.2236H18.2223H18.2211H18.2198H18.2186H18.2173H18.216H18.2148H18.2135H18.2123H18.211H18.2098H18.2085H18.2073H18.206H18.2048H18.2035H18.2023H18.2011H18.1998H18.1986H18.1974H18.1961H18.1949H18.1937H18.1924H18.1912H18.19H18.1888H18.1876H18.1863H18.1851H18.1839H18.1827H18.1815H18.1803H18.1791H18.1779H18.1767H18.1755H18.1743H18.1731H18.1719H18.1707H18.1695H18.1683H18.1671H18.166H18.1648H18.1636H18.1624H18.1613H18.1601H18.1589H18.1578H18.1566H18.1554H18.1543H18.1531H18.152H18.1508H18.1497H18.1485H18.1474H18.1463H18.1451H18.144H18.1429H18.1417H18.1406H18.1395H18.1384H18.1372H18.1361H18.135H18.1339H18.1328H18.1317H18.1306H18.1295H18.1284H18.1273H18.1262H18.1252H18.1241H18.123H18.1219H18.1209H18.1198H18.1187H18.1177H18.1166H18.1155H18.1145H18.1134H18.1124H18.1114H18.1103H18.1093H18.1082H18.1072H18.1062H18.1052H18.1042H18.1031H18.1021H18.1011H18.1001H18.0991H18.0981H18.0971H18.0961H18.0952H18.0942H18.0932H18.0922H18.0913H18.0903H18.0893H18.0884H18.0874H18.0865H18.0855H18.0846H18.0836H18.0827H18.0818H18.0808H18.0799H18.079H18.0781H18.0772H18.0763H18.0754H18.0745H18.0736H18.0727H18.0718H18.0709H18.0701H18.0692H18.0683H18.0674H18.0666H18.0657H18.0649H18.064H18.0632H18.0624H18.0615H18.0607H18.0599H18.0591H18.0583H18.0574H18.0566H18.0558H18.055H18.0543H18.0535H18.0527H18.0519H18.0511H18.0504H18.0496H18.0489H18.0481H18.0474H18.0466H18.0459H18.0451H18.0444H18.0437H18.043H18.0423H18.0416H18.0409H18.0402H18.0395H18.0388H18.0381H18.0374H18.0368H18.0361H18.0354H18.0348H18.0341H18.0335H18.0329H18.0322H18.0316H18.031H18.0304H18.0297H18.0291H18.0285H18.0279H18.0274H18.0268H18.0262H18.0256H18.0251H18.0245H18.0239H18.0234H18.0229H18.0223H18.0218H18.0213H18.0207H18.0202H18.0197H18.0192H18.0187H18.0182H18.0177H18.0173H18.0168H18.0163H18.0159H18.0154H18.015H18.0145H18.0141H18.0137H18.0132H18.0128H18.0124H18.012H18.0116H18.0112H18.0108H18.0104H18.0101H18.0097H18.0093H18.009H18.0086H18.0083H18.008H18.0076H18.0073H18.007H18.0067H18.0064H18.0061H18.0058H18.0055H18.0053H18.005H18.0047H18.0045H18.0042H18.004H18.0037H18.0035H18.0033H18.0031H18.0029H18.0027H18.0025H18.0023H18.0021H18.002H18.0018H18.0016H18.0015H18.0013H18.0012H18.0011H18.001H18.0008H18.0007H18.0006H18.0005H18.0005H18.0004H18.0003H18.0002H18.0002H18.0001H18.0001H18.0001H18H18H5C3.067 16.5 1.5 14.933 1.5 13C1.5 11.3686 2.61661 9.99677 4.12799 9.60937Z" stroke="var(--svg-icon-stroke, #333)"/></svg>