<?xml version="1.0" encoding="utf-8"?><svg xmlns="http://www.w3.org/2000/svg" viewBox="0 0 18.85 17.81" width="18.85" height="17.81"><path d="M.72,5.47s0,0,0-.07a4,4,0,0,1,1-4.09,2.76,2.76,0,0,1,3.91,0L6.64,2.37a2.49,2.49,0,0,1,0,3.53L4.32,8.22a.5.5,0,0,0-.09.58,10.43,10.43,0,0,0,5.53,5,.49.49,0,0,0,.53-.11l2.53-2.52a2.49,2.49,0,0,1,3.53,0l1.06,1.05a2.78,2.78,0,0,1,0,3.92,4,4,0,0,1-3.95,1l-.12,0A13.88,13.88,0,0,1,.72,5.47Z" stroke="var(--svg-icon-stroke, #333)" fill="none" stroke-linecap="round" stroke-linejoin="round"/><path d="M9.9,1.88h8.24" stroke="var(--svg-icon-stroke_blue, #0094ff)"/><path d="M16.9.65l1.24,1.23L16.9,3.12" stroke="var(--svg-icon-stroke_blue, #0094ff)"/><path d="M18.14,6.41H9.9" stroke="var(--svg-icon-stroke_blue, #0094ff)"/><path d="M11.14,5.18,9.9,6.41l1.24,1.24" stroke="var(--svg-icon-stroke_blue, #0094ff)"/></svg>