<?xml version="1.0" encoding="utf-8"?><svg width="24" height="24" fill="none" xmlns="http://www.w3.org/2000/svg" viewBox="0 0 24 24"><rect x="2" y="6" width="20" height="12.5" rx="1" stroke="var(--svg-icon-stroke, #333)"/><path d="M7.16811 13.1721C7.16811 13.0731 7.15263 12.9842 7.12169 12.9054C7.09332 12.8241 7.03917 12.7505 6.95922 12.6844C6.87928 12.6158 6.7671 12.5485 6.62268 12.4825C6.47827 12.4164 6.2913 12.3479 6.06178 12.2767C5.80648 12.1955 5.56407 12.104 5.33455 12.0024C5.10761 11.9008 4.90646 11.7827 4.7311 11.6481C4.55832 11.5109 4.42164 11.3521 4.32107 11.1718C4.22307 10.9914 4.17407 10.7819 4.17407 10.5431C4.17407 10.312 4.22565 10.1024 4.3288 9.91444C4.43196 9.72393 4.57637 9.56136 4.76205 9.42674C4.94772 9.28957 5.16693 9.18416 5.41965 9.11049C5.67496 9.03683 5.95476 9 6.25907 9C6.67426 9 7.03659 9.07366 7.34605 9.22099C7.65551 9.36832 7.89534 9.57025 8.06554 9.8268C8.23833 10.0834 8.32472 10.3767 8.32472 10.707H7.17198C7.17198 10.5444 7.13716 10.4021 7.06753 10.2802C7.00048 10.1557 6.89733 10.058 6.75807 9.98683C6.62139 9.91571 6.44861 9.88015 6.23972 9.88015C6.03857 9.88015 5.87095 9.91063 5.73685 9.97159C5.60275 10.03 5.50218 10.11 5.43513 10.2116C5.36808 10.3107 5.33455 10.4225 5.33455 10.5469C5.33455 10.6409 5.35776 10.726 5.40418 10.8022C5.45318 10.8784 5.52539 10.9495 5.6208 11.0156C5.71622 11.0816 5.83356 11.1439 5.97281 11.2023C6.11207 11.2607 6.27325 11.3178 6.45635 11.3737C6.76323 11.4652 7.03272 11.568 7.26481 11.6824C7.49949 11.7967 7.69548 11.9249 7.85279 12.0672C8.0101 12.2094 8.12873 12.3707 8.20867 12.5511C8.28861 12.7314 8.32859 12.9359 8.32859 13.1645C8.32859 13.4058 8.28088 13.6217 8.18546 13.8122C8.09004 14.0027 7.95208 14.164 7.77156 14.2961C7.59104 14.4282 7.3757 14.5285 7.12556 14.5971C6.87541 14.6657 6.5956 14.7 6.28614 14.7C6.00763 14.7 5.73298 14.6644 5.4622 14.5933C5.19142 14.5197 4.94515 14.4092 4.72337 14.2618C4.50416 14.1145 4.3288 13.9265 4.19728 13.6979C4.06576 13.4693 4 13.1988 4 12.8864H5.16435C5.16435 13.0591 5.19142 13.2051 5.24558 13.3245C5.29974 13.4439 5.37581 13.5404 5.47381 13.6141C5.57438 13.6878 5.69301 13.7411 5.82969 13.7741C5.96895 13.8072 6.1211 13.8237 6.28614 13.8237C6.48729 13.8237 6.65234 13.7957 6.78128 13.7398C6.9128 13.684 7.00951 13.6065 7.0714 13.5074C7.13587 13.4084 7.16811 13.2966 7.16811 13.1721Z" fill="var(--svg-icon-fill_blue, #0094ff)"/><path d="M9.64766 9.0762H10.6302L12.0769 13.1493L13.5237 9.0762H14.5062L12.4715 14.6238H11.6824L9.64766 9.0762ZM9.11771 9.0762H10.0964L10.2743 13.0464V14.6238H9.11771V9.0762ZM14.0575 9.0762H15.04V14.6238H13.8795V13.0464L14.0575 9.0762Z" fill="var(--svg-icon-fill_blue, #0094ff)"/><path d="M18.9895 13.1721C18.9895 13.0731 18.974 12.9842 18.9431 12.9054C18.9147 12.8241 18.8606 12.7505 18.7806 12.6844C18.7007 12.6158 18.5885 12.5485 18.4441 12.4825C18.2997 12.4164 18.1127 12.3479 17.8832 12.2767C17.6279 12.1955 17.3855 12.104 17.156 12.0024C16.929 11.9008 16.7279 11.7827 16.5525 11.6481C16.3797 11.5109 16.2431 11.3521 16.1425 11.1718C16.0445 10.9914 15.9955 10.7819 15.9955 10.5431C15.9955 10.312 16.0471 10.1024 16.1502 9.91444C16.2534 9.72393 16.3978 9.56136 16.5835 9.42674C16.7691 9.28957 16.9883 9.18416 17.2411 9.11049C17.4964 9.03683 17.7762 9 18.0805 9C18.4957 9 18.858 9.07366 19.1675 9.22099C19.4769 9.36832 19.7168 9.57025 19.887 9.8268C20.0597 10.0834 20.1461 10.3767 20.1461 10.707H18.9934C18.9934 10.5444 18.9586 10.4021 18.8889 10.2802C18.8219 10.1557 18.7187 10.058 18.5795 9.98683C18.4428 9.91571 18.27 9.88015 18.0611 9.88015C17.86 9.88015 17.6924 9.91063 17.5583 9.97159C17.4242 10.03 17.3236 10.11 17.2565 10.2116C17.1895 10.3107 17.156 10.4225 17.156 10.5469C17.156 10.6409 17.1792 10.726 17.2256 10.8022C17.2746 10.8784 17.3468 10.9495 17.4422 11.0156C17.5376 11.0816 17.655 11.1439 17.7942 11.2023C17.9335 11.2607 18.0947 11.3178 18.2778 11.3737C18.5846 11.4652 18.8541 11.568 19.0862 11.6824C19.3209 11.7967 19.5169 11.9249 19.6742 12.0672C19.8315 12.2094 19.9501 12.3707 20.0301 12.5511C20.11 12.7314 20.15 12.9359 20.15 13.1645C20.15 13.4058 20.1023 13.6217 20.0069 13.8122C19.9115 14.0027 19.7735 14.164 19.593 14.2961C19.4124 14.4282 19.1971 14.5285 18.947 14.5971C18.6968 14.6657 18.417 14.7 18.1076 14.7C17.829 14.7 17.5544 14.6644 17.2836 14.5933C17.0128 14.5197 16.7666 14.4092 16.5448 14.2618C16.3256 14.1145 16.1502 13.9265 16.0187 13.6979C15.8872 13.4693 15.8214 13.1988 15.8214 12.8864H16.9858C16.9858 13.0591 17.0128 13.2051 17.067 13.3245C17.1211 13.4439 17.1972 13.5404 17.2952 13.6141C17.3958 13.6878 17.5144 13.7411 17.6511 13.7741C17.7904 13.8072 17.9425 13.8237 18.1076 13.8237C18.3087 13.8237 18.4738 13.7957 18.6027 13.7398C18.7342 13.684 18.8309 13.6065 18.8928 13.5074C18.9573 13.4084 18.9895 13.2966 18.9895 13.1721Z" fill="var(--svg-icon-fill_blue, #0094ff)"/></svg>