<?xml version="1.0" encoding="utf-8"?><svg xmlns="http://www.w3.org/2000/svg" viewBox="0 0 21 20.5" width="21" height="20.5"><circle cx="6.92" cy="16.36" r="1.21" stroke="var(--svg-icon-stroke, #333)" fill="none"/><circle cx="14.6" cy="16.36" r="1.21" stroke="var(--svg-icon-stroke, #333)" fill="none"/><path d="M8.2,16.36h5.12m2.56,0L18,16.14v-.77a1,1,0,0,0-.69-.95l-1.81-.6-.13-.06-3.14-1.57a1,1,0,0,0-.45-.1H7.27a1,1,0,0,0-.63.22L4.92,13.68a.94.94,0,0,1-.31.17L4.18,14a1,1,0,0,0-.68.95v1.42H5.63" stroke="var(--svg-icon-stroke, #333)" fill="none"/><path d="M10.67,12.09c-1.87-.26-5.06-1.22-2.81-3S10.67,10.32,10.67,12.09Z" stroke="var(--svg-icon-stroke_blue, #0094ff)" fill="none" stroke-linejoin="round"/><path d="M10.67,12.09c1.88-.26,5.07-1.22,2.82-3S10.67,10.32,10.67,12.09Z" stroke="var(--svg-icon-stroke_blue, #0094ff)" fill="none" stroke-linejoin="round"/><path d="M10.5,16.5v-4" stroke="var(--svg-icon-stroke_blue, #0094ff)" fill="none"/><path d="M.5,20.5V5.5a11.76,11.76,0,0,1,10-5,11.76,11.76,0,0,1,10,5v15" stroke="var(--svg-icon-stroke, #333)" fill="none"/></svg>