<?xml version="1.0" encoding="utf-8"?><svg width="24" height="24" fill="none" xmlns="http://www.w3.org/2000/svg" viewBox="0 0 24 24"><path d="M7.57931 14.1019L7.57349 14.0677L7.563 14.0346C7.41956 13.5826 7.52222 13.0702 7.85445 12.7209C8.13461 12.4264 8.578 12.4264 8.85817 12.7209L9.25309 13.1361C9.50757 13.4036 9.50757 13.8472 9.25309 14.1148L8.38672 15.0256L8.14711 15.2775L8.29981 15.5898C8.77205 16.5557 9.56165 17.3221 10.5325 17.7073L10.8464 17.8319L11.0792 17.5872L12.0229 16.5951C12.2639 16.3417 12.6438 16.3417 12.8849 16.5951L13.2798 17.0103C13.5734 17.319 13.5734 17.8293 13.2798 18.138C12.9622 18.4718 12.5184 18.5714 12.1268 18.4507L12.0695 18.433L12.0096 18.4294C9.83015 18.2981 7.99 16.5119 7.57931 14.1019Z" stroke="var(--svg-icon-stroke_blue, #0094ff)"/><path d="M11.0269 20.0269C17.5606 20.0269 19.7672 14.0089 20.0537 11L2.00001 11C2.28658 14.0089 4.49314 20.0269 11.0269 20.0269Z" stroke="var(--svg-icon-stroke, #333)"/><path d="M20.0268 12.9999C20.7425 13.5221 21.9049 15.0324 20.829 16.896C19.753 18.7597 17.8638 18.5082 17.0537 18.1494" stroke="var(--svg-icon-stroke, #333)"/><path d="M2.05374 22H20.0537" stroke="var(--svg-icon-stroke, #333)" stroke-linecap="round"/><path d="M13.0537 9C15.0537 6.5 14.5537 4 13.0537 2" stroke="var(--svg-icon-stroke, #333)" stroke-linecap="round"/><path d="M10.5087 9C11.5087 6.5 11.0087 5 10.0087 3" stroke="var(--svg-icon-stroke, #333)" stroke-linecap="round"/><path d="M7.63365 9C8.13365 8 8.13365 7 7.63365 6" stroke="var(--svg-icon-stroke, #333)" stroke-linecap="round"/></svg>