<?xml version="1.0" encoding="utf-8"?><svg width="24" height="24" fill="none" xmlns="http://www.w3.org/2000/svg" viewBox="0 0 24 24"><path d="M14.55 8.7998C14.475 8.16647 14.1708 7.6748 13.6375 7.3248C13.1042 6.9748 12.45 6.7998 11.675 6.7998C11.1083 6.7998 10.6125 6.89147 10.1875 7.0748C9.76667 7.25814 9.4375 7.51022 9.2 7.83105C8.96667 8.15189 8.85 8.51647 8.85 8.9248C8.85 9.26647 8.93125 9.56022 9.09375 9.80606C9.26042 10.0477 9.47292 10.2498 9.73125 10.4123C9.98958 10.5706 10.2604 10.7019 10.5437 10.8061C10.8271 10.9061 11.0875 10.9873 11.325 11.0498L12.625 11.3998C12.9583 11.4873 13.3292 11.6081 13.7375 11.7623C14.15 11.9165 14.5437 12.1269 14.9187 12.3936C15.2979 12.6561 15.6104 12.9936 15.8562 13.4061C16.1021 13.8186 16.225 14.3248 16.225 14.9248C16.225 15.6165 16.0437 16.2415 15.6812 16.7998C15.3229 17.3581 14.7979 17.8019 14.1062 18.1311C13.4187 18.4602 12.5833 18.6248 11.6 18.6248C10.6833 18.6248 9.88958 18.4769 9.21875 18.1811C8.55208 17.8852 8.02708 17.4727 7.64375 16.9436C7.26458 16.4144 7.05 15.7998 7 15.0998H8.6C8.64167 15.5831 8.80417 15.9831 9.0875 16.2998C9.375 16.6123 9.7375 16.8456 10.175 16.9998C10.6167 17.1498 11.0917 17.2248 11.6 17.2248C12.1917 17.2248 12.7229 17.129 13.1937 16.9373C13.6646 16.7415 14.0375 16.4706 14.3125 16.1248C14.5875 15.7748 14.725 15.3665 14.725 14.8998C14.725 14.4748 14.6062 14.129 14.3687 13.8623C14.1312 13.5956 13.8187 13.379 13.4312 13.2123C13.0437 13.0456 12.625 12.8998 12.175 12.7748L10.6 12.3248C9.6 12.0373 8.80833 11.6269 8.225 11.0936C7.64167 10.5602 7.35 9.8623 7.35 8.9998C7.35 8.28314 7.54375 7.65814 7.93125 7.1248C8.32292 6.5873 8.84792 6.17064 9.50625 5.8748C10.1687 5.5748 10.9083 5.4248 11.725 5.4248C12.55 5.4248 13.2833 5.57272 13.925 5.86855C14.5667 6.16022 15.075 6.56022 15.45 7.06855C15.8292 7.57689 16.0292 8.15397 16.05 8.7998H14.55Z" fill="var(--svg-icon-fill, #333)"/><path fill="var(--svg-icon-fill_blue, #0094ff)" d="M11.1 4H12.1V20H11.1z"/></svg>