<?xml version="1.0" encoding="utf-8"?><svg width="24" height="24" fill="none" xmlns="http://www.w3.org/2000/svg" viewBox="0 0 24 24"><path d="M8.55466 16.529C8.35976 16.4511 8.20272 16.3005 8.11666 16.109C7.92166 15.721 7.98666 15.333 8.19666 15.007C8.39466 14.7 8.72266 14.439 9.09366 14.22C9.5636 13.9535 10.0604 13.7373 10.5757 13.575C10.9759 12.8556 11.3305 12.1118 11.6377 11.348C11.454 10.9308 11.3101 10.4972 11.2077 10.053C11.1217 9.65305 11.0887 9.25705 11.1617 8.91705C11.2367 8.56305 11.4357 8.24505 11.8117 8.09405C12.0037 8.01705 12.2117 7.97405 12.4137 8.01705C12.5153 8.03868 12.6108 8.08265 12.6933 8.14579C12.7758 8.20892 12.8432 8.28962 12.8907 8.38205C12.9787 8.54605 13.0107 8.73805 13.0177 8.92005C13.0247 9.10805 13.0057 9.31605 12.9707 9.53405C12.8867 10.044 12.7007 10.668 12.4507 11.328C12.7266 11.9181 13.0545 12.4823 13.4307 13.014C13.8758 12.9789 14.3234 12.9957 14.7647 13.064C15.1287 13.13 15.4987 13.259 15.7247 13.529C15.8447 13.673 15.9177 13.849 15.9247 14.047C15.9317 14.239 15.8777 14.429 15.7867 14.61C15.7078 14.7778 15.5856 14.9214 15.4327 15.026C15.2815 15.1247 15.103 15.173 14.9227 15.164C14.5917 15.15 14.2687 14.968 13.9897 14.747C13.6504 14.4665 13.3447 14.1478 13.0787 13.797C12.4024 13.8738 11.7342 14.0096 11.0817 14.203C10.7828 14.733 10.4417 15.238 10.0617 15.713C9.76966 16.063 9.45266 16.369 9.13466 16.5C8.95195 16.5827 8.74471 16.5931 8.55466 16.529ZM9.93366 14.628C9.76766 14.704 9.61366 14.784 9.47466 14.866C9.14666 15.06 8.93366 15.249 8.82766 15.413C8.73366 15.558 8.73166 15.663 8.78766 15.774C8.79766 15.796 8.80766 15.81 8.81366 15.818C8.82559 15.8149 8.83729 15.8109 8.84866 15.806C8.98566 15.75 9.20366 15.571 9.48366 15.234C9.64291 15.0391 9.79307 14.8369 9.93366 14.628ZM11.5737 13.298C11.9076 13.2201 12.2445 13.1557 12.5837 13.105C12.4016 12.8264 12.2314 12.5401 12.0737 12.247C11.9168 12.6016 11.7501 12.9518 11.5737 13.297V13.298ZM14.0197 13.748C14.1697 13.911 14.3157 14.048 14.4547 14.158C14.6947 14.348 14.8617 14.411 14.9527 14.414C14.977 14.4172 15.0017 14.4119 15.0227 14.399C15.0643 14.3662 15.0966 14.3231 15.1167 14.274C15.1522 14.2131 15.1725 14.1445 15.1757 14.074C15.1751 14.0506 15.1658 14.0281 15.1497 14.011C15.0977 13.949 14.9497 13.859 14.6317 13.802C14.4294 13.7682 14.2247 13.7505 14.0197 13.749V13.748ZM12.0297 10.242C12.1138 9.97057 12.1806 9.69401 12.2297 9.41405C12.2607 9.22605 12.2727 9.07105 12.2677 8.94905C12.2679 8.88174 12.2571 8.81484 12.2357 8.75105C12.1856 8.75724 12.1368 8.77072 12.0907 8.79105C12.0037 8.82605 11.9327 8.89705 11.8947 9.07405C11.8547 9.26605 11.8647 9.54305 11.9407 9.89605C11.9647 10.007 11.9947 10.123 12.0307 10.242H12.0297Z" fill="var(--svg-icon-fill_blue, #0094ff)"/><path d="M5.5 3.5H14.7929L18.5 7.20711V20.5H5.5V3.5Z" stroke="var(--svg-icon-stroke, #333)"/></svg>