<?xml version="1.0" encoding="utf-8"?><svg xmlns="http://www.w3.org/2000/svg" viewBox="0 0 16.86 18" width="16.86" height="18"><path d="M.5.87,11,6.93.5,13Z" stroke="var(--svg-icon-stroke_blue, #0094ff)" fill="none"/><path d="M8.93,15.22,8,15l.34-3h3.33V13H9.29l-.14,1.31a2.31,2.31,0,0,1,.36-.15A1.74,1.74,0,0,1,10,14a2.07,2.07,0,0,1,.77.14,1.49,1.49,0,0,1,.56.39,1.66,1.66,0,0,1,.36.62,2.75,2.75,0,0,1,.12.84,2.36,2.36,0,0,1-.12.75,2,2,0,0,1-.37.64,1.72,1.72,0,0,1-.62.43,2.21,2.21,0,0,1-.89.16,2.65,2.65,0,0,1-.74-.11,2.19,2.19,0,0,1-.64-.34A2,2,0,0,1,8,17a1.6,1.6,0,0,1-.17-.73H9a1.14,1.14,0,0,0,.13.43.78.78,0,0,0,.29.28.93.93,0,0,0,.42.1.76.76,0,0,0,.38-.09.75.75,0,0,0,.26-.24,1.22,1.22,0,0,0,.14-.35,2.14,2.14,0,0,0,0-.45,1.51,1.51,0,0,0-.06-.44.88.88,0,0,0-.18-.33.62.62,0,0,0-.3-.22,1.22,1.22,0,0,0-.92,0A1.4,1.4,0,0,0,8.93,15.22Z" fill="var(--svg-icon-fill, #333)"/><path d="M5.33,18V12.07H5.21l-2.45.87v.93l1.4-.45V18Z" fill="var(--svg-icon-fill, #333)"/><path d="M6.11,17a.57.57,0,0,0-.18.43.6.6,0,0,0,.18.44.76.76,0,0,0,1,0,.6.6,0,0,0,.18-.44A.57.57,0,0,0,7.07,17a.73.73,0,0,0-1,0Z" fill="var(--svg-icon-fill, #333)"/><path d="M12.45,17.16l1.36-1.36-1.36-1.37.84-.84L14.65,15,16,13.59l.84.84L15.49,15.8l1.37,1.36L16,18l-1.36-1.36L13.29,18Z" fill="var(--svg-icon-fill, #333)"/></svg>