<?xml version="1.0" encoding="utf-8"?><svg xmlns="http://www.w3.org/2000/svg" viewBox="0 0 20.44 19.44" width="20.44" height="19.44"><path d="M4,17.93H4l0,0,0,0v0l-.05,0h.05v-.05Z" stroke="var(--svg-icon-stroke, #333)" fill="none"/><path d="M18.15,16.44l.08.21.21.08.56.21-.56.21-.21.08-.08.21-.21.56-.21-.56-.08-.21-.21-.08-.56-.21.56-.21.21-.08.08-.21.21-.56Z" stroke="var(--svg-icon-stroke, #333)" fill="none"/><path d="M3.94,1.44l.68,1.83,1.82.67-1.82.68L3.94,6.44,3.27,4.62,1.44,3.94l1.83-.67Z" stroke="var(--svg-icon-stroke, #333)" fill="none"/><path d="M11.18,11.3H9.69L9.48,4.44h1.91Zm-.74,1.07a1,1,0,0,1,.72.29,1.13,1.13,0,0,1,0,1.49,1,1,0,0,1-.72.29,1,1,0,0,1-.73-.29,1.05,1.05,0,0,1-.27-.74,1,1,0,0,1,.27-.74A1,1,0,0,1,10.44,12.37Z" fill="var(--svg-icon-fill, #333)"/></svg>