<?xml version="1.0" encoding="utf-8"?><svg xmlns="http://www.w3.org/2000/svg" viewBox="0 0 21.32 21.32" width="21.32" height="21.32"><path d="M6.25,12.61H5.53v-3l-.87.29V9.29l1.51-.58h.08Z" fill="#0094ff"/><path d="M9.9,11a2,2,0,0,1-.32,1.23,1,1,0,0,1-.91.43,1.08,1.08,0,0,1-.92-.42A2,2,0,0,1,7.43,11v-.72a2,2,0,0,1,.32-1.23,1,1,0,0,1,.91-.43,1.06,1.06,0,0,1,.91.42,2,2,0,0,1,.33,1.2Zm-.73-.79a1.54,1.54,0,0,0-.12-.7.41.41,0,0,0-.39-.22.41.41,0,0,0-.38.21,1.48,1.48,0,0,0-.13.65v.95a1.62,1.62,0,0,0,.12.71.44.44,0,0,0,.4.23.42.42,0,0,0,.38-.22,1.5,1.5,0,0,0,.12-.68Z" fill="var(--svg-icon-fill_blue, #0094ff)"/><path d="M12.85,11a2,2,0,0,1-.32,1.23,1,1,0,0,1-.91.43,1.08,1.08,0,0,1-.92-.42,2,2,0,0,1-.32-1.2v-.72a2,2,0,0,1,.31-1.23,1.08,1.08,0,0,1,.92-.43,1.06,1.06,0,0,1,.91.42,2,2,0,0,1,.33,1.2Zm-.73-.79a1.54,1.54,0,0,0-.12-.7.41.41,0,0,0-.39-.22.41.41,0,0,0-.38.21,1.48,1.48,0,0,0-.13.65v.95a1.62,1.62,0,0,0,.12.71.44.44,0,0,0,.4.23.42.42,0,0,0,.38-.22,1.5,1.5,0,0,0,.12-.68Z" fill="#0094ff"/><path d="M13.33,9.47a.76.76,0,0,1,.22-.58.83.83,0,0,1,1.14,0,.81.81,0,0,1,.22.6v.19a.78.78,0,0,1-.22.58.74.74,0,0,1-.57.22.75.75,0,0,1-.57-.22.81.81,0,0,1-.22-.6Zm.48.2a.42.42,0,0,0,.08.26.33.33,0,0,0,.23.1.31.31,0,0,0,.23-.1.46.46,0,0,0,.08-.27V9.47a.4.4,0,0,0-.08-.26.31.31,0,0,0-.46,0,.41.41,0,0,0-.08.27Zm1.26,2a.81.81,0,0,1,1.37-.58.79.79,0,0,1,.22.6v.19a.81.81,0,0,1-.21.58.87.87,0,0,1-1.16,0,.82.82,0,0,1-.22-.59Zm.48.21a.37.37,0,0,0,.1.25.28.28,0,0,0,.22.11c.2,0,.31-.12.31-.36v-.21a.35.35,0,0,0-.09-.25.27.27,0,0,0-.22-.1.28.28,0,0,0-.23.1.36.36,0,0,0-.09.26Zm-1.28.46-.36-.21,1.79-3,.35.21Z" fill="#0094ff"/><path d="M10.66.66l1.7,1.47,2.13-.71,1,2,2.24.16.16,2.24,2,1L19.19,9l1.47,1.7-1.47,1.7.71,2.13-2,1-.16,2.24-2.24.16-1,2-2.13-.71-1.7,1.47L9,19.19l-2.13.71-1-2-2.24-.16-.16-2.24-2-1,.71-2.13L.66,10.66,2.13,9,1.42,6.83l2-1,.16-2.24,2.24-.16,1-2L9,2.13Z" stroke="var(--svg-icon-stroke, #333)" fill="none"/></svg>