<?xml version="1.0" encoding="utf-8"?><svg width="24" height="24" fill="none" xmlns="http://www.w3.org/2000/svg" viewBox="0 0 24 24"><circle cx="12" cy="12" r="10" stroke="var(--svg-icon-stroke, #333)"/><path d="M2 10L7.5 10" stroke="var(--svg-icon-stroke, #333)"/><path d="M16 10L21.5 10" stroke="var(--svg-icon-stroke, #333)"/><path d="M2 12L7 14L7.40372 14.8074C7.79077 15.5815 8.41846 16.2092 9.19257 16.5963L10 17L11 22" stroke="var(--svg-icon-stroke, #333)"/><path d="M22 12L17 14L16.5963 14.8074C16.2092 15.5815 15.5815 16.2092 14.8074 16.5963L14 17L13 22" stroke="var(--svg-icon-stroke, #333)"/><path d="M7 11.4417C7 10.586 7.56128 9.83162 8.38089 9.58573V9.58573C10.7417 8.8775 13.2583 8.8775 15.6191 9.58573V9.58573C16.4387 9.83162 17 10.586 17 11.4417V13C17 15.2091 15.2091 17 13 17H11C8.79086 17 7 15.2091 7 13V11.4417Z" stroke="var(--svg-icon-stroke_blue, #0094ff)"/></svg>