<?xml version="1.0" encoding="utf-8"?><svg width="24" height="24" fill="none" xmlns="http://www.w3.org/2000/svg" viewBox="0 0 24 24"><path stroke="var(--svg-icon-stroke, #333)" d="M3.5 6H20.5V20H3.5z"/><path d="M3.5 9.5H20.5" stroke="var(--svg-icon-stroke, #333)"/><path d="M7 4V8" stroke="var(--svg-icon-stroke, #333)"/><path d="M17 4V8" stroke="var(--svg-icon-stroke, #333)"/><path d="M11.7659 16.5999V17.4265H8.10655V16.7211L9.83701 14.8657C10.0109 14.6722 10.1481 14.502 10.2485 14.355C10.3489 14.2056 10.4212 14.0721 10.4653 13.9546C10.5118 13.8346 10.5351 13.7207 10.5351 13.6129C10.5351 13.4512 10.5081 13.3128 10.4542 13.1977C10.4004 13.0802 10.3208 12.9895 10.2154 12.9259C10.1126 12.8622 9.98519 12.8303 9.83333 12.8303C9.67168 12.8303 9.53206 12.8695 9.4145 12.9479C9.29938 13.0263 9.2112 13.1353 9.14997 13.2749C9.09118 13.4145 9.06179 13.5725 9.06179 13.7488H8C8 13.4304 8.07593 13.1389 8.22779 12.8744C8.37965 12.6074 8.59397 12.3956 8.87074 12.2388C9.14752 12.0796 9.47573 12 9.85538 12C10.2301 12 10.5461 12.0612 10.8033 12.1837C11.0629 12.3037 11.2589 12.4776 11.3911 12.7054C11.5258 12.9308 11.5932 13.2002 11.5932 13.5137C11.5932 13.69 11.565 13.8627 11.5087 14.0317C11.4523 14.1983 11.3715 14.3648 11.2662 14.5314C11.1633 14.6955 11.0384 14.8621 10.8914 15.0311C10.7445 15.2001 10.5816 15.3752 10.4028 15.5564L9.47328 16.5999H11.7659Z" fill="var(--svg-icon-fill_blue, #0094ff)"/><path d="M13.4228 14.9906L12.5778 14.7886L12.8828 12.0772H15.8881V12.9332H13.7535L13.6212 14.1199C13.6923 14.0783 13.8 14.0342 13.9446 13.9876C14.0891 13.9387 14.2507 13.9142 14.4295 13.9142C14.6892 13.9142 14.9194 13.9546 15.1202 14.0354C15.3211 14.1162 15.4913 14.2338 15.6309 14.3881C15.773 14.5424 15.8808 14.731 15.9542 14.9539C16.0277 15.1768 16.0645 15.4291 16.0645 15.7108C16.0645 15.9483 16.0277 16.1749 15.9542 16.3904C15.8808 16.6035 15.7693 16.7946 15.6199 16.9636C15.4705 17.1301 15.2831 17.2612 15.0578 17.3567C14.8324 17.4522 14.5655 17.5 14.2568 17.5C14.0266 17.5 13.8037 17.4657 13.5882 17.3971C13.3751 17.3285 13.1828 17.2269 13.0114 17.0922C12.8424 16.9575 12.7064 16.7946 12.6035 16.6035C12.5031 16.41 12.4505 16.1896 12.4456 15.9422H13.4963C13.511 16.0941 13.5502 16.2251 13.6139 16.3353C13.68 16.4431 13.767 16.5264 13.8748 16.5852C13.9825 16.644 14.1087 16.6733 14.2532 16.6733C14.3879 16.6733 14.503 16.6476 14.5985 16.5962C14.6941 16.5448 14.7712 16.4737 14.83 16.3831C14.8888 16.29 14.9316 16.1823 14.9586 16.0598C14.988 15.9349 15.0027 15.8002 15.0027 15.6556C15.0027 15.5111 14.9855 15.3801 14.9512 15.2625C14.9169 15.145 14.8643 15.0433 14.7933 14.9576C14.7222 14.8719 14.6316 14.8057 14.5214 14.7592C14.4136 14.7126 14.2875 14.6894 14.143 14.6894C13.947 14.6894 13.7951 14.72 13.6874 14.7812C13.5821 14.8425 13.4939 14.9123 13.4228 14.9906Z" fill="var(--svg-icon-fill_blue, #0094ff)"/></svg>