<?xml version="1.0" encoding="utf-8"?><svg width="24" height="23.04" fill="none" xmlns="http://www.w3.org/2000/svg" viewBox="0 0 25 24"><path d="M7.5 5.86602L18 11.9282L7.5 17.9904L7.5 5.86602Z" stroke="var(--svg-icon-stroke_blue, #0094ff)" fill="var(--limited-fill-off, none)"/><path d="M19.1638 22.086V23H15.1178V22.22L17.0311 20.1686C17.2234 19.9546 17.3751 19.7664 17.4861 19.6039C17.5972 19.4387 17.677 19.2911 17.7258 19.1611C17.7773 19.0284 17.803 18.9025 17.803 18.7833C17.803 18.6046 17.7732 18.4516 17.7136 18.3243C17.654 18.1943 17.566 18.0941 17.4496 18.0237C17.3358 17.9533 17.195 17.9181 17.0271 17.9181C16.8483 17.9181 16.694 17.9614 16.564 18.0481C16.4367 18.1347 16.3392 18.2552 16.2715 18.4096C16.2065 18.564 16.174 18.7387 16.174 18.9336H15C15 18.5816 15.084 18.2593 15.2519 17.9668C15.4198 17.6716 15.6567 17.4374 15.9628 17.264C16.2688 17.088 16.6317 17 17.0515 17C17.4658 17 17.8152 17.0677 18.0995 17.2031C18.3866 17.3358 18.6033 17.5281 18.7495 17.78C18.8984 18.0291 18.9729 18.327 18.9729 18.6737C18.9729 18.8687 18.9418 19.0596 18.8795 19.2464C18.8172 19.4306 18.7278 19.6148 18.6114 19.7989C18.4976 19.9804 18.3595 20.1645 18.197 20.3514C18.0345 20.5383 17.8544 20.7319 17.6567 20.9323L16.629 22.086H19.1638Z" fill="var(--svg-icon-fill, #333)"/><path d="M21.1207 20.797L19.7581 19.4345L20.5985 18.5941L21.9611 19.9566L23.3236 18.5941L24.164 19.4345L22.8015 20.797L24.164 22.1596L23.3236 23L21.9611 21.6374L20.5985 23L19.7581 22.1596L21.1207 20.797Z" fill="var(--svg-icon-fill, #333)"/></svg>