<?xml version="1.0" encoding="utf-8"?><svg xmlns="http://www.w3.org/2000/svg" viewBox="0 0 19 16.41" width="19" height="16.41"><circle cx="4.74" cy="14.29" r="1.62" stroke="var(--svg-icon-stroke, #333)" fill="none"/><circle cx="14.26" cy="14.29" r="1.62" stroke="var(--svg-icon-stroke, #333)" fill="none"/><path d="M6.32,14.29h6.36m3.17,0L18.5,14V12.9a1,1,0,0,0-.68-1l-2.43-.81-.13-.05-4-2A1,1,0,0,0,10.85,9H5.09a1,1,0,0,0-.63.22L2.23,11a.92.92,0,0,1-.31.16l-.74.25a1,1,0,0,0-.68.95v1.92H3.15" stroke="var(--svg-icon-stroke, #333)" fill="none"/><circle cx="14.5" cy="4" r="3.5" stroke="var(--svg-icon-stroke_blue, #0094ff)" fill="none"/><path d="M17.36,1.52,12,6.86" stroke="var(--svg-icon-stroke_blue, #0094ff)" fill="none"/></svg>