<?xml version="1.0" encoding="utf-8"?><svg width="24" height="24" fill="none" xmlns="http://www.w3.org/2000/svg" viewBox="0 0 24 24"><path transform="rotate(90 7.5 4.5)" stroke="var(--svg-icon-stroke, #333)" d="M7.5 4.5H10.5V7.5H7.5z"/><path transform="rotate(90 13.5 4.5)" stroke="var(--svg-icon-stroke, #333)" d="M13.5 4.5H16.5V7.5H13.5z"/><path transform="rotate(90 19.5 4.5)" stroke="var(--svg-icon-stroke, #333)" d="M19.5 4.5H22.5V7.5H19.5z"/><path transform="rotate(90 7.5 10.5)" stroke="var(--svg-icon-stroke, #333)" d="M7.5 10.5H10.5V13.5H7.5z"/><path transform="rotate(90 13.5 10.5)" stroke="var(--svg-icon-stroke, #333)" d="M13.5 10.5H16.5V13.5H13.5z"/><path transform="rotate(90 19.5 10.5)" stroke="var(--svg-icon-stroke_blue, #0094ff)" d="M19.5 10.5H22.5V13.5H19.5z"/><path transform="rotate(90 7.5 16.5)" stroke="var(--svg-icon-stroke, #333)" d="M7.5 16.5H10.5V19.5H7.5z"/><path transform="rotate(90 13.5 16.5)" stroke="var(--svg-icon-stroke_blue, #0094ff)" d="M13.5 16.5H16.5V19.5H13.5z"/><path transform="rotate(90 19.5 16.5)" stroke="var(--svg-icon-stroke_blue, #0094ff)" d="M19.5 16.5H22.5V19.5H19.5z"/></svg>