<?xml version="1.0" encoding="utf-8"?><svg xmlns="http://www.w3.org/2000/svg" viewBox="0 0 14 18" width="14" height="18"><path d="M.5.5H9.79L13.5,4.21V17.5H.5Z" stroke="var(--svg-icon-stroke, #333)" fill="none"/><path d="M10.83,6.17A4,4,0,0,1,12,9H9.8a1.79,1.79,0,0,0-.53-1.27Z" stroke="var(--svg-icon-stroke_blue, #0094ff)" fill="none"/><path d="M10.83,10.73a4.55,4.55,0,0,1-2.66,2.95,4.61,4.61,0,0,1-2,.31,4.74,4.74,0,0,1-1.95-.61A4.56,4.56,0,0,1,2,10.06,4.57,4.57,0,0,1,3.33,6.3L5.08,8.07a2,2,0,0,0-.49.77,2,2,0,0,0-.09.91,1.9,1.9,0,0,0,.31.86,2.09,2.09,0,0,0,.66.63,2,2,0,0,0,.88.27,2,2,0,0,0,.9-.13A2.09,2.09,0,0,0,8,10.85a1.91,1.91,0,0,0,.44-.8Z" stroke="var(--svg-icon-stroke_blue, #0094ff)" fill="none"/><path d="M3.32,6.32A4.46,4.46,0,0,1,5.81,5.05a4.52,4.52,0,0,1,2.75.45L7.42,7.7a2,2,0,0,0-2.35.37Z" stroke="var(--svg-icon-stroke_blue, #0094ff)" fill="none"/></svg>