<?xml version="1.0" encoding="utf-8"?><svg xmlns="http://www.w3.org/2000/svg" viewBox="0 0 15.72 13" width="15.72" height="13"><path d="M0,0V13H4.7a5.74,5.74,0,0,0,2.49-.46,3,3,0,0,0,1.4-1.23A3.49,3.49,0,0,0,9,9.55a3.45,3.45,0,0,0-.41-1.74,2.89,2.89,0,0,0-1-1.09,2.42,2.42,0,0,0-1.2-.42V6.17a3.5,3.5,0,0,0,1-.47,2.29,2.29,0,0,0,.77-.86,2.89,2.89,0,0,0,.3-1.39A3.5,3.5,0,0,0,8.1,1.72,3.17,3.17,0,0,0,6.79.47,4.81,4.81,0,0,0,4.54,0ZM4.7,11.6H1.57V7.08h3.2a3,3,0,0,1,1.48.35,2.36,2.36,0,0,1,1,.9,2.27,2.27,0,0,1,.34,1.22A1.94,1.94,0,0,1,6.89,11,3.24,3.24,0,0,1,4.7,11.6ZM4.49,5.71H1.57V1.4h3a2.59,2.59,0,0,1,1.9.6A2,2,0,0,1,7,3.45a2.09,2.09,0,0,1-.34,1.2,2.24,2.24,0,0,1-.91.78A2.84,2.84,0,0,1,4.49,5.71Z" fill="var(--svg-icon-fill, #333)" fill-rule="evenodd"/><path d="M10.85,3.25V13h1.5V6.83a2.16,2.16,0,0,1,.32-1.18,2.27,2.27,0,0,1,.87-.81,2.65,2.65,0,0,1,1.27-.3,3.45,3.45,0,0,1,.57,0,1.63,1.63,0,0,1,.34.06V3.12l-.37,0h-.41a2.86,2.86,0,0,0-1.58.45,2.37,2.37,0,0,0-1,1.17h-.1V3.25Z" fill="var(--svg-icon-fill, #333)"/></svg>