<?xml version="1.0" encoding="utf-8"?><svg xmlns="http://www.w3.org/2000/svg" viewBox="0 0 23.63 14.02" width="23.63" height="14.02"><path d="M20.21,5.67H14.84V.89" fill="none" stroke="var(--svg-icon-stroke_blue, #0094ff)"/><path d="M22.25,12.14a4.62,4.62,0,0,1-1.37.38c.1-.9-.12-2.73-1.76-2.91s-1.9,1.8-1.82,2.8H6c0-.87-.27-2.62-1.91-2.58s-2,1.74-1.95,2.58a7.75,7.75,0,0,1-1.13-.19c-.43,0-.36-.11-.5-.53a2.39,2.39,0,0,1,.14-1.31v0c.1-.34.19-5,.21-6.17A11.68,11.68,0,0,1,1.23,1C1.42.46,2.3.46,2.71.53c3.44,0,11.08,0,12.07.2a4.34,4.34,0,0,1,1.92.7,4,4,0,0,1,1,.86l2.64,3.59a12.53,12.53,0,0,1,1.91,1.34c.33.17.46,1.24.48,1.75v.64a1,1,0,0,0,.31.32c.18.11.06.88,0,1.33S22.58,11.9,22.25,12.14Z" fill="none" stroke="var(--svg-icon-stroke, #333)"/><circle cx="19.07" cy="11.73" r="1.79" fill="none" stroke="var(--svg-icon-stroke, #333)"/><circle cx="4.19" cy="11.73" r="1.79" fill="none" stroke="var(--svg-icon-stroke, #333)"/></svg>