<?xml version="1.0" encoding="utf-8"?><svg width="24" height="24" fill="none" xmlns="http://www.w3.org/2000/svg" viewBox="0 0 24 24"><path d="M5.06697 12.966C5.27259 14.4417 5.94373 15.8133 6.98274 16.8813C8.02176 17.9493 9.37444 18.6578 10.844 18.9039C12.3135 19.15 13.8232 18.9207 15.1534 18.2495C16.4837 17.5782 17.565 16.5001 18.2402 15.1718" stroke="var(--svg-icon-stroke, #333)"/><path d="M17.3925 7.53671C16.4092 6.34874 15.0612 5.5187 13.5577 5.17553C12.0543 4.83235 10.4796 4.99525 9.07826 5.63891C7.6769 6.28258 6.52731 7.37098 5.80805 8.73508C5.08878 10.0992 4.84009 11.6626 5.10061 13.1826" stroke="var(--svg-icon-stroke_blue, #0094ff)" stroke-dasharray="1 1"/><path d="M15.2679 8L18 7.26795L17.2679 4.5359" stroke="var(--svg-icon-stroke_blue, #0094ff)"/><path d="M12 8V13L15.5 15" stroke="var(--svg-icon-stroke_blue, #0094ff)"/></svg>