<?xml version="1.0" encoding="utf-8"?><svg xmlns="http://www.w3.org/2000/svg" viewBox="0 0 16 16" width="16" height="16"><path d="M8,16A8,8,0,1,0,0,8,8,8,0,0,0,8,16ZM7.86,3.5A2.55,2.55,0,0,0,5.48,5.36l-1-.28A3.54,3.54,0,0,1,7.86,2.5a2.82,2.82,0,0,1,3,2.72,3.32,3.32,0,0,1-2.1,3,1,1,0,0,0-.41.25.72.72,0,0,0-.16.34,3,3,0,0,0-.06.6c0,.15,0,.29,0,.45h0v.42h-1V9.88c0-.17,0-.34,0-.49a3.75,3.75,0,0,1,.09-.82,1.69,1.69,0,0,1,.39-.78,1.92,1.92,0,0,1,.81-.52,2.31,2.31,0,0,0,1.44-2A1.83,1.83,0,0,0,7.86,3.5Zm.75,8.59a.91.91,0,1,1-.9-.91A.91.91,0,0,1,8.61,12.09Z" fill="var(--svg-icon-fill, #333)" fill-rule="evenodd"/></svg>