<?xml version="1.0" encoding="utf-8"?><svg xmlns="http://www.w3.org/2000/svg" viewBox="0 0 15 17.5" width="15" height="17.5"><path d="M6,3.5v1m3-1v1" stroke="var(--svg-icon-stroke, #333)" fill="none" stroke-linecap="round" stroke-linejoin="round"/><path d="M9.5,5v9h-4V5Z" stroke="var(--svg-icon-stroke, #333)" fill="none"/><path d="M6,4.5a2.06,2.06,0,0,0-.89.23C3.74,5.4,2,7.69,2,13.5" stroke="var(--svg-icon-stroke, #333)" fill="none" stroke-linecap="round" stroke-linejoin="round"/><path d="M9,4.5a2.06,2.06,0,0,1,.89.23c1.37.67,3.11,3,3.11,8.77" stroke="var(--svg-icon-stroke, #333)" fill="none" stroke-linecap="round" stroke-linejoin="round"/><path d="M2,14H13a1.5,1.5,0,0,1,1.5,1.5h0A1.5,1.5,0,0,1,13,17H2A1.5,1.5,0,0,1,.5,15.5h0A1.5,1.5,0,0,1,2,14Z" stroke="var(--svg-icon-stroke, #333)" fill="none"/><path d="M5.36,1.34l-.17,1a1,1,0,0,0,1,1.16H8.82a1,1,0,0,0,1-1.16l-.17-1a1,1,0,0,0-1-.84H6.35A1,1,0,0,0,5.36,1.34Z" stroke="var(--svg-icon-stroke_blue, #0094ff)" fill="none" stroke-linecap="round" stroke-linejoin="round"/></svg>