<?xml version="1.0" encoding="utf-8"?><svg width="24" height="24" fill="none" xmlns="http://www.w3.org/2000/svg" viewBox="0 0 24 24"><path d="M22 8.5L19.2338 7.16654L19.0711 4.92893L16.8335 4.76621L15.8268 2.7612L13.6973 3.46717L12 2L10.3027 3.46717L8.17316 2.7612L7.16653 4.76621L4.92893 4.92893L4.76621 7.16654L1.5 8.5M22 16L19.2338 16.8335L19.0711 19.0711L16.8335 19.2338L15.8268 21.2388L13.6973 20.5328L12 22L10.3027 20.5328L8.17316 21.2388L7.16653 19.2338L4.92893 19.0711L4.76621 16.8335L2 16" stroke="var(--svg-icon-stroke, #333)"/><path d="M22.5 8.5H1.5L2.5 12L1.5 16H22.5L21.5 12L22.5 8.5Z" stroke="var(--svg-icon-stroke_blue, #0094ff)" stroke-linejoin="round"/><path d="M19.4758 13.469C19.4758 13.3948 19.4691 13.3273 19.4558 13.2665C19.4425 13.2056 19.414 13.1495 19.3702 13.0982C19.3284 13.0468 19.2666 12.9955 19.1849 12.9442C19.105 12.8928 19.0004 12.8396 18.8711 12.7844C18.7171 12.7198 18.5678 12.6513 18.4233 12.5791C18.2788 12.5049 18.1486 12.4194 18.0326 12.3224C17.9166 12.2254 17.8244 12.1113 17.7559 11.9801C17.6894 11.847 17.6561 11.6911 17.6561 11.5124C17.6561 11.3375 17.6875 11.1787 17.7502 11.0361C17.8149 10.8935 17.9061 10.7718 18.024 10.671C18.1419 10.5683 18.2798 10.4894 18.4376 10.4343C18.5973 10.3791 18.7751 10.3516 18.9709 10.3516C19.2371 10.3516 19.4672 10.4067 19.6612 10.517C19.857 10.6273 20.0082 10.7784 20.1147 10.9705C20.223 11.1625 20.2772 11.3831 20.2772 11.6322H19.4444C19.4444 11.5143 19.4273 11.4107 19.3931 11.3213C19.3607 11.23 19.3084 11.1587 19.2362 11.1074C19.1639 11.056 19.0708 11.0304 18.9567 11.0304C18.8502 11.0304 18.7618 11.0522 18.6914 11.096C18.623 11.1378 18.5716 11.1958 18.5374 11.27C18.5051 11.3422 18.4889 11.424 18.4889 11.5152C18.4889 11.5837 18.5051 11.6455 18.5374 11.7006C18.5716 11.7539 18.6182 11.8024 18.6772 11.8461C18.7361 11.8879 18.8055 11.9288 18.8854 11.9687C18.9671 12.0087 19.0565 12.0476 19.1535 12.0857C19.3417 12.1598 19.5081 12.2416 19.6526 12.331C19.7971 12.4184 19.9179 12.5173 20.0148 12.6276C20.1118 12.736 20.185 12.8586 20.2344 12.9955C20.2839 13.1324 20.3086 13.2883 20.3086 13.4633C20.3086 13.6363 20.2782 13.7941 20.2173 13.9367C20.1584 14.0774 20.0719 14.1991 19.9578 14.3018C19.8437 14.4026 19.7058 14.4805 19.5442 14.5357C19.3845 14.5908 19.2058 14.6184 19.008 14.6184C18.816 14.6184 18.6344 14.5918 18.4633 14.5385C18.2921 14.4834 18.141 14.4007 18.0098 14.2904C17.8805 14.1782 17.7787 14.0365 17.7046 13.8654C17.6304 13.6924 17.5934 13.488 17.5934 13.2522H18.429C18.429 13.3777 18.4414 13.4851 18.4661 13.5745C18.4908 13.662 18.5289 13.7323 18.5802 13.7856C18.6315 13.8369 18.6943 13.8759 18.7684 13.9025C18.8445 13.9272 18.931 13.9396 19.028 13.9396C19.1383 13.9396 19.2257 13.9187 19.2904 13.8768C19.3569 13.835 19.4045 13.7789 19.433 13.7085C19.4615 13.6382 19.4758 13.5583 19.4758 13.469Z" fill="var(--svg-icon-fill_blue, #0094ff)"/><path d="M16.2471 10.4086H17.08V13.2608C17.08 13.5802 17.021 13.8407 16.9031 14.0422C16.7871 14.2419 16.6265 14.3883 16.4211 14.4815C16.2158 14.5727 15.9809 14.6184 15.7166 14.6184C15.4504 14.6184 15.2137 14.5727 15.0064 14.4815C14.7992 14.3883 14.6376 14.2419 14.5216 14.0422C14.4075 13.8407 14.3504 13.5802 14.3504 13.2608V10.4086H15.1833V13.2608C15.1833 13.4414 15.2032 13.5802 15.2432 13.6772C15.285 13.7741 15.3449 13.8407 15.4229 13.8768C15.5027 13.911 15.6006 13.9282 15.7166 13.9282C15.8345 13.9282 15.9315 13.911 16.0075 13.8768C16.0855 13.8407 16.1445 13.7741 16.1844 13.6772C16.2262 13.5802 16.2471 13.4414 16.2471 13.2608V10.4086Z" fill="var(--svg-icon-fill_blue, #0094ff)"/><path d="M13.7087 10.4086V14.5613H12.9016L11.5981 11.963V14.5613H10.8052V10.4086H11.601L12.9158 13.0354V10.4086H13.7087Z" fill="var(--svg-icon-fill_blue, #0094ff)"/><path d="M10.1977 12.1627V12.8558C10.1977 13.1486 10.1616 13.4053 10.0893 13.6258C10.019 13.8445 9.91821 14.028 9.78701 14.1763C9.65771 14.3227 9.50084 14.433 9.3164 14.5071C9.13387 14.5813 8.93136 14.6184 8.7089 14.6184C8.48643 14.6184 8.28298 14.5813 8.09854 14.5071C7.916 14.433 7.75818 14.3227 7.62508 14.1763C7.49388 14.028 7.39215 13.8445 7.3199 13.6258C7.24764 13.4053 7.21152 13.1486 7.21152 12.8558V12.1627C7.21152 11.8623 7.24669 11.5999 7.31705 11.3755C7.3874 11.1492 7.48913 10.961 7.62223 10.8108C7.75533 10.6586 7.91315 10.5446 8.09568 10.4685C8.27822 10.3905 8.48072 10.3516 8.70319 10.3516C8.92566 10.3516 9.12816 10.3905 9.3107 10.4685C9.49324 10.5446 9.65106 10.6586 9.78416 10.8108C9.91726 10.961 10.019 11.1492 10.0893 11.3755C10.1616 11.5999 10.1977 11.8623 10.1977 12.1627ZM9.36774 12.8558V12.157C9.36774 11.9592 9.35348 11.7909 9.32496 11.6521C9.29644 11.5114 9.25366 11.3964 9.19661 11.307C9.13957 11.2177 9.07017 11.1521 8.98841 11.1102C8.90665 11.0684 8.81157 11.0475 8.70319 11.0475C8.59481 11.0475 8.49879 11.0684 8.41512 11.1102C8.33336 11.1521 8.26396 11.2177 8.20692 11.307C8.15178 11.3964 8.10994 11.5114 8.08142 11.6521C8.0548 11.7909 8.04149 11.9592 8.04149 12.157V12.8558C8.04149 13.0459 8.05575 13.2085 8.08428 13.3435C8.1128 13.4785 8.15558 13.5888 8.21262 13.6743C8.26967 13.7599 8.33907 13.8236 8.42083 13.8654C8.50449 13.9053 8.60051 13.9253 8.7089 13.9253C8.81538 13.9253 8.9095 13.9053 8.99126 13.8654C9.07492 13.8236 9.14432 13.7599 9.19947 13.6743C9.25461 13.5888 9.29644 13.4785 9.32496 13.3435C9.35348 13.2085 9.36774 13.0459 9.36774 12.8558Z" fill="var(--svg-icon-fill_blue, #0094ff)"/><path d="M5.40041 12.7502H4.55046L4.54761 12.1456H5.27206C5.38614 12.1456 5.47932 12.1266 5.55157 12.0885C5.62573 12.0486 5.67992 11.9906 5.71414 11.9145C5.75027 11.8366 5.76833 11.7425 5.76833 11.6322C5.76833 11.5048 5.75217 11.4031 5.71985 11.327C5.68752 11.249 5.63523 11.192 5.56298 11.1559C5.49072 11.1197 5.3966 11.1017 5.28062 11.1017H4.83568V14.5613H4V10.4086H5.28062C5.48787 10.4086 5.67326 10.4314 5.83678 10.4771C6.00031 10.5227 6.13911 10.5921 6.2532 10.6853C6.36728 10.7784 6.4538 10.8963 6.51274 11.0389C6.57359 11.1815 6.60401 11.3498 6.60401 11.5438C6.60401 11.7149 6.56979 11.8727 6.50134 12.0172C6.43288 12.1617 6.32545 12.2796 6.17904 12.3709C6.03453 12.4622 5.84534 12.5135 5.61146 12.5249L5.40041 12.7502ZM5.37188 14.5613H4.31374L4.64744 13.8711H5.37188C5.48217 13.8711 5.57153 13.8473 5.63999 13.7998C5.70844 13.7523 5.75788 13.6886 5.7883 13.6087C5.81872 13.527 5.83393 13.4338 5.83393 13.3292C5.83393 13.2113 5.81967 13.1086 5.79115 13.0212C5.76453 12.9337 5.71985 12.8672 5.6571 12.8215C5.59435 12.774 5.50974 12.7502 5.40326 12.7502H4.68452L4.69022 12.1456H5.56298L5.75978 12.3851C5.98224 12.3775 6.16003 12.4203 6.29313 12.5135C6.42623 12.6048 6.5213 12.7246 6.57834 12.8729C6.63729 13.0193 6.66676 13.1752 6.66676 13.3406C6.66676 13.6068 6.61637 13.8312 6.5156 14.0137C6.41672 14.1944 6.27126 14.3313 6.07922 14.4244C5.88717 14.5157 5.65139 14.5613 5.37188 14.5613Z" fill="var(--svg-icon-fill_blue, #0094ff)"/></svg>