<?xml version="1.0" encoding="utf-8"?><svg xmlns="http://www.w3.org/2000/svg" viewBox="0 0 22 15" width="22" height="15"><path d="M21.5,1V14a.5.5,0,0,1-.5.5H1A.5.5,0,0,1,.5,14V1A.5.5,0,0,1,1,.5H21A.5.5,0,0,1,21.5,1Z" stroke="var(--svg-icon-stroke, #333)" fill="none"/><path d="M11,14.39c0-1,.49-3,2.44-3H22" stroke="var(--svg-icon-stroke, #333)" fill="none"/><path d="M11,14.39c0-1-.49-3-2.44-3H0" stroke="var(--svg-icon-stroke, #333)" fill="none"/><path d="M8.8,8.08H2.2" stroke="var(--svg-icon-stroke_blue, #0094ff)" fill="none"/><path d="M19.8,8.08H13.2" stroke="var(--svg-icon-stroke_blue, #0094ff)" fill="none"/><path d="M8.8,5.77H2.2" stroke="var(--svg-icon-stroke_blue, #0094ff)" fill="none"/><path d="M19.8,5.77H13.2" stroke="var(--svg-icon-stroke_blue, #0094ff)" fill="none"/><path d="M8.8,3.46H2.2" stroke="var(--svg-icon-stroke_blue, #0094ff)" fill="none"/><path d="M19.8,3.46H13.2" stroke="var(--svg-icon-stroke_blue, #0094ff)" fill="none"/></svg>