<?xml version="1.0" encoding="utf-8"?><svg xmlns="http://www.w3.org/2000/svg" viewBox="0 0 22.16 23.11" width="22.16" height="23.11"><path d="M5.71,22.4l-5-5,.58-.58a2,2,0,0,1,2.83,0L6.29,19a2,2,0,0,1,0,2.83Z" stroke="var(--svg-icon-stroke, #333)" fill="none"/><path d="M6.71,19.4,8.12,18a2,2,0,0,1,1.42-.59h5.54a2,2,0,0,0,1.14-.35l4.89-3.39a1.28,1.28,0,0,0,.29-1.83h0a1.28,1.28,0,0,0-1.69-.33l-4,2.4m-12,2.5L6,12.9A2,2,0,0,1,7.9,12l3.81.38h2.75a1.25,1.25,0,0,1,1.25,1.25h0a1.25,1.25,0,0,1-1.25,1.25H11.71" stroke="var(--svg-icon-stroke, #333)" fill="none"/><path d="M9.71,6.09V2.9a5.2,5.2,0,0,0,4-2,5.18,5.18,0,0,0,4,2V5.38a5.33,5.33,0,0,1-2.38,4.44L13.71,10.9,11.49,9.42A4,4,0,0,1,9.71,6.09Z" stroke="var(--svg-icon-stroke_blue, #0094ff)" fill="none"/></svg>