<?xml version="1.0" encoding="utf-8"?><svg width="24" height="24" fill="none" xmlns="http://www.w3.org/2000/svg" viewBox="0 0 24 24"><path d="M5 14.6538H7.88462L12.5 18.6923V6L7.88462 10.0385H5V14.6538Z" fill="var(--svg-icon-fill, #333)" stroke="var(--svg-icon-stroke, #333)"/><path d="M14.231 6C17.4649 6.2918 20.0001 9.00857 20.0005 12.3184L19.9917 12.6455C19.8314 15.8062 17.358 18.3555 14.231 18.6377V17.6328C16.9119 17.3447 19.0005 15.0758 19.0005 12.3184C19.0001 9.56127 16.9117 7.29187 14.231 7.00391V6Z" fill="var(--svg-icon-fill_blue, #0094ff)"/><path d="M14.231 8.52783C16.1714 8.70292 17.6919 10.3338 17.6919 12.3198C17.6916 14.3057 16.1713 15.9348 14.231 16.1099V15.103C15.6178 14.9322 16.6917 13.7528 16.6919 12.3198C16.6919 10.8866 15.618 9.7055 14.231 9.53467V8.52783Z" fill="var(--svg-icon-fill, #333)"/></svg>