<?xml version="1.0" encoding="utf-8"?><svg xmlns="http://www.w3.org/2000/svg" viewBox="0 0 21 21" width="21" height="21"><rect x="15.5" y=".5" width="5" height="5" rx="1" stroke="var(--svg-icon-stroke_blue, #0094ff)" fill="none"/><rect x="15.5" y="15.5" width="5" height="5" rx="1" stroke="var(--svg-icon-stroke_blue, #0094ff)" fill="none"/><rect x=".5" y=".5" width="5" height="5" rx="1" stroke="var(--svg-icon-stroke_blue, #0094ff)" fill="none"/><rect x=".5" y="15.5" width="5" height="5" rx="1" stroke="var(--svg-icon-stroke_blue, #0094ff)" fill="none"/><path stroke="var(--svg-icon-stroke_blue, #0094ff)" fill="none" d="M2.5 2.5H3.5V3.5H2.5z"/><path stroke="var(--svg-icon-stroke_blue, #0094ff)" fill="none" d="M2.5 17.5H3.5V18.5H2.5z"/><path stroke="var(--svg-icon-stroke_blue, #0094ff)" fill="none" d="M17.5 2.5H18.5V3.5H17.5z"/><path stroke="var(--svg-icon-stroke_blue, #0094ff)" fill="none" d="M17.5 17.5H18.5V18.5H17.5z"/><path stroke="var(--svg-icon-stroke, #333)" fill="none" d="M7.5 1.5H11.5V2.5H7.5z"/><path stroke="var(--svg-icon-stroke, #333)" fill="none" d="M9.5 18.5H13.5V19.5H9.5z"/><path stroke="var(--svg-icon-stroke, #333)" fill="none" d="M11.5 3.5H13.5V4.5H11.5z"/><path stroke="var(--svg-icon-stroke, #333)" fill="none" d="M7.5 16.5H9.5V17.5H7.5z"/><path stroke="var(--svg-icon-stroke, #333)" fill="none" d="M6.5 5.5H8.5V6.5H6.5z"/><path stroke="var(--svg-icon-stroke, #333)" fill="none" d="M7.5 8.5H9.5V9.5H7.5z"/><path stroke="var(--svg-icon-stroke, #333)" fill="none" d="M12.5 14.5H14.5V15.5H12.5z"/><path stroke="var(--svg-icon-stroke, #333)" fill="none" d="M16.5 7.5H20.5V8.5H16.5z"/><path stroke="var(--svg-icon-stroke, #333)" fill="none" d="M2.5 12.5H6.5V13.5H2.5z"/><path stroke="var(--svg-icon-stroke, #333)" fill="none" d="M16.5 12.5H20.5V13.5H16.5z"/><path stroke="var(--svg-icon-stroke, #333)" fill="none" d="M0.5 8.5H4.5V9.5H0.5z"/><path stroke="var(--svg-icon-stroke, #333)" fill="none" d="M12.5 9.5H19.5V10.5H12.5z"/><path stroke="var(--svg-icon-stroke, #333)" fill="none" d="M3.5 11.5H10.5V12.5H3.5z"/><path stroke="var(--svg-icon-stroke, #333)" fill="none" d="M10.5 2.5H11.5V6.5H10.5z"/><path stroke="var(--svg-icon-stroke, #333)" fill="none" d="M9.5 14.5H10.5V18.5H9.5z"/></svg>