<?xml version="1.0" encoding="utf-8"?><svg xmlns="http://www.w3.org/2000/svg" viewBox="0 0 19 17.91" width="19" height="17.91"><circle cx="4.74" cy="15.79" r="1.62" stroke="var(--svg-icon-stroke, #333)" fill="none"/><circle cx="14.26" cy="15.79" r="1.62" stroke="var(--svg-icon-stroke, #333)" fill="none"/><path d="M6.32,15.79h6.36m3.17,0,2.65-.26V14.4a1,1,0,0,0-.68-1l-2.43-.81-.13-.05-4-2a1,1,0,0,0-.45-.11H5.09a1,1,0,0,0-.63.22L2.23,12.51a.92.92,0,0,1-.31.16l-.74.25a1,1,0,0,0-.68.95v1.92H3.15" stroke="var(--svg-icon-stroke, #333)" fill="none"/><path stroke="var(--svg-icon-stroke, #333)" fill="none" d="M2.5 0.5H16.5V8.5H2.5z"/><path d="M9.76,6H8.88V6.5H8.06V6H7.5V5.3h.56V5.09H7.5V4.42h.56V2.5H9.61a1.77,1.77,0,0,1,.79.16,1.16,1.16,0,0,1,.53.47,1.2,1.2,0,0,1,.19.68,1.16,1.16,0,0,1-.4.94,1.67,1.67,0,0,1-1.12.34H8.88V5.3h.88ZM8.88,4.42h.71c.46,0,.7-.2.7-.6a.63.63,0,0,0-.18-.47.66.66,0,0,0-.49-.18H8.88Z" fill="var(--svg-icon-fill_blue, #0094ff)"/></svg>