<?xml version="1.0" encoding="utf-8"?><svg width="24" height="24" fill="none" xmlns="http://www.w3.org/2000/svg" viewBox="0 0 24 24"><path d="M12.3597 17.2288C11.2508 17.2288 10.2959 16.967 9.49505 16.4433C8.69417 15.9197 8.07811 15.1984 7.64686 14.2794C7.21562 13.3605 7 12.3106 7 11.1298C7 9.92849 7.22076 8.86835 7.66227 7.9494C8.10891 7.0253 8.73011 6.304 9.52585 5.78548C10.3267 5.26183 11.2611 5 12.3289 5C13.1606 5 13.9102 5.15401 14.5776 5.46205C15.245 5.77008 15.7917 6.20132 16.2178 6.75578C16.6439 7.31023 16.9083 7.9571 17.011 8.69637H15.1936C15.055 8.15732 14.747 7.67987 14.2695 7.26403C13.7972 6.84305 13.1606 6.63256 12.3597 6.63256C11.6513 6.63256 11.0301 6.81738 10.4961 7.18702C9.96736 7.55152 9.55409 8.06747 9.25633 8.73487C8.9637 9.39714 8.81738 10.1749 8.81738 11.0682C8.81738 11.982 8.96113 12.7778 9.24862 13.4554C9.54125 14.1331 9.95196 14.6593 10.4807 15.0341C11.0147 15.4089 11.641 15.5963 12.3597 15.5963C12.832 15.5963 13.2607 15.5141 13.6458 15.3498C14.0308 15.1856 14.3568 14.9494 14.6238 14.6414C14.8907 14.3333 15.0807 13.9637 15.1936 13.5325H17.011C16.9083 14.2307 16.6542 14.8596 16.2486 15.4191C15.8482 15.9736 15.3168 16.4151 14.6546 16.7437C13.9974 17.0671 13.2325 17.2288 12.3597 17.2288Z" fill="var(--svg-icon-fill, #333)"/><path fill="var(--svg-icon-fill_blue, #0094ff)" d="M7 17.873H17.139V19H7z"/></svg>