<?xml version="1.0" encoding="utf-8"?><svg xmlns="http://www.w3.org/2000/svg" viewBox="0 0 15.23 18.5" width="15.23" height="18.5"><path d="M1.65,13.22l9.73,1.52a1,1,0,0,1,.85,1V17a1,1,0,0,1-1,1H2.08a1,1,0,0,1-1-.8L.52,14.42A1,1,0,0,1,1.65,13.22Z" stroke="var(--svg-icon-stroke, #333)" fill="none" stroke-linecap="round" stroke-linejoin="round"/><path d="M11.23,7.15l-2.9,5.9a.63.63,0,0,0-.08.44c.12.48.71.34,2.48,1,1.6.61,1.83-.73,2-1.24.5-2,1.5-5.43,1.5-5.73S13.73,6,12.73,6A1.82,1.82,0,0,0,11.23,7.15Z" stroke="var(--svg-icon-stroke, #333)" fill="none" stroke-linecap="round" stroke-linejoin="round"/><path d="M13.23.5h0A1.5,1.5,0,0,1,14.73,2V4a1.5,1.5,0,0,1-1.5,1.5h0A1.5,1.5,0,0,1,11.73,4V2A1.5,1.5,0,0,1,13.23.5Z" stroke="var(--svg-icon-stroke_blue, #0094ff)" fill="none"/></svg>