<?xml version="1.0" encoding="utf-8"?><svg width="24" height="24" fill="none" xmlns="http://www.w3.org/2000/svg" viewBox="0 0 24 24"><circle cx="8.416" cy="17.857" r="1.208" stroke="var(--svg-icon-stroke, #333)"/><circle cx="16.102" cy="17.857" r="1.208" stroke="var(--svg-icon-stroke, #333)"/><path d="M9.69695 17.8567H14.8209M17.3829 17.8567L19.5179 17.6432V16.8695C19.5179 16.4391 19.2424 16.0569 18.8341 15.9208L17.0233 15.3172C16.9784 15.3023 16.9346 15.2841 16.8923 15.263L13.7511 13.6923C13.6122 13.6229 13.4591 13.5868 13.3038 13.5868H10.1239H8.76675C8.53968 13.5868 8.31936 13.664 8.14205 13.8059L6.42026 15.1833C6.32814 15.257 6.2237 15.3138 6.11179 15.3511L5.68377 15.4938C5.27543 15.6299 5 16.0121 5 16.4425V17.8567H7.13498" stroke="var(--svg-icon-stroke, #333)"/><path d="M12.1735 13.5868C10.2983 13.3341 7.11048 12.3742 9.36072 10.5553C11.611 8.73644 12.1735 11.8184 12.1735 13.5868Z" stroke="var(--svg-icon-stroke_blue, #0094ff)" stroke-linejoin="round"/><path d="M12.1735 13.5868C14.0487 13.3341 17.2366 12.3742 14.9863 10.5553C12.7361 8.73644 12.1735 11.8184 12.1735 13.5868Z" stroke="var(--svg-icon-stroke_blue, #0094ff)" stroke-linejoin="round"/><path d="M12 18L12 14" stroke="var(--svg-icon-stroke_blue, #0094ff)"/><path d="M2 22V7C2.98039 5.33333 6.35294 2 12 2C17.6471 2 21.0196 5.33333 22 7V22" stroke="var(--svg-icon-stroke, #333)"/></svg>