<?xml version="1.0" encoding="utf-8"?><svg width="24" height="24" fill="none" xmlns="http://www.w3.org/2000/svg" viewBox="0 0 24 24"><path d="M2 11C3.83333 11.3333 8.4 12 12 12C15.6 12 20.1667 11.3333 22 11M5.5 10V6C5.83333 5.33333 7.6 4 12 4C16.4 4 17.6667 5.33333 18 6V10" stroke="var(--svg-icon-stroke, #333)"/><path d="M12.28 14.4C8.696 14.4 5.93333 14.1333 5 14C5.18667 15.3333 6.232 18 8.92 18C11 18 12.28 14.8 12.28 14.4ZM12.28 14.4C15.864 14.4 18.2533 14.1333 19 14C19 15.3333 18.328 18 15.64 18C13.5 18 12.28 15.6 12.28 14.4Z" stroke="var(--svg-icon-stroke_blue, #0094ff)"/></svg>