<?xml version="1.0" encoding="utf-8"?><svg width="24" height="24" fill="none" xmlns="http://www.w3.org/2000/svg" viewBox="0 0 24 24"><path d="M11.9336 2.5C14.4357 2.5 16.7794 3.47977 18.5547 5.25586C19.4263 6.13036 20.1168 7.16886 20.5869 8.31055C21.057 9.45214 21.297 10.6756 21.2939 11.9102V11.9111C21.2939 17.1002 17.0933 21.3223 11.9434 21.3223C10.3782 21.3222 8.84125 20.9257 7.47168 20.1729L7.29688 20.0762L7.10254 20.1279L2.71094 21.293L3.88379 16.9932L3.93848 16.793L3.83496 16.6133C3.01431 15.1821 2.58271 13.5609 2.58301 11.9111C2.58301 6.7226 6.78417 2.5 11.9336 2.5Z" stroke="var(--svg-icon-stroke, #333)"/><path d="M7.20605 6.98926C7.82708 6.33665 8.82334 6.33659 9.44434 6.98926L10.1211 7.70117C10.6885 8.29765 10.6884 9.27456 10.1211 9.87109L10.1055 9.88867L9.62012 10.4502L9.4043 10.7002L9.54883 10.9971C10.3228 12.58 11.6129 13.8272 13.1875 14.4521L13.5146 14.582L13.7471 14.3184L14.3545 13.627C14.9086 13.0482 15.7938 13.05 16.3467 13.6309L17.0244 14.3428C17.6588 15.0098 17.6588 16.1015 17.0244 16.7686C16.3854 17.4404 15.4827 17.6457 14.6836 17.3994L14.626 17.3818L14.5664 17.3779C10.6394 17.1413 7.36809 13.9321 6.64062 9.66309L6.63477 9.62891L6.625 9.5957L6.57715 9.42773C6.36839 8.57915 6.58277 7.64451 7.20605 6.98926Z" stroke="var(--svg-icon-stroke_blue, #0094ff)"/></svg>