<?xml version="1.0" encoding="utf-8"?><svg viewBox="0 0 24 24" xmlns="http://www.w3.org/2000/svg" width="24" height="24"><path d="M16.7821 6.22232C18.1437 7.34928 19.0635 8.92089 19.3793 10.6599C19.6951 12.3989 19.3866 14.1936 18.5082 15.7273C17.6298 17.2611 16.238 18.4353 14.5783 19.0429C12.9185 19.6505 11.0975 19.6524 9.4365 19.0483C7.77549 18.4442 6.3812 17.2729 5.4996 15.741C4.618 14.2091 4.30574 12.415 4.6179 10.6754C4.93007 8.93569 5.84661 7.36215 7.20582 6.23235C8.56503 5.10254 10.2796 4.48907 12.047 4.50015" stroke="var(--svg-icon-stroke, #333)" fill="none"/><path d="M12 6.5V12.5H15.5" stroke="var(--svg-icon-stroke_blue, #0094ff)" fill="none"/><path d="M16 8.73205L16.7321 6L19.4641 6.73205" stroke="var(--svg-icon-stroke, #333)" fill="none"/></svg>