<?xml version="1.0" encoding="utf-8"?><svg width="24" height="24" fill="none" xmlns="http://www.w3.org/2000/svg" viewBox="0 0 24 24"><path d="M12 4.5C16.2485 4.5 19.4998 7.59503 19.5 11.7598C19.5 15.9247 16.2487 19.0205 12 19.0205C11.2351 19.0205 10.5034 18.919 9.81738 18.7305H9.81836C9.56461 18.66 9.29504 18.6809 9.05566 18.7861L9.03418 18.7949L9.01367 18.8066L7.88574 19.4346L6.78906 20.0449C6.75725 20.0572 6.70492 20.07 6.63477 20.0713C6.55952 20.0727 6.48296 20.0618 6.41895 20.041C6.37261 20.026 6.34426 20.0082 6.32812 19.9971C6.3051 19.4318 6.16922 18.9135 5.99121 18.4004C5.82087 17.9095 5.56753 17.3089 5.36133 16.7471C4.92667 15.5627 4.5 14.058 4.5 11.7598C4.50017 7.59503 7.75146 4.5 12 4.5Z" stroke="var(--svg-icon-stroke, #333)"/><path d="M12 8.5C14.0123 8.5 15.5 9.90368 15.5 11.7461C15.5 13.5885 14.0124 14.9922 12 14.9922C11.638 14.9922 11.2922 14.9459 10.9697 14.8604C10.8027 14.816 10.6271 14.8267 10.4668 14.8867V14.8857L9.42676 15.2393C9.15152 14.6944 8.95435 14.4199 8.7832 13.9385C8.62074 13.4814 8.5 12.8535 8.5 11.7461C8.50003 9.90368 9.98767 8.5 12 8.5Z" stroke="var(--svg-icon-stroke_blue, #0094ff)"/></svg>