<?xml version="1.0" encoding="utf-8"?><svg xmlns="http://www.w3.org/2000/svg" viewBox="0 0 23.25 14.13" width="23.25" height="14.13"><path d="M.5,11.5c0,1.13,1.1,1.08,1.45,1.13-.1-.9-.32-2.69,2.05-2.58,1.53.07,1.61,1.47,1.53,2.47H8c.43,0,1.36-.09,1.5-.52s.21-.05.21-1.53,0-4.77,0-6A16.2,16.2,0,0,0,9.5,1C9.31.45,8.89.64,8,.64H6S5,.5,4,2,1.5,6,1.5,6Z" stroke="var(--svg-icon-stroke, #333)" fill="none"/><path d="M1.5,6a26.5,26.5,0,0,0,5-.89c1-.5,1-.5,1.5-1.61A7,7,0,0,0,8.5,1" stroke="var(--svg-icon-stroke, #333)" fill="none"/><circle cx="3.76" cy="11.85" r="1.79" stroke="var(--svg-icon-stroke, #333)" fill="none"/><circle cx="17.79" cy="11.79" r="1.79" stroke="var(--svg-icon-stroke, #333)" fill="none"/><path d="M16.53,2.5l1.41,1.75L16.53,6" stroke="var(--svg-icon-stroke_blue, #0094ff)" fill="none"/><path d="M17.41,4.24H12.5" stroke="var(--svg-icon-stroke_blue, #0094ff)" fill="none"/><path d="M22.5,7c0-.91-.09-5.22-.26-5.8A1.3,1.3,0,0,0,21,.51H10" stroke="var(--svg-icon-stroke_blue, #0094ff)" fill="none" stroke-dasharray="1 1"/><path d="M10,8.45l12.75.05v3.78H20s-.06-2.7-2.28-2.7-2,2.8-2,2.8H9.5Z" stroke="var(--svg-icon-stroke, #333)" fill="none"/></svg>