<?xml version="1.0" encoding="utf-8"?><svg width="24" height="24" fill="none" xmlns="http://www.w3.org/2000/svg" viewBox="0 0 24 24"><path d="M5.5 3.5H14.7929L18.5 7.20711V20.5H5.5V3.5Z" stroke="var(--svg-icon-stroke, #333)"/><path d="M15.8284 9.17157C16.5786 9.92172 17 10.9391 17 12L14.7951 12C14.7951 11.5239 14.6059 11.0673 14.2693 10.7307L15.8284 9.17157Z" stroke="var(--svg-icon-stroke_blue, #0094ff)"/><path d="M15.8284 13.7307C15.6402 14.3927 15.3027 15.0026 14.8418 15.5137C14.381 16.0247 13.809 16.4233 13.17 16.6786C12.531 16.934 11.8419 17.0395 11.1557 16.9868C10.4696 16.9342 9.80466 16.7249 9.21207 16.375C8.61949 16.0251 8.11504 15.544 7.73753 14.9686C7.36003 14.3932 7.11951 13.7389 7.03448 13.056C6.94945 12.3731 7.02218 11.6798 7.24707 11.0294C7.47196 10.379 7.84302 9.7889 8.33171 9.30438L10.0782 11.0659C9.85888 11.2834 9.69236 11.5482 9.59144 11.8401C9.49052 12.1319 9.45788 12.4431 9.49604 12.7495C9.53419 13.056 9.64213 13.3496 9.81154 13.6078C9.98095 13.866 10.2073 14.0819 10.4733 14.2389C10.7392 14.396 11.0376 14.4899 11.3455 14.5135C11.6534 14.5371 11.9627 14.4898 12.2494 14.3752C12.5362 14.2606 12.7929 14.0818 12.9997 13.8524C13.2065 13.6231 13.358 13.3494 13.4424 13.0523L15.8284 13.7307Z" stroke="var(--svg-icon-stroke_blue, #0094ff)"/><path d="M8.31802 9.31802C8.99224 8.6438 9.8632 8.20116 10.8053 8.05395C11.7473 7.90675 12.7118 8.06258 13.5596 8.49898L12.4243 10.7045C12.0438 10.5086 11.611 10.4387 11.1882 10.5048C10.7655 10.5708 10.3746 10.7695 10.072 11.072L8.31802 9.31802Z" stroke="var(--svg-icon-stroke_blue, #0094ff)"/></svg>