<?xml version="1.0" encoding="utf-8"?><svg width="24" height="24" fill="none" xmlns="http://www.w3.org/2000/svg" viewBox="0 0 24 24"><path d="M17.7777 7.2179C16.6507 5.85633 15.0791 4.9365 13.3401 4.62069C11.6011 4.30489 9.8064 4.61339 8.27266 5.49178C6.73892 6.37017 5.56468 7.762 4.95709 9.42175C4.34949 11.0815 4.34759 12.9025 4.95171 14.5635C5.55582 16.2245 6.72715 17.6188 8.25904 18.5004C9.79094 19.382 11.585 19.6943 13.3246 19.3821C15.0643 19.0699 16.6378 18.1534 17.7677 16.7942C18.8975 15.435 19.5109 13.7204 19.4999 11.953" stroke="var(--svg-icon-stroke, #333)"/><path d="M15.2679 8L18 7.26795L17.2679 4.5359" stroke="var(--svg-icon-stroke, #333)"/><path d="M9 12L11 14L15 10" stroke="var(--svg-icon-stroke_blue, #0094ff)"/></svg>