<?xml version="1.0" encoding="utf-8"?><svg width="24" height="24" fill="none" xmlns="http://www.w3.org/2000/svg" viewBox="0 0 24 24"><path d="M5.5 3.5H14.7929L18.5 7.20711V20.5H5.5V3.5Z" stroke="var(--svg-icon-stroke, #333)"/><path d="M8 15L13 10H15.5L10.5 15H8Z" stroke="var(--svg-icon-stroke_blue, #0094ff)" stroke-linejoin="round"/><path d="M15.5 15V15.5C15.7022 15.5 15.8845 15.3782 15.9619 15.1913C16.0393 15.0045 15.9966 14.7894 15.8536 14.6464L15.5 15ZM13 12.5L13.3536 12.1464C13.1583 11.9512 12.8417 11.9512 12.6464 12.1464L13 12.5ZM13 15L12.6464 15.3536C12.7402 15.4473 12.8674 15.5 13 15.5V15ZM11.75 13.75L11.3964 13.3964C11.2012 13.5917 11.2012 13.9083 11.3964 14.1036L11.75 13.75ZM11.75 11.25L12.1036 11.6036C12.2988 11.4083 12.2988 11.0917 12.1036 10.8964L11.75 11.25ZM10.5 10L10.8536 9.64645C10.7598 9.55268 10.6326 9.5 10.5 9.5V10ZM8 10V9.5C7.79777 9.5 7.61545 9.62182 7.53806 9.80866C7.46067 9.9955 7.50345 10.2106 7.64645 10.3536L8 10ZM10.5 12.5L10.1464 12.8536C10.3417 13.0488 10.6583 13.0488 10.8536 12.8536L10.5 12.5ZM15.8536 14.6464L13.3536 12.1464L12.6464 12.8536L15.1464 15.3536L15.8536 14.6464ZM13 15.5H15.5V14.5H13V15.5ZM11.3964 14.1036L12.6464 15.3536L13.3536 14.6464L12.1036 13.3964L11.3964 14.1036ZM12.6464 12.1464L11.3964 13.3964L12.1036 14.1036L13.3536 12.8536L12.6464 12.1464ZM12.1036 10.8964L10.8536 9.64645L10.1464 10.3536L11.3964 11.6036L12.1036 10.8964ZM10.5 9.5H8V10.5H10.5V9.5ZM7.64645 10.3536L10.1464 12.8536L10.8536 12.1464L8.35355 9.64645L7.64645 10.3536ZM10.8536 12.8536L12.1036 11.6036L11.3964 10.8964L10.1464 12.1464L10.8536 12.8536Z" fill="var(--svg-icon-fill_blue, #0094ff)"/></svg>