<?xml version="1.0" encoding="utf-8"?><svg width="24" height="24" fill="none" xmlns="http://www.w3.org/2000/svg" viewBox="0 0 24 24"><path d="M20.2855 8.48576C20.747 9.57383 20.9897 10.7421 20.9997 11.924C21.0097 13.1059 20.7868 14.2781 20.3438 15.3738L16.5891 13.8557C16.8327 13.253 16.9553 12.6083 16.9498 11.9583C16.9443 11.3082 16.8108 10.6657 16.557 10.0672L20.2855 8.48576Z" stroke="var(--svg-icon-stroke, #333)"/><path d="M8.48561 3.71467C9.57368 3.25316 10.742 3.01047 11.9238 3.00047C13.1057 2.99047 14.2779 3.21335 15.3737 3.65639L13.8555 7.41108C13.2529 7.16741 12.6081 7.04482 11.9581 7.05032C11.3081 7.05582 10.6655 7.1893 10.0671 7.44314L8.48561 3.71467Z" stroke="var(--svg-icon-stroke, #333)"/><path d="M3.71452 15.5145C3.253 14.4265 3.01032 13.2582 3.00032 12.0763C2.99032 10.8944 3.2132 9.72219 3.65623 8.62647L7.41093 10.1446C7.16726 10.7473 7.04467 11.392 7.05017 12.042C7.05567 12.6921 7.18915 13.3346 7.44298 13.9331L3.71452 15.5145Z" stroke="var(--svg-icon-stroke, #333)"/><path d="M15.5144 20.2856C14.4263 20.7471 13.258 20.9898 12.0761 20.9998C10.8943 21.0098 9.72204 20.7869 8.62632 20.3439L10.1445 16.5892C10.7471 16.8329 11.3919 16.9555 12.0419 16.95C12.6919 16.9445 13.3345 16.811 13.9329 16.5572L15.5144 20.2856Z" stroke="var(--svg-icon-stroke, #333)"/><path d="M20.3438 15.3738C19.9007 16.4695 19.2462 17.4673 18.4176 18.31C17.5889 19.1528 16.6024 19.8241 15.5144 20.2856L13.9329 16.5572C14.5313 16.3033 15.0739 15.9341 15.5297 15.4706C15.9854 15.0071 16.3454 14.4583 16.5891 13.8557L20.3438 15.3738Z" stroke="var(--svg-icon-stroke_blue, #4A8DC6)" fill="var(--svg-icon-fill_blue, #4A8DC6)"/><path d="M3.65623 8.62647C4.09927 7.53076 4.75379 6.53303 5.58241 5.69026C6.41104 4.84749 7.39755 4.17619 8.48561 3.71467L10.0671 7.44314C9.46865 7.69697 8.92607 8.06619 8.47033 8.52971C8.01458 8.99323 7.6546 9.54198 7.41093 10.1446L3.65623 8.62647Z" stroke="var(--svg-icon-stroke_blue, #4A8DC6)" fill="var(--svg-icon-fill_blue, #4A8DC6)"/><path d="M8.62632 20.3439C6.41342 19.4492 4.64659 17.712 3.71452 15.5145L7.44298 13.9331C7.95562 15.1417 8.92738 16.0971 10.1445 16.5892L8.62632 20.3439Z" stroke="var(--svg-icon-stroke_blue, #4A8DC6)" fill="var(--svg-icon-fill_blue, #4A8DC6)"/><path d="M15.3737 3.65639C16.4694 4.09942 17.4671 4.75394 18.3099 5.58257C19.1527 6.41119 19.824 7.3977 20.2855 8.48577L16.557 10.0672C16.3032 9.4688 15.934 8.92622 15.4704 8.47048C15.0069 8.01473 14.4582 7.65475 13.8555 7.41108L15.3737 3.65639Z" stroke="var(--svg-icon-stroke_blue, #4A8DC6)" fill="var(--svg-icon-fill_blue, #4A8DC6)"/></svg>