<?xml version="1.0" encoding="utf-8"?><svg xmlns="http://www.w3.org/2000/svg" viewBox="0 0 20.5 16.41" width="20.5" height="16.41"><circle cx="4.74" cy="14.29" r="1.62" fill="none" stroke="var(--svg-icon-stroke, #333)"/><circle cx="14.26" cy="14.29" r="1.62" fill="none" stroke="var(--svg-icon-stroke, #333)"/><path d="M6.32,14.29h6.36m3.17,0L18.5,14V12.9a1,1,0,0,0-.68-1l-2.43-.81-.13-.05-4-2A1,1,0,0,0,10.85,9H5.09a1,1,0,0,0-.63.22L2.23,11a.92.92,0,0,1-.31.16l-.74.25a1,1,0,0,0-.68.95v1.92H3.15" fill="none" stroke="var(--svg-icon-stroke, #333)"/><path d="M18.26,6.93A6.55,6.55,0,0,0,19,4.27h.91A3.42,3.42,0,0,1,18.26,6.93ZM13.09,4.27h1A5.53,5.53,0,0,0,15,7.07,3.42,3.42,0,0,1,13.09,4.27ZM14.86,1a6.59,6.59,0,0,0-.8,2.73h-1A3.45,3.45,0,0,1,14.86,1Zm5.05,2.73H19A5.55,5.55,0,0,0,18,1,3.43,3.43,0,0,1,19.91,3.73Zm-3.14.54h1.68a6.37,6.37,0,0,1-1,3,4.5,4.5,0,0,1-.64.11Zm-.54-.54H14.61a6.2,6.2,0,0,1,1.09-3,4.51,4.51,0,0,1,.53-.09ZM17.12.64a5.43,5.43,0,0,1,1.33,3.09H16.77V.59ZM15.91,7.37a5.43,5.43,0,0,1-1.31-3.1h1.63V7.41ZM16.5,0a4,4,0,1,0,4,4A4,4,0,0,0,16.5,0Z" fill="var(--svg-icon-fill_blue, #0094ff)"/></svg>