<?xml version="1.0" encoding="utf-8"?><svg width="24" height="24" fill="none" xmlns="http://www.w3.org/2000/svg" viewBox="0 0 24 24"><path d="M11.1 20V4H12.125V20H11.1ZM14.55 8.8C14.475 8.16667 14.1708 7.675 13.6375 7.325C13.1042 6.975 12.45 6.8 11.675 6.8C11.1083 6.8 10.6125 6.89167 10.1875 7.075C9.76667 7.25833 9.4375 7.51042 9.2 7.83125C8.96667 8.15208 8.85 8.51667 8.85 8.925C8.85 9.26667 8.93125 9.56042 9.09375 9.80625C9.26042 10.0479 9.47292 10.25 9.73125 10.4125C9.98958 10.5708 10.2604 10.7021 10.5437 10.8063C10.8271 10.9063 11.0875 10.9875 11.325 11.05L12.625 11.4C12.9583 11.4875 13.3292 11.6083 13.7375 11.7625C14.15 11.9167 14.5437 12.1271 14.9187 12.3938C15.2979 12.6562 15.6104 12.9937 15.8562 13.4062C16.1021 13.8188 16.225 14.325 16.225 14.925C16.225 15.6167 16.0437 16.2417 15.6812 16.8C15.3229 17.3583 14.7979 17.8021 14.1062 18.1312C13.4187 18.4604 12.5833 18.625 11.6 18.625C10.6833 18.625 9.88958 18.4771 9.21875 18.1813C8.55208 17.8854 8.02708 17.4729 7.64375 16.9438C7.26458 16.4146 7.05 15.8 7 15.1H8.6C8.64167 15.5833 8.80417 15.9833 9.0875 16.3C9.375 16.6125 9.7375 16.8458 10.175 17C10.6167 17.15 11.0917 17.225 11.6 17.225C12.1917 17.225 12.7229 17.1292 13.1937 16.9375C13.6646 16.7417 14.0375 16.4708 14.3125 16.125C14.5875 15.775 14.725 15.3667 14.725 14.9C14.725 14.475 14.6062 14.1292 14.3687 13.8625C14.1312 13.5958 13.8187 13.3792 13.4312 13.2125C13.0437 13.0458 12.625 12.9 12.175 12.775L10.6 12.325C9.6 12.0375 8.80833 11.6271 8.225 11.0938C7.64167 10.5604 7.35 9.8625 7.35 9C7.35 8.28333 7.54375 7.65833 7.93125 7.125C8.32292 6.5875 8.84792 6.17083 9.50625 5.875C10.1687 5.575 10.9083 5.425 11.725 5.425C12.55 5.425 13.2833 5.57292 13.925 5.86875C14.5667 6.16042 15.075 6.56042 15.45 7.06875C15.8292 7.57708 16.0292 8.15417 16.05 8.8H14.55Z" fill="var(--svg-icon-fill, #333)"/></svg>