<?xml version="1.0" encoding="utf-8"?><svg xmlns="http://www.w3.org/2000/svg" viewBox="0 0 19 7.91" width="19" height="7.91"><circle cx="4.74" cy="5.79" r="1.62" stroke="var(--svg-icon-stroke_blue, #0094ff)" fill="none"/><circle cx="14.26" cy="5.79" r="1.62" stroke="var(--svg-icon-stroke_blue, #0094ff)" fill="none"/><path d="M6.32,5.79h6.36m3.17,0,2.65-.26V4.4a1,1,0,0,0-.68-1l-2.43-.81-.13-.05-4-2A1,1,0,0,0,10.85.5H5.09a1,1,0,0,0-.63.22L2.23,2.51a.92.92,0,0,1-.31.16l-.74.25a1,1,0,0,0-.68,1V5.79H3.15" stroke="var(--svg-icon-stroke, #333)" fill="none"/></svg>