<?xml version="1.0" encoding="utf-8"?><svg xmlns="http://www.w3.org/2000/svg" viewBox="0 0 19 13" width="19" height="13"><path d="M.5,1.5a1,1,0,0,1,1-1h16a1,1,0,0,1,1,1h0a1,1,0,0,1-1,1H1.5a1,1,0,0,1-1-1Z" stroke="var(--svg-icon-stroke, #333)" fill="none"/><path d="M.5,11.5a1,1,0,0,1,1-1h16a1,1,0,0,1,1,1h0a1,1,0,0,1-1,1H1.5a1,1,0,0,1-1-1Z" stroke="var(--svg-icon-stroke_blue, #0094ff)" fill="none"/><path d="M.5,6.5a1,1,0,0,1,1-1h10a1,1,0,0,1,1,1h0a1,1,0,0,1-1,1H1.5a1,1,0,0,1-1-1Z" stroke="var(--svg-icon-stroke, #333)" fill="none"/></svg>