<?xml version="1.0" encoding="utf-8"?><svg xmlns="http://www.w3.org/2000/svg" viewBox="0 0 17.46 15.29" width="17.46" height="15.29"><path d="M1.75,7.16.68,7.69l1.07,2m8,2-5.07,3-1.93-3m5.5-8,4.56-3,1.94,3m1,4.68,1.06-.72-1.06-2" stroke="var(--svg-icon-stroke, #333)" fill="none"/><path stroke="var(--svg-icon-stroke, #333)" fill="none" d="M1.75 3.65H15.75V11.65H1.75z"/><path d="M9,9.12H8.13v.53H7.3V9.12H6.75V8.45H7.3v-.2H6.75V7.58H7.3V5.65H8.86a1.8,1.8,0,0,1,.79.17,1.25,1.25,0,0,1,.53.46,1.32,1.32,0,0,1,.19.69A1.16,1.16,0,0,1,10,7.9a1.64,1.64,0,0,1-1.11.35H8.13v.2H9ZM8.13,7.58h.71c.46,0,.69-.2.69-.61a.64.64,0,0,0-.17-.46.66.66,0,0,0-.49-.18H8.13Z" fill="var(--svg-icon-fill_blue, #0094ff)"/></svg>