<?xml version="1.0" encoding="utf-8"?><svg viewBox="0 0 24 24" xmlns="http://www.w3.org/2000/svg" width="24" height="24"><circle cx="8.416" cy="17.857" r="1.208" stroke="var(--svg-icon-stroke, #333)" fill="none"/><circle cx="16.102" cy="17.857" r="1.208" stroke="var(--svg-icon-stroke, #333)" fill="none"/><path d="M9.69695 17.8567H14.8209M17.3829 17.8567L19.5179 17.6432V16.8695C19.5179 16.4391 19.2424 16.057 18.8341 15.9208L17.0233 15.3172C16.9784 15.3023 16.9346 15.2842 16.8923 15.263L13.7511 13.6924C13.6122 13.6229 13.4591 13.5868 13.3038 13.5868H10.1239H8.76675C8.53968 13.5868 8.31936 13.6641 8.14205 13.8059L6.42026 15.1834C6.32814 15.2571 6.2237 15.3139 6.11179 15.3512L5.68377 15.4938C5.27543 15.63 5 16.0121 5 16.4425V17.8567H7.13498" stroke="var(--svg-icon-stroke, #333)" fill="none"/><path d="M2 22V7C2.98039 5.33333 6.35294 2 12 2C17.6471 2 21.0196 5.33333 22 7V22" stroke="var(--svg-icon-stroke, #333)" fill="none"/><path d="M4.5 10.5L12.2857 10.5L14.5714 12.5L18 11.6852L18 10.5L15.1429 10.5L14 8.64815L15.1429 6.77778L18 6.77778L18 5.59259L14.5714 5L12.2857 6.77778L4.5 6.77778" stroke="var(--svg-icon-stroke_blue, #0094ff)" fill="none"/></svg>