<?xml version="1.0" encoding="utf-8"?><svg width="24" height="24" fill="none" xmlns="http://www.w3.org/2000/svg" viewBox="0 0 24 24"><path d="M9.37765 7.33575C6.9576 9.75579 6.3778 11.1927 5.78539 12.2137L10.928 17.3562C12.0498 16.663 13.3858 16.184 15.8059 13.764C18.2259 11.3439 18.2007 7.08366 18.6419 4.49976C16.1588 4.84008 11.7977 4.9157 9.37765 7.33575Z" stroke="var(--svg-icon-stroke, #333)"/><circle cx="14.142" cy="9" r="1.818" transform="rotate(45 14.1421 8.99954)" stroke="var(--svg-icon-stroke_blue, #0094ff)"/><path d="M6.65513 17.7722C7.26014 17.1672 7.42652 16.8294 7.58534 16.5849L6.55682 15.5563C6.28708 15.7404 5.9745 15.8815 5.36948 16.4866C4.76447 17.0916 4.66364 18.0495 4.49978 18.6419C5.06698 18.5033 6.05012 18.3772 6.65513 17.7722Z" stroke="var(--svg-icon-stroke_blue, #0094ff)"/><path d="M14.1422 17.9991L15.1064 15.1064L11.5709 17.3563L11.5709 20.5704L14.1422 17.9991Z" stroke="var(--svg-icon-stroke, #333)"/><path d="M5.14258 8.99953L8.03529 8.03529L5.7854 11.5708L2.57128 11.5708L5.14258 8.99953Z" stroke="var(--svg-icon-stroke, #333)"/></svg>