<?xml version="1.0" encoding="utf-8"?><svg width="24" height="24" fill="none" xmlns="http://www.w3.org/2000/svg" viewBox="0 0 24 24"><path d="M4.33008 14.8607V7.13965" stroke="var(--svg-icon-stroke, #333)" stroke-linecap="round"/><path d="M4.33008 7.13965L10.9997 10.9905C11.3091 11.1691 11.6903 11.1691 11.9997 10.9905L18.6696 7.13965" stroke="var(--svg-icon-stroke, #333)" stroke-linecap="round"/><path d="M18.6693 7.13965V14.2834C18.6693 14.6407 18.4787 14.9708 18.1693 15.1494L11.9997 18.7114C11.6903 18.8901 11.3091 18.8901 10.9997 18.7114L4.33008 14.8607" stroke="var(--svg-icon-stroke, #333)" stroke-linecap="round"/><path d="M4.33008 7.13953L10.9997 3.28869C11.3091 3.11005 11.6903 3.11005 11.9997 3.28868L18.6696 7.13953M11.4997 11.5516V18.7212" stroke="var(--svg-icon-stroke, #333)" stroke-linecap="round"/><path d="M16.5259 18L18.6437 18.7512L18.3492 20.9789" stroke="var(--svg-icon-stroke_blue, #0094ff)"/><path d="M18.1846 19.0227L14 21.584" stroke="var(--svg-icon-stroke_blue, #0094ff)"/></svg>