<?xml version="1.0" encoding="utf-8"?><svg width="24" height="24" fill="none" xmlns="http://www.w3.org/2000/svg" viewBox="0 0 24 24"><path d="M16 3L8 6V11L16 14V3Z" stroke="var(--svg-icon-stroke, #333)"/><path d="M2 8C2 6.89543 2.89543 6 4 6H8V11H4C2.89543 11 2 10.1046 2 9V8Z" stroke="var(--svg-icon-stroke, #333)"/><path d="M4 17V11H6V17C6 17.5523 5.55228 18 5 18C4.44772 18 4 17.5523 4 17Z" stroke="var(--svg-icon-stroke, #333)"/><rect x="16" y="2" width="2" height="13" rx="1" stroke="var(--svg-icon-stroke_blue, #0094ff)"/><path fill-rule="evenodd" clip-rule="evenodd" d="M19.5 23C21.433 23 23 21.433 23 19.5C23 17.567 21.433 16 19.5 16C17.567 16 16 17.567 16 19.5C16 21.433 17.567 23 19.5 23ZM21.6 18.8H17.4V20.2H21.6V18.8Z" fill="var(--svg-icon-fill_blue, #0094ff)"/></svg>