<?xml version="1.0" encoding="utf-8"?><svg xmlns="http://www.w3.org/2000/svg" viewBox="0 0 18 19" width="18" height="19"><circle cx="13.5" cy="11.5" r="1.5" stroke="var(--svg-icon-stroke, #333)" fill="none"/><circle cx="4.5" cy="11.5" r="1.5" stroke="var(--svg-icon-stroke, #333)" fill="none"/><path d="M12,11.5H6m-3,0L.5,11.25v-1a1,1,0,0,1,.68-1l2.25-.75.13,0L7.29,6.61a1,1,0,0,1,.45-.11h5.41a1,1,0,0,1,.62.22l2.09,1.67a1.17,1.17,0,0,0,.31.17l.65.21a1,1,0,0,1,.68,1V11.5H15" stroke="var(--svg-icon-stroke, #333)" fill="none"/><path d="M3.5,3.5A7.66,7.66,0,0,1,9.41.5a7.79,7.79,0,0,1,6.09,3" stroke="var(--svg-icon-stroke_blue, #0094ff)" fill="none"/><path d="M15.5,1.5v2h-2" stroke="var(--svg-icon-stroke_blue, #0094ff)" fill="none"/><path d="M15.5,15.5a7.66,7.66,0,0,1-5.91,3,7.79,7.79,0,0,1-6.09-3" stroke="var(--svg-icon-stroke_blue, #0094ff)" fill="none"/><path d="M3.5,17.5v-2h2" stroke="var(--svg-icon-stroke_blue, #0094ff)" fill="none"/></svg>