<?xml version="1.0" encoding="utf-8"?><svg xmlns="http://www.w3.org/2000/svg" viewBox="0 0 19 17" width="19" height="17"><path d="M10.79,4.92l.08.22.21.07L14.56,6.5,11.08,7.79l-.21.08-.08.21L9.5,11.56,8.21,8.08l-.08-.21-.21-.08L4.44,6.5,7.92,5.21l.21-.07.08-.22L9.5,1.44Z" fill="none" stroke="var(--svg-icon-stroke_blue, #4A8DC6)"/><path d="M4,12.73l.08.21.21.08,1.29.48L4.27,14l-.21.08L4,14.27,3.5,15.56,3,14.27l-.08-.21L2.73,14,1.44,13.5,2.73,13l.21-.08L3,12.73l.48-1.29Z" fill="none" stroke="var(--svg-icon-stroke, #333)"/><path d="M16.5,9l.68,1.83L19,11.5l-1.82.68L16.5,14l-.67-1.82L14,11.5l1.83-.67Z" fill="var(--svg-icon-fill, #333)"/></svg>