<?xml version="1.0" encoding="utf-8"?><svg xmlns="http://www.w3.org/2000/svg" viewBox="0 0 17.89 17.87" width="17.89" height="17.87"><path d="M8,3.42A17.7,17.7,0,0,0,4.42,8.3l5.14,5.14a18.31,18.31,0,0,0,4.88-3.59c2.42-2.42,2.4-6.68,2.84-9.26C14.79.93,10.43,1,8,3.42Z" stroke="var(--svg-icon-stroke, #333)" fill="none"/><circle cx="12.78" cy="5.09" r="1.82" stroke="var(--svg-icon-stroke_blue, #0094ff)" fill="none"/><path d="M5.29,13.86a5.09,5.09,0,0,0,.93-1.19l-1-1A6,6,0,0,0,4,12.57a4.47,4.47,0,0,0-.87,2.16A4.32,4.32,0,0,0,5.29,13.86Z" stroke="var(--svg-icon-stroke_blue, #0094ff)" fill="none"/><path d="M12.78,14.09l1-2.9-3.53,2.25v3.22Z" stroke="var(--svg-icon-stroke, #333)" fill="none"/><path d="M3.78,5.09l2.89-1L4.42,7.66H1.21Z" stroke="var(--svg-icon-stroke, #333)" fill="none"/></svg>