<?xml version="1.0" encoding="utf-8"?><svg xmlns="http://www.w3.org/2000/svg" viewBox="0 0 14 18" width="14" height="18"><path d="M.5.5H9.79L13.5,4.21V17.5H.5Z" stroke="var(--svg-icon-stroke, #333)" fill="none"/><path d="M3,12,8,7h2.5l-5,5Z" stroke="var(--svg-icon-stroke_blue, #0094ff)" fill="none" stroke-linejoin="round"/><path d="M10.5,12v.5a.5.5,0,0,0,.46-.31.47.47,0,0,0-.11-.54ZM8,9.5l.35-.35a.48.48,0,0,0-.7,0ZM8,12l-.35.35A.47.47,0,0,0,8,12.5ZM6.75,10.75,6.4,10.4a.48.48,0,0,0,0,.7Zm0-2.5.35.35a.48.48,0,0,0,0-.7ZM5.5,7l.35-.35A.47.47,0,0,0,5.5,6.5ZM3,7V6.5a.5.5,0,0,0-.46.31.47.47,0,0,0,.11.54ZM5.5,9.5l-.35.35a.48.48,0,0,0,.7,0Zm5.35,2.15-2.5-2.5-.7.7,2.5,2.5ZM8,12.5h2.5v-1H8ZM6.4,11.1l1.25,1.25.7-.7L7.1,10.4ZM7.65,9.15,6.4,10.4l.7.7L8.35,9.85ZM7.1,7.9,5.85,6.65l-.7.7L6.4,8.6ZM5.5,6.5H3v1H5.5Zm-2.85.85,2.5,2.5.7-.7-2.5-2.5Zm3.2,2.5L7.1,8.6l-.7-.7L5.15,9.15Z" fill="var(--svg-icon-fill_blue, #0094ff)"/></svg>