<?xml version="1.0" encoding="utf-8"?><svg width="24" height="24" fill="none" xmlns="http://www.w3.org/2000/svg" viewBox="0 0 24 24"><path d="M1 15.9999C1 17.1313 2.10168 17.0813 2.44773 17.1312C2.34968 16.2338 2.125 14.4375 4.50003 14.5459C6.02782 14.6156 6.11015 16.0201 6.02941 17.0244H8.5C8.93257 16.9816 9.86136 16.9272 9.99979 16.4999C10.1382 16.0725 10.2074 16.4471 10.2074 14.9735C10.2074 13.4999 10.2247 10.1964 10.2074 8.99985C10.1901 7.80336 10.242 6.1837 9.99979 5.49998C9.80599 4.95301 9.38648 5.14426 8.5 5.14398H6.50021C6.50021 5.14398 5.50003 4.99998 4.50003 6.5C3.50003 8.00002 2 10.4999 2 10.4999L1 15.9999Z" stroke="var(--svg-icon-stroke, #333)"/><path d="M2 10.5C2 10.5 6 10.106 7 9.60596C8 9.10596 8 9.10596 8.5 8C9 6.89404 9 5.50586 9 5.50586" stroke="var(--svg-icon-stroke, #333)"/><circle cx="4.257" cy="16.346" r="1.786" stroke="var(--svg-icon-stroke, #333)"/><circle cx="18.286" cy="16.286" r="1.786" stroke="var(--svg-icon-stroke, #333)"/><path d="M17.0254 7L18.4396 8.74631L17.0254 10.4926" stroke="var(--svg-icon-stroke_blue, #0094ff)"/><path d="M17.9062 8.73828H13" stroke="var(--svg-icon-stroke_blue, #0094ff)"/><path d="M23 11.5C23 10.5883 22.9127 6.28175 22.7381 5.69828C22.5984 5.23151 21.8262 4.92924 21.4576 5.01433L10.5 5.01433" stroke="var(--svg-icon-stroke_blue, #0094ff)" stroke-dasharray="1 1"/><path d="M10.5 12.9515L23.25 13V16.785H20.5C20.5 16.785 20.4376 14.0766 18.2188 14.0766C16 14.0766 16.1875 16.8752 16.1875 16.8752L10 16.8653L10.5 12.9515Z" stroke="var(--svg-icon-stroke, #333)"/></svg>