<?xml version="1.0" encoding="utf-8"?><svg width="24" height="24" fill="none" xmlns="http://www.w3.org/2000/svg" viewBox="0 0 24 24"><path d="M13.125 13.5H5V11.7812H13.125C13.875 11.7812 14.4948 11.651 14.9844 11.3906C15.474 11.125 15.8385 10.7656 16.0781 10.3125C16.3177 9.85417 16.4375 9.33333 16.4375 8.75C16.4375 8.16667 16.3177 7.64844 16.0781 7.19531C15.8385 6.73698 15.474 6.3776 14.9844 6.11719C14.4948 5.85156 13.875 5.71875 13.125 5.71875H9.46875V20H7.53125V4H13.125C14.3125 4 15.2917 4.21615 16.0625 4.64844C16.8333 5.08073 17.4062 5.65625 17.7812 6.375C18.1562 7.09375 18.3437 7.88542 18.3437 8.75C18.3437 9.61458 18.1562 10.4063 17.7812 11.125C17.4062 11.8438 16.8333 12.4193 16.0625 12.8516C15.2917 13.2839 14.3125 13.5 13.125 13.5Z" fill="var(--svg-icon-fill, #333)"/><path d="M13 16.7188V15H5V16.7188H13Z" fill="var(--svg-icon-fill_blue, #0094ff)"/></svg>