<?xml version="1.0" encoding="utf-8"?><svg width="24" height="24" fill="none" xmlns="http://www.w3.org/2000/svg" viewBox="0 0 24 24"><rect x="17" y="2" width="5" height="5" rx="1" stroke="var(--svg-icon-stroke_blue, #0094ff)"/><rect x="17" y="17" width="5" height="5" rx="1" stroke="var(--svg-icon-stroke_blue, #0094ff)"/><rect x="2" y="7" width="5" height="5" rx="1" transform="rotate(-90 2 7)" stroke="var(--svg-icon-stroke_blue, #0094ff)"/><rect x="2" y="22" width="5" height="5" rx="1" transform="rotate(-90 2 22)" stroke="var(--svg-icon-stroke_blue, #0094ff)"/><path transform="matrix(1.31134e-07 -1 -1 -1.31134e-07 5 5)" stroke="var(--svg-icon-stroke_blue, #0094ff)" d="M0 0H1V1H0z"/><path transform="matrix(1.31134e-07 -1 -1 -1.31134e-07 5 20)" stroke="var(--svg-icon-stroke_blue, #0094ff)" d="M0 0H1V1H0z"/><path transform="matrix(1.31134e-07 -1 -1 -1.31134e-07 20 5)" stroke="var(--svg-icon-stroke_blue, #0094ff)" d="M0 0H1V1H0z"/><path transform="matrix(1.31134e-07 -1 -1 -1.31134e-07 20 20)" stroke="var(--svg-icon-stroke_blue, #0094ff)" d="M0 0H1V1H0z"/><path stroke="var(--svg-icon-stroke, #333)" d="M9 3H13V4H9z"/><path transform="rotate(-180 15 21)" stroke="var(--svg-icon-stroke, #333)" d="M15 21H19V22H15z"/><path stroke="var(--svg-icon-stroke, #333)" d="M13 5H15V6H13z"/><path transform="rotate(-180 11 19)" stroke="var(--svg-icon-stroke, #333)" d="M11 19H13V20H11z"/><path stroke="var(--svg-icon-stroke, #333)" d="M8 7H10V8H8z"/><path stroke="var(--svg-icon-stroke, #333)" d="M9 10H11V11H9z"/><path transform="rotate(-180 16 17)" stroke="var(--svg-icon-stroke, #333)" d="M16 17H18V18H16z"/><path stroke="var(--svg-icon-stroke, #333)" d="M18 9H22V10H18z"/><path transform="rotate(-180 8 15)" stroke="var(--svg-icon-stroke, #333)" d="M8 15H12V16H8z"/><path stroke="var(--svg-icon-stroke, #333)" d="M18 14H22V15H18z"/><path transform="rotate(-180 6 11)" stroke="var(--svg-icon-stroke, #333)" d="M6 11H10V12H6z"/><path stroke="var(--svg-icon-stroke, #333)" d="M14 11H21V12H14z"/><path transform="rotate(-180 12 14)" stroke="var(--svg-icon-stroke, #333)" d="M12 14H19V15H12z"/><path transform="rotate(90 13 4)" stroke="var(--svg-icon-stroke, #333)" d="M13 4H17V5H13z"/><path transform="rotate(-90 11 20)" stroke="var(--svg-icon-stroke, #333)" d="M11 20H15V21H11z"/></svg>