<?xml version="1.0" encoding="utf-8"?><svg width="24" height="24" fill="none" xmlns="http://www.w3.org/2000/svg" viewBox="0 0 24 24"><path d="M16.616 9.71863L15.9164 11.2395H6L6.54753 9.71863H16.616ZM18.4106 5.61217L17.6806 7.19392C17.3561 6.89987 17.0139 6.64639 16.654 6.43346C16.294 6.22053 15.9164 6.05577 15.5209 5.93916C15.1255 5.82256 14.7098 5.76426 14.2738 5.76426C13.4119 5.76426 12.6362 6.00254 11.9468 6.47909C11.2573 6.95564 10.7123 7.6578 10.3118 8.58555C9.91128 9.51331 9.71103 10.6515 9.71103 12C9.71103 13.3485 9.91128 14.4867 10.3118 15.4144C10.7123 16.3422 11.2573 17.0444 11.9468 17.5209C12.6362 17.9975 13.4119 18.2357 14.2738 18.2357C14.7199 18.2357 15.1407 18.1774 15.5361 18.0608C15.9366 17.9442 16.3093 17.7845 16.654 17.5817C17.0038 17.379 17.3257 17.1508 17.6198 16.8973L18.3802 18.4791C17.8479 18.981 17.2243 19.3612 16.5095 19.6198C15.7947 19.8733 15.0494 20 14.2738 20C13.0266 20 11.9214 19.6755 10.9582 19.0266C10 18.3777 9.24715 17.455 8.69962 16.2586C8.15716 15.0621 7.88593 13.6426 7.88593 12C7.88593 10.3574 8.15716 8.9379 8.69962 7.74145C9.24715 6.54499 10 5.62231 10.9582 4.97338C11.9214 4.32446 13.0266 4 14.2738 4C15.0798 4 15.8327 4.13942 16.5323 4.41825C17.237 4.69708 17.8631 5.09506 18.4106 5.61217Z" fill="var(--svg-icon-fill, #333)"/><path d="M14.6084 14.2812L15.308 12.7603H6.54753L6 14.2812H14.6084Z" fill="var(--svg-icon-fill_blue, #0094ff)"/></svg>