<?xml version="1.0" encoding="utf-8"?><svg xmlns="http://www.w3.org/2000/svg" viewBox="0 0 18 15.56" width="18" height="15.56"><path d="M1,10.5A.5.5,0,0,1,.5,10V1A.5.5,0,0,1,1,.5H17a.5.5,0,0,1,.5.5v9a.5.5,0,0,1-.5.5H10a1.52,1.52,0,0,0-1.19.59L5.9,14.86a.5.5,0,0,1-.9-.3V12a1.5,1.5,0,0,0-1.5-1.5Z" stroke="var(--svg-icon-stroke, #333)" fill="none"/><path d="M4,4H14" stroke="var(--svg-icon-stroke_blue, #0094ff)" fill="none" stroke-linecap="round" stroke-linejoin="round"/><path d="M4,7H14" stroke="var(--svg-icon-stroke_blue, #0094ff)" fill="none" stroke-linecap="round" stroke-linejoin="round"/></svg>