<?xml version="1.0" encoding="utf-8"?><svg xmlns="http://www.w3.org/2000/svg" viewBox="0 0 22 21.32" width="22" height="21.32"><path d="M21,7.16,18.23,5.83l-.16-2.24-2.24-.16-1-2-2.13.71L11,.66,9.3,2.13,7.17,1.42l-1,2-2.24.16L3.77,5.83.5,7.16M21,14.66l-2.77.83-.16,2.24-2.24.16-1,2-2.13-.71L11,20.66,9.3,19.19l-2.13.71-1-2-2.24-.16-.16-2.24L1,14.66" stroke="var(--svg-icon-stroke, #333)" fill="none"/><path d="M21.5,7.16H.5l1,3.5-1,4h21l-1-4Z" stroke="var(--svg-icon-stroke_blue, #0094ff)" fill="none" stroke-linejoin="round"/><path d="M18.48,12.13a1.23,1.23,0,0,0,0-.2.56.56,0,0,0-.09-.17.63.63,0,0,0-.19-.15,1.27,1.27,0,0,0-.31-.16l-.45-.21A2,2,0,0,1,17,11a1,1,0,0,1-.37-.81,1.19,1.19,0,0,1,.09-.47A1,1,0,0,1,17,9.33a1.22,1.22,0,0,1,.42-.23A1.51,1.51,0,0,1,18,9a1.36,1.36,0,0,1,.69.17,1.08,1.08,0,0,1,.45.45,1.3,1.3,0,0,1,.17.66h-.84a.78.78,0,0,0-.05-.31.41.41,0,0,0-.15-.21A.51.51,0,0,0,18,9.69a.45.45,0,0,0-.27.07.35.35,0,0,0-.15.17.62.62,0,0,0-.05.25.37.37,0,0,0,.05.18.64.64,0,0,0,.14.15l.21.12.26.12a2.59,2.59,0,0,1,.5.24,1.37,1.37,0,0,1,.36.3,1.07,1.07,0,0,1,.22.37,1.3,1.3,0,0,1,.08.46,1.21,1.21,0,0,1-.09.48A1,1,0,0,1,19,13a1.32,1.32,0,0,1-.42.24,1.74,1.74,0,0,1-.53.08,2,2,0,0,1-.55-.08A1.41,1.41,0,0,1,17,13a1.21,1.21,0,0,1-.31-.42,1.67,1.67,0,0,1-.11-.62h.84a1.06,1.06,0,0,0,0,.33.53.53,0,0,0,.11.21.4.4,0,0,0,.19.11.68.68,0,0,0,.26,0,.48.48,0,0,0,.26-.06.33.33,0,0,0,.14-.17A.6.6,0,0,0,18.48,12.13Z" fill="var(--svg-icon-fill_blue, #0094ff)"/><path d="M15.25,9.07h.83v2.85a1.5,1.5,0,0,1-.18.78,1,1,0,0,1-.48.44,1.85,1.85,0,0,1-1.41,0,1,1,0,0,1-.49-.44,1.61,1.61,0,0,1-.17-.78V9.07h.83v2.85a1.17,1.17,0,0,0,.06.42.36.36,0,0,0,.18.2.85.85,0,0,0,.3.05.84.84,0,0,0,.29-.05.34.34,0,0,0,.17-.2,1,1,0,0,0,.07-.42Z" fill="var(--svg-icon-fill_blue, #0094ff)"/><path d="M12.71,9.07v4.15H11.9l-1.3-2.6v2.6H9.81V9.07h.79l1.32,2.63V9.07Z" fill="var(--svg-icon-fill_blue, #0094ff)"/><path d="M9.2,10.82v.7a2.55,2.55,0,0,1-.11.77,1.53,1.53,0,0,1-.3.55,1.43,1.43,0,0,1-.47.33,1.74,1.74,0,0,1-.61.11,1.7,1.7,0,0,1-.61-.11,1.43,1.43,0,0,1-.47-.33,1.41,1.41,0,0,1-.31-.55,2.55,2.55,0,0,1-.11-.77v-.7A2.57,2.57,0,0,1,6.32,10a1.54,1.54,0,0,1,.3-.57,1.36,1.36,0,0,1,.48-.34,1.59,1.59,0,0,1,1.21,0,1.32,1.32,0,0,1,.47.34,1.42,1.42,0,0,1,.31.57A2.57,2.57,0,0,1,9.2,10.82Zm-.83.7v-.7a2.44,2.44,0,0,0,0-.51A1,1,0,0,0,8.2,10,.57.57,0,0,0,8,9.77a.65.65,0,0,0-.29-.06.61.61,0,0,0-.28.06.45.45,0,0,0-.21.2,1,1,0,0,0-.13.34,2.51,2.51,0,0,0,0,.51v.7a3.08,3.08,0,0,0,0,.48,1.21,1.21,0,0,0,.13.34.76.76,0,0,0,.21.19.65.65,0,0,0,.29.06A.61.61,0,0,0,8,12.53a.76.76,0,0,0,.21-.19A1,1,0,0,0,8.32,12,2.14,2.14,0,0,0,8.37,11.52Z" fill="var(--svg-icon-fill_blue, #0094ff)"/><path d="M4.4,11.41H3.55v-.6h.72a.55.55,0,0,0,.28-.06.33.33,0,0,0,.16-.17.65.65,0,0,0,.06-.29.81.81,0,0,0,0-.3.27.27,0,0,0-.16-.17.55.55,0,0,0-.28-.06H3.84v3.46H3V9.07H4.28a2,2,0,0,1,.56.07.94.94,0,0,1,.41.21.83.83,0,0,1,.26.35,1.28,1.28,0,0,1,.09.5,1.09,1.09,0,0,1-.1.48.82.82,0,0,1-.32.35,1.28,1.28,0,0,1-.57.16Zm0,1.81H3.31l.34-.69h.72a.45.45,0,0,0,.27-.07.4.4,0,0,0,.15-.19.82.82,0,0,0,0-.28,1,1,0,0,0,0-.31.41.41,0,0,0-.13-.2.42.42,0,0,0-.26-.07H3.68v-.6h.87l.2.24a.85.85,0,0,1,.53.12.83.83,0,0,1,.29.36,1.27,1.27,0,0,1,.09.47,1.36,1.36,0,0,1-.15.67,1,1,0,0,1-.44.42A1.67,1.67,0,0,1,4.37,13.22Z" fill="var(--svg-icon-fill_blue, #0094ff)"/></svg>