<?xml version="1.0" encoding="utf-8"?><svg width="24" height="24" fill="none" xmlns="http://www.w3.org/2000/svg" viewBox="0 0 24 24"><circle cx="12" cy="12" r="8" stroke="var(--svg-icon-stroke, #333)"/><path d="M11.2461 10.7129L12.6523 10.7129L12.8516 16.625L11.0469 16.625L11.2461 10.7129ZM11.9492 9.78711C11.6641 9.78711 11.4355 9.70312 11.2637 9.53516C11.0879 9.36719 11 9.15234 11 8.89062C11 8.63281 11.0879 8.41992 11.2637 8.25195C11.4355 8.08398 11.6641 8 11.9492 8C12.2305 8 12.459 8.08398 12.6348 8.25195C12.8066 8.41992 12.8926 8.63281 12.8926 8.89062C12.8926 9.14844 12.8066 9.36133 12.6348 9.5293C12.459 9.70117 12.2305 9.78711 11.9492 9.78711Z" fill="var(--svg-icon-fill_blue, #0094ff)"/></svg>