<?xml version="1.0" encoding="utf-8"?><svg width="24" height="24" fill="none" xmlns="http://www.w3.org/2000/svg" viewBox="0 0 24 24"><path d="M5.5 3.5H14.7929L18.5 7.20711V20.5H5.5V3.5Z" stroke="var(--svg-icon-stroke, #333)"/><path fill-rule="evenodd" clip-rule="evenodd" d="M12.52 8.04004C12.52 7.7639 12.2962 7.54004 12.02 7.54004C11.7439 7.54004 11.52 7.7639 11.52 8.04004V11.48L8.00002 11.48C7.72387 11.48 7.50002 11.7038 7.50002 11.98C7.50002 12.2561 7.72387 12.48 8.00002 12.48L11.52 12.48V16C11.52 16.2762 11.7439 16.5 12.02 16.5C12.2962 16.5 12.52 16.2762 12.52 16V12.48L15.96 12.48C16.2362 12.48 16.46 12.2561 16.46 11.98C16.46 11.7038 16.2362 11.48 15.96 11.48L12.52 11.48V8.04004Z" fill="var(--svg-icon-fill_blue, #0094ff)"/></svg>