<?xml version="1.0" encoding="utf-8"?><svg xmlns="http://www.w3.org/2000/svg" viewBox="0 0 12.9 17" width="12.9" height="17"><path d="M9.77,8.25a4.09,4.09,0,0,0,.42-.2,3.4,3.4,0,0,0,1.4-1.36A3.81,3.81,0,0,0,12,4.86a4.29,4.29,0,0,0-.41-1.93,3.49,3.49,0,0,0-1.17-1.36A5.57,5.57,0,0,0,8.58.76,11.16,11.16,0,0,0,6.08.5H.5v16H6.62A8.27,8.27,0,0,0,9.76,16a4,4,0,0,0,2-1.57,4.71,4.71,0,0,0,.67-2.59A4.05,4.05,0,0,0,12,10a3.17,3.17,0,0,0-1.3-1.37A3.54,3.54,0,0,0,9.77,8.25Z" stroke="var(--svg-icon-stroke, #333)" fill="none"/><path d="M7.58,7a4,4,0,0,1-1.5.23H3.8V3.08H6.08a4.53,4.53,0,0,1,1.51.21A1.61,1.61,0,0,1,8.46,4a2.28,2.28,0,0,1,.28,1.21,2.1,2.1,0,0,1-.29,1.12A1.84,1.84,0,0,1,7.58,7Z" stroke="var(--svg-icon-stroke_blue, #0094ff)" fill="none"/><path d="M3.8,13.93V9.48h3a2.85,2.85,0,0,1,1.37.28,1.66,1.66,0,0,1,.74.79,2.92,2.92,0,0,1,.25,1.22,2.23,2.23,0,0,1-.27,1.11,1.83,1.83,0,0,1-.81.77,3.1,3.1,0,0,1-1.42.28Z" stroke="var(--svg-icon-stroke_blue, #0094ff)" fill="none"/></svg>