<?xml version="1.0" encoding="utf-8"?><svg xmlns="http://www.w3.org/2000/svg" viewBox="0 0 17 16" width="17" height="16"><path stroke="var(--svg-icon-stroke, #333)" fill="none" d="M0.5 0.5H16.5V15.5H0.5z"/><path d="M13,2.5h0A1.5,1.5,0,0,1,14.5,4v8A1.5,1.5,0,0,1,13,13.5h0A1.5,1.5,0,0,1,11.5,12V4A1.5,1.5,0,0,1,13,2.5Z" stroke="var(--svg-icon-stroke, #333)" fill="none"/><path stroke="var(--svg-icon-stroke_blue, #0094ff)" fill="none" d="M3 9H5V11H3z"/><path stroke="var(--svg-icon-stroke_blue, #0094ff)" fill="none" d="M7 9H9V11H7z"/><path stroke="var(--svg-icon-stroke_blue, #0094ff)" fill="none" d="M3 5H5V7H3z"/><path stroke="var(--svg-icon-stroke_blue, #0094ff)" fill="none" d="M7 5H9V7H7z"/></svg>