<?xml version="1.0" encoding="utf-8"?><svg width="24" height="24" fill="none" xmlns="http://www.w3.org/2000/svg" viewBox="0 0 24 24"><path d="M7.5 5.86602L18 11.9282L7.5 17.9904L7.5 5.86602Z" stroke="var(--svg-icon-stroke_blue, #0094ff)"/><path d="M15.9287 20.2236L14.9937 20L15.3311 17H18.6563V17.9472H16.2946L16.1482 19.2602C16.2268 19.2141 16.346 19.1653 16.5059 19.1138C16.6658 19.0596 16.8447 19.0325 17.0425 19.0325C17.3298 19.0325 17.5845 19.0772 17.8067 19.1667C18.029 19.2561 18.2173 19.3862 18.3718 19.5569C18.529 19.7276 18.6482 19.9363 18.7295 20.1829C18.8108 20.4295 18.8515 20.7087 18.8515 21.0203C18.8515 21.2832 18.8108 21.5339 18.7295 21.7724C18.6482 22.0081 18.5249 22.2195 18.3596 22.4065C18.1943 22.5908 17.987 22.7358 17.7376 22.8415C17.4883 22.9472 17.1929 23 16.8515 23C16.5967 23 16.3501 22.9621 16.1116 22.8862C15.8759 22.8103 15.6631 22.6978 15.4734 22.5488C15.2864 22.3997 15.136 22.2195 15.0222 22.0081C14.9111 21.794 14.8528 21.5501 14.8474 21.2764H16.01C16.0263 21.4444 16.0696 21.5894 16.1401 21.7114C16.2133 21.8306 16.3095 21.9228 16.4287 21.9878C16.5479 22.0528 16.6875 22.0854 16.8474 22.0854C16.9965 22.0854 17.1238 22.0569 17.2295 22C17.3352 21.9431 17.4206 21.8645 17.4856 21.7642C17.5507 21.6612 17.5981 21.542 17.6279 21.4065C17.6604 21.2683 17.6767 21.1192 17.6767 20.9593C17.6767 20.7995 17.6577 20.6545 17.6198 20.5244C17.5818 20.3943 17.5236 20.2818 17.445 20.187C17.3664 20.0921 17.2661 20.019 17.1441 19.9675C17.0249 19.916 16.8853 19.8902 16.7254 19.8902C16.5086 19.8902 16.3406 19.9241 16.2214 19.9919C16.1049 20.0596 16.0073 20.1369 15.9287 20.2236Z" fill="var(--svg-icon-fill, #333)"/><path d="M12.3329 23V17.0691H12.2069L9.75565 17.9431V18.8659L11.1621 18.4187V23H12.3329Z" fill="var(--svg-icon-fill, #333)"/><path d="M13.1064 21.9553C12.9872 22.0718 12.9275 22.2168 12.9275 22.3902C12.9275 22.5637 12.9872 22.7087 13.1064 22.8252C13.2284 22.9417 13.3896 23 13.5901 23C13.7907 23 13.9506 22.9417 14.0698 22.8252C14.1918 22.7087 14.2527 22.5637 14.2527 22.3902C14.2527 22.2168 14.1918 22.0718 14.0698 21.9553C13.9506 21.8388 13.7907 21.7805 13.5901 21.7805C13.3896 21.7805 13.2284 21.8388 13.1064 21.9553Z" fill="var(--svg-icon-fill, #333)"/><path d="M19.4461 22.1589L20.8096 20.7955L19.4461 19.432L20.2871 18.591L21.6506 19.9545L23.014 18.591L23.855 19.432L22.4915 20.7955L23.8551 22.159L23.0141 22.9999L21.6506 21.6364L20.2871 22.9999L19.4461 22.1589Z" fill="var(--svg-icon-fill, #333)"/></svg>