<?xml version="1.0" encoding="utf-8"?><svg width="24" height="24" fill="none" xmlns="http://www.w3.org/2000/svg" viewBox="0 0 24 24"><path d="M3.58452 7.82563L3.57813 7.78995L3.56666 7.75557C3.10256 6.36435 3.42492 4.77039 4.53094 3.66437C5.61192 2.58339 7.36453 2.58339 8.44551 3.66437L9.50159 4.72045C10.4779 5.69676 10.4779 7.27967 9.50159 8.25598L7.18479 10.5728L6.92696 10.8306L7.09364 11.1549C8.27695 13.4571 10.242 15.2577 12.6242 16.157L12.9261 16.271L13.1543 16.0428L15.6779 13.5192C16.6542 12.5429 18.2371 12.5429 19.2135 13.5192L20.2695 14.5753C21.3505 15.6562 21.3505 17.4089 20.2695 18.4898C19.2004 19.559 17.6754 19.8959 16.318 19.4979L16.2631 19.4818L16.2059 19.4785C9.91373 19.1178 4.73322 14.2377 3.58452 7.82563Z" stroke="var(--svg-icon-stroke, #333)"/><path d="M17 2V10" stroke="var(--svg-icon-stroke_blue, #0094ff)"/><path d="M16 1L17 2L18 1" stroke="var(--svg-icon-stroke_blue, #0094ff)"/><path d="M18 11L17 10L16 11" stroke="var(--svg-icon-stroke_blue, #0094ff)"/><path d="M21 6L13 6" stroke="var(--svg-icon-stroke_blue, #0094ff)"/><path d="M22 5L21 6L22 7" stroke="var(--svg-icon-stroke_blue, #0094ff)"/><path d="M12 7L13 6L12 5" stroke="var(--svg-icon-stroke_blue, #0094ff)"/><path d="M19.8284 3.17163L14.1716 8.82849" stroke="var(--svg-icon-stroke_blue, #0094ff)"/><path d="M19.8284 1.75739L19.8284 3.1716L21.2426 3.1716" stroke="var(--svg-icon-stroke_blue, #0094ff)"/><path d="M14.1716 10.2427L14.1716 8.82846L12.7574 8.82846" stroke="var(--svg-icon-stroke_blue, #0094ff)"/><path d="M19.8284 8.82843L14.1716 3.17158" stroke="var(--svg-icon-stroke_blue, #0094ff)"/><path d="M21.2426 8.82843L19.8284 8.82843L19.8284 10.2426" stroke="var(--svg-icon-stroke_blue, #0094ff)"/><path d="M12.7574 3.17157L14.1716 3.17157L14.1716 1.75736" stroke="var(--svg-icon-stroke_blue, #0094ff)"/></svg>