<?xml version="1.0" encoding="utf-8"?><svg width="24" height="24" fill="none" xmlns="http://www.w3.org/2000/svg" viewBox="0 0 24 24"><circle cx="14.5" cy="15.5" r="4.5" stroke="var(--svg-icon-stroke_blue, #0094ff)"/><path d="M17.8333 18.4165L21.1667 20.4998" stroke="var(--svg-icon-stroke_blue, #0094ff)"/><path fill-rule="evenodd" clip-rule="evenodd" d="M8.125 3H7.625V3.5V4.34692C7.40302 4.42616 7.18619 4.51619 6.97514 4.61636L6.3761 4.01732L6.02255 3.66376L5.66899 4.01732L3.01734 6.66897L2.66379 7.02252L3.01734 7.37607L3.61638 7.97511C3.5162 8.18617 3.42617 8.40301 3.34691 8.625L2.5 8.625H2V9.125V12.875V13.375H2.5H3.34691C3.42617 13.597 3.5162 13.8138 3.61638 14.0249L3.01735 14.6239L2.66379 14.9775L3.01735 15.331L5.669 17.9827L6.02255 18.3362L6.3761 17.9827L6.97515 17.3836C7.1862 17.4838 7.40303 17.5738 7.625 17.6531V18.5V19H8.125H11.875V18.9677C11.4104 18.7183 10.9947 18.3897 10.6458 18H8.625V17.2907V16.9179L8.26762 16.8115C7.86474 16.6916 7.47933 16.5309 7.11618 16.3341L6.78819 16.1564L6.52441 16.4202L6.02255 16.922L4.07801 14.9775L4.57986 14.4756L4.84364 14.2118L4.66591 13.8839C4.46912 13.5207 4.3084 13.1353 4.18849 12.7324L4.08213 12.375H3.70926H3V9.625L3.70926 9.625H4.08213L4.18849 9.26763C4.3084 8.86472 4.46911 8.47931 4.66591 8.11614L4.84364 7.78816L4.57985 7.52437L4.078 7.02252L6.02255 5.07798L6.52441 5.57984L6.78819 5.84362L7.11617 5.66589C7.47933 5.46911 7.86473 5.30839 8.26762 5.18849L8.625 5.08213V4.70926V4H11.375V4.70926V5.08213L11.7324 5.18849C12.1353 5.30839 12.5207 5.4691 12.8838 5.66589L13.2118 5.84362L13.4756 5.57983L13.9775 5.07797L15.922 7.02252L15.4201 7.52437L15.1564 7.78815L15.3341 8.11614C15.5309 8.4793 15.6916 8.86472 15.8115 9.26762L15.9179 9.625H16.2907H17V11.6458C17.3897 11.9947 17.7183 12.4104 17.9677 12.875H18V9.125V8.625H17.5H16.6531C16.5738 8.40301 16.4838 8.18617 16.3836 7.9751L16.9827 7.37607L17.3362 7.02252L16.9827 6.66896L14.331 4.01731L13.9775 3.66376L13.6239 4.01731L13.0249 4.61636C12.8138 4.51619 12.597 4.42616 12.375 4.34691V3.5V3H11.875H8.125ZM14.2215 10.5054C13.9765 8.39119 12.1799 6.75 10 6.75C7.65279 6.75 5.75 8.65279 5.75 11C5.75 13.1799 7.39119 14.9765 9.50536 15.2215C9.5018 15.1481 9.5 15.0743 9.5 15C9.5 14.7345 9.523 14.4743 9.56711 14.2214C7.97684 14.0098 6.75 12.6482 6.75 11C6.75 9.20507 8.20507 7.75 10 7.75C11.6482 7.75 13.0098 8.97684 13.2214 10.5671C13.4743 10.523 13.7345 10.5 14 10.5C14.0743 10.5 14.1481 10.5018 14.2215 10.5054Z" fill="var(--svg-icon-fill, #333)"/></svg>