<?xml version="1.0" encoding="utf-8"?><svg xmlns="http://www.w3.org/2000/svg" viewBox="0 0 21 21" width="21" height="21"><circle cx="10.5" cy="10.5" r="10" stroke="var(--svg-icon-stroke, #333)" fill="none"/><path d="M.5,8.5H6" stroke="var(--svg-icon-stroke, #333)" fill="none"/><path d="M14.5,8.5H20" stroke="var(--svg-icon-stroke, #333)" fill="none"/><path d="M.5,10.5l5,2,.4.81A4.08,4.08,0,0,0,7.69,15.1l.81.4,1,5" stroke="var(--svg-icon-stroke, #333)" fill="none"/><path d="M20.5,10.5l-5,2-.4.81a4.08,4.08,0,0,1-1.79,1.79l-.81.4-1,5" stroke="var(--svg-icon-stroke, #333)" fill="none"/><path d="M5.5,9.94A1.93,1.93,0,0,1,6.88,8.09h0a12.57,12.57,0,0,1,7.24,0h0A1.93,1.93,0,0,1,15.5,9.94V11.5a4,4,0,0,1-4,4h-2a4,4,0,0,1-4-4Z" stroke="var(--svg-icon-stroke_blue, #0094ff)" fill="none"/></svg>