<?xml version="1.0" encoding="utf-8"?><svg xmlns="http://www.w3.org/2000/svg" viewBox="0 0 19 20" width="19" height="20"><path d="M14.5,3.5h3a1,1,0,0,1,1,1v14a1,1,0,0,1-1,1H1.5a1,1,0,0,1-1-1V4.5a1,1,0,0,1,1-1h3" stroke="var(--svg-icon-stroke, #333)" fill="none"/><path d="M9.5,19c0-.83.4-2.5,2-2.5h7" stroke="var(--svg-icon-stroke, #333)" fill="none"/><path d="M9.5,19c0-.83-.4-2.5-2-2.5H.5" stroke="var(--svg-icon-stroke, #333)" fill="none"/><path d="M8.5,11.83V10.5h2v1.33a1.08,1.08,0,0,1-2,0Z" stroke="var(--svg-icon-stroke_blue, #0094ff)" fill="none"/><path d="M9.5,18.5V14" stroke="var(--svg-icon-stroke, #333)" fill="none"/><path d="M9.5.5c-1.6,0-4,.83-4,4.41,0,2,1.36,3.94,2.5,5.17A2.5,2.5,0,0,0,9.5,11,2.54,2.54,0,0,0,11,10.08C12.15,8.86,13.5,7,13.5,5,13.5,1.52,11.1.5,9.5.5Z" stroke="var(--svg-icon-stroke_blue, #0094ff)" fill="none" stroke-linecap="round" stroke-linejoin="round"/><path d="M8.5,10.5V6.79L7.5,5.5" stroke="var(--svg-icon-stroke_blue, #0094ff)" fill="none"/><path d="M10.5,10.5V6.79l1-1.29" stroke="var(--svg-icon-stroke_blue, #0094ff)" fill="none"/><path d="M11.5,14.5h5" stroke="var(--svg-icon-stroke, #333)" fill="none"/><path d="M12.5,12.5h4" stroke="var(--svg-icon-stroke, #333)" fill="none"/><path d="M13.5,10.5h3" stroke="var(--svg-icon-stroke, #333)" fill="none"/><path d="M7.5,14.5h-5" stroke="var(--svg-icon-stroke, #333)" fill="none"/><path d="M6.5,12.5h-4" stroke="var(--svg-icon-stroke, #333)" fill="none"/><path d="M5.5,10.5h-3" stroke="var(--svg-icon-stroke, #333)" fill="none"/></svg>