<?xml version="1.0" encoding="utf-8"?><svg width="24" height="23.04" fill="none" xmlns="http://www.w3.org/2000/svg" viewBox="0 0 25 24"><path d="M5.838 11.5l-1.062.536L5.838 14m8 2l-5.062 2.964L6.838 16m5.5-8L16.9 5.036 18.838 8m1 4.688l1.062-.724L19.838 10M5.838 8h14v8h-14z" stroke="#333"/><path d="M13.094 13.467h-.874V14h-.824v-.533h-.558V12.8h.558v-.208h-.558v-.668h.558V10h1.555c.3 0 .564.054.791.162.227.108.403.263.527.464.127.2.19.428.19.684 0 .396-.135.708-.404.937-.267.23-.64.344-1.118.344h-.717v.209h.874v.667zm-.874-1.544h.711c.462 0 .693-.202.693-.607a.628.628 0 00-.176-.464c-.117-.12-.28-.18-.486-.182h-.742v1.253z" fill="#0094FF"/></svg>