<?xml version="1.0" encoding="utf-8"?><svg width="12" height="12" fill="none" xmlns="http://www.w3.org/2000/svg" viewBox="0 0 12 12"><path d="M1 10V2h2.615c.869 0 1.52.18 1.956.538.44.36.66.89.66 1.594 0 .373-.106.705-.319.994a2.075 2.075 0 01-.868.665c.432.121.773.352 1.022.693.253.337.38.74.38 1.208 0 .718-.234 1.282-.699 1.693-.465.41-1.122.615-1.972.615H1zm1.055-3.742v2.88h1.742c.49 0 .877-.127 1.159-.38.286-.256.429-.608.429-1.055 0-.963-.524-1.445-1.572-1.445H2.055zm0-.846h1.593c.462 0 .83-.115 1.105-.346.278-.23.417-.544.417-.94 0-.44-.128-.758-.384-.956-.257-.201-.647-.302-1.17-.302H2.054v2.544zM10.725 4.967a3.047 3.047 0 00-.5-.038c-.666 0-1.119.283-1.357.851V10H7.852V4.055h.989l.016.687c.333-.531.806-.797 1.418-.797.197 0 .348.026.45.077v.945z" fill="#333"/></svg>