<?xml version="1.0" encoding="utf-8"?><svg width="12" height="12" fill="none" xmlns="http://www.w3.org/2000/svg" viewBox="0 0 12 12"><path d="M5.217 7.043v.522c0 .157-.104.261-.26.261h-.522c-.157 0-.261-.104-.261-.26v-.523c0-.156.104-.26.26-.26h.523c.156 0 .26.104.26.26zm-.26 1.827h-.522c-.157 0-.261.104-.261.26v.522c0 .157.104.261.26.261h.523c.156 0 .26-.104.26-.26V9.13c0-.156-.104-.26-.26-.26zm0-4.174h-.522c-.157 0-.261.104-.261.26v.522c0 .157.104.261.26.261h.523c.156 0 .26-.104.26-.26v-.522c0-.157-.104-.261-.26-.261zM7.043 8.87h-.521c-.157 0-.261.104-.261.26v.522c0 .157.104.261.26.261h.522c.157 0 .261-.104.261-.26V9.13c0-.156-.104-.26-.26-.26zM2.87 6.783h-.522c-.157 0-.261.104-.261.26v.522c0 .157.104.261.26.261h.523c.156 0 .26-.104.26-.26v-.523c0-.156-.104-.26-.26-.26zm0 2.087h-.522c-.157 0-.261.104-.261.26v.522c0 .157.104.261.26.261h.523c.156 0 .26-.104.26-.26V9.13c0-.156-.104-.26-.26-.26zm6.26-4.174H8.61c-.157 0-.261.104-.261.26v.522c0 .157.104.261.26.261h.522c.157 0 .261-.104.261-.26v-.522c0-.157-.104-.261-.26-.261zm0 2.087H8.61c-.157 0-.261.104-.261.26v.522c0 .157.104.261.26.261h.522c.157 0 .261-.104.261-.26v-.523c0-.156-.104-.26-.26-.26zm-2.087 0h-.521c-.157 0-.261.104-.261.26v.522c0 .157.104.261.26.261h.522c.157 0 .261-.104.261-.26v-.523c0-.156-.104-.26-.26-.26zm0-2.087h-.521c-.157 0-.261.104-.261.26v.522c0 .157.104.261.26.261h.522c.157 0 .261-.104.261-.26v-.522c0-.157-.104-.261-.26-.261zm4.435-3.653v9.913c0 .574-.47 1.044-1.043 1.044H1.043C.47 12 0 11.53 0 10.957V1.043C0 .47.47 0 1.043 0v.783c0 .156.105.26.261.26h.522c.157 0 .261-.104.261-.26V.26c0-.157.104-.261.26-.261h.523c.156 0 .26.104.26.26v.523c0 .156.105.26.261.26h.522c.157 0 .26-.104.26-.26V.26c0-.157.105-.261.262-.261h.522c.156 0 .26.104.26.26v.523c0 .156.105.26.261.26H6c.157 0 .26-.104.26-.26V.26c0-.157.105-.261.262-.261h.521c.157 0 .261.104.261.26v.523c0 .156.105.26.261.26h.522c.156 0 .26-.104.26-.26V.26c0-.157.105-.261.262-.261h.521c.157 0 .261.104.261.26v.523c0 .156.105.26.261.26h.522c.156 0 .26-.104.26-.26V0c.575 0 1.044.47 1.044 1.043zm-1.043 9.913V3.652H1.043v7.304h9.392z" fill="#0094FF"/></svg>