<?xml version="1.0" encoding="utf-8"?><svg width="12" height="12" fill="none" xmlns="http://www.w3.org/2000/svg" viewBox="0 0 12 12"><path d="M10.207 0H1.743C.797 0 0 .797 0 1.743V7.22c0 .946.797 1.743 1.743 1.743h.747v1.742c0 .448.199.797.547.947.1.05.2.05.349.05.249 0 .498-.1.747-.35l2.44-2.44h3.684c.946 0 1.743-.796 1.743-1.742V1.693C11.95.797 11.153 0 10.207 0zm.25 7.22c0 .15-.1.249-.25.249H5.925L3.983 9.41V7.469h-2.24c-.15 0-.25-.1-.25-.25V1.744c0-.15.1-.25.25-.25h8.464c.15 0 .25.1.25.25V7.22z" fill="#0094FF"/></svg>