<?xml version="1.0" encoding="utf-8"?><svg width="24" height="23.04" fill="none" xmlns="http://www.w3.org/2000/svg" viewBox="0 0 25 24"><circle cx="7.75" cy="16.294" r="1.618" stroke="#333"/><circle cx="17.279" cy="16.294" r="1.618" stroke="#333"/><path d="M9.338 16.294h6.353m3.176 0l2.647-.265v-1.132a1 1 0 00-.683-.948l-2.426-.809a.998.998 0 01-.13-.054l-3.961-1.98a1 1 0 00-.447-.106H8.1a1 1 0 00-.624.22l-2.234 1.786c-.092.074-.197.13-.309.168l-.735.245a1 1 0 00-.684.949v1.926h2.647" stroke="#333"/><path d="M16.514 8l2 2 4-4" stroke="#0094FF"/></svg>