<?xml version="1.0" encoding="utf-8"?><svg width="24" height="24" fill="none" xmlns="http://www.w3.org/2000/svg" viewBox="0 0 24 24"><path d="M5.243 18.314C1 14.07 4.77 10.3 6.657 8.414l2.121 2.122c-1.414 1.414-3.535 3.535-1.414 5.656 1.697 1.697 4.243 0 5.657-1.414l2.121 2.121c-1.885 1.886-5.657 5.657-9.9 1.415z" stroke="#333"/><path stroke="#333" d="M8.071 7l2.121 2.121-1.414 1.415-2.121-2.122zM14.435 13.364l2.121 2.121-1.414 1.415-2.121-2.122z"/><circle cx="17.111" cy="4.556" r="1.556" stroke="#0094FF"/><path d="M14.32 8.4a2.846 2.846 0 012.791-2.289v0c1.357 0 2.525.958 2.791 2.288l.32 1.601H14l.32-1.6z" stroke="#0094FF"/></svg>