<?xml version="1.0" encoding="utf-8"?><svg width="14" height="16" fill="none" xmlns="http://www.w3.org/2000/svg" viewBox="0 0 14 16"><path d="M14 3.46v7.28a1.89 1.89 0 01-1.68 1.904V3.46c0-.168-.112-.28-.28-.28H2.856c.112-.952.952-1.68 1.904-1.68h7.28c1.064 0 1.96.896 1.96 1.96zm-2.8 2.8v7.28c0 1.064-.896 1.96-1.96 1.96H1.96A1.984 1.984 0 010 13.54V6.26C0 5.196.896 4.3 1.96 4.3h7.28c1.064 0 1.96.896 1.96 1.96zm-1.68 0c0-.168-.112-.28-.28-.28H1.96c-.168 0-.28.112-.28.28v7.28c0 .168.112.28.28.28h7.28c.168 0 .28-.112.28-.28V6.26z" fill="#fff"/><path d="M14 2.46v7.28a1.89 1.89 0 01-1.68 1.904V2.46c0-.168-.112-.28-.28-.28H2.856C2.968 1.228 3.808.5 4.76.5h7.28C13.104.5 14 1.396 14 2.46zm-2.8 2.8v7.28c0 1.064-.896 1.96-1.96 1.96H1.96A1.984 1.984 0 010 12.54V5.26C0 4.196.896 3.3 1.96 3.3h7.28c1.064 0 1.96.896 1.96 1.96zm-1.68 0c0-.168-.112-.28-.28-.28H1.96c-.168 0-.28.112-.28.28v7.28c0 .168.112.28.28.28h7.28c.168 0 .28-.112.28-.28V5.26z" fill="#1E6393"/></svg>