<?xml version="1.0" encoding="utf-8"?><svg width="9" height="11" fill="none" xmlns="http://www.w3.org/2000/svg" viewBox="0 0 9 11"><path d="M8.38134 7.41797L6.34144 10.3004C6.16405 10.5665 5.8093 10.5665 5.63192 10.3004L3.59201 7.41797C3.37028 7.10755 3.592 6.7084 3.94677 6.7084H4.87803V0.943457C4.87803 0.677383 5.05542 0.5 5.32149 0.5H6.65186C6.91794 0.5 7.09532 0.677383 7.09532 0.943457V6.7084H8.02658C8.38135 6.7084 8.60307 7.10755 8.38134 7.41797ZM1.33038 9.36914C1.0643 9.36914 0.886919 9.19176 0.886919 8.92568V7.3292L0.753888 7.46225C0.576505 7.63964 0.31042 7.63964 0.133037 7.46225C-0.0443457 7.28487 -0.0443457 7.01884 0.133037 6.84146L1.01995 5.95454C1.15299 5.82151 1.33037 5.77718 1.50776 5.86587C1.68514 5.95457 1.77383 6.08756 1.77383 6.26494V8.92568C1.77383 9.19176 1.59645 9.36914 1.33038 9.36914ZM2.66075 3.6042C2.66075 3.33812 2.48336 3.16074 2.21729 3.16074H1.153C1.19734 3.02771 1.33037 2.93897 1.46341 2.89462C1.72948 2.80593 2.52772 2.53988 2.52772 1.69731C2.52772 1.03213 1.99556 0.5 1.33038 0.5C1.01996 0.5 0.620845 0.58867 0.221734 1.03213C0.0443511 1.20951 0.0886995 1.51999 0.266082 1.65303C0.443465 1.78607 0.753882 1.78603 0.886919 1.60864C1.01996 1.47561 1.15299 1.38691 1.28603 1.38691C1.46341 1.38691 1.59645 1.51993 1.59645 1.69731C1.59645 1.74166 1.59645 1.87472 1.10865 2.0521C0.26608 2.36252 0.0443565 3.20513 0.0887022 3.64859C0.0887022 3.87032 0.310431 4.04766 0.532159 4.04766H2.17294C2.48336 4.04766 2.66075 3.87027 2.66075 3.6042Z" fill="#333"/></svg>