<?xml version="1.0" encoding="utf-8"?><svg width="9" height="11" fill="none" xmlns="http://www.w3.org/2000/svg" viewBox="0 0 9 11"><path d="M8.381 7.418L6.341 10.3a.415.415 0 01-.71 0L3.593 7.418c-.222-.31 0-.71.355-.71h.931V.943c0-.266.177-.443.443-.443h1.33c.267 0 .444.177.444.443v5.765h.932c.354 0 .576.4.354.71zm-7.05 1.951c-.267 0-.444-.177-.444-.443V7.329l-.133.133a.429.429 0 01-.621 0 .429.429 0 010-.62l.887-.887c.133-.133.31-.178.488-.09.177.09.266.223.266.4v2.66c0 .267-.178.444-.444.444zm1.33-5.765c0-.266-.178-.443-.444-.443H1.153c.044-.133.177-.222.31-.266.266-.09 1.065-.355 1.065-1.198C2.528 1.032 1.996.5 1.33.5 1.02.5.62.589.222 1.032c-.178.178-.133.488.044.621s.488.133.62-.044c.134-.133.267-.222.4-.222.177 0 .31.133.31.31 0 .045 0 .178-.487.355C.266 2.362.044 3.205.089 3.65c0 .221.221.399.443.399h1.64c.311 0 .489-.178.489-.444z" fill="#333"/></svg>