<?xml version="1.0" encoding="utf-8"?><svg xmlns="http://www.w3.org/2000/svg" viewBox="0 0 3 15" width="3" height="15"><path d="M0.0750617 13.216C0.0750616 12.4428 0.701863 11.816 1.47506 11.816C2.24826 11.816 2.87506 12.4428 2.87506 13.216C2.87506 13.9892 2.24826 14.616 1.47506 14.616C0.701863 14.616 0.0750617 13.9892 0.0750617 13.216ZM0.0750614 2.01597C0.0750613 1.24277 0.701862 0.615973 1.47506 0.615973C2.24826 0.615973 2.87506 1.24277 2.87506 2.01597C2.87506 2.78917 2.24826 3.41597 1.47506 3.41597C0.701863 3.41597 0.0750615 2.78917 0.0750614 2.01597ZM1.47506 6.21597C0.701862 6.21597 0.0750614 6.84277 0.0750614 7.61597C0.0750615 8.38917 0.701863 9.01597 1.47506 9.01597C2.24826 9.01597 2.87506 8.38917 2.87506 7.61597C2.87506 6.84277 2.24826 6.21597 1.47506 6.21597Z" fill="var(--svg-icon-fill, #000)"/></svg>