<?xml version="1.0" encoding="utf-8"?><svg xmlns="http://www.w3.org/2000/svg" viewBox="0 0 24 24" width="24" height="24"><path d="M23.74,9.59A3.9,3.9,0,0,1,22,10h-.21c.07.33.12.66.16,1H19.39l-.75.82A3.26,3.26,0,0,1,14,12a3.43,3.43,0,0,1-.73-1H13V9.46A4,4,0,0,1,11,6H8.19A9.15,9.15,0,0,1,11,2.94V2a4,4,0,0,1,.56-2H11V.05A12,12,0,0,0,.05,11H0v2H.05A12,12,0,0,0,11,24V24h2V24A12,12,0,0,0,24,13H24V11H24A11.15,11.15,0,0,0,23.74,9.59ZM8.14,2.78A9.91,9.91,0,0,0,6,6H4A10,10,0,0,1,8.14,2.78ZM2.84,8H5.4A16.85,16.85,0,0,0,5,11h-3A10,10,0,0,1,2.84,8Zm0,8a10,10,0,0,1-.79-3H5a16.85,16.85,0,0,0,.37,3ZM4,18H6a9.91,9.91,0,0,0,2.12,3.22A10,10,0,0,1,4,18Zm7,3.06A9.15,9.15,0,0,1,8.19,18H11ZM11,16H7.44A14.46,14.46,0,0,1,7,13h4Zm0-5H7a14.46,14.46,0,0,1,.42-3H11Zm2,2h4a14.46,14.46,0,0,1-.42,3H13Zm0,8.06V18h2.81A9.15,9.15,0,0,1,13,21.06Zm2.86.16A9.91,9.91,0,0,0,18,18h2A10,10,0,0,1,15.86,21.22ZM21.16,16H18.6A16.85,16.85,0,0,0,19,13h3A9.71,9.71,0,0,1,21.16,16ZM22,0H15a2,2,0,0,0-2,2V6a2,2,0,0,0,2,2V9.61a1.25,1.25,0,0,0,2.17.85L19.44,8H22a2,2,0,0,0,2-2V2A2,2,0,0,0,22,0Zm0,6H18.56L17,7.69V6H15V2h7Z"/></svg>