<?xml version="1.0" encoding="utf-8"?><svg xmlns="http://www.w3.org/2000/svg" viewBox="0 0 16 16" width="16" height="16"><path d="M13.14,13.83v1.6a.54.54,0,0,1-.57.57H.57A.54.54,0,0,1,0,15.43v-1.6A.9.9,0,0,1,.51,13l2.92-1.54A2.86,2.86,0,0,0,6,13.09H7.09a2.87,2.87,0,0,0,2.57-1.6L12.57,13A1,1,0,0,1,13.14,13.83ZM3.2,8.06a1.72,1.72,0,0,0,.74.85l.4,1.78A1.71,1.71,0,0,0,6,12.06H7.09a1.7,1.7,0,0,0,1.65-1.37l.4-1.78a1.56,1.56,0,0,0,.75-.85l.17-.46a.8.8,0,0,0,0-.34A4.61,4.61,0,0,1,8,3.37c0-.28.06-.57.06-.86a4.12,4.12,0,0,0-1.49-.28c-2,0-3.14,1.14-3.14,2.86V6.57a.73.73,0,0,0-.34,1ZM16,3.43A3.43,3.43,0,1,1,12.57,0,3.44,3.44,0,0,1,16,3.43ZM14.34,2.17l-.28-.23a.2.2,0,0,0-.23,0L12,3.66,11,3.2c-.06-.06-.17,0-.23.06l-.23.34a.2.2,0,0,0,0,.23l1.26,1.26A.49.49,0,0,0,12.51,5L14.29,2.4C14.46,2.29,14.46,2.17,14.34,2.17Z" fill="#333"/></svg>