<?xml version="1.0" encoding="utf-8"?><svg xmlns="http://www.w3.org/2000/svg" viewBox="0 0 18 19.07" width="18" height="19.07"><path d="M0,5A5,5,0,0,1,9.82,3.68H15a2.19,2.19,0,0,1,1,.21L15.85,4s-.07,0-.07.08l-2,1.75H9.94A5,5,0,0,1,5,10a5.29,5.29,0,0,1-.9-.08v6.7a.33.33,0,0,0,.35.35H15a.33.33,0,0,0,.35-.35V11.17l2.09-2.31v7.76A2.48,2.48,0,0,1,15,19.07H4.45A2.48,2.48,0,0,1,2,16.62V9A5,5,0,0,1,0,5ZM1.25,5A3.75,3.75,0,1,0,5,1.25,3.74,3.74,0,0,0,1.25,5ZM5,5.83A.83.83,0,0,0,5.83,5a.81.81,0,0,0-.41-.71V2.5a.42.42,0,0,0-.84,0V4.29a1,1,0,0,0-.29.29h-1A.39.39,0,0,0,2.92,5a.39.39,0,0,0,.41.42h1A.81.81,0,0,0,5,5.83Zm12.88-.12-.7-.7a.34.34,0,0,0-.49,0L9.28,11.58,6.76,10.33a.43.43,0,0,0-.42.07l-.56.7c-.14.14-.07.34,0,.48L9,15a.76.76,0,0,0,1.05,0L18,6.27A.53.53,0,0,0,17.88,5.71Z" fill="#333" fill-rule="evenodd"/></svg>