<?xml version="1.0" encoding="utf-8"?><svg width="14" height="11" fill="none" xmlns="http://www.w3.org/2000/svg" viewBox="0 0 14 11"><path d="M13.7181 5.47483C12.7315 4.34732 10.1476 1.76343 7 1.76343C3.85235 1.76343 1.22148 4.34732 0.281879 5.47483C-0.0939597 5.89765 -0.0939597 6.55538 0.281879 7.02518C1.26846 8.15269 3.85235 10.7366 7 10.7366C10.1476 10.7366 12.7785 8.15269 13.7181 7.02518C14.094 6.55538 14.094 5.89765 13.7181 5.47483ZM3.80537 8.24664C2.72483 7.58892 1.87919 6.74329 1.45638 6.22651C1.87919 5.75672 2.72483 4.91108 3.80537 4.20639C3.42953 4.77014 3.24161 5.47484 3.24161 6.22651C3.24161 6.97819 3.47651 7.6359 3.80537 8.24664ZM7 9.04531C5.44966 9.04531 4.18121 7.77685 4.18121 6.22651C4.18121 4.67618 5.44966 3.40772 7 3.40772C8.55033 3.40772 9.81879 4.67618 9.81879 6.22651C9.81879 7.77685 8.55033 9.04531 7 9.04531ZM10.1946 8.24664C10.5705 7.68288 10.7584 6.97819 10.7584 6.22651C10.7584 5.47484 10.5235 4.81712 10.1946 4.20639C11.2752 4.8641 12.1208 5.70974 12.5436 6.22651C12.0738 6.69631 11.2282 7.54194 10.1946 8.24664ZM8.4094 6.22651C8.4094 7.02517 7.79866 7.63591 7 7.63591C6.20134 7.63591 5.5906 7.02517 5.5906 6.22651C5.5906 6.03859 5.63758 5.89766 5.68456 5.75672C5.73154 5.75672 5.77852 5.75672 5.8255 5.75672C6.20134 5.75672 6.5302 5.42786 6.5302 5.05202C6.5302 5.00504 6.5302 4.95806 6.5302 4.91108C6.67114 4.8641 6.85906 4.81712 7 4.81712C7.79866 4.81712 8.4094 5.42786 8.4094 6.22651Z" fill="#fff"/><path d="M13.7181 4.47483C12.7315 3.34732 10.1476 0.763428 7 0.763428C3.85235 0.763428 1.22148 3.34732 0.281879 4.47483C-0.0939597 4.89765 -0.0939597 5.55538 0.281879 6.02518C1.26846 7.15269 3.85235 9.73658 7 9.73658C10.1476 9.73658 12.7785 7.15269 13.7181 6.02518C14.094 5.55538 14.094 4.89765 13.7181 4.47483ZM3.80537 7.24664C2.72483 6.58892 1.87919 5.74329 1.45638 5.22651C1.87919 4.75672 2.72483 3.91108 3.80537 3.20639C3.42953 3.77014 3.24161 4.47484 3.24161 5.22651C3.24161 5.97819 3.47651 6.6359 3.80537 7.24664ZM7 8.04531C5.44966 8.04531 4.18121 6.77685 4.18121 5.22651C4.18121 3.67618 5.44966 2.40772 7 2.40772C8.55033 2.40772 9.81879 3.67618 9.81879 5.22651C9.81879 6.77685 8.55033 8.04531 7 8.04531ZM10.1946 7.24664C10.5705 6.68288 10.7584 5.97819 10.7584 5.22651C10.7584 4.47484 10.5235 3.81712 10.1946 3.20639C11.2752 3.8641 12.1208 4.70974 12.5436 5.22651C12.0738 5.69631 11.2282 6.54194 10.1946 7.24664ZM8.4094 5.22651C8.4094 6.02517 7.79866 6.63591 7 6.63591C6.20134 6.63591 5.5906 6.02517 5.5906 5.22651C5.5906 5.03859 5.63758 4.89766 5.68456 4.75672C5.73154 4.75672 5.77852 4.75672 5.8255 4.75672C6.20134 4.75672 6.5302 4.42786 6.5302 4.05202C6.5302 4.00504 6.5302 3.95806 6.5302 3.91108C6.67114 3.8641 6.85906 3.81712 7 3.81712C7.79866 3.81712 8.4094 4.42786 8.4094 5.22651Z" fill="#1E6393"/></svg>