<?xml version="1.0" encoding="utf-8"?><svg width="14" height="11" fill="none" xmlns="http://www.w3.org/2000/svg" viewBox="0 0 14 11"><path d="M13.718 5.475C12.732 4.347 10.148 1.763 7 1.763S1.221 4.347.282 5.475c-.376.423-.376 1.08 0 1.55.986 1.128 3.57 3.712 6.718 3.712s5.778-2.584 6.718-3.712c.376-.47.376-1.127 0-1.55zM3.805 8.247a9.796 9.796 0 01-2.349-2.02 12.49 12.49 0 012.35-2.02c-.376.563-.564 1.268-.564 2.02 0 .751.235 1.409.563 2.02zM7 9.045a2.827 2.827 0 01-2.819-2.818A2.827 2.827 0 017 3.407a2.827 2.827 0 012.819 2.82A2.827 2.827 0 017 9.045zm3.195-.798c.375-.564.563-1.269.563-2.02 0-.752-.234-1.41-.563-2.02a9.795 9.795 0 012.349 2.02c-.47.47-1.316 1.315-2.35 2.02zm-1.786-2.02c0 .798-.61 1.409-1.409 1.409s-1.41-.61-1.41-1.41c0-.187.048-.328.095-.47h.14a.723.723 0 00.705-.704v-.14A1.67 1.67 0 017 4.816c.799 0 1.41.61 1.41 1.41z" fill="#fff"/><path d="M13.718 4.475C12.732 3.347 10.148.763 7 .763S1.221 3.347.282 4.475c-.376.423-.376 1.08 0 1.55C1.268 7.153 3.852 9.737 7 9.737s5.778-2.584 6.718-3.712c.376-.47.376-1.127 0-1.55zM3.805 7.247a9.796 9.796 0 01-2.349-2.02 12.49 12.49 0 012.35-2.02c-.376.563-.564 1.268-.564 2.02 0 .751.235 1.409.563 2.02zM7 8.045a2.827 2.827 0 01-2.819-2.818A2.827 2.827 0 017 2.407a2.827 2.827 0 012.819 2.82A2.827 2.827 0 017 8.045zm3.195-.798c.375-.564.563-1.269.563-2.02 0-.752-.234-1.41-.563-2.02a9.795 9.795 0 012.349 2.02c-.47.47-1.316 1.315-2.35 2.02zm-1.786-2.02c0 .798-.61 1.409-1.409 1.409s-1.41-.61-1.41-1.41c0-.187.048-.328.095-.47h.14a.723.723 0 00.705-.704v-.14A1.67 1.67 0 017 3.816c.799 0 1.41.61 1.41 1.41z" fill="#1E6393"/></svg>