<?xml version="1.0" encoding="utf-8"?><svg xmlns="http://www.w3.org/2000/svg" viewBox="0 0 16 16" width="16" height="16"><path d="M14.22,0H1.78A1.78,1.78,0,0,0,0,1.78V14.22A1.78,1.78,0,0,0,1.78,16H14.22A1.78,1.78,0,0,0,16,14.22V1.78A1.78,1.78,0,0,0,14.22,0Zm0,14.22H1.78V1.78H14.22ZM9.72,6.28a3,3,0,0,1,0,4.22l-2,1.94a2.91,2.91,0,0,1-2.11.89,2.85,2.85,0,0,1-2.09-.89,2.93,2.93,0,0,1,0-4.21L4.76,7v.54A3.65,3.65,0,0,0,5,8.84L5,9l-.36.36a1.48,1.48,0,0,0-.31.47,1.3,1.3,0,0,0-.12.55,1.33,1.33,0,0,0,.12.55,1.44,1.44,0,0,0,.31.46,1.45,1.45,0,0,0,2,0L8.62,9.41a1.46,1.46,0,0,0,.43-1,1.41,1.41,0,0,0-.43-1,.85.85,0,0,1-.17-.25.8.8,0,0,1-.06-.3.73.73,0,0,1,.06-.3.74.74,0,0,1,.17-.25A.79.79,0,0,1,9.72,6.28Zm3.61-.63a2.94,2.94,0,0,1-.89,2.12L11.25,9V8.44a3.65,3.65,0,0,0-.2-1.28L11,7l.36-.37a1.48,1.48,0,0,0,.31-.47,1.3,1.3,0,0,0,.12-.55,1.33,1.33,0,0,0-.12-.55,1.44,1.44,0,0,0-.31-.46,1.46,1.46,0,0,0-2,0l-1.95,2a1.4,1.4,0,0,0,0,2,.75.75,0,0,1,.23.55.73.73,0,0,1-.23.55.65.65,0,0,1-.26.17.72.72,0,0,1-.29.06.74.74,0,0,1-.55-.23,3,3,0,0,1,0-4.22l2-1.94a2.89,2.89,0,0,1,1-.66,2.94,2.94,0,0,1,2.28,0,2.89,2.89,0,0,1,1,.66A2.84,2.84,0,0,1,13.33,5.65Z" fill="var(--svg-icon-fill, #000)"/></svg>