<?xml version="1.0" encoding="utf-8"?><svg width="24" height="23.04" fill="none" xmlns="http://www.w3.org/2000/svg" viewBox="0 0 25 24"><path d="M14.386 4.875a7.804 7.804 0 00-3.755.019 7.896 7.896 0 00-4.385 2.924 7.83 7.83 0 00-1.56 5.018 7.69 7.69 0 001.975 4.835 7.7 7.7 0 004.612 2.457 7.845 7.845 0 005.155-1.038 7.89 7.89 0 003.359-4.06 7.79 7.79 0 00.427-3.53M16.753 10.968a4.646 4.646 0 11-2.383-2.64" stroke="#333"/><path d="M16.895 8l-4.726 4.683" stroke="#0094FF"/><path d="M18.895 2l-2.5 6.5 6.5-2.5h-4V2z" stroke="#0094FF" stroke-linejoin="round"/></svg>