<?xml version="1.0" encoding="utf-8"?><svg xmlns="http://www.w3.org/2000/svg" viewBox="0 0 24.02 24" width="24" height="23.98"><path d="M19.32,12.69l-2,3a.45.45,0,0,1-.62.12.34.34,0,0,1-.12-.12l-2-3a.45.45,0,0,1,.13-.62A.48.48,0,0,1,15,12h1a1.93,1.93,0,0,0,0-.24,4,4,0,0,0-1.16-2.58L14.65,9a3.93,3.93,0,0,0-2.89-1,3.85,3.85,0,0,0-1.37.35.52.52,0,0,1-.65-.17l-.57-.86a.49.49,0,0,1,.13-.68l0,0a6,6,0,0,1,8,2.73A6.14,6.14,0,0,1,18,11.64c0,.12,0,.24,0,.36h1a.44.44,0,0,1,.44.44A.43.43,0,0,1,19.32,12.69Zm-5.06,3.12a.52.52,0,0,0-.65-.17,3.85,3.85,0,0,1-1.37.35A4,4,0,0,1,8,12.24s0-.16,0-.24h1a.44.44,0,0,0,.44-.44.43.43,0,0,0-.07-.25l-2-3a.45.45,0,0,0-.62-.12.34.34,0,0,0-.12.12l-2,3a.45.45,0,0,0,.13.62.48.48,0,0,0,.24.07H6c0,.12,0,.24,0,.36a6,6,0,0,0,1.74,3.88l.07.07a6,6,0,0,0,6.83,1.07.5.5,0,0,0,.21-.67l0,0Zm6.23,4.68a12,12,0,1,1,0-17h0a12,12,0,0,1,.05,16.92ZM18.36,5.64a9,9,0,1,0,0,12.72,9,9,0,0,0,0-12.72Z" fill="var(--svg-icon-fill, #000)"/></svg>