<?xml version="1.0" encoding="utf-8"?><svg xmlns="http://www.w3.org/2000/svg" viewBox="0 0 24 24" width="24" height="24"><path d="M14.9,5.58l-.33,2a.5.5,0,0,1-.49.42H11.59a.5.5,0,0,1-.5-.5.19.19,0,0,1,0-.08l.33-2A.5.5,0,0,1,11.92,5h2.49a.5.5,0,0,1,.5.5A.19.19,0,0,1,14.9,5.58ZM24,12A12,12,0,1,1,12,0,12,12,0,0,1,24,12Zm-3,0a9,9,0,1,0-9,9A9,9,0,0,0,21,12ZM13,9H9.89a.49.49,0,0,0-.48.38l-.25,1a.5.5,0,0,0,.36.61h.88L8.57,17.08a1.42,1.42,0,0,0,.8,1.83A1.36,1.36,0,0,0,10,19h3.61a.49.49,0,0,0,.48-.38l.25-1A.5.5,0,0,0,14,17H12.6l1.83-6.08a1.42,1.42,0,0,0-.8-1.83A1.36,1.36,0,0,0,13,9Z" fill="var(--svg-icon-fill, #000)"/></svg>