<?xml version="1.0" encoding="utf-8"?><svg xmlns="http://www.w3.org/2000/svg" viewBox="0 0 24.01 24" width="24" height="23.99"><path d="M14,16v2a1,1,0,0,1-1,1H11a1,1,0,0,1-1-1V16a1,1,0,0,1,1-1h2A1,1,0,0,1,14,16Zm1.94-7c.22,3-1.77,2.95-2.12,4.57a.55.55,0,0,1-.54.44H10.56a.51.51,0,0,1-.5-.52.13.13,0,0,1,0-.06c.28-2.25,2.56-2.34,2.61-3.88a1.07,1.07,0,0,0-1.08-1h-.1a1.5,1.5,0,0,0-1.43,1.06A.6.6,0,0,1,9.5,10H7.6a.47.47,0,0,1-.47-.45v0A4.56,4.56,0,0,1,11.52,5.3C13.63,5.31,15.75,6.38,15.94,9ZM13.37,20.9a9,9,0,0,1-5.85-1.1L7,19.49l-3.37.9.74-2.77.16-.6-.31-.54a9,9,0,1,1,9.17,4.42ZM12,24a12.28,12.28,0,0,0,1.82-.13A12,12,0,1,0,1.3,17.42L.08,22a1.6,1.6,0,0,0,.39,1.56A1.56,1.56,0,0,0,2,23.92L6.58,22.7A11.85,11.85,0,0,0,12,24Z" fill="var(--svg-icon-fill, #000)"/></svg>