<?xml version="1.0" encoding="utf-8"?><svg xmlns="http://www.w3.org/2000/svg" viewBox="0 0 24.01 24" width="24" height="23.99"><path d="M14,16v2a1,1,0,0,1-1,1H11a1,1,0,0,1-1-1V16a1,1,0,0,1,1-1h2A1,1,0,0,1,14,16ZM13,5H11a1,1,0,0,0-1,1V9l.92,4.6a.5.5,0,0,0,.49.4h1.18a.5.5,0,0,0,.49-.4L14,9V6A1,1,0,0,0,13,5Zm.37,15.9a9,9,0,0,1-5.85-1.1L7,19.49l-3.37.9.74-2.77.16-.6-.31-.54a9,9,0,1,1,9.17,4.42ZM12,24a12.28,12.28,0,0,0,1.82-.13A12,12,0,1,0,1.3,17.42L.08,22a1.6,1.6,0,0,0,.39,1.56A1.56,1.56,0,0,0,2,23.92L6.58,22.7A11.85,11.85,0,0,0,12,24Z" fill="var(--svg-icon-fill, #000)"/></svg>