<?xml version="1.0" encoding="utf-8"?><svg xmlns="http://www.w3.org/2000/svg" viewBox="0 0 20 24" width="20" height="24"><path d="M16 14.5v1a.5.5 0 01-.5.5h-11a.5.5 0 01-.5-.5v-1a.5.5 0 01.5-.5h11a.5.5 0 01.5.5zm-.5 3.5h-11a.5.5 0 00-.5.5v1a.5.5 0 00.5.5h11a.5.5 0 00.5-.5v-1a.5.5 0 00-.5-.5zm0-8h-11a.5.5 0 00-.5.5v1a.5.5 0 00.5.5h11a.5.5 0 00.5-.5v-1a.5.5 0 00-.5-.5zM20 6v16a2 2 0 01-2 2H2a2 2 0 01-2-2V6a2 2 0 012-2h2V3a1 1 0 011-1h2a2 2 0 012-2h2a2 2 0 012 2h2a1 1 0 011 1v1h2a2 2 0 012 2zm-2 16V6h-2v1a1 1 0 01-1 1H5a1 1 0 01-1-1V6H2v16z"/></svg>