<?xml version="1.0" encoding="utf-8"?><svg xmlns="http://www.w3.org/2000/svg" viewBox="0 0 23 24" width="23" height="24"><path d="M20,0H3A3,3,0,0,0,0,3V22a2,2,0,0,0,2,2H21a2,2,0,0,0,2-2V3A3,3,0,0,0,20,0ZM7,21.5a.5.5,0,0,1-.5.5h-4a.5.5,0,0,1-.5-.5v-3a.5.5,0,0,1,.5-.5h4a.5.5,0,0,1,.5.5Zm0-6a.5.5,0,0,1-.5.5h-4a.5.5,0,0,1-.5-.5v-3a.5.5,0,0,1,.5-.5h4a.5.5,0,0,1,.5.5Zm0-6a.5.5,0,0,1-.5.5h-4A.5.5,0,0,1,2,9.5v-3A.5.5,0,0,1,2.5,6h4a.5.5,0,0,1,.5.5Zm7,12a.5.5,0,0,1-.5.5h-4a.5.5,0,0,1-.5-.5v-3a.5.5,0,0,1,.5-.5h4a.5.5,0,0,1,.5.5Zm0-6a.5.5,0,0,1-.5.5h-4a.5.5,0,0,1-.5-.5v-3a.5.5,0,0,1,.5-.5h4a.5.5,0,0,1,.5.5Zm0-6a.5.5,0,0,1-.5.5h-4A.5.5,0,0,1,9,9.5v-3A.5.5,0,0,1,9.5,6h4a.5.5,0,0,1,.5.5Zm7,12a.5.5,0,0,1-.5.5h-4a.5.5,0,0,1-.5-.5v-3a.5.5,0,0,1,.5-.5h4a.5.5,0,0,1,.5.5Zm0-6a.5.5,0,0,1-.5.5h-4a.5.5,0,0,1-.5-.5v-3a.5.5,0,0,1,.5-.5h4a.5.5,0,0,1,.5.5Zm0-6a.5.5,0,0,1-.5.5h-4a.5.5,0,0,1-.5-.5v-3a.5.5,0,0,1,.5-.5h4a.5.5,0,0,1,.5.5Z" fill="var(--svg-icon-fill, #000)"/></svg>