<?xml version="1.0" encoding="utf-8"?><svg xmlns="http://www.w3.org/2000/svg" viewBox="0 0 24 23" width="24" height="23"><path d="M17,21.24V22.5a.5.5,0,0,1-.5.5H.5a.5.5,0,0,1-.5-.5V21.24a1.87,1.87,0,0,1,.83-1.56l2.95-2.42A5,5,0,0,0,7.55,19h1.9a5,5,0,0,0,3.77-1.73c1.12.93,2.52,2.08,3,2.41A1.66,1.66,0,0,1,17,21.24Zm6.57-3-2.21-1.55A4,4,0,0,1,18.28,19,3.41,3.41,0,0,1,19,21H23.5a.5.5,0,0,0,.5-.5V19A1,1,0,0,0,23.57,18.2ZM2.64,10.13A3,3,0,0,0,4,11.59l.66,3.05A3,3,0,0,0,7.55,17h1.9a3,3,0,0,0,2.93-2.36L13,11.59a3,3,0,0,0,1.32-1.46l.28-.76a1.28,1.28,0,0,0-.57-1.71l-.07,0V5c0-3-2-5-5.5-5S3,2,3,5V7.63A1.27,1.27,0,0,0,2.33,9.3l0,.07Zm17.08,5.12.16-1.32a1.52,1.52,0,0,0,.94-.88l.36-1.1a.66.66,0,0,0-.18-.76V9a4,4,0,0,0-3.9-4,4.1,4.1,0,0,0-1.1.14V6.67a3.35,3.35,0,0,1,.51,3.4l-.28.75a4.67,4.67,0,0,1-1.39,1.94l-.51,2.31s0,.11-.05.17h0a2,2,0,0,0,2,1.75h1.46A2,2,0,0,0,19.72,15.25Z" fill="var(--svg-icon-fill, #000)"/></svg>