<?xml version="1.0" encoding="utf-8"?><svg xmlns="http://www.w3.org/2000/svg" viewBox="0 0 24 24" width="24" height="24"><path d="M12,0A12,12,0,1,0,24,12,12,12,0,0,0,12,0Zm0,21a9,9,0,1,1,9-9A9,9,0,0,1,12,21ZM17.3,9.53,14.83,12l2.47,2.47a.5.5,0,0,1,0,.71L15.18,17.3a.5.5,0,0,1-.71,0L12,14.83,9.53,17.3a.5.5,0,0,1-.71,0L6.7,15.18a.5.5,0,0,1,0-.71L9.17,12,6.7,9.53a.5.5,0,0,1,0-.71L8.82,6.7a.5.5,0,0,1,.71,0L12,9.17,14.47,6.7a.5.5,0,0,1,.71,0L17.3,8.82A.5.5,0,0,1,17.3,9.53Z" fill="var(--svg-icon-fill, #000)"/></svg>