<?xml version="1.0" encoding="utf-8"?><svg xmlns="http://www.w3.org/2000/svg" viewBox="0 0 16 24" width="16" height="24"><path d="M15 6.56V4c.55 0 1-.6 1-1.33V1.33C16 .6 15.55 0 15 0H1C.45 0 0 .6 0 1.33v1.34C0 3.4.45 4 1 4v2.56a4 4 0 001.5 3.12L5.4 12l-2.9 2.32A4 4 0 001 17.44V20c-.55 0-1 .6-1 1.33v1.34C0 23.4.45 24 1 24h14c.55 0 1-.6 1-1.33v-1.34c0-.73-.45-1.33-1-1.33v-2.56a4 4 0 00-1.5-3.12L10.6 12l2.9-2.32A4 4 0 0015 6.56zm-2 0a2 2 0 01-.75 1.56l-2.9 2.32A2 2 0 009 13.25a2.27 2.27 0 00.31.31l2.9 2.32a2 2 0 01.79 1.56V20h-1.79l-2.8-3.9a.49.49 0 00-.7-.11.63.63 0 00-.12.11L4.79 20H3v-2.56a2 2 0 01.75-1.56l2.9-2.32A2 2 0 007 10.75a2.27 2.27 0 00-.31-.31L3.75 8.12A2 2 0 013 6.56V4h10zm-7.57-.13a.26.26 0 010-.36.29.29 0 01.18-.07h4.78a.25.25 0 01.25.25.29.29 0 01-.07.18L8.35 8.61a.48.48 0 01-.7 0z"/></svg>