<?xml version="1.0" encoding="utf-8"?><svg xmlns="http://www.w3.org/2000/svg" viewBox="0 0 24 24" width="24" height="24"><path d="M20.5 0h-17A3.5 3.5 0 000 3.5v17A3.5 3.5 0 003.5 24h17a3.5 3.5 0 003.5-3.5v-17A3.5 3.5 0 0020.5 0zm-6.07 10.92L12.6 17h1.26a.5.5 0 01.5.5.5.5 0 010 .12l-.25 1a.49.49 0 01-.48.38H10a1.42 1.42 0 01-1.52-1.29 1.69 1.69 0 01.09-.63L10.4 11h-.76a.5.5 0 01-.5-.5.5.5 0 010-.12l.25-1a.49.49 0 01.5-.38H13a1.42 1.42 0 011.52 1.29 1.69 1.69 0 01-.09.63zm.14-3.34a.5.5 0 01-.49.42h-2.49a.5.5 0 01-.5-.5.19.19 0 010-.08l.33-2a.5.5 0 01.5-.42h2.49a.5.5 0 01.5.5.19.19 0 010 .08z"/></svg>