<?xml version="1.0" encoding="utf-8"?><svg xmlns="http://www.w3.org/2000/svg" viewBox="0 0 26.55 24" width="24" height="21.69"><path d="M15.56,6v4.3a2,2,0,0,1,.91,2.23l1.61,1.61a1,1,0,0,1-1.41,1.42l-1.61-1.61a2,2,0,0,1-1.5-3.66V6a1,1,0,1,1,2,0ZM14.44,0A12,12,0,0,0,2.6,11H.5a.5.5,0,0,0-.5.5.47.47,0,0,0,.09.28l3.54,5.13a.51.51,0,0,0,.7.12.49.49,0,0,0,.13-.12L8,11.78a.5.5,0,0,0-.12-.69A.52.52,0,0,0,7.59,11h-2a9,9,0,1,1,2.77,7.54,1,1,0,0,0-1.4,0l-.1.12-.57.83a1,1,0,0,0,.16,1.32,12,12,0,0,0,20.08-9.33A12.12,12.12,0,0,0,14.44,0Z" fill="var(--svg-icon-fill, #000)"/></svg>