<?xml version="1.0" encoding="utf-8"?><svg xmlns="http://www.w3.org/2000/svg" viewBox="0 0 23.9 23.9" width="23.9" height="23.9"><path d="M23.84,10.76a.51.51,0,0,0-.39-.43l-2.81-.71a9.31,9.31,0,0,0-.9-2.16L21.23,5a.5.5,0,0,0,0-.58,11.6,11.6,0,0,0-1.68-1.68.51.51,0,0,0-.58,0L16.45,4.16a8.93,8.93,0,0,0-2.17-.89L13.58.45a.51.51,0,0,0-.44-.38,10.52,10.52,0,0,0-2.38,0,.5.5,0,0,0-.43.38L9.62,3.27a9,9,0,0,0-2.16.89L5,2.67a.51.51,0,0,0-.58,0A12.12,12.12,0,0,0,2.71,4.39a.51.51,0,0,0,0,.58L4.16,7.46a8.7,8.7,0,0,0-.89,2.16l-2.82.71a.5.5,0,0,0-.38.43,10.52,10.52,0,0,0,0,2.38.51.51,0,0,0,.38.44l2.82.7a8.93,8.93,0,0,0,.89,2.17L2.67,18.93a.51.51,0,0,0,0,.58,11.6,11.6,0,0,0,1.68,1.68.5.5,0,0,0,.58,0l2.49-1.49a9.31,9.31,0,0,0,2.16.9l.71,2.81a.51.51,0,0,0,.43.39,10.52,10.52,0,0,0,2.38,0,.52.52,0,0,0,.44-.39l.7-2.81a9.38,9.38,0,0,0,2.17-.9l2.48,1.49a.5.5,0,0,0,.58,0,11.67,11.67,0,0,0,1.69-1.68.51.51,0,0,0,0-.58l-1.49-2.48a9.38,9.38,0,0,0,.9-2.17l2.81-.7a.52.52,0,0,0,.39-.44,10.52,10.52,0,0,0,0-2.38ZM12,16.13A4.18,4.18,0,1,1,16.13,12,4.18,4.18,0,0,1,12,16.13Z" fill="var(--svg-icon-fill, #000)"/></svg>