<?xml version="1.0" encoding="utf-8"?><svg xmlns="http://www.w3.org/2000/svg" viewBox="0 0 22 24.75" width="21.33" height="24"><path d="M22 6.25v15a3.52 3.52 0 01-3.5 3.5h-15a3.52 3.52 0 01-3.5-3.5v-15a3.5 3.5 0 013.5-3.5h4.13l-.4 3H3.5a.5.5 0 00-.5.5v15a.52.52 0 00.5.5h15a.52.52 0 00.5-.5v-15a.5.5 0 00-.5-.5h-3.73l-.4-3h4.13a3.5 3.5 0 013.5 3.5zM6.19 11.57l4 5.75a1 1 0 001.39.25 1 1 0 00.25-.25l4-5.75a1 1 0 00-.25-1.39A1 1 0 0015 10h-1.75L12 .46a.5.5 0 00-.5-.46h-1a.5.5 0 00-.5.46L8.75 10H7a1 1 0 00-.81 1.57z" class="fill nostroke"/></svg>