<?xml version="1.0" encoding="utf-8"?><svg xmlns="http://www.w3.org/2000/svg" viewBox="0 0 28 28" width="24" height="24"><path d="M5.36,13.37a1.28,1.28,0,0,1,.57-1.71l.07,0V9c0-3,2-5,5.5-5a6.86,6.86,0,0,1,2.65.5,8,8,0,0,0,3.59,8.26,1.57,1.57,0,0,1-.1.61l-.28.76A3,3,0,0,1,16,15.59l-.66,3.05A3,3,0,0,1,12.45,21h-1.9a3,3,0,0,1-2.93-2.36L7,15.59a3,3,0,0,1-1.32-1.46ZM28,6a6,6,0,1,1-6-6A6,6,0,0,1,28,6Zm-3-.5a.5.5,0,0,0-.5-.5H23V3.5a.5.5,0,0,0-.5-.5h-1a.5.5,0,0,0-.5.5V5H19.5a.5.5,0,0,0-.5.5v1a.5.5,0,0,0,.5.5H21V8.5a.5.5,0,0,0,.5.5h1a.5.5,0,0,0,.5-.5V7h1.5a.5.5,0,0,0,.5-.5ZM22.07,22.87l-5.14-2.7A5,5,0,0,1,12.45,23h-1.9a5,5,0,0,1-4.48-2.83L.93,22.87A1.59,1.59,0,0,0,0,24.24V27a1,1,0,0,0,1,1H22a1,1,0,0,0,1-1V24.24A1.59,1.59,0,0,0,22.07,22.87Z" fill="var(--svg-icon-fill, #000)"/></svg>