<?xml version="1.0" encoding="utf-8"?><svg xmlns="http://www.w3.org/2000/svg" viewBox="0 0 27 24.12" width="24" height="21.44"><path d="M26.8,21.88,14.8.76a1.49,1.49,0,0,0-2-.56,1.37,1.37,0,0,0-.56.56L.2,21.88a1.49,1.49,0,0,0,.56,2,1.47,1.47,0,0,0,.74.2h24a1.49,1.49,0,0,0,1.3-2.24ZM15.5,20.12a1,1,0,0,1-1,1h-2a1,1,0,0,1-1-1v-2a1,1,0,0,1,1-1h2a1,1,0,0,1,1,1Zm0-9-.63,3.59a.49.49,0,0,1-.49.41H12.62a.49.49,0,0,1-.49-.41l-.63-3.59v-3a1,1,0,0,1,1-1h2a1,1,0,0,1,1,1Z" fill="var(--svg-icon-fill, #000)"/></svg>