<?xml version="1.0" encoding="utf-8"?><svg xmlns="http://www.w3.org/2000/svg" viewBox="0 0 19.07 22.54" width="19.07" height="22.54"><path d="M18.89,15.57l-4.58,6.55a1,1,0,0,1-1.39.24,1.09,1.09,0,0,1-.24-.24L8.1,15.57A1,1,0,0,1,8.92,14H11V1a1,1,0,0,1,1-1h3a1,1,0,0,1,1,1V14h2.07a1,1,0,0,1,1,1A.94.94,0,0,1,18.89,15.57ZM3,20a1,1,0,0,1-1-1H2V15.41l-.3.3A1,1,0,0,1,.29,14.29l2-2A1,1,0,0,1,4,13v6a1,1,0,0,1-1,1ZM6,7A1,1,0,0,0,5,6H2.55a1.35,1.35,0,0,1,.74-.63c.59-.21,2.38-.85,2.38-2.66A2.71,2.71,0,0,0,3,0,3.16,3.16,0,0,0,.48,1.21,1,1,0,0,0,2,2.5,1.19,1.19,0,0,1,3,2a.71.71,0,0,1,.71.71c0,.12,0,.4-1,.78A3.59,3.59,0,0,0,.32,7.05a1,1,0,0,0,1,1H5A1,1,0,0,0,6,7Z" fill="var(--svg-icon-fill, #000)"/></svg>