<?xml version="1.0" encoding="utf-8"?><svg xmlns="http://www.w3.org/2000/svg" viewBox="0 0 23.63 23.71" width="23.63" height="23.71"><path d="M23.11,8.92a6.38,6.38,0,0,1-7.78,3.7L4.54,23.41a1,1,0,0,1-1.42,0h0L.29,20.59a1,1,0,0,1,0-1.42h0L11,8.43A6.41,6.41,0,0,1,14.74.5,6.29,6.29,0,0,1,17.52,0,.5.5,0,0,1,18,.52a.48.48,0,0,1-.14.34L15.44,3.27a.52.52,0,0,0-.13.47l.83,3.38a.5.5,0,0,0,.36.37l3.38.83a.5.5,0,0,0,.47-.13l2.42-2.42a.49.49,0,0,1,.84.3A6.21,6.21,0,0,1,23.11,8.92Z" fill="var(--svg-icon-fill, #000)"/></svg>