<?xml version="1.0" encoding="utf-8"?><svg xmlns="http://www.w3.org/2000/svg" viewBox="0 0 18 24" width="18" height="24"><path d="M4,5.5v-1A.5.5,0,0,1,4.5,4h9a.5.5,0,0,1,.5.5v1a.5.5,0,0,1-.5.5h-9A.5.5,0,0,1,4,5.5ZM7.5,16h-3a.5.5,0,0,0-.5.5v1a.5.5,0,0,0,.5.5h3a.5.5,0,0,0,.5-.5v-1A.5.5,0,0,0,7.5,16Zm-3-6h9a.5.5,0,0,0,.5-.5v-1a.5.5,0,0,0-.5-.5h-9a.5.5,0,0,0-.5.5v1A.5.5,0,0,0,4.5,10ZM14,12.5a.5.5,0,0,0-.5-.5h-9a.5.5,0,0,0-.5.5v1a.5.5,0,0,0,.5.5h9a.5.5,0,0,0,.5-.5ZM17,24a1,1,0,0,1-.55-.17l-2.4-1.59-1.92,1.54a1,1,0,0,1-1.25,0L9,22.28l-1.87,1.5a1,1,0,0,1-1.25,0L4,22.24l-2.4,1.59a1,1,0,0,1-1.38-.28A1,1,0,0,1,0,23V2A2,2,0,0,1,2,0H16a2,2,0,0,1,2,2V23a1,1,0,0,1-1,1ZM9,20a1,1,0,0,1,.63.22l1.87,1.5,1.88-1.5a1,1,0,0,1,1.17,0l1.45,1V2H2V21.13l1.45-1a1,1,0,0,1,1.18,0l1.87,1.5,1.88-1.5A1,1,0,0,1,9,20Z" fill="var(--svg-icon-fill, #000)"/></svg>