<?xml version="1.0" encoding="utf-8"?><svg xmlns="http://www.w3.org/2000/svg" viewBox="0 0 27 27.43" width="23.62" height="24"><path d="M16.84,12.82,14,16v6.52a1,1,0,0,1-.36.77l-4.82,4a.5.5,0,0,1-.7-.07A.47.47,0,0,1,8,26.93V16L.25,7.3A1,1,0,0,1,0,6.63V5A1,1,0,0,1,1,4H13.26A7.93,7.93,0,0,0,16.84,12.82ZM27,6a6,6,0,1,1-6-6A6,6,0,0,1,27,6Zm-3-.5a.5.5,0,0,0-.5-.5H22V3.5a.5.5,0,0,0-.5-.5h-1a.5.5,0,0,0-.5.5V5H18.5a.5.5,0,0,0-.5.5v1a.5.5,0,0,0,.5.5H20V8.5a.5.5,0,0,0,.5.5h1a.5.5,0,0,0,.5-.5V7h1.5a.5.5,0,0,0,.5-.5Z" fill="var(--svg-icon-fill, #000)"/></svg>