<?xml version="1.0" encoding="utf-8"?><svg xmlns="http://www.w3.org/2000/svg" viewBox="0 0 36.4 24.2" width="24" height="15.96"><path d="M34.4 11.9l2-2.1L26.3.1l-2 2.1c-.4.4-.4 1 0 1.4l8.7 8.3c.3.4 1 .4 1.4 0zm-30.9-.1l8.3-8.3c.4-.4.4-1 0-1.4L9.7 0 0 9.7l2.1 2.1c.4.4 1 .4 1.4 0zM28.4 16l.3.9c.2.4 0 .9-.4 1.2l-8 5.5c-.2.1-.4.2-.6.2-.2 0-.4-.1-.6-.2l-1.3-.8-.9 1.1c-.2.3-.5.4-.8.4-.2 0-.4-.1-.6-.2l-7.9-6c-.2-.2-.4-.5-.4-.8v-1.5L4.8 14c-.3-.2-.4-.4-.4-.7s.1-.6.3-.8l8.1-8.1c.2-.2.4-.3.7-.3.3 0 .5.1.7.3L16 6.3c.1-.1.3-.1.4-.1H21l1.4-1.1c.4-.3.9-.3 1.3 0l7.6 6.9c.2.2.3.5.3.8s-.1.6-.4.7L28.4 16zm-14.6-5.1l1.1.7 4-1.6c.1 0 .2-.1.4-.1s.3 0 .4.1l7.9 4 1.5-1.3L23 7.2 22 8c-.2.1-.4.2-.6.2h-4.6l-3 2.7zm3.8 8.9l-8.2-4v.9l6.7 5.1 1.5-2zm1.6-7.7l-4.1 1.6c-.3.1-.6.1-.9-.1l-2.6-1.7c-.3-.2-.4-.4-.5-.8 0-.3.1-.6.3-.8l3-2.7-1-1.1L6.9 13l.7.5.2-.2c.3-.2.7-.2 1-.1l10.8 5.3c.3.1.5.4.5.7.1.3 0 .6-.2.8l-.8 1 .6.4 6.8-4.7-.5-1.3-6.8-3.3z"/><path d="M19.2 21.1l.6.4 6.8-4.7-.6-1.4-.6-.3-5.5 3.7c.1.1.2.3.3.4.1.3 0 .6-.2.8l-.8 1.1z"/></svg>