<?xml version="1.0" encoding="utf-8"?><svg xmlns="http://www.w3.org/2000/svg" viewBox="0 0 28 24.15" width="24" height="20.7"><path d="M28,13a7.45,7.45,0,0,1-1.93,5,6.5,6.5,0,0,1-4.62,2H20.5V17h.95a3.53,3.53,0,0,0,2.4-1A4.45,4.45,0,0,0,25,13a5,5,0,0,0-5-5c-.16,0-1,.11-1.53.17a.49.49,0,0,1-.53-.33l-.2-.6A6.19,6.19,0,0,0,12.61,3a6,6,0,0,0-6.44,7.34l.21.91a.51.51,0,0,1-.34.6l-.9.27A3,3,0,0,0,3,15a2,2,0,0,0,.41,1.23A2.49,2.49,0,0,0,5.2,17H7.5v3H5.2A5.33,5.33,0,0,1,1,18a5,5,0,0,1-1-3A5.93,5.93,0,0,1,3,9.8,7.26,7.26,0,0,1,3,9,9,9,0,0,1,20.06,5,8,8,0,0,1,28,13ZM17.76,18H15.5V12.5A.5.5,0,0,0,15,12H13a.5.5,0,0,0-.5.5V18H10.24a.5.5,0,0,0-.5.5.43.43,0,0,0,.1.29L13.6,24a.5.5,0,0,0,.69.11A.38.38,0,0,0,14.4,24l3.76-5.16a.48.48,0,0,0-.11-.69A.45.45,0,0,0,17.76,18Z" fill="var(--svg-icon-fill, #000)"/></svg>