<?xml version="1.0" encoding="utf-8"?><svg xmlns="http://www.w3.org/2000/svg" viewBox="0 0 19.07 22.54" width="19.07" height="22.54"><path d="M18.89,15.57l-4.58,6.55a1,1,0,0,1-1.39.24,1.14,1.14,0,0,1-.25-.24L8.09,15.57a1,1,0,0,1,.25-1.39A1,1,0,0,1,8.91,14H11V1a1,1,0,0,1,1-1h3a1,1,0,0,1,1,1V14h2.08a1,1,0,0,1,1,1A.94.94,0,0,1,18.89,15.57ZM5,20H1.31a1,1,0,0,1-1-.95,3.59,3.59,0,0,1,2.3-3.56c1-.38,1-.66,1-.78A.71.71,0,0,0,3,14a1.19,1.19,0,0,0-1,.5A1,1,0,0,1,.48,13.21,3.16,3.16,0,0,1,3,12a2.71,2.71,0,0,1,2.71,2.71c0,1.81-1.79,2.45-2.38,2.66a1.37,1.37,0,0,0-.75.63H5a1,1,0,1,1,0,2ZM4,7V1A1,1,0,0,0,3,0a1,1,0,0,0-.7.29l-2,2a1,1,0,0,0,0,1.42,1,1,0,0,0,1.4,0L2,3.41V7A1,1,0,0,0,4,7Z" fill="var(--svg-icon-fill, #000)"/></svg>