<?xml version="1.0" encoding="utf-8"?><svg xmlns="http://www.w3.org/2000/svg" viewBox="0 0 29.83 25.15" width="24" height="20.23"><path d="M29.22 15.13C27.17 17.5 21.67 23 14.91 23a13.59 13.59 0 01-4.67-.86l2.91-2.91a6 6 0 007.5-4 6.1 6.1 0 000-3.54l1.54-1.54a7.93 7.93 0 01-.52 7.57 25.4 25.4 0 005-4.26 26.06 26.06 0 00-4.11-3.67l2.16-2.16a28.94 28.94 0 014.51 4.2 2.49 2.49 0 01-.01 3.3zM26.13 2.56L4 24.71a1.5 1.5 0 01-2.13-2.12l3.27-3.27a28.41 28.41 0 01-4.53-4.19 2.49 2.49 0 010-3.26C2.66 9.5 8.16 4 14.91 4a13.61 13.61 0 014.68.86L24 .44a1.5 1.5 0 012.12 2.12zM6.91 13.5a8 8 0 011.25-4.26 25.4 25.4 0 00-5 4.26 26.11 26.11 0 004.11 3.67l.36-.36a7.9 7.9 0 01-.72-3.31zm9.77-5.73a5.89 5.89 0 00-1.77-.27 6 6 0 00-6 6 6.16 6.16 0 00.27 1.76z"/></svg>