<?xml version="1.0" encoding="utf-8"?><svg xmlns="http://www.w3.org/2000/svg" viewBox="0 0 23.86 23.71" width="23.86" height="23.71"><path d="M1.76,5.74.1,3A1.25,1.25,0,0,1,.36,1.64L1.56.44A1.26,1.26,0,0,1,2.9.16L5.66,1.83a1.32,1.32,0,0,1,.5.66l.7,2.15a.67.67,0,0,0,.19.3L9,6.89a7,7,0,0,0,.08.91L7.3,9.56,4.86,7.12a.79.79,0,0,0-.29-.18L2.41,6.23A1.26,1.26,0,0,1,1.76,5.74Zm17.17,9-.21.05a9.34,9.34,0,0,1-1.29.1,8.48,8.48,0,0,1-1.23-.09l-2.85,2.85,5.76,5.75a1,1,0,0,0,1.41,0h0l2.83-2.82a1,1,0,0,0,0-1.42h0Zm-.51-1.93a6.5,6.5,0,0,0,4.92-3.9,6.21,6.21,0,0,0,.5-2.85.49.49,0,0,0-.53-.45.46.46,0,0,0-.31.15L20.58,8.19a.5.5,0,0,1-.47.13l-3.38-.83a.5.5,0,0,1-.36-.37l-.83-3.38a.49.49,0,0,1,.13-.46L18.09.86a.5.5,0,0,0,0-.71A.47.47,0,0,0,17.75,0,6.29,6.29,0,0,0,15,.5a6.4,6.4,0,0,0-3.7,7.92L.52,19.17a1,1,0,0,0,0,1.42l2.83,2.82a1,1,0,0,0,1.41,0h0l10.8-10.79a6.43,6.43,0,0,0,2.86.2Z" fill="var(--svg-icon-fill, #000)"/></svg>