<?xml version="1.0" encoding="utf-8"?><svg xmlns="http://www.w3.org/2000/svg" viewBox="0 0 25 22" width="24" height="21.12"><path d="M9.5 10h-5c-.3 0-.5-.2-.5-.5v-5c0-.3.2-.5.5-.5h5c.3 0 .5.2.5.5v5c0 .3-.2.5-.5.5zM25 19c0 1.7-1.3 3-3 3H3c-1.7 0-3-1.3-3-3V1c0-.6.4-1 1-1h17c.6 0 1 .4 1 1v18c0 .6.4 1 1 1h2c.6 0 1-.4 1-1V4h-1v14.8c0 .1-.1.3-.3.3h-1.5c-.1 0-.3-.1-.3-.3V3c0-.6.4-1 1-1h3c.6 0 1 .4 1 1v16zM3 20h14.2c-.1-.3-.2-.6-.2-1V2H2v17c0 .6.4 1 1 1zM14.5 6h-2c-.3 0-.5-.2-.5-.5v-1c0-.3.2-.5.5-.5h2c.3 0 .5.2.5.5v1c0 .3-.2.5-.5.5zm0 4h-2c-.3 0-.5-.2-.5-.5v-1c0-.3.2-.5.5-.5h2c.3 0 .5.2.5.5v1c0 .3-.2.5-.5.5zm0 4h-10c-.3 0-.5-.2-.5-.5v-1c0-.3.2-.5.5-.5h10c.3 0 .5.2.5.5v1c0 .3-.2.5-.5.5zm0 4h-10c-.3 0-.5-.2-.5-.5v-1c0-.3.2-.5.5-.5h10c.3 0 .5.2.5.5v1c0 .3-.2.5-.5.5z"/></svg>