<?xml version="1.0" encoding="utf-8"?><svg xmlns="http://www.w3.org/2000/svg" viewBox="0 0 26 21.09" width="24" height="19.47"><path d="M26,6.8v8.25a3.51,3.51,0,0,1-3.5,3.5H8v2a.5.5,0,0,1-.5.5A.47.47,0,0,1,7.22,21L2.09,17.46a.51.51,0,0,1-.12-.7.49.49,0,0,1,.12-.13l5.13-3.54a.49.49,0,0,1,.69.13A.47.47,0,0,1,8,13.5v2.05H22.5a.51.51,0,0,0,.5-.5V8.45a1,1,0,0,1,.43-.82l1.79-1.24a.49.49,0,0,1,.69.13A.47.47,0,0,1,26,6.8ZM3,13.14V6.05a.5.5,0,0,1,.5-.5h15v2a.5.5,0,0,0,.5.5A.47.47,0,0,0,19.28,8l5.13-3.54a.51.51,0,0,0,.12-.7.49.49,0,0,0-.12-.13L19.28.09a.49.49,0,0,0-.69.13A.47.47,0,0,0,18.5.5V2.55H3.5A3.5,3.5,0,0,0,0,6.05v8.74a.5.5,0,0,0,.5.5.47.47,0,0,0,.28-.09L2.57,14A1,1,0,0,0,3,13.14Z" fill="var(--svg-icon-fill, #000)"/></svg>