<?xml version="1.0" encoding="utf-8"?><svg xmlns="http://www.w3.org/2000/svg" viewBox="0 0 24 24" width="24" height="24"><path d="M3.5,8H6v3H3.5a.51.51,0,0,0-.5.5V14H0V11.5A3.5,3.5,0,0,1,3.5,8ZM3,20.5V18H0v2.5A3.5,3.5,0,0,0,3.5,24H6V21H3.5A.51.51,0,0,1,3,20.5Zm10,0a.51.51,0,0,1-.5.5H10v3h2.5A3.5,3.5,0,0,0,16,20.5V18H13Zm11-17v9A3.5,3.5,0,0,1,20.5,16h-9A3.5,3.5,0,0,1,8,12.5v-9A3.5,3.5,0,0,1,11.5,0h9A3.5,3.5,0,0,1,24,3.5Zm-3,0a.51.51,0,0,0-.5-.5h-9a.51.51,0,0,0-.5.5v9a.51.51,0,0,0,.5.5h9a.51.51,0,0,0,.5-.5Z" fill="var(--svg-icon-fill, #000)"/></svg>