<?xml version="1.0" encoding="utf-8"?><svg xmlns="http://www.w3.org/2000/svg" viewBox="0 0 19.6 19.6" width="19.6" height="19.6"><path d="M7.47 1.28L8.68 8.1a.51.51 0 01-.41.58H8.1L1.28 7.47a.5.5 0 01-.4-.58.54.54 0 01.12-.27l1.35-1.33L.08 1.73a.49.49 0 01.07-.62l1-1a.49.49 0 01.58-.03l3.56 2.27L6.62 1a.5.5 0 01.71 0 .51.51 0 01.14.28zm4 7.4l6.82-1.21a.5.5 0 00.4-.58.54.54 0 00-.14-.27l-1.3-1.33 2.27-3.56a.49.49 0 00-.07-.62l-1-1a.49.49 0 00-.62-.07l-3.52 2.31L13 1a.5.5 0 00-.71 0 .51.51 0 00-.14.26L10.92 8.1a.51.51 0 00.41.58zM8.1 10.93l-6.82 1.2a.5.5 0 00-.4.58A.54.54 0 001 13l1.33 1.33-2.25 3.54a.49.49 0 00.07.62l1 1a.49.49 0 00.62.07l3.56-2.27 1.33 1.33a.5.5 0 00.71 0 .51.51 0 00.14-.26l1.2-6.82a.48.48 0 00-.4-.57.25.25 0 00-.17 0zm9.15 3.38L18.58 13a.5.5 0 000-.71.51.51 0 00-.26-.14l-6.82-1.2a.5.5 0 00-.58.4.48.48 0 000 .17l1.21 6.82a.5.5 0 00.58.4.54.54 0 00.27-.14l1.33-1.33 3.56 2.27a.49.49 0 00.62-.07l1-1a.49.49 0 00.07-.62z"/></svg>