<?xml version="1.0" encoding="utf-8"?><svg xmlns="http://www.w3.org/2000/svg" viewBox="0 0 33.05 19.47" width="24" height="14.14"><path d="M9.33,3.37l-4.5,7.79a1,1,0,0,1-1.37.37L0,9.53,5.5,0,9,2a1,1,0,0,1,.37,1.37Zm1.3,11.15a1,1,0,0,0-1.19,0l-1.07.8L14,19.47a2,2,0,0,0-.34-2.7ZM27.55,0,24.09,2a1,1,0,0,0-.37,1.37h0l4.5,7.79a1,1,0,0,0,1.37.37l3.46-2ZM18.47,9.33l-1.31.52a4,4,0,0,1-4.82-1.49l-.11-.17a2,2,0,0,1,.5-2.74L15,4.05,11.56,3.5,6.31,12.59,7,13.84l1.23-.92a3,3,0,0,1,3.58,0l3.11,2.29a4.06,4.06,0,0,1,1.47,3.21l.4.27a3,3,0,0,0,3.41-.06l4-2.86-4.57-6.1A1,1,0,0,0,18.47,9.33Zm1.14-5.76L13.9,7.08l.11.17a2,2,0,0,0,2.4.75l1.32-.53a3,3,0,0,1,3.52,1l3.94,5.25,1.55-1.12L21.49,3.5Z" fill="var(--svg-icon-fill, #000)"/></svg>