<?xml version="1.0" encoding="utf-8"?><svg xmlns="http://www.w3.org/2000/svg" viewBox="0 0 24 14" width="24" height="14"><path d="M24,4.5v5A4.49,4.49,0,0,1,19.5,14h-7A4.49,4.49,0,0,1,8,9.5V6A1,1,0,0,1,9,5h1a1,1,0,0,1,1,1V9.5A1.5,1.5,0,0,0,12.5,11h7A1.5,1.5,0,0,0,21,9.5v-5A1.5,1.5,0,0,0,19.5,3H17.86a.5.5,0,0,1-.47-.34l-.67-2A.49.49,0,0,1,17,0l.15,0H19.5A4.49,4.49,0,0,1,24,4.5ZM6.61,11.34A.5.5,0,0,0,6.14,11H4.5A1.5,1.5,0,0,1,3,9.5v-5A1.5,1.5,0,0,1,4.5,3h7A1.5,1.5,0,0,1,13,4.5V8a1,1,0,0,0,1,1h1a1,1,0,0,0,1-1V4.5A4.49,4.49,0,0,0,11.5,0h-7A4.49,4.49,0,0,0,0,4.5v5A4.49,4.49,0,0,0,4.5,14H6.81a.5.5,0,0,0,.5-.5.45.45,0,0,0,0-.16Z" fill="var(--svg-icon-fill, #000)"/></svg>