<?xml version="1.0" encoding="utf-8"?><svg xmlns="http://www.w3.org/2000/svg" viewBox="0 0 24.5 24.5" width="24" height="24"><path d="M22.9 19.6c.5.4.6 1.1.2 1.6l-3.3 3.3s-5.6.5-13-6.8C-.5 10.3 0 4.6 0 4.6l3.3-3.3c.4-.4 1.2-.3 1.5.2l2.8 3.9c.3.6.2 1.3-.2 1.8L5 9.5c1.2 1.6 2.6 3.4 4.5 5.4 1.9 1.9 3.7 3.4 5.4 4.6l2.4-2.4c.4-.4 1.2-.5 1.7-.1l3.9 2.6zm-8.3-9.7c-2.3-2.3-2.3-5.9 0-8.2s5.9-2.3 8.2 0C25 4 25 7.6 22.8 9.9s-6 2.2-8.2 0zm1.6-2.1c0 .3.2.5.4.4l3.5-.4c.3 0 .3-.2.1-.4l-1-1 1.9-1.9c.1-.1.1-.3 0-.4L20 3c.2 0 0 0-.1.1l-1.9 2-1-1c-.2-.2-.4-.1-.4.1l-.4 3.6z" fill="var(--svg-icon-fill, #000)"/></svg>