<?xml version="1.0" encoding="utf-8"?><svg xmlns="http://www.w3.org/2000/svg" viewBox="0 0 24 24" width="24" height="24"><path d="M12 0C5.4 0 0 5.4 0 12s5.4 12 12 12 12-5.4 12-12S18.6 0 12 0zM8.1 3.1c-.6.7-1.3 1.7-1.9 3H4.4c1-1.3 2.2-2.3 3.7-3zM3.2 8h2.3c-.3.9-.4 2-.5 3.1H2.4c.1-1.1.4-2.2.8-3.1zm0 8.1c-.4-1-.7-2-.9-3.1H5c.1 1.1.2 2.2.5 3.1H3.2zM4.4 18h1.8c.5 1.2 1.2 2.1 1.9 2.9-1.5-.7-2.7-1.7-3.7-2.9zm6.6 3.1c-.5-.3-1.8-1.3-2.8-3.1H11v3.1zm0-5H7.4c-.3-.9-.5-1.9-.6-3.1H11v3.1zm0-5H6.8c.1-1.2.3-2.3.6-3.1H11v3.1zm0-5H8.2c1-1.8 2.3-2.8 2.8-3.1v3.1zM20.8 8c.4 1 .7 2 .8 3.1H19c-.1-1.1-.2-2.2-.5-3.1h2.3zm-1.1-1.9h-1.9c-.6-1.3-1.3-2.2-2-3 1.6.6 2.9 1.7 3.9 3zM13 3c.5.3 1.8 1.3 2.8 3.1H13V3zm0 5h3.6c.3.9.5 1.9.6 3.1H13V8zm0 5h4.2c-.1 1.2-.3 2.2-.6 3.1H13V13zm0 8.1V18h2.8c-1 1.8-2.3 2.7-2.8 3.1zm2.9-.2c.7-.7 1.3-1.7 1.9-2.9h1.8c-.9 1.2-2.2 2.2-3.7 2.9zm4.9-4.8h-2.3c.3-.9.4-2 .5-3.1h2.7c-.1 1.1-.4 2.1-.9 3.1z" fill="var(--svg-icon-fill, #000)"/></svg>