<?xml version="1.0" encoding="utf-8"?><svg xmlns="http://www.w3.org/2000/svg" viewBox="0 0 24.78 22" width="24" height="21.31"><path d="M19 11.66l3-3v9.84a3.5 3.5 0 01-3.5 3.5h-15A3.5 3.5 0 010 18.5v-15A3.5 3.5 0 013.5 0h15a3.29 3.29 0 01.76.09L16.34 3H3.5a.51.51 0 00-.5.5v15a.51.51 0 00.5.5h15a.51.51 0 00.5-.5zm-10.19 4c-.2.52 0 .76.56.56 1.38-.56 3.82-1.55 3.84-1.57s-2.83-2.83-2.86-2.8zm12.9-9.51l-2.83-2.86-7.09 7.09 2.83 2.83zm2.92-3.63L22.51.37a.5.5 0 00-.71 0l-1.51 1.51 2.83 2.83 1.51-1.51a.5.5 0 000-.71z"/></svg>