<?xml version="1.0" encoding="utf-8"?><svg xmlns="http://www.w3.org/2000/svg" viewBox="0 0 29.81 19" width="24" height="15.3"><path d="M29.22 7.87C27.17 5.5 21.67 0 14.91 0S2.66 5.5.61 7.87a2.49 2.49 0 000 3.26C2.66 13.5 8.16 19 14.91 19s12.26-5.5 14.31-7.87a2.53 2.53 0 000-3.26zM8.16 13.76a25.4 25.4 0 01-5-4.26 25.4 25.4 0 015-4.26 7.91 7.91 0 000 8.52zm6.75 1.74a6 6 0 116-6 6 6 0 01-6 6zm6.76-1.74a7.91 7.91 0 000-8.52 25.4 25.4 0 015 4.26 25.4 25.4 0 01-5 4.26zM17.91 9.5a3 3 0 01-6 .06 3.14 3.14 0 01.2-1.09 1.49 1.49 0 001.77-1.16 1.3 1.3 0 000-.62 3 3 0 013.84 1.73 2.83 2.83 0 01.19 1.08z"/></svg>