<?xml version="1.0" encoding="utf-8"?><svg xmlns="http://www.w3.org/2000/svg" viewBox="0 0 24 24" width="24" height="24"><path d="M24 11.84A12 12 0 0112.72 24H12a12 12 0 01-7.17-2.39l-1.4 1.56a.5.5 0 01-.71 0 .44.44 0 01-.15-.17l-1.48-6.09a.5.5 0 01.37-.61.47.47 0 01.17 0l6.19.7a.5.5 0 01.44.55.6.6 0 01-.13.28l-1.32 1.52A9 9 0 0021 11.8a1 1 0 011.12-1.1l1 .13a1 1 0 01.62.32 1 1 0 01.26.69zM2.68 13a1.06 1.06 0 00.32-.8 9 9 0 0114.19-7.55l-1.32 1.49a.49.49 0 000 .7.47.47 0 00.27.12l6.19.75a.5.5 0 00.55-.44.32.32 0 000-.17L21.43 1a.49.49 0 00-.6-.36.41.41 0 00-.25.15l-1.39 1.6A12 12 0 0012 0h-.73A12 12 0 000 12.16a1 1 0 00.25.69 1.14 1.14 0 00.62.33l1 .12a1 1 0 00.81-.3z"/></svg>