<?xml version="1.0" encoding="utf-8"?><svg width="12" height="14" fill="none" xmlns="http://www.w3.org/2000/svg" viewBox="0 0 12 14"><path d="M2.8 5.16252L5.60001 1.26249C5.80001 0.962491 6.19999 0.962491 6.39999 1.26249L9.2 5.16252C9.45 5.51252 9.2 5.9625 8.8 5.9625H7.5V8.9625C7.5 9.2625 7.3 9.4625 7 9.4625H5C4.7 9.4625 4.5 9.2625 4.5 8.9625V5.9625H3.2C2.8 5.9625 2.6 5.51252 2.8 5.16252ZM11.5 10.4625H0.5C0.2 10.4625 0 10.6625 0 10.9625V12.9625C0 13.2625 0.2 13.4625 0.5 13.4625H11.5C11.8 13.4625 12 13.2625 12 12.9625V10.9625C12 10.6625 11.8 10.4625 11.5 10.4625Z" fill="#fff"/><path d="M2.8 4.16252L5.60001 0.262491C5.80001 -0.0375092 6.19999 -0.0375092 6.39999 0.262491L9.2 4.16252C9.45 4.51252 9.2 4.9625 8.8 4.9625H7.5V7.9625C7.5 8.2625 7.3 8.4625 7 8.4625H5C4.7 8.4625 4.5 8.2625 4.5 7.9625V4.9625H3.2C2.8 4.9625 2.6 4.51252 2.8 4.16252ZM11.5 9.4625H0.5C0.2 9.4625 0 9.6625 0 9.9625V11.9625C0 12.2625 0.2 12.4625 0.5 12.4625H11.5C11.8 12.4625 12 12.2625 12 11.9625V9.9625C12 9.6625 11.8 9.4625 11.5 9.4625Z" fill="#1E6393"/></svg>