<?xml version="1.0" encoding="utf-8"?><svg width="12" height="12" fill="none" xmlns="http://www.w3.org/2000/svg" viewBox="0 0 12 12"><path fill-rule="evenodd" clip-rule="evenodd" d="M9 10.5L3 10.5 3 9.5 9 9.5 9 10.5zM6.59371 2.74653C6.12402 2.6531 5.63717 2.70105 5.19473 2.88431 4.75229 3.06758 4.37413 3.37793 4.10807 3.77611 3.84201 4.1743 3.7 4.64244 3.7 5.12133 3.7 5.60023 3.84201 6.06837 4.10807 6.46656 4.37413 6.86474 4.75229 7.17509 5.19473 7.35835 5.63717 7.54162 6.12402 7.58957 6.59371 7.49614 7.0634 7.40271 7.49484 7.17211 7.83347 6.83348L8.682 7.682C8.17555 8.18846 7.53029 8.53335 6.82782 8.67308 6.12535 8.81281 5.39722 8.7411 4.73551 8.46701 4.0738 8.19292 3.50822 7.72876 3.1103 7.13324 2.71239 6.53771 2.5 5.83757 2.5 5.12133 2.5 4.4051 2.71239 3.70495 3.1103 3.10943 3.50822 2.5139 4.0738 2.04975 4.73551 1.77566 5.39722 1.50157 6.12535 1.42985 6.82782 1.56958 7.53029 1.70931 8.17555 2.05421 8.682 2.56067L7.83347 3.40919C7.49484 3.07056 7.0634 2.83995 6.59371 2.74653z" fill="#333"/></svg>