<?xml version="1.0" encoding="utf-8"?><svg xmlns="http://www.w3.org/2000/svg" viewBox="0 0 20 14.04" width="20" height="14.04"><path d="M9.26,5.71a1,1,0,0,1-1.07,0L.45.8A.33.33,0,1,1,.8.24L8.19,4.91a1,1,0,0,0,1.07,0L16.6.24a.33.33,0,0,1,.46.11A.33.33,0,0,1,17,.8Z" fill="#333"/><path d="M10.72,11a.35.35,0,0,1-.34.35H1a1,1,0,0,1-1-1V1A1,1,0,0,1,1,0H16.4a1,1,0,0,1,1,1V4.28a.34.34,0,0,1-.34.34.35.35,0,0,1-.35-.34V1.68a1,1,0,0,0-1-1h-14a1,1,0,0,0-1,1V9.61a1,1,0,0,0,1,1h8.7A.34.34,0,0,1,10.72,11Z" fill="#333"/><circle cx="15.02" cy="9.06" r="4.98" fill="#4a8dc6"/><path d="M13 9l2-2 2 2M15 7.16v4" fill="none" stroke="#fff" stroke-linecap="round" stroke-linejoin="round"/></svg>