<?xml version="1.0" encoding="utf-8"?><svg width="24" height="24" fill="none" xmlns="http://www.w3.org/2000/svg" viewBox="0 0 24 24"><path d="M4 14.5c0-4 2-8.5 8-8.5s8 4.5 8 8.5" stroke="#333"/><path d="M10.687 16.646l-.496.06.08.662.612-.262-.196-.46zm-.316-2.619l-.378-.327-.145.168.027.22.496-.06zm5.476-6.319l.473.164-.85-.491.377.327zm-2.734 7.902l.196.46.204-.087.072-.21-.472-.163zm-1.93.977l-.315-2.62-.993.12.316 2.62.992-.12zm-.434-2.232l5.476-6.32-.756-.654-5.476 6.32.756.654zm4.626-6.81l-2.735 7.902.945.327 2.735-7.902-.945-.327zm-2.459 7.605l-2.425 1.037.392.92 2.426-1.037-.393-.92z" fill="#0094FF"/></svg>