<?xml version="1.0" encoding="utf-8"?><svg xmlns="http://www.w3.org/2000/svg" viewBox="0 0 15 12" width="15" height="12"><path d="M6.75,1.5,5.25,0H1.5A1.5,1.5,0,0,0,0,1.5v9A1.5,1.5,0,0,0,1.5,12h12A1.5,1.5,0,0,0,15,10.5V3a1.5,1.5,0,0,0-1.5-1.5Zm4.5,6.18V6.32A.32.32,0,0,0,10.91,6H8.52V3.59a.32.32,0,0,0-.34-.34H6.82a.32.32,0,0,0-.34.34V6H4.09a.32.32,0,0,0-.34.34V7.68A.32.32,0,0,0,4.09,8H6.48v2.39a.32.32,0,0,0,.34.34H8.18a.32.32,0,0,0,.34-.34V8h2.39A.32.32,0,0,0,11.25,7.68Z" fill="#fff" fill-rule="evenodd"/></svg>