<?xml version="1.0" encoding="utf-8"?><svg xmlns="http://www.w3.org/2000/svg" viewBox="0 0 24 24" width="24" height="24"><path d="M12,0A12,12,0,1,0,24,12,12,12,0,0,0,12,0Zm0,21a9,9,0,1,1,.08,0ZM17.3,9.5,14.8,12l2.5,2.5a.49.49,0,0,1,0,.68l0,0-2.1,2.1a.49.49,0,0,1-.68,0l0,0L12,14.8,9.5,17.3a.49.49,0,0,1-.68,0l0,0L6.7,15.2a.49.49,0,0,1,0-.68l0,0L9.2,12,6.7,9.5a.49.49,0,0,1,0-.68l0,0L8.8,6.7a.49.49,0,0,1,.68,0l0,0L12,9.2l2.5-2.5a.49.49,0,0,1,.68,0l0,0,2.1,2.1a.49.49,0,0,1,0,.68Z" transform="translate(0 0)" fill="var(--svg-icon-fill, #000)"/></svg>