<?xml version="1.0" encoding="utf-8"?><svg xmlns="http://www.w3.org/2000/svg" viewBox="0 0 34.5 24" width="24" height="16.7"><path d="M13.5,0a3,3,0,0,0-3,3V15a3,3,0,0,0,3,3h21L30,14.63V3a3,3,0,0,0-3-3Z" fill="var(--svg-icon-fill, #000)" fill-rule="evenodd"/><path d="M21,6a3,3,0,0,1,3,3V21a3,3,0,0,1-3,3H0l4.5-3.37V9a3,3,0,0,1,3-3Z" fill-rule="evenodd" fill="var(--svg-icon-fill, #000)"/><path fill="var(--svg-icon-fill, #000)" d="M9 10.5H19.5V12H9z"/><path fill="var(--svg-icon-fill, #000)" d="M9 13.5H19.5V15H9z"/><path fill="var(--svg-icon-fill, #000)" d="M9 16.5H19.5V18H9z"/></svg>