<?xml version="1.0" encoding="utf-8"?><svg viewBox="0 0 16 16" xmlns="http://www.w3.org/2000/svg" width="16" height="16"><path fill-rule="evenodd" clip-rule="evenodd" d="M13.1598 3.6784C13.3912 3.44698 13.3912 3.07177 13.1598 2.84034C12.9284 2.60892 12.5532 2.60892 12.3217 2.84034L8.00002 7.16206L3.67831 2.84034C3.44689 2.60892 3.07168 2.60892 2.84026 2.84034C2.60883 3.07177 2.60883 3.44698 2.84026 3.6784L7.16197 8.00011L2.84025 12.3218C2.60883 12.5532 2.60883 12.9285 2.84025 13.1599C3.07168 13.3913 3.44688 13.3913 3.67831 13.1599L8.00002 8.83816L12.3217 13.1599C12.5532 13.3913 12.9284 13.3913 13.1598 13.1599C13.3912 12.9285 13.3912 12.5532 13.1598 12.3218L8.83807 8.00011L13.1598 3.6784Z" fill="var(--svg-icon-fill, #333)"/></svg>