<?xml version="1.0" encoding="utf-8"?><svg xmlns="http://www.w3.org/2000/svg" viewBox="0 0 17.78 20" width="17.78" height="20"><path d="M3.73,10.07,5.68,7.62l2,2.45H9.15L6.44,6.66,9,3.44H7.48L5.68,5.71,3.88,3.44H2.36L4.92,6.66,2.21,10.07Z" transform="translate(0 0)" fill="var(--svg-icon-fill, #000)"/><path d="M2.2,17.67H6V16.2H2.2Z" transform="translate(0 0)" fill="var(--svg-icon-fill, #000)"/><path d="M2.21,15.26H6V13.79H2.21Z" transform="translate(0 0)" fill="var(--svg-icon-fill, #000)"/><path d="M7,17.67h3.8V16.2H7Z" transform="translate(0 0)" fill="var(--svg-icon-fill, #000)"/><path d="M7,15.26h3.8V13.79H7Z" transform="translate(0 0)" fill="var(--svg-icon-fill, #000)"/><path d="M15.57,16.2H11.74v1.47h3.83Z" transform="translate(0 0)" fill="var(--svg-icon-fill, #000)"/><path d="M15.57,13.79H11.74v1.47h3.83Z" transform="translate(0 0)" fill="var(--svg-icon-fill, #000)"/><path d="M0,0V20H17.78V5.41h0L12.72,0ZM1.1,1.12H11.62V6.51h5V18.9H1.1Z" transform="translate(0 0)" fill="var(--svg-icon-fill, #000)"/></svg>