<?xml version="1.0" encoding="utf-8"?><svg xmlns="http://www.w3.org/2000/svg" viewBox="0 0 24 24" width="24" height="24"><path d="M21.33,0H2.67A2.68,2.68,0,0,0,0,2.67H0V21.33A2.68,2.68,0,0,0,2.67,24H21.33A2.68,2.68,0,0,0,24,21.33V2.67A2.68,2.68,0,0,0,21.33,0Zm0,21.33H2.67V2.67H21.33ZM14.58,9.42a4.51,4.51,0,0,1,0,6.33l-3,2.91A4.34,4.34,0,0,1,8.42,20a4.26,4.26,0,0,1-3.14-1.33,4.39,4.39,0,0,1-.1-6.21l.1-.11L7.14,10.5v.81a5.39,5.39,0,0,0,.36,1.95v.24L7,14a2.21,2.21,0,0,0-.47.7,2,2,0,0,0-.17.83A2.14,2.14,0,0,0,7,17.08a2.17,2.17,0,0,0,3,0l3-3a2.2,2.2,0,0,0,.65-1.5,2.15,2.15,0,0,0-.65-1.5,1.23,1.23,0,0,1-.26-.37,1.71,1.71,0,0,1-.09-.45,1.17,1.17,0,0,1,.09-.45,1.22,1.22,0,0,1,.26-.38A1.2,1.2,0,0,1,14.58,9.42ZM20,8.47a4.37,4.37,0,0,1-1.33,3.18L16.88,13.5v-.84a5.71,5.71,0,0,0-.3-1.92l-.08-.24L17,9.94a2.21,2.21,0,0,0,.47-.7,2,2,0,0,0,.17-.83,2.11,2.11,0,0,0-.17-.82A2.17,2.17,0,0,0,17,6.9a2.19,2.19,0,0,0-3,0l-2.93,3a2.11,2.11,0,0,0,0,3l0,0a1.12,1.12,0,0,1,.35.82,1.07,1.07,0,0,1-.35.83.85.85,0,0,1-.39.25.9.9,0,0,1-.43.09,1.09,1.09,0,0,1-.83-.34,4.51,4.51,0,0,1,0-6.33l3-2.91a4.56,4.56,0,0,1,4.92-1A4.05,4.05,0,0,1,20,8.47Z" transform="translate(0 0)" fill="var(--svg-icon-fill, #000)"/></svg>