<?xml version="1.0" encoding="utf-8"?><svg xmlns="http://www.w3.org/2000/svg" viewBox="0 0 22.96 24" width="22.96" height="24"><path d="M4.16,19.83V23a1,1,0,0,1-.91,1H1a1,1,0,0,1-1-.92V19.83a1,1,0,0,1,.92-1H3.13a1,1,0,0,1,1,.92A.2.2,0,0,1,4.16,19.83Zm5.23-4.19H7.32a1,1,0,0,0-1.06.95V23a1,1,0,0,0,.91,1H9.39a1,1,0,0,0,1.06-.89v-6.4a1,1,0,0,0-.94-1.07Zm6.25-6.25H13.58a1,1,0,0,0-1.06.94.24.24,0,0,0,0,.12V23a1,1,0,0,0,.91,1h2.21a1,1,0,0,0,1.06-.89.76.76,0,0,0,0-.15V10.45a1,1,0,0,0-1-1.06ZM21.93,0H19.84a1,1,0,0,0-1,.92V23a1,1,0,0,0,.92,1h2.21a1,1,0,0,0,1-.92A.24.24,0,0,0,23,23V1a1,1,0,0,0-1-1Z" transform="translate(0 0)" fill="var(--svg-icon-fill, #000)"/></svg>