<?xml version="1.0" encoding="utf-8"?><svg xmlns="http://www.w3.org/2000/svg" xmlns:xlink="http://www.w3.org/1999/xlink" viewBox="0 0 22 22" width="22" height="22"><defs><linearGradient id="swa" x1="10.93" y1="18.67" x2="10.93" y2="5.33" gradientTransform="matrix(1, 0, 0, -1, 0, 23)" gradientUnits="userSpaceOnUse"><stop offset="0" stop-color="#88ff89"/><stop offset="1" stop-color="#5dac5e"/></linearGradient><mask id="swb" x="3.62" y="3.83" width="14.41" height="14.54" maskUnits="userSpaceOnUse"><path d="M4.33,17.67l.94-3.43A6.56,6.56,0,1,1,11,17.55a6.5,6.5,0,0,1-3.14-.81Z" fill="#fff"/></mask></defs><path d="M11,0h0A11,11,0,0,1,22,11h0A11,11,0,0,1,11,22h0A11,11,0,0,1,0,11H0A11,11,0,0,1,11,0Z" fill="#128c7e"/><path d="M4.33,17.67l.94-3.43A6.56,6.56,0,1,1,11,17.55a6.5,6.5,0,0,1-3.14-.81Z" fill="url(#swa)"/><g mask="url(#swb)"><path d="M4.33,17.67l-.48-.13-.23.83.84-.22Zm.94-3.43.48.13,0-.2L5.7,14Zm-.88-3.3h0ZM15.61,6.27,16,5.92h0Zm1.92,4.67h0Zm-9.71,5.8.24-.44-.17-.09-.2.05Zm-3,1.06.93-3.43-1-.26-.94,3.43ZM5.7,14a6.16,6.16,0,0,1-.81-3.05h-1a7.11,7.11,0,0,0,.94,3.55Zm-.81-3.05A6.1,6.1,0,0,1,11,4.83v-1a7.1,7.1,0,0,0-7.07,7.11ZM11,4.83a6,6,0,0,1,4.29,1.79l.71-.7a7,7,0,0,0-5-2.09Zm4.29,1.79a6,6,0,0,1,1.32,2l.93-.38A7.15,7.15,0,0,0,16,5.92Zm1.32,2A6.06,6.06,0,0,1,17,10.94h1a7.28,7.28,0,0,0-.53-2.72ZM17,10.94A6.1,6.1,0,0,1,11,17.05v1A7.1,7.1,0,0,0,18,10.94ZM11,17.05a6,6,0,0,1-2.9-.75l-.48.88a7,7,0,0,0,3.38.87Zm-3.27-.79-3.48.92.25,1L8,17.22Z" fill="#fff"/></g><path d="M9.31,8.07c-.12-.28-.26-.29-.38-.29H8.6A.66.66,0,0,0,8.14,8a1.9,1.9,0,0,0-.59,1.43,3.34,3.34,0,0,0,.69,1.77,7,7,0,0,0,2.9,2.58c1.44.57,1.73.46,2,.42a1.7,1.7,0,0,0,1.14-.81,1.51,1.51,0,0,0,.1-.82c0-.07-.16-.11-.32-.2s-1-.5-1.17-.55-.27-.09-.38.08a6.55,6.55,0,0,1-.54.67c-.09.11-.2.12-.36,0a4.47,4.47,0,0,1-1.37-.85,5.27,5.27,0,0,1-.95-1.18.24.24,0,0,1,.07-.35c.08-.08.18-.2.26-.3a1.69,1.69,0,0,0,.17-.29.32.32,0,0,0,0-.3C9.79,9.26,9.46,8.41,9.31,8.07Z" fill="#fff" fill-rule="evenodd"/></svg>