<?xml version="1.0" encoding="utf-8"?><svg xmlns="http://www.w3.org/2000/svg" viewBox="0 0 18.13 20" width="18.13" height="20"><path d="M5.2,10a2.6,2.6,0,1,1-2.6-2.6h0A2.59,2.59,0,0,1,5.2,10Z" fill="var(--svg-icon-fill, #000)"/><path d="M12.87,2.79a.11.11,0,0,1,0,.16h0L4.73,8.28a.14.14,0,0,1-.17,0,.1.1,0,0,1,0-.15h0l8.1-5.33a.15.15,0,0,1,.19,0Z" fill="var(--svg-icon-fill, #000)"/><path d="M12.89,17.29c0,.07-.1.1-.15.06h0l-8.1-5.58a.18.18,0,0,1,0-.19h0c0-.07.08-.11.13-.08h0L5,10.94l-.23.55,8.11,5.59a.18.18,0,0,1,0,.2Z" fill="var(--svg-icon-fill, #000)"/><path d="M15.5,5a2.36,2.36,0,1,0-2.33-2.39v0A2.36,2.36,0,0,0,15.5,5ZM18.1,2.6a1.89,1.89,0,1,1,0-.05V2.6Z" fill="var(--svg-icon-fill, #000)"/><path d="M15.5,19.76a2.36,2.36,0,1,0-2.36-2.36,2.36,2.36,0,0,0,2.36,2.36Zm2.6-2.36a2.6,2.6,0,1,1-2.6-2.6,2.59,2.59,0,0,1,2.6,2.6v0Z" fill="var(--svg-icon-fill, #000)"/></svg>