<?xml version="1.0" encoding="utf-8"?><svg width="9" height="13" fill="none" xmlns="http://www.w3.org/2000/svg" viewBox="0 0 9 13"><path d="M1.942 3.172v-.497c0-.15.1-.25.249-.25h4.481c.15 0 .25.1.25.25v.497c0 .15-.1.25-.25.25H2.191c-.15 0-.25-.1-.25-.25zm1.743 5.229H2.19c-.15 0-.25.1-.25.249v.498c0 .149.1.248.25.248h1.494c.149 0 .249-.1.249-.248V8.65c0-.15-.1-.25-.25-.25zM2.19 5.413h4.481c.15 0 .25-.1.25-.249v-.498c0-.15-.1-.249-.25-.249H2.191c-.15 0-.25.1-.25.25v.497c0 .15.1.25.25.25zm4.73 1.245c0-.15-.1-.25-.249-.25H2.191c-.15 0-.25.1-.25.25v.498c0 .15.1.249.25.249h4.481c.15 0 .25-.1.25-.25v-.497zm1.494 5.726c-.1 0-.2-.05-.299-.1l-1.195-.796-.946.747c-.2.15-.448.15-.597 0l-.946-.747-.947.747c-.199.15-.448.15-.597 0l-.946-.747-1.195.796c-.15.1-.349.1-.498 0A.523.523 0 010 11.836V1.38C0 .832.448.384.996.384h6.97c.548 0 .997.448.997.996v10.456c0 .2-.1.349-.25.448-.149.1-.199.1-.298.1zm-3.983-1.992c.1 0 .199.05.298.1l.946.747.946-.747c.15-.15.399-.15.598-.05l.697.498V1.43H.947v9.51l.696-.498c.2-.1.398-.1.598.05l.946.747.946-.747c.1-.05.199-.1.299-.1z" fill="#0094FF"/></svg>