<?xml version="1.0" encoding="utf-8"?><svg width="24" height="23.04" fill="none" xmlns="http://www.w3.org/2000/svg" viewBox="0 0 25 24"><circle cx="7.255" cy="18.294" r="1.618" stroke="#333"/><circle cx="16.784" cy="18.294" r="1.618" stroke="#333"/><path d="M8.843 18.294h6.353m3.176 0l2.648-.265v-1.132a1 1 0 00-.684-.948l-2.425-.809a.998.998 0 01-.132-.054l-3.96-1.98a.999.999 0 00-.447-.106H7.606a1 1 0 00-.625.22l-2.234 1.786a1 1 0 01-.308.168l-.736.245a1 1 0 00-.683.949v1.926h2.647M5.02 3h14v8h-14z" stroke="#333"/><path d="M12.275 8.467h-.874V9h-.824v-.533h-.557v-.668h.557v-.208h-.557v-.668h.557V5h1.555c.3 0 .564.054.791.162.227.108.403.263.528.464.126.2.19.428.19.684 0 .396-.135.708-.404.937-.268.23-.64.344-1.119.344h-.717v.208h.874v.668zm-.874-1.544h.712c.462 0 .692-.202.692-.607a.628.628 0 00-.176-.464c-.117-.12-.279-.18-.486-.182h-.742v1.253z" fill="#0094FF"/></svg>