<?xml version="1.0" encoding="utf-8"?><svg width="24" height="23.04" fill="none" xmlns="http://www.w3.org/2000/svg" viewBox="0 0 25 24"><g clip-path="url(#fvclip0)"><path d="M6.029 22.5l-5-5 .586-.586a2 2 0 012.828 0l2.172 2.172a2 2 0 010 2.828l-.586.586zM7.029 19.5l1.414-1.414a2 2 0 011.414-.586h5.547a2 2 0 001.139-.355l4.886-3.383c.6-.416.735-1.248.297-1.832v0a1.288 1.288 0 00-1.694-.332L16.03 14m-12 2.5L6.362 13a2 2 0 011.863-.88l3.804.38h2.75c.69 0 1.25.56 1.25 1.25v0c0 .69-.56 1.25-1.25 1.25h-2.75" stroke="#333"/><path d="M17.488 2a1.5 1.5 0 011.837 1.061l.592 2.207a1.5 1.5 0 01-1.061 1.837l-6.69 1.792-1.368-5.104 6.69-1.792zM4.029 8.789L11.11 6.89l.43 1.607-7.082 1.898-.43-1.607z" stroke="#0094FF"/><circle cx="13.917" cy="6" r="1" stroke="#0094FF"/></g><defs><clipPath id="fvclip0"><path fill="#fff" transform="translate(.029)" d="M0 0h24v24H0z"/></clipPath></defs></svg>