<?xml version="1.0" encoding="utf-8"?><svg width="12" height="14" fill="none" xmlns="http://www.w3.org/2000/svg" viewBox="0 0 12 14"><path d="M9.429 7.207v5.186a.86.86 0 01-.858.857H.857A.86.86 0 010 12.393V3.82a.86.86 0 01.857-.857H5.7a2.763 2.763 0 00-.129.857H.857v8.572h7.714V7.207c.129 0 .3.043.429.043s.3 0 .429-.043zM4.286 8.321c0-.128-.086-.214-.215-.214H1.93c-.129 0-.215.086-.215.214v.429c0 .129.086.214.215.214H4.07c.129 0 .215-.085.215-.214v-.429zm2.143 3c.257 0 .428-.171.428-.428v-.3c.386-.172.643-.557.643-.986 0-.6-.471-1.071-1.071-1.071h-.215C6.086 8.536 6 8.45 6 8.32c0-.128.086-.214.214-.214h.643c.257 0 .429-.171.429-.428 0-.258-.172-.429-.429-.429v-.214c0-.257-.171-.429-.428-.429-.258 0-.429.172-.429.429v.257a1.061 1.061 0 00.214 2.1h.215c.128 0 .214.086.214.214 0 .129-.086.214-.214.214h-.643c-.257 0-.429.172-.429.429s.172.429.429.429H6v.214c0 .257.171.428.429.428zM4.286 6.607c0-.128-.086-.214-.215-.214H1.93c-.129 0-.215.086-.215.214v.429c0 .128.086.214.215.214H4.07c.129 0 .215-.086.215-.214v-.429zM4.07 9.821H1.93c-.129 0-.215.086-.215.215v.428c0 .129.086.215.215.215H4.07c.129 0 .215-.086.215-.215v-.428c0-.129-.086-.215-.215-.215zm.215-4.928c0-.129-.086-.214-.215-.214H1.93c-.129 0-.215.085-.215.214v.428c0 .129.086.215.215.215H4.07c.129 0 .215-.086.215-.215v-.428zM11.57 3.82A2.579 2.579 0 019 6.393 2.579 2.579 0 016.429 3.82 2.579 2.579 0 019 1.25a2.579 2.579 0 012.571 2.571zm-1.242-.943l-.215-.17a.13.13 0 00-.171 0L8.57 3.992 7.8 3.65c-.043-.043-.129 0-.171.043l-.172.257a.13.13 0 000 .172l.943.942a.366.366 0 00.557-.043l1.329-1.97c.128-.087.128-.173.043-.173z" fill="#fff"/><path d="M9.429 6.707v5.186a.86.86 0 01-.858.857H.857A.86.86 0 010 11.893V3.32a.86.86 0 01.857-.857H5.7a2.763 2.763 0 00-.129.857H.857v8.572h7.714V6.707c.129 0 .3.043.429.043s.3 0 .429-.043zM4.286 7.821c0-.128-.086-.214-.215-.214H1.93c-.129 0-.215.086-.215.214v.429c0 .129.086.214.215.214H4.07c.129 0 .215-.085.215-.214v-.429zm2.143 3c.257 0 .428-.171.428-.428v-.3c.386-.172.643-.557.643-.986 0-.6-.471-1.071-1.071-1.071h-.215C6.086 8.036 6 7.95 6 7.82c0-.128.086-.214.214-.214h.643c.257 0 .429-.171.429-.428 0-.258-.172-.429-.429-.429v-.214c0-.257-.171-.429-.428-.429-.258 0-.429.172-.429.429v.257a1.061 1.061 0 00.214 2.1h.215c.128 0 .214.086.214.214 0 .129-.086.214-.214.214h-.643c-.257 0-.429.172-.429.429s.172.429.429.429H6v.214c0 .257.171.428.429.428zM4.286 6.107c0-.128-.086-.214-.215-.214H1.93c-.129 0-.215.086-.215.214v.429c0 .128.086.214.215.214H4.07c.129 0 .215-.086.215-.214v-.429zM4.07 9.321H1.93c-.129 0-.215.086-.215.215v.428c0 .129.086.215.215.215H4.07c.129 0 .215-.086.215-.215v-.428c0-.129-.086-.215-.215-.215zm.215-4.928c0-.129-.086-.214-.215-.214H1.93c-.129 0-.215.085-.215.214v.428c0 .129.086.215.215.215H4.07c.129 0 .215-.086.215-.215v-.428zM11.57 3.32A2.579 2.579 0 019 5.893 2.579 2.579 0 016.429 3.32 2.579 2.579 0 019 .75a2.579 2.579 0 012.571 2.571zm-1.242-.943l-.215-.17a.13.13 0 00-.171 0L8.57 3.492 7.8 3.15c-.043-.043-.129 0-.171.043l-.172.257a.13.13 0 000 .172l.943.942a.366.366 0 00.557-.043l1.329-1.97c.128-.087.128-.173.043-.173z" fill="#1E6393"/></svg>