<?xml version="1.0" encoding="utf-8"?><svg width="11" height="14" fill="none" xmlns="http://www.w3.org/2000/svg" viewBox="0 0 11 14"><path d="M2 4.25v-.5c0-.15.1-.25.25-.25h2.5c.15 0 .25.1.25.25v.5c0 .15-.1.25-.25.25h-2.5C2.1 4.5 2 4.4 2 4.25zm0 2v-.5c0-.15.1-.25.25-.25h2.5c.15 0 .25.1.25.25v.5c0 .15-.1.25-.25.25h-2.5C2.1 6.5 2 6.4 2 6.25zm0 2v-.5c0-.15.1-.25.25-.25h2.5c.15 0 .25.1.25.25v.5c0 .15-.1.25-.25.25h-2.5C2.1 8.5 2 8.4 2 8.25zm0 2v-.5c0-.15.1-.25.25-.25h2.5c.15 0 .25.1.25.25v.5c0 .15-.1.25-.25.25h-2.5c-.15 0-.25-.1-.25-.25zm4-2.5c0-.6.45-1.1 1-1.2v-.3c0-.3.2-.5.5-.5s.5.2.5.5v.25c.3 0 .5.2.5.5s-.2.5-.5.5h-.75c-.15 0-.25.1-.25.25s.1.25.25.25h.25c.7 0 1.25.55 1.25 1.25 0 .5-.3.95-.75 1.15v.35c0 .3-.2.5-.5.5s-.5-.2-.5-.5v-.25h-.25c-.3 0-.5-.2-.5-.5s.2-.5.5-.5h.75c.15 0 .25-.1.25-.25S7.65 9 7.5 9h-.25C6.55 9 6 8.45 6 7.75zm4 5.75H1c-.55 0-1-.45-1-1v-10c0-.55.45-1 1-1h9c.55 0 1 .45 1 1v10c0 .55-.45 1-1 1zm-9-11v10h9v-10H1z" fill="#fff"/><path d="M2 3.25v-.5c0-.15.1-.25.25-.25h2.5c.15 0 .25.1.25.25v.5c0 .15-.1.25-.25.25h-2.5C2.1 3.5 2 3.4 2 3.25zm0 2v-.5c0-.15.1-.25.25-.25h2.5c.15 0 .25.1.25.25v.5c0 .15-.1.25-.25.25h-2.5C2.1 5.5 2 5.4 2 5.25zm0 2v-.5c0-.15.1-.25.25-.25h2.5c.15 0 .25.1.25.25v.5c0 .15-.1.25-.25.25h-2.5C2.1 7.5 2 7.4 2 7.25zm0 2v-.5c0-.15.1-.25.25-.25h2.5c.15 0 .25.1.25.25v.5c0 .15-.1.25-.25.25h-2.5C2.1 9.5 2 9.4 2 9.25zm4-2.5c0-.6.45-1.1 1-1.2v-.3c0-.3.2-.5.5-.5s.5.2.5.5v.25c.3 0 .5.2.5.5s-.2.5-.5.5h-.75c-.15 0-.25.1-.25.25s.1.25.25.25h.25c.7 0 1.25.55 1.25 1.25 0 .5-.3.95-.75 1.15v.35c0 .3-.2.5-.5.5s-.5-.2-.5-.5V9.5h-.25c-.3 0-.5-.2-.5-.5s.2-.5.5-.5h.75c.15 0 .25-.1.25-.25S7.65 8 7.5 8h-.25C6.55 8 6 7.45 6 6.75zm4 5.75H1c-.55 0-1-.45-1-1v-10c0-.55.45-1 1-1h9c.55 0 1 .45 1 1v10c0 .55-.45 1-1 1zm-9-11v10h9v-10H1z" fill="#1E6393"/></svg>