<?xml version="1.0" encoding="utf-8"?><svg xmlns="http://www.w3.org/2000/svg" viewBox="0 0 12 10.93" width="12" height="10.93"><path d="M2.14,0H3.21V1.07H0V0ZM3.21,0h7.48V1.07H3.21Zm0,2.14h7.48V3.21H3.21ZM4.28,4.28H3.21V5.35H4.28ZM3.21,6.41H4.28V7.48H3.21ZM4.28,8.55H3.21V9.62H4.28ZM2.14,3.21H0V2.14H3.21V3.21Zm0,2.14H3.21V4.28H0V5.35Zm0,2.13H0V6.41H3.21V7.48Zm0,2.14H3.21V8.55H0V9.62ZM12,9.6,10.45,8.05a.3.3,0,0,0,0-.08,2.73,2.73,0,0,0,.2-1A2.67,2.67,0,1,0,5.35,7a2.66,2.66,0,0,0,.78,1.89A2.69,2.69,0,0,0,9,9.42l.08,0,1.54,1.54ZM8,5.35a1.58,1.58,0,0,1,.61.12,1.54,1.54,0,0,1,.52.35,1.45,1.45,0,0,1,.35.52A1.58,1.58,0,0,1,9.62,7,1.6,1.6,0,0,1,8,8.55a1.63,1.63,0,0,1-1.14-.47A1.61,1.61,0,0,1,6.41,7a1.59,1.59,0,0,1,.13-.61,1.56,1.56,0,0,1,.34-.52,1.64,1.64,0,0,1,.52-.35A1.67,1.67,0,0,1,8,5.35Z" fill="var(--svg-icon-fill, #000)" fill-rule="evenodd"/></svg>