<?xml version="1.0" encoding="utf-8"?><svg width="12" height="12" fill="none" xmlns="http://www.w3.org/2000/svg" viewBox="0 0 12 12"><path d="M.903 2.911L.05 1.557A.621.621 0 01.2.855L.803.253c.1-.1.301-.2.452-.2.1 0 .15 0 .2.05L2.86.954c.1.1.2.2.25.351l.352 1.104c0 .05.05.1.1.15l.953.953c0 .15 0 .301.05.451l-.903.903-1.203-1.204c-.05-.05-.1-.05-.15-.1l-1.104-.35c-.1-.101-.2-.151-.301-.302zM9.53 7.475h-.1c-.201.05-.452.05-.653.05-.2 0-.401 0-.602-.05L6.721 8.93l2.909 2.909c.2.2.502.2.702 0l1.404-1.405c.201-.2.201-.501 0-.702L9.53 7.475zm-.251-1.003c1.103-.15 2.056-.953 2.457-1.956.201-.501.301-.953.251-1.454 0-.201-.25-.301-.401-.15l-1.204 1.203c-.05.05-.15.1-.25.05l-1.706-.401c-.1 0-.15-.1-.2-.2l-.402-1.706c0-.1 0-.15.05-.25L9.078.402c.15-.15.05-.4-.15-.4-.452 0-.903.05-1.405.25C6.52.704 5.718 1.607 5.567 2.71c-.1.551-.05 1.053.1 1.504L.302 9.582c-.2.2-.2.501 0 .702l1.404 1.404c.2.201.502.201.702 0l5.417-5.416c.452.25.953.3 1.455.2z" fill="#0094FF"/></svg>