<?xml version="1.0" encoding="utf-8"?><svg width="8" height="9" fill="none" xmlns="http://www.w3.org/2000/svg" viewBox="0 0 8 9"><path d="M4 .5c-2.2 0-4 1.8-4 4s1.8 4 4 4 4-1.8 4-4-1.8-4-4-4zm0 7c-1.667 0-3-1.333-3-3s1.333-3 3-3 3 1.333 3 3-1.333 3-3 3zm.667-1.667V6.5c0 .2-.134.333-.334.333h-.666c-.2 0-.334-.133-.334-.333v-.667c0-.2.134-.333.334-.333h.666c.2 0 .334.133.334.333zM5.6 3.5v.033c0 .467-.3.7-.667.934-.333.233-.433.433-.5.566-.033.067-.1.1-.166.1h-.7c-.1 0-.167-.1-.167-.2.033-.166.067-.366.233-.533.267-.3.667-.567.767-.633.1-.067.167-.167.167-.267 0-.2-.134-.333-.334-.333h-.5c-.2 0-.333.133-.333.333s-.133.333-.333.333h-.334c-.2 0-.333-.133-.333-.333 0-.733.6-1.333 1.333-1.333h.5C5 2.167 5.6 2.567 5.6 3.5z" fill="#BABABA"/></svg>