<?xml version="1.0" encoding="utf-8"?><svg width="12" height="12" fill="none" xmlns="http://www.w3.org/2000/svg" viewBox="0 0 12 12"><path d="M7.358 6.15c.149-.262.26-.522.334-.82l1.041-.261c.074-.038.149-.075.149-.15 0-.149.037-.298.037-.447 0-.149 0-.298-.037-.447 0-.075-.075-.149-.149-.149l-1.04-.26a3.169 3.169 0 00-.335-.82l.557-.933a.238.238 0 000-.223 5.08 5.08 0 00-.631-.634.236.236 0 00-.223 0l-.93.56a3.15 3.15 0 00-.817-.336L5.054.186C5.017.112 4.98.037 4.905.037 4.757.037 4.608 0 4.46 0c-.148 0-.297 0-.446.037-.074 0-.148.075-.148.15l-.26 1.043a3.15 3.15 0 00-.818.335l-.929-.559a.236.236 0 00-.223 0 5.08 5.08 0 00-.632.634.238.238 0 000 .223l.558.932c-.149.261-.26.522-.335.82l-1.04.261c-.075.037-.149.075-.149.149 0 .15-.037.298-.037.447 0 .15 0 .298.037.447 0 .075.074.15.149.15l1.04.26c.075.299.186.56.335.82l-.558.932a.238.238 0 000 .224c.186.223.41.447.632.633a.236.236 0 00.223 0l.93-.559c.26.15.52.261.817.336l.26 1.043c.037.075.074.15.148.15.15 0 .298.037.446.037.15 0 .298 0 .446-.038.075 0 .149-.074.149-.149l.26-1.043a3.15 3.15 0 00.818-.336l.929.56a.236.236 0 00.223 0 5.08 5.08 0 00.631-.634.238.238 0 000-.224l-.557-.932zm-2.861-.112c-.855 0-1.561-.709-1.561-1.566 0-.857.706-1.565 1.56-1.565.855 0 1.561.708 1.561 1.565s-.706 1.566-1.56 1.566zm7.32 3.54c0-.074-.074-.149-.148-.186l-.446-.112a1.117 1.117 0 00-.149-.373l.223-.372a.239.239 0 000-.224c-.074-.075-.111-.15-.186-.186-.074-.038-.148-.075-.223 0l-.371.223c-.112-.074-.26-.112-.372-.149l-.111-.447c-.038-.075-.075-.15-.186-.15h-.26c-.075 0-.149.075-.186.15l-.112.447a1.11 1.11 0 00-.371.15l-.372-.224a.236.236 0 00-.223 0c-.074.074-.148.111-.186.186-.037.075-.074.149 0 .224l.223.372c-.074.112-.111.261-.148.373l-.446.112c-.075.037-.149.074-.149.186v.261c0 .075.074.15.149.186l.446.112c.037.15.074.261.148.373l-.223.373a.238.238 0 000 .223c.075.075.112.15.186.187.075.037.149.074.223 0l.372-.224c.111.074.26.112.371.149l.112.447c.037.075.074.15.186.15h.26c.074 0 .148-.075.186-.15l.111-.447a1.11 1.11 0 00.372-.15l.371.225a.236.236 0 00.223 0c.075-.075.149-.112.186-.187.037-.074.074-.149 0-.223l-.223-.373c.075-.112.112-.261.149-.373l.446-.112c.074-.037.148-.074.148-.186v-.26zM9.7 10.51a.786.786 0 01-.78-.783c0-.447.371-.782.78-.782.446 0 .78.372.78.782a.763.763 0 01-.78.783z" fill="#0094FF"/></svg>