<?xml version="1.0" encoding="utf-8"?><svg xmlns="http://www.w3.org/2000/svg" viewBox="0 0 19 24" width="19" height="24"><path d="M1.51,3.14A7.17,7.17,0,0,1,7.75,0,7.17,7.17,0,0,1,14,3.14a9.14,9.14,0,0,1,1.51,5V24h-3V8.12a6.18,6.18,0,0,0-1-3.29A4.2,4.2,0,0,0,7.75,3,4.2,4.2,0,0,0,4,4.83,6.18,6.18,0,0,0,3,8.12H0A9.14,9.14,0,0,1,1.51,3.14Z" fill="var(--svg-icon-fill, #000)" fill-rule="evenodd"/><path d="M19,12.75H9v-2.5H19Z" fill="var(--svg-icon-fill, #000)" fill-rule="evenodd"/><path d="M19,17.75H9v-2.5H19Z" fill="var(--svg-icon-fill, #000)" fill-rule="evenodd"/></svg>