<?xml version="1.0" encoding="utf-8"?><svg xmlns="http://www.w3.org/2000/svg" viewBox="0 0 17.3 24" width="17.3" height="24"><path d="M9.12,24a9.64,9.64,0,0,1-5.88-1.54,5.39,5.39,0,0,1-2.06-4.64,6.74,6.74,0,0,1,.36-2.26H0V13.47H2.75a6.38,6.38,0,0,1,1.73-1.18,22.2,22.2,0,0,1,2.29-1l2.12-.72c.61-.21,1-.37,1.18-.45H0V8H12.49a3.38,3.38,0,0,0,.36-.94A4.89,4.89,0,0,0,13,5.85a2.88,2.88,0,0,0-1.05-2.38,5,5,0,0,0-3.27-.89,10.49,10.49,0,0,0-3,.43A18.08,18.08,0,0,0,3.11,4L2.29,1.37a14.3,14.3,0,0,1,3-1A16.46,16.46,0,0,1,8.83,0,8.77,8.77,0,0,1,14,1.37,4.7,4.7,0,0,1,16,5.49a10.67,10.67,0,0,1-.1,1.38A4.21,4.21,0,0,1,15.5,8h1.8v2.1H14.45a6.62,6.62,0,0,1-1.63,1.08c-.74.34-1.52.67-2.32,1S9,12.76,8.31,13A9.49,9.49,0,0,0,7,13.47H17.3v2.09H4.58a3.48,3.48,0,0,0-.36.92,5.21,5.21,0,0,0-.1,1.18q0,3.8,5.26,3.79A13.77,13.77,0,0,0,13,21a21.49,21.49,0,0,0,2.94-1v2.65a14.73,14.73,0,0,1-3,.94A16.78,16.78,0,0,1,9.12,24Z" fill="var(--svg-valute-fill, var(--svg-icon-fill, #333))"/></svg>