<?xml version="1.0" encoding="utf-8"?><svg xmlns="http://www.w3.org/2000/svg" viewBox="0 0 16 15.98" width="16" height="15.98"><path d="M12.86 8.47l-1.33 2c-.14.2-.4.2-.47 0l-1.33-2A.3.3 0 0110 8h.66v-.13a2.77 2.77 0 00-.8-1.73L9.73 6a2.56 2.56 0 00-1.93-.66 4.42 4.42 0 00-.93.2.32.32 0 01-.4-.13l-.4-.6a.3.3 0 01.13-.47 4 4 0 011.53-.4 3.81 3.81 0 012.86 1 4 4 0 011.34 2.73v.26h.66a.37.37 0 01.27.54zm-3.33 2.06a.31.31 0 00-.4-.13 2.18 2.18 0 01-.93.19 2.56 2.56 0 01-1.93-.66 2.48 2.48 0 01-.86-1.86v-.14h.66a.3.3 0 00.27-.46L5 5.47c-.14-.2-.4-.2-.47 0l-1.33 2a.3.3 0 00.27.46h.66v.27a4.22 4.22 0 001.13 2.59l.07.07A4 4 0 007.87 12a3.89 3.89 0 002-.4c.2-.06.2-.33.14-.46zm4.12 3.12A8 8 0 018 16a8.11 8.11 0 01-5.65-2.33 8 8 0 1111.3 0zm-1.39-9.91A5.93 5.93 0 008 2a6.23 6.23 0 00-4.26 1.74 6 6 0 008.45 8.45 5.92 5.92 0 00.07-8.45z" fill="#69c26a"/></svg>