<?xml version="1.0" encoding="utf-8"?><svg xmlns="http://www.w3.org/2000/svg" viewBox="0 0 16 15.98" width="16" height="15.98"><path d="M12.86,8.47l-1.33,2c-.14.2-.4.2-.47,0l-1.33-2A.3.3,0,0,1,10,8h.66V7.87a2.77,2.77,0,0,0-.8-1.73L9.73,6A2.56,2.56,0,0,0,7.8,5.34a4.42,4.42,0,0,0-.93.2.32.32,0,0,1-.4-.13l-.4-.6a.3.3,0,0,1,.13-.47,4,4,0,0,1,1.53-.4,3.81,3.81,0,0,1,2.86,1,4,4,0,0,1,1.34,2.73v.26h.66A.37.37,0,0,1,12.86,8.47ZM9.53,10.53a.31.31,0,0,0-.4-.13,2.18,2.18,0,0,1-.93.19,2.56,2.56,0,0,1-1.93-.66,2.48,2.48,0,0,1-.86-1.86V7.93h.66a.3.3,0,0,0,.27-.46L5,5.47c-.14-.2-.4-.2-.47,0l-1.33,2a.3.3,0,0,0,.27.46h.66V8.2a4.22,4.22,0,0,0,1.13,2.59l.07.07A4,4,0,0,0,7.87,12a3.89,3.89,0,0,0,2-.4c.2-.06.2-.33.14-.46Zm4.12,3.12A8,8,0,0,1,8,16a8.11,8.11,0,0,1-5.65-2.33,8,8,0,1,1,11.3,0ZM12.26,3.74A5.93,5.93,0,0,0,8,2,6.23,6.23,0,0,0,3.74,3.74a6,6,0,0,0,8.45,8.45A5.92,5.92,0,0,0,12.26,3.74Z" fill="#69c26a"/></svg>