<?xml version="1.0" encoding="utf-8"?><svg width="12" height="12" fill="none" xmlns="http://www.w3.org/2000/svg" viewBox="0 0 12 12"><path d="M11.8386 6.51121L5.4888 0.161428C5.38117 0.0538051 5.27354 0 5.11211 0H0.538117C0.215247 0 0 0.215247 0 0.538117V5.11211C0 5.27354 0.0538051 5.38117 0.161428 5.4888L6.51121 11.8386C6.72646 12.0538 7.04933 12.0538 7.26457 11.8386L11.8386 7.26457C12.0538 7.10314 12.0538 6.72646 11.8386 6.51121ZM3.2287 4.30493C2.63677 4.30493 2.15247 3.82063 2.15247 3.2287C2.15247 2.63677 2.63677 2.15247 3.2287 2.15247C3.82063 2.15247 4.30493 2.63677 4.30493 3.2287C4.30493 3.82063 3.82063 4.30493 3.2287 4.30493Z" fill="#0094FF"/></svg>