<?xml version="1.0" encoding="utf-8"?><svg width="14" height="13" fill="none" xmlns="http://www.w3.org/2000/svg" viewBox="0 0 14 13"><path d="M13.888 11.382L7.648.402C7.5.151 7.25.001 7 .001s-.5.15-.649.4L.112 11.381a.68.68 0 000 .748c.15.25.4.35.65.35h12.477c.25 0 .499-.15.649-.35.15-.25.15-.549 0-.748zm-11.83-.4L7 2.248l4.941 8.734H2.06zm5.69-1.497v.5c0 .299-.199.498-.498.498h-.5c-.299 0-.499-.2-.499-.499v-.499c0-.3.2-.499.5-.499h.499c.299 0 .499.2.499.5zM6.75 4.993h.5c.299 0 .499.2.499.5V6.99l-.3 1.297c0 .1-.1.2-.25.2H6.8c-.1 0-.25-.1-.25-.2L6.252 6.99V5.492c0-.3.2-.499.5-.499z" fill="#0094FF"/></svg>