<?xml version="1.0" encoding="utf-8"?><svg width="12" height="12" fill="none" xmlns="http://www.w3.org/2000/svg" viewBox="0 0 12 12"><path d="M7.371 7.932a1.04 1.04 0 00-.38-.816c-.25-.221-.675-.421-1.272-.6-.832-.228-1.44-.525-1.823-.89-.378-.368-.568-.835-.568-1.4 0-.575.186-1.047.557-1.415.375-.369.888-.588 1.54-.658V1H6.3v1.158c.656.08 1.166.328 1.53.742.366.414.55.98.55 1.7H7.3c0-.495-.131-.888-.393-1.179-.262-.291-.615-.437-1.06-.437-.465 0-.82.109-1.067.327-.246.214-.369.514-.369.9 0 .357.129.643.387.857.262.211.69.404 1.283.58.598.171 1.063.363 1.395.573.335.207.582.45.738.726.16.278.24.602.24.974 0 .593-.2 1.07-.598 1.432-.394.361-.949.575-1.664.642V11h-.867V9.995c-.726-.06-1.297-.291-1.71-.695C3.205 8.893 3 8.342 3 7.647h1.084c0 .488.143.864.428 1.127.285.263.69.394 1.213.394.511 0 .914-.11 1.207-.331.293-.221.44-.523.44-.905z" fill="#333"/></svg>