<?xml version="1.0" encoding="utf-8"?><svg width="24" height="24" fill="none" xmlns="http://www.w3.org/2000/svg" viewBox="0 0 24 24"><circle cx="7.235" cy="16.294" r="1.618" stroke="#333"/><circle cx="16.765" cy="16.294" r="1.618" stroke="#333"/><path d="M8.824 16.294h6.353m3.176 0L21 16.03v-1.132a1 1 0 00-.684-.949l-2.425-.808a.998.998 0 01-.131-.054l-3.96-1.98a1 1 0 00-.448-.106H7.586a1 1 0 00-.625.22l-2.234 1.786a1 1 0 01-.308.168l-.735.245a1 1 0 00-.684.949v1.926h2.647" stroke="#333"/><path d="M16 8l2 2 4-4" stroke="#0094FF"/></svg>