<?xml version="1.0" encoding="utf-8"?><svg width="10" height="11" fill="none" xmlns="http://www.w3.org/2000/svg" viewBox="0 0 10 11"><g filter="url(#ftfilter0_d)"><path d="M10 4.09091V5.90909C10 6.18182 9.81818 6.36364 9.54545 6.36364H6.36364V9.54545C6.36364 9.81818 6.18182 10 5.90909 10H4.09091C3.81818 10 3.63636 9.81818 3.63636 9.54545V6.36364H0.454545C0.181818 6.36364 0 6.18182 0 5.90909V4.09091C0 3.81818 0.181818 3.63636 0.454545 3.63636H3.63636V0.454545C3.63636 0.181818 3.81818 0 4.09091 0H5.90909C6.18182 0 6.36364 0.181818 6.36364 0.454545V3.63636H9.54545C9.81818 3.63636 10 3.81818 10 4.09091Z" fill="#1E6393"/></g><defs><filter id="ftfilter0_d" x="0" y="0" width="10" height="11" filterUnits="userSpaceOnUse" color-interpolation-filters="sRGB"><feFlood flood-opacity="0" result="BackgroundImageFix"/><feColorMatrix in="SourceAlpha" values="0 0 0 0 0 0 0 0 0 0 0 0 0 0 0 0 0 0 127 0" result="hardAlpha"/><feOffset dy="1"/><feColorMatrix values="0 0 0 0 1 0 0 0 0 1 0 0 0 0 1 0 0 0 1 0"/><feBlend in2="BackgroundImageFix" result="effect1_dropShadow"/><feBlend in="SourceGraphic" in2="effect1_dropShadow" result="shape"/></filter></defs></svg>