<svg width="24" height="24" viewBox="0 0 24 24" fill="none" xmlns="http://www.w3.org/2000/svg">
<path fill-rule="evenodd" clip-rule="evenodd" d="M12 20C16.4183 20 20 16.4183 20 12C20 7.58172 16.4183 4 12 4C7.58172 4 4 7.58172 4 12C4 16.4183 7.58172 20 12 20ZM11.8588 7.5C10.4057 7.5 9.66483 8.71289 9.48067 9.35592L8.51932 9.0806C8.75869 8.24479 9.75429 6.5 11.8588 6.5C13.9371 6.5 14.9 8.00242 14.9 9.21826C14.9 10.3709 14.1243 11.7242 12.8044 12.2071C12.5864 12.2869 12.4647 12.3764 12.3905 12.4594C12.3173 12.5411 12.2644 12.6451 12.2288 12.7961C12.1915 12.9542 12.1762 13.1497 12.1733 13.4045C12.1715 13.5521 12.1736 13.6923 12.1758 13.8455V13.8455V13.8455C12.1776 13.9746 12.1796 14.113 12.1796 14.2727H11.1796C11.1796 14.1496 11.1779 14.0167 11.1762 13.8846C11.1739 13.7115 11.1716 13.5397 11.1733 13.3928C11.1765 13.1166 11.1926 12.8332 11.2555 12.5665C11.3201 12.2926 11.4364 12.0257 11.6455 11.7923C11.8533 11.5601 12.1268 11.3902 12.4608 11.268C13.3487 10.9431 13.9 9.99275 13.9 9.21826C13.9 8.50699 13.3382 7.5 11.8588 7.5ZM12.6075 16.0909C12.6075 16.593 12.2037 17 11.7056 17C11.2076 17 10.8038 16.593 10.8038 16.0909C10.8038 15.5888 11.2076 15.1818 11.7056 15.1818C12.2037 15.1818 12.6075 15.5888 12.6075 16.0909Z" fill="var(--svg-icon-fill, #333)" stroke="none"/>
</svg>
