<svg width="24" height="24" viewBox="0 0 24 24" fill="none" xmlns="http://www.w3.org/2000/svg">
<path d="M2 22V7C2.98039 5.33333 6.35294 2 12 2C17.6471 2 21.0196 5.33333 22 7V22" stroke="var(--svg-icon-stroke, #333)" fill="none"/>
<circle cx="8.41593" cy="17.8567" r="1.20798" stroke="#0094FF"/>
<circle cx="16.1019" cy="17.8567" r="1.20798" stroke="#0094FF"/>
<path d="M9.69695 17.8567H14.8209M17.3829 17.8567L19.5179 17.6432V16.8695C19.5179 16.4391 19.2424 16.0569 18.8341 15.9208L17.0233 15.3172C16.9784 15.3023 16.9346 15.2841 16.8923 15.263L13.7511 13.6923C13.6122 13.6229 13.4591 13.5868 13.3038 13.5868H10.1239H8.76675C8.53968 13.5868 8.31936 13.664 8.14205 13.8059L6.42026 15.1833C6.32814 15.257 6.2237 15.3138 6.11179 15.3511L5.68377 15.4938C5.27543 15.6299 5 16.0121 5 16.4425V17.8567H7.13498" stroke="#0094FF"/>
<circle cx="8.41593" cy="10.27" r="1.20798" stroke="var(--svg-icon-stroke, #333)" fill="none"/>
<circle cx="16.1019" cy="10.27" r="1.20798" stroke="var(--svg-icon-stroke, #333)" fill="none"/>
<path d="M9.69695 10.27H14.8209M17.3829 10.27L19.5179 10.0565V9.28273C19.5179 8.8523 19.2424 8.47016 18.8341 8.33405L17.0233 7.73046C16.9784 7.71549 16.9346 7.69736 16.8923 7.6762L13.7511 6.10557C13.6122 6.03615 13.4591 6 13.3038 6H10.1239H8.76675C8.53968 6 8.31936 6.07728 8.14205 6.21913L6.42026 7.59657C6.32814 7.67026 6.2237 7.72708 6.11179 7.76438L5.68377 7.90705C5.27543 8.04317 5 8.42531 5 8.85574V10.27H7.13498" stroke="var(--svg-icon-stroke, #333)" fill="none"/>
</svg>
