<svg xmlns="http://www.w3.org/2000/svg" viewBox="0 0 17 17"><circle cx="1.64" cy="1.64" r="1.14" stroke="var(--svg-icon-stroke, #333)" fill="none"/><circle cx="15.36" cy="8.5" r="1.14" stroke="var(--svg-icon-stroke, #333)" fill="none"/><circle cx="1.64" cy="15.36" r="1.14" stroke="var(--svg-icon-stroke_blue, #0094ff)" fill="none"/><path d="M6.21.5h9.15A1.14,1.14,0,0,1,16.5,1.64h0a1.15,1.15,0,0,1-1.14,1.15H6.21A1.15,1.15,0,0,1,5.07,1.64h0A1.14,1.14,0,0,1,6.21.5Z" stroke="var(--svg-icon-stroke, #333)" fill="none"/><path d="M6.21,14.21h9.15a1.15,1.15,0,0,1,1.14,1.15h0a1.14,1.14,0,0,1-1.14,1.14H6.21a1.14,1.14,0,0,1-1.14-1.14h0A1.15,1.15,0,0,1,6.21,14.21Z" stroke="var(--svg-icon-stroke_blue, #0094ff)" fill="none"/><rect x="0.5" y="7.36" width="11.43" height="2.29" rx="1.14" stroke="var(--svg-icon-stroke, #333)" fill="none"/></svg>