<svg xmlns="http://www.w3.org/2000/svg" viewBox="0 0 21 19">
<path d="M17.86,2.14A9,9,0,0,1,20.5,8.5h-5a4.08,4.08,0,0,0-1.18-2.86Z" stroke="var(--svg-icon-stroke_blue, #0094ff)" fill="none"/>
<path d="M18.16,12a9,9,0,0,1-9.35,6.51A9,9,0,0,1,1,6.56,9.11,9.11,0,0,1,3.16,3.11l3.5,3.52a4.09,4.09,0,0,0-1,1.55A4.16,4.16,0,0,0,5.49,10,4,4,0,0,0,11,13.25a4,4,0,0,0,1.5-1.05,3.87,3.87,0,0,0,.88-1.6Z" stroke="var(--svg-icon-stroke, #333)" fill="none"/>
<path d="M3.14,3.14A9,9,0,0,1,13.62,1.5L11.35,5.91a4.06,4.06,0,0,0-4.71.73Z" stroke="var(--svg-icon-stroke, #333)" fill="none"/>
</svg>
