<svg xmlns="http://www.w3.org/2000/svg" viewBox="0 0 21 21"><rect x="15.5" y="0.5" width="5" height="5" rx="1" stroke="var(--svg-icon-stroke_blue, #0094ff)" fill="none"/><rect x="15.5" y="15.5" width="5" height="5" rx="1" stroke="var(--svg-icon-stroke_blue, #0094ff)" fill="none"/><rect x="0.5" y="0.5" width="5" height="5" rx="1" stroke="var(--svg-icon-stroke_blue, #0094ff)" fill="none"/><rect x="0.5" y="15.5" width="5" height="5" rx="1" stroke="var(--svg-icon-stroke_blue, #0094ff)" fill="none"/><rect x="2.5" y="2.5" width="1" height="1" stroke="var(--svg-icon-stroke_blue, #0094ff)" fill="none"/><rect x="2.5" y="17.5" width="1" height="1" stroke="var(--svg-icon-stroke_blue, #0094ff)" fill="none"/><rect x="17.5" y="2.5" width="1" height="1" stroke="var(--svg-icon-stroke_blue, #0094ff)" fill="none"/><rect x="17.5" y="17.5" width="1" height="1" stroke="var(--svg-icon-stroke_blue, #0094ff)" fill="none"/><rect x="7.5" y="1.5" width="4" height="1" stroke="var(--svg-icon-stroke, #333)" fill="none"/><rect x="9.5" y="18.5" width="4" height="1" stroke="var(--svg-icon-stroke, #333)" fill="none"/><rect x="11.5" y="3.5" width="2" height="1" stroke="var(--svg-icon-stroke, #333)" fill="none"/><rect x="7.5" y="16.5" width="2" height="1" stroke="var(--svg-icon-stroke, #333)" fill="none"/><rect x="6.5" y="5.5" width="2" height="1" stroke="var(--svg-icon-stroke, #333)" fill="none"/><rect x="7.5" y="8.5" width="2" height="1" stroke="var(--svg-icon-stroke, #333)" fill="none"/><rect x="12.5" y="14.5" width="2" height="1" stroke="var(--svg-icon-stroke, #333)" fill="none"/><rect x="16.5" y="7.5" width="4" height="1" stroke="var(--svg-icon-stroke, #333)" fill="none"/><rect x="2.5" y="12.5" width="4" height="1" stroke="var(--svg-icon-stroke, #333)" fill="none"/><rect x="16.5" y="12.5" width="4" height="1" stroke="var(--svg-icon-stroke, #333)" fill="none"/><rect x="0.5" y="8.5" width="4" height="1" stroke="var(--svg-icon-stroke, #333)" fill="none"/><rect x="12.5" y="9.5" width="7" height="1" stroke="var(--svg-icon-stroke, #333)" fill="none"/><rect x="3.5" y="11.5" width="7" height="1" stroke="var(--svg-icon-stroke, #333)" fill="none"/><rect x="10.5" y="2.5" width="1" height="4" stroke="var(--svg-icon-stroke, #333)" fill="none"/><rect x="9.5" y="14.5" width="1" height="4" stroke="var(--svg-icon-stroke, #333)" fill="none"/></svg>