<svg width="24" height="24" viewBox="0 0 24 24" fill="none" xmlns="http://www.w3.org/2000/svg">
<circle cx="7.23529" cy="18.2942" r="1.61765" stroke="var(--svg-icon-stroke, #333)" fill="none"/>
<circle cx="16.7647" cy="18.2942" r="1.61765" stroke="var(--svg-icon-stroke, #333)" fill="none"/>
<path d="M8.82353 18.2941H15.1765M18.3529 18.2941L21 18.0294V16.8972C21 16.4668 20.7246 16.0847 20.3162 15.9485L17.891 15.1401C17.8461 15.1252 17.8023 15.107 17.76 15.0859L13.7994 13.1056C13.6605 13.0361 13.5074 13 13.3522 13H9.35294H7.58608C7.359 13 7.13869 13.0773 6.96138 13.2191L4.7275 15.0062C4.63538 15.0799 4.53095 15.1367 4.41904 15.174L3.68377 15.4191C3.27543 15.5552 3 15.9374 3 16.3678V18.2941H5.64706" stroke="var(--svg-icon-stroke, #333)" fill="none"/>
<rect x="5" y="3" width="14" height="8" stroke="var(--svg-icon-stroke, #333)" fill="none"/>
<path d="M12.2555 8.46703H11.3819V9H10.5577V8.46703H10V7.79945H10.5577V7.59066H10V6.92308H10.5577V5H12.1126C12.413 5 12.6767 5.05403 12.9038 5.16209C13.131 5.27015 13.3068 5.42491 13.4313 5.62637C13.5577 5.82601 13.6209 6.05403 13.6209 6.31044C13.6209 6.70604 13.4863 7.01832 13.217 7.24725C12.9496 7.47619 12.5769 7.59066 12.0989 7.59066H11.3819V7.79945H12.2555V8.46703ZM11.3819 6.92308H12.0934C12.5549 6.92308 12.7857 6.7207 12.7857 6.31593C12.7857 6.12363 12.7271 5.96886 12.6099 5.85165C12.4927 5.7326 12.3306 5.67216 12.1236 5.67033H11.3819V6.92308Z" fill="var(--svg-icon-fill_blue, #0094ff)" stroke="none"/>
</svg>
