<svg width="24" height="24" viewBox="0 0 24 24" fill="none" xmlns="http://www.w3.org/2000/svg">
<path d="M14 17C14 17.2626 13.9483 17.5227 13.8478 17.7654C13.7472 18.008 13.5999 18.2285 13.4142 18.4142C13.2285 18.5999 13.008 18.7472 12.7654 18.8478C12.5227 18.9483 12.2626 19 12 19C11.7374 19 11.4773 18.9483 11.2346 18.8478C10.992 18.7472 10.7715 18.5999 10.5858 18.4142C10.4001 18.2285 10.2528 18.008 10.1522 17.7654C10.0517 17.5227 10 17.2626 10 17L12 17H14Z" stroke="var(--svg-icon-stroke_blue, #0094ff)" fill="none"/>
<path d="M12 4C9.23858 4 7 6.23858 7 9V13.5351C5.8044 14.2267 5 15.5194 5 17H19C19 15.5194 18.1956 14.2267 17 13.5351V9C17 6.23858 14.7614 4 12 4Z" stroke="var(--svg-icon-stroke, #333)" fill="none"/>
</svg>
