<svg width="24" height="24" viewBox="0 0 24 24" fill="none" xmlns="http://www.w3.org/2000/svg">
<path d="M8 12.2316V9C8 9 10.5806 9 11.871 7C13.2473 9 16 9 16 9V13.1747C16 13.8961 15.6378 14.5673 15.0401 14.9533L11.871 17L9.73078 15.5256C8.64716 14.7792 8 13.5475 8 12.2316Z" stroke="var(--svg-icon-stroke_blue, #0094ff)" fill="none"/>
<path d="M19 12H22" stroke="var(--svg-icon-stroke, #333)" fill="none"/>
<path d="M2 12H5" stroke="var(--svg-icon-stroke, #333)" fill="none"/>
<path d="M12 2L12 5" stroke="var(--svg-icon-stroke, #333)" fill="none"/>
<path d="M12 19L12 22" stroke="var(--svg-icon-stroke, #333)" fill="none"/>
<path d="M17.9042 7.37504C18.9533 8.71426 19.5159 10.3703 19.4997 12.0714C19.4835 13.7726 18.8894 15.4176 17.815 16.7366C16.7406 18.0556 15.2498 18.9702 13.5871 19.3301C11.9244 19.6901 10.1888 19.4742 8.66504 18.7177C7.14129 17.9613 5.91998 16.7093 5.20157 15.1672C4.48316 13.6252 4.31035 11.8847 4.71149 10.2315C5.11263 8.57828 6.0639 7.11055 7.40914 6.06923C8.75439 5.02791 10.4137 4.47487 12.1147 4.50088" stroke="var(--svg-icon-stroke, #333)" fill="none"/>
</svg>
