<svg width="24" height="24" viewBox="0 0 24 24" fill="none" xmlns="http://www.w3.org/2000/svg">
<path d="M3 5L5.61919 6.74613C5.861 6.90733 6.02072 7.16576 6.05677 7.45414L7 15H17L20.2764 8.44721C20.6088 7.78231 20.1253 7 19.382 7H18.5" stroke="var(--svg-icon-stroke, #333)" fill="none"/>
<circle cx="8.5" cy="18.5" r="1.5" stroke="var(--svg-icon-stroke, #333)" fill="none"/>
<circle cx="17.5" cy="18.5" r="1.5" stroke="var(--svg-icon-stroke, #333)" fill="none"/>
<path d="M11.375 4H13.625V4.72556C13.8869 4.80349 14.1373 4.90793 14.3732 5.03577L14.8865 4.52252L16.4775 6.11351L15.9642 6.62675C16.0921 6.86268 16.1965 7.11313 16.2744 7.375H17V9.625H16.2744C16.1965 9.88687 16.0921 10.1373 15.9642 10.3732L16.4775 10.8865L14.8865 12.4775L14.3732 11.9642C14.1373 12.0921 13.8869 12.1965 13.625 12.2744V13H11.375V12.2744C11.1131 12.1965 10.8627 12.0921 10.6268 11.9642L10.1135 12.4775L8.52254 10.8865L9.03578 10.3732C8.90794 10.1373 8.80349 9.88687 8.72556 9.625H8V7.375L8.72556 7.375C8.80349 7.11313 8.90794 6.86268 9.03578 6.62676L8.52254 6.11351L10.1135 4.52252L10.6268 5.03577C10.8627 4.90793 11.1131 4.80349 11.375 4.72556V4Z" stroke="var(--svg-icon-stroke_blue, #0094ff)" fill="none"/>
<circle cx="12.5" cy="8.5" r="2.25" stroke="var(--svg-icon-stroke_blue, #0094ff)" fill="none"/>
</svg>
