<svg width="24" height="24" viewBox="0 0 24 24" fill="none" xmlns="http://www.w3.org/2000/svg">
<circle cx="7.23529" cy="16.2941" r="1.61765" stroke="var(--svg-icon-stroke, #333)" fill="none"/>
<circle cx="16.7647" cy="16.2941" r="1.61765" stroke="var(--svg-icon-stroke, #333)" fill="none"/>
<path d="M8.82353 16.2941H15.1765M18.3529 16.2941L21 16.0294V14.8972C21 14.4668 20.7246 14.0847 20.3162 13.9485L17.891 13.1401C17.8461 13.1252 17.8023 13.107 17.76 13.0859L13.7994 11.1056C13.6605 11.0361 13.5074 11 13.3522 11H9.35294H7.58608C7.359 11 7.13869 11.0773 6.96138 11.2191L4.7275 13.0062C4.63538 13.0799 4.53095 13.1367 4.41904 13.174L3.68377 13.4191C3.27543 13.5552 3 13.9374 3 14.3678V16.2941H5.64706" stroke="var(--svg-icon-stroke, #333)" fill="none"/>
<rect x="14.5" y="3.5" width="7" height="6" stroke="var(--svg-icon-stroke_blue, #0094ff)" fill="none"/>
<path d="M16 2V4" stroke="var(--svg-icon-stroke_blue, #0094ff)" fill="none"/>
<path d="M20 2V4" stroke="var(--svg-icon-stroke_blue, #0094ff)" fill="none"/>
<path d="M17.2146 7.95989H16.6609V5.72594L16 5.94051V5.46925L17.1552 5.0361H17.2146V7.95989Z" fill="#0094FF"/>
<path d="M20 6.75267C20 7.15642 19.9202 7.46524 19.7605 7.67914C19.6009 7.89305 19.3672 8 19.0594 8C18.7554 8 18.523 7.89505 18.3621 7.68516C18.2011 7.47527 18.1188 7.17447 18.1149 6.78275V6.24532C18.1149 5.83757 18.1954 5.52807 18.3563 5.31684C18.5185 5.10561 18.7516 5 19.0556 5C19.3595 5 19.592 5.10495 19.7529 5.31484C19.9138 5.5234 19.9962 5.82353 20 6.21524V6.75267ZM19.4464 6.1631C19.4464 5.92112 19.4144 5.74532 19.3506 5.6357C19.288 5.52473 19.1897 5.46925 19.0556 5.46925C18.9253 5.46925 18.8289 5.52206 18.7663 5.62767C18.705 5.73195 18.6724 5.89572 18.6686 6.11898V6.82888C18.6686 7.06684 18.6992 7.24398 18.7605 7.36029C18.8231 7.47527 18.9227 7.53275 19.0594 7.53275C19.1948 7.53275 19.2925 7.47727 19.3525 7.36631C19.4125 7.25535 19.4438 7.08556 19.4464 6.85695V6.1631Z" fill="#0094FF"/>
</svg>
