<svg width="24" height="24" viewBox="0 0 24 24" fill="none" xmlns="http://www.w3.org/2000/svg">
<rect x="11" y="17" width="2" height="3" stroke="var(--svg-icon-stroke, #333)" fill="none"/>
<rect x="3.5" y="5.5" width="17" height="11" rx="0.5" stroke="var(--svg-icon-stroke, #333)" fill="none"/>
<path d="M9.37216 11.8153C9.33996 12.2604 9.17519 12.6108 8.87784 12.8665C8.58239 13.1222 8.19223 13.25 7.70739 13.25C7.17708 13.25 6.75947 13.072 6.45455 12.7159C6.15152 12.358 6 11.8674 6 11.2443V10.9915C6 10.5937 6.07008 10.2434 6.21023 9.94034C6.35038 9.63731 6.55019 9.4053 6.80966 9.24432C7.07102 9.08144 7.37405 9 7.71875 9C8.19602 9 8.58049 9.12784 8.87216 9.38352C9.16383 9.6392 9.33239 9.99811 9.37784 10.4602H8.52557C8.50473 10.1932 8.42992 10 8.30114 9.88068C8.17424 9.75947 7.98011 9.69886 7.71875 9.69886C7.43466 9.69886 7.22159 9.80114 7.07955 10.0057C6.93939 10.2083 6.86742 10.5237 6.86364 10.9517V11.2642C6.86364 11.7112 6.93087 12.0379 7.06534 12.2443C7.2017 12.4508 7.41572 12.554 7.70739 12.554C7.97064 12.554 8.16667 12.4943 8.29545 12.375C8.42614 12.2538 8.50095 12.0672 8.51989 11.8153H9.37216Z" fill="var(--svg-icon-fill_blue, #0094ff)" stroke="none"/>
<path d="M11.4631 11.679H10.7841V13.1932H9.93182V9.05682H11.4688C11.9574 9.05682 12.3343 9.16572 12.5994 9.38352C12.8646 9.60133 12.9972 9.90909 12.9972 10.3068C12.9972 10.589 12.9356 10.8248 12.8125 11.0142C12.6913 11.2017 12.5066 11.3513 12.2585 11.4631L13.1534 13.1534V13.1932H12.2386L11.4631 11.679ZM10.7841 10.9886H11.4716C11.6856 10.9886 11.8513 10.9347 11.9688 10.8267C12.0862 10.7169 12.1449 10.5663 12.1449 10.375C12.1449 10.1799 12.089 10.0265 11.9773 9.91477C11.8674 9.80303 11.6979 9.74716 11.4688 9.74716H10.7841V10.9886Z" fill="var(--svg-icon-fill_blue, #0094ff)" stroke="none"/>
<path d="M14.7614 9.05682L15.8239 12.0568L16.8807 9.05682H18V13.1932H17.1449V12.0625L17.2301 10.1108L16.1136 13.1932H15.5284L14.4148 10.1136L14.5 12.0625V13.1932H13.6477V9.05682H14.7614Z" fill="var(--svg-icon-fill_blue, #0094ff)" stroke="none"/>
</svg>
