<svg xmlns="http://www.w3.org/2000/svg" viewBox="0 0 18 15.5"><rect x="8" y="12" width="2" height="3" stroke="var(--svg-icon-stroke, #333)" fill="none"/><rect x="0.5" y="0.5" width="17" height="11" rx="0.5" stroke="var(--svg-icon-stroke, #333)" fill="none"/><path d="M6.37,6.82a1.45,1.45,0,0,1-.49,1,1.77,1.77,0,0,1-1.17.38,1.6,1.6,0,0,1-1.26-.53A2.24,2.24,0,0,1,3,6.24V6a2.46,2.46,0,0,1,.21-1,1.64,1.64,0,0,1,.6-.7A1.69,1.69,0,0,1,4.72,4a1.7,1.7,0,0,1,1.15.38,1.63,1.63,0,0,1,.51,1.08H5.53a.89.89,0,0,0-.23-.58.82.82,0,0,0-.58-.18A.71.71,0,0,0,4.08,5,1.73,1.73,0,0,0,3.86,6v.31a1.76,1.76,0,0,0,.21,1,.7.7,0,0,0,.64.31.9.9,0,0,0,.59-.17.85.85,0,0,0,.22-.56Z" fill="var(--svg-icon-fill_blue, #0094ff)" stroke="none"/><path d="M8.46,6.68H7.78V8.19H6.93V4.06H8.47a1.79,1.79,0,0,1,1.13.32,1.16,1.16,0,0,1,.4.93,1.18,1.18,0,0,1-.74,1.15l.89,1.69v0H9.24ZM7.78,6h.69A.75.75,0,0,0,9,5.83a.57.57,0,0,0,.17-.45A.65.65,0,0,0,9,4.91a.69.69,0,0,0-.51-.16H7.78Z" fill="var(--svg-icon-fill_blue, #0094ff)" stroke="none"/><path d="M11.76,4.06l1.06,3,1.06-3H15V8.19h-.86V7.06l.09-1.95L13.11,8.19h-.58L11.41,5.11l.09,1.95V8.19h-.85V4.06Z" fill="var(--svg-icon-fill_blue, #0094ff)" stroke="none"/></svg>