<svg width="24" height="24" viewBox="0 0 24 24" fill="none" xmlns="http://www.w3.org/2000/svg">
<rect x="7.5" y="21.5" width="17" height="11" rx="0.5" transform="rotate(-90 7.5 21.5)" stroke="var(--svg-icon-stroke, #333)" fill="none"/>
<path d="M7.5 20H6C5.44772 20 5 19.5523 5 19L5 3C5 2.44772 5.44772 2 6 2L11 2L16 2C16.5523 2 17 2.44772 17 3V4.5" stroke="var(--svg-icon-stroke, #333)" fill="none"/>
<path d="M9 12L12 15" stroke="var(--svg-icon-stroke_blue, #0094ff)" fill="none"/>
<path d="M12 12L9 15" stroke="var(--svg-icon-stroke_blue, #0094ff)" fill="none"/>
<path d="M9 8L10 9L12 7" stroke="var(--svg-icon-stroke_blue, #0094ff)" fill="none"/>
<path d="M9 18L10 19L12 17" stroke="var(--svg-icon-stroke_blue, #0094ff)" fill="none"/>
<path d="M14 8H17" stroke="var(--svg-icon-stroke_blue, #0094ff)" fill="none"/>
<path d="M14 13H17" stroke="var(--svg-icon-stroke_blue, #0094ff)" fill="none"/>
<path d="M14 18H17" stroke="var(--svg-icon-stroke_blue, #0094ff)" fill="none"/>
</svg>
