<svg xmlns="http://www.w3.org/2000/svg" viewBox="0 0 14 18"><path d="M.5.5H9.79L13.5,4.21V17.5H.5Z" stroke="var(--svg-icon-stroke, #333)" fill="none"/><path d="M5.75,4h2.5v.81a4,4,0,0,1,.83.34l.57-.57,1.77,1.77-.57.57a4,4,0,0,1,.34.83H12v2.5h-.81a4,4,0,0,1-.34.83l.57.57L9.65,13.42l-.57-.57a4,4,0,0,1-.83.34V14H5.75v-.81a4,4,0,0,1-.83-.34l-.57.57L2.58,11.65l.57-.57a4,4,0,0,1-.34-.83H2V7.75h.81a4,4,0,0,1,.34-.83l-.57-.57L4.35,4.58l.57.57a4,4,0,0,1,.83-.34Z" stroke="var(--svg-icon-stroke_blue, #0094ff)" fill="none"/><circle cx="7" cy="9" r="2.5" stroke="var(--svg-icon-stroke_blue, #0094ff)" fill="none"/></svg>