<svg width="24" height="24" viewBox="0 0 24 24" fill="none" xmlns="http://www.w3.org/2000/svg">
<path d="M3.64645 11.075C3.45118 11.2703 3.45118 11.5869 3.64645 11.7821C3.84171 11.9774 4.15829 11.9774 4.35355 11.7821L3.64645 11.075ZM19.6464 11.7821C19.8417 11.9774 20.1583 11.9774 20.3536 11.7821C20.5488 11.5869 20.5488 11.2703 20.3536 11.075L19.6464 11.7821ZM4.35355 11.7821C8.72972 7.40596 15.2703 7.40596 19.6464 11.7821L20.3536 11.075C15.5869 6.30833 8.41314 6.30833 3.64645 11.075L4.35355 11.7821Z" fill="var(--svg-icon-fill, #333)" stroke="none"/>
<path d="M20.4 11.7286C20.5657 11.5077 20.5209 11.1943 20.3 11.0286C20.0791 10.8629 19.7657 10.9077 19.6 11.1286L20.4 11.7286ZM4.4 11.1286C4.23431 10.9077 3.92091 10.8629 3.7 11.0286C3.47909 11.1943 3.43432 11.5077 3.6 11.7286L4.4 11.1286ZM19.6 11.1286C17.3863 14.0802 14.6658 15.5 12 15.5C9.33422 15.5 6.61373 14.0802 4.4 11.1286L3.6 11.7286C5.9577 14.8722 8.95149 16.5 12 16.5C15.0485 16.5 18.0423 14.8722 20.4 11.7286L19.6 11.1286Z" fill="var(--svg-icon-fill, #333)" stroke="none"/>
<path d="M15.4286 10.2857C15.4286 14.8572 8.57143 14.8572 8.57143 10.2857" stroke="var(--svg-icon-stroke_blue, #0094ff)" fill="none" stroke-linecap="round" stroke-linejoin="round"/>
</svg>
