<svg xmlns="http://www.w3.org/2000/svg" viewBox="0 0 18.16 17"><path d="M.28,1.5,2.9,3.25a1,1,0,0,1,.43.7l1,7.55h10L17.55,5a1,1,0,0,0-.89-1.45h-.88" stroke="var(--svg-icon-stroke, #333)" fill="none"/><circle cx="5.78" cy="15" r="1.5" stroke="var(--svg-icon-stroke, #333)" fill="none"/><circle cx="14.78" cy="15" r="1.5" stroke="var(--svg-icon-stroke, #333)" fill="none"/><path d="M8.65.5H10.9v.73a3.49,3.49,0,0,1,.75.31L12.16,1l1.59,1.59-.51.52a3.58,3.58,0,0,1,.31.75h.73V6.13h-.73a3.73,3.73,0,0,1-.31.74l.51.52L12.16,9l-.51-.52a3.49,3.49,0,0,1-.75.31V9.5H8.65V8.77a3.49,3.49,0,0,1-.75-.31L7.39,9,5.8,7.39l.51-.52A4.43,4.43,0,0,1,6,6.13H5.28V3.88H6a4.21,4.21,0,0,1,.31-.75L5.8,2.61,7.39,1l.51.52a3.49,3.49,0,0,1,.75-.31Z" stroke="var(--svg-icon-stroke_blue, #0094ff)" fill="none"/><circle cx="9.78" cy="5" r="2.25" stroke="var(--svg-icon-stroke_blue, #0094ff)" fill="none"/></svg>