<svg xmlns="http://www.w3.org/2000/svg" viewBox="0 0 22.16 21.71">
<path d="M5.71,21l-5-5,.58-.59a2,2,0,0,1,2.83,0l2.17,2.18a2,2,0,0,1,0,2.82Z" stroke="var(--svg-icon-stroke, #333)" fill="none"/>
<path d="M6.71,18l1.41-1.41A2,2,0,0,1,9.54,16h5.54a1.93,1.93,0,0,0,1.14-.36l4.89-3.38a1.28,1.28,0,0,0,.29-1.83h0a1.28,1.28,0,0,0-1.69-.33l-4,2.4M3.71,15,6,11.5a2,2,0,0,1,1.86-.88l3.81.38h2.75a1.25,1.25,0,0,1,1.25,1.25h0a1.25,1.25,0,0,1-1.25,1.25H11.71" stroke="var(--svg-icon-stroke, #333)" fill="none"/>
<circle cx="11.71" cy="2.5" r="2" stroke="var(--svg-icon-stroke_blue, #0094ff)" fill="none"/>
<path d="M8.12,7.44A3.65,3.65,0,0,1,11.71,4.5h0A3.67,3.67,0,0,1,15.3,7.44l.41,2.06h-8Z" stroke="var(--svg-icon-stroke_blue, #0094ff)" fill="none"/>
</svg>
