<svg width="24" height="24" viewBox="0 0 24 24" fill="none" xmlns="http://www.w3.org/2000/svg">
<path d="M5 11.5001L3.93782 12.036L5 14.0001M13 16.0001L7.93782 18.9642L6 16.0001M11.5 8.00007L16.0622 5.03595L18 8.00007M19 12.6876L20.0622 11.9642L19 10.0001" stroke="var(--svg-icon-stroke, #333)" fill="none"/>
<rect x="5" y="8" width="14" height="8" stroke="var(--svg-icon-stroke, #333)" fill="none"/>
<path d="M12.2555 13.467H11.3819V14H10.5577V13.467H10V12.7995H10.5577V12.5907H10V11.9231H10.5577V10H12.1126C12.413 10 12.6767 10.054 12.9038 10.1621C13.131 10.2701 13.3068 10.4249 13.4313 10.6264C13.5577 10.826 13.6209 11.054 13.6209 11.3104C13.6209 11.706 13.4863 12.0183 13.217 12.2473C12.9496 12.4762 12.5769 12.5907 12.0989 12.5907H11.3819V12.7995H12.2555V13.467ZM11.3819 11.9231H12.0934C12.5549 11.9231 12.7857 11.7207 12.7857 11.3159C12.7857 11.1236 12.7271 10.9689 12.6099 10.8516C12.4927 10.7326 12.3306 10.6722 12.1236 10.6703H11.3819V11.9231Z" stroke="var(--svg-icon-stroke_blue, #0094ff)" fill="none"/>
</svg>
