<svg viewBox="0 0 24 24" xmlns="http://www.w3.org/2000/svg">
<path d="M20.364 4.63604C22.0518 6.32386 23 8.61305 23 11L18.0389 11C18.0389 9.92882 17.6134 8.90152 16.8559 8.14408L20.364 4.63604Z" stroke="var(--svg-icon-stroke_blue, #0094ff)" fill="none"/>
<path d="M20.6569 14.4615C20.2804 15.7853 19.6054 17.0052 18.6837 18.0273C17.7619 19.0494 16.6181 19.8465 15.34 20.3573C14.062 20.8681 12.6838 21.0789 11.3115 20.9736C9.93919 20.8683 8.60931 20.4497 7.42414 19.7499C6.23898 19.0502 5.23009 18.0879 4.47507 16.9371C3.72005 15.7864 3.23902 14.4778 3.06896 13.112C2.89891 11.7462 3.04436 10.3596 3.49414 9.05885C3.94392 7.75808 4.68604 6.5778 5.66343 5.60877L9.15638 9.13185C8.71776 9.56671 8.38472 10.0964 8.18288 10.6801C7.98103 11.2639 7.91576 11.8861 7.99207 12.499C8.06839 13.1119 8.28426 13.6992 8.62308 14.2156C8.96191 14.732 9.41466 15.1639 9.94652 15.4779C10.4784 15.7919 11.0752 15.9798 11.691 16.027C12.3069 16.0743 12.9253 15.9797 13.4989 15.7504C14.0724 15.5212 14.5857 15.1635 14.9994 14.7048C15.413 14.2462 15.716 13.6987 15.8849 13.1046L20.6569 14.4615Z" stroke="var(--svg-icon-stroke, #333)" fill="none"/>
<path d="M5.63604 5.63604C6.98448 4.28759 8.7264 3.40232 10.6105 3.10791C12.4946 2.81349 14.4236 3.12516 16.1191 3.99795L13.8485 8.40897C13.0876 8.01729 12.222 7.87743 11.3765 8.00955C10.5309 8.14167 9.74922 8.53895 9.14408 9.14409L5.63604 5.63604Z" stroke="var(--svg-icon-stroke, #333)" fill="none"/>
</svg>
