<svg width="24" height="24" viewBox="0 0 24 24" fill="none" xmlns="http://www.w3.org/2000/svg">
<rect x="17" y="2" width="5" height="5" rx="1" stroke="var(--svg-icon-stroke_blue, #0094ff)" fill="none"/>
<rect x="17" y="17" width="5" height="5" rx="1" stroke="var(--svg-icon-stroke_blue, #0094ff)" fill="none"/>
<rect x="2" y="7" width="5" height="5" rx="1" transform="rotate(-90 2 7)" stroke="var(--svg-icon-stroke_blue, #0094ff)" fill="none"/>
<rect x="2" y="22" width="5" height="5" rx="1" transform="rotate(-90 2 22)" stroke="var(--svg-icon-stroke_blue, #0094ff)" fill="none"/>
<rect width="1" height="1" transform="matrix(1.31134e-07 -1 -1 -1.31134e-07 5 5)" stroke="var(--svg-icon-stroke_blue, #0094ff)" fill="none"/>
<rect width="1" height="1" transform="matrix(1.31134e-07 -1 -1 -1.31134e-07 5 20)" stroke="var(--svg-icon-stroke_blue, #0094ff)" fill="none"/>
<rect width="1" height="1" transform="matrix(1.31134e-07 -1 -1 -1.31134e-07 20 5)" stroke="var(--svg-icon-stroke_blue, #0094ff)" fill="none"/>
<rect width="1" height="1" transform="matrix(1.31134e-07 -1 -1 -1.31134e-07 20 20)" stroke="var(--svg-icon-stroke_blue, #0094ff)" fill="none"/>
<rect x="9" y="3" width="4" height="1" stroke="var(--svg-icon-stroke, #333)" fill="none"/>
<rect x="15" y="21" width="4" height="1" transform="rotate(-180 15 21)" stroke="var(--svg-icon-stroke, #333)" fill="none"/>
<rect x="13" y="5" width="2" height="1" stroke="var(--svg-icon-stroke, #333)" fill="none"/>
<rect x="11" y="19" width="2" height="1" transform="rotate(-180 11 19)" stroke="var(--svg-icon-stroke, #333)" fill="none"/>
<rect x="8" y="7" width="2" height="1" stroke="var(--svg-icon-stroke, #333)" fill="none"/>
<rect x="9" y="10" width="2" height="1" stroke="var(--svg-icon-stroke, #333)" fill="none"/>
<rect x="16" y="17" width="2" height="1" transform="rotate(-180 16 17)" stroke="var(--svg-icon-stroke, #333)" fill="none"/>
<rect x="18" y="9" width="4" height="1" stroke="var(--svg-icon-stroke, #333)" fill="none"/>
<rect x="8" y="15" width="4" height="1" transform="rotate(-180 8 15)" stroke="var(--svg-icon-stroke, #333)" fill="none"/>
<rect x="18" y="14" width="4" height="1" stroke="var(--svg-icon-stroke, #333)" fill="none"/>
<rect x="6" y="11" width="4" height="1" transform="rotate(-180 6 11)" stroke="var(--svg-icon-stroke, #333)" fill="none"/>
<rect x="14" y="11" width="7" height="1" stroke="var(--svg-icon-stroke, #333)" fill="none"/>
<rect x="12" y="14" width="7" height="1" transform="rotate(-180 12 14)" stroke="var(--svg-icon-stroke, #333)" fill="none"/>
<rect x="13" y="4" width="4" height="1" transform="rotate(90 13 4)" stroke="var(--svg-icon-stroke, #333)" fill="none"/>
<rect x="11" y="20" width="4" height="1" transform="rotate(-90 11 20)" stroke="var(--svg-icon-stroke, #333)" fill="none"/>
</svg>
