<svg xmlns="http://www.w3.org/2000/svg" viewBox="0 0 18 18"><path d="M5,5.5h.5V1A.5.5,0,0,1,6,.5h6a.5.5,0,0,1,.5.5V5.5H17a.5.5,0,0,1,.5.5v6a.5.5,0,0,1-.5.5H12.5V17a.5.5,0,0,1-.5.5H6a.5.5,0,0,1-.5-.5V12.5H1A.5.5,0,0,1,.5,12V6A.5.5,0,0,1,1,5.5Z" stroke="var(--svg-icon-stroke, #333)" fill="none"/><circle cx="9" cy="9" r="1.5" stroke="var(--svg-icon-stroke, #333)" fill="none"/><path d="M10.07,4.5H7.93L9,2.9Z" stroke="var(--svg-icon-stroke_blue, #0094ff)" fill="none"/><path d="M7.93,13.5h2.14L9,15.1Z" stroke="var(--svg-icon-stroke_blue, #0094ff)" fill="none"/><path d="M13.5,10.07V7.93L15.1,9Z" stroke="var(--svg-icon-stroke_blue, #0094ff)" fill="none"/><path d="M4.5,7.93v2.14L2.9,9Z" stroke="var(--svg-icon-stroke_blue, #0094ff)" fill="none"/></svg>