<svg viewBox="0 0 24 24" xmlns="http://www.w3.org/2000/svg">
<path d="M3.58452 7.82563L3.57813 7.78995L3.56666 7.75557C3.10256 6.36435 3.42492 4.77039 4.53094 3.66437C5.61192 2.58339 7.36453 2.58339 8.44551 3.66437L9.50159 4.72045C10.4779 5.69676 10.4779 7.27967 9.50159 8.25598L7.18479 10.5728L6.92696 10.8306L7.09364 11.1549C8.27695 13.4571 10.242 15.2577 12.6242 16.157L12.9261 16.271L13.1543 16.0428L15.6779 13.5192C16.6542 12.5429 18.2371 12.5429 19.2135 13.5192L20.2695 14.5753C21.3505 15.6562 21.3505 17.4089 20.2695 18.4898C19.2004 19.559 17.6754 19.8959 16.318 19.4979L16.2631 19.4818L16.2059 19.4785C9.91373 19.1178 4.73322 14.2377 3.58452 7.82563Z" stroke="var(--svg-icon-stroke_blue, #0094ff)" fill="none"/>
</svg>
