<svg xmlns="http://www.w3.org/2000/svg" viewBox="0 0 17.22 19">
<circle cx="8.61" cy="4.5" r="4" stroke="var(--svg-icon-stroke, #333)" fill="none"/>
<path d="M1.43,14.38A7.32,7.32,0,0,1,8.61,8.5h0a7.32,7.32,0,0,1,7.18,5.88l.82,4.12H.61Z" stroke="var(--svg-icon-stroke, #333)" fill="none"/>
<path d="M7.67,12.29,6.61,18.5h4L9.55,12.29a1,1,0,0,0-1.88,0Z" stroke="var(--svg-icon-stroke_blue, #0094ff)" fill="none"/>
<path d="M8.84,9.5H8.38A1,1,0,0,0,7.52,11a1,1,0,0,0,.86.49h.46A1,1,0,0,0,9.7,11,1,1,0,0,0,8.84,9.5Z" stroke="var(--svg-icon-stroke_blue, #0094ff)" fill="none"/>
</svg>
