<svg xmlns="http://www.w3.org/2000/svg" viewBox="0 0 22 22"><path d="M21.5,11A10.5,10.5,0,1,1,11,.5,10.5,10.5,0,0,1,21.5,11ZM11.37,8.25c-1,.42-3.06,1.31-6.12,2.64-.49.2-.75.39-.78.58s.37.45.92.62l.22.07a7.28,7.28,0,0,0,1.63.39,2,2,0,0,0,1.14-.42C11.24,10.2,12.7,9.22,12.8,9.2a.22.22,0,0,1,.22,0,.2.2,0,0,1,.05.18,33.46,33.46,0,0,1-2.52,2.48l-.37.34-.25.25c-.5.48-.88.84,0,1.42l1.06.72,1.28.86.35.24a2,2,0,0,0,1.31.54c.28,0,.57-.28.72-1.07.35-1.85,1-5.88,1.19-7.55a1.32,1.32,0,0,0,0-.41.43.43,0,0,0-.15-.29.72.72,0,0,0-.41-.12C14.89,6.82,14.28,7,11.37,8.25Z" stroke="var(--svg-icon-stroke_blue, #0094ff)" fill="none"/></svg>