<svg width="24" height="24" viewBox="0 0 24 24" fill="none" xmlns="http://www.w3.org/2000/svg">
<path d="M8 8.5H8.5V8V4C8.5 3.72386 8.72386 3.5 9 3.5H15C15.2761 3.5 15.5 3.72386 15.5 4V8V8.5H16L20 8.5C20.2761 8.5 20.5 8.72386 20.5 9V15C20.5 15.2761 20.2761 15.5 20 15.5H16H15.5V16V20C15.5 20.2761 15.2761 20.5 15 20.5H9C8.72386 20.5 8.5 20.2761 8.5 20V16V15.5H8H4C3.72386 15.5 3.5 15.2761 3.5 15V9C3.5 8.72386 3.72386 8.5 4 8.5L8 8.5Z" stroke="var(--svg-icon-stroke, #333)" fill="none"/>
<circle cx="12" cy="12" r="1.5" stroke="var(--svg-icon-stroke, #333)" fill="none"/>
<path d="M13.0657 7.5H10.9343L12 5.90139L13.0657 7.5Z" stroke="var(--svg-icon-stroke_blue, #0094ff)" fill="none"/>
<path d="M10.9343 16.5L13.0657 16.5L12 18.0986L10.9343 16.5Z" stroke="var(--svg-icon-stroke_blue, #0094ff)" fill="none"/>
<path d="M16.5 13.0657L16.5 10.9343L18.0986 12L16.5 13.0657Z" stroke="var(--svg-icon-stroke_blue, #0094ff)" fill="none"/>
<path d="M7.5 10.9343L7.5 13.0657L5.90139 12L7.5 10.9343Z" stroke="var(--svg-icon-stroke_blue, #0094ff)" fill="none"/>
</svg>
