<svg width="24" height="24" viewBox="0 0 24 24" xmlns="http://www.w3.org/2000/svg">
<path fill-rule="evenodd" clip-rule="evenodd" d="M1.23225 16.5608C2.20856 15.5845 3.79147 15.5845 4.76778 16.5608L6.93935 18.7324C7.91566 19.7087 7.91567 21.2916 6.93935 22.2679L6.00001 23.2072L0.292908 17.5001L1.23225 16.5608ZM4.06067 17.2679C3.47489 16.6821 2.52514 16.6821 1.93935 17.2679L1.70712 17.5001L6.00001 21.793L6.23225 21.5608C6.81803 20.975 6.81803 20.0253 6.23225 19.4395L4.06067 17.2679Z" fill="var(--svg-icon-fill, #333)" stroke="none" />
<path fill-rule="evenodd" clip-rule="evenodd" d="M19.7465 11.1692C20.5323 10.6977 21.5473 10.8965 22.0971 11.6296C22.7057 12.441 22.5183 13.5956 21.6844 14.1729L16.7983 17.5556C16.3802 17.8451 15.8838 18.0001 15.3753 18.0001H9.82844C9.43061 18.0001 9.04908 18.1582 8.76778 18.4395L7.35356 19.8537L6.64646 19.1466L8.06067 17.7324C8.52951 17.2635 9.1654 17.0001 9.82844 17.0001H15.3753C15.6804 17.0001 15.9782 16.9071 16.2291 16.7334L21.1152 13.3507C21.4828 13.0962 21.5654 12.5873 21.2971 12.2296C21.0548 11.9065 20.6073 11.8188 20.261 12.0267L16.3961 14.3456C16.1525 15.0189 15.5074 15.5001 14.75 15.5001H12V14.5001H14.75C15.1642 14.5001 15.5 14.1643 15.5 13.7501C15.5 13.3359 15.1642 13.0001 14.75 13.0001H11.9751L8.1465 12.6173C7.59441 12.5621 7.05694 12.8161 6.74917 13.2778L4.41603 16.7775L3.58398 16.2228L5.91712 12.7231C6.43007 11.9536 7.32586 11.5302 8.246 11.6222L12.0249 12.0001H14.75C15.515 12.0001 16.1654 12.491 16.4033 13.175L19.7465 11.1692Z" fill="var(--svg-icon-fill, #333)" stroke="none"/>
<path fill-rule="evenodd" clip-rule="evenodd" d="M6.41374 3.82882C6.67971 3.61604 7.01017 3.50012 7.35078 3.50012H12.7639C12.9968 3.50012 13.2265 3.55434 13.4348 3.65848L17.16 5.52113C17.1812 5.53171 17.2031 5.54077 17.2255 5.54825L19.4743 6.29786C20.0869 6.50203 20.5 7.07524 20.5 7.72088V9.19151L18.062 9.49626L17.938 8.50398L19.5 8.30873V7.72088C19.5 7.50567 19.3623 7.3146 19.1581 7.24654L16.9093 6.49694C16.842 6.47449 16.7763 6.4473 16.7128 6.41555L12.9875 4.55291C12.9181 4.51819 12.8416 4.50012 12.7639 4.50012H7.35078C7.23725 4.50012 7.12709 4.53876 7.03843 4.60969L4.95162 6.27914C4.81344 6.38968 4.65679 6.47491 4.48892 6.53086L3.84189 6.74654C3.63771 6.8146 3.5 7.00567 3.5 7.22088V8.50012H5.5V9.50012H2.5V7.22088C2.5 6.57524 2.91315 6.00203 3.52566 5.79786L4.17269 5.58218C4.22865 5.56353 4.28086 5.53512 4.32692 5.49827L6.41374 3.82882ZM14 9.50012H9V8.50012H14V9.50012Z" fill="var(--svg-icon-fill_blue, #0094ff)" stroke="none" />
<path fill-rule="evenodd" clip-rule="evenodd" d="M7 10.0001C7.55228 10.0001 8 9.55241 8 9.00012C8 8.44784 7.55228 8.00012 7 8.00012C6.44772 8.00012 6 8.44784 6 9.00012C6 9.55241 6.44772 10.0001 7 10.0001ZM7 11.0001C8.10457 11.0001 9 10.1047 9 9.00012C9 7.89555 8.10457 7.00012 7 7.00012C5.89543 7.00012 5 7.89555 5 9.00012C5 10.1047 5.89543 11.0001 7 11.0001Z" fill="var(--svg-icon-fill, #333)" stroke="none" />
<path fill-rule="evenodd" clip-rule="evenodd" d="M16 10.0001C16.5523 10.0001 17 9.55241 17 9.00012C17 8.44784 16.5523 8.00012 16 8.00012C15.4477 8.00012 15 8.44784 15 9.00012C15 9.55241 15.4477 10.0001 16 10.0001ZM16 11.0001C17.1046 11.0001 18 10.1047 18 9.00012C18 7.89555 17.1046 7.00012 16 7.00012C14.8954 7.00012 14 7.89555 14 9.00012C14 10.1047 14.8954 11.0001 16 11.0001Z" fill="var(--svg-icon-fill, #333)" stroke="none" />
</svg>
