<svg width="9" height="11" viewBox="0 0 9 11" fill="none" xmlns="http://www.w3.org/2000/svg">
<path d="M8.37986 7.03448L6.34032 9.91645C6.16297 10.1825 5.80826 10.1825 5.63091 9.91645L3.59137 7.03448C3.36968 6.72412 3.59137 6.32503 3.94607 6.32503H4.87717V0.561105C4.87717 0.295078 5.05452 0.117726 5.32055 0.117726H6.65068C6.91671 0.117726 7.09406 0.295078 7.09406 0.561105V6.32503H8.02516C8.37986 6.32503 8.60155 6.72412 8.37986 7.03448ZM2.21689 8.98531H0.576393C0.354703 8.98531 0.133014 8.808 0.133014 8.58631C0.133014 8.18727 0.310367 7.30047 1.15279 6.9901C1.6405 6.81275 1.6405 6.67971 1.6405 6.63538C1.6405 6.45802 1.50749 6.32503 1.33014 6.32503C1.15278 6.32503 1.01977 6.41371 0.931097 6.54672C0.753746 6.72407 0.487714 6.76846 0.310363 6.5911C0.133011 6.41375 0.0886772 6.14766 0.266029 5.97031C0.620732 5.52693 1.06411 5.43827 1.37448 5.43827C2.03954 5.43827 2.5716 5.97031 2.5716 6.63538C2.5716 7.43346 1.77351 7.69946 1.50748 7.83248C1.33013 7.87682 1.24146 8.00987 1.19712 8.09855H2.26123C2.52726 8.09855 2.70461 8.2759 2.70461 8.54193C2.70461 8.80795 2.48292 8.98531 2.21689 8.98531ZM1.77351 3.22138V0.561105C1.77351 0.383754 1.68484 0.206445 1.50748 0.162107C1.33013 0.0734316 1.15279 0.117748 1.01977 0.250762L0.133014 1.13752C-0.0443379 1.31487 -0.0443379 1.58086 0.133014 1.75821C0.310365 1.93556 0.57639 1.93556 0.753742 1.75821L0.886757 1.62517V3.22138C0.886757 3.48741 1.06411 3.66476 1.33014 3.66476C1.59616 3.66476 1.77351 3.48741 1.77351 3.22138Z" fill="#333333"/>
</svg>
