<svg xmlns="http://www.w3.org/2000/svg" viewBox="0 0 19.79 20"><path d="M9.93.5a9.36,9.36,0,0,1,9.36,9.41h0a9.39,9.39,0,0,1-9.35,9.41,9.21,9.21,0,0,1-4.47-1.15l-.17-.09-.2.05L.71,19.29,1.88,15l.06-.2-.11-.18A9.42,9.42,0,0,1,9.93.5Z" stroke="var(--svg-icon-stroke, #333)" fill="none"/><path d="M5.21,5A1.52,1.52,0,0,1,7.44,5l.68.71a1.59,1.59,0,0,1,0,2.17v0l-.49.56L7.4,8.7l.15.3a6.92,6.92,0,0,0,3.64,3.45l.32.13.24-.26.6-.69a1.37,1.37,0,0,1,2,0l.67.71a1.78,1.78,0,0,1,0,2.43,2.27,2.27,0,0,1-2.34.63l0,0h-.06c-3.93-.24-7.2-3.45-7.93-7.72V7.6l0-.17A2.61,2.61,0,0,1,5.21,5Z" stroke="var(--svg-icon-stroke_blue, #0094ff)" fill="none"/></svg>