<svg xmlns="http://www.w3.org/2000/svg" viewBox="0 0 24 24">
<path d="M9.5,3.5h5v1.4C14.8,5,15,5.1,15.2,5.2l1-1l3.5,3.5l-1,1C18.9,9,19,9.2,19.1,9.5h1.4v5h-1.4 c-0.1,0.3-0.2,0.5-0.3,0.7l1,1l-3.5,3.5l-1-1c-0.2,0.1-0.5,0.2-0.7,0.3v1.4h-5v-1.4C9.2,19,9,18.9,8.8,18.8l-1,1l-3.5-3.5l1-1 C5.1,15,5,14.8,4.9,14.5H3.5v-5h1.4C5,9.2,5.1,9,5.2,8.8l-1-1l3.5-3.5l1,1C9,5.1,9.2,5,9.5,4.9V3.5z M10.5,4.5v1.2l-0.4,0.1 C9.7,5.9,9.3,6.1,8.9,6.3L8.6,6.5L7.8,5.6L5.6,7.8l0.8,0.8L6.3,8.9c-0.2,0.4-0.4,0.8-0.5,1.2l-0.1,0.4H4.5v3h1.2l0.1,0.4 c0.1,0.4,0.3,0.8,0.5,1.2l0.2,0.3l-0.8,0.8l2.1,2.1l0.8-0.8l0.3,0.2c0.4,0.2,0.8,0.4,1.2,0.5l0.4,0.1v1.2h3v-1.2l0.4-0.1 c0.4-0.1,0.8-0.3,1.2-0.5l0.3-0.2l0.8,0.8l2.1-2.1l-0.8-0.8l0.2-0.3c0.2-0.4,0.4-0.8,0.5-1.2l0.1-0.4h1.2v-3h-1.2l-0.1-0.4 c-0.1-0.4-0.3-0.8-0.5-1.2l-0.2-0.3l0.8-0.8l-2.1-2.1l-0.8,0.8l-0.3-0.2c-0.4-0.2-0.8-0.4-1.2-0.5l-0.4-0.1V4.5H10.5z" fill="var(--svg-icon-fill, #333)"/>
<path d="M12,8.5c-1.9,0-3.5,1.6-3.5,3.5s1.6,3.5,3.5,3.5s3.5-1.6,3.5-3.5S13.9,8.5,12,8.5z M7.5,12c0-2.5,2-4.5,4.5-4.5 c2.5,0,4.5,2,4.5,4.5c0,2.5-2,4.5-4.5,4.5C9.5,16.5,7.5,14.5,7.5,12z" fill="var(--svg-icon-fill_blue, #0094ff)"/>
</svg>
