<svg xmlns="http://www.w3.org/2000/svg" viewBox="0 0 15.36 19.36"><path d="M.5,12.21V4.48" stroke="var(--svg-icon-stroke, #333)" fill="none" stroke-linecap="round"/><path d="M.5,4.48,7.17,8.34a1,1,0,0,0,1,0l6.67-3.86" stroke="var(--svg-icon-stroke, #333)" fill="none" stroke-linecap="round"/><path d="M14.84,4.48v7.15a1,1,0,0,1-.5.86L8.17,16.06a1,1,0,0,1-1,0L.5,12.21" stroke="var(--svg-icon-stroke, #333)" fill="none" stroke-linecap="round"/><path d="M.5,4.48,7.17.63a1,1,0,0,1,1,0l6.67,3.85M7.67,8.9v7.17" stroke="var(--svg-icon-stroke, #333)" fill="none" stroke-linecap="round"/><path d="M12.7,15.35l2.11.75-.29,2.22" stroke="var(--svg-icon-stroke_blue, #0094ff)" fill="none"/><path d="M14.35,16.37l-4.18,2.56" stroke="var(--svg-icon-stroke_blue, #0094ff)" fill="none"/></svg>