<svg width="24" height="24" viewBox="0 0 24 24" fill="none" xmlns="http://www.w3.org/2000/svg">
<rect x="2" y="9" width="20" height="12.5" rx="1" stroke="var(--svg-icon-stroke, #333)" fill="none"/>
<path d="M16 4L18 6L22 2" stroke="var(--svg-icon-stroke_blue, #0094ff)" fill="none"/>
<path d="M7.16811 16.1721C7.16811 16.0731 7.15263 15.9842 7.12169 15.9054C7.09332 15.8241 7.03917 15.7505 6.95922 15.6844C6.87928 15.6158 6.7671 15.5485 6.62268 15.4825C6.47827 15.4164 6.2913 15.3479 6.06178 15.2767C5.80648 15.1955 5.56407 15.104 5.33455 15.0024C5.10761 14.9008 4.90646 14.7827 4.7311 14.6481C4.55832 14.5109 4.42164 14.3521 4.32107 14.1718C4.22307 13.9914 4.17407 13.7819 4.17407 13.5431C4.17407 13.312 4.22565 13.1024 4.3288 12.9144C4.43196 12.7239 4.57637 12.5614 4.76205 12.4267C4.94772 12.2896 5.16693 12.1842 5.41965 12.1105C5.67496 12.0368 5.95476 12 6.25907 12C6.67426 12 7.03659 12.0737 7.34605 12.221C7.65551 12.3683 7.89534 12.5703 8.06554 12.8268C8.23833 13.0834 8.32472 13.3767 8.32472 13.707H7.17198C7.17198 13.5444 7.13716 13.4021 7.06753 13.2802C7.00048 13.1557 6.89733 13.058 6.75807 12.9868C6.62139 12.9157 6.44861 12.8801 6.23972 12.8801C6.03857 12.8801 5.87095 12.9106 5.73685 12.9716C5.60275 13.03 5.50218 13.11 5.43513 13.2116C5.36808 13.3107 5.33455 13.4225 5.33455 13.5469C5.33455 13.6409 5.35776 13.726 5.40418 13.8022C5.45318 13.8784 5.52539 13.9495 5.6208 14.0156C5.71622 14.0816 5.83356 14.1439 5.97281 14.2023C6.11207 14.2607 6.27325 14.3178 6.45635 14.3737C6.76323 14.4652 7.03272 14.568 7.26481 14.6824C7.49949 14.7967 7.69548 14.9249 7.85279 15.0672C8.0101 15.2094 8.12873 15.3707 8.20867 15.5511C8.28861 15.7314 8.32859 15.9359 8.32859 16.1645C8.32859 16.4058 8.28088 16.6217 8.18546 16.8122C8.09004 17.0027 7.95208 17.164 7.77156 17.2961C7.59104 17.4282 7.3757 17.5285 7.12556 17.5971C6.87541 17.6657 6.5956 17.7 6.28614 17.7C6.00763 17.7 5.73298 17.6644 5.4622 17.5933C5.19142 17.5197 4.94515 17.4092 4.72337 17.2618C4.50416 17.1145 4.3288 16.9265 4.19728 16.6979C4.06576 16.4693 4 16.1988 4 15.8864H5.16435C5.16435 16.0591 5.19142 16.2051 5.24558 16.3245C5.29974 16.4439 5.37581 16.5404 5.47381 16.6141C5.57438 16.6878 5.69301 16.7411 5.82969 16.7741C5.96895 16.8072 6.1211 16.8237 6.28614 16.8237C6.48729 16.8237 6.65234 16.7957 6.78128 16.7398C6.9128 16.684 7.00951 16.6065 7.0714 16.5074C7.13587 16.4084 7.16811 16.2966 7.16811 16.1721Z" fill="var(--svg-icon-fill_blue, #0094ff)" stroke="none"/>
<path d="M9.64766 12.0762H10.6302L12.0769 16.1493L13.5237 12.0762H14.5062L12.4715 17.6238H11.6824L9.64766 12.0762ZM9.11771 12.0762H10.0964L10.2743 16.0464V17.6238H9.11771V12.0762ZM14.0575 12.0762H15.04V17.6238H13.8795V16.0464L14.0575 12.0762Z" fill="var(--svg-icon-fill_blue, #0094ff)" stroke="none"/>
<path d="M18.9895 16.1721C18.9895 16.0731 18.974 15.9842 18.9431 15.9054C18.9147 15.8241 18.8606 15.7505 18.7806 15.6844C18.7007 15.6158 18.5885 15.5485 18.4441 15.4825C18.2997 15.4164 18.1127 15.3479 17.8832 15.2767C17.6279 15.1955 17.3855 15.104 17.156 15.0024C16.929 14.9008 16.7279 14.7827 16.5525 14.6481C16.3797 14.5109 16.2431 14.3521 16.1425 14.1718C16.0445 13.9914 15.9955 13.7819 15.9955 13.5431C15.9955 13.312 16.0471 13.1024 16.1502 12.9144C16.2534 12.7239 16.3978 12.5614 16.5835 12.4267C16.7691 12.2896 16.9883 12.1842 17.2411 12.1105C17.4964 12.0368 17.7762 12 18.0805 12C18.4957 12 18.858 12.0737 19.1675 12.221C19.4769 12.3683 19.7168 12.5703 19.887 12.8268C20.0597 13.0834 20.1461 13.3767 20.1461 13.707H18.9934C18.9934 13.5444 18.9586 13.4021 18.8889 13.2802C18.8219 13.1557 18.7187 13.058 18.5795 12.9868C18.4428 12.9157 18.27 12.8801 18.0611 12.8801C17.86 12.8801 17.6924 12.9106 17.5583 12.9716C17.4242 13.03 17.3236 13.11 17.2565 13.2116C17.1895 13.3107 17.156 13.4225 17.156 13.5469C17.156 13.6409 17.1792 13.726 17.2256 13.8022C17.2746 13.8784 17.3468 13.9495 17.4422 14.0156C17.5376 14.0816 17.655 14.1439 17.7942 14.2023C17.9335 14.2607 18.0947 14.3178 18.2778 14.3737C18.5846 14.4652 18.8541 14.568 19.0862 14.6824C19.3209 14.7967 19.5169 14.9249 19.6742 15.0672C19.8315 15.2094 19.9501 15.3707 20.0301 15.5511C20.11 15.7314 20.15 15.9359 20.15 16.1645C20.15 16.4058 20.1023 16.6217 20.0069 16.8122C19.9115 17.0027 19.7735 17.164 19.593 17.2961C19.4124 17.4282 19.1971 17.5285 18.947 17.5971C18.6968 17.6657 18.417 17.7 18.1076 17.7C17.829 17.7 17.5544 17.6644 17.2836 17.5933C17.0128 17.5197 16.7666 17.4092 16.5448 17.2618C16.3256 17.1145 16.1502 16.9265 16.0187 16.6979C15.8872 16.4693 15.8214 16.1988 15.8214 15.8864H16.9858C16.9858 16.0591 17.0128 16.2051 17.067 16.3245C17.1211 16.4439 17.1972 16.5404 17.2952 16.6141C17.3958 16.6878 17.5144 16.7411 17.6511 16.7741C17.7904 16.8072 17.9425 16.8237 18.1076 16.8237C18.3087 16.8237 18.4738 16.7957 18.6027 16.7398C18.7342 16.684 18.8309 16.6065 18.8928 16.5074C18.9573 16.4084 18.9895 16.2966 18.9895 16.1721Z" fill="var(--svg-icon-fill_blue, #0094ff)" stroke="none"/>
</svg>
