<svg xmlns="http://www.w3.org/2000/svg" viewBox="0 0 16 21"><path d="M3.5,13.5,1,19l2-.5,1,2,3-6" stroke="var(--svg-icon-stroke, #333)" fill="none" stroke-linejoin="round"/><path d="M13,13.5,15.5,19l-2-.5-1,2-3-6" stroke="var(--svg-icon-stroke, #333)" fill="none" stroke-linejoin="round"/><path d="M9,1.55l.22.19.27-.09,1.29-.43.61,1.22.13.25.28,0,1.36.1.1,1.36,0,.28.25.13,1.22.61-.43,1.29-.09.27.19.22.89,1-.89,1-.19.22.09.27.43,1.29-1.22.61-.25.13,0,.28-.1,1.36-1.36.1-.28,0-.13.25-.61,1.22-1.29-.43-.27-.09L9,14.45l-1,.89-1-.89-.22-.19-.27.09-1.29.43-.61-1.22-.13-.25-.28,0-1.36-.1-.1-1.36,0-.28-.25-.13-1.22-.61.43-1.29.09-.27L1.55,9,.66,8l.89-1,.19-.22-.09-.27L1.22,5.19l1.22-.61.25-.13,0-.28.1-1.36,1.36-.1.28,0,.13-.25.61-1.22,1.29.43.27.09L7,1.55,8,.66Z" stroke="var(--svg-icon-stroke, #333)" fill="none"/><circle cx="8" cy="8" r="5" stroke="var(--svg-icon-stroke_blue, #0094ff)" fill="none"/><path d="M8,5,9,6.64l1.86.43L9.6,8.52l.16,1.91L8,9.68l-1.76.75L6.4,8.52,5.15,7.07,7,6.64Z" stroke="var(--svg-icon-stroke_blue, #0094ff)" fill="none"/></svg>