<svg width="24" height="24" viewBox="0 0 24 24" fill="none" xmlns="http://www.w3.org/2000/svg">
<path d="M10 6V7M13 6V7" stroke="var(--svg-icon-stroke, #333)" fill="none" stroke-linecap="round" stroke-linejoin="round"/>
<path d="M13.5 7.5V16.5H9.5V7.5H13.5Z" stroke="var(--svg-icon-stroke, #333)" fill="none"/>
<path d="M10 7C9.74249 7 9.43524 7.06714 9.10707 7.22736C7.73608 7.89671 6 10.1906 6 16" stroke="var(--svg-icon-stroke, #333)" fill="none" stroke-linecap="round" stroke-linejoin="round"/>
<path d="M13 7C13.2575 7 13.5648 7.06714 13.8929 7.22736C15.2639 7.89671 17 10.1906 17 16" stroke="var(--svg-icon-stroke, #333)" fill="none" stroke-linecap="round" stroke-linejoin="round"/>
<rect x="4.5" y="16.5" width="14" height="3" rx="1.5" stroke="var(--svg-icon-stroke, #333)" fill="none"/>
<path d="M9.36073 3.8356L9.19407 4.8356C9.09248 5.44513 9.56252 6 10.1805 6H12.8195C13.4375 6 13.9075 5.44513 13.8059 4.8356L13.6393 3.8356C13.5589 3.35341 13.1417 3 12.6529 3H10.3471C9.85829 3 9.4411 3.35341 9.36073 3.8356Z" stroke="var(--svg-icon-stroke_blue, #0094ff)" fill="none" stroke-linecap="round" stroke-linejoin="round"/>
</svg>
