<svg xmlns="http://www.w3.org/2000/svg" viewBox="0 0 17 16"><circle cx="12" cy="11" r="4.5" stroke="var(--svg-icon-stroke_blue, #0094ff)" fill="none"/><path d="M12.83,6.07a11.84,11.84,0,0,0-1.76-4.18,6.84,6.84,0,0,1,3.66,4.92A5,5,0,0,1,16,8a8,8,0,1,0-8,8,7.88,7.88,0,0,0,2.24-.32,5,5,0,0,1-1.5-.89l-.19,0v-.2a5,5,0,0,1-1.1-1.52v1.72a4.66,4.66,0,0,1-.64-.08A10.89,10.89,0,0,1,4.2,8.55H7.45v.36a5,5,0,0,1,1.1-1.52V1.19a5.06,5.06,0,0,1,.68.09A11.46,11.46,0,0,1,11.7,6H12A4.57,4.57,0,0,1,12.83,6.07ZM3.11,8.55H1.19A6.81,6.81,0,0,0,5,14.15,11.13,11.13,0,0,1,3.11,8.55Zm0-1.1A13.12,13.12,0,0,1,4.73,2,6.81,6.81,0,0,0,1.19,7.45Zm1.09,0H7.45V1.19a7.39,7.39,0,0,0-1,.16A12.66,12.66,0,0,0,4.21,7.45Z" fill="var(--svg-icon-fill, #333)" stroke="none" fill-rule="evenodd"/><path d="M9,11h6" stroke="var(--svg-icon-stroke_blue, #0094ff)" fill="none"/><path d="M12,8l3,3-3,3" stroke="var(--svg-icon-stroke_blue, #0094ff)" fill="none"/></svg>