<svg xmlns="http://www.w3.org/2000/svg" viewBox="0 0 12.41 16"><path d="M10.62,5.72l-.7,1.52H0L.55,5.72Zm-1.31,3-.7,1.52H0L.55,8.76Zm3.1-7.15-.73,1.58a6.84,6.84,0,0,0-1-.76,5.15,5.15,0,0,0-1.13-.49,4.24,4.24,0,0,0-1.25-.18A4,4,0,0,0,6,2.48,4.8,4.8,0,0,0,4.31,4.59,8.57,8.57,0,0,0,3.71,8a8.57,8.57,0,0,0,.6,3.41A4.8,4.8,0,0,0,6,13.52a4,4,0,0,0,2.32.72,4.38,4.38,0,0,0,1.27-.18,5,5,0,0,0,1.11-.48,6.22,6.22,0,0,0,1-.68l.76,1.58a5.41,5.41,0,0,1-1.87,1.14A6.76,6.76,0,0,1,8.27,16,5.77,5.77,0,0,1,5,15,6.58,6.58,0,0,1,2.7,12.26,10.31,10.31,0,0,1,1.89,8,10.31,10.31,0,0,1,2.7,3.74,6.52,6.52,0,0,1,5,1,5.77,5.77,0,0,1,8.27,0a6,6,0,0,1,2.26.42A6,6,0,0,1,12.41,1.61Z" fill="var(--svg-icon-fill, #333)" stroke="none"/></svg>