<svg xmlns="http://www.w3.org/2000/svg" viewBox="0 0 23.98 14.02"><path d="M1.39,12.14a4.56,4.56,0,0,0,1.36.38c-.1-.9.12-2.73,1.77-2.91s1.9,1.8,1.81,2.8H11.6c0-.87.27-2.62,1.9-2.58s2,1.74,2,2.58a7.8,7.8,0,0,0,1.12-.19c.43,0,.36-.11.5-.53A2.39,2.39,0,0,0,17,10.38v0c-.1-.34-.19-5-.2-6.17A12.53,12.53,0,0,0,16.41,1c-.2-.54-1.08-.54-1.49-.47a39.74,39.74,0,0,0-6.06.2,4.34,4.34,0,0,0-1.92.7,4.1,4.1,0,0,0-1,.86L3.29,5.88a12.32,12.32,0,0,0-1.9,1.34C1.05,7.39.92,8.46.9,9v.64a.92.92,0,0,1-.31.32c-.17.11,0,.88,0,1.33S1.06,11.9,1.39,12.14Z" stroke="var(--svg-icon-stroke, #333)" fill="none"/><path d="M3.42,5.67H8.79V.89" stroke="var(--svg-icon-stroke, #333)" fill="none"/><circle cx="4.56" cy="11.73" r="1.79" stroke="var(--svg-icon-stroke, #333)" fill="none"/><circle cx="13.44" cy="11.73" r="1.79" stroke="var(--svg-icon-stroke, #333)" fill="none"/><path d="M19.55,4.8,21,6.55,19.55,8.3" stroke="var(--svg-icon-stroke_blue, #0094ff)" fill="none"/><path d="M20.43,6.54H15.52" stroke="var(--svg-icon-stroke_blue, #0094ff)" fill="none"/><path d="M15.54,12.46h7.62c.55,0,.25-1.25.16-1.46a23.2,23.2,0,0,1-.16-2.89c0-.86-.09-6.39-.25-6.95A1.24,1.24,0,0,0,21.69.51H15.54" stroke="var(--svg-icon-stroke_blue, #0094ff)" fill="none" stroke-dasharray="1 1"/></svg>