<svg xmlns="http://www.w3.org/2000/svg" viewBox="0 0 19.43 17.92"><circle cx="12.5" cy="12.5" r="4.5" stroke="var(--svg-icon-stroke_blue, #0094ff)" fill="none"/><path d="M15.83,15.42l3.34,2.08" stroke="var(--svg-icon-stroke_blue, #0094ff)" fill="none"/><path d="M6.13,0h-.5V1.35A6.32,6.32,0,0,0,5,1.62L4.38,1,4,.66,3.67,1,1,3.67.66,4,1,4.38l.6.6a6.32,6.32,0,0,0-.27.65H0v4.75H1.35c.08.22.17.43.27.64l-.6.6L.66,12l.36.35L3.67,15l.35.36L4.38,15l.6-.6a6.32,6.32,0,0,0,.65.27V16H9.88v0a4.33,4.33,0,0,1-1.23-1h-2V13.92l-.36-.11a5.58,5.58,0,0,1-1.15-.48l-.33-.17-.27.26-.5.5L2.08,12l.5-.5.26-.27-.17-.33a5.58,5.58,0,0,1-.48-1.15l-.11-.35H1V6.63H2.08l.11-.36a5.58,5.58,0,0,1,.48-1.15l.17-.33-.26-.27L2.08,4,4,2.08l.5.5.27.26.33-.17a5.58,5.58,0,0,1,1.15-.48l.36-.11V1H9.38V2.08l.35.11a5.58,5.58,0,0,1,1.15.48l.33.17.27-.26.5-.5L13.92,4l-.5.5-.26.27.17.33a5.58,5.58,0,0,1,.48,1.15l.11.36H15v2a4.33,4.33,0,0,1,1,1.23h0V5.63H14.65A6.32,6.32,0,0,0,14.38,5l.6-.6L15.34,4,15,3.67,12.33,1,12,.66,11.62,1l-.6.6c-.21-.1-.42-.19-.64-.27V0H6.13Zm6.09,7.51a4.25,4.25,0,1,0-4.71,4.71,1.62,1.62,0,0,1,0-.22,4,4,0,0,1,.07-.78,3.25,3.25,0,1,1,3.65-3.65A4,4,0,0,1,12,7.5Z" fill="var(--svg-icon-fill, #333)" stroke="none" fill-rule="evenodd"/></svg>