<svg width="24" height="24" viewBox="0 0 24 24" fill="none" xmlns="http://www.w3.org/2000/svg">
<path d="M12.7871 8.91797L12.8662 9.13379L13.082 9.21289L16.5596 10.5L13.082 11.7871L12.8662 11.8662L12.7871 12.082L11.5 15.5596L10.2129 12.082L10.1338 11.8662L9.91797 11.7871L6.43945 10.5L9.91797 9.21289L10.1338 9.13379L10.2129 8.91797L11.5 5.43945L12.7871 8.91797Z" stroke="var(--svg-icon-stroke_blue, #4A8DC6)" fill="none"/>
<path d="M5.97656 16.7285L6.05664 16.9434L6.27148 17.0234L7.55859 17.5L6.27148 17.9766L6.05664 18.0566L5.97656 18.2715L5.5 19.5586L5.02344 18.2715L4.94336 18.0566L4.72852 17.9766L3.44043 17.5L4.72852 17.0234L4.94336 16.9434L5.02344 16.7285L5.5 15.4404L5.97656 16.7285Z" stroke="var(--svg-icon-stroke, #333)" fill="none"/>
<path d="M18.5 13L19.1752 14.8248L21 15.5L19.1752 16.1752L18.5 18L17.8248 16.1752L16 15.5L17.8248 14.8248L18.5 13Z" fill="var(--svg-icon-fill, #333)" stroke="none"/>
</svg>
