<svg xmlns="http://www.w3.org/2000/svg" viewBox="0 0 12.65 20.4"><path d="M.7,3.31a.21.21,0,0,1-.15,0,.35.35,0,0,1-.32-.22.36.36,0,0,1,.18-.47A12.56,12.56,0,0,1,6.33,1.18a12.15,12.15,0,0,1,5.19,1.14L11,.68A.38.38,0,0,1,11.2.21a.38.38,0,0,1,.43.25l.77,2.33a.31.31,0,0,1,0,.21.51.51,0,0,1,0,.13.34.34,0,0,1-.3.21L9.79,4.1a.13.13,0,0,1-.11,0,.34.34,0,0,1-.32-.25.33.33,0,0,1,.21-.43l1.58-.52a11.37,11.37,0,0,0-4.82-1A11.91,11.91,0,0,0,.7,3.31ZM6.33,18.5A11.92,11.92,0,0,0,12,17.1a.36.36,0,0,1,.47.18.36.36,0,0,1-.18.47,12.71,12.71,0,0,1-5.92,1.48,12,12,0,0,1-5.11-1.11l.52,1.61a.37.37,0,0,1-.21.47H1.35A.35.35,0,0,1,1,20L.26,17.62a.35.35,0,0,1,0-.34.34.34,0,0,1,.14-.17l.11-.05,2.42-.79a.37.37,0,0,1,.47.21.38.38,0,0,1-.22.47l-1.62.53A11.37,11.37,0,0,0,6.33,18.5Z" fill="var(--svg-icon-fill_blue, #0094ff)" stroke="none" fill-rule="evenodd"/><path d="M.7,3.31.61,3.13l0,0,0,0ZM.23,3.13,0,3.2h0Zm.18-.47.07.19h0Zm11.11-.34-.08.19.41.18-.14-.43ZM11,.68l.19-.07h0ZM11.2.21l0-.2h0Zm.43.25L11.82.4h0Zm.77,2.33-.19.06v0l0,0Zm0,.21h0Zm0,.13L12.25,3h0Zm-.3.21,0-.2h0ZM9.79,4.1l-.06-.19-.05,0,0,0Zm-.43-.21.19-.05h0v0Zm.21-.43-.06-.2h0Zm1.58-.52.07.19L11.71,3l-.48-.21ZM12,17.1l-.08-.19h0Zm.47.18.18-.08h0Zm-.18.47-.08-.19h0Zm-11,.37.08-.18-.41-.18.14.42Zm.52,1.61-.19.06v0Zm-.21.47v.2H1.6ZM1,20l.2-.05h0ZM.26,17.62l.19-.06v0Zm0-.34L0,17.2H0Zm.14-.17.1.18h0Zm.11-.05-.06-.19h0Zm2.42-.79.06.19H3Zm.47.21-.19.08h0ZM3.15,17l.06.19h0Zm-1.62.53-.06-.19-.5.17.48.21ZM.55,3.55H.66a.38.38,0,0,0,.18-.09L.56,3.17s0,0,0,0h0Zm-.5-.33a.59.59,0,0,0,.2.24.55.55,0,0,0,.3.09v-.4l-.08,0A.23.23,0,0,1,.41,3Zm.28-.74A.55.55,0,0,0,0,3.2l.37-.14a.16.16,0,0,1,.07-.21Zm6-1.5a12.76,12.76,0,0,0-6,1.5l.18.36A12.42,12.42,0,0,1,6.33,1.38ZM11.6,2.14A12.35,12.35,0,0,0,6.33,1v.4a11.83,11.83,0,0,1,5.11,1.13ZM10.79.74l.54,1.64.38-.12L11.17.61ZM11.12,0a.57.57,0,0,0-.32.73L11.17.6a.17.17,0,0,1,.1-.21Zm.7.37A.6.6,0,0,0,11.16,0l.08.39a.21.21,0,0,1,.21.13Zm.77,2.33L11.82.4l-.38.12.77,2.33Zm.06.29a.49.49,0,0,0-.09-.33l-.33.21a.36.36,0,0,1,0,.1Zm-.05.21A.44.44,0,0,0,12.65,3h-.4V3Zm-.46.32a.55.55,0,0,0,.47-.34l-.37-.14a.16.16,0,0,1-.13.08Zm-2.29.75,2.34-.76-.12-.38-2.34.76Zm-.17,0a.36.36,0,0,0,.25-.09L9.65,4h0Zm-.52-.4a.56.56,0,0,0,.52.4v-.4a.17.17,0,0,1-.13-.1Zm.34-.67A.54.54,0,0,0,9.17,4l.37-.15a.1.1,0,0,1,0-.09.17.17,0,0,1,.1-.08Zm1.59-.52-1.58.51.13.39,1.58-.52ZM6.33,2.1a11.29,11.29,0,0,1,4.74,1l.16-.37a11.7,11.7,0,0,0-4.9-1ZM.78,3.49A11.75,11.75,0,0,1,6.33,2.1V1.7A12.13,12.13,0,0,0,.61,3.13ZM11.87,16.92A11.72,11.72,0,0,1,6.33,18.3v.4A12.11,12.11,0,0,0,12,17.28Zm.74.28a.56.56,0,0,0-.73-.29l.15.37a.16.16,0,0,1,.21.07Zm-.29.73a.55.55,0,0,0,.29-.73l-.37.15a.16.16,0,0,1-.07.21Zm-6,1.5a12.87,12.87,0,0,0,6-1.5l-.17-.36A12.48,12.48,0,0,1,6.33,19ZM1.14,18.3a12.22,12.22,0,0,0,5.19,1.13V19a12,12,0,0,1-5-1.09Zm.79,1.37-.52-1.61L1,18.18l.52,1.61Zm-.33.72a.58.58,0,0,0,.33-.73l-.37.15a.18.18,0,0,1-.11.2Zm-.25,0h.18V20H1.35ZM.83,20a.55.55,0,0,0,.52.4V20a.14.14,0,0,1-.13-.1ZM.07,17.68.83,20l.38-.12L.45,17.56Zm0-.48a.58.58,0,0,0,0,.53l.34-.22a.18.18,0,0,1,0-.16Zm.24-.26A.51.51,0,0,0,0,17.2l.37.15a.12.12,0,0,1,.06-.06Zm.14-.07A.6.6,0,0,0,.26,17l.23.33.05,0Zm2.42-.79-2.42.79.12.38L3,16.46Zm.71.33a.57.57,0,0,0-.73-.33l.15.37a.18.18,0,0,1,.21.11Zm-.32.73a.58.58,0,0,0,.32-.73l-.37.15a.17.17,0,0,1-.1.21Zm-1.64.53,1.62-.53-.12-.38-1.62.53Zm4.74.63a11.17,11.17,0,0,1-4.72-1l-.16.37a11.74,11.74,0,0,0,4.88,1Z" fill="var(--svg-icon-fill_blue, #0094ff)" stroke="none"/><circle cx="5.76" cy="7.98" r="1.78" stroke="var(--svg-icon-stroke, #333)" fill="none"/><path d="M2.57,12.37A3.24,3.24,0,0,1,5.76,9.76h0A3.25,3.25,0,0,1,9,12.37l.36,1.83H2.2Z" stroke="var(--svg-icon-stroke, #333)" fill="none"/></svg>