<svg width="24" height="24" viewBox="0 0 24 24" fill="none" xmlns="http://www.w3.org/2000/svg">
<path d="M11.9938 17.856C12.5965 17.856 13.0795 18.0507 13.4427 18.4402C13.8142 18.8297 14 19.3279 14 19.9348C14 20.5326 13.8142 21.0262 13.4427 21.4157C13.0795 21.8052 12.5965 22 11.9938 22C11.3994 22 10.9164 21.8052 10.5449 21.4157C10.1816 21.0262 10 20.5326 10 19.9348C10 19.3369 10.1816 18.8433 10.5449 18.4538C10.9164 18.0552 11.3994 17.856 11.9938 17.856Z" fill="var(--svg-icon-fill, #333)" stroke="none"/>
<path d="M10.508 15.7092H13.4801L13.9012 2H10.0869L10.508 15.7092Z" fill="var(--svg-icon-fill_blue, #0094ff)" stroke="none"/>
</svg>
