<svg xmlns="http://www.w3.org/2000/svg" viewBox="0 0 17 17.84">
<path d="M16.5.63.5,4.38v9.25l16-4Z" fill="none" stroke="var(--svg-icon-stroke, #333)"/>
<path d="M1.5,16.63l4-4-4,1Z" fill="none" stroke="var(--svg-icon-stroke, #333)"/>
<path d="M5.91,6.5V6.17a1.74,1.74,0,0,1,.15-.71,1.64,1.64,0,0,1,.45-.6,1.74,1.74,0,0,1,.73-.37,1.25,1.25,0,0,1,.74,0,.74.74,0,0,1,.45.36,1.19,1.19,0,0,1,.16.62v.34a1.7,1.7,0,0,1-.16.69,1.61,1.61,0,0,1-.44.6,1.92,1.92,0,0,1-.74.38,1.34,1.34,0,0,1-.74,0,.81.81,0,0,1-.45-.36A1.21,1.21,0,0,1,5.91,6.5ZM6.72,6v.34a.87.87,0,0,0,0,.28A.33.33,0,0,0,7,6.74a.43.43,0,0,0,.3,0,.74.74,0,0,0,.3-.17,1,1,0,0,0,.17-.27,1.06,1.06,0,0,0,0-.31V5.67a.65.65,0,0,0-.06-.29.31.31,0,0,0-.17-.17.38.38,0,0,0-.3,0A.64.64,0,0,0,7,5.36a.8.8,0,0,0-.18.27A1.19,1.19,0,0,0,6.72,6ZM8.86,9.31V9A1.73,1.73,0,0,1,9,8.27a2,2,0,0,1,.46-.6,1.92,1.92,0,0,1,.74-.38,1.33,1.33,0,0,1,.74,0,.82.82,0,0,1,.45.35,1.24,1.24,0,0,1,.15.62v.34a1.73,1.73,0,0,1-.15.7,1.64,1.64,0,0,1-.45.6,1.88,1.88,0,0,1-.73.38,1.38,1.38,0,0,1-.75,0A.87.87,0,0,1,9,9.93,1.21,1.21,0,0,1,8.86,9.31Zm.82-.56v.34a.61.61,0,0,0,.06.28.41.41,0,0,0,.19.18.48.48,0,0,0,.29,0,.65.65,0,0,0,.31-.16.63.63,0,0,0,.16-.27,1.12,1.12,0,0,0,.05-.31V8.47a.61.61,0,0,0-.06-.28A.33.33,0,0,0,10.5,8a.36.36,0,0,0-.29,0,.62.62,0,0,0-.3.16.77.77,0,0,0-.17.27A.89.89,0,0,0,9.68,8.75Zm.83-4.13-3,5.81-.59-.17,3-5.81Z" fill="var(--svg-icon-fill_blue, #0094ff)" />
</svg>
