<svg xmlns="http://www.w3.org/2000/svg" viewBox="0 0 19 14"><path d="M.5,1.5a1,1,0,0,1,1-1H7.36a.8.8,0,0,1,.27,0l3.24.92a.8.8,0,0,0,.27,0H16.5a2,2,0,0,1,2,2H.5Z" stroke="var(--svg-icon-stroke_blue, #0094ff)" fill="none"/><path d="M.5,3.5h18v9a1,1,0,0,1-1,1H1.5a1,1,0,0,1-1-1Z" stroke="var(--svg-icon-stroke, #333)" fill="none"/><path d="M9.86,5.83a.34.34,0,0,0-.67,0V8.14H6.83a.34.34,0,0,0,0,.67H9.19v2.36a.34.34,0,0,0,.67,0V8.81h2.31a.34.34,0,0,0,0-.67H9.86Z" fill="var(--svg-icon-fill_blue, #0094ff)" stroke="none" fill-rule="evenodd"/></svg>