<svg width="24" height="24" viewBox="0 0 24 24" fill="none" xmlns="http://www.w3.org/2000/svg">
<path d="M3.5 14L6.75 11M20.5 16.5L13.7059 11M6.75 11L10 8L13.7059 11M6.75 11L10 13L13.7059 11" stroke="var(--svg-icon-stroke, #333)" fill="none" stroke-linecap="round" stroke-linejoin="round"/>
<circle cx="16.5" cy="8.5" r="1" stroke="var(--svg-icon-stroke, #333)" fill="none"/>
<rect x="3.5" y="5.5" width="17" height="13" stroke="var(--svg-icon-stroke, #333)" fill="none"/>
<path d="M10 15C10 14.4477 10.4477 14 11 14H22C22.5523 14 23 14.4477 23 15V20C23 20.5523 22.5523 21 22 21H11C10.4477 21 10 20.5523 10 20V15Z" stroke="var(--svg-icon-stroke_blue, #0094ff)" fill="none"/>
<path d="M18.2266 18.5488L18.793 16.1562H19.1094L19.1816 16.5547L18.5781 19H18.2383L18.2266 18.5488ZM17.9355 16.1562L18.4043 18.5488L18.3652 19H17.9863L17.3555 16.1562H17.9355ZM19.6797 18.5391L20.1426 16.1562H20.7227L20.0938 19H19.7148L19.6797 18.5391ZM19.2871 16.1562L19.8574 18.5586L19.8418 19H19.502L18.8945 16.5527L18.9727 16.1562H19.2871Z" fill="var(--svg-icon-fill, #333)" stroke="none"/>
<path d="M17.1992 18.543V19H15.6855V18.543H17.1992ZM15.877 16.1562V19H15.291V16.1562H15.877ZM17.002 17.3145V17.7598H15.6855V17.3145H17.002ZM17.1973 16.1562V16.6152H15.6855V16.1562H17.1973Z" fill="var(--svg-icon-fill, #333)" stroke="none"/>
<path d="M14.7812 16.1562V19H14.1953L13.0527 17.0938V19H12.4668V16.1562H13.0527L14.1973 18.0645V16.1562H14.7812Z" fill="var(--svg-icon-fill, #333)" stroke="none"/>
</svg>
