<svg width="25" height="24" viewBox="0 0 25 24" fill="none" xmlns="http://www.w3.org/2000/svg">
<path d="M20.7139 10.1709H15.3389V5.39453" stroke="var(--svg-icon-stroke_blue, #0094ff)" fill="none"/>
<path d="M22.7471 16.6355C22.4841 16.8235 21.7262 16.9702 21.3802 17.0201C21.4782 16.1227 21.2625 14.2853 19.6153 14.1143C17.9681 13.9434 17.7178 15.9091 17.7985 16.9133L6.53536 16.9133C6.5815 16.0373 6.26544 14.2938 4.63206 14.328C2.99867 14.3622 2.64801 16.0657 2.67684 16.9133C1.95013 16.8634 1.89916 16.7552 1.55311 16.721C1.12054 16.6782 1.18975 16.6141 1.05132 16.1868C0.915047 15.7661 1.08065 15.2212 1.18488 14.8782L1.18975 14.8621C1.29357 14.5203 1.38008 9.88385 1.39738 8.68736C1.41468 7.49086 1.48389 6.18754 1.72613 5.50383C1.91992 4.95686 2.79891 4.96255 3.21417 5.03377C6.64589 5.01952 14.2939 5.03805 15.2767 5.22607C16.5052 5.46109 16.6263 5.61066 17.1973 5.93115C17.6541 6.18754 18.0567 6.60774 18.2008 6.78579L20.8392 10.3753C21.6985 10.7527 22.4149 11.5504 22.7471 11.7213C23.0793 11.8923 23.2085 12.9606 23.2316 13.4733V14.1143C23.2777 14.1855 23.4046 14.3493 23.543 14.4348C23.7161 14.5416 23.5949 15.3108 23.543 15.7595C23.4911 16.2082 23.0759 16.4005 22.7471 16.6355Z" stroke="var(--svg-icon-stroke, #333)" fill="none"/>
<circle cx="2.28589" cy="2.28589" r="1.78589" transform="matrix(-1 0 0 1 21.8569 13.9487)" stroke="var(--svg-icon-stroke, #333)" fill="none"/>
<circle cx="2.28589" cy="2.28589" r="1.78589" transform="matrix(-1 0 0 1 6.97363 13.9487)" stroke="var(--svg-icon-stroke, #333)" fill="none"/>
</svg>
