<svg width="24" height="24" viewBox="0 0 24 24" fill="none" xmlns="http://www.w3.org/2000/svg">
<path d="M13.3701 3.8457L13.585 4.03125L13.8545 3.94141L15.5732 3.37109L16.3867 4.99023L16.5137 5.24414L16.7969 5.26465L18.6035 5.39551L18.7354 7.20312L18.7559 7.48633L19.0098 7.61328L20.6279 8.42578L20.0586 10.1455L19.9688 10.415L20.1543 10.6299L21.3389 12L20.1543 13.3701L19.9688 13.585L20.0586 13.8545L20.6279 15.5732L19.0098 16.3867L18.7559 16.5137L18.7354 16.7969L18.6035 18.6035L16.7969 18.7354L16.5137 18.7559L16.3867 19.0098L15.5732 20.6279L13.8545 20.0586L13.585 19.9688L13.3701 20.1543L12 21.3389L10.6299 20.1543L10.415 19.9688L10.1455 20.0586L8.42578 20.6279L7.61328 19.0098L7.48633 18.7559L7.20312 18.7354L5.39551 18.6035L5.26465 16.7969L5.24414 16.5137L4.99023 16.3867L3.37109 15.5732L3.94141 13.8545L4.03125 13.585L3.8457 13.3701L2.66016 12L3.8457 10.6299L4.03125 10.415L3.94141 10.1455L3.37109 8.42578L4.99023 7.61328L5.24414 7.48633L5.26465 7.20312L5.39551 5.39551L7.20312 5.26465L7.48633 5.24414L7.61328 4.99023L8.42578 3.37109L10.1455 3.94141L10.415 4.03125L10.6299 3.8457L12 2.66016L13.3701 3.8457Z" stroke="var(--svg-icon-stroke, #333)" fill="var(--limited-fill-off, none)"/>
<path d="M8.10091 11.5184L10.9915 14.409L15.8092 9.59131" stroke="var(--limited-reverse, var(--svg-icon-stroke_blue, #4A8DC6))" fill="none" stroke-width="2"/>
</svg>
