<svg width="24" height="24" viewBox="0 0 24 24" fill="none" xmlns="http://www.w3.org/2000/svg">
<path d="M3 6C3 5.44772 3.44772 5 4 5H7.5H9.85995C9.95286 5 10.0453 5.01295 10.1347 5.03848L13.3653 5.96152C13.4547 5.98705 13.5471 6 13.6401 6H19C20.1046 6 21 6.89543 21 8V8H3V6Z" stroke="var(--svg-icon-stroke, #333)" fill="none"/>
<path d="M3 8H21V17C21 17.5523 20.5523 18 20 18H4C3.44772 18 3 17.5523 3 17V8Z" stroke="var(--svg-icon-stroke, #333)" fill="none"/>
<path d="M14 12.5L12 14.5L10 12.5" stroke="var(--svg-icon-stroke_blue, #0094ff)" fill="none" stroke-linecap="round" stroke-linejoin="round"/>
<path d="M12.04 14L12 1" stroke="var(--svg-icon-stroke_blue, #0094ff)" fill="none"/>
</svg>
