<svg xmlns="http://www.w3.org/2000/svg" viewBox="0 0 20.93 19.73"><path d="M3.46,17.11H.5v1.23L4.06,19l2.37-1.85H14.5l2.37,2.07,3.56-.85V17.11h-3l-1.18-1.92,1.18-1.94h3V12l-3.56-.62L14.5,13.25H6.43L4.06,11.18.5,12v1.23h3l1.19,1.92Z" stroke="var(--svg-icon-stroke, #333)" fill="none"/><path d="M6.55,6a4.65,4.65,0,0,0,1.37,2.7,5,5,0,0,0,2.75,1.4,5.18,5.18,0,0,0,3.08-.45A4.9,4.9,0,0,0,16,7.53" stroke="var(--svg-icon-stroke_blue, #0094ff)" fill="none"/><path d="M15.35,2.25A5,5,0,0,0,12.61.62a5.17,5.17,0,0,0-3.2.32A5,5,0,0,0,7.08,3.08a4.73,4.73,0,0,0-.51,3.08" stroke="var(--svg-icon-stroke_blue, #0094ff)" fill="none" stroke-dasharray="1 1"/><path d="M13.83,2.57l2-.5L15.26.18" stroke="var(--svg-icon-stroke_blue, #0094ff)" fill="none"/><path d="M11.5,3.08V6.54l2,1.38" stroke="var(--svg-icon-stroke_blue, #0094ff)" fill="none"/></svg>