<svg width="24" height="24" viewBox="0 0 24 24" fill="none" xmlns="http://www.w3.org/2000/svg">
<path d="M18.6777 3.24264L11.6066 3.24264C11.3414 3.24264 11.0871 3.348 10.8995 3.53553L2.70714 11.7279C2.31661 12.1184 2.31661 12.7516 2.70714 13.1421L9.7782 20.2132C10.1687 20.6037 10.8019 20.6037 11.1924 20.2132L19.3848 12.0208C19.5723 11.8333 19.6777 11.5789 19.6777 11.3137L19.6777 4.24264C19.6777 3.69036 19.23 3.24264 18.6777 3.24264Z" stroke="var(--svg-icon-stroke, #333)" fill="none"/>
<circle cx="16.1422" cy="6.77813" r="1.5" transform="rotate(45 16.1422 6.77813)" stroke="var(--svg-icon-stroke_blue, #0094ff)" fill="none"/>
<path d="M4 14.435L11.7782 22.2132C12.1687 22.6037 12.8019 22.6037 13.1924 22.2132L21.3848 14.0208C21.5723 13.8333 21.6777 13.5789 21.6777 13.3137V6.24264C21.6777 5.69036 21.23 5.24264 20.6777 5.24264H19.5563" stroke="var(--svg-icon-stroke, #333)" fill="none"/>
</svg>
