<svg width="24" height="24" viewBox="0 0 24 24" fill="none" xmlns="http://www.w3.org/2000/svg">
<path d="M6.5 4.5H15.7929L19.5 8.20711V21.5H6.5V4.5Z" stroke="var(--svg-icon-stroke, #333)" fill="none"/>
<path d="M6.5 20H4V2H14L18 6V7" stroke="var(--svg-icon-stroke, #333)" fill="none"/>
<path d="M9 15H17" stroke="var(--svg-icon-stroke_blue, #0094ff)" fill="none"/>
<path d="M9 18H17" stroke="var(--svg-icon-stroke_blue, #0094ff)" fill="none"/>
<path d="M13.3832 12.2005H12.0728V13H10.8365V12.2005H10V11.1992H10.8365V10.886H10V9.88462H10.8365V7H13.169C13.6195 7 14.0151 7.08104 14.3558 7.24313C14.6964 7.40522 14.9602 7.63736 15.147 7.93956C15.3365 8.23901 15.4313 8.58104 15.4313 8.96566C15.4313 9.55907 15.2294 10.0275 14.8256 10.3709C14.4245 10.7143 13.8654 10.886 13.1484 10.886H12.0728V11.1992H13.3832V12.2005ZM12.0728 9.88462H13.1401C13.8324 9.88462 14.1786 9.58104 14.1786 8.9739C14.1786 8.68544 14.0907 8.4533 13.9148 8.27747C13.739 8.0989 13.4959 8.00824 13.1854 8.00549H12.0728V9.88462Z" fill="var(--svg-icon-fill_blue, #0094ff)" stroke="none"/>
</svg>
