<svg width="24" height="24" viewBox="0 0 24 24" fill="none" xmlns="http://www.w3.org/2000/svg">
<path d="M4.96296 17.9342L2 17.9342L2 19.1632L5.55556 19.7778L7.92593 17.9342L16 17.9264L18.3704 20.0005L21.9259 19.1555L21.9259 17.9264L18.963 17.9264L17.7778 16.006L18.963 14.0663L21.9259 14.0663L21.9259 12.8372L18.3704 12.2227L16 14.0741L7.92593 14.0741L5.55556 12L2 12.845L2 14.0741L4.96296 14.0741L6.14815 15.9945L4.96296 17.9342Z" stroke="var(--svg-icon-stroke, #333)" fill="none"/>
<path d="M13.4471 9.06731H11.9183V10H10.476V9.06731H9.5V7.89904H10.476V7.53365H9.5V6.36538H10.476V3H13.1971C13.7228 3 14.1843 3.09455 14.5817 3.28365C14.9792 3.47276 15.2869 3.74359 15.5048 4.09615C15.726 4.44551 15.8365 4.84455 15.8365 5.29327C15.8365 5.98558 15.601 6.53205 15.1298 6.93269C14.6619 7.33333 14.0096 7.53365 13.1731 7.53365H11.9183V7.89904H13.4471V9.06731ZM11.9183 6.36538H13.1635C13.9712 6.36538 14.375 6.01122 14.375 5.30288C14.375 4.96635 14.2724 4.69551 14.0673 4.49038C13.8622 4.28205 13.5785 4.17628 13.2163 4.17308H11.9183V6.36538Z" fill="var(--svg-icon-fill_blue, #0094ff)" stroke="none"/>
</svg>
