<svg xmlns="http://www.w3.org/2000/svg" viewBox="0 0 19.85 12.77">
<circle cx="4.74" cy="10.65" r="1.62" stroke="var(--svg-icon-stroke, #333)" fill="none"/>
<circle cx="14.26" cy="10.65" r="1.62" stroke="var(--svg-icon-stroke, #333)" fill="none"/>
<path d="M6.32,10.65h6.36m3.17,0,2.65-.27V9.25a1,1,0,0,0-.68-.95l-2.43-.81-.13,0-4-2a1,1,0,0,0-.45-.11H5.09a1,1,0,0,0-.63.22L2.23,7.36a1.17,1.17,0,0,1-.31.17l-.74.24a1,1,0,0,0-.68,1v1.93H3.15" stroke="var(--svg-icon-stroke, #333)" fill="none"/>
<path d="M13.5,2.35l2,2,4-4" stroke="var(--svg-icon-stroke_blue, #0094ff)" fill="none"/></svg>