<svg width="24" height="24" viewBox="0 0 24 24" fill="none" xmlns="http://www.w3.org/2000/svg">
<path fill-rule="evenodd" clip-rule="evenodd" d="M6.49682 5.11053C6.46075 5.14661 6.38856 5.14661 6.35248 5.14661C6.2081 5.14661 6.09983 5.07446 6.02764 4.93007C5.95549 4.74966 6.02764 4.53313 6.2081 4.46093C8.33735 3.41435 10.0696 2.98128 12.1267 2.98128C13.9458 2.98128 15.5112 3.32033 17.3215 4.12252L16.7821 2.47606C16.7099 2.29565 16.8182 2.07912 16.9987 2.00692C17.1791 1.97081 17.3595 2.07907 17.4317 2.25953L18.1957 4.58624C18.2361 4.64896 18.2558 4.725 18.2526 4.8021C18.2529 4.84778 18.2439 4.89353 18.2257 4.93007C18.1758 5.05496 18.0567 5.12787 17.9283 5.13709L15.5912 5.90447C15.5551 5.94055 15.519 5.94055 15.4829 5.94055C15.3386 5.94055 15.1942 5.83228 15.1581 5.68794C15.0859 5.50748 15.1942 5.32707 15.3747 5.25487L16.9529 4.7379C15.2595 4.00131 13.8149 3.70307 12.1267 3.70307C10.1779 3.70307 8.55389 4.10006 6.49682 5.11053ZM12.1267 20.3038C14.0755 20.3038 15.6995 19.9068 17.7565 18.8963C17.937 18.8242 18.1535 18.8963 18.2257 19.0767C18.2979 19.2571 18.2257 19.4736 18.0453 19.5458C15.916 20.5924 14.1837 21.0255 12.1267 21.0255C10.3358 21.0255 8.79102 20.6971 7.01626 19.9215L7.54342 21.5307C7.61561 21.7112 7.50734 21.9277 7.32689 21.9999H7.14643C7.00209 21.9999 6.8577 21.8916 6.82163 21.7473L6.05763 19.4206C5.99475 19.3228 5.98142 19.1924 6.02769 19.0767C6.05696 19.0036 6.11012 18.9486 6.17478 18.9134C6.20502 18.892 6.24016 18.8736 6.28034 18.8602L8.69827 18.0663C8.87869 17.9941 9.09522 18.1024 9.16741 18.2828C9.23961 18.4632 9.13134 18.6797 8.95088 18.7519L7.33162 19.2824C9.01157 20.0091 10.4488 20.3038 12.1267 20.3038Z" fill="var(--svg-icon-fill_blue, #0094ff)" stroke="none"/>
<path d="M6.49682 5.11053L6.40864 4.93102L6.37886 4.94565L6.3554 4.96911L6.49682 5.11053ZM6.02764 4.93007L5.84194 5.00434L5.84503 5.01207L5.84876 5.01952L6.02764 4.93007ZM6.2081 4.46093L6.28239 4.64663L6.28947 4.64379L6.29632 4.64042L6.2081 4.46093ZM17.3215 4.12252L17.2404 4.30537L17.6515 4.48752L17.5115 4.06026L17.3215 4.12252ZM16.7821 2.47606L16.9726 2.41368L16.9678 2.40176L16.7821 2.47606ZM16.9987 2.00692L16.9594 1.81081L16.9414 1.81442L16.9244 1.82123L16.9987 2.00692ZM17.4317 2.25953L17.6221 2.19701L17.6174 2.18525L17.4317 2.25953ZM18.1957 4.58624L18.0057 4.64864L18.0137 4.67294L18.0275 4.69445L18.1957 4.58624ZM18.2526 4.8021L18.0526 4.79387L18.0527 4.80302L18.2526 4.8021ZM18.2257 4.93007L18.0468 4.84063L18.043 4.84811L18.0399 4.85586L18.2257 4.93007ZM17.9283 5.13709L17.9139 4.93761L17.8893 4.93937L17.8659 4.94707L17.9283 5.13709ZM15.5912 5.90447L15.5288 5.71445L15.4835 5.72933L15.4498 5.76305L15.5912 5.90447ZM15.1581 5.68794L15.3522 5.63945L15.3489 5.62627L15.3438 5.61365L15.1581 5.68794ZM15.3747 5.25487L15.3123 5.06442L15.3004 5.06918L15.3747 5.25487ZM16.9529 4.7379L17.0152 4.92796L17.5149 4.76426L17.0327 4.5545L16.9529 4.7379ZM17.7565 18.8963L17.6823 18.7106L17.6752 18.7134L17.6684 18.7168L17.7565 18.8963ZM18.2257 19.0767L18.4114 19.0024L18.4114 19.0024L18.2257 19.0767ZM18.0453 19.5458L17.971 19.3601L17.9639 19.363L17.957 19.3663L18.0453 19.5458ZM7.01626 19.9215L7.09634 19.7382L6.68719 19.5595L6.82619 19.9838L7.01626 19.9215ZM7.54342 21.5307L7.35297 21.5931L7.35773 21.605L7.54342 21.5307ZM7.32689 21.9999V22.1999H7.36541L7.40117 22.1856L7.32689 21.9999ZM6.82163 21.7473L7.01566 21.6988L7.01391 21.6918L7.01165 21.6849L6.82163 21.7473ZM6.05763 19.4206L6.24765 19.3582L6.23968 19.3339L6.22585 19.3124L6.05763 19.4206ZM6.02769 19.0767L5.84201 19.0024L5.84199 19.0025L6.02769 19.0767ZM6.17478 18.9134L6.27028 19.0892L6.28083 19.0834L6.29062 19.0765L6.17478 18.9134ZM6.28034 18.8602L6.21795 18.6702L6.21703 18.6705L6.28034 18.8602ZM8.69827 18.0663L8.76079 18.2567L8.77258 18.2519L8.69827 18.0663ZM9.16741 18.2828L8.98173 18.3571L8.98173 18.3571L9.16741 18.2828ZM8.95088 18.7519L9.01327 18.9424L9.02517 18.9376L8.95088 18.7519ZM7.33162 19.2824L7.26936 19.0923L6.7681 19.2565L7.25222 19.466L7.33162 19.2824ZM6.35248 5.34661C6.36937 5.34661 6.41199 5.34696 6.45752 5.33938C6.49844 5.33256 6.57586 5.31434 6.63825 5.25195L6.3554 4.96911C6.36985 4.95467 6.3832 4.9484 6.38842 4.94627C6.39366 4.94413 6.39541 4.94421 6.39179 4.94482C6.3885 4.94536 6.38337 4.94592 6.3761 4.94625C6.36879 4.94658 6.36169 4.94661 6.35248 4.94661V5.34661ZM5.84876 5.01952C5.89672 5.11544 5.96277 5.19939 6.05207 5.2589C6.14261 5.31926 6.24532 5.34661 6.35248 5.34661V4.94661C6.31527 4.94661 6.29165 4.93788 6.27392 4.92606C6.25494 4.91341 6.23076 4.8891 6.20653 4.84063L5.84876 5.01952ZM6.13381 4.27524C5.83311 4.39554 5.73624 4.74002 5.84194 5.00434L6.21334 4.85581C6.17475 4.7593 6.22218 4.67071 6.28239 4.64663L6.13381 4.27524ZM12.1267 2.78128C10.0347 2.78128 8.27237 3.22343 6.11988 4.28144L6.29632 4.64042C8.40234 3.60526 10.1046 3.18128 12.1267 3.18128V2.78128ZM17.4025 3.93967C15.5685 3.12696 13.9756 2.78128 12.1267 2.78128V3.18128C13.9161 3.18128 15.4539 3.5137 17.2404 4.30537L17.4025 3.93967ZM16.5921 2.53833L17.1314 4.18478L17.5115 4.06026L16.9722 2.4138L16.5921 2.53833ZM16.9244 1.82123C16.6548 1.92909 16.478 2.25449 16.5964 2.55037L16.9678 2.40176C16.9418 2.33681 16.9817 2.22914 17.0729 2.19262L16.9244 1.82123ZM17.6174 2.18525C17.5141 1.9269 17.2462 1.75342 16.9594 1.81081L17.0379 2.20304C17.1121 2.1882 17.205 2.23125 17.246 2.33382L17.6174 2.18525ZM18.3857 4.52385L17.6217 2.19714L17.2417 2.32193L18.0057 4.64864L18.3857 4.52385ZM18.4525 4.81032C18.4572 4.69446 18.4278 4.57733 18.3639 4.47804L18.0275 4.69445C18.0443 4.72059 18.0544 4.75555 18.0528 4.79388L18.4525 4.81032ZM18.4046 5.01952C18.4398 4.94896 18.453 4.87079 18.4526 4.80118L18.0527 4.80302C18.0528 4.82477 18.048 4.83811 18.0468 4.84063L18.4046 5.01952ZM17.9426 5.33658C18.1347 5.32279 18.3286 5.21146 18.4114 5.00429L18.0399 4.85586C18.0229 4.89847 17.9787 4.93296 17.9139 4.93761L17.9426 5.33658ZM15.6536 6.09449L17.9907 5.32711L17.8659 4.94707L15.5288 5.71445L15.6536 6.09449ZM15.4829 6.14055C15.5219 6.14055 15.6343 6.14417 15.7326 6.04589L15.4498 5.76305C15.4528 5.76004 15.4582 5.75545 15.4661 5.75099C15.4741 5.74651 15.482 5.74365 15.4886 5.742C15.4947 5.74047 15.4984 5.74032 15.4975 5.74037C15.4958 5.74048 15.493 5.74055 15.4829 5.74055V6.14055ZM14.9641 5.73643C15.023 5.9722 15.2493 6.14055 15.4829 6.14055V5.74055C15.4279 5.74055 15.3654 5.69236 15.3522 5.63945L14.9641 5.73643ZM15.3004 5.06918C15.0472 5.17045 14.8482 5.45169 14.9724 5.76223L15.3438 5.61365C15.3308 5.58111 15.3337 5.5522 15.3484 5.52439C15.3646 5.49372 15.3981 5.46089 15.449 5.44057L15.3004 5.06918ZM16.8906 4.54784L15.3124 5.06481L15.4369 5.44494L17.0152 4.92796L16.8906 4.54784ZM12.1267 3.90307C13.7863 3.90307 15.2038 4.19519 16.8731 4.9213L17.0327 4.5545C15.3152 3.80743 13.8435 3.50307 12.1267 3.50307V3.90307ZM6.585 5.29004C8.61856 4.29112 10.2126 3.90307 12.1267 3.90307V3.50307C10.1432 3.50307 8.48921 3.909 6.40864 4.93102L6.585 5.29004ZM17.6684 18.7168C15.6348 19.7157 14.0408 20.1038 12.1267 20.1038V20.5038C14.1102 20.5038 15.7641 20.0978 17.8447 19.0758L17.6684 18.7168ZM18.4114 19.0024C18.2911 18.7018 17.9466 18.6049 17.6823 18.7106L17.8308 19.082C17.9274 19.0434 18.016 19.0909 18.04 19.151L18.4114 19.0024ZM18.1195 19.7315C18.4202 19.6112 18.5171 19.2667 18.4114 19.0024L18.04 19.151C18.0786 19.2475 18.0312 19.3361 17.971 19.3601L18.1195 19.7315ZM12.1267 21.2255C14.2187 21.2255 15.981 20.7833 18.1335 19.7253L17.957 19.3663C15.851 20.4015 14.1488 20.8255 12.1267 20.8255V21.2255ZM6.93617 20.1048C8.73467 20.8907 10.3066 21.2255 12.1267 21.2255V20.8255C10.365 20.8255 8.84737 20.5034 7.09634 19.7382L6.93617 20.1048ZM7.73348 21.4685L7.20632 19.8592L6.82619 19.9838L7.35336 21.593L7.73348 21.4685ZM7.40117 22.1856C7.67079 22.0777 7.8475 21.7523 7.72911 21.4564L7.35773 21.605C7.38372 21.67 7.3439 21.7777 7.2526 21.8142L7.40117 22.1856ZM7.14643 22.1999H7.32689V21.7999H7.14643V22.1999ZM6.6276 21.7958C6.68652 22.0315 6.91279 22.1999 7.14643 22.1999V21.7999C7.09139 21.7999 7.02889 21.7517 7.01566 21.6988L6.6276 21.7958ZM5.86761 19.483L6.63161 21.8097L7.01165 21.6849L6.24765 19.3582L5.86761 19.483ZM5.84199 19.0025C5.77222 19.177 5.7908 19.3754 5.88942 19.5288L6.22585 19.3124C6.19869 19.2702 6.19063 19.2079 6.2134 19.151L5.84199 19.0025ZM6.07928 18.7377C5.97758 18.793 5.89019 18.882 5.84201 19.0024L6.21337 19.151C6.22372 19.1252 6.24265 19.1042 6.27028 19.0892L6.07928 18.7377ZM6.21703 18.6705C6.15792 18.6902 6.1051 18.7176 6.05894 18.7504L6.29062 19.0765C6.30494 19.0663 6.32241 19.057 6.34365 19.0499L6.21703 18.6705ZM8.63588 17.8762L6.21795 18.6702L6.34273 19.0502L8.76067 18.2563L8.63588 17.8762ZM9.3531 18.2085C9.24525 17.939 8.91988 17.7622 8.62397 17.8806L8.77258 18.2519C8.8375 18.226 8.9452 18.2658 8.98173 18.3571L9.3531 18.2085ZM9.02517 18.9376C9.29479 18.8298 9.47149 18.5044 9.3531 18.2085L8.98173 18.3571C9.00772 18.422 8.96789 18.5297 8.8766 18.5662L9.02517 18.9376ZM7.39389 19.4725L9.01315 18.942L8.88862 18.5619L7.26936 19.0923L7.39389 19.4725ZM12.1267 20.1038C10.4772 20.1038 9.06691 19.8151 7.41103 19.0988L7.25222 19.466C8.95623 20.2031 10.4205 20.5038 12.1267 20.5038V20.1038Z" fill="var(--svg-icon-fill_blue, #0094ff)" stroke="none"/>
<circle cx="11.5555" cy="9.77778" r="1.77778" stroke="var(--svg-icon-stroke, #333)" fill="none"/>
<path d="M8.36591 14.1705C8.67 12.6501 10.005 11.5557 11.5556 11.5557V11.5557C13.1061 11.5557 14.4411 12.6501 14.7452 14.1705L15.1111 16.0001H8L8.36591 14.1705Z" stroke="var(--svg-icon-stroke, #333)" fill="none"/>
</svg>
