<svg width="24" height="24" viewBox="0 0 24 24" fill="none" xmlns="http://www.w3.org/2000/svg">
<path d="M5.5 3.5H14.7929L18.5 7.20711V20.5H5.5V3.5Z" stroke="var(--svg-icon-stroke, #333)" fill="none"/>
<path d="M7.80663 10L8.47836 11.7823L9.13322 10H9.90051L8.87746 12.476L9.92299 15H9.13041L8.45587 13.1799L7.77853 15H7L8.05396 12.4657L7.02248 10H7.80663Z" fill="var(--svg-icon-fill_blue, #0094ff)" stroke="none"/>
<path d="M10.6734 10H11.2945L12.2361 13.7191L13.1748 10H13.751L12.4918 15H11.9775L10.6734 10ZM10.4401 10H11.0135L11.1062 13.1834V15H10.4401V10ZM13.4531 10H14.0292V15H13.3631V13.1834L13.4531 10Z" fill="var(--svg-icon-fill_blue, #0094ff)" stroke="none"/>
<path d="M17 14.3029V15H15.2996V14.3029H17ZM15.4795 10V15H14.7965V10H15.4795Z" fill="var(--svg-icon-fill_blue, #0094ff)" stroke="none"/>
</svg>
