<svg width="24" height="24" viewBox="0 0 24 24" fill="none" xmlns="http://www.w3.org/2000/svg">
<path d="M20 7H9" stroke="var(--svg-icon-stroke, #333)" fill="none"/>
<path d="M20 17H9" stroke="var(--svg-icon-stroke, #333)" fill="none"/>
<path d="M20 12H9" stroke="var(--svg-icon-stroke, #333)" fill="none"/>
<path d="M6 4V9H4.99253V5.30495L4 5.63805V4.75893L5.90732 4H6Z" fill="var(--svg-icon-fill_blue, #0094ff)" stroke="none"/>
<path d="M7 13.2959V14H4.08604V13.4042L5.4283 12.0718C5.54685 11.9436 5.64245 11.8289 5.71511 11.7278C5.78776 11.6249 5.84034 11.5319 5.87285 11.4489C5.90727 11.3658 5.92447 11.2909 5.92447 11.2241C5.92447 11.1104 5.90631 11.0156 5.86998 10.9397C5.83556 10.8621 5.78394 10.8034 5.71511 10.7637C5.64818 10.724 5.56501 10.7041 5.46558 10.7041C5.36616 10.7041 5.27916 10.7312 5.20459 10.7854C5.13002 10.8395 5.0717 10.9136 5.02964 11.0074C4.98948 11.1013 4.96941 11.207 4.96941 11.3243H4C4 11.0824 4.06214 10.8612 4.18642 10.6608C4.31262 10.4604 4.48757 10.3006 4.71128 10.1814C4.93499 10.0605 5.19407 10 5.48853 10C5.79637 10 6.05449 10.0451 6.26291 10.1354C6.47132 10.2257 6.62811 10.3566 6.73327 10.5281C6.84034 10.6978 6.89388 10.9027 6.89388 11.1429C6.89388 11.2801 6.87094 11.4119 6.82505 11.5383C6.77916 11.6646 6.71319 11.7901 6.62715 11.9147C6.54111 12.0375 6.43595 12.1638 6.31166 12.2938C6.18929 12.4238 6.04971 12.5619 5.89293 12.7082L5.35373 13.2959H7Z" fill="var(--svg-icon-fill_blue, #0094ff)" stroke="none"/>
<path d="M4.9896 16.6246H5.45463C5.57372 16.6246 5.67108 16.605 5.74669 16.5658C5.8242 16.5248 5.88185 16.4678 5.91966 16.3948C5.95747 16.32 5.97637 16.2318 5.97637 16.1303C5.97637 16.0519 5.95841 15.9797 5.9225 15.9138C5.88847 15.8479 5.83554 15.7954 5.76371 15.7562C5.69187 15.7152 5.60019 15.6947 5.48866 15.6947C5.41304 15.6947 5.33932 15.7099 5.26749 15.7401C5.19565 15.7686 5.13611 15.8096 5.08885 15.8631C5.04348 15.9165 5.02079 15.9815 5.02079 16.0581H4.06238C4.06238 15.8372 4.12665 15.6484 4.2552 15.4916C4.38563 15.3331 4.55671 15.212 4.76843 15.1283C4.98204 15.0428 5.21172 15 5.45747 15C5.75047 15 6.00756 15.0428 6.22873 15.1283C6.44991 15.212 6.62193 15.3367 6.7448 15.5023C6.86957 15.6662 6.93195 15.8693 6.93195 16.1116C6.93195 16.2452 6.89887 16.3707 6.8327 16.4883C6.76654 16.6059 6.67391 16.7092 6.55482 16.7983C6.43573 16.8873 6.29584 16.9577 6.13516 17.0094C5.97637 17.0592 5.80246 17.0842 5.61342 17.0842H4.9896V16.6246ZM4.9896 17.2953V16.8464H5.61342C5.81947 16.8464 6.00756 16.8686 6.17769 16.9132C6.34783 16.9559 6.49433 17.02 6.6172 17.1055C6.74008 17.191 6.83459 17.297 6.90076 17.4235C6.96692 17.5482 7 17.6916 7 17.8537C7 18.0354 6.96125 18.1975 6.88374 18.34C6.80624 18.4825 6.69754 18.6028 6.55766 18.7007C6.41777 18.7987 6.25425 18.8735 6.06711 18.9252C5.87996 18.9751 5.67675 19 5.45747 19C5.28544 19 5.11342 18.9786 4.9414 18.9359C4.76938 18.8913 4.61248 18.8236 4.4707 18.7328C4.32892 18.6402 4.21456 18.5226 4.1276 18.3801C4.04253 18.2358 4 18.0639 4 17.8644H4.95841C4.95841 17.9463 4.98204 18.0212 5.0293 18.0888C5.07845 18.1548 5.14367 18.2073 5.22495 18.2465C5.30624 18.2857 5.39414 18.3053 5.48866 18.3053C5.60586 18.3053 5.7051 18.2848 5.78639 18.2438C5.86957 18.2011 5.93289 18.1441 5.97637 18.0728C6.01985 18.0016 6.04159 17.9223 6.04159 17.835C6.04159 17.7032 6.01796 17.5981 5.9707 17.5197C5.92533 17.4413 5.85822 17.3843 5.76938 17.3487C5.68242 17.3131 5.5775 17.2953 5.45463 17.2953H4.9896Z" fill="var(--svg-icon-fill_blue, #0094ff)" stroke="none"/>
</svg>
