<svg xmlns="http://www.w3.org/2000/svg" viewBox="0 0 16.5 20.5"><path d="M3,3h9.29L16,6.71V20H3Z" stroke="var(--svg-icon-stroke, #333)" fill="none"/><path d="M3,18.5H.5V.5h10l4,4v1" stroke="var(--svg-icon-stroke, #333)" fill="none"/><path d="M5.5,13.5h8" stroke="var(--svg-icon-stroke_blue, #0094ff)" fill="none"/><path d="M5.5,16.5h8" stroke="var(--svg-icon-stroke_blue, #0094ff)" fill="none"/><path d="M9.88,10.7H8.57v.8H7.34v-.8H6.5v-1h.84V9.39H6.5v-1h.84V5.5H9.67a2.78,2.78,0,0,1,1.19.24,1.92,1.92,0,0,1,.79.7,1.87,1.87,0,0,1,.28,1,1.74,1.74,0,0,1-.6,1.4,2.54,2.54,0,0,1-1.68.52H8.57V9.7H9.88ZM8.57,8.38H9.64c.69,0,1-.3,1-.91a.92.92,0,0,0-.27-.69.94.94,0,0,0-.72-.27H8.57Z" fill="var(--svg-icon-fill_blue, #0094ff)" stroke="none"/></svg>