<svg xmlns="http://www.w3.org/2000/svg" viewBox="0 0 21 13.5"><rect x="0.5" y="0.5" width="20" height="12.5" rx="1" stroke="var(--svg-icon-stroke, #333)" fill="none"/><path d="M5.67,7.67a.67.67,0,0,0,0-.26.51.51,0,0,0-.16-.23A1.91,1.91,0,0,0,5.12,7a5.59,5.59,0,0,0-.56-.2c-.25-.08-.5-.18-.73-.28a3.5,3.5,0,0,1-.6-.35,1.69,1.69,0,0,1-.41-.48A1.28,1.28,0,0,1,2.67,5a1.34,1.34,0,0,1,.16-.63,1.41,1.41,0,0,1,.43-.48,2,2,0,0,1,.66-.32,3.11,3.11,0,0,1,.84-.11,2.5,2.5,0,0,1,1.09.22,1.73,1.73,0,0,1,.72.61,1.54,1.54,0,0,1,.25.88H5.67a.83.83,0,0,0-.1-.43.73.73,0,0,0-.31-.29,1.14,1.14,0,0,0-.52-.11,1.21,1.21,0,0,0-.5.09.62.62,0,0,0-.3.24.58.58,0,0,0-.11.34.52.52,0,0,0,.07.25.92.92,0,0,0,.22.22,2.81,2.81,0,0,0,.35.18A3.46,3.46,0,0,0,5,5.87a7.07,7.07,0,0,1,.8.31,2.24,2.24,0,0,1,.59.39,1.38,1.38,0,0,1,.36.48,1.51,1.51,0,0,1,.12.61,1.48,1.48,0,0,1-.14.65,1.51,1.51,0,0,1-.42.49,2,2,0,0,1-.64.3,3.12,3.12,0,0,1-.84.1A3.32,3.32,0,0,1,4,9.09a2.47,2.47,0,0,1-.74-.33A1.64,1.64,0,0,1,2.7,8.2a1.62,1.62,0,0,1-.2-.81H3.66a.91.91,0,0,0,.09.43A.72.72,0,0,0,4,8.11a.85.85,0,0,0,.36.16,1.66,1.66,0,0,0,.46.05,1.17,1.17,0,0,0,.49-.08A.62.62,0,0,0,5.57,8,.57.57,0,0,0,5.67,7.67Z" fill="var(--svg-icon-fill_blue, #0094ff)" stroke="none"/><path d="M8.15,3.58h1l1.45,4.07L12,3.58h1L11,9.12h-.79Zm-.53,0h1l.17,4V9.12H7.62Zm4.94,0h1V9.12H12.38V7.55Z" fill="var(--svg-icon-fill_blue, #0094ff)" stroke="none"/><path d="M17.49,7.67a.67.67,0,0,0,0-.26.51.51,0,0,0-.16-.23,1.91,1.91,0,0,0-.34-.2,5.59,5.59,0,0,0-.56-.2,7.69,7.69,0,0,1-.72-.28,3.25,3.25,0,0,1-.61-.35,1.69,1.69,0,0,1-.41-.48A1.27,1.27,0,0,1,14.5,5a1.33,1.33,0,0,1,.15-.63,1.41,1.41,0,0,1,.43-.48,2,2,0,0,1,.66-.32,3.22,3.22,0,0,1,.84-.11,2.47,2.47,0,0,1,1.09.22,1.73,1.73,0,0,1,.72.61,1.55,1.55,0,0,1,.26.88H17.49a.83.83,0,0,0-.1-.43.73.73,0,0,0-.31-.29,1.14,1.14,0,0,0-.52-.11,1.21,1.21,0,0,0-.5.09.62.62,0,0,0-.3.24.57.57,0,0,0-.1.34.43.43,0,0,0,.07.25.72.72,0,0,0,.21.22l.35.18a3.46,3.46,0,0,0,.49.17,8.13,8.13,0,0,1,.81.31,2.35,2.35,0,0,1,.58.39,1.38,1.38,0,0,1,.36.48,1.51,1.51,0,0,1,.12.61,1.48,1.48,0,0,1-.14.65,1.51,1.51,0,0,1-.42.49,2,2,0,0,1-.64.3,3.12,3.12,0,0,1-.84.1,3.32,3.32,0,0,1-.83-.11A2.47,2.47,0,0,1,15,8.76a1.74,1.74,0,0,1-.52-.56,1.62,1.62,0,0,1-.2-.81h1.17a.92.92,0,0,0,.08.43.66.66,0,0,0,.23.29.81.81,0,0,0,.35.16,1.66,1.66,0,0,0,.46.05,1.17,1.17,0,0,0,.49-.08A.62.62,0,0,0,17.39,8,.57.57,0,0,0,17.49,7.67Z" fill="var(--svg-icon-fill_blue, #0094ff)" stroke="none"/></svg>