<svg width="24" height="24" viewBox="0 0 24 24" fill="none" xmlns="http://www.w3.org/2000/svg">
<path d="M8.69824 18.0664C8.87866 17.9942 9.0948 18.1028 9.16699 18.2832C9.23899 18.4635 9.13141 18.6797 8.95117 18.752L7.33203 19.2822C9.01186 20.0088 10.4492 20.3037 12.127 20.3037C14.0756 20.3037 15.6999 19.9069 17.7568 18.8965C17.9373 18.8245 18.1534 18.8968 18.2256 19.0771C18.2975 19.2575 18.2253 19.4738 18.0449 19.5459C15.9159 20.5923 14.1838 21.0254 12.127 21.0254C10.3362 21.0254 8.79119 20.6973 7.0166 19.9219L7.54297 21.5303C7.61514 21.7106 7.5075 21.9277 7.32715 22H7.14648C7.00214 22 6.85736 21.8914 6.82129 21.7471L6.05762 19.4209C5.99482 19.3233 5.9813 19.1927 6.02734 19.0771C6.05661 19.004 6.11014 18.9482 6.1748 18.9131C6.20497 18.8917 6.24022 18.8737 6.28027 18.8604L8.69824 18.0664ZM16.999 2.00684C17.1794 1.97094 17.3595 2.07943 17.4316 2.25977L18.1953 4.58594C18.2356 4.64856 18.256 4.72478 18.2529 4.80176C18.2531 4.84732 18.2438 4.89319 18.2256 4.92969C18.1757 5.05442 18.0569 5.12736 17.9287 5.13672L15.5908 5.9043C15.5549 5.94011 15.5193 5.94043 15.4834 5.94043C15.3391 5.94043 15.1943 5.83184 15.1582 5.6875C15.0863 5.50716 15.1947 5.32703 15.375 5.25488L16.9531 4.73828C15.2598 4.00173 13.815 3.70316 12.127 3.70312C10.1782 3.70312 8.554 4.09998 6.49707 5.11035C6.46101 5.14641 6.38863 5.14648 6.35254 5.14648C6.20816 5.14648 6.09954 5.07407 6.02734 4.92969C5.9555 4.74939 6.02775 4.5331 6.20801 4.46094C8.33726 3.41435 10.0699 2.98145 12.127 2.98145C13.9459 2.98148 15.5112 3.32003 17.3213 4.12207L16.7822 2.47559C16.7103 2.29525 16.8187 2.07898 16.999 2.00684Z" fill="var(--svg-icon-fill_blue, #4A8DC6)" stroke="none"/>
<path d="M8.69824 18.0664L8.76076 18.2568L8.77254 18.2521L8.69824 18.0664ZM9.16699 18.2832L9.35273 18.209L9.35268 18.2089L9.16699 18.2832ZM8.95117 18.752L9.01355 18.9424L9.0256 18.9376L8.95117 18.752ZM7.33203 19.2822L7.26978 19.0922L6.76844 19.2564L7.25263 19.4658L7.33203 19.2822ZM12.127 20.3037V20.5037H12.127L12.127 20.3037ZM17.7568 18.8965L17.6827 18.7107L17.6756 18.7136L17.6687 18.717L17.7568 18.8965ZM18.2256 19.0771L18.4114 19.0031L18.4113 19.0028L18.2256 19.0771ZM18.0449 19.5459L17.9706 19.3602L17.9635 19.363L17.9567 19.3664L18.0449 19.5459ZM12.127 21.0254V21.2254H12.127L12.127 21.0254ZM7.0166 19.9219L7.09668 19.7386L6.6877 19.5599L6.82652 19.9841L7.0166 19.9219ZM7.54297 21.5303L7.35249 21.5926L7.35728 21.6046L7.54297 21.5303ZM7.32715 22V22.2H7.36573L7.40154 22.1856L7.32715 22ZM6.82129 21.7471L7.01532 21.6986L7.01357 21.6916L7.01131 21.6847L6.82129 21.7471ZM6.05762 19.4209L6.24764 19.3585L6.23966 19.3342L6.22583 19.3127L6.05762 19.4209ZM6.02734 19.0771L5.84166 19.0028L5.84154 19.0031L6.02734 19.0771ZM6.1748 18.9131L6.27031 19.0888L6.2808 19.0831L6.29054 19.0762L6.1748 18.9131ZM6.28027 18.8604L6.21788 18.6703L6.21692 18.6707L6.28027 18.8604ZM16.999 2.00684L16.96 1.81068L16.9419 1.81429L16.9247 1.82114L16.999 2.00684ZM17.4316 2.25977L17.622 2.19726L17.6173 2.18548L17.4316 2.25977ZM18.1953 4.58594L18.0053 4.64832L18.0133 4.67263L18.0271 4.69414L18.1953 4.58594ZM18.2529 4.80176L18.0529 4.79371L18.0529 4.80268L18.2529 4.80176ZM18.2256 4.92969L18.0466 4.84052L18.0429 4.84786L18.0399 4.85547L18.2256 4.92969ZM17.9287 5.13672L17.9141 4.93725L17.8897 4.93904L17.8663 4.9467L17.9287 5.13672ZM15.5908 5.9043L15.5284 5.71428L15.4832 5.72912L15.4495 5.76274L15.5908 5.9043ZM15.4834 5.94043V6.14043H15.4834L15.4834 5.94043ZM15.1582 5.6875L15.3522 5.63901L15.349 5.62594L15.344 5.61342L15.1582 5.6875ZM15.375 5.25488L15.3127 5.06442L15.3007 5.06919L15.375 5.25488ZM16.9531 4.73828L17.0153 4.92836L17.5153 4.7647L17.0329 4.55488L16.9531 4.73828ZM12.127 3.70312L12.127 3.50312H12.127V3.70312ZM6.49707 5.11035L6.40889 4.93084L6.37911 4.94547L6.35565 4.96893L6.49707 5.11035ZM6.35254 5.14648V5.34648H6.35254L6.35254 5.14648ZM6.02734 4.92969L5.84155 5.00372L5.84468 5.01157L5.84846 5.01913L6.02734 4.92969ZM6.20801 4.46094L6.28234 4.64661L6.28941 4.64378L6.29623 4.64043L6.20801 4.46094ZM12.127 2.98145L12.127 2.78145H12.127V2.98145ZM17.3213 4.12207L17.2403 4.30492L17.6512 4.48702L17.5114 4.05984L17.3213 4.12207ZM16.7822 2.47559L16.9727 2.41323L16.968 2.40153L16.7822 2.47559ZM8.69824 18.0664L8.77254 18.2521C8.83711 18.2263 8.94462 18.2658 8.98131 18.3575L9.16699 18.2832L9.35268 18.2089C9.24498 17.9398 8.9202 17.7622 8.62394 17.8807L8.69824 18.0664ZM9.16699 18.2832L8.98125 18.3574C9.00734 18.4227 8.9675 18.5299 8.87675 18.5663L8.95117 18.752L9.0256 18.9376C9.29533 18.8295 9.47063 18.5043 9.35273 18.209L9.16699 18.2832ZM8.95117 18.752L8.88892 18.5619L7.26978 19.0922L7.33203 19.2822L7.39428 19.4723L9.01342 18.942L8.95117 18.752ZM7.33203 19.2822L7.25263 19.4658C8.95651 20.2028 10.4208 20.5037 12.127 20.5037V20.3037V20.1037C10.4776 20.1037 9.06721 19.8149 7.41143 19.0987L7.33203 19.2822ZM12.127 20.3037L12.127 20.5037C14.1103 20.5037 15.7645 20.098 17.845 19.076L17.7568 18.8965L17.6687 18.717C15.6352 19.7158 14.041 20.1037 12.1269 20.1037L12.127 20.3037ZM17.7568 18.8965L17.831 19.0822C17.9273 19.0438 18.0158 19.0911 18.0399 19.1515L18.2256 19.0771L18.4113 19.0028C18.2911 18.7026 17.9472 18.6051 17.6827 18.7107L17.7568 18.8965ZM18.2256 19.0771L18.0398 19.1512C18.0783 19.2476 18.0309 19.3361 17.9706 19.3602L18.0449 19.5459L18.1192 19.7316C18.4197 19.6114 18.5168 19.2674 18.4114 19.0031L18.2256 19.0771ZM18.0449 19.5459L17.9567 19.3664C15.8509 20.4014 14.1488 20.8254 12.1269 20.8254L12.127 21.0254L12.127 21.2254C14.2188 21.2254 15.9809 20.7832 18.1331 19.7254L18.0449 19.5459ZM12.127 21.0254V20.8254C10.3654 20.8254 8.84751 20.5036 7.09668 19.7386L7.0166 19.9219L6.93652 20.1051C8.73487 20.8909 10.3071 21.2254 12.127 21.2254V21.0254ZM7.0166 19.9219L6.82652 19.9841L7.35289 21.5925L7.54297 21.5303L7.73305 21.4681L7.20668 19.8597L7.0166 19.9219ZM7.54297 21.5303L7.35728 21.6046C7.38353 21.6702 7.34329 21.7781 7.25276 21.8144L7.32715 22L7.40154 22.1856C7.6717 22.0774 7.84674 21.7511 7.72866 21.456L7.54297 21.5303ZM7.32715 22V21.8H7.14648V22V22.2H7.32715V22ZM7.14648 22V21.8C7.09146 21.8 7.02855 21.7515 7.01532 21.6986L6.82129 21.7471L6.62726 21.7956C6.68618 22.0313 6.91283 22.2 7.14648 22.2V22ZM6.82129 21.7471L7.01131 21.6847L6.24764 19.3585L6.05762 19.4209L5.8676 19.4833L6.63127 21.8095L6.82129 21.7471ZM6.05762 19.4209L6.22583 19.3127C6.19865 19.2704 6.19054 19.2079 6.21315 19.1512L6.02734 19.0771L5.84154 19.0031C5.77207 19.1776 5.79098 19.3761 5.88941 19.5291L6.05762 19.4209ZM6.02734 19.0771L6.21302 19.1515C6.22355 19.1252 6.24311 19.1036 6.27031 19.0888L6.1748 18.9131L6.0793 18.7374C5.97717 18.7929 5.88967 18.8829 5.84166 19.0028L6.02734 19.0771ZM6.1748 18.9131L6.29054 19.0762C6.30374 19.0668 6.32116 19.0576 6.34363 19.0501L6.28027 18.8604L6.21692 18.6707C6.15929 18.6899 6.10621 18.7165 6.05906 18.75L6.1748 18.9131ZM6.28027 18.8604L6.34267 19.0504L8.76064 18.2564L8.69824 18.0664L8.63585 17.8764L6.21788 18.6703L6.28027 18.8604ZM16.999 2.00684L17.0381 2.20299C17.1119 2.18828 17.2048 2.23132 17.2459 2.33405L17.4316 2.25977L17.6173 2.18548C17.5141 1.92754 17.2468 1.75359 16.96 1.81068L16.999 2.00684ZM17.4316 2.25977L17.2416 2.32215L18.0053 4.64832L18.1953 4.58594L18.3853 4.52355L17.6217 2.19738L17.4316 2.25977ZM18.1953 4.58594L18.0271 4.69414C18.0445 4.72112 18.0546 4.75653 18.0531 4.79372L18.2529 4.80176L18.4528 4.8098C18.4575 4.69303 18.4267 4.576 18.3635 4.47773L18.1953 4.58594ZM18.2529 4.80176L18.0529 4.80268C18.053 4.82285 18.0484 4.83682 18.0466 4.84052L18.2256 4.92969L18.4046 5.01885C18.4391 4.94956 18.4533 4.87178 18.4529 4.80083L18.2529 4.80176ZM18.2256 4.92969L18.0399 4.85547C18.0228 4.89811 17.9787 4.93254 17.9141 4.93725L17.9287 5.13672L17.9433 5.33619C18.1352 5.32218 18.3287 5.21074 18.4113 5.0039L18.2256 4.92969ZM17.9287 5.13672L17.8663 4.9467L15.5284 5.71428L15.5908 5.9043L15.6532 6.09432L17.9911 5.32674L17.9287 5.13672ZM15.5908 5.9043L15.4495 5.76274C15.4524 5.75989 15.4577 5.7554 15.4654 5.75101C15.4733 5.74657 15.4811 5.74368 15.4877 5.74198C15.494 5.7404 15.4978 5.74021 15.4971 5.74025C15.4957 5.74035 15.493 5.74043 15.4834 5.74043L15.4834 5.94043L15.4834 6.14043C15.5241 6.14043 15.6347 6.14309 15.7321 6.04585L15.5908 5.9043ZM15.4834 5.94043V5.74043C15.4284 5.74043 15.3655 5.69194 15.3522 5.63901L15.1582 5.6875L14.9642 5.73599C15.0231 5.97174 15.2497 6.14043 15.4834 6.14043V5.94043ZM15.1582 5.6875L15.344 5.61342C15.331 5.58098 15.3339 5.55216 15.3487 5.52437C15.3649 5.49372 15.3985 5.46091 15.4493 5.44058L15.375 5.25488L15.3007 5.06919C15.0479 5.17032 14.8486 5.45107 14.9724 5.76158L15.1582 5.6875ZM15.375 5.25488L15.4372 5.44496L17.0153 4.92836L16.9531 4.73828L16.8909 4.54821L15.3128 5.06481L15.375 5.25488ZM16.9531 4.73828L17.0329 4.55488C15.3155 3.80786 13.8437 3.50316 12.127 3.50312L12.127 3.70312L12.1269 3.90313C13.7864 3.90316 15.2041 4.1956 16.8733 4.92168L16.9531 4.73828ZM12.127 3.70312V3.50312C10.1436 3.50312 8.48934 3.90891 6.40889 4.93084L6.49707 5.11035L6.58525 5.28986C8.61867 4.29104 10.2129 3.90313 12.127 3.90313V3.70312ZM6.49707 5.11035L6.35565 4.96893C6.37013 4.95445 6.38351 4.94819 6.38867 4.94608C6.39386 4.94396 6.39556 4.94406 6.39189 4.94467C6.38856 4.94522 6.38339 4.94579 6.3761 4.94612C6.36878 4.94646 6.36166 4.94648 6.35254 4.94648L6.35254 5.14648L6.35254 5.34648C6.36958 5.34648 6.4122 5.34681 6.45775 5.33921C6.49859 5.33239 6.57609 5.31418 6.63849 5.25177L6.49707 5.11035ZM6.35254 5.14648V4.94648C6.31545 4.94648 6.29171 4.93776 6.27381 4.92582C6.25467 4.91306 6.23042 4.88863 6.20623 4.84024L6.02734 4.92969L5.84846 5.01913C5.89646 5.11513 5.96262 5.1991 6.05193 5.25864C6.14248 5.31901 6.24525 5.34648 6.35254 5.34648V5.14648ZM6.02734 4.92969L6.21314 4.85565C6.17473 4.75928 6.22213 4.67072 6.28234 4.64661L6.20801 4.46094L6.13367 4.27526C5.83338 4.39549 5.73626 4.73949 5.84155 5.00372L6.02734 4.92969ZM6.20801 4.46094L6.29623 4.64043C8.40223 3.60527 10.1048 3.18145 12.127 3.18145V2.98145V2.78145C10.0349 2.78145 8.27229 3.22343 6.11978 4.28145L6.20801 4.46094ZM12.127 2.98145L12.1269 3.18145C13.9161 3.18148 15.454 3.51341 17.2403 4.30492L17.3213 4.12207L17.4023 3.93922C15.5685 3.12664 13.9757 2.78148 12.127 2.78145L12.127 2.98145ZM17.3213 4.12207L17.5114 4.05984L16.9723 2.41336L16.7822 2.47559L16.5922 2.53782L17.1312 4.1843L17.3213 4.12207ZM16.7822 2.47559L16.968 2.40153C16.9421 2.33665 16.982 2.22905 17.0733 2.19253L16.999 2.00684L16.9247 1.82114C16.6554 1.9289 16.4785 2.25384 16.5964 2.54964L16.7822 2.47559Z" fill="var(--svg-icon-fill_blue, #4A8DC6)" stroke="none"/>
<path d="M11.8652 7L7 15H16.6L11.8652 7Z" stroke="var(--svg-icon-stroke, #333)" fill="none"/>
<path d="M12.1447 12.8196H11.3947L11.2885 9.6665H12.251L12.1447 12.8196ZM11.7697 13.3134C11.9218 13.3134 12.0437 13.3582 12.1354 13.4478C12.2291 13.5373 12.276 13.6519 12.276 13.7915C12.276 13.929 12.2291 14.0425 12.1354 14.1321C12.0437 14.2217 11.9218 14.2665 11.7697 14.2665C11.6197 14.2665 11.4979 14.2217 11.4041 14.1321C11.3124 14.0425 11.2666 13.929 11.2666 13.7915C11.2666 13.654 11.3124 13.5405 11.4041 13.4509C11.4979 13.3592 11.6197 13.3134 11.7697 13.3134Z" fill="var(--svg-icon-fill, #333)" stroke="none"/>
</svg>
