<svg xmlns="http://www.w3.org/2000/svg" viewBox="0 0 14 18"><path d="M.5.5H9.79L13.5,4.21V17.5H.5Z" stroke="var(--svg-icon-stroke, #333)" fill="none"/><path d="M2.81,7l.67,1.78L4.13,7H4.9l-1,2.48,1,2.52H4.13l-.67-1.82L2.78,12H2l1-2.53L2,7Z" fill="var(--svg-icon-fill_blue, #0094ff)" stroke="none"/><path d="M5.67,7h.62l1,3.72L8.17,7h.58L7.49,12H7ZM5.44,7H6l.1,3.18V12H5.44Zm3,0H9v5H8.36V10.18Z" fill="var(--svg-icon-fill_blue, #0094ff)" stroke="none"/><path d="M12,11.3V12H10.3v-.7ZM10.48,7v5H9.8V7Z" fill="var(--svg-icon-fill_blue, #0094ff)" stroke="none"/></svg>