<svg width="24" height="24" viewBox="0 0 24 24" fill="none" xmlns="http://www.w3.org/2000/svg">
<path d="M7.5 15.5L5 21L7 20.5L8 22.5L11 16.5" stroke="var(--svg-icon-stroke, #333)" fill="none" stroke-linejoin="round"/>
<path d="M17 15.5L19.5 21L17.5 20.5L16.5 22.5L13.5 16.5" stroke="var(--svg-icon-stroke, #333)" fill="none" stroke-linejoin="round"/>
<path d="M13.0308 3.552L13.2457 3.73768L13.5152 3.64834L14.8085 3.21957L15.4199 4.43731L15.5473 4.69106L15.8305 4.71165L17.1895 4.81048L17.2883 6.1695L17.3089 6.45268L17.5627 6.58008L18.7804 7.19145L18.3517 8.48484L18.2623 8.75435L18.448 8.96915L19.3391 10L18.448 11.0308L18.2623 11.2457L18.3517 11.5152L18.7804 12.8085L17.5627 13.4199L17.3089 13.5473L17.2883 13.8305L17.1895 15.1895L15.8305 15.2883L15.5473 15.3089L15.4199 15.5627L14.8085 16.7804L13.5152 16.3517L13.2457 16.2623L13.0308 16.448L12 17.3391L10.9692 16.448L10.7543 16.2623L10.4848 16.3517L9.19145 16.7804L8.58008 15.5627L8.45268 15.3089L8.1695 15.2883L6.81048 15.1895L6.71165 13.8305L6.69106 13.5473L6.43731 13.4199L5.21957 12.8085L5.64834 11.5152L5.73768 11.2457L5.552 11.0308L4.66091 10L5.552 8.96915L5.73768 8.75435L5.64834 8.48484L5.21957 7.19145L6.43731 6.58008L6.69106 6.45268L6.71165 6.1695L6.81048 4.81048L8.1695 4.71165L8.45268 4.69106L8.58008 4.43731L9.19145 3.21957L10.4848 3.64834L10.7543 3.73768L10.9692 3.552L12 2.66091L13.0308 3.552Z" stroke="var(--svg-icon-stroke, #333)" fill="none"/>
<circle cx="12" cy="10" r="5" stroke="var(--svg-icon-stroke_blue, #0094ff)" fill="none"/>
<path d="M12 7L12.9875 8.64085L14.8532 9.07295L13.5978 10.5191L13.7634 12.4271L12 11.68L10.2366 12.4271L10.4022 10.5191L9.14683 9.07295L11.0125 8.64085L12 7Z" stroke="var(--svg-icon-stroke_blue, #0094ff)" fill="none"/>
</svg>
