<svg width="24" height="24" viewBox="0 0 24 24" fill="none" xmlns="http://www.w3.org/2000/svg">
<path d="M17 5H20C20.5523 5 21 5.44772 21 6V20C21 20.5523 20.5523 21 20 21H4C3.44772 21 3 20.5523 3 20V6C3 5.44772 3.44772 5 4 5H7" stroke="var(--svg-icon-stroke, #333)" fill="none"/>
<path d="M12 20.5C12 19.6667 12.4 18 14 18C15.6 18 19.3333 18 21 18" stroke="var(--svg-icon-stroke, #333)" fill="none"/>
<path d="M12 20.5C12 19.6667 11.6 18 10 18C8.4 18 4.66667 18 3 18" stroke="var(--svg-icon-stroke, #333)" fill="none"/>
<path d="M11 13.3333V12H13V13.3333C12.9167 13.5556 12.6 14 12 14C11.4 14 11.0833 13.5556 11 13.3333Z" stroke="var(--svg-icon-stroke_blue, #0094ff)" fill="none"/>
<path d="M12 20V15.5" stroke="var(--svg-icon-stroke, #333)" fill="none"/>
<path d="M12 2C10.4 2 8 2.82583 8 6.40987C8 8.4409 9.36482 10.3477 10.5 11.5825C11.3082 12.4616 12 12.5 12 12.5C12 12.5 12.7019 12.4612 13.5176 11.5825C14.6493 10.3636 16 8.49056 16 6.49467C16 3.01763 13.6 2 12 2Z" stroke="var(--svg-icon-stroke_blue, #0094ff)" fill="none" stroke-linecap="round" stroke-linejoin="round"/>
<path d="M11 12V8.28571L10 7" stroke="var(--svg-icon-stroke_blue, #0094ff)" fill="none"/>
<path d="M13 12V8.28571L14 7" stroke="var(--svg-icon-stroke_blue, #0094ff)" fill="none"/>
<path d="M14 16H19" stroke="var(--svg-icon-stroke, #333)" fill="none"/>
<path d="M15 14H19" stroke="var(--svg-icon-stroke, #333)" fill="none"/>
<path d="M16 12L19 12" stroke="var(--svg-icon-stroke, #333)" fill="none"/>
<path d="M10 16H5" stroke="var(--svg-icon-stroke, #333)" fill="none"/>
<path d="M9 14H5" stroke="var(--svg-icon-stroke, #333)" fill="none"/>
<path d="M8 12L5 12" stroke="var(--svg-icon-stroke, #333)" fill="none"/>
</svg>
