<svg xmlns="http://www.w3.org/2000/svg" viewBox="0 0 21 20.35"><rect x="0.5" y="7.35" width="20" height="12.5" rx="1" stroke="var(--svg-icon-stroke, #333)" fill="none"/><path d="M14.5,2.35l2,2,4-4" fill="var(--svg-icon-fill_blue, #0094ff)" stroke="none"/><path d="M5.67,14.53a.76.76,0,0,0,0-.27A.48.48,0,0,0,5.46,14a1.17,1.17,0,0,0-.34-.2,3.74,3.74,0,0,0-.56-.21c-.25-.08-.5-.17-.73-.27a3.53,3.53,0,0,1-.6-.36,1.65,1.65,0,0,1-.41-.47,1.3,1.3,0,0,1-.15-.63,1.34,1.34,0,0,1,.16-.63,1.44,1.44,0,0,1,.43-.49,2.25,2.25,0,0,1,.66-.32,3.11,3.11,0,0,1,.84-.11,2.65,2.65,0,0,1,1.09.22,1.73,1.73,0,0,1,.72.61,1.56,1.56,0,0,1,.25.88H5.67a.88.88,0,0,0-.1-.43.73.73,0,0,0-.31-.29,1.14,1.14,0,0,0-.52-.11,1.06,1.06,0,0,0-.5.1.53.53,0,0,0-.3.24.55.55,0,0,0-.11.33.59.59,0,0,0,.07.26,1.12,1.12,0,0,0,.22.21,1.9,1.9,0,0,0,.35.19l.49.17a4.61,4.61,0,0,1,.8.31,2.22,2.22,0,0,1,.59.38,1.38,1.38,0,0,1,.36.48,1.62,1.62,0,0,1,0,1.27,1.38,1.38,0,0,1-.42.48,2,2,0,0,1-.64.3,3.12,3.12,0,0,1-.84.1A3.31,3.31,0,0,1,4,16a3.09,3.09,0,0,1-.74-.33,1.67,1.67,0,0,1-.52-.57,1.62,1.62,0,0,1-.2-.81H3.66a1,1,0,0,0,.09.44A.8.8,0,0,0,4,15a1.19,1.19,0,0,0,.36.16,2.16,2.16,0,0,0,.46,0,1.16,1.16,0,0,0,.49-.09.57.57,0,0,0,.29-.23A.56.56,0,0,0,5.67,14.53Z" fill="var(--svg-icon-fill_blue, #0094ff)" stroke="none"/><path d="M8.15,10.43h1l1.45,4.07L12,10.43h1L11,16h-.79Zm-.53,0h1l.17,4V16H7.62Zm4.94,0h1V16H12.38V14.4Z" fill="var(--svg-icon-fill_blue, #0094ff)" stroke="none"/><path d="M17.49,14.53a.76.76,0,0,0,0-.27.48.48,0,0,0-.16-.22,1.17,1.17,0,0,0-.34-.2,3.74,3.74,0,0,0-.56-.21,7.66,7.66,0,0,1-.72-.27,3.27,3.27,0,0,1-.61-.36,1.65,1.65,0,0,1-.41-.47,1.3,1.3,0,0,1-.14-.63,1.33,1.33,0,0,1,.15-.63,1.44,1.44,0,0,1,.43-.49,2.25,2.25,0,0,1,.66-.32,3.22,3.22,0,0,1,.84-.11,2.61,2.61,0,0,1,1.09.22,1.73,1.73,0,0,1,.72.61,1.57,1.57,0,0,1,.26.88H17.49a.88.88,0,0,0-.1-.43.73.73,0,0,0-.31-.29,1.14,1.14,0,0,0-.52-.11,1.06,1.06,0,0,0-.5.1.53.53,0,0,0-.3.24.54.54,0,0,0-.1.33.48.48,0,0,0,.07.26.83.83,0,0,0,.21.21,2.29,2.29,0,0,0,.35.19l.49.17a5.07,5.07,0,0,1,.81.31,2.33,2.33,0,0,1,.58.38,1.38,1.38,0,0,1,.36.48,1.62,1.62,0,0,1,0,1.27,1.38,1.38,0,0,1-.42.48,2,2,0,0,1-.64.3,3.12,3.12,0,0,1-.84.1,3.31,3.31,0,0,1-.83-.1,3.09,3.09,0,0,1-.74-.33,1.78,1.78,0,0,1-.52-.57,1.62,1.62,0,0,1-.2-.81h1.17a1,1,0,0,0,.08.44.73.73,0,0,0,.23.29,1.13,1.13,0,0,0,.35.16,2.16,2.16,0,0,0,.46,0,1.16,1.16,0,0,0,.49-.09.57.57,0,0,0,.29-.23A.56.56,0,0,0,17.49,14.53Z" fill="var(--svg-icon-fill_blue, #0094ff)" stroke="none"/></svg>