<svg xmlns="http://www.w3.org/2000/svg" viewBox="0 0 10.14 14"><path d="M5.36,12.23a5,5,0,0,1-4.71-3A7.36,7.36,0,0,1,0,6.13,7.29,7.29,0,0,1,.66,3,5.2,5.2,0,0,1,2.53.79,4.94,4.94,0,0,1,5.33,0,5.29,5.29,0,0,1,7.58.46a4.37,4.37,0,0,1,1.64,1.3A4,4,0,0,1,10,3.7H8.19A2.78,2.78,0,0,0,5.36,1.63a3.17,3.17,0,0,0-1.86.56A3.54,3.54,0,0,0,2.26,3.73a5.65,5.65,0,0,0-.44,2.34,6.07,6.07,0,0,0,.43,2.39A3.61,3.61,0,0,0,3.48,10a3.15,3.15,0,0,0,1.88.57,3.37,3.37,0,0,0,1.29-.25,2.55,2.55,0,0,0,1-.71,2.67,2.67,0,0,0,.57-1.11H10a4.25,4.25,0,0,1-.76,1.89,4.17,4.17,0,0,1-1.6,1.32A5,5,0,0,1,5.36,12.23Z" fill="var(--svg-icon-fill, #333)" stroke="none"/><rect y="12.87" width="10.14" height="1.13" fill="var(--svg-icon-fill_blue, #0094ff)" stroke="none"/></svg>