<svg xmlns="http://www.w3.org/2000/svg" viewBox="0 0 18 18"><path d="M17.38,7.56a8.39,8.39,0,0,1-.09,3.31,8.28,8.28,0,0,1-1.35,3,8.45,8.45,0,0,1-5.5,3.48,8.39,8.39,0,0,1-3.31-.09,8.28,8.28,0,0,1-3-1.35,8.45,8.45,0,0,1-3.48-5.5A8.39,8.39,0,0,1,.71,7.13a8.28,8.28,0,0,1,1.35-3A8.45,8.45,0,0,1,7.56.62a8.39,8.39,0,0,1,3.31.09,8.28,8.28,0,0,1,3,1.35,8.45,8.45,0,0,1,3.48,5.5Z" stroke="var(--svg-icon-stroke, #333)" fill="none"/><path d="M4.5,9l3.37,3.37L13.5,6.75" stroke="var(--svg-icon-stroke_blue, #0094ff)" fill="none"/></svg>