<svg width="25" height="24" viewBox="0 0 25 24" fill="none" xmlns="http://www.w3.org/2000/svg">
<path d="M2.08078 16.7468C2.34378 16.9349 3.10164 17.0816 3.4477 17.1314C3.34965 16.2341 3.56536 14.3966 5.21258 14.2256C6.85981 14.0547 7.11012 16.0204 7.02938 17.0246L12.2925 17.0246C12.2464 16.1486 12.5624 14.4051 14.1958 14.4393C15.8292 14.4735 16.1799 16.1771 16.151 17.0246C16.8778 16.9747 16.9287 16.8665 17.2748 16.8323C17.7073 16.7896 17.6381 16.7255 17.7766 16.2981C17.9128 15.8774 17.7472 15.3325 17.643 14.9895L17.6381 14.9735C17.5343 14.6316 17.4478 9.99518 17.4305 8.79868C17.4132 7.60219 17.344 6.29887 17.1017 5.61515C16.908 5.06818 16.029 5.07388 15.6137 5.1451C12.182 5.13085 10.534 5.14937 9.55121 5.3374C8.32271 5.57242 8.20159 5.72198 7.6306 6.04247C7.17381 6.29886 6.77123 6.71906 6.62704 6.89711L3.98871 10.4866C3.12934 10.8641 2.41299 11.6617 2.08078 11.8327C1.74857 12.0036 1.61937 13.0719 1.5963 13.5847V14.2256C1.55016 14.2969 1.42327 14.4607 1.28485 14.5461C1.11182 14.653 1.23294 15.4221 1.28485 15.8708C1.33676 16.3195 1.75203 16.5118 2.08078 16.7468Z" stroke="var(--svg-icon-stroke, #333)" fill="none"/>
<path d="M4.11353 10.2822H9.48853V5.50586" stroke="var(--svg-icon-stroke, #333)" fill="none"/>
<circle cx="5.25684" cy="16.3455" r="1.78589" stroke="var(--svg-icon-stroke, #333)" fill="none"/>
<circle cx="14.1399" cy="16.3455" r="1.78589" stroke="var(--svg-icon-stroke, #333)" fill="none"/>
<path d="M20.2422 9.41406L21.6564 11.1604L20.2422 12.9067" stroke="var(--svg-icon-stroke_blue, #0094ff)" fill="none"/>
<path d="M21.123 11.1523H16.2168" stroke="var(--svg-icon-stroke_blue, #0094ff)" fill="none"/>
<path d="M16.2385 17.0737C17.4736 17.0737 23.4095 17.0737 23.8519 17.0737C24.4049 17.0737 24.1008 15.8242 24.0178 15.616C23.9349 15.4077 23.8519 13.5934 23.8519 12.7257C23.8519 11.8579 23.769 6.33129 23.6031 5.77595C23.4703 5.33167 22.7367 5.04398 22.3864 5.12497H16.2385" stroke="var(--svg-icon-stroke_blue, #0094ff)" fill="none" stroke-dasharray="1 1"/>
</svg>
