<svg xmlns="http://www.w3.org/2000/svg" viewBox="0 0 13.34 16"><path d="M8.13,9.5H0V7.78H8.13A3.9,3.9,0,0,0,10,7.39a2.55,2.55,0,0,0,1.1-1.08,3.32,3.32,0,0,0,.36-1.56,3.25,3.25,0,0,0-.36-1.55A2.55,2.55,0,0,0,10,2.12a3.78,3.78,0,0,0-1.85-.4H4.47V16H2.53V0h5.6a6,6,0,0,1,2.93.65,4.15,4.15,0,0,1,1.72,1.73,5,5,0,0,1,.56,2.37,5,5,0,0,1-.56,2.38,4.19,4.19,0,0,1-1.72,1.72A6,6,0,0,1,8.13,9.5Z" fill="var(--svg-icon-fill, #333)" stroke="none"/><path d="M8,12.72V11H0v1.72Z" fill="var(--svg-icon-fill_blue, #0094ff)" stroke="none"/></svg>