<svg width="24" height="24" viewBox="0 0 24 24" fill="none" xmlns="http://www.w3.org/2000/svg">
<path fill-rule="evenodd" clip-rule="evenodd" d="M15.2662 11.7516C15.4169 11.6912 15.559 11.6239 15.6923 11.5495C16.3297 11.1978 16.7949 10.7436 17.0879 10.1868C17.3883 9.63004 17.5385 9.02198 17.5385 8.36264C17.5385 7.61538 17.4029 6.9707 17.1319 6.42857C16.8608 5.87912 16.4689 5.42491 15.956 5.06593C15.4432 4.70696 14.8169 4.43956 14.0769 4.26374C13.3443 4.08791 12.5128 4 11.5824 4H6V20H7.25275H9.2967H12.1209C13.359 20 14.4066 19.8242 15.2637 19.4725C16.1282 19.1209 16.7839 18.5971 17.2308 17.9011C17.6777 17.1978 17.9011 16.3333 17.9011 15.3077C17.9011 14.663 17.7619 14.0586 17.4835 13.4945C17.2125 12.9304 16.7766 12.4725 16.1758 12.1209C15.9107 11.9605 15.6074 11.8374 15.2662 11.7516Z" stroke="var(--svg-icon-stroke, #333)" fill="none"/>
<path d="M13.0769 10.4831C12.6886 10.637 12.1905 10.7139 11.5824 10.7139H9.29671V6.58203H11.5824C12.1978 6.58203 12.6996 6.65163 13.0879 6.79082C13.4835 6.93002 13.7729 7.15346 13.956 7.46115C14.1465 7.76884 14.2418 8.17177 14.2418 8.66994C14.2418 9.1095 14.1429 9.48313 13.9451 9.79082C13.7546 10.0912 13.4652 10.322 13.0769 10.4831Z" stroke="var(--svg-icon-stroke_blue, #0094ff)" fill="none"/>
<path d="M9.29671 17.4282V12.9776H12.2637C12.8278 12.9776 13.2821 13.0729 13.6264 13.2634C13.9707 13.4465 14.2198 13.7102 14.3736 14.0546C14.5348 14.3989 14.6154 14.8055 14.6154 15.2743C14.6154 15.6919 14.5275 16.0619 14.3517 16.3842C14.1758 16.7066 13.9048 16.963 13.5385 17.1535C13.1722 17.3366 12.6996 17.4282 12.1209 17.4282H9.29671Z" stroke="var(--svg-icon-stroke_blue, #0094ff)" fill="none"/>
</svg>
