<svg xmlns="http://www.w3.org/2000/svg" viewBox="0 0 19 17.5"><path d="M.5,5a1,1,0,0,1,1-1H7.36a.8.8,0,0,1,.27,0L10.87,5a.8.8,0,0,0,.27,0H16.5a2,2,0,0,1,2,2H.5Z" stroke="var(--svg-icon-stroke, #333)" fill="none"/><path d="M.5,7h18v9a1,1,0,0,1-1,1H1.5a1,1,0,0,1-1-1Z" stroke="var(--svg-icon-stroke, #333)" fill="none"/><path d="M11.5,11.5l-2,2-2-2" stroke="var(--svg-icon-stroke_blue, #0094ff)" fill="none" stroke-linecap="round" stroke-linejoin="round"/><path d="M9.54,13l0-13" stroke="var(--svg-icon-stroke_blue, #0094ff)" fill="none"/></svg>