<svg width="24" height="24" viewBox="0 0 24 24" fill="none" xmlns="http://www.w3.org/2000/svg">
<path d="M12 4.5C16.2485 4.5 19.4998 7.59503 19.5 11.7598C19.5 15.9247 16.2487 19.0205 12 19.0205C11.2351 19.0205 10.5034 18.919 9.81738 18.7305H9.81836C9.56461 18.66 9.29504 18.6809 9.05566 18.7861H9.05469L7.4668 19.4873C7.37602 19.5271 7.27373 19.4629 7.27051 19.3643L7.22754 17.9404C7.21894 17.6633 7.10919 17.4047 6.92773 17.207L6.8457 17.127C5.39507 15.8298 4.5 13.9499 4.5 11.7598C4.50017 7.59503 7.75146 4.5 12 4.5Z" stroke="var(--svg-icon-stroke, #333)" fill="none"/>
<path d="M13.3662 13.1143L11.4531 11.7236L11.3516 11.6621C11.1421 11.5567 10.8966 11.5613 10.6914 11.6729L10.5928 11.7373L8.74023 13.1719L10.6328 9.88477L12.5479 11.2764C12.8079 11.4654 13.1556 11.4584 13.4082 11.2627L15.2588 9.82715L13.3662 13.1143Z" fill="var(--svg-icon-fill_blue, #0094ff)" stroke="var(--svg-icon-stroke_blue, #0094ff)" />
</svg>
