<svg xmlns="http://www.w3.org/2000/svg" viewBox="0 0 16 15"><path d="M16,3H5" stroke="var(--svg-icon-stroke, #333)" fill="none"/><path d="M16,13H5" stroke="var(--svg-icon-stroke, #333)" fill="none"/><path d="M16,8H5" stroke="var(--svg-icon-stroke, #333)" fill="none"/><path d="M2,0V5H1V1.3L0,1.64V.76L1.91,0Z" fill="var(--svg-icon-fill_blue, #0094ff)" stroke="none"/><path d="M3,9.3V10H.09V9.4L1.43,8.07c.12-.13.21-.24.29-.34a1.58,1.58,0,0,0,.15-.28.5.5,0,0,0,0-.23.61.61,0,0,0,0-.28.38.38,0,0,0-.15-.18.49.49,0,0,0-.25-.06.44.44,0,0,0-.27.09A.48.48,0,0,0,1,7,.78.78,0,0,0,1,7.32H0a1.18,1.18,0,0,1,.19-.66,1.34,1.34,0,0,1,.52-.48A1.61,1.61,0,0,1,1.49,6a1.93,1.93,0,0,1,.77.14,1,1,0,0,1,.47.39,1.09,1.09,0,0,1,.16.61,1.34,1.34,0,0,1-.06.4,2.24,2.24,0,0,1-.2.37,2.69,2.69,0,0,1-.32.38l-.42.42-.54.59Z" fill="var(--svg-icon-fill_blue, #0094ff)" stroke="none"/><path d="M1,12.62h.46a.85.85,0,0,0,.3,0,.49.49,0,0,0,.17-.18A.53.53,0,0,0,2,12.13a.43.43,0,0,0-.06-.22.34.34,0,0,0-.16-.15.54.54,0,0,0-.27-.07.54.54,0,0,0-.22.05.57.57,0,0,0-.18.12.29.29,0,0,0-.07.2h-1a.88.88,0,0,1,.2-.57,1.19,1.19,0,0,1,.51-.36A1.73,1.73,0,0,1,1.46,11a2,2,0,0,1,.77.13,1.09,1.09,0,0,1,.51.37,1,1,0,0,1,.19.61.72.72,0,0,1-.1.38.91.91,0,0,1-.28.31,1.22,1.22,0,0,1-.41.21,1.79,1.79,0,0,1-.53.07H1Zm0,.68v-.45h.62a2.49,2.49,0,0,1,.57.06,1.48,1.48,0,0,1,.44.2.92.92,0,0,1,.28.31.88.88,0,0,1,.1.43,1,1,0,0,1-.12.49,1,1,0,0,1-.32.36,1.84,1.84,0,0,1-.49.23,2.37,2.37,0,0,1-.61.07,2.31,2.31,0,0,1-.52-.06,1.82,1.82,0,0,1-.47-.21,1,1,0,0,1-.34-.35A1,1,0,0,1,0,13.86H1a.37.37,0,0,0,.07.23.6.6,0,0,0,.19.16.63.63,0,0,0,.27.06.66.66,0,0,0,.3-.07A.52.52,0,0,0,2,14.07.48.48,0,0,0,2,13.83.57.57,0,0,0,2,13.52a.34.34,0,0,0-.2-.17.77.77,0,0,0-.32,0Z" fill="var(--svg-icon-fill_blue, #0094ff)" stroke="none"/></svg>