<svg width="24" height="24" viewBox="0 0 24 24" fill="none" xmlns="http://www.w3.org/2000/svg">
<path d="M12.1222 4L3 19H21L12.1222 4Z" stroke="var(--svg-icon-stroke, #333)" fill="none"/>
<path d="M12.6465 14.9121H11.2402L11.041 9H12.8457L12.6465 14.9121ZM11.9434 15.8379C12.2285 15.8379 12.457 15.9219 12.6289 16.0898C12.8047 16.2578 12.8926 16.4727 12.8926 16.7344C12.8926 16.9922 12.8047 17.2051 12.6289 17.373C12.457 17.541 12.2285 17.625 11.9434 17.625C11.6621 17.625 11.4336 17.541 11.2578 17.373C11.0859 17.2051 11 16.9922 11 16.7344C11 16.4766 11.0859 16.2637 11.2578 16.0957C11.4336 15.9238 11.6621 15.8379 11.9434 15.8379Z" fill="var(--svg-icon-fill_blue, #0094ff)" stroke="none"/>
</svg>
