<svg width="24" height="24" viewBox="0 0 24 24" fill="none" xmlns="http://www.w3.org/2000/svg">
<path d="M14.8499 18.999V9.24902H16.2972V10.7217H16.3987C16.5765 10.2393 16.8981 9.84782 17.3636 9.54736C17.8291 9.24691 18.3538 9.09668 18.9378 9.09668C19.0478 9.09668 19.1854 9.0988 19.3504 9.10303C19.5154 9.10726 19.6403 9.11361 19.7249 9.12207V10.6455C19.6741 10.6328 19.5578 10.6138 19.3758 10.5884C19.1981 10.5588 19.0097 10.5439 18.8109 10.5439C18.3369 10.5439 17.9137 10.6434 17.5413 10.8423C17.1732 11.0369 16.8812 11.3078 16.6653 11.6548C16.4538 11.9976 16.348 12.389 16.348 12.8291V18.999H14.8499Z" fill="var(--svg-icon-fill_blue, #0094ff)" stroke="none"/>
<path d="M4 19V6H8.54492C9.45052 6 10.1974 6.15658 10.7856 6.46973C11.3739 6.77865 11.8119 7.19548 12.0996 7.72022C12.3874 8.24072 12.5313 8.81836 12.5313 9.45313C12.5313 10.0117 12.4318 10.473 12.2329 10.8369C12.0383 11.2008 11.7801 11.4886 11.4585 11.7002C11.1411 11.9118 10.7962 12.0684 10.4238 12.1699V12.2969C10.8216 12.3223 11.2215 12.4619 11.6235 12.7158C12.0256 12.9697 12.362 13.3337 12.6328 13.8076C12.9036 14.2816 13.0391 14.8613 13.0391 15.5469C13.0391 16.1986 12.891 16.7847 12.5947 17.3052C12.2985 17.8257 11.8309 18.2383 11.1919 18.543C10.5529 18.8477 9.72136 19 8.69727 19H4ZM5.57422 17.6035H8.69727C9.72559 17.6035 10.4556 17.4046 10.8872 17.0068C11.3231 16.6048 11.541 16.1182 11.541 15.5469C11.541 15.1068 11.4289 14.7005 11.2046 14.3281C10.9803 13.9515 10.6608 13.651 10.2461 13.4268C9.83138 13.1982 9.3405 13.084 8.77344 13.084H5.57422V17.6035ZM5.57422 11.7129H8.49414C8.9681 11.7129 9.39551 11.6198 9.77637 11.4336C10.1615 11.2474 10.4661 10.985 10.6904 10.6465C10.9189 10.3079 11.0332 9.91016 11.0332 9.45313C11.0332 8.88184 10.8343 8.3973 10.4365 7.99951C10.0387 7.59749 9.4082 7.39648 8.54492 7.39648H5.57422V11.7129Z" fill="var(--svg-icon-fill, #333)" stroke="none"/>
</svg>
