<svg width="24" height="24" viewBox="0 0 24 24" fill="none" xmlns="http://www.w3.org/2000/svg">
<path d="M10.6129 9.26886L10.6166 9.27618C10.7108 9.46548 10.8211 9.80192 10.6374 10.1706L10.6319 10.1816L10.626 10.1922C10.6046 10.2302 10.5863 10.2655 10.5653 10.3058L10.1709 10.101L10.5653 10.3058L10.5614 10.3134C10.5067 10.4188 10.4385 10.5502 10.3116 10.6996C10.2761 10.7413 10.2382 10.7875 10.1966 10.8381L10.1875 10.8491C10.1056 10.9489 10.0031 11.0735 9.90972 11.1687C10.1058 11.4838 10.5563 12.1846 11.1875 12.7503L11.188 12.7508C11.9597 13.4443 12.619 13.7266 12.9552 13.8705L12.957 13.8713L12.9641 13.8743C13.0191 13.8979 13.0779 13.923 13.126 13.9462L13.1333 13.9497C13.3124 13.7509 13.7171 13.2677 13.8471 13.0633L13.852 13.0556L13.8521 13.0557C13.9889 12.8491 14.1881 12.6788 14.4708 12.6467C14.6866 12.6223 14.8885 12.6934 14.9934 12.7303C14.9974 12.7317 15.0014 12.7331 15.0051 12.7345L15.0058 12.7347C15.1314 12.7789 15.4062 12.9088 15.6721 13.0372C15.953 13.1729 16.2686 13.329 16.5015 13.4443L16.5025 13.4448C16.6395 13.5125 16.7453 13.5649 16.8011 13.5919L16.8119 13.5971L16.8224 13.6028C16.8814 13.6349 16.9364 13.6627 16.9922 13.6909L17.003 13.6964C17.0702 13.7303 17.1545 13.7729 17.2273 13.8191C17.3028 13.8671 17.419 13.9508 17.5014 14.0893C17.5493 14.1698 17.5701 14.2499 17.5803 14.2965C17.5921 14.3508 17.5989 14.4062 17.6029 14.4586C17.6108 14.5637 17.6091 14.6845 17.5984 14.8132C17.5768 15.0717 17.5166 15.3924 17.3985 15.7311L17.3969 15.7358L17.3969 15.7357C17.2303 16.1987 16.7983 16.5669 16.4298 16.8053C16.0541 17.0483 15.6019 17.2474 15.2589 17.2856M10.6129 9.26886L15.2036 16.7887M10.6129 9.26886L10.6114 9.26603C10.6115 9.26621 10.6116 9.26629 10.6116 9.26629C10.6117 9.26623 10.606 9.25418 10.5921 9.22155C10.5765 9.18503 10.556 9.13568 10.5312 9.0751C10.4818 8.95413 10.4183 8.79599 10.348 8.62093L10.3442 8.61155C10.1794 8.20084 9.97616 7.69466 9.84786 7.4067C9.73008 7.13689 9.57323 6.92341 9.35077 6.79523C9.14096 6.67434 8.93671 6.66995 8.83615 6.66983C8.66838 6.65909 8.49423 6.65909 8.33025 6.6591H8.32123C8.04068 6.6591 7.61664 6.76312 7.26722 7.14566L7.63639 7.48287L7.26761 7.14523C7.25503 7.15897 7.24068 7.17432 7.22266 7.1936C6.92736 7.50943 6.24361 8.24484 6.24361 9.62442C6.24361 10.3662 6.50823 11.0674 6.76761 11.5832C7.02946 12.1038 7.30792 12.478 7.3791 12.5734M10.6129 9.26886L7.3791 12.5734M15.2589 17.2856L15.2036 16.7887M15.2589 17.2856C15.2591 17.2856 15.2593 17.2856 15.2594 17.2856L15.2036 16.7887M15.2589 17.2856C15.225 17.2894 15.1905 17.2941 15.1488 17.2997L15.0823 16.8041C15.1232 16.7986 15.1633 16.7932 15.2036 16.7887M7.3791 12.5734C7.37852 12.5726 7.37841 12.5724 7.37867 12.5728C7.37886 12.5731 7.37926 12.5736 7.37984 12.5744C7.37959 12.5741 7.37935 12.5737 7.3791 12.5734ZM3.88371 16.9935L3.93832 16.7933L3.83508 16.6133C3.01441 15.182 2.58276 13.5609 2.58306 11.9111V11.911C2.58306 6.72247 6.78418 2.5 11.9336 2.5C14.436 2.5 16.7796 3.48025 18.5549 5.25668C19.4263 6.13108 20.1168 7.16869 20.5869 8.31018C21.057 9.45187 21.2974 10.6751 21.2943 11.9097V11.911C21.2943 17.1001 17.0937 21.3226 11.9438 21.3226C10.3784 21.3226 8.8418 20.9259 7.47211 20.1729L7.29656 20.0764L7.10294 20.1278L2.71083 21.2939L3.88371 16.9935Z" stroke="var(--svg-icon-stroke_blue, #0094ff)" fill="none"/>
</svg>
