<svg xmlns="http://www.w3.org/2000/svg" viewBox="0 0 19.21 19.21">
<path d="M10.21,3.37a7.85,7.85,0,0,0-8.14,3,7.77,7.77,0,0,0-1.56,5,7.68,7.68,0,0,0,6.58,7.29A7.85,7.85,0,0,0,16,10" stroke="var(--svg-icon-stroke, #333)" fill="none"/>
<path d="M12.57,9.47A4.65,4.65,0,0,1,7.5,15.62a4.65,4.65,0,0,1-.42-9.11,4.7,4.7,0,0,1,3.11.32" stroke="var(--svg-icon-stroke, #333)" fill="none"/>
<path d="M12.71,6.5,8,11.18" stroke="var(--svg-icon-stroke_blue, #0094ff)" fill="none"/>
<path d="M14.71.5,12.21,7l6.5-2.5h-4Z" stroke="var(--svg-icon-stroke_blue, #0094ff)" fill="none" stroke-linejoin="round"/>
</svg>
