<svg xmlns="http://www.w3.org/2000/svg" viewBox="0 0 17.16 18"><path d="M.5.87,11,6.93.5,13Z" stroke="var(--svg-icon-stroke_blue, var(--play-stroke_blue, #0094ff))" fill="var(--play-fill_blue, var(--play-fill_blue-active, none))"/><path d="M12.16,17.09V18h-4v-.78l1.91-2a5.75,5.75,0,0,0,.46-.57,2.18,2.18,0,0,0,.24-.44,1.06,1.06,0,0,0,.07-.38,1.08,1.08,0,0,0-.09-.46.64.64,0,0,0-.26-.3.79.79,0,0,0-.42-.1.81.81,0,0,0-.47.13.87.87,0,0,0-.29.36,1.42,1.42,0,0,0-.1.52H8a1.86,1.86,0,0,1,.25-1A1.93,1.93,0,0,1,9,12.26,2.22,2.22,0,0,1,10.05,12a2.49,2.49,0,0,1,1,.2,1.48,1.48,0,0,1,.65.58,1.7,1.7,0,0,1,.22.89,1.9,1.9,0,0,1-.09.58,2.53,2.53,0,0,1-.27.55,4.6,4.6,0,0,1-.41.55l-.54.58-1,1.16Z" fill="var(--svg-icon-fill, #333)" stroke="none"/><path d="M14.12,15.8l-1.36-1.37.84-.84L15,15l1.36-1.37.84.84L15.8,15.8l1.36,1.36-.84.84L15,16.64,13.6,18l-.84-.84Z" fill="var(--svg-icon-fill, #333)" stroke="none"/></svg>