<svg xmlns="http://www.w3.org/2000/svg" viewBox="0 0 20 20">
<path d="M11.37,1.85l.22.18.27-.09,1.71-.57L14.39,3l.12.26.29,0,1.8.13.14,1.8,0,.29.25.12,1.62.82-.57,1.72L18,8.42l.19.21L19.34,10l-1.18,1.37-.19.22.09.27.57,1.71L17,14.39l-.25.12,0,.29-.14,1.8-1.8.14-.29,0-.12.25-.82,1.62-1.71-.57L11.59,18l-.22.19L10,19.34,8.63,18.16,8.42,18l-.27.09-1.72.57L5.61,17l-.12-.25-.29,0L3.4,16.6l-.13-1.8,0-.29L3,14.39l-1.62-.82.57-1.71L2,11.59l-.18-.22L.66,10,1.85,8.63,2,8.42l-.09-.27L1.37,6.43,3,5.61l.26-.12,0-.29L3.4,3.4l1.8-.13.29,0L5.61,3l.82-1.62,1.72.57L8.42,2l.21-.18L10,.66Z" stroke="var(--svg-icon-stroke, #333)" fill="var(--limited-fill-off, none)"/>
<path d="M6.1,9.52,9,12.41l4.82-4.82" stroke="var(--limited-reverse, var(--svg-icon-stroke_blue, #4A8DC6))" fill="none" stroke-width="2"/>
</svg>