<svg width="24" height="24" viewBox="0 0 24 24" fill="none" xmlns="http://www.w3.org/2000/svg">
<path d="M22.5 6V19C22.5 19.2761 22.2761 19.5 22 19.5H12H2C1.72386 19.5 1.5 19.2761 1.5 19V6C1.5 5.72386 1.72386 5.5 2 5.5H12H22C22.2761 5.5 22.5 5.72386 22.5 6Z" stroke="var(--svg-icon-stroke, #333)" fill="none"/>
<path d="M12 19.3926C12 18.3805 12.4889 16.3562 14.4444 16.3562C16.4 16.3562 20.963 16.3562 23 16.3562" stroke="var(--svg-icon-stroke, #333)" fill="none"/>
<path d="M12 19.3926C12 18.3805 11.5111 16.3562 9.55556 16.3562C7.6 16.3562 3.03704 16.3562 1 16.3562" stroke="var(--svg-icon-stroke, #333)" fill="none"/>
<path d="M9.79999 13.0769H3.19999" stroke="var(--svg-icon-stroke_blue, #0094ff)" fill="none"/>
<path d="M20.8 13.0769H14.2" stroke="var(--svg-icon-stroke_blue, #0094ff)" fill="none"/>
<path d="M9.79999 10.7693H3.19999" stroke="var(--svg-icon-stroke_blue, #0094ff)" fill="none"/>
<path d="M20.8 10.7693H14.2" stroke="var(--svg-icon-stroke_blue, #0094ff)" fill="none"/>
<path d="M9.79999 8.46143H3.19999" stroke="var(--svg-icon-stroke_blue, #0094ff)" fill="none"/>
<path d="M20.8 8.46143H14.2" stroke="var(--svg-icon-stroke_blue, #0094ff)" fill="none"/>
</svg>
