<svg width="24" height="24" viewBox="0 0 24 24" fill="none" xmlns="http://www.w3.org/2000/svg">
<circle cx="10.6667" cy="11" r="6.5" stroke="var(--svg-icon-stroke, #333)" fill="none"/>
<path d="M15.3333 15.0835L20 18.0002" stroke="var(--svg-icon-stroke, #333)" fill="none"/>
<path d="M11.8818 9.82324L11.9609 10.0391L12.1768 10.1182L14.5586 11L12.1768 11.8818L11.9609 11.9609L11.8818 12.1768L11 14.5586L10.1182 12.1768L10.0391 11.9609L9.82324 11.8818L7.44043 11L9.82324 10.1182L10.0391 10.0391L10.1182 9.82324L11 7.44043L11.8818 9.82324Z" stroke="var(--svg-icon-stroke_blue, #0094ff)" fill="none"/>
<path d="M16.0713 19.6338L16.1514 19.8486L16.3662 19.9287L16.5586 20L16.3662 20.0713L16.1514 20.1514L16.0713 20.3662L16 20.5586L15.9287 20.3662L15.8486 20.1514L15.6338 20.0713L15.4404 20L15.6338 19.9287L15.8486 19.8486L15.9287 19.6338L16 19.4404L16.0713 19.6338Z" stroke="var(--svg-icon-stroke, #333)" fill="none"/>
</svg>
