<svg xmlns="http://www.w3.org/2000/svg" viewBox="0 0 12.65 20.4"><path d="M2.9,16.27a.37.37,0,0,1,.47.21.38.38,0,0,1-.22.47l-1.62.53a11.37,11.37,0,0,0,4.8,1A11.92,11.92,0,0,0,12,17.1a.36.36,0,0,1,.47.18.36.36,0,0,1-.19.47,12.64,12.64,0,0,1-5.91,1.48,12,12,0,0,1-5.11-1.11l.52,1.61a.37.37,0,0,1-.21.47H1.35A.35.35,0,0,1,1,20L.26,17.62a.35.35,0,0,1,0-.34.34.34,0,0,1,.14-.17l.11-.05ZM11.2.21a.38.38,0,0,1,.43.25l.77,2.33a.3.3,0,0,1,0,.21.51.51,0,0,1,0,.13.35.35,0,0,1-.3.21L9.79,4.1a.13.13,0,0,1-.11,0,.34.34,0,0,1-.32-.25.33.33,0,0,1,.21-.43l1.58-.52a11.37,11.37,0,0,0-4.82-1A11.91,11.91,0,0,0,.7,3.31a.21.21,0,0,1-.15,0,.35.35,0,0,1-.32-.22.36.36,0,0,1,.18-.47A12.56,12.56,0,0,1,6.33,1.18a12.15,12.15,0,0,1,5.19,1.14L11,.68A.38.38,0,0,1,11.2.21Z" fill="var(--svg-icon-fill_blue, #0094ff)" stroke="none"/><path d="M2.9,16.27l.06.19H3Zm.47.21.18-.07h0ZM3.15,17l.06.19h0Zm-1.62.53-.06-.19-.5.17.48.21Zm4.8,1v.2h0ZM12,17.1l-.08-.19h0Zm.47.18.18-.08h0Zm-.19.47-.07-.19h0ZM6.33,19.23v.2h0ZM1.22,18.12l.08-.18-.41-.18.14.42Zm.52,1.61-.19.06h0Zm-.21.47v.2H1.6ZM1,20l.2-.05h0ZM.26,17.62l.19-.06v0Zm0-.34L0,17.2H0Zm.14-.17.1.18h0Zm.11-.05-.06-.19h0ZM11.2.21l0-.2h0Zm.43.25L11.82.4h0Zm.77,2.33-.19.06v0l0,0Zm0,.21h0Zm0,.13L12.25,3h0Zm-.3.21,0-.2h0ZM9.79,4.1l-.06-.19-.05,0,0,0Zm-.11,0v.2h0Zm-.32-.25.19-.05h0v0Zm.21-.43-.06-.2h0Zm1.58-.52.07.19.5-.17-.49-.2Zm-4.82-1V1.7h0ZM.7,3.31.61,3.13l0,0,0,0Zm-.15,0v.2h0ZM.23,3.13,0,3.2h0Zm.18-.47.07.19h0ZM6.33,1.18V1h0Zm5.19,1.14-.08.19.41.18-.14-.43ZM11,.68l.19-.07h0ZM2.9,16.27l.07.18a.19.19,0,0,1,.21.11l.19-.08.18-.07a.57.57,0,0,0-.73-.33Zm.47.21-.19.08a.17.17,0,0,1-.1.21l.07.18.08.19a.57.57,0,0,0,.32-.73ZM3.15,17l-.06-.19-1.62.53.06.19.06.19,1.62-.53Zm-1.62.53-.08.19a11.74,11.74,0,0,0,4.88,1v-.4a11.17,11.17,0,0,1-4.72-1Zm4.8,1v.2A12.11,12.11,0,0,0,12,17.28L12,17.1l-.09-.18A11.69,11.69,0,0,1,6.33,18.3ZM12,17.1l.07.18a.16.16,0,0,1,.21.07l.19-.07.18-.08a.56.56,0,0,0-.73-.29Zm.47.18-.19.07a.16.16,0,0,1-.07.21l.07.19.08.18a.55.55,0,0,0,.29-.73Zm-.19.47-.08-.18A12.48,12.48,0,0,1,6.33,19v.4a12.87,12.87,0,0,0,6-1.5ZM6.33,19.23V19a12,12,0,0,1-5-1.09l-.08.18-.08.19a12.36,12.36,0,0,0,5.19,1.12ZM1.22,18.12,1,18.18l.52,1.61.19-.06.19-.06-.52-1.61Zm.52,1.61-.18.07a.18.18,0,0,1-.11.21l.08.19.07.19a.58.58,0,0,0,.33-.73Zm-.21.47V20H1.35v.4h.18Zm-.18,0V20a.14.14,0,0,1-.13-.1L1,20,.83,20a.55.55,0,0,0,.52.4ZM1,20l.19-.07L.45,17.56l-.19.06-.19.06L.83,20ZM.26,17.62l.17-.11a.18.18,0,0,1,0-.16l-.18-.07L0,17.2a.58.58,0,0,0,0,.53Zm0-.34.18.07a.12.12,0,0,1,.06-.06l-.1-.18-.09-.17A.51.51,0,0,0,0,17.2Zm.14-.17.12.17.05,0-.06-.19-.06-.19A.8.8,0,0,0,.26,17Zm.11-.05.06.19L3,16.46l-.06-.19-.06-.19-2.42.79ZM11.2.21l0,.19a.21.21,0,0,1,.21.13l.18-.07.19-.07A.6.6,0,0,0,11.16,0Zm.43.25-.19.06.77,2.33.19-.06.19-.07L11.82.4Zm.77,2.33-.17.1a.36.36,0,0,1,0,.1h.4a.49.49,0,0,0-.09-.33Zm0,.21h-.2V3l.18.09.17.09A.44.44,0,0,0,12.65,3Zm0,.13-.19-.07a.16.16,0,0,1-.13.08l0,.2v.2a.54.54,0,0,0,.47-.34Zm-.3.21-.06-.19-2.34.76.06.19.06.19,2.34-.76ZM9.79,4.1,9.65,4h0v.4a.36.36,0,0,0,.25-.09Zm-.11,0v-.2a.17.17,0,0,1-.13-.1l-.19.05-.2,0a.56.56,0,0,0,.52.4Zm-.32-.25.18-.08a.1.1,0,0,1,0-.09.17.17,0,0,1,.1-.08l-.08-.18L9.5,3.27A.54.54,0,0,0,9.17,4Zm.21-.43.07.19,1.58-.52-.07-.19-.06-.19-1.58.52Zm1.58-.52.08-.18A11.56,11.56,0,0,0,6.33,1.7v.4a11.29,11.29,0,0,1,4.74,1Zm-4.82-1V1.7A12.13,12.13,0,0,0,.61,3.13l.09.18.09.18A11.68,11.68,0,0,1,6.33,2.1ZM.7,3.31.56,3.17s0,0,0,0,0,0,0,0h0v.4H.66a.38.38,0,0,0,.18-.09Zm-.15,0v-.2l-.08,0A.23.23,0,0,1,.41,3l-.18.09-.18.09a.59.59,0,0,0,.2.24.55.55,0,0,0,.3.09ZM.23,3.13l.18-.07a.16.16,0,0,1,.07-.21L.41,2.66.33,2.48A.55.55,0,0,0,0,3.2Zm.18-.47.09.18A12.42,12.42,0,0,1,6.33,1.38V1a12.76,12.76,0,0,0-6,1.5ZM6.33,1.18v.2a11.83,11.83,0,0,1,5.11,1.13l.08-.19.08-.18A12.35,12.35,0,0,0,6.33,1Zm5.19,1.14.19-.06L11.17.61,11,.68l-.19.06.54,1.64ZM11,.68,11.17.6a.17.17,0,0,1,.1-.21L11.2.21,11.12,0a.58.58,0,0,0-.32.73Z" fill="var(--svg-icon-fill_blue, #0094ff)" stroke="none"/><path d="M6.07,5.2l-4.87,8h9.6Z" stroke="var(--svg-icon-stroke, #333)" fill="none"/><path d="M6.34,11H5.59l-.1-3.15h1ZM6,11.51a.53.53,0,0,1,.37.14.48.48,0,0,1,0,.68.56.56,0,0,1-.74,0,.51.51,0,0,1,0-.68A.53.53,0,0,1,6,11.51Z" fill="var(--svg-icon-fill, #333)" stroke="none"/></svg>