<svg xmlns="http://www.w3.org/2000/svg" viewBox="0 0 14 18"><path d="M1.5,16.57l-1,.57V.5h13V17.14l-1-.57-.25-.15-.25.15-1.5.85L9,16.57l-.25-.15-.25.15L7,17.42l-1.5-.85-.25-.15L5,16.57l-1.5.85L2,16.57l-.25-.15Z" stroke="var(--svg-icon-stroke, #333)" fill="none"/><path d="M3,11h8" stroke="var(--svg-icon-stroke_blue, #0094ff)" fill="none"/><path d="M3,14h8" stroke="var(--svg-icon-stroke_blue, #0094ff)" fill="none"/><path d="M7.38,8.2H6.07V9H4.84V8.2H4v-1h.84V6.89H4v-1h.84V3H7.17a2.78,2.78,0,0,1,1.19.24,1.92,1.92,0,0,1,.79.7,1.87,1.87,0,0,1,.28,1,1.74,1.74,0,0,1-.6,1.4,2.54,2.54,0,0,1-1.68.52H6.07V7.2H7.38ZM6.07,5.88H7.14c.69,0,1-.3,1-.91a.92.92,0,0,0-.27-.69A.94.94,0,0,0,7.19,4H6.07Z" fill="var(--svg-icon-fill_blue, #0094ff)" stroke="none"/></svg>