<svg width="24" height="24" viewBox="0 0 24 24" fill="none" xmlns="http://www.w3.org/2000/svg">
<path d="M7.58997 13.9466H6.8652V10.9699L6 11.2558V10.6279L7.51223 10.0508H7.58997V13.9466Z" fill="var(--svg-icon-fill_blue, #0094ff)" stroke="none"/>
<path d="M11.2364 12.338C11.2364 12.876 11.1319 13.2875 10.9229 13.5725C10.7139 13.8575 10.4079 14 10.005 14C9.60711 14 9.30282 13.8602 9.09216 13.5805C8.8815 13.3008 8.77367 12.9 8.76865 12.3781V11.662C8.76865 11.1187 8.87398 10.7063 9.08464 10.4248C9.29697 10.1434 9.60209 10.0027 10 10.0027C10.3979 10.0027 10.7022 10.1425 10.9129 10.4222C11.1235 10.7001 11.2313 11.1 11.2364 11.6219V12.338ZM10.5116 11.5524C10.5116 11.23 10.4698 10.9958 10.3862 10.8497C10.3043 10.7018 10.1755 10.6279 10 10.6279C9.82947 10.6279 9.70324 10.6983 9.62132 10.839C9.54107 10.978 9.49843 11.1962 9.49342 11.4937V12.4395C9.49342 12.7566 9.53354 12.9927 9.61379 13.1476C9.69572 13.3008 9.82612 13.3774 10.005 13.3774C10.1822 13.3774 10.3101 13.3035 10.3887 13.1556C10.4673 13.0078 10.5083 12.7816 10.5116 12.477V11.5524Z" fill="var(--svg-icon-fill_blue, #0094ff)" stroke="none"/>
<path d="M14.1856 12.338C14.1856 12.876 14.0811 13.2875 13.8721 13.5725C13.6631 13.8575 13.3572 14 12.9542 14C12.5563 14 12.252 13.8602 12.0414 13.5805C11.8307 13.3008 11.7229 12.9 11.7179 12.3781V11.662C11.7179 11.1187 11.8232 10.7063 12.0339 10.4248C12.2462 10.1434 12.5513 10.0027 12.9492 10.0027C13.3471 10.0027 13.6514 10.1425 13.8621 10.4222C14.0727 10.7001 14.1806 11.1 14.1856 11.6219V12.338ZM13.4608 11.5524C13.4608 11.23 13.419 10.9958 13.3354 10.8497C13.2535 10.7018 13.1248 10.6279 12.9492 10.6279C12.7787 10.6279 12.6525 10.6983 12.5705 10.839C12.4903 10.978 12.4476 11.1962 12.4426 11.4937V12.4395C12.4426 12.7566 12.4828 12.9927 12.563 13.1476C12.6449 13.3008 12.7753 13.3774 12.9542 13.3774C13.1315 13.3774 13.2594 13.3035 13.3379 13.1556C13.4165 13.0078 13.4575 12.7816 13.4608 12.477V11.5524Z" fill="var(--svg-icon-fill_blue, #0094ff)" stroke="none"/>
<path d="M14.6671 10.8043C14.6671 10.5656 14.7398 10.3723 14.8853 10.2244C15.0307 10.0748 15.2213 10 15.4571 10C15.6961 10 15.8884 10.0739 16.0339 10.2218C16.1793 10.3678 16.252 10.5665 16.252 10.8176V11.01C16.252 11.2505 16.1793 11.4438 16.0339 11.5898C15.8884 11.7359 15.6978 11.809 15.4621 11.809C15.2247 11.809 15.0324 11.7359 14.8853 11.5898C14.7398 11.442 14.6671 11.2434 14.6671 10.994V10.8043ZM15.1486 11.01C15.1486 11.1169 15.177 11.2033 15.2339 11.2692C15.2924 11.3333 15.3684 11.3654 15.4621 11.3654C15.5557 11.3654 15.6301 11.3324 15.6853 11.2665C15.7404 11.2006 15.768 11.1124 15.768 11.002V10.8043C15.768 10.6974 15.7404 10.611 15.6853 10.5451C15.6301 10.4792 15.554 10.4462 15.4571 10.4462C15.3651 10.4462 15.2907 10.4792 15.2339 10.5451C15.177 10.6092 15.1486 10.6992 15.1486 10.815V11.01ZM16.4125 12.9927C16.4125 12.7522 16.4861 12.5589 16.6332 12.4128C16.7804 12.265 16.971 12.191 17.205 12.191C17.4424 12.191 17.6339 12.2641 17.7793 12.4102C17.9264 12.5544 18 12.754 18 13.0087V13.2011C18 13.4398 17.9281 13.633 17.7843 13.7809C17.6405 13.927 17.4491 14 17.21 14C16.9693 14 16.7762 13.9261 16.6307 13.7782C16.4853 13.6304 16.4125 13.4344 16.4125 13.1904V12.9927ZM16.894 13.2011C16.894 13.299 16.9241 13.3828 16.9843 13.4522C17.0445 13.5217 17.1197 13.5564 17.21 13.5564C17.414 13.5564 17.516 13.4362 17.516 13.1957V12.9927C17.516 12.8858 17.4876 12.8003 17.4307 12.7361C17.3739 12.6702 17.2986 12.6373 17.205 12.6373C17.1114 12.6373 17.0362 12.6702 16.9793 12.7361C16.9225 12.8003 16.894 12.8884 16.894 13.0007V13.2011ZM15.605 13.6553L15.2514 13.4522L17.0345 10.4115L17.3881 10.6146L15.605 13.6553Z" fill="var(--svg-icon-fill_blue, #0094ff)" stroke="none"/>
<path d="M12 2L13.6973 3.46717L15.8268 2.7612L16.8335 4.76621L19.0711 4.92893L19.2338 7.16654L21.2388 8.17317L20.5328 10.3027L22 12L20.5328 13.6973L21.2388 15.8268L19.2338 16.8335L19.0711 19.0711L16.8335 19.2338L15.8268 21.2388L13.6973 20.5328L12 22L10.3027 20.5328L8.17317 21.2388L7.16654 19.2338L4.92893 19.0711L4.76621 16.8335L2.7612 15.8268L3.46717 13.6973L2 12L3.46717 10.3027L2.7612 8.17317L4.76621 7.16654L4.92893 4.92893L7.16654 4.76621L8.17317 2.7612L10.3027 3.46717L12 2Z" stroke="var(--svg-icon-stroke, #333)" fill="none"/>
</svg>
