<svg xmlns="http://www.w3.org/2000/svg" viewBox="0 0 15.72 13"><path d="M10.85,13V3.25H12.3V4.72h.1a2.37,2.37,0,0,1,1-1.17,2.86,2.86,0,0,1,1.58-.45h.41l.37,0V4.65a1.63,1.63,0,0,0-.34-.06,3.45,3.45,0,0,0-.57,0,2.65,2.65,0,0,0-1.27.3,2.27,2.27,0,0,0-.87.81,2.16,2.16,0,0,0-.32,1.18V13Z" fill="var(--svg-icon-fill_blue, #0094ff)" stroke="none"/><path d="M0,13V0H4.54A4.81,4.81,0,0,1,6.79.47,3.17,3.17,0,0,1,8.1,1.72a3.5,3.5,0,0,1,.43,1.73,2.89,2.89,0,0,1-.3,1.39,2.29,2.29,0,0,1-.77.86,3.5,3.5,0,0,1-1,.47V6.3a2.42,2.42,0,0,1,1.2.42,2.89,2.89,0,0,1,1,1.09A3.45,3.45,0,0,1,9,9.55a3.49,3.49,0,0,1-.45,1.76,3,3,0,0,1-1.4,1.23A5.74,5.74,0,0,1,4.7,13Zm1.57-1.4H4.7A3.24,3.24,0,0,0,6.89,11a1.94,1.94,0,0,0,.65-1.46A2.27,2.27,0,0,0,7.2,8.33a2.36,2.36,0,0,0-1-.9,3,3,0,0,0-1.48-.35H1.57Zm0-5.89H4.49a2.84,2.84,0,0,0,1.29-.28,2.24,2.24,0,0,0,.91-.78A2.09,2.09,0,0,0,7,3.45,2,2,0,0,0,6.44,2a2.59,2.59,0,0,0-1.9-.6h-3Z" fill="var(--svg-icon-fill, #333)" stroke="none"/></svg>