<svg width="24" height="24" viewBox="0 0 24 24" fill="none" xmlns="http://www.w3.org/2000/svg">
<path d="M6.50193 19.5659L5.5 20.1384V3.5H18.5V20.1384L17.4981 19.5659L17.25 19.4241L17.0019 19.5659L15.5 20.4241L13.9981 19.5659L13.75 19.4241L13.5019 19.5659L12 20.4241L10.4981 19.5659L10.25 19.4241L10.0019 19.5659L8.5 20.4241L6.99807 19.5659L6.75 19.4241L6.50193 19.5659Z" stroke="var(--svg-icon-stroke, #333)" fill="none"/>
<path d="M8 14H16" stroke="var(--svg-icon-stroke_blue, #0094ff)" fill="none"/>
<path d="M8 17H16" stroke="var(--svg-icon-stroke_blue, #0094ff)" fill="none"/>
<path d="M12.3832 11.2005H11.0728V12H9.83654V11.2005H9V10.1992H9.83654V9.88599H9V8.88462H9.83654V6H12.169C12.6195 6 13.0151 6.08104 13.3558 6.24313C13.6964 6.40522 13.9602 6.63736 14.147 6.93956C14.3365 7.23901 14.4313 7.58104 14.4313 7.96566C14.4313 8.55907 14.2294 9.02747 13.8256 9.37088C13.4245 9.71429 12.8654 9.88599 12.1484 9.88599H11.0728V10.1992H12.3832V11.2005ZM11.0728 8.88462H12.1401C12.8324 8.88462 13.1786 8.58104 13.1786 7.9739C13.1786 7.68544 13.0907 7.4533 12.9148 7.27747C12.739 7.0989 12.4959 7.00824 12.1854 7.00549H11.0728V8.88462Z" fill="var(--svg-icon-fill_blue, #0094ff)" stroke="none"/>
</svg>
