<svg xmlns="http://www.w3.org/2000/svg" viewBox="0 0 18 16.5"><rect x="0.5" y="2" width="17" height="14" stroke="var(--svg-icon-stroke, #333)" fill="none"/><path d="M.5,5.5h17" stroke="var(--svg-icon-stroke, #333)" fill="none"/><path d="M4,0V4" stroke="var(--svg-icon-stroke, #333)" fill="none"/><path d="M14,0V4" stroke="var(--svg-icon-stroke, #333)" fill="none"/><path d="M8.77,12.6v.83H5.11v-.71l1.73-1.85a6,6,0,0,0,.41-.52,2,2,0,0,0,.22-.4,1.09,1.09,0,0,0,.07-.34.86.86,0,0,0-.09-.41.56.56,0,0,0-.23-.27.69.69,0,0,0-.39-.1A.74.74,0,0,0,6.41,9a.82.82,0,0,0-.26.32,1.21,1.21,0,0,0-.09.48H5a1.78,1.78,0,0,1,.23-.88,1.68,1.68,0,0,1,.64-.63,2,2,0,0,1,1-.24,2.19,2.19,0,0,1,.94.18,1.27,1.27,0,0,1,.59.53,1.46,1.46,0,0,1,.2.8,1.82,1.82,0,0,1-.08.52,2.85,2.85,0,0,1-.24.5,4.13,4.13,0,0,1-.38.5c-.15.17-.31.35-.49.53l-.93,1Z" fill="var(--svg-icon-fill_blue, #0094ff)" stroke="none"/><path d="M10.42,11l-.84-.2.3-2.71h3v.85H10.75l-.13,1.19a1.48,1.48,0,0,1,.32-.13,1.53,1.53,0,0,1,.49-.08,1.67,1.67,0,0,1,.69.13,1.3,1.3,0,0,1,.51.35A1.47,1.47,0,0,1,13,11a2.29,2.29,0,0,1,.11.76,1.94,1.94,0,0,1-.11.68,1.59,1.59,0,0,1-.89,1,2.16,2.16,0,0,1-.8.14,2.13,2.13,0,0,1-.67-.1,1.8,1.8,0,0,1-.58-.31,1.63,1.63,0,0,1-.41-.49,1.4,1.4,0,0,1-.15-.66H10.5a1,1,0,0,0,.11.4.88.88,0,0,0,.26.25.92.92,0,0,0,.38.08.75.75,0,0,0,.35-.07.8.8,0,0,0,.23-.22,1,1,0,0,0,.13-.32,1.75,1.75,0,0,0,0-.4,1.25,1.25,0,0,0-.05-.4.79.79,0,0,0-.16-.3.68.68,0,0,0-.27-.2.89.89,0,0,0-.38-.07,1,1,0,0,0-.45.09A1,1,0,0,0,10.42,11Z" fill="var(--svg-icon-fill_blue, #0094ff)" stroke="none"/></svg>