<svg xmlns="http://www.w3.org/2000/svg" viewBox="0 0 20.32 21"><path d="M9.58,18.53c6.53,0,8.74-6,9-9H.55C.84,12.51,3,18.53,9.58,18.53Z" stroke="var(--svg-icon-stroke, #333)" fill="none"/><path d="M18.58,11.5a3,3,0,0,1-3,5.15" stroke="var(--svg-icon-stroke, #333)" fill="none"/><path d="M.6,20.5h18" stroke="var(--svg-icon-stroke, #333)" fill="none" stroke-linecap="round"/><path d="M11.6,7.5a5.31,5.31,0,0,0,0-7" stroke="var(--svg-icon-stroke, #333)" fill="none" stroke-linecap="round"/><path d="M9.06,7.5c1-2.5.5-4-.5-6" stroke="var(--svg-icon-stroke, #333)" fill="none" stroke-linecap="round"/><path d="M6.18,7.5a3.19,3.19,0,0,0,0-3" stroke="var(--svg-icon-stroke, #333)" fill="none" stroke-linecap="round"/><path d="M11.59,16.56a5.75,5.75,0,0,0,.65-2.32H13A3,3,0,0,1,11.59,16.56ZM7.07,14.24h.84a5,5,0,0,0,.83,2.45A3,3,0,0,1,7.07,14.24Zm1.55-2.87a5.73,5.73,0,0,0-.7,2.39H7.07A3,3,0,0,1,8.62,11.37ZM13,13.76h-.79a5,5,0,0,0-.85-2.43A3,3,0,0,1,13,13.76Zm-2.74.48h1.47a5.42,5.42,0,0,1-.92,2.64,2.54,2.54,0,0,1-.55.1Zm-.48-.48H8.39a5.62,5.62,0,0,1,1-2.67A3.4,3.4,0,0,1,9.81,11Zm.78-2.7a4.82,4.82,0,0,1,1.17,2.7H10.29V11ZM9.53,16.94a4.69,4.69,0,0,1-1.14-2.7H9.81V17Zm.52-6.44a3.5,3.5,0,1,0,3.5,3.5A3.5,3.5,0,0,0,10.05,10.5Z" fill="var(--svg-icon-fill_blue, #0094ff)" stroke="none"/></svg>