<svg xmlns="http://www.w3.org/2000/svg" viewBox="0 0 14.5 20.5"><rect x="3" y="3" width="11" height="17" rx="0.5" stroke="var(--svg-icon-stroke, #333)" fill="none"/><path d="M3,18.5H1.5a1,1,0,0,1-1-1V1.5a1,1,0,0,1,1-1h10a1,1,0,0,1,1,1V3" stroke="var(--svg-icon-stroke, #333)" fill="none"/><path d="M4.5,10.5l3,3" stroke="var(--svg-icon-stroke_blue, #0094ff)" fill="none"/><path d="M7.5,10.5l-3,3" stroke="var(--svg-icon-stroke_blue, #0094ff)" fill="none"/><path d="M4.5,6.5l1,1,2-2" stroke="var(--svg-icon-stroke_blue, #0094ff)" fill="none"/><path d="M4.5,16.5l1,1,2-2" stroke="var(--svg-icon-stroke_blue, #0094ff)" fill="none"/><path d="M9.5,6.5h3" stroke="var(--svg-icon-stroke_blue, #0094ff)" fill="none"/><path d="M9.5,11.5h3" stroke="var(--svg-icon-stroke_blue, #0094ff)" fill="none"/><path d="M9.5,16.5h3" stroke="var(--svg-icon-stroke_blue, #0094ff)" fill="none"/></svg>