<svg xmlns="http://www.w3.org/2000/svg" viewBox="0 0 9.23 16"><path d="M7.55,4.8a2,2,0,0,0-.91-1.48,3.52,3.52,0,0,0-2-.52,3.78,3.78,0,0,0-1.49.27,2.48,2.48,0,0,0-1,.76,1.84,1.84,0,0,0-.35,1.09,1.6,1.6,0,0,0,.24.89,2.16,2.16,0,0,0,.64.6,5.08,5.08,0,0,0,.81.4q.44.15.78.24l1.31.35q.5.13,1.11.36a5.85,5.85,0,0,1,1.18.63,3.29,3.29,0,0,1,.94,1,2.94,2.94,0,0,1,.37,1.51,3.4,3.4,0,0,1-.55,1.88,3.7,3.7,0,0,1-1.57,1.33,5.79,5.79,0,0,1-2.51.49,5.78,5.78,0,0,1-2.38-.44A3.78,3.78,0,0,1,.64,12.94,3.51,3.51,0,0,1,0,11.1H1.6a2,2,0,0,0,.49,1.2,2.63,2.63,0,0,0,1.09.7,4.36,4.36,0,0,0,1.42.22,4.21,4.21,0,0,0,1.59-.28,2.73,2.73,0,0,0,1.12-.82,1.88,1.88,0,0,0,.42-1.22,1.5,1.5,0,0,0-.36-1,2.76,2.76,0,0,0-.94-.65,12.14,12.14,0,0,0-1.25-.44L3.6,8.32A5.65,5.65,0,0,1,1.23,7.09,2.68,2.68,0,0,1,.35,5,3.11,3.11,0,0,1,.93,3.12,4,4,0,0,1,2.51,1.87a5.31,5.31,0,0,1,2.22-.45,5.18,5.18,0,0,1,2.2.45,3.81,3.81,0,0,1,1.52,1.2,3,3,0,0,1,.6,1.73Z" fill="var(--svg-icon-fill, #333)" stroke="none"/><rect x="4.1" width="1" height="16" fill="var(--svg-icon-fill_blue, #0094ff)" stroke="none"/></svg>