<svg xmlns="http://www.w3.org/2000/svg" viewBox="0 0 20.85 17.77"><circle cx="4.74" cy="15.65" r="1.62" fill="none" stroke="var(--svg-icon-stroke, #333)"/><circle cx="14.26" cy="15.65" r="1.62" fill="none" stroke="var(--svg-icon-stroke, #333)"/><path d="M6.32,15.65h6.36m3.17,0,2.65-.27V14.25a1,1,0,0,0-.68-.95l-2.43-.81-.13-.05-4-2a1,1,0,0,0-.45-.11H5.09a1,1,0,0,0-.63.22L2.23,12.36a1.17,1.17,0,0,1-.31.17l-.74.24a1,1,0,0,0-.68,1v1.93H3.15" fill="none" stroke="var(--svg-icon-stroke, #333)"/><path d="M12.5,4.35l2,2,6-6" stroke="var(--svg-icon-stroke_blue, #0094ff)" fill="none"/><rect x="11" y="0.85" width="7" height="7" stroke="var(--svg-icon-stroke_blue, #0094ff)" fill="none"/></svg>