<svg xmlns="http://www.w3.org/2000/svg" viewBox="0 0 16.6 18"><circle cx="7" cy="7" r="6.5" stroke="var(--svg-icon-stroke, #333)" fill="none"/><path d="M11.67,11.08,16.33,14" stroke="var(--svg-icon-stroke, #333)" fill="none"/><path d="M8.22,5.82,8.29,6l.22.08L10.89,7l-2.38.88L8.29,8l-.07.22-.89,2.38L6.45,8.18,6.37,8l-.21-.08L3.77,7l2.39-.88L6.37,6l.08-.22.88-2.38Z" stroke="var(--svg-icon-stroke_blue, #0094ff)" fill="none"/><path d="M12.4,15.63l.08.22.22.08.19.07-.19.07-.22.08-.08.22-.07.19-.07-.19-.08-.22L12,16.07l-.2-.07.2-.07.21-.08.08-.22.07-.19Z" stroke="var(--svg-icon-stroke, #333)" fill="none"/></svg>