<svg xmlns="http://www.w3.org/2000/svg" viewBox="0 0 14 17"><path d="M11.32,11.2v0Z" fill="var(--svg-valute-fill, var(--svg-icon-fill, #333))" stroke="none"/><path d="M11.32,7.26V5.88A6.06,6.06,0,0,0,9.67,1.73a5.5,5.5,0,0,0-8,0A6.07,6.07,0,0,0,0,5.91H2.54a3.33,3.33,0,0,1,.91-2.3,3,3,0,0,1,4.42,0,3.33,3.33,0,0,1,.92,2.26V17h2.53V7.26Z" fill="var(--svg-valute-fill, var(--svg-icon-fill, #333))" stroke="none"/><path d="M8.79,7.26H6.11V9.94H8.79" fill="var(--svg-valute-fill, var(--svg-icon-fill, #333))" stroke="none"/><path d="M14,7.26H11.32V9.94H14" fill="var(--svg-valute-fill, var(--svg-icon-fill, #333))" stroke="none"/><path d="M14,11H6v2.67h8" fill="var(--svg-icon-fill_blue, #0094ff)" stroke="none"/></svg>