<svg xmlns="http://www.w3.org/2000/svg" viewBox="0 0 24 16.72"><path d="M7.41,2.74a.18.18,0,0,1-.12,0,.29.29,0,0,1-.12-.56A10.22,10.22,0,0,1,12,1a10,10,0,0,1,4.24.93L15.8.59A.3.3,0,0,1,16,.21a.31.31,0,0,1,.35.2L17,2.31a.27.27,0,0,1,.05.18.36.36,0,0,1,0,.1.29.29,0,0,1-.25.17l-1.9.63a.11.11,0,0,1-.09,0,.29.29,0,0,1-.27-.21.28.28,0,0,1,.18-.35l1.29-.43A9.32,9.32,0,0,0,12,1.59,9.63,9.63,0,0,0,7.41,2.74ZM12,15.14A9.75,9.75,0,0,0,16.59,14a.3.3,0,0,1,.39.15.29.29,0,0,1-.15.38A10.34,10.34,0,0,1,12,15.73a9.93,9.93,0,0,1-4.17-.9l.43,1.31a.3.3,0,0,1-.18.38H7.94a.29.29,0,0,1-.27-.2l-.62-1.9a.31.31,0,0,1,0-.28A.33.33,0,0,1,7.14,14l.09,0,2-.65a.3.3,0,0,1,.21.56l-1.32.43A9.19,9.19,0,0,0,12,15.14Z" fill="var(--svg-icon-fill_blue, #0094ff)" stroke="none" fill-rule="evenodd"/><path d="M7.41,2.74l-.09-.18h0l0,0ZM7,2.59l-.18.08h0Zm.15-.38.07.18h0Zm9.07-.28-.08.19.41.18-.14-.43ZM15.8.59,16,.53v0ZM16,.21l0-.2h0Zm.35.2.19-.06h0ZM17,2.31l-.19.06v0Zm.05.18h0Zm0,.1L16.8,2.5h0Zm-.25.17v-.2h0Zm-1.9.63-.06-.19h0l0,0Zm-.36-.18.2,0h0Zm.18-.35-.06-.19h0Zm1.29-.43.06.19.5-.16L16,2.25ZM16.59,14l-.07-.19h0Zm.39.15.18-.08h0Zm-.15.38-.07-.19h0Zm-9,.31.08-.19-.41-.18.14.43Zm.43,1.31-.19.06h0Zm-.18.38v.2h.08Zm-.41-.2.19-.05h0Zm-.62-1.9.19-.07v0Zm0-.28-.18-.08h0ZM7.14,14l.1.18h0Zm.09,0-.06-.19h0Zm2-.65.06.19h0Zm.38.18-.18.07Zm-.17.38.06.19h0Zm-1.32.43L8,14.11l-.5.17.49.21ZM7.29,3h.09a.26.26,0,0,0,.17-.08L7.26,2.6l0,0h0Zm-.45-.29A.52.52,0,0,0,7,2.89.5.5,0,0,0,7.29,3v-.4h0a.19.19,0,0,1,0-.06ZM7.1,2a.49.49,0,0,0-.26.65l.37-.15a.11.11,0,0,1,0-.08.06.06,0,0,1,0,0ZM12,.8A10.45,10.45,0,0,0,7.08,2l.18.36A10.11,10.11,0,0,1,12,1.2Zm4.32,1A10.05,10.05,0,0,0,12,.8v.4a9.68,9.68,0,0,1,4.16.92ZM15.61.65,16.05,2l.38-.12L16,.53ZM15.9,0a.51.51,0,0,0-.29.64L16,.51a.18.18,0,0,1,0-.06.12.12,0,0,1,.06-.06Zm.62.32A.52.52,0,0,0,15.94,0L16,.4a.11.11,0,0,1,.12.09Zm.62,1.91L16.52.35l-.38.12.62,1.9Zm.06.25a.52.52,0,0,0-.08-.3l-.34.22a.08.08,0,0,1,0,.06Zm0,.18a.43.43,0,0,0,0-.19h-.4ZM16.75,3a.46.46,0,0,0,.41-.29l-.37-.15a.07.07,0,0,1-.07,0Zm-1.86.62L16.8,3l-.13-.38-1.9.63Zm-.15,0A.32.32,0,0,0,15,3.53l-.28-.28a0,0,0,0,1,0,0h0Zm-.46-.36a.48.48,0,0,0,.46.36v-.4s-.07,0-.07-.06Zm.3-.59a.48.48,0,0,0-.29.61l.37-.14a0,0,0,0,1,0-.05l.07,0Zm1.3-.43-1.29.43.12.38L16,2.62ZM12,1.79a9.14,9.14,0,0,1,3.86.83L16,2.25a9.55,9.55,0,0,0-4-.86ZM7.49,2.92A9.59,9.59,0,0,1,12,1.79v-.4A9.85,9.85,0,0,0,7.32,2.56Zm9,10.89A9.59,9.59,0,0,1,12,14.94v.4a9.85,9.85,0,0,0,4.68-1.17Zm.65.25a.49.49,0,0,0-.64-.26l.15.38a.08.08,0,0,1,.08,0s0,0,0,0Zm-.26.65a.49.49,0,0,0,.26-.65l-.37.15a.11.11,0,0,1,0,.08s0,0,0,0ZM12,15.93a10.57,10.57,0,0,0,4.92-1.23l-.18-.36A10.11,10.11,0,0,1,12,15.53ZM7.75,15a10.12,10.12,0,0,0,4.25.92v-.4a9.57,9.57,0,0,1-4.09-.89Zm.7,1.07L8,14.76l-.38.13.43,1.31Zm-.29.63a.52.52,0,0,0,.29-.64l-.38.14a.08.08,0,0,1,0,.07L8,16.34Zm-.22,0h.14v-.4H7.94Zm-.46-.36a.48.48,0,0,0,.46.36v-.4a.11.11,0,0,1-.08-.05Zm-.62-1.88.62,1.9.38-.13-.62-1.9Zm0-.42a.52.52,0,0,0,0,.47l.34-.22a.09.09,0,0,1,0-.1Zm.21-.23a.47.47,0,0,0-.21.23l.37.15s0,0,0,0Zm.12-.06L7,13.84l.23.33,0,0Zm2-.65-2,.65.12.38,2-.65Zm.63.29a.5.5,0,0,0-.64-.28l.15.37h.06a.17.17,0,0,1,.06.06Zm-.29.65a.51.51,0,0,0,.29-.65l-.37.15a.09.09,0,0,1,0,.07.09.09,0,0,1-.06.06Zm-1.33.43,1.32-.43-.12-.38L8,14.11Zm3.85.45a9.12,9.12,0,0,1-3.83-.82L8,14.49a9.53,9.53,0,0,0,4,.85Z" fill="var(--svg-icon-fill_blue, #0094ff)" stroke="none"/><circle cx="18" cy="10.2" r="1.5" stroke="var(--svg-icon-stroke, #333)" fill="none"/><path d="M24,10.2H19.5m-3,0L14,10v-1a1,1,0,0,1,.68-1l2.25-.75.13,0,3.73-1.86a1,1,0,0,1,.45-.11H24" stroke="var(--svg-icon-stroke, #333)" fill="none"/><circle cx="6" cy="10.2" r="1.5" stroke="var(--svg-icon-stroke, #333)" fill="none"/><path d="M0,10.2H4.5m3,0L10,10v-1a1,1,0,0,0-.68-1L7.07,7.22l-.13,0L3.21,5.31a1,1,0,0,0-.45-.11H0" stroke="var(--svg-icon-stroke, #333)" fill="none"/></svg>