<svg width="24" height="24" viewBox="0 0 24 24" fill="none" xmlns="http://www.w3.org/2000/svg">
<circle cx="16" cy="15" r="4.5" stroke="var(--svg-icon-stroke_blue, #0094ff)" fill="none"/>
<path fill-rule="evenodd" clip-rule="evenodd" d="M16.8282 10.0683C16.497 8.38223 15.7729 6.95667 15.0652 5.89053C16.9628 6.84453 18.3529 8.65196 18.7316 10.8114C19.2205 11.1309 19.65 11.5336 20 11.9995C19.9997 7.58145 16.4182 4 12 4C7.58164 4 4 7.58173 4 12C4 16.4184 7.58164 20.0001 12 20.0001C12.778 20.0001 13.5301 19.889 14.2412 19.6819C13.6891 19.4744 13.1834 19.172 12.744 18.7947C12.678 18.8019 12.6117 18.8082 12.5451 18.8134V18.6143C12.0919 18.1811 11.7201 17.6634 11.4549 17.0866V18.8134C11.238 18.7962 11.0247 18.7682 10.8139 18.7313C9.87951 17.6142 8.34391 15.3621 8.20298 12.5452H11.4549V12.9134C11.7201 12.3366 12.0919 11.8189 12.5451 11.3857V5.18667C12.7772 5.20502 13.0061 5.23467 13.2311 5.27569C13.9852 6.16064 15.1973 7.84939 15.6978 10.009C15.7978 10.003 15.8985 10 16 10C16.2821 10 16.5588 10.0234 16.8282 10.0683ZM7.11205 12.5452H5.1868C5.38231 15.018 6.89062 17.1155 9.01711 18.1491C8.12138 16.7866 7.21178 14.8517 7.11205 12.5452ZM7.12307 11.4549C7.25938 9.20396 8 7.32449 8.7268 5.99249C6.75222 7.07067 5.37307 9.09476 5.1868 11.4549H7.12307ZM8.21471 11.4549H11.4549V5.18667C11.0954 5.21511 10.7448 5.2724 10.403 5.35427C9.63676 6.46693 8.40351 8.66556 8.21471 11.4549Z" fill="var(--svg-icon-fill, #333)" stroke="none"/>
<path d="M13 15L19 15" stroke="var(--svg-icon-stroke_blue, #0094ff)" fill="none"/>
<path d="M16 12L19 15L16 18" stroke="var(--svg-icon-stroke_blue, #0094ff)" fill="none"/>
</svg>
