<svg width="24" height="24" viewBox="0 0 24 24" fill="none" xmlns="http://www.w3.org/2000/svg">
<circle r="1.5" transform="matrix(-1 0 0 1 16 14)" stroke="var(--svg-icon-stroke, #333)" fill="none"/>
<circle r="1.5" transform="matrix(-1 0 0 1 7 14)" stroke="var(--svg-icon-stroke, #333)" fill="none"/>
<path d="M14.5 14H8.5M5.5 14L3 13.75V12.7208C3 12.2903 3.27543 11.9082 3.68377 11.7721L5.93258 11.0225C5.97747 11.0075 6.02124 10.9894 6.06356 10.9682L9.78885 9.10557C9.92771 9.03614 10.0808 9 10.2361 9H14H15.6492C15.8763 9 16.0966 9.07728 16.2739 9.21913L18.3607 10.8886C18.4529 10.9623 18.5573 11.0191 18.6692 11.0564L19.3162 11.2721C19.7246 11.4082 20 11.7903 20 12.2208V14H17.5" stroke="var(--svg-icon-stroke, #333)" fill="none"/>
<path d="M6 6C6.82051 5 8.75692 3 11.9077 3C15.0585 3 17.3436 5 18 6" stroke="var(--svg-icon-stroke_blue, #0094ff)" fill="none"/>
<path d="M18 4V6H16" stroke="var(--svg-icon-stroke_blue, #0094ff)" fill="none"/>
<path d="M18 18C17.1795 19 15.2431 21 12.0923 21C8.94154 21 6.65641 19 6 18" stroke="var(--svg-icon-stroke_blue, #0094ff)" fill="none"/>
<path d="M6 20L6 18L8 18" stroke="var(--svg-icon-stroke_blue, #0094ff)" fill="none"/>
</svg>
