<svg xmlns="http://www.w3.org/2000/svg" viewBox="0 0 20.26 20.26"><path d="M16.76.5H9.69A1,1,0,0,0,9,.79L.79,9a1,1,0,0,0,0,1.41l7.07,7.07a1,1,0,0,0,1.42,0l8.19-8.19a1,1,0,0,0,.29-.71V1.5A1,1,0,0,0,16.76.5Z" stroke="var(--svg-icon-stroke, #333)" fill="none"/><circle cx="14.23" cy="4.04" r="1.5" stroke="var(--svg-icon-stroke_blue, #0094ff)" fill="none"/><path d="M2.09,11.69l7.77,7.78a1,1,0,0,0,1.42,0l8.19-8.19a1,1,0,0,0,.29-.71V3.5a1,1,0,0,0-1-1H17.64" stroke="var(--svg-icon-stroke, #333)" fill="none"/></svg>