<svg width="24" height="24" viewBox="0 0 24 24" fill="none" xmlns="http://www.w3.org/2000/svg">
<path d="M4.96296 17.9342L2 17.9342L2 19.1632L5.55556 19.7778L7.92593 17.9342L16 17.9264L18.3704 20.0005L21.9259 19.1555L21.9259 17.9264L18.963 17.9264L17.7778 16.006L18.963 14.0663L21.9259 14.0663L21.9259 12.8372L18.3704 12.2227L16 14.0741L7.92593 14.0741L5.55556 12L2 12.845L2 14.0741L4.96296 14.0741L6.14815 15.9945L4.96296 17.9342Z" stroke="var(--svg-icon-stroke, #333)" fill="none"/>
<path d="M8.04784 6.8283C8.19471 7.84857 8.67409 8.79686 9.41625 9.53521C10.1584 10.2736 11.1246 10.7634 12.1743 10.9335C13.2239 11.1037 14.3023 10.9452 15.2525 10.4811C16.2026 10.017 16.975 9.27163 17.4573 8.35332" stroke="var(--svg-icon-stroke_blue, #0094ff)" fill="none"/>
<path d="M16.8518 3.07469C16.1495 2.25337 15.1866 1.67951 14.1127 1.44225C13.0388 1.205 11.914 1.31762 10.913 1.76262C9.91208 2.20763 9.09094 2.96011 8.57718 3.9032C8.06341 4.84629 7.88578 5.92719 8.07187 6.97803" stroke="var(--svg-icon-stroke_blue, #0094ff)" fill="none" stroke-dasharray="1 1"/>
<path d="M15.3342 3.39502L17.2857 2.88891L16.7628 1.00006" stroke="var(--svg-icon-stroke_blue, #0094ff)" fill="none"/>
<path d="M13 3.90381V7.36062L15 8.74335" stroke="var(--svg-icon-stroke_blue, #0094ff)" fill="none"/>
</svg>
