<svg width="24" height="24" viewBox="0 0 24 24" fill="none" xmlns="http://www.w3.org/2000/svg">
<path d="M3 6C3 5.44772 3.44772 5 4 5H7.5H9.85995C9.95286 5 10.0453 5.01295 10.1347 5.03848L13.3653 5.96152C13.4547 5.98705 13.5471 6 13.6401 6H19C20.1046 6 21 6.89543 21 8V8H3V6Z" stroke="var(--svg-icon-stroke_blue, #0094ff)" fill="none"/>
<path d="M3 8H21V17C21 17.5523 20.5523 18 20 18H4C3.44772 18 3 17.5523 3 17V8Z" stroke="var(--svg-icon-stroke, #333)" fill="none"/>
<path fill-rule="evenodd" clip-rule="evenodd" d="M12.3616 10.3348C12.3616 10.1499 12.2117 10 12.0268 10C11.8419 10 11.692 10.1499 11.692 10.3348V12.6384L9.33482 12.6384C9.14991 12.6384 9 12.7883 9 12.9732C9 13.1581 9.14991 13.308 9.33482 13.308L11.692 13.308V15.6652C11.692 15.8501 11.8419 16 12.0268 16C12.2117 16 12.3616 15.8501 12.3616 15.6652V13.308L14.6652 13.308C14.8501 13.308 15 13.1581 15 12.9732C15 12.7883 14.8501 12.6384 14.6652 12.6384L12.3616 12.6384V10.3348Z" fill="var(--svg-icon-fill_blue, #0094ff)" stroke="none"/>
</svg>
