<svg xmlns="http://www.w3.org/2000/svg" viewBox="0 0 18 15.5"><rect x="8" y="12" width="2" height="3" stroke="var(--svg-icon-stroke, #333)" fill="none" stroke-linejoin="round"/><rect x="0.5" y="0.5" width="17" height="11" rx="0.5" stroke="var(--svg-icon-stroke, #333)" fill="none" stroke-linejoin="round"/><path d="M9,4V9A4.5,4.5,0,0,0,6,8,4.5,4.5,0,0,0,3,9V3.84A5,5,0,0,1,6,3,4.5,4.5,0,0,1,9,4Z" stroke="var(--svg-icon-stroke_blue, #0094ff)" fill="none" stroke-linejoin="round"/><path d="M15,4V9a4.5,4.5,0,0,0-3-1A4.5,4.5,0,0,0,9,9V3.84A5,5,0,0,1,12,3,4.5,4.5,0,0,1,15,4Z" stroke="var(--svg-icon-stroke_blue, #0094ff)" fill="none" stroke-linejoin="round"/><path d="M4,5.16A4.15,4.15,0,0,1,6,4.5,5,5,0,0,1,8,5" stroke="var(--svg-icon-stroke_blue, #0094ff)" fill="none" stroke-linejoin="round"/><path d="M4,6.66A4.15,4.15,0,0,1,6,6a5,5,0,0,1,2,.5" stroke="var(--svg-icon-stroke_blue, #0094ff)" fill="none" stroke-linejoin="round"/><path d="M10,5.16a4.15,4.15,0,0,1,2-.66A5,5,0,0,1,14,5" stroke="var(--svg-icon-stroke_blue, #0094ff)" fill="none" stroke-linejoin="round"/><path d="M10,6.66A4.15,4.15,0,0,1,12,6a5,5,0,0,1,2,.5" stroke="var(--svg-icon-stroke_blue, #0094ff)" fill="none" stroke-linejoin="round"/></svg>