<svg width="24" height="24" viewBox="0 0 24 24" fill="none" xmlns="http://www.w3.org/2000/svg">
<path d="M6 14H18" stroke="var(--svg-icon-stroke_blue, #0094ff)" fill="none"/>
<path d="M6 16H18" stroke="var(--svg-icon-stroke_blue, #0094ff)" fill="none"/>
<path d="M20.5 5.5L20.5 18.5L3.5 18.5L3.5 5.5L20.5 5.5Z" stroke="var(--svg-icon-stroke, #333)" fill="none"/>
<circle cx="9.58825" cy="11.2354" r="0.794118" stroke="var(--svg-icon-stroke_blue, #0094ff)" fill="none"/>
<circle cx="15.4118" cy="11.2354" r="0.794118" stroke="var(--svg-icon-stroke_blue, #0094ff)" fill="none"/>
<path d="M10.5588 11.2353H14.4412M16.3824 11.2353L18 11.0735V10.6619C18 10.2315 17.7246 9.84937 17.3162 9.71325L16.1262 9.31659C16.0814 9.30163 16.0376 9.2835 15.9953 9.26234L13.6817 8.10557C13.5429 8.03615 13.3898 8 13.2345 8H10.8824H9.93902C9.71195 8 9.49163 8.07728 9.31432 8.21913L8.10986 9.1827C8.01774 9.2564 7.91331 9.31321 7.80139 9.35052L7.68377 9.38972C7.27543 9.52584 7 9.90798 7 10.3384V11.2353H8.61765" stroke="var(--svg-icon-stroke_blue, #0094ff)" fill="none"/>
</svg>
