<svg xmlns="http://www.w3.org/2000/svg" viewBox="0 0 14.33 21"><path d="M6,4.5H9v1a5.13,5.13,0,0,1,1,.41l.68-.68L12.8,7.32,12.12,8a5.13,5.13,0,0,1,.41,1h1v3h-1a5.13,5.13,0,0,1-.41,1l.68.68L10.68,15.8,10,15.12a5.13,5.13,0,0,1-1,.41v1H6v-1a5.13,5.13,0,0,1-1-.41l-.68.68L2.2,13.68,2.88,13a5.13,5.13,0,0,1-.41-1h-1V9h1a5.13,5.13,0,0,1,.41-1L2.2,7.32,4.32,5.2,5,5.88a5.13,5.13,0,0,1,1-.41Z" stroke="var(--svg-icon-stroke, #333)" fill="none"/><circle cx="7.5" cy="10.5" r="3" stroke="var(--svg-icon-stroke, #333)" fill="none"/><path d="M.5,3.83A8.49,8.49,0,0,1,7.06.5a8.66,8.66,0,0,1,6.77,3.33" stroke="var(--svg-icon-stroke_blue, #0094ff)" fill="none"/><path d="M13.83,1.61V3.83H11.61" stroke="var(--svg-icon-stroke_blue, #0094ff)" fill="none"/><path d="M13.83,17.17A8.49,8.49,0,0,1,7.27,20.5,8.66,8.66,0,0,1,.5,17.17" stroke="var(--svg-icon-stroke_blue, #0094ff)" fill="none"/><path d="M.5,19.39V17.17H2.72" stroke="var(--svg-icon-stroke_blue, #0094ff)" fill="none"/></svg>