<svg width="24" height="24" viewBox="0 0 24 24" fill="none" xmlns="http://www.w3.org/2000/svg">
<path d="M13.8858 4.87505C12.6621 4.57754 11.3732 4.58027 10.1313 4.89395C8.37986 5.3363 6.83017 6.36964 5.74626 7.81792C4.66234 9.2662 4.11126 11.0398 4.18691 12.8365C4.26256 14.6332 4.96027 16.3419 6.16114 17.6714C7.36202 19.0009 8.99176 19.8689 10.7727 20.1276C12.5536 20.3863 14.3755 20.0197 15.928 19.0901C17.4805 18.1606 18.6675 16.7257 19.2867 15.0299C19.7023 13.8918 19.8449 12.6834 19.7138 11.5001" stroke="var(--svg-icon-stroke, #333)" fill="none" />
<path d="M16.2528 10.968C16.6129 11.9809 16.6106 13.0872 16.2464 14.0985C15.8821 15.1099 15.1785 15.9636 14.2554 16.5143C13.3323 17.065 12.2467 17.2786 11.1838 17.1187C10.1208 16.9588 9.14623 16.4352 8.42601 15.6373C7.70579 14.8393 7.28453 13.8163 7.234 12.7426C7.18348 11.6689 7.50682 10.6109 8.14893 9.74882C8.79104 8.88676 9.71219 8.27402 10.7554 8.01499C11.7987 7.75597 12.8994 7.86668 13.8702 8.32828" stroke="var(--svg-icon-stroke, #333)" fill="none" />
<path d="M16.3945 8.00012L11.6691 12.6831" stroke="var(--svg-icon-stroke_blue, #0094ff)" fill="none"/>
<path d="M18.3945 2.00012L15.8945 8.50012L22.3945 6.00012H18.3945V2.00012Z" stroke="var(--svg-icon-stroke_blue, #0094ff)" fill="none" stroke-linejoin="round"/>
</svg>
