<svg width="24" height="24" viewBox="0 0 24 24" fill="none" xmlns="http://www.w3.org/2000/svg">
<path d="M9.49505 16.4433C10.2959 16.967 11.2508 17.2288 12.3597 17.2288C13.2325 17.2288 13.9974 17.0671 14.6546 16.7437C15.3168 16.4151 15.8482 15.9736 16.2486 15.4191C16.6542 14.8596 16.9083 14.2307 17.011 13.5325H15.1936C15.0807 13.9637 14.8907 14.3333 14.6238 14.6414C14.3568 14.9494 14.0308 15.1856 13.6458 15.3498C13.2607 15.5141 12.832 15.5963 12.3597 15.5963C11.641 15.5963 11.0147 15.4089 10.4807 15.0341C9.95196 14.6593 9.54125 14.1331 9.24862 13.4554C8.96113 12.7778 8.81738 11.982 8.81738 11.0682C8.81738 10.1749 8.9637 9.39714 9.25633 8.73487C9.55409 8.06747 9.96736 7.55152 10.4961 7.18702C11.0301 6.81738 11.6513 6.63256 12.3597 6.63256C13.1606 6.63256 13.7972 6.84305 14.2695 7.26403C14.747 7.67987 15.055 8.15732 15.1936 8.69637H17.011C16.9083 7.9571 16.6439 7.31023 16.2178 6.75578C15.7917 6.20132 15.245 5.77008 14.5776 5.46205C13.9102 5.15401 13.1606 5 12.3289 5C11.2611 5 10.3267 5.26183 9.52585 5.78548C8.73011 6.304 8.10891 7.0253 7.66227 7.9494C7.22076 8.86835 7 9.92849 7 11.1298C7 12.3106 7.21562 13.3605 7.64686 14.2794C8.07811 15.1984 8.69417 15.9197 9.49505 16.4433Z" fill="var(--svg-icon-fill, #333)" stroke="none"/>
<path d="M17.1386 17.8735H7V19H17.1386V17.8735Z" fill="var(--svg-icon-fill, #333)" stroke="none"/>
</svg>
