<svg xmlns="http://www.w3.org/2000/svg" viewBox="0 0 19.49 19.51"><path d="M.72,7.18V7.11A4,4,0,0,1,1.67,3,2.76,2.76,0,0,1,5.58,3L6.64,4.07a2.5,2.5,0,0,1,0,3.54L4.32,9.93l-.25.25.16.33a10.43,10.43,0,0,0,5.53,5l.3.11.23-.22,2.53-2.53a2.5,2.5,0,0,1,3.53,0l1.06,1.06a2.76,2.76,0,0,1,0,3.91,4,4,0,0,1-3.95,1h-.12A13.88,13.88,0,0,1,.72,7.18Z" stroke="var(--svg-icon-stroke, #333)" fill="none"/><path d="M14.14,1.35v8" stroke="var(--svg-icon-stroke_blue, #0094ff)" fill="none"/><path d="M13.14.35l1,1,1-1" stroke="var(--svg-icon-stroke_blue, #0094ff)" fill="none"/><path d="M15.14,10.35l-1-1-1,1" stroke="var(--svg-icon-stroke_blue, #0094ff)" fill="none"/><path d="M18.14,5.35h-8" stroke="var(--svg-icon-stroke_blue, #0094ff)" fill="none"/><path d="M19.14,4.35l-1,1,1,1" stroke="var(--svg-icon-stroke_blue, #0094ff)" fill="none"/><path d="M9.14,6.35l1-1-1-1" stroke="var(--svg-icon-stroke_blue, #0094ff)" fill="none"/><path d="M17,2.53,11.31,8.18" stroke="var(--svg-icon-stroke_blue, #0094ff)" fill="none"/><path d="M17,1.11V2.53h1.41" stroke="var(--svg-icon-stroke_blue, #0094ff)" fill="none"/><path d="M11.31,9.6V8.18H9.9" stroke="var(--svg-icon-stroke_blue, #0094ff)" fill="none"/><path d="M17,8.18,11.31,2.53" stroke="var(--svg-icon-stroke_blue, #0094ff)" fill="none"/><path d="M18.38,8.18H17V9.6" stroke="var(--svg-icon-stroke_blue, #0094ff)" fill="none"/><path d="M9.9,2.53h1.41V1.11" stroke="var(--svg-icon-stroke_blue, #0094ff)" fill="none"/></svg>