<svg width="24" height="24" viewBox="0 0 24 24" fill="none" xmlns="http://www.w3.org/2000/svg">
<path fill-rule="evenodd" clip-rule="evenodd" d="M12.8673 9.74581C11.8444 10.1742 9.80739 11.0572 6.74744 12.3861C6.25785 12.5872 5.99557 12.7795 5.96934 12.9719C5.93063 13.2971 6.33764 13.4234 6.88673 13.5938C6.95763 13.6158 7.03091 13.6386 7.1059 13.6626C7.64794 13.8374 8.36485 14.0385 8.74078 14.0472C9.08175 14.056 9.45768 13.9161 9.87733 13.6276C12.7362 11.6955 14.205 10.7163 14.3011 10.6988C14.3711 10.6813 14.4585 10.6638 14.5197 10.7163C14.5809 10.7687 14.5809 10.8736 14.5722 10.8999C14.5305 11.0737 12.8245 12.6574 12.0485 13.3778C11.8487 13.5633 11.7106 13.6915 11.6783 13.7237C11.5963 13.8081 11.5129 13.888 11.4326 13.9649C10.9307 14.4453 10.5541 14.8057 11.451 15.3936C11.8588 15.6628 12.1878 15.8873 12.5117 16.1083C12.903 16.3752 13.287 16.6373 13.7941 16.9673C13.9136 17.0458 14.0279 17.1271 14.1395 17.2065C14.575 17.5163 14.968 17.7959 15.4552 17.7541C15.7349 17.7279 16.0235 17.4656 16.1721 16.6788C16.5218 14.8253 17.2037 10.7949 17.3611 9.13382C17.3786 8.99393 17.3611 8.81036 17.3436 8.72294C17.3261 8.63551 17.2999 8.52183 17.195 8.4344C17.0638 8.32951 16.8715 8.31201 16.7841 8.31201C16.3907 8.32076 15.7787 8.53058 12.8673 9.74581Z" stroke="var(--svg-icon-stroke_blue, #0094ff)" fill="none"/>
<path d="M23 12.5C23 18.299 18.299 23 12.5 23C6.70101 23 2 18.299 2 12.5C2 6.701 6.70101 2 12.5 2C18.299 2 23 6.701 23 12.5Z" stroke="var(--svg-icon-stroke, #333)" fill="none"/>
</svg>
