<svg xmlns="http://www.w3.org/2000/svg" viewBox="0 0 20.5 16.5"><path d="M.5,9,3.75,6M17.5,11.5,10.71,6m-7,0L7,3l3.71,3m-7,0L7,8l3.71-2" stroke="var(--svg-icon-stroke, #333)" fill="none" stroke-linecap="round" stroke-linejoin="round"/><circle cx="13.5" cy="3.5" r="1" stroke="var(--svg-icon-stroke, #333)" fill="none"/><rect x="0.5" y="0.5" width="17" height="13" stroke="var(--svg-icon-stroke, #333)" fill="none"/><path d="M7,10A1,1,0,0,1,8,9H19a1,1,0,0,1,1,1v5a1,1,0,0,1-1,1H8a1,1,0,0,1-1-1Z" stroke="var(--svg-icon-stroke_blue, #0094ff)" fill="none"/><path d="M15.23,13.55l.56-2.39h.32l.07.39L15.58,14h-.34Zm-.29-2.39.46,2.39,0,.45H15l-.63-2.84Zm1.74,2.38.46-2.38h.58L17.09,14h-.38Zm-.39-2.38.57,2.4,0,.44H16.5l-.61-2.45.08-.39Z" fill="var(--svg-icon-fill, #333)" stroke="none"/><path d="M14.2,13.54V14H12.69v-.46Zm-1.32-2.38V14h-.59V11.16ZM14,12.31v.45H12.69v-.45Zm.2-1.15v.46H12.69v-.46Z" fill="var(--svg-icon-fill, #333)" stroke="none"/><path d="M11.78,11.16V14H11.2l-1.15-1.91V14H9.47V11.16h.58l1.15,1.9v-1.9Z" fill="var(--svg-icon-fill, #333)" stroke="none"/></svg>