<svg xmlns="http://www.w3.org/2000/svg" viewBox="0 0 19.79 20"><path d="M8.61,7.27h0a1,1,0,0,1,0,.89h0a.67.67,0,0,0-.06.12l-.4-.21.4.21h0a1.55,1.55,0,0,1-.25.39l-.11.14h0l-.28.32a7.87,7.87,0,0,0,1.28,1.58h0A5.93,5.93,0,0,0,11,11.87h0l.17.08h0a9.68,9.68,0,0,0,.72-.89h0a.85.85,0,0,1,.62-.41,1,1,0,0,1,.52.08h0l.66.31.83.4h0l.3.15h0l.17.09h0l.23.12a.85.85,0,0,1,.27.27.62.62,0,0,1,.08.21.88.88,0,0,1,0,.16,2,2,0,0,1,0,.35,3.65,3.65,0,0,1-.2.92h0a2.4,2.4,0,0,1-1,1.07,3.16,3.16,0,0,1-1.17.48m-4.65-8,4.59,7.52M8.61,7.27h0l0,0a1.14,1.14,0,0,0-.06-.14l-.18-.46h0c-.16-.41-.36-.92-.49-1.2a1.23,1.23,0,0,0-.5-.61.92.92,0,0,0-.51-.13H6.32a1.42,1.42,0,0,0-1.05.49l.37.33-.37-.33,0,0a3.36,3.36,0,0,0-1,2.43,4.42,4.42,0,0,0,.53,2,6.44,6.44,0,0,0,.61,1m3.23-3.3-3.23,3.3m7.88,4.72-.06-.5m.06.5h0l-.06-.5m.06.5h-.11l-.07-.5h.12M5.38,10.57ZM1.88,15l.06-.2-.1-.18A9.35,9.35,0,0,1,.58,9.91h0A9.39,9.39,0,0,1,9.93.5a9.36,9.36,0,0,1,9.36,9.41h0a9.39,9.39,0,0,1-9.35,9.41,9.21,9.21,0,0,1-4.47-1.15l-.17-.09-.2.05L.71,19.29Z" stroke="var(--svg-icon-stroke_blue, #0094ff)" fill="none"/></svg>