<svg width="24" height="24" viewBox="0 0 24 24" fill="none" xmlns="http://www.w3.org/2000/svg">
<path d="M16.3242 15.2047C16.3241 14.7762 16.3241 14.35 16.3241 13.9355L16.3242 15.2047Z" fill="var(--svg-valute-fill, var(--svg-icon-fill, #333))" stroke="none"/>
<path d="M16.324 11.2626C16.324 10.4201 16.324 9.87821 16.324 9.87534C16.3142 8.26154 15.6801 6.78983 14.6656 5.73235C13.6449 4.66407 12.2215 3.99916 10.662 4C9.1025 3.99922 7.67895 4.66413 6.65836 5.73241C5.63571 6.79849 4.9992 8.28555 5 9.91476H7.53768C7.53825 9.00917 7.88535 8.2017 8.45273 7.60679C9.02212 7.01409 9.7951 6.65156 10.662 6.65079C11.5288 6.65156 12.3017 7.01409 12.8712 7.60679C13.4288 8.19143 13.7739 8.98157 13.7861 9.86818C13.7863 9.8837 13.7863 21 13.7863 21H16.3241C16.3241 20.9955 16.3241 19.64 16.3241 17.8775L16.324 11.2626Z" fill="var(--svg-valute-fill, var(--svg-icon-fill, #333))" stroke="none"/>
<path d="M13.7863 11.2627H11.1104V13.9355H13.7862" fill="var(--svg-valute-fill, var(--svg-icon-fill, #333))" stroke="none"/>
<path d="M18.9999 11.2627H16.324V13.9355H18.9998" fill="var(--svg-valute-fill, var(--svg-icon-fill, #333))" stroke="none"/>
<path d="M19 15H11V17.67H18.9997" fill="var(--svg-icon-fill_blue, #0094ff)" stroke="none"/>
</svg>
