<svg xmlns="http://www.w3.org/2000/svg" viewBox="0 0 22.16 21.76"><path d="M5.71,21.05l-5-5,.58-.58a2,2,0,0,1,2.83,0l2.17,2.17a2,2,0,0,1,0,2.83Z" stroke="var(--svg-icon-stroke, #333)" fill="none"/><path d="M6.71,18.05l1.41-1.41a2,2,0,0,1,1.42-.59h5.54a2,2,0,0,0,1.14-.35l4.89-3.39a1.28,1.28,0,0,0,.29-1.83h0a1.28,1.28,0,0,0-1.69-.33l-4,2.4m-12,2.5L6,11.55a2,2,0,0,1,1.86-.88l3.81.38h2.75a1.25,1.25,0,0,1,1.25,1.25h0a1.25,1.25,0,0,1-1.25,1.25H11.71" stroke="var(--svg-icon-stroke, #333)" fill="none"/><path d="M17.17.55A1.49,1.49,0,0,1,19,1.61l.59,2.21a1.5,1.5,0,0,1-1.06,1.84L11.84,7.45,10.48,2.34Z" stroke="var(--svg-icon-stroke_blue, #0094ff)" fill="none"/><path d="M3.71,7.34l7.08-1.9.43,1.61L4.14,9Z" stroke="var(--svg-icon-stroke_blue, #0094ff)" fill="none"/><circle cx="13.6" cy="4.55" r="1" stroke="var(--svg-icon-stroke_blue, #0094ff)" fill="none"/></svg>