<svg xmlns="http://www.w3.org/2000/svg" viewBox="0 0 21.77 22.46"><path d="M9.14,20.63V17a3,3,0,0,0,4,0v3.67a2.17,2.17,0,0,1-4,0Z" stroke="var(--svg-icon-stroke, #333)" fill="none"/><path d="M13.14,19a2.64,2.64,0,0,1-2,1,2.61,2.61,0,0,1-2-1" stroke="var(--svg-icon-stroke, #333)" fill="none"/><path d="M11.14,3c-2.4,0-6,1.18-6,6.27,0,2.89,2,5.6,3.75,7.35a3.82,3.82,0,0,0,2.25,1.31,3.86,3.86,0,0,0,2.27-1.31c1.7-1.73,3.73-4.39,3.73-7.23C17.14,4.41,13.54,3,11.14,3Z" stroke="var(--svg-icon-stroke, #333)" fill="none" stroke-linecap="round" stroke-linejoin="round"/><path d="M10.14,17.46v-5.7l-1-1.8" stroke="var(--svg-icon-stroke, #333)" fill="none"/><path d="M8.14,9.46,9.64,8l1.5,1.5L12.64,8l1.5,1.5" stroke="var(--svg-icon-stroke_blue, #0094ff)" fill="none"/><path d="M12.14,17.46v-5.7l1-1.8" stroke="var(--svg-icon-stroke, #333)" fill="none"/><path d="M17.14,2.94,21,.42" stroke="var(--svg-icon-stroke_blue, #0094ff)" fill="none"/><path d="M18.14,7l3.5-1" stroke="var(--svg-icon-stroke_blue, #0094ff)" fill="none"/><path d="M5,2.94,1.14.42" stroke="var(--svg-icon-stroke_blue, #0094ff)" fill="none"/><path d="M3.64,7,.14,6" stroke="var(--svg-icon-stroke_blue, #0094ff)" fill="none"/></svg>