<svg width="24" height="24" viewBox="0 0 24 24" fill="none" xmlns="http://www.w3.org/2000/svg">
<path d="M3.88371 16.9935L3.93832 16.7933L3.83508 16.6133C3.01441 15.182 2.58276 13.5609 2.58306 11.9111V11.911C2.58306 6.72247 6.78418 2.5 11.9336 2.5C14.436 2.5 16.7796 3.48025 18.5549 5.25668C19.4263 6.13108 20.1168 7.16869 20.5869 8.31018C21.057 9.45187 21.2974 10.6751 21.2943 11.9097V11.911C21.2943 17.1001 17.0937 21.3226 11.9438 21.3226C10.3784 21.3226 8.8418 20.9259 7.47211 20.1729L7.29656 20.0764L7.10294 20.1278L2.71083 21.2939L3.88371 16.9935Z" stroke="var(--svg-icon-stroke_blue, #0094ff)" fill="none"/>
<path d="M10.1212 9.87147L10.113 9.8801L10.1052 9.88911L9.62 10.4505L9.40403 10.7004L9.5491 10.9971C10.323 12.58 11.6127 13.8271 13.1874 14.4521L13.5143 14.5818L13.7469 14.318L14.3579 13.6248C14.9123 13.0488 15.7952 13.0509 16.3471 13.6312L17.0241 14.3429C17.6586 15.01 17.6586 16.1014 17.0241 16.7684C16.3851 17.4402 15.4828 17.646 14.6837 17.3996L14.6263 17.382L14.5665 17.3784C10.6394 17.1417 7.36851 13.9322 6.64104 9.66319L6.63521 9.62901L6.62472 9.59596C6.34193 8.70475 6.5412 7.68857 7.20599 6.98968C7.82705 6.33677 8.82314 6.33677 9.4442 6.98968L10.1212 7.70141C10.6886 8.29793 10.6886 9.27495 10.1212 9.87147Z" stroke="var(--svg-icon-stroke_blue, #0094ff)" fill="none"/>
</svg>
