<svg width="24" height="24" viewBox="0 0 24 24" fill="none" xmlns="http://www.w3.org/2000/svg">
<path d="M4 15.5C3.72386 15.5 3.5 15.2761 3.5 15L3.5 6C3.5 5.72386 3.72386 5.5 4 5.5L20 5.5C20.2761 5.5 20.5 5.72386 20.5 6L20.5 15C20.5 15.2761 20.2761 15.5 20 15.5L12.9924 15.5C12.5267 15.5 12.0874 15.7163 11.8035 16.0854L8.89631 19.8647C8.60522 20.2432 8 20.0373 8 19.5599L8 17C8 16.1716 7.32843 15.5 6.5 15.5L4 15.5Z" stroke="var(--svg-icon-stroke, #333)" fill="none"/>
<path d="M7 9H17" stroke="var(--svg-icon-stroke_blue, #0094ff)" fill="none" stroke-linecap="round" stroke-linejoin="round"/>
<path d="M7 12H17" stroke="var(--svg-icon-stroke_blue, #0094ff)" fill="none" stroke-linecap="round" stroke-linejoin="round"/>
</svg>
