<svg xmlns="http://www.w3.org/2000/svg" viewBox="0 0 14 21.67"><path d="M12,.67.5,4.17H12Z" stroke="var(--svg-icon-stroke, #333)" fill="none"/><path d="M3,12.67h8" stroke="var(--svg-icon-stroke_blue, #0094ff)" fill="none"/><path d="M3,15.67h8" stroke="var(--svg-icon-stroke_blue, #0094ff)" fill="none"/><path d="M3,18.67h8" stroke="var(--svg-icon-stroke_blue, #0094ff)" fill="none"/><path d="M.5,4.17h13v17H.5Z" stroke="var(--svg-icon-stroke, #333)" fill="none"/><circle cx="4.71" cy="8.82" r="0.5" stroke="var(--svg-icon-stroke_blue, #0094ff)" fill="none" stroke-width="0.71"/><circle cx="8.57" cy="8.82" r="0.5" stroke="var(--svg-icon-stroke_blue, #0094ff)" fill="none" stroke-width="0.71"/><path d="M5.36,8.82H7.93m1.28,0,1.08-.11v0a1,1,0,0,0-.69-.95l-.53-.18-.13,0L7.5,6.78a1,1,0,0,0-.45-.11h-2a1,1,0,0,0-.63.22l-.69.56a.72.72,0,0,1-.23.12h0A.77.77,0,0,0,3,8.29v.53H4.07" stroke="var(--svg-icon-stroke_blue, #0094ff)" fill="none"/></svg>