<svg xmlns="http://www.w3.org/2000/svg" viewBox="0 0 16 17.5"><rect x="0.5" y="5" width="15" height="4" rx="0.5" stroke="var(--svg-icon-stroke, #333)" fill="none"/><rect x="1.5" y="9" width="13" height="8" rx="0.5" stroke="var(--svg-icon-stroke, #333)" fill="none"/><path d="M8,5.5v12" stroke="var(--svg-icon-stroke_blue, #0094ff)" fill="none"/><path d="M8,2.56V4.5h2.56a1.36,1.36,0,0,0,1.28-1A2.25,2.25,0,0,0,10.56.61,2,2,0,0,0,8,2.56Z" stroke="var(--svg-icon-stroke_blue, #0094ff)" fill="none"/><path d="M8,2.56V4.5H5.44a1.36,1.36,0,0,1-1.28-1A2.25,2.25,0,0,1,5.44.61,2,2,0,0,1,8,2.56Z" stroke="var(--svg-icon-stroke_blue, #0094ff)" fill="none"/></svg>