<svg width="24" height="24" viewBox="0 0 24 24" fill="none" xmlns="http://www.w3.org/2000/svg">
<path d="M5.5 3.5H14.7929L18.5 7.20711V20.5H5.5V3.5Z" stroke="var(--svg-icon-stroke, #333)" fill="none"/>
<path d="M10.75 7H13.25V7.80617C13.541 7.89277 13.8192 8.00881 14.0814 8.15085L14.6516 7.58058L16.4194 9.34834L15.8491 9.91861C15.9912 10.1808 16.1072 10.459 16.1938 10.75H17V13.25H16.1938C16.1072 13.541 15.9912 13.8192 15.8491 14.0814L16.4194 14.6517L14.6516 16.4194L14.0814 15.8491C13.8192 15.9912 13.541 16.1072 13.25 16.1938V17H10.75V16.1938C10.459 16.1072 10.1808 15.9912 9.91864 15.8491L9.34837 16.4194L7.5806 14.6517L8.15087 14.0814C8.00882 13.8192 7.89277 13.541 7.80617 13.25H7V10.75L7.80617 10.75C7.89277 10.459 8.00882 10.1808 8.15087 9.91862L7.5806 9.34835L9.34836 7.58058L9.91864 8.15086C10.1808 8.00881 10.459 7.89277 10.75 7.80617V7Z" stroke="var(--svg-icon-stroke_blue, #0094ff)" fill="none"/>
<circle cx="12" cy="12" r="2.5" stroke="var(--svg-icon-stroke_blue, #0094ff)" fill="none"/>
</svg>
