<svg xmlns="http://www.w3.org/2000/svg" viewBox="0 0 12 20"><rect x="0.5" y="0.5" width="11" height="19" rx="1.5" stroke="var(--svg-icon-stroke, #333)" fill="none" stroke-linejoin="round"/><path d="M5,.5H7a.5.5,0,0,1,.5.5h0a.5.5,0,0,1-.5.5H5A.5.5,0,0,1,4.5,1h0A.5.5,0,0,1,5,.5Z" stroke="var(--svg-icon-stroke, #333)" fill="none" stroke-linejoin="round"/><path d="M4.5,17.25h3a.25.25,0,0,1,.25.25h0a.25.25,0,0,1-.25.25h-3a.25.25,0,0,1-.25-.25h0A.25.25,0,0,1,4.5,17.25Z" stroke="var(--svg-icon-stroke_blue, #4A8DC6)" fill="none" stroke-linejoin="round" stroke-width="0.5"/></svg>