<svg xmlns="http://www.w3.org/2000/svg" viewBox="0 0 14.81 14.16"><path d="M7.41,0a.75.75,0,0,1,.67.42L10,4.23l4.21.61a.76.76,0,0,1,.61.52.74.74,0,0,1-.19.76l-3.05,3,.72,4.2a.75.75,0,0,1-1.09.79l-3.76-2-3.77,2A.75.75,0,0,1,2.85,14a.77.77,0,0,1-.3-.73l.72-4.2-3-3A.72.72,0,0,1,0,5.36a.75.75,0,0,1,.6-.52l4.21-.61L6.73.42A.75.75,0,0,1,7.41,0Zm0,2.44L6,5.25a.74.74,0,0,1-.56.41l-3.1.45L4.6,8.29A.77.77,0,0,1,4.82,9L4.29,12l2.77-1.45a.73.73,0,0,1,.7,0L10.53,12,10,9a.79.79,0,0,1,.21-.67l2.24-2.18L9.36,5.66a.74.74,0,0,1-.57-.41Z" fill="var(--svg-icon-fill, #000)"  stroke="none" fill-rule="evenodd"/></svg>