<svg xmlns="http://www.w3.org/2000/svg" viewBox="0 0 22 24.75"><path d="M22,6.25v15a3.52,3.52,0,0,1-3.5,3.5H3.5A3.52,3.52,0,0,1,0,21.25v-15a3.5,3.5,0,0,1,3.5-3.5H6.14L4.55,5a2.43,2.43,0,0,0-.36.72H3.5a.5.5,0,0,0-.5.5v15a.52.52,0,0,0,.5.5h15a.52.52,0,0,0,.5-.5v-15a.5.5,0,0,0-.5-.5h-.69A2.43,2.43,0,0,0,17.45,5L15.86,2.75H18.5A3.5,3.5,0,0,1,22,6.25ZM7,7.75H8.75L10,17.29a.5.5,0,0,0,.5.46h1.08a.5.5,0,0,0,.5-.46l1.21-9.54H15a1,1,0,0,0,1-1,1,1,0,0,0-.18-.57l-4-5.75A1,1,0,0,0,10.43.18a1,1,0,0,0-.25.25l-4,5.75a1,1,0,0,0,.25,1.39A1.07,1.07,0,0,0,7,7.75Z" fill="var(--svg-icon-fill, #000)"  transform="translate(0 0)"/></svg>
