<svg xmlns="http://www.w3.org/2000/svg" viewBox="0 0 24 24"><path d="M12,0A12,12,0,1,0,24,12,12,12,0,0,0,12,0Zm2,18a1,1,0,0,1-1,1H11a1,1,0,0,1-1-1V16a1,1,0,0,1,1-1h2a1,1,0,0,1,1,1Zm2.75-8.89c0,1.38-.87,2.09-2,2.83a3.54,3.54,0,0,0-1.47,1.72.51.51,0,0,1-.47.34H10.79a.5.5,0,0,1-.5-.5v-.08a3.34,3.34,0,0,1,.66-1.6A10.71,10.71,0,0,1,13.28,10a1,1,0,0,0,.47-.85V9a1,1,0,0,0-1-1h-1.5a1,1,0,0,0-1,1,1,1,0,0,1-1,1h-1a1,1,0,0,1-1-1,4,4,0,0,1,4-4h1.5c2.28,0,4,1.16,4,4Z" fill="var(--svg-icon-fill, #000)"/></svg>
