<svg xmlns="http://www.w3.org/2000/svg" viewBox="0 0 24.01 24"><path d="M14.81,6.17l-.17,1a1,1,0,0,1-1,.83H12.18a1,1,0,0,1-1-1,.88.88,0,0,1,0-.16l.16-1a1,1,0,0,1,1-.84h1.47a1,1,0,0,1,1,1A1,1,0,0,1,14.81,6.17Zm-.38,4.75L12.6,17h1.26a.5.5,0,0,1,.5.5.49.49,0,0,1,0,.12l-.25,1a.51.51,0,0,1-.49.38H10a1.42,1.42,0,0,1-1.52-1.29,1.45,1.45,0,0,1,.1-.62L10.4,11H9.64a.48.48,0,0,1-.48-.62l.25-1A.49.49,0,0,1,9.89,9H13a1.4,1.4,0,0,1,1.52,1.29A1.51,1.51,0,0,1,14.43,10.92Zm-1.06,10a9,9,0,0,1-5.85-1.1L7,19.49l-3.37.9.74-2.77.16-.6-.31-.54a9,9,0,1,1,9.17,4.42ZM12,24a12.28,12.28,0,0,0,1.82-.13A12,12,0,1,0,1.3,17.42L.08,22a1.6,1.6,0,0,0,.39,1.56A1.56,1.56,0,0,0,2,23.92L6.58,22.7A11.85,11.85,0,0,0,12,24Z" fill="var(--svg-icon-fill, #000)"/></svg>
