<svg xmlns="http://www.w3.org/2000/svg" viewBox="0 0 25 24"><path d="M11,21h3v2a1,1,0,0,1-1,1H12a1,1,0,0,1-1-1ZM6,8H5V1A1,1,0,0,0,4,0H3A1,1,0,0,0,2,1V8H1A1,1,0,0,0,0,9v3a1,1,0,0,0,1,1H6a1,1,0,0,0,1-1V9A1,1,0,0,0,6,8ZM2,23a1,1,0,0,0,1,1H4a1,1,0,0,0,1-1V15H2ZM24,6H23V1a1,1,0,0,0-1-1H21a1,1,0,0,0-1,1V6H19a1,1,0,0,0-1,1v3a1,1,0,0,0,1,1h5a1,1,0,0,0,1-1V7A1,1,0,0,0,24,6ZM20,23a1,1,0,0,0,1,1h1a1,1,0,0,0,1-1V13H20Zm-5-9H14V1a1,1,0,0,0-1-1H12a1,1,0,0,0-1,1V14H10a1,1,0,0,0-1,1v3a1,1,0,0,0,1,1h5a1,1,0,0,0,1-1V15A1,1,0,0,0,15,14Z" fill="var(--svg-icon-fill, #000)"/></svg>
