<svg xmlns="http://www.w3.org/2000/svg" viewBox="0 0 29.81 19"><title>glyphicons-basic-eye</title><path d="M29.22,7.87C27.17,5.5,21.67,0,14.91,0S2.66,5.5.61,7.87a2.49,2.49,0,0,0,0,3.26C2.66,13.5,8.16,19,14.91,19s12.26-5.5,14.31-7.87A2.53,2.53,0,0,0,29.22,7.87ZM8.16,13.76a25.4,25.4,0,0,1-5-4.26,25.4,25.4,0,0,1,5-4.26A7.91,7.91,0,0,0,8.16,13.76Zm6.75,1.74a6,6,0,1,1,6-6A6,6,0,0,1,14.91,15.5Zm6.76-1.74a7.91,7.91,0,0,0,0-8.52,25.4,25.4,0,0,1,5,4.26A25.4,25.4,0,0,1,21.67,13.76ZM17.91,9.5a3,3,0,0,1-6,.06,3.14,3.14,0,0,1,.2-1.09,1.49,1.49,0,0,0,1.77-1.16,1.3,1.3,0,0,0,0-.62,3,3,0,0,1,3.84,1.73A2.83,2.83,0,0,1,17.91,9.5Z"/></svg>