<svg xmlns="http://www.w3.org/2000/svg" viewBox="0 0 23.8 23.8"><path d="M9.62,8a.49.49,0,0,1-.07.62l-1,1A.49.49,0,0,1,8,9.62L3.79,7l-1.7,1.7a.5.5,0,0,1-.71,0,.54.54,0,0,1-.14-.27L0,.58A.49.49,0,0,1,.42,0H.58L8.39,1.24a.52.52,0,0,1,.42.58.49.49,0,0,1-.15.27L7,3.79Zm5.59,1.58a.49.49,0,0,0,.62.07L20,7l1.71,1.7a.48.48,0,0,0,.7,0,.42.42,0,0,0,.14-.27L23.79.58A.5.5,0,0,0,23.38,0h-.16L15.41,1.24a.51.51,0,0,0-.42.58.54.54,0,0,0,.14.27l1.7,1.7L14.18,8a.49.49,0,0,0,.07.62Zm-6.62,4.7A.49.49,0,0,0,8,14.18L3.79,16.83l-1.7-1.7a.51.51,0,0,0-.71,0,.57.57,0,0,0-.14.28L0,23.22a.49.49,0,0,0,.41.57.43.43,0,0,0,.16,0l7.81-1.24A.51.51,0,0,0,8.81,22a.55.55,0,0,0-.15-.28L7,20l2.66-4.17a.49.49,0,0,0-.07-.62Zm13.12.88L20,16.83l-4.17-2.65a.49.49,0,0,0-.62.07l-1,1a.49.49,0,0,0-.07.62L16.83,20l-1.7,1.7a.51.51,0,0,0,0,.71.44.44,0,0,0,.28.14l7.81,1.24a.5.5,0,0,0,.57-.41.43.43,0,0,0,0-.16l-1.24-7.81A.5.5,0,0,0,22,15,.54.54,0,0,0,21.71,15.13Z"/></svg>