<svg xmlns="http://www.w3.org/2000/svg" viewBox="0 0 40.74 24"><path d="M11.5,4.15,6,13.76a1.24,1.24,0,0,1-1.68.46h0L0,11.75,6.78,0l4.31,2.47a1.22,1.22,0,0,1,.46,1.68H11.5ZM13.1,17.9a1.23,1.23,0,0,0-1.46,0l-1.32,1L17.26,24a2.47,2.47,0,0,0-.42-3.33ZM34,0,29.69,2.47a1.24,1.24,0,0,0-.46,1.68h0l5.55,9.61a1.24,1.24,0,0,0,1.68.46h0l4.27-2.46ZM22.77,11.5l-1.62.64a4.93,4.93,0,0,1-5.94-1.83l-.13-.21a2.46,2.46,0,0,1,.61-3.38L18.49,5l-4.24-.68L7.78,15.52l.85,1.54,1.51-1.13a3.69,3.69,0,0,1,4.42,0l3.83,2.82a5,5,0,0,1,1.81,4l.5.33A3.69,3.69,0,0,0,24.9,23l4.93-3.52L24.2,11.92A1.24,1.24,0,0,0,22.77,11.5Zm1.4-7.1-7,4.33.14.21a2.47,2.47,0,0,0,3,.92l1.63-.65a3.69,3.69,0,0,1,4.33,1.23l4.86,6.47L33,15.53,26.49,4.31Z" fill="var(--svg-icon-fill, #000)" /></svg>
