<svg xmlns="http://www.w3.org/2000/svg" viewBox="0 0 23.08 23.54"><path d="M22.9,16.57l-4.58,6.55a1,1,0,0,1-1.39.24,1.14,1.14,0,0,1-.25-.24L12.1,16.57A1,1,0,0,1,12.92,15H15V1a1,1,0,0,1,1-1h3a1,1,0,0,1,1,1V15h2.08a1,1,0,0,1,1,1A.94.94,0,0,1,22.9,16.57ZM3,18H1a1,1,0,0,0-1,1v2a1,1,0,0,0,1,1H3a1,1,0,0,0,1-1V19A1,1,0,0,0,3,18Zm2-6H1a1,1,0,0,0-1,1v2a1,1,0,0,0,1,1H5a1,1,0,0,0,1-1V13A1,1,0,0,0,5,12ZM7,6H1A1,1,0,0,0,0,7V9a1,1,0,0,0,1,1H7A1,1,0,0,0,8,9V7A1,1,0,0,0,7,6ZM9,0H1A1,1,0,0,0,0,1V3A1,1,0,0,0,1,4H9a1,1,0,0,0,1-1V1A1,1,0,0,0,9,0Z" fill="var(--svg-icon-fill, #000)" /></svg>
