<svg xmlns="http://www.w3.org/2000/svg" viewBox="0 0 22 24"><path d="M4,5.5v-1A.48.48,0,0,1,4.46,4h5a.48.48,0,0,1,.5.46v1a.48.48,0,0,1-.46.5h-5A.48.48,0,0,1,4,5.54Zm0,4v-1A.48.48,0,0,1,4.46,8h5a.48.48,0,0,1,.5.46v1a.48.48,0,0,1-.46.5h-5A.48.48,0,0,1,4,9.54Zm0,4v-1a.48.48,0,0,1,.46-.5h5a.48.48,0,0,1,.5.46v1a.48.48,0,0,1-.46.5h-5a.48.48,0,0,1-.5-.46Zm0,4v-1a.48.48,0,0,1,.46-.5h5a.48.48,0,0,1,.5.46v1a.48.48,0,0,1-.46.5h-5a.48.48,0,0,1-.5-.46Zm8-5a2.47,2.47,0,0,1,2-2.4V9.5a1,1,0,0,1,2,0V10a.94.94,0,0,1,1,.88V11a.94.94,0,0,1-.88,1H14.5a.5.5,0,0,0,0,1H15a2.48,2.48,0,0,1,2.5,2.46v0A2.51,2.51,0,0,1,16,17.8v.7a1,1,0,0,1-2,0V18h-.5a1,1,0,0,1,0-2H15a.5.5,0,0,0,0-1h-.5A2.48,2.48,0,0,1,12,12.54ZM20,24H2a2,2,0,0,1-2-2V2A2,2,0,0,1,2,0H20a2,2,0,0,1,2,2V22A2,2,0,0,1,20,24ZM2,2V22H20V2Z" transform="translate(0 0)" fill="var(--svg-icon-fill, #000)" /></svg>
