<svg xmlns="http://www.w3.org/2000/svg" viewBox="0 0 24 23"><path d="M2,15.5v-6A.5.5,0,0,1,2.5,9h8a.5.5,0,0,1,.5.5v6a.5.5,0,0,1-.5.5h-8A.5.5,0,0,1,2,15.5Zm11-6v6a.5.5,0,0,0,.5.5h8a.5.5,0,0,0,.5-.5v-6a.5.5,0,0,0-.5-.5h-8A.5.5,0,0,0,13,9.5ZM8.5,7h7a.5.5,0,0,0,.5-.5V.5a.5.5,0,0,0-.5-.5h-7A.5.5,0,0,0,8,.5v6A.5.5,0,0,0,8.5,7Zm15,11H.5a.5.5,0,0,0-.5.5v4a.5.5,0,0,0,.5.5h3a.5.5,0,0,0,.5-.5V20h6v2.5a.5.5,0,0,0,.5.5h3a.5.5,0,0,0,.5-.5V20h6v2.5a.5.5,0,0,0,.5.5h3a.5.5,0,0,0,.5-.5v-4A.5.5,0,0,0,23.5,18Z" fill="var(--svg-icon-fill, #000)"/></svg>
