<svg xmlns="http://www.w3.org/2000/svg" viewBox="0 0 23.14 24">
<path d="M18.86,11.91V22.29A1.72,1.72,0,0,1,17.14,24H1.71A1.72,1.72,0,0,1,0,22.29V5.14A1.72,1.72,0,0,1,1.71,3.43H11.4a5.52,5.52,0,0,0-.26,1.71H1.71V22.29H17.14V11.91c.26,0,.6.09.86.09A2.8,2.8,0,0,0,18.86,11.91ZM8.57,14.14a.41.41,0,0,0-.43-.43H3.86a.41.41,0,0,0-.43.43V15a.4.4,0,0,0,.43.43H8.14A.4.4,0,0,0,8.57,15Zm4.29,6a.8.8,0,0,0,.85-.85v-.6a2.17,2.17,0,0,0,1.29-2,2.12,2.12,0,0,0-2.14-2.14h-.43a.4.4,0,0,1-.43-.43.41.41,0,0,1,.43-.43h1.28a.86.86,0,1,0,0-1.71v-.43a.86.86,0,1,0-1.71,0v.52a2.12,2.12,0,0,0,.43,4.2h.43a.43.43,0,1,1,0,.85H11.57a.86.86,0,0,0,0,1.72H12v.43A.81.81,0,0,0,12.86,20.14ZM8.57,10.71a.4.4,0,0,0-.43-.42H3.86a.4.4,0,0,0-.43.42v.86a.4.4,0,0,0,.43.43H8.14a.4.4,0,0,0,.43-.43Zm-.43,6.43H3.86a.4.4,0,0,0-.43.43v.86a.4.4,0,0,0,.43.43H8.14a.4.4,0,0,0,.43-.43v-.86A.4.4,0,0,0,8.14,17.14Zm.43-9.85a.4.4,0,0,0-.43-.43H3.86a.4.4,0,0,0-.43.43v.85a.4.4,0,0,0,.43.43H8.14a.4.4,0,0,0,.43-.43ZM23.14,5.14A5.14,5.14,0,1,1,18,0,5.16,5.16,0,0,1,23.14,5.14ZM20.66,3.26l-.43-.35a.27.27,0,0,0-.34,0L17.14,5.49,15.6,4.8c-.09-.09-.26,0-.34.09l-.35.51a.27.27,0,0,0,0,.34L16.8,7.63a.72.72,0,0,0,1.11-.09L20.57,3.6C20.83,3.43,20.83,3.26,20.66,3.26Z" fill="var(--svg-icon-fill, #000)" />
</svg>
