<svg xmlns="http://www.w3.org/2000/svg" viewBox="0 0 24.79 22.56"><style>.fill {fill: var(--svg-icon-fill, #000)} .stroke {stroke: var(--svg-icon-stroke, #000)}</style><path d="M24,17.56v4a1,1,0,0,1-1,1H1a1,1,0,0,1-1-1v-4a1,1,0,0,1,1-1H23A1,1,0,0,1,24,17.56Zm.36-11.82L16.58.19a1,1,0,0,0-1.39.23A1,1,0,0,0,15,1V3.61c-4.94.55-9,5.08-9.93,8.87a.89.89,0,0,0,.31.88.88.88,0,0,0,1.23-.11A9.74,9.74,0,0,1,15,9.53v2.58a1,1,0,0,0,1.58.82l7.78-5.56A1,1,0,0,0,24.6,6,.91.91,0,0,0,24.36,5.74Z" class="fill" stroke="none" /></svg>
