<?xml version="1.0" encoding="utf-8"?><svg xmlns="http://www.w3.org/2000/svg" viewBox="0 0 24 21"><path d="M24 14.5c0 .3-.2.5-.5.5h-18c-.3 0-.5-.2-.5-.5v-2c0-.3.2-.5.5-.5h18c.3 0 .5.2.5.5v2zm-21-2c0-.3-.2-.5-.5-.5h-2c-.3 0-.5.2-.5.5v2c0 .3.2.5.5.5h2c.3 0 .5-.2.5-.5v-2zm21 6c0-.3-.2-.5-.5-.5h-18c-.3 0-.5.2-.5.5v2c0 .3.2.5.5.5h18c.3 0 .5-.2.5-.5v-2zm-21 0c0-.3-.2-.5-.5-.5h-2c-.3 0-.5.2-.5.5v2c0 .3.2.5.5.5h2c.3 0 .5-.2.5-.5v-2zm21-12c0-.3-.2-.5-.5-.5h-18c-.3 0-.5.2-.5.5v2c0 .3.2.5.5.5h18c.3 0 .5-.2.5-.5v-2zm-21 0c0-.3-.2-.5-.5-.5h-2c-.3 0-.5.2-.5.5v2c0 .3.2.5.5.5h2c.3 0 .5-.2.5-.5v-2zm21-6c0-.3-.2-.5-.5-.5h-18c-.3 0-.5.2-.5.5v2c0 .3.2.5.5.5h18c.3 0 .5-.2.5-.5v-2zM3 .5c0-.3-.2-.5-.5-.5h-2C.2 0 0 .2 0 .5v2c0 .3.2.5.5.5h2c.3 0 .5-.2.5-.5v-2z" fill="#333"/></svg>