<svg xmlns="http://www.w3.org/2000/svg" viewBox="0 0 23.8 26"><path d="M14.4.9l-6-.9h-1c-.3 0-.7 0-1 .1L.4 1c-.3 0-.5.2-.4.5l2.8 11c0 .3.3.5.6.5h1.5v11l1.9 2h1.1v-1h-1v-1h1v-1h-1v-1h1v-1h-1v-1h1v-1h-1v-1h1v-1h-1v-1h1v-1l.3-2h.3l.3 2v10l1-1V13h1.5c.3 0 .-.2.6-.5l2.8-11c.1-.3-.1-.5-.3-.6zm-7 5c-1.1 0-2-.8-2-1.9s.9-1.9 1.9-1.9c1.1 0 1.9.9 1.9 1.9s-.8 1.9-1.8 1.9z" fill="var(--svg-icon-fill, #000)" /><path d="M7.9 15v1h-1v1h1v1h-1v1h1v1h-1v1h1v1h-1v1h1v1h-1v1h1v1l1-1V15l-.4-2h-.3zm9.8-2.7l1.3-.9c.2-.2.3-.5.2-.7l-3-8.5-2.5 10.7c-.2.9-.9 1.6-1.9 1.7v1.2c.2.1.4.1.6 0l1.1-.8 6.1 9.3 2.8.5.9-.6.5-2.7-6.1-9.2z" fill="var(--svg-icon-fill, #000)" /></svg>
