<svg xmlns="http://www.w3.org/2000/svg" viewBox="0 0 29 26"><path d="M29,9v9a1,1,0,0,1-1,1H26a1,1,0,0,1-1-1V15a4,4,0,0,0-1.09-2.74L23.57,11H26.5a.5.5,0,0,0,.5-.5v-1a.5.5,0,0,0-.5-.5H23l-.41-1.53A4.26,4.26,0,0,0,22.47,7h3.32L24.73,3.37A2,2,0,0,0,23,2H12a2,2,0,0,0-1.57,1H8.3l0-.08A4,4,0,0,1,12,0H23a4,4,0,0,1,3.67,2.92l1.15,4.26A2,2,0,0,1,29,9Zm-6,6V25a1,1,0,0,1-1,1H20a1,1,0,0,1-1-1V23H4v2a1,1,0,0,1-1,1H1a1,1,0,0,1-1-1V15a2,2,0,0,1,.87-1.64L2.33,7.92A4,4,0,0,1,6,5H17a4,4,0,0,1,3.67,2.92l1.46,5.44A2,2,0,0,1,23,15ZM3.21,12H19.79L18.73,8.37A2,2,0,0,0,17,7H6A2,2,0,0,0,4.27,8.37ZM6,15.5a.5.5,0,0,0-.5-.5h-3a.5.5,0,0,0-.5.5v1a.5.5,0,0,0,.5.5h3a.5.5,0,0,0,.5-.5Zm15,0a.5.5,0,0,0-.5-.5h-3a.5.5,0,0,0-.5.5v1a.5.5,0,0,0,.5.5h3a.5.5,0,0,0,.5-.5Z"/></svg>