<svg xmlns="http://www.w3.org/2000/svg" viewBox="0 0 24 24"><path d="M20.5,0H3.5A3.5,3.5,0,0,0,0,3.5v17A3.5,3.5,0,0,0,3.5,24h17A3.5,3.5,0,0,0,24,20.5V3.5A3.5,3.5,0,0,0,20.5,0ZM14.43,10.92,12.6,17h1.26a.5.5,0,0,1,.5.5.5.5,0,0,1,0,.12l-.25,1a.49.49,0,0,1-.48.38H10a1.42,1.42,0,0,1-1.52-1.29,1.69,1.69,0,0,1,.09-.63L10.4,11H9.64a.5.5,0,0,1-.5-.5.5.5,0,0,1,0-.12l.25-1A.49.49,0,0,1,9.89,9H13a1.42,1.42,0,0,1,1.52,1.29A1.69,1.69,0,0,1,14.43,10.92Zm.14-3.34a.5.5,0,0,1-.49.42H11.59a.5.5,0,0,1-.5-.5.19.19,0,0,1,0-.08l.33-2A.5.5,0,0,1,11.92,5h2.49a.5.5,0,0,1,.5.5.19.19,0,0,1,0,.08Z"/></svg>