<svg xmlns="http://www.w3.org/2000/svg" viewBox="0 0 22 22"><path d="M14.5,0H11A11,11,0,0,0,0,11c0,.35,0,.7.05,1A11.21,11.21,0,0,0,11.32,22h4.47A7.21,7.21,0,0,0,20,20.62a1,1,0,0,0,.18-1.39.48.48,0,0,0-.09-.11l-.72-.72a1,1,0,0,0-1.28-.1,4.19,4.19,0,0,1-2.33.7H11a8,8,0,0,1-8-8c0-.17,0-.35,0-.53A8.18,8.18,0,0,1,11.28,3H14.5A4.49,4.49,0,0,1,19,7.5v4a1.5,1.5,0,0,1-3,0v-4a1.5,1.5,0,0,0-2.57-1A4.44,4.44,0,0,0,11.5,6H11a5,5,0,0,0,0,10h.5a4.45,4.45,0,0,0,3-1.17A4.48,4.48,0,0,0,22,11.5v-4A7.5,7.5,0,0,0,14.5,0ZM13,11.5A1.5,1.5,0,0,1,11.5,13H11a2,2,0,0,1,0-4h.5A1.5,1.5,0,0,1,13,10.5Z" fill="var(--svg-icon-fill, #000)"/></svg>
