<svg xmlns="http://www.w3.org/2000/svg" xmlns:xlink="http://www.w3.org/1999/xlink" viewBox="0 0 115 115"><defs><mask id="a" x="0" y="0" width="115" height="115" maskUnits="userSpaceOnUse"><circle cx="57.5" cy="57.5" r="57.5" fill="#c4c4c4"/></mask></defs><circle cx="57.5" cy="57.5" r="57" fill="#fff" stroke="#ccc"/><path d="M29,38.24v2.32H86V38.24L57.5,28.42Z" fill="#ddd"/><path d="M35.13,48.7H39.2V77.16H35.13Z" fill="#ddd"/><path d="M45.3,48.7h4.07V77.16H45.3Z" fill="#ddd"/><path d="M55.47,48.7h4.06V77.16H55.47Z" fill="#ddd"/><path d="M65.63,48.7H69.7V77.16H65.63Z" fill="#ddd"/><path d="M75.8,48.7h4.07V77.16H75.8Z" fill="#ddd"/><path d="M80.88,43.61H34.12a1,1,0,0,0,0,2H80.88a1,1,0,1,0,0-2Z" fill="#ddd"/><path d="M85,84.28v-2H30.05v2H27v2H88v-2Z" fill="#ddd"/></svg>