<svg xmlns="http://www.w3.org/2000/svg" viewBox="0 0 34.5 24">
<path d="M13.5,0a3,3,0,0,0-3,3V15a3,3,0,0,0,3,3h21L30,14.63V3a3,3,0,0,0-3-3Z" fill="var(--svg-icon-fill, #000)" fill-rule="evenodd"/>
<path d="M21,6a3,3,0,0,1,3,3V21a3,3,0,0,1-3,3H0l4.5-3.37V9a3,3,0,0,1,3-3Z" fill-rule="evenodd" fill="var(--svg-icon-fill, #000)"/>
<rect x="9" y="10.5" width="10.5" height="1.5" fill="var(--svg-icon-fill, #000)"/>
<rect x="9" y="13.5" width="10.5" height="1.5" fill="var(--svg-icon-fill, #000)"/>
<rect x="9" y="16.5" width="10.5" height="1.5" fill="var(--svg-icon-fill, #000)"/>
</svg>
