<svg xmlns="http://www.w3.org/2000/svg" viewBox="0 0 26.28 24"><path d="M4.72,0H7.07V2.36H0V0ZM7.07,0H23.44V2.36H7.07Zm0,4.69H23.44V7H7.07ZM9.41,9.39H7.07v2.34H9.41ZM7.07,14.05H9.41v2.34H7.07Zm2.34,4.69H7.07v2.34H9.41ZM4.72,7H0V4.7h7V7Zm0,4.69H7.07V9.39H0v2.34Zm0,4.66H0V14.05h7v2.34Zm0,4.69H7.07V18.74H0v2.34Zm21.59,0-3.39-3.4a.49.49,0,0,0,0-.17,6.11,6.11,0,0,0,.44-2.19,5.85,5.85,0,0,0-11.62-1.36,6.13,6.13,0,0,0,0,1.42,5.82,5.82,0,0,0,1.71,4.14,5.88,5.88,0,0,0,6.28,1.16h.18L23.29,24Zm-8.76-9.31a3.59,3.59,0,0,1,1.34.26,3.43,3.43,0,0,1,1.14.77,3.29,3.29,0,0,1,.77,1.14,3.57,3.57,0,0,1,.3,1.44,3.51,3.51,0,0,1-3.55,3.4,3.57,3.57,0,0,1-2.49-1,3.5,3.5,0,0,1-1-2.37A3.57,3.57,0,0,1,14.36,14a3.35,3.35,0,0,1,.74-1.14,3.64,3.64,0,0,1,1.14-.77A3.78,3.78,0,0,1,17.55,11.73Z" transform="translate(-0.04 -0.01)" fill="var(--svg-icon-fill, #000)" fill-rule="evenodd"/></svg>
