<svg xmlns="http://www.w3.org/2000/svg" viewBox="0 0 22.44 24"><path d="M16.22,14.13l0,0,0,.05a6,6,0,0,1-.68.89l-.05.06a9.27,9.27,0,0,0-1.7,3.57H8.64A8.87,8.87,0,0,0,7,15.26l-.06-.06a6.78,6.78,0,0,1-.79-1v0h0a5.94,5.94,0,0,1-.82-3,5.86,5.86,0,0,1,11.72,0,5.93,5.93,0,0,1-.81,3M12.8,22.92H9.58a.9.9,0,0,1-.89-.82h5a.91.91,0,0,1-.9.82m.91-1.9h-5V19.83h5V21ZM11.18,4.22a6.92,6.92,0,0,0-6,10.38.6.6,0,0,0,.09.15,6.68,6.68,0,0,0,.88,1.16A6.58,6.58,0,0,1,7.6,19.27a.41.41,0,0,0,0,.11s0,.09,0,.14V22a2,2,0,0,0,2,2H12.8a2,2,0,0,0,2-2v-2.5a1.5,1.5,0,0,0,0-.22v0a6.74,6.74,0,0,1,1.52-3.44,6.67,6.67,0,0,0,.76-1l.06-.08a.53.53,0,0,0,.11-.21,6.92,6.92,0,0,0-6-10.32m0-1.89a.54.54,0,0,0,.54-.53V.54A.54.54,0,0,0,11.22,0a.54.54,0,0,0-.54.54V1.79a.54.54,0,0,0,.54.54M6,3.32a.53.53,0,0,0,.47.27.52.52,0,0,0,.27-.07A.54.54,0,0,0,7,2.78L6.35,1.7a.54.54,0,1,0-.94.54ZM3.32,6,2.24,5.41a.55.55,0,0,0-.74.2.54.54,0,0,0,.2.74L2.78,7A.54.54,0,1,0,3.32,6M1.79,10.68H.54a.54.54,0,0,0,0,1.08H1.79a.54.54,0,0,0,0-1.08m20.12,0H20.65a.54.54,0,0,0-.54.54.55.55,0,0,0,.54.54h1.26a.54.54,0,0,0,0-1.08m-1-5.07a.53.53,0,0,0-.73-.2L19.12,6a.54.54,0,0,0,.54.94l1.08-.63a.54.54,0,0,0,.2-.74M15.67,3.52a.52.52,0,0,0,.27.07.54.54,0,0,0,.47-.27L17,2.24a.53.53,0,0,0-.19-.74.54.54,0,0,0-.74.2l-.63,1.08a.54.54,0,0,0,.2.74" fill="var(--svg-icon-fill, #000)"/></svg>
