<svg xmlns="http://www.w3.org/2000/svg" viewBox="0 0 25.14 24"><path d="M12.55,0a1.26,1.26,0,0,1,1.13.71l3.25,6.44,7.11,1a1.31,1.31,0,0,1,1,.88,1.27,1.27,0,0,1-.33,1.29L19.6,15.42l1.22,7.1A1.27,1.27,0,0,1,19,23.85l-6.35-3.38L6.24,23.85a1.26,1.26,0,0,1-1.4-.18,1.32,1.32,0,0,1-.51-1.24l1.22-7.1L.48,10.26A1.21,1.21,0,0,1,0,9.06a1.3,1.3,0,0,1,1-.88l7.11-1L11.4.71A1.27,1.27,0,0,1,12.55,0Zm0,4.12L10.17,8.88a1.28,1.28,0,0,1-.95.69L4,10.33,7.8,14a1.31,1.31,0,0,1,.37,1.2l-.9,5.08L12,17.83a1.24,1.24,0,0,1,1.18,0l4.68,2.46-.89-5.08a1.31,1.31,0,0,1,.35-1.13l3.79-3.68-5.22-.83a1.3,1.3,0,0,1-1-.69Z" fill-rule="evenodd" fill="var(--svg-icon-fill, #000)" /></svg>
