<svg xmlns="http://www.w3.org/2000/svg" viewBox="0 0 12 12"><style>.fill {fill: var(--svg-icon-fill, #000)} .stroke {stroke: var(--svg-icon-stroke, #000)}</style><path d="M3,9H9v2.5a.47.47,0,0,1-.5.5h-5a.47.47,0,0,1-.5-.5ZM9.5.5A.47.47,0,0,0,9,0H3a.47.47,0,0,0-.5.5v2h7Zm2.5,4v5a1,1,0,0,1-1,1H10v-2A.5.5,0,0,0,9.5,8h-7a.5.5,0,0,0-.5.5v2H1a1,1,0,0,1-1-1v-5a1,1,0,0,1,1-1H11A1,1,0,0,1,12,4.5Zm-1,.25a.24.24,0,0,0-.25-.25h-1a.24.24,0,0,0-.25.25v.5a.24.24,0,0,0,.25.25h1A.24.24,0,0,0,11,5.25Z" class="fill"/></svg>
