<svg xmlns="http://www.w3.org/2000/svg" viewBox="0 0 19.13 21"><path d="M5.7,11.47a2.6,2.6,0,1,1-2.6-2.6A2.6,2.6,0,0,1,5.7,11.47Z" class="fill stroke" stroke-linecap="round" stroke-linejoin="round"/><path d="M3.1,13.83A2.36,2.36,0,1,0,.74,11.47,2.36,2.36,0,0,0,3.1,13.83Zm2.6-2.36a2.6,2.6,0,1,1-2.6-2.6A2.6,2.6,0,0,1,5.7,11.47Z" class="fill stroke" stroke-linecap="round" stroke-linejoin="round"/><path d="M13.81,4.43a.11.11,0,0,1,0,.16L5.89,9.89a.13.13,0,0,1-.17,0,.11.11,0,0,1,0-.16l7.89-5.3A.13.13,0,0,1,13.81,4.43Z" class="fill stroke" stroke-linecap="round" stroke-linejoin="round"/><path d="M13.82,16.63a.12.12,0,0,1-.16.06l-9.14-4a.11.11,0,0,1-.06-.15.11.11,0,0,1,.15-.07l.2-.45-.2.45,9.15,4A.12.12,0,0,1,13.82,16.63Z" class="fill stroke" stroke-linecap="round" stroke-linejoin="round"/><path d="M16,5.46A2.36,2.36,0,1,0,13.67,3.1,2.36,2.36,0,0,0,16,5.46Zm2.6-2.36A2.6,2.6,0,1,1,16,.5,2.59,2.59,0,0,1,18.63,3.1Z" class="fill stroke" stroke-linecap="round" stroke-linejoin="round"/><path d="M16,20.26a2.36,2.36,0,1,0-2.36-2.36A2.36,2.36,0,0,0,16,20.26Zm2.6-2.36A2.6,2.6,0,1,1,16,15.3,2.59,2.59,0,0,1,18.63,17.9Z" class="fill stroke" stroke-linecap="round" stroke-linejoin="round"/></svg>