<svg xmlns="http://www.w3.org/2000/svg" viewBox="0 0 8 8.36"><path d="M1.45,6.91V8a.34.34,0,0,1-.36.36H.36A.34.34,0,0,1,0,8V6.91a.34.34,0,0,1,.36-.36h.73A.34.34,0,0,1,1.45,6.91ZM3.27,5.45H2.55a.35.35,0,0,0-.37.37V8a.34.34,0,0,0,.37.36h.72A.34.34,0,0,0,3.64,8V5.82A.35.35,0,0,0,3.27,5.45ZM5.45,3.27H4.73a.35.35,0,0,0-.37.37V8a.34.34,0,0,0,.37.36h.72A.34.34,0,0,0,5.82,8V3.64A.35.35,0,0,0,5.45,3.27ZM7.64,0H6.91a.34.34,0,0,0-.36.36V8a.34.34,0,0,0,.36.36h.73A.34.34,0,0,0,8,8V.36A.35.35,0,0,0,7.64,0Z" fill="var(--svg-icon-fill, #000)"  stroke="none"/></svg>