<svg xmlns="http://www.w3.org/2000/svg" viewBox="0 0 29.18 24">
<path d="M0,24V0H7.85c2.6,0,4.56.54,5.86,1.62a5.8,5.8,0,0,1,2,4.78,5,5,0,0,1-.95,3,6.2,6.2,0,0,1-2.61,2,5.57,5.57,0,0,1,3.07,2.08,5.86,5.86,0,0,1,1.14,3.63,6.4,6.4,0,0,1-2.1,5.07A8.66,8.66,0,0,1,8.32,24ZM3.16,12.77v8.64H8.39a5,5,0,0,0,3.48-1.14,4,4,0,0,0,1.28-3.16q0-4.33-4.71-4.34Zm0-2.53H8a5,5,0,0,0,3.31-1,3.48,3.48,0,0,0,1.25-2.82,3.39,3.39,0,0,0-1.15-2.87A5.67,5.67,0,0,0,7.85,2.6H3.16Z" fill="var(--svg-icon-fill, #000)"/>
<path d="M29.18,8.9a9,9,0,0,0-1.5-.11,4,4,0,0,0-4.08,2.55V24H20.55V6.16h3l.05,2.07a4.74,4.74,0,0,1,4.25-2.39,3.06,3.06,0,0,1,1.36.23Z" fill="var(--svg-icon-fill, #000)"/>
</svg>
