<svg xmlns="http://www.w3.org/2000/svg" viewBox="0 0 13.09 24"><path d="M10.49,16.64a2.49,2.49,0,0,0-.91-2,8.4,8.4,0,0,0-3-1.44A10.26,10.26,0,0,1,2.15,11.1,4.47,4.47,0,0,1,.79,7.74,4.56,4.56,0,0,1,2.12,4.35a6,6,0,0,1,3.7-1.58V0h2.1V2.78a5.59,5.59,0,0,1,3.67,1.78,5.92,5.92,0,0,1,1.32,4.08H10.32a4.06,4.06,0,0,0-.94-2.83,3.26,3.26,0,0,0-2.55-1,3.69,3.69,0,0,0-2.55.79,2.67,2.67,0,0,0-.89,2.16,2.53,2.53,0,0,0,.93,2.05A9.12,9.12,0,0,0,7.4,11.15a13.55,13.55,0,0,1,3.34,1.38,5,5,0,0,1,1.78,1.74,4.66,4.66,0,0,1,.57,2.34,4.45,4.45,0,0,1-1.43,3.44,6.72,6.72,0,0,1-4,1.54V24H5.58V21.59a6.44,6.44,0,0,1-4.1-1.67A5.33,5.33,0,0,1,0,16H2.6a3.49,3.49,0,0,0,1,2.71,4.12,4.12,0,0,0,2.91.94,4.73,4.73,0,0,0,2.9-.79A2.58,2.58,0,0,0,10.49,16.64Z" fill="var(--svg-valute-fill, var(--svg-icon-fill, #333))" stroke="none"/></svg>
