<svg width="12" height="12" viewBox="0 0 12 12" fill="none" xmlns="http://www.w3.org/2000/svg">
<path d="M5.80109 11C4.73842 11 3.92098 10.7866 3.34877 10.3597C2.77657 9.93279 2.49046 9.28792 2.49046 8.42507C2.49046 8.07993 2.54042 7.76658 2.64033 7.48501H2V6.61308H3.14441C3.32607 6.43143 3.56676 6.26794 3.86649 6.12262C4.1753 5.96821 4.49319 5.83197 4.82016 5.7139C5.15622 5.59582 5.45141 5.49591 5.70572 5.41417C5.96004 5.32334 6.12352 5.25976 6.19619 5.22343H2V4.3515H7.20436C7.27702 4.22434 7.32698 4.09264 7.35422 3.9564C7.39055 3.82016 7.40872 3.64759 7.40872 3.43869C7.40872 3.01181 7.2634 2.68029 6.97275 2.44414C6.68211 2.19891 6.22797 2.07629 5.61035 2.07629C5.1653 2.07629 4.74296 2.13533 4.34332 2.25341C3.95277 2.37148 3.60309 2.50318 3.29428 2.6485L2.95368 1.57221C3.29882 1.40872 3.72116 1.27248 4.22071 1.16349C4.72025 1.0545 5.20618 1 5.67847 1C6.59582 1 7.31789 1.19074 7.84469 1.57221C8.38056 1.9446 8.6485 2.5168 8.6485 3.28883C8.6485 3.47956 8.63488 3.6703 8.60763 3.86104C8.58038 4.04269 8.53043 4.20618 8.45777 4.3515H9.20708V5.22343H8.0218C7.87648 5.36876 7.64941 5.51862 7.3406 5.67302C7.03179 5.81835 6.70936 5.95459 6.3733 6.08174C6.03724 6.2089 5.73297 6.31789 5.46049 6.40872C5.18801 6.49955 5.0109 6.56767 4.92916 6.61308H9.20708V7.48501H3.90736C3.8347 7.62125 3.78474 7.74841 3.75749 7.86648C3.73025 7.98456 3.71662 8.14805 3.71662 8.35695C3.71662 9.41054 4.44777 9.93733 5.91008 9.93733C6.42779 9.93733 6.92734 9.87375 7.40872 9.74659C7.89918 9.61035 8.3079 9.46957 8.63488 9.32425V10.4278C8.32607 10.5731 7.91281 10.7048 7.3951 10.8229C6.87738 10.941 6.34605 11 5.80109 11Z" fill="#333333"/>
</svg>
