<svg width="12" height="12" viewBox="0 0 12 12" fill="none" xmlns="http://www.w3.org/2000/svg">
<path d="M7.37109 7.93158C7.37109 7.60877 7.24414 7.33684 6.99023 7.11579C6.74023 6.89474 6.31641 6.69474 5.71875 6.51579C4.88672 6.28772 4.2793 5.99123 3.89648 5.62632C3.51758 5.25789 3.32812 4.79123 3.32812 4.22632C3.32812 3.65088 3.51367 3.17895 3.88477 2.81053C4.25977 2.44211 4.77344 2.22281 5.42578 2.15263V1H6.29883V2.15789C6.95508 2.2386 7.46484 2.48596 7.82812 2.9C8.19531 3.31404 8.37891 3.8807 8.37891 4.6H7.30078C7.30078 4.10526 7.16992 3.71228 6.9082 3.42105C6.64648 3.12982 6.29297 2.98421 5.84766 2.98421C5.38281 2.98421 5.02734 3.09298 4.78125 3.31053C4.53516 3.52456 4.41211 3.82456 4.41211 4.21053C4.41211 4.56842 4.54102 4.85439 4.79883 5.06842C5.06055 5.27895 5.48828 5.47193 6.08203 5.64737C6.67969 5.8193 7.14453 6.01053 7.47656 6.22105C7.8125 6.42807 8.05859 6.67018 8.21484 6.94737C8.375 7.22456 8.45508 7.54912 8.45508 7.92105C8.45508 8.51404 8.25586 8.99123 7.85742 9.35263C7.46289 9.71404 6.9082 9.92807 6.19336 9.99474V11H5.32617V9.99474C4.59961 9.93509 4.0293 9.70351 3.61523 9.3C3.20508 8.89298 3 8.34211 3 7.64737H4.08398C4.08398 8.13509 4.22656 8.51053 4.51172 8.77368C4.79688 9.03684 5.20117 9.16842 5.72461 9.16842C6.23633 9.16842 6.63867 9.05789 6.93164 8.83684C7.22461 8.61579 7.37109 8.31404 7.37109 7.93158Z" fill="#333333"/>
</svg>
