<svg width="12" height="12" viewBox="0 0 12 12" fill="none" xmlns="http://www.w3.org/2000/svg">
<path d="M1 10V2H3.61538C4.48352 2 5.13553 2.17949 5.57143 2.53846C6.01099 2.89744 6.23077 3.42857 6.23077 4.13187C6.23077 4.50549 6.12454 4.837 5.91209 5.12637C5.69963 5.41209 5.41026 5.6337 5.04396 5.79121C5.47619 5.91209 5.81685 6.14286 6.06593 6.48352C6.31868 6.82051 6.44505 7.22344 6.44505 7.69231C6.44505 8.41026 6.21245 8.97436 5.74725 9.38462C5.28205 9.79487 4.62454 10 3.77473 10H1ZM2.05495 6.25824V9.13736H3.7967C4.28755 9.13736 4.67399 9.01099 4.95604 8.75824C5.24176 8.50183 5.38462 8.15018 5.38462 7.7033C5.38462 6.73993 4.86081 6.25824 3.81319 6.25824H2.05495ZM2.05495 5.41209H3.64835C4.10989 5.41209 4.47802 5.2967 4.75275 5.06593C5.03114 4.83516 5.17033 4.52198 5.17033 4.12637C5.17033 3.68681 5.04212 3.36813 4.78571 3.17033C4.5293 2.96886 4.13919 2.86813 3.61538 2.86813H2.05495V5.41209Z" fill="#333333"/>
<path d="M10.7253 4.96703C10.5714 4.94139 10.4048 4.92857 10.2253 4.92857C9.55861 4.92857 9.10623 5.21245 8.86813 5.78022V10H7.85165V4.05495H8.84066L8.85714 4.74176C9.19048 4.21062 9.663 3.94505 10.2747 3.94505C10.4725 3.94505 10.6227 3.9707 10.7253 4.02198V4.96703Z" fill="#333333"/>
</svg>
