<svg xmlns="http://www.w3.org/2000/svg" viewBox="0 0 16 15.92"><path d="M13.36,13.71v1.63a.55.55,0,0,1-.58.58H.58A.55.55,0,0,1,0,15.34V13.71a.91.91,0,0,1,.52-.81l3-1.57A2.9,2.9,0,0,0,6.1,13H7.21a2.9,2.9,0,0,0,2.61-1.63l3,1.57A1,1,0,0,1,13.36,13.71ZM3.25,7.84A1.88,1.88,0,0,0,4,8.72l.41,1.8A1.73,1.73,0,0,0,6.1,11.91H7.21a1.73,1.73,0,0,0,1.68-1.39l.41-1.8a1.65,1.65,0,0,0,.46-.41,1.35,1.35,0,0,1-.93-.58,1.25,1.25,0,0,1-.17-1.28l.52-1.57-1.34-1a1.39,1.39,0,0,1-.52-1.57A1.46,1.46,0,0,1,7.5,2a4.25,4.25,0,0,0-.82,0c-2,0-3.19,1.16-3.19,2.9V6.39a.75.75,0,0,0-.35,1ZM15.69,2.56h-2.5l-.35-1.17L12.44.17a.25.25,0,0,0-.47,0l-.41,1.22-.35,1.17H8.72A.27.27,0,0,0,8.54,3l1.05.76,1,.69-.35,1.17L9.82,6.86c-.06.23.17.4.41.29l1-.76,1-.7,1,.7,1,.76a.28.28,0,0,0,.41-.29l-.41-1.22L14,4.47l1-.69L16,3A.33.33,0,0,0,15.69,2.56Z" fill="#333"/></svg>