<svg xmlns="http://www.w3.org/2000/svg" viewBox="0 0 19.6 19.6"><path d="M7.47,1.28,8.68,8.1a.51.51,0,0,1-.41.58H8.1L1.28,7.47a.5.5,0,0,1-.4-.58A.54.54,0,0,1,1,6.62L2.35,5.29.08,1.73a.49.49,0,0,1,.07-.62l1-1A.49.49,0,0,1,1.73.08L5.29,2.35,6.62,1a.5.5,0,0,1,.71,0A.51.51,0,0,1,7.47,1.28Zm4,7.4,6.82-1.21a.5.5,0,0,0,.4-.58.54.54,0,0,0-.14-.27L17.25,5.29l2.27-3.56a.49.49,0,0,0-.07-.62l-1-1a.49.49,0,0,0-.62-.07L14.31,2.35,13,1a.5.5,0,0,0-.71,0,.51.51,0,0,0-.14.26L10.92,8.1a.51.51,0,0,0,.41.58ZM8.1,10.93l-6.82,1.2a.5.5,0,0,0-.4.58A.54.54,0,0,0,1,13l1.33,1.33L.08,17.87a.49.49,0,0,0,.07.62l1,1a.49.49,0,0,0,.62.07l3.56-2.27,1.33,1.33a.5.5,0,0,0,.71,0,.51.51,0,0,0,.14-.26l1.2-6.82a.48.48,0,0,0-.4-.57.25.25,0,0,0-.17,0Zm9.15,3.38L18.58,13a.5.5,0,0,0,0-.71.51.51,0,0,0-.26-.14l-6.82-1.2a.5.5,0,0,0-.58.4.48.48,0,0,0,0,.17l1.21,6.82a.5.5,0,0,0,.58.4.54.54,0,0,0,.27-.14l1.33-1.33,3.56,2.27a.49.49,0,0,0,.62-.07l1-1a.49.49,0,0,0,.07-.62Z"/></svg>