<svg xmlns="http://www.w3.org/2000/svg" viewBox="0 0 22 24.75"><path d="M22,6.25v15a3.52,3.52,0,0,1-3.5,3.5H3.5A3.52,3.52,0,0,1,0,21.25v-15a3.5,3.5,0,0,1,3.5-3.5H7.63l-.4,3H3.5a.5.5,0,0,0-.5.5v15a.52.52,0,0,0,.5.5h15a.52.52,0,0,0,.5-.5v-15a.5.5,0,0,0-.5-.5H14.77l-.4-3H18.5A3.5,3.5,0,0,1,22,6.25ZM6.19,11.57l4,5.75a1,1,0,0,0,1.39.25,1,1,0,0,0,.25-.25l4-5.75a1,1,0,0,0-.25-1.39A1,1,0,0,0,15,10H13.25L12,.46A.5.5,0,0,0,11.5,0h-1a.5.5,0,0,0-.5.46L8.75,10H7a1,1,0,0,0-.81,1.57Z" class="fill nostroke" stroke="none" /></svg>