<svg xmlns="http://www.w3.org/2000/svg" viewBox="0 0 29.83 25.15"><path d="M29.22,15.13C27.17,17.5,21.67,23,14.91,23a13.59,13.59,0,0,1-4.67-.86l2.91-2.91a6,6,0,0,0,7.5-4,6.1,6.1,0,0,0,0-3.54l1.54-1.54a7.93,7.93,0,0,1-.52,7.57,25.4,25.4,0,0,0,5-4.26,26.06,26.06,0,0,0-4.11-3.67l2.16-2.16a28.94,28.94,0,0,1,4.51,4.2A2.49,2.49,0,0,1,29.22,15.13ZM26.13,2.56,4,24.71a1.5,1.5,0,0,1-2.13-2.12h0l3.27-3.27A28.41,28.41,0,0,1,.61,15.13a2.49,2.49,0,0,1,0-3.26C2.66,9.5,8.16,4,14.91,4a13.61,13.61,0,0,1,4.68.86L24,.44a1.5,1.5,0,0,1,2.12,2.12ZM6.91,13.5A8,8,0,0,1,8.16,9.24a25.4,25.4,0,0,0-5,4.26,26.11,26.11,0,0,0,4.11,3.67l.36-.36A7.9,7.9,0,0,1,6.91,13.5Zm9.77-5.73a5.89,5.89,0,0,0-1.77-.27,6,6,0,0,0-6,6,6.16,6.16,0,0,0,.27,1.76Z"/></svg>