<svg xmlns="http://www.w3.org/2000/svg" viewBox="0 0 24 24"><path d="M24,11.84A12,12,0,0,1,12.72,24L12,24a12,12,0,0,1-7.17-2.39L3.43,23.17a.5.5,0,0,1-.71,0A.44.44,0,0,1,2.57,23L1.09,16.91a.5.5,0,0,1,.37-.61.47.47,0,0,1,.17,0L7.82,17a.5.5,0,0,1,.44.55.6.6,0,0,1-.13.28L6.81,19.35A9,9,0,0,0,21,11.8a1,1,0,0,1,1.12-1.1l1,.13a1,1,0,0,1,.62.32A1,1,0,0,1,24,11.84ZM2.68,13A1.06,1.06,0,0,0,3,12.2,9,9,0,0,1,17.19,4.65L15.87,6.14a.49.49,0,0,0,0,.7.47.47,0,0,0,.27.12l6.19.75a.5.5,0,0,0,.55-.44.32.32,0,0,0,0-.17L21.43,1a.49.49,0,0,0-.6-.36.41.41,0,0,0-.25.15L19.19,2.39A12,12,0,0,0,12,0l-.73,0A12,12,0,0,0,0,12.16a1,1,0,0,0,.25.69,1.14,1.14,0,0,0,.62.33l1,.12A1,1,0,0,0,2.68,13Z" stroke="none" /></svg>