<?xml version="1.0" encoding="utf-8"?><svg xmlns="http://www.w3.org/2000/svg" viewBox="0 0 582 622.1"><path d="M420.5 366.3c-.3.4-.5.9-.7 1.3-.3.4-.6.9-.9 1.3-5.1 8.3-11 16.1-17.6 23.2-.4.4-.8.9-1.1 1.4-18.4 25.9-39.5 61.5-44.2 92.6H224.1c-3.6-24.6-17.9-55-42.7-90.5-.4-.6-.9-1.1-1.4-1.6-7.7-8.1-14.6-17.1-20.5-26.9-.1-.2-.2-.3-.3-.5 0-.1-.1-.2-.2-.3-13.9-23.5-21.3-50.2-21.3-77.2 0-83.8 68.2-151.9 152-151.9s151.9 68.2 151.9 151.9c.1 27-7.3 53.7-21.1 77.2m-88.6 227.9h-83.4c-12.2 0-22.1-9.4-23.3-21.2h130c-1.2 11.9-11.1 21.2-23.3 21.2m23.5-49.1H224.9v-31h130.5v31zm-65.6-435.8C190.6 109.3 110 190 110 289.1c0 31.3 8.3 62.1 24 89.4.6 1.4 1.3 2.7 2.3 3.9 6.6 10.9 14.3 21 22.9 30.1 25.2 36.3 38.7 67.1 37.9 87.1 0 1 0 1.9.2 2.9-.1 1.1-.2 2.3-.2 3.6v64.7c0 28.4 23.1 51.5 51.4 51.5h83.4c28.3 0 51.5-23.1 51.5-51.5V506c0-2.1-.2-4-.4-5.8v-.7c-.8-20.4 13.2-52 39.4-89.2 7.3-8 14-16.7 19.7-25.9l1.6-2c1.3-1.6 2.2-3.4 2.7-5.3 15.2-26.9 23.2-57.3 23.2-88 0-99.1-80.7-179.8-179.8-179.8m1.2-48.8c7.7 0 13.9-6.3 13.9-13.9V14c0-7.7-6.3-14-13.9-14s-14 6.3-14 14v32.5c0 7.7 6.3 14 14 14M156.7 86.2c2.6 4.5 7.3 7 12.1 7 2.4 0 4.8-.6 7-1.9 6.7-3.8 9-12.4 5.1-19.1L164.6 44c-3.8-6.7-12.4-9-19.1-5.1-6.7 3.8-9 12.4-5.1 19.1l16.3 28.2zm-70.5 70.5L58 140.4c-6.7-3.8-15.2-1.6-19.1 5.1-3.8 6.7-1.6 15.2 5.1 19.1l28.2 16.3c2.2 1.3 4.6 1.9 7 1.9 4.8 0 9.5-2.5 12.1-7 3.9-6.8 1.6-15.3-5.1-19.1M46.5 277H14c-7.7 0-14 6.3-14 13.9s6.3 13.9 14 13.9h32.5c7.7 0 13.9-6.3 13.9-13.9S54.2 277 46.5 277m521.5 0h-32.6c-7.7 0-13.9 6.3-13.9 13.9s6.3 13.9 13.9 13.9H568c7.7 0 13.9-6.3 13.9-13.9S575.7 277 568 277m-25-131.5c-3.8-6.7-12.4-9-19.1-5.1l-28.2 16.3c-6.7 3.8-9 12.4-5.1 19.1 2.6 4.5 7.3 7 12.1 7 2.4 0 4.8-.6 7-1.9l28.2-16.3c6.6-3.9 8.9-12.4 5.1-19.1M406.3 91.3c2.2 1.3 4.6 1.9 7 1.9 4.8 0 9.5-2.5 12.1-7L441.7 58c3.9-6.7 1.6-15.2-5.1-19.1-6.7-3.8-15.2-1.6-19.1 5.1l-16.3 28.2c-3.9 6.8-1.6 15.3 5.1 19.1"/></svg>