<svg width="11" height="14" viewBox="0 0 11 14" fill="none" xmlns="http://www.w3.org/2000/svg">
<path d="M10 5.5H9.5V4C9.5 2.6 8.4 1.5 7 1.5H4C2.6 1.5 1.5 2.6 1.5 4V5.5H1C0.45 5.5 0 5.95 0 6.5V12.5C0 13.05 0.45 13.5 1 13.5H10C10.55 13.5 11 13.05 11 12.5V6.5C11 5.95 10.55 5.5 10 5.5ZM6 9.84998V11.25C6 11.4 5.9 11.5 5.75 11.5H5.25C5.1 11.5 5 11.4 5 11.25V9.84998C4.7 9.69998 4.5 9.35 4.5 9C4.5 8.45 4.95 8 5.5 8C6.05 8 6.5 8.45 6.5 9C6.5 9.35 6.3 9.69998 6 9.84998ZM7.5 5.5H3.5V4C3.5 3.75 3.75 3.5 4 3.5H7C7.25 3.5 7.5 3.75 7.5 4V5.5Z" fill="white"/>
<path d="M10 5.5H9.5V4C9.5 2.6 8.4 1.5 7 1.5H4C2.6 1.5 1.5 2.6 1.5 4V5.5H1C0.45 5.5 0 5.95 0 6.5V12.5C0 13.05 0.45 13.5 1 13.5H10C10.55 13.5 11 13.05 11 12.5V6.5C11 5.95 10.55 5.5 10 5.5ZM6 9.84998V11.25C6 11.4 5.9 11.5 5.75 11.5H5.25C5.1 11.5 5 11.4 5 11.25V9.84998C4.7 9.69998 4.5 9.35 4.5 9C4.5 8.45 4.95 8 5.5 8C6.05 8 6.5 8.45 6.5 9C6.5 9.35 6.3 9.69998 6 9.84998ZM7.5 5.5H3.5V4C3.5 3.75 3.75 3.5 4 3.5H7C7.25 3.5 7.5 3.75 7.5 4V5.5Z" fill="white"/>
<path d="M10 4.5H9.5V3C9.5 1.6 8.4 0.5 7 0.5H4C2.6 0.5 1.5 1.6 1.5 3V4.5H1C0.45 4.5 0 4.95 0 5.5V11.5C0 12.05 0.45 12.5 1 12.5H10C10.55 12.5 11 12.05 11 11.5V5.5C11 4.95 10.55 4.5 10 4.5ZM6 8.84998V10.25C6 10.4 5.9 10.5 5.75 10.5H5.25C5.1 10.5 5 10.4 5 10.25V8.84998C4.7 8.69998 4.5 8.35 4.5 8C4.5 7.45 4.95 7 5.5 7C6.05 7 6.5 7.45 6.5 8C6.5 8.35 6.3 8.69998 6 8.84998ZM7.5 4.5H3.5V3C3.5 2.75 3.75 2.5 4 2.5H7C7.25 2.5 7.5 2.75 7.5 3V4.5Z" fill="#1E6393"/>
<path d="M10 4.5H9.5V3C9.5 1.6 8.4 0.5 7 0.5H4C2.6 0.5 1.5 1.6 1.5 3V4.5H1C0.45 4.5 0 4.95 0 5.5V11.5C0 12.05 0.45 12.5 1 12.5H10C10.55 12.5 11 12.05 11 11.5V5.5C11 4.95 10.55 4.5 10 4.5ZM6 8.84998V10.25C6 10.4 5.9 10.5 5.75 10.5H5.25C5.1 10.5 5 10.4 5 10.25V8.84998C4.7 8.69998 4.5 8.35 4.5 8C4.5 7.45 4.95 7 5.5 7C6.05 7 6.5 7.45 6.5 8C6.5 8.35 6.3 8.69998 6 8.84998ZM7.5 4.5H3.5V3C3.5 2.75 3.75 2.5 4 2.5H7C7.25 2.5 7.5 2.75 7.5 3V4.5Z" fill="#1E6393"/>
</svg>
