<svg width="13" height="14" viewBox="0 0 13 14" fill="none" xmlns="http://www.w3.org/2000/svg">
<path d="M3.03479 10.5H9.03479V13C9.03479 13.3 8.83479 13.5 8.53479 13.5H3.53479C3.23479 13.5 3.03479 13.3 3.03479 13V10.5ZM9.53479 2C9.53479 1.7 9.33479 1.5 9.03479 1.5H3.03479C2.73479 1.5 2.53479 1.7 2.53479 2V4H9.53479V2ZM12.0348 6V11C12.0348 11.55 11.5848 12 11.0348 12H10.0348V10C10.0348 9.7 9.78479 9.5 9.53479 9.5H2.53479C2.28479 9.5 2.03479 9.7 2.03479 10V12H1.03479C0.48479 12 0.03479 11.55 0.03479 11V6C0.03479 5.45 0.48479 5 1.03479 5H11.0348C11.5848 5 12.0348 5.45 12.0348 6ZM11.0348 6.25C11.0348 6.1 10.9348 6 10.7848 6H9.78479C9.63479 6 9.53479 6.1 9.53479 6.25V6.75C9.53479 6.9 9.63479 7 9.78479 7H10.7848C10.9348 7 11.0348 6.9 11.0348 6.75V6.25Z" fill="white"/>
<path d="M3.05798 9.5H9.05798V12C9.05798 12.3 8.85798 12.5 8.55798 12.5H3.55798C3.25798 12.5 3.05798 12.3 3.05798 12V9.5ZM9.55798 1C9.55798 0.7 9.35798 0.5 9.05798 0.5H3.05798C2.75798 0.5 2.55798 0.7 2.55798 1V3H9.55798V1ZM12.058 5V10C12.058 10.55 11.608 11 11.058 11H10.058V9C10.058 8.7 9.80798 8.5 9.55798 8.5H2.55798C2.30798 8.5 2.05798 8.7 2.05798 9V11H1.05798C0.507983 11 0.0579834 10.55 0.0579834 10V5C0.0579834 4.45 0.507983 4 1.05798 4H11.058C11.608 4 12.058 4.45 12.058 5ZM11.058 5.25C11.058 5.1 10.958 5 10.808 5H9.80798C9.65798 5 9.55798 5.1 9.55798 5.25V5.75C9.55798 5.9 9.65798 6 9.80798 6H10.808C10.958 6 11.058 5.9 11.058 5.75V5.25Z" fill="#1E6393"/>
</svg>
