<svg xmlns="http://www.w3.org/2000/svg" viewBox="0 0 582.9 582.9"><circle cx="291.4" cy="291.4" r="291.4" fill="#fff"/><path d="M456.3 126.6c-91-91.1-238.7-91.1-329.7 0-91 91-91 238.7 0 329.7 91.1 91.1 238.7 91.1 329.7 0s91.1-238.7 0-329.7zm-97.6 272.5c-3.7 3.7-9.8 3.7-13.5 0l-53.8-53.8-53.8 53.8c-3.7 3.7-9.8 3.7-13.5 0l-40.4-40.4c-3.7-3.7-3.7-9.7 0-13.5l53.8-53.8-53.8-53.8c-3.7-3.7-3.7-9.8 0-13.5l40.4-40.4c3.7-3.7 9.7-3.7 13.5 0l53.8 53.8 53.8-53.8c3.7-3.7 9.8-3.7 13.5 0l40.4 40.4c3.7 3.7 3.7 9.7 0 13.5l-53.8 53.8 53.8 53.8c3.7 3.7 3.7 9.8 0 13.5l-40.4 40.4z" fill="#d9534f"/></svg>