<svg xmlns="http://www.w3.org/2000/svg" viewBox="0 0 1024 1024"><path d="M608 768c0 17.7-14.3 32-32 32H448c-17.7 0-32-14.3-32-32s14.3-32 32-32h32V480h-32c-17.7 0-32-14.3-32-32s14.3-32 32-32h64c17.7 0 32 14.3 32 32 0 .3-.1.6-.1 1s.1.7.1 1v286h32c17.7 0 32 14.3 32 32zM448 288c0-35.3 28.7-64 64-64s64 28.7 64 64-28.7 64-64 64-64-28.7-64-64zm576 224c0 282.8-229.2 512-512 512S0 794.8 0 512 229.2 0 512 0s512 229.2 512 512zM512 961c247 0 448-202 448-449S759 64 512 64 64 265 64 512s201 449 448 449z" fill="#fff"/></svg>