<svg width="12" height="13" viewBox="0 0 12 13" fill="none" xmlns="http://www.w3.org/2000/svg">
<g filter="url(#filter0_add)">
<path d="M12 4.90909V7.09091C12 7.41818 11.7818 7.63636 11.4545 7.63636H7.63636V11.4545C7.63636 11.7818 7.41818 12 7.09091 12H4.90909C4.58182 12 4.36364 11.7818 4.36364 11.4545V7.63636H0.545455C0.218182 7.63636 0 7.41818 0 7.09091V4.90909C0 4.58182 0.218182 4.36364 0.545455 4.36364H4.36364V0.545455C4.36364 0.218182 4.58182 0 4.90909 0H7.09091C7.41818 0 7.63636 0.218182 7.63636 0.545455V4.36364H11.4545C11.7818 4.36364 12 4.58182 12 4.90909Z" fill="white"/>
</g>
<defs>
<filter id="filter0_add" x="0" y="0" width="12" height="13" filterUnits="userSpaceOnUse" color-interpolation-filters="sRGB">
<feFlood flood-opacity="0" result="BackgroundImageFix"/>
<feColorMatrix in="SourceAlpha" type="matrix" values="0 0 0 0 0 0 0 0 0 0 0 0 0 0 0 0 0 0 127 0" result="hardAlpha"/>
<feOffset dy="1"/>
<feColorMatrix type="matrix" values="0 0 0 0 0 0 0 0 0 0 0 0 0 0 0 0 0 0 0.2 0"/>
<feBlend mode="normal" in2="BackgroundImageFix" result="effect1_dropShadow"/>
<feBlend mode="normal" in="SourceGraphic" in2="effect1_dropShadow" result="shape"/>
</filter>
</defs>
</svg>
