<svg width="120" height="64" viewBox="0 0 120 64" fill="none" xmlns="http://www.w3.org/2000/svg">
<path fill-rule="evenodd" clip-rule="evenodd" d="M33.8457 23.2452C34.0665 23.116 34.4118 23.0102 34.7061 22.8654C35.5325 22.4594 36.2344 21.825 36.9476 21.2091C37.3948 20.8264 37.8307 20.4376 38.2779 20.059C38.9967 19.46 39.8118 18.9636 40.6043 18.4317C42.9817 16.8311 45.3761 15.2327 47.8441 13.8228C48.4045 13.5032 48.9762 13.1962 49.5932 13.0236C50.7876 12.692 52.0215 12.521 53.2555 12.3558C57.6311 11.77 62.0406 11.5098 66.4784 11.5002C66.5634 11.5001 66.6482 11.5 66.7388 11.5C72.4106 11.5047 78.0768 11.8273 83.726 12.2687C83.7486 12.2705 83.7486 12.2705 83.7713 12.2725C84.9826 12.3902 86.1091 12.9947 87.1789 13.565C90.9658 15.5763 94.4469 18.2177 97.8376 20.7506C98.6244 21.3359 99.5301 21.7261 100.526 21.843C100.526 21.843 100.623 21.8593 100.702 21.9598L101.738 23.852C101.834 23.8392 101.947 23.8431 102.049 23.8431C102.513 23.8458 103.011 23.9302 103.3 24.3243C103.441 24.526 103.475 24.7892 103.515 25.0456C103.628 25.8106 103.685 26.5801 103.736 27.3556C103.741 27.4585 103.736 27.562 103.662 27.6257C103.623 27.6592 103.577 27.6749 103.526 27.6754L103.708 27.9099L103.753 27.9992C103.957 28.9135 104.172 29.8261 104.375 30.7383C104.392 30.8045 104.392 30.8108 104.398 30.8433C104.5 31.476 104.472 32.1286 104.46 32.7789C104.438 33.85 104.381 34.9185 104.302 35.9881V36.0177L104.5 38.3367L104.483 38.4448L103.628 40.4905C103.594 40.5499 103.594 40.5504 103.543 40.5958L101.421 41.9161C101.347 41.9436 101.273 41.9498 101.211 41.9248C101.064 43.3387 100.719 44.7048 100.124 45.9202C99.6659 46.8576 98.9753 47.8141 97.9168 47.8222C97.9111 47.8222 97.9055 47.8223 97.8998 47.8222C96.5413 47.9901 95.1828 48.1128 93.8469 48.0155C93.3545 47.9799 92.8677 47.9092 92.4715 47.6005C91.4865 46.8334 90.9261 45.5657 90.5525 44.4338C90.5525 44.4338 90.5412 44.4031 90.5412 44.3626L71.1087 46.1715L71.0182 46.1622L70.9389 46.1197L70.8823 46.0504L70.8596 45.965L70.871 45.8765L71.5559 43.6817C71.7823 41.2783 71.7484 38.8365 71.2785 36.484C70.9955 35.0639 70.5483 33.6037 69.5408 32.6502C68.5049 31.6713 66.7841 31.5978 65.5218 32.4465C64.4237 33.1875 63.7218 34.4191 63.2067 35.6831C62.4029 37.6595 62.0067 39.7914 61.7519 41.9284C61.5368 43.7054 61.4179 45.4975 61.4349 47.2817C61.4349 47.2817 61.4349 47.3407 61.4179 47.3793C61.3896 47.4611 61.3048 47.503 61.2142 47.5227C60.1783 47.5409 59.1424 47.558 58.1066 47.5735C58.1122 47.5912 58.1179 47.6108 58.1235 47.6324C58.5141 48.7313 58.9386 49.8269 59.5217 50.8131C59.8104 51.2913 60.1726 51.7328 60.7783 51.9564C61.2764 52.139 61.8369 52.0406 62.3859 52.0332C63.3595 52.0178 64.3387 51.9851 65.3124 51.9495C64.2765 51.3966 63.6142 50.3159 63.1444 49.2644C62.0519 46.8292 61.8029 44.0268 61.984 41.4903C62.1425 39.2535 62.6123 36.9664 63.886 35.1465C63.9595 35.0418 64.0331 34.9392 64.118 34.8395C64.1746 34.7673 64.2312 34.6964 64.2935 34.6273C64.8482 34.0027 65.5841 33.4994 66.4615 33.4846C66.4728 33.4844 66.4898 33.4844 66.5067 33.4844C67.5653 33.495 68.5049 34.3028 69.0823 35.1305C70.1181 36.6038 70.6106 38.4256 70.8653 40.2255C71.2559 42.9954 71.0748 45.871 70.1747 48.4275C69.7898 49.5058 69.2747 50.563 68.4539 51.3631C68.0634 51.7413 67.5823 52.0388 67.0558 52.1719C67.0275 52.2614 66.9483 52.3381 66.8464 52.3485C65.3011 52.4063 63.7671 52.4782 62.2161 52.4905C61.5425 52.4958 60.8746 52.5691 60.2519 52.2051C59.3915 51.7022 58.933 50.758 58.5141 49.8227C58.2028 49.1311 57.9197 48.424 57.6707 47.7089C57.6707 47.7089 57.665 47.6478 57.682 47.5798C51.9819 47.6632 46.2535 47.7002 40.5364 47.623C38.2892 47.5927 36.042 47.5064 33.8004 47.3783C33.8004 47.382 33.7947 47.3857 33.7947 47.3894C33.2004 48.6618 32.34 49.8739 31.106 50.3147C30.1154 50.6689 29.0286 50.6767 27.9531 50.6735C26.8719 50.6703 25.7908 50.6456 24.7776 50.1693C23.3341 49.4925 22.2133 48.2245 21.4718 46.8084C21.4265 46.7229 21.3643 46.5936 21.3643 46.5936C21.3303 46.5008 21.353 46.3977 21.4209 46.3337C20.2775 46.2138 19.1341 46.0897 17.985 45.9633C17.3227 45.8898 16.6548 45.815 15.9925 45.7377L15.8679 45.7053L15.8001 45.6456L15.7604 45.5638L15.5057 44.5578L15.5 44.4594L15.8679 42.5042V42.5041C15.8679 42.5041 15.8113 42.428 15.8057 42.3574C15.8057 42.3015 15.8227 42.2544 15.8567 42.2194L15.6925 36.2952L15.7094 36.1988L17.0849 32.975L17.1359 32.9018L17.2095 32.8534L17.2265 32.8501C17.351 31.5159 17.651 30.1425 18.5171 29.2098C18.9699 28.7225 19.519 28.3181 20.119 28.025C20.1247 27.9808 20.1473 27.9386 20.1869 27.9048C20.8719 27.3265 21.568 26.7487 22.2926 26.2149C22.5303 26.0402 22.836 25.964 23.1247 25.8704C25.3266 25.1664 27.5908 24.6812 29.8494 24.1544C31.1796 23.8444 32.5098 23.5409 33.8457 23.2452ZM66.4784 33.9399C65.5331 33.9493 64.7407 34.7111 64.2482 35.4232C62.8557 37.4288 62.4425 40.0341 62.3916 42.4645C62.3406 44.9362 62.6689 47.4707 63.8293 49.6353C64.4067 50.7184 65.2501 51.8046 66.4898 51.8046C67.3672 51.8046 68.137 51.1295 68.6294 50.467C69.6879 49.0456 70.1634 47.2441 70.4181 45.4551C70.7634 42.9905 70.6446 40.436 69.9427 38.0716C69.5578 36.7876 69.0313 35.5057 68.0238 34.6025C67.6105 34.2306 67.0898 33.9497 66.5181 33.94C66.5011 33.9399 66.4898 33.9398 66.4784 33.9399ZM66.6709 35.474C67.4803 35.4822 68.2049 36.0978 68.6577 36.735C68.7257 36.8322 68.7936 36.932 68.8559 37.0336C69.7729 38.5317 70.1068 40.3553 70.1917 42.1287C70.2936 44.2928 70.0389 46.5471 69.0143 48.4302C68.5162 49.3588 67.7633 50.263 66.6709 50.2703C65.7709 50.2764 64.9841 49.5279 64.5312 48.8177C63.7953 47.6763 63.4387 46.315 63.2463 44.9504C62.9293 42.6477 63.0765 40.2339 63.9369 38.0954C64.4237 36.8781 65.1991 35.5966 66.5011 35.4811C66.5577 35.476 66.6143 35.4739 66.6709 35.474ZM21.7605 46.3692C21.7832 46.4044 21.8001 46.4488 21.8228 46.5049C22.1964 47.2408 22.6832 47.9203 23.2549 48.504C24.1719 49.4441 25.3776 50.1377 26.7474 50.1933C28.021 50.24 29.3173 50.2949 30.523 50.0107C31.1569 49.8612 31.74 49.5252 32.1815 49.0419C32.64 48.5389 33.0192 47.9538 33.3136 47.3498C29.4588 47.1196 25.6097 46.769 21.7605 46.3692ZM66.6483 35.9295C66.0539 35.9355 65.5275 36.3685 65.1822 36.7958C64.4406 37.7164 64.0614 38.9032 63.8293 40.0869C63.3708 42.3628 63.4501 44.7809 64.1633 46.9503C64.4689 47.8846 64.8765 48.8241 65.6746 49.4419C66.0482 49.7313 66.535 49.8964 67.0105 49.7677C67.6332 49.6016 68.086 49.0736 68.4143 48.5581C69.337 47.1158 69.6596 45.3319 69.7389 43.5941C69.8351 41.6068 69.6143 39.5684 68.7483 37.7826C68.3124 36.8824 67.6389 35.9527 66.6879 35.9297C66.6766 35.9295 66.6596 35.9295 66.6483 35.9295ZM94.9224 36.2294C94.8885 36.3361 94.8545 36.4427 94.8205 36.5491C94.6168 37.1789 94.4413 37.8203 94.2715 38.4677C94.113 39.2928 93.9884 40.1217 93.8752 40.9405C93.7394 41.9065 93.6318 42.8781 93.5695 43.8511L93.5469 43.9643C93.4734 44.0802 93.4167 44.0853 93.3658 44.0997L90.994 44.3203C90.994 44.3298 90.9997 44.3398 91.0054 44.3503C91.2997 45.2387 91.7129 46.1163 92.3299 46.8323C92.6016 47.1494 92.913 47.4218 93.3941 47.5048C94.1922 47.6436 95.0243 47.5947 95.8451 47.5467C96.196 47.5261 96.5527 47.5001 96.9036 47.4684C96.581 47.2439 96.3092 46.9401 96.1054 46.6407C95.4771 45.7278 95.1318 44.6341 94.8998 43.5612C94.3733 41.1373 94.379 38.5692 94.9224 36.2294ZM98.0074 47.3609C98.0697 47.356 98.1263 47.3465 98.1829 47.3318C98.8281 47.1666 99.2527 46.5627 99.5583 46.0179C100.424 44.4818 100.713 42.6467 100.804 40.8663C100.911 38.6974 100.713 36.4663 99.8697 34.513C99.6149 33.9274 99.3036 33.3521 98.8225 32.9312C98.5678 32.7083 98.2508 32.5375 97.8998 32.5389C97.3225 32.5455 96.8526 33.0106 96.5526 33.4143C95.6413 34.6536 95.3017 36.2592 95.1149 37.7993C94.8148 40.2391 94.9507 42.7954 95.7998 45.0426C96.0828 45.7807 96.4394 46.5217 97.0394 47.0163C97.2772 47.2117 97.5715 47.3559 97.8885 47.3645C97.9111 47.3618 97.9338 47.3592 97.9564 47.3564C97.9564 47.3564 97.9791 47.3559 98.0074 47.3609ZM100.538 24.2782C100.555 24.2483 100.583 24.221 100.617 24.1965L101.251 23.9026L100.362 22.2803C99.4225 22.1421 98.5112 21.8146 97.7413 21.2459C94.696 18.9994 91.645 16.6922 88.3563 14.7478C87.1393 14.0306 85.9052 13.3191 84.558 12.9045C84.2241 12.8017 83.8788 12.7373 83.5279 12.7098C77.4542 12.2402 71.3408 11.8834 65.2897 11.9644C61.1972 12.0192 57.0877 12.2837 53.0404 12.8449C51.9423 12.9965 50.8385 13.1246 49.7743 13.4381C50.1252 13.3984 50.4762 13.3784 50.8328 13.3719C56.0461 13.2804 61.2482 13.2145 66.4898 13.2149C68.086 13.2158 69.6766 13.1889 71.2785 13.2884C71.9125 13.3279 72.5805 13.3966 73.1295 13.6727C73.3843 13.8005 73.6446 14.0797 73.4465 14.3652L73.4522 14.3597C71.9522 17.0272 70.4578 19.7084 68.754 22.2156C68.4596 22.6472 68.1822 23.1049 67.786 23.4433C67.7577 23.4704 67.7237 23.4959 67.6898 23.518C67.3728 23.7146 66.9765 23.7831 66.586 23.8518C65.952 23.9634 65.3067 24.013 64.6614 24.0236L64.6501 24.0238L64.0897 24.014C56.1877 25.2752 48.4271 26.8902 40.927 29.5792C40.8024 29.6238 40.6779 29.6686 40.5534 29.7139L42.2006 31.5944L42.2458 31.6816L42.2515 31.7809L42.2175 31.8733L38.3118 37.6251L38.2609 37.6784C38.1986 37.7125 38.1929 37.7127 38.125 37.7244L23.0115 37.687L22.9209 37.6676L22.8417 37.613L22.7964 37.5324L20.985 32.1558L20.9624 33.5919C20.9567 33.7285 20.8265 33.8338 20.6907 33.8116L18.5058 33.3546L17.9736 33.6657C17.9736 33.6657 17.7982 33.7283 17.6963 33.624L17.4246 33.3342L16.1453 36.3324L16.1567 36.698C16.185 36.7039 16.1963 36.7089 16.2246 36.7254L20.3171 39.2014C20.4643 39.3021 20.4416 39.567 20.2548 39.6166C20.2378 39.6219 20.2322 39.6217 20.2095 39.6238L18.3699 39.7243C17.9906 40.7252 18.1435 41.9303 17.9114 42.8327C17.8435 43.0915 17.6341 43.3462 17.3284 43.2925C17.034 43.2404 16.7623 43.0806 16.5076 42.9531C16.4284 42.9122 16.3434 42.8689 16.2699 42.8218L15.9585 44.4937L16.1623 45.2991C22.1398 45.9896 28.1172 46.6067 34.0947 46.9575C38.2892 47.2037 42.4949 47.2043 46.7007 47.2013C51.4555 47.1979 56.2103 47.1504 60.9821 47.0712C60.9877 43.7805 61.2821 40.5012 62.1595 37.3707C62.5501 35.9737 63.0652 34.5957 63.9143 33.4212C64.7124 32.318 65.8728 31.4519 67.3445 31.3936C68.2332 31.3583 69.1276 31.6632 69.7898 32.2659C70.888 33.2599 71.3861 34.7739 71.6917 36.25C72.2068 38.7046 72.2351 41.2493 72.0031 43.74L71.9917 43.7955L71.4031 45.6865L93.128 43.664C93.1733 43.0633 93.2243 42.4625 93.2922 41.8602C93.2583 41.8569 93.2412 41.8488 93.1903 41.826L93.128 41.7622L93.0941 41.6796V41.6247L86.2845 42.3783V42.3803L86.2222 42.44L86.1373 42.4699L86.0468 42.4655L85.9675 42.4276L85.9562 42.4147L73.339 43.811C73.3333 43.8889 73.305 43.9548 73.2597 44.0139L73.1804 44.0577L73.0955 44.0686L73.0106 44.045L72.937 43.9904L72.8974 43.9131C72.8691 43.7189 72.9088 43.5224 72.9201 43.3246C73.0956 40.8322 73.271 38.3267 73.2597 35.8395C73.254 34.8628 73.0672 33.9014 72.8804 32.9557C72.6314 31.6483 72.3314 30.3478 72.0088 29.0552C71.8163 29.1016 71.6238 29.1481 71.4257 29.195L71.3182 29.2044L71.2333 29.1739C71.171 29.1143 71.171 29.1133 71.1314 29.0332L71.1257 28.9445L71.1597 28.861L71.2163 28.7956C71.3295 28.744 71.454 28.7206 71.5729 28.6913C71.6804 28.6657 71.788 28.6401 71.8955 28.6146C71.6125 27.525 71.3125 26.4408 71.0068 25.3628L71.0011 25.3404C70.9898 25.2525 70.9899 25.2513 71.0182 25.1672L71.0691 25.1026L70.6672 25.1339L70.5766 25.1223L70.4974 25.0755L70.4464 25.0012L70.4238 24.9116L70.4408 24.8211C71.4993 22.2087 72.6484 19.5981 74.0748 17.2149C74.6013 16.3403 75.1503 15.4515 76.0277 14.8949C77.5447 13.934 79.4806 13.8087 81.2354 13.811C81.5127 13.8115 81.7957 13.8188 82.0731 13.833C82.1184 13.8112 82.1637 13.8009 82.2146 13.8071C82.2712 13.821 82.3052 13.8305 82.3278 13.8474C84.2467 13.9731 86.1656 14.4277 87.9543 15.293C88.3958 15.5083 88.8261 15.7594 89.2393 16.0312C90.8752 17.101 92.4884 18.2111 94.0111 19.4153C94.3903 19.7172 94.8432 19.9804 95.0639 20.4004C95.2904 20.8201 95.2734 21.4067 95.279 21.9386C95.279 22.1429 95.2791 22.3473 95.2734 22.5516L95.2564 22.6726C95.2564 22.6754 95.2507 22.678 95.2507 22.6806L96.9206 24.4902C96.9489 24.5341 96.9715 24.5841 96.9828 24.638C98.1602 24.5153 99.332 24.3965 100.509 24.2807L100.538 24.2782ZM98.0357 33.7433C98.6697 33.7509 99.1961 34.2839 99.5074 34.7715C100.028 35.589 100.294 36.551 100.464 37.5187C100.821 39.5382 100.764 41.6686 100.181 43.5972C99.9546 44.3373 99.6659 45.0734 99.1168 45.6376C98.698 46.0685 98.0527 46.3336 97.43 46.012C96.7394 45.6549 96.3545 44.8972 96.0771 44.1882C95.3979 42.4479 95.2791 40.5068 95.4432 38.655C95.5677 37.2247 95.8224 35.7482 96.6828 34.5757C96.7224 34.5206 96.7621 34.4668 96.8074 34.4145C96.8413 34.3752 96.8753 34.3368 96.9092 34.2994C97.1979 33.9947 97.5772 33.7518 98.0074 33.7434C98.0187 33.7433 98.03 33.7432 98.0357 33.7433ZM98.0244 34.1987C97.6055 34.2037 97.2602 34.548 97.0338 34.8622C96.4338 35.6921 96.1734 36.7361 96.0093 37.7632C95.6753 39.814 95.7545 41.9926 96.4508 43.895C96.6602 44.4594 96.9206 45.0279 97.3734 45.4242C97.5998 45.6207 97.8998 45.7615 98.2112 45.6844C98.7093 45.564 99.0206 45.0964 99.2527 44.6775C99.7452 43.7866 99.9716 42.7627 100.107 41.7367C100.345 39.8846 100.255 37.9591 99.6772 36.221C99.6206 36.0575 99.564 35.8957 99.4961 35.7369C99.298 35.2654 99.0602 34.7994 98.664 34.4658C98.4885 34.3179 98.2734 34.2033 98.0413 34.1988C98.0357 34.1987 98.03 34.1987 98.0244 34.1987ZM22.0662 40.2277C24.2568 40.2331 26.4417 40.3291 28.6323 40.404C32.1758 40.5252 35.725 40.6608 39.2684 40.8026L39.4666 40.8105C39.71 40.8538 39.9137 40.9692 40.1231 41.0776C40.6666 41.3575 41.1477 41.7563 41.4817 42.2683C41.9798 43.0252 42.6591 43.6376 43.3384 44.2126C43.3384 44.2126 43.4232 44.2858 43.4345 44.3721C43.4628 44.5976 43.1006 44.6543 42.8006 44.709C41.5949 44.9304 40.3835 45.1643 39.1439 45.1482C37.1797 45.1228 35.2212 45.0272 33.2627 44.9462C29.2777 44.7814 25.2927 44.5986 21.3077 44.409L21.1152 44.3997L21.0813 44.3955L19.4171 44.0587C19.2982 44.01 19.202 43.9345 19.2586 43.7401C19.2756 43.6656 19.3322 43.5739 19.3774 43.4843C19.8246 42.5331 20.2662 41.5646 20.8945 40.7237C21.0813 40.4776 21.2794 40.2477 21.6247 40.2334C21.7718 40.2274 21.919 40.2276 22.0662 40.2277ZM53.7706 37.794C54.2178 37.7962 54.665 37.8864 55.0386 38.1317C56.0178 38.7832 56.6688 39.8699 57.2292 40.9159C57.5801 41.5792 57.9367 42.2613 58.0952 42.9924C58.1405 43.1871 58.1349 43.4075 57.9877 43.54C57.8009 43.7108 57.5462 43.7938 57.2971 43.879C55.9839 44.3256 54.5914 44.5434 53.2216 44.7324C52.5366 44.8264 51.846 44.9342 51.1724 44.9076C50.4988 44.8812 49.9272 44.3582 49.4517 43.8446C48.5856 42.906 47.912 41.7972 47.312 40.6569L42.0024 40.3868L41.9119 40.3636L41.844 40.3069L41.7987 40.226L41.7874 40.1341L41.8157 40.0465L41.8779 39.9773L41.9628 39.938C45.195 39.1564 48.5177 38.3994 51.7781 37.9614C52.4291 37.8745 53.08 37.797 53.731 37.794C53.7423 37.794 53.7593 37.794 53.7706 37.794ZM21.987 40.6832C21.8398 40.6835 21.6926 40.676 21.5455 40.695C21.3813 40.7692 21.2511 40.9956 21.1152 41.1995C20.6114 41.9495 20.2209 42.7688 19.8303 43.5875L19.7907 43.6696L21.1492 43.9456C26.5663 44.2043 32.006 44.4712 37.3948 44.6473C38.1647 44.6724 38.9344 44.7307 39.6986 44.6899C40.6835 44.6376 41.6798 44.4498 42.6704 44.2695L42.71 44.2629C42.0987 43.7118 41.4987 43.1235 41.0515 42.4327C40.6722 41.8571 40.0496 41.4882 39.4269 41.2671L39.4156 41.2643C34.0664 41.0492 28.7399 40.8185 23.3568 40.7018C22.8983 40.692 22.4455 40.6828 21.987 40.6832ZM53.731 38.2495C52.4008 38.2556 51.0819 38.5084 49.7573 38.7435C47.7195 39.106 45.6931 39.542 43.678 40.0036L43.6327 40.0137L47.4648 40.2087L47.5441 40.2264C47.6233 40.2795 47.6743 40.3659 47.7252 40.4702C48.3422 41.6359 49.0271 42.7858 49.9554 43.7145C50.3064 44.0654 50.7083 44.429 51.1838 44.4522C51.5234 44.4691 51.8743 44.4284 52.2196 44.394C53.8668 44.2305 55.5367 43.9794 57.0877 43.4689C57.2914 43.4017 57.5066 43.3427 57.6764 43.2124C57.6764 43.2124 57.6084 42.8969 57.5122 42.6331C57.082 41.4488 56.4537 40.313 55.6839 39.37C55.2707 38.8622 54.8065 38.3348 54.1329 38.2661C54.014 38.2537 53.8895 38.25 53.7706 38.2495C53.7537 38.2495 53.7423 38.2495 53.731 38.2495ZM85.9392 26.3849C85.86 26.3952 85.7864 26.4055 85.7128 26.4158C81.258 27.0233 76.8315 27.9095 72.4503 28.9494C72.8069 30.3692 73.1295 31.7967 73.3956 33.2364C73.5767 34.2112 73.7182 35.1991 73.7125 36.1756C73.7012 38.5668 73.5427 40.9756 73.3729 43.3491L85.9392 41.9582L86.1317 41.192V41.2107C86.1091 40.3169 86.0468 39.4245 85.9789 38.5306C85.8487 36.8025 85.9392 35.0754 86.177 33.365C86.2732 32.7062 86.426 32.0695 86.4543 31.3793C86.5109 29.8418 86.2788 28.2826 86.0128 26.8072C85.9845 26.6678 85.9562 26.5256 85.9392 26.3849ZM16.168 37.2233L16.3151 42.2988C16.5925 42.5248 16.9434 42.6573 17.2661 42.7956C17.3284 42.8216 17.4246 42.8458 17.4246 42.8458C17.5944 42.6005 17.5378 42.1385 17.5491 41.7635C17.5831 40.9591 17.685 40.1405 18.0133 39.411C18.0133 39.411 18.0926 39.2892 18.2058 39.2774L19.4511 39.2093L16.168 37.2233ZM96.6092 25.1324C93.179 25.4888 89.7487 25.875 86.3751 26.3262C86.4034 26.6999 86.5279 27.082 86.5958 27.4963C86.8732 29.1556 87.1053 30.8667 86.7883 32.4927C86.3751 34.557 86.2845 36.6478 86.4487 38.7474C86.5109 39.5629 86.5619 40.3789 86.5845 41.1959L86.5788 41.2715L86.4204 41.9051L93.1903 41.1561C93.3884 40.2574 93.5922 39.3633 93.8129 38.4784C93.9601 37.7788 94.1243 37.0745 94.3224 36.3634C94.5997 35.3602 94.9224 34.3616 95.3866 33.4342C95.7206 32.5252 96.0998 31.635 96.5866 30.793C96.6149 30.7447 96.6262 30.7291 96.6715 30.6443C97.3168 29.4972 97.1527 28.0488 96.9489 26.9393C96.8413 26.336 96.7225 25.7351 96.6092 25.1324ZM100.679 24.7304C100.589 24.74 100.492 24.7398 100.402 24.7487C99.2923 24.8588 98.1772 24.9708 97.0621 25.0857C97.2772 26.2349 97.5715 27.3745 97.5885 28.5585C97.5998 29.4354 97.3847 30.3078 96.9489 31.0718C96.847 31.2535 96.7507 31.4373 96.6545 31.623C97.2206 31.0842 97.9112 30.7092 98.7263 30.7225C99.3546 30.7328 99.9716 30.9865 100.419 31.443C101.398 32.4352 101.653 34.0086 101.783 35.2723C101.987 37.2733 101.857 39.2927 101.596 41.2719L103.243 40.247L104.047 38.3203L103.849 36.039C103.849 36.039 103.855 35.9165 103.86 35.8199C103.957 34.4011 104.058 32.9812 104.002 31.5584C103.991 31.245 103.957 30.9359 103.883 30.6279C103.696 29.8108 103.509 28.9931 103.328 28.1752L103.323 28.1495L100.679 24.7304ZM101.296 39.9615C101.466 38.2851 101.5 36.5957 101.29 34.952C101.172 34.0267 100.985 33.0887 100.498 32.2826C100.238 31.8568 99.8754 31.484 99.4112 31.3062C98.8621 31.095 98.2225 31.1512 97.7017 31.4072C96.7847 31.8642 96.2073 32.7991 95.7771 33.6849C95.7488 33.7678 95.7149 33.8508 95.6866 33.9339C95.9357 33.4306 96.2583 32.9681 96.6942 32.5872C97.0281 32.2981 97.4357 32.0923 97.8829 32.0836C97.8942 32.0835 97.9055 32.0834 97.9168 32.0835C98.7206 32.0926 99.3885 32.7678 99.7848 33.3791C100.623 34.6779 100.973 36.2702 101.155 37.8352C101.24 38.5357 101.29 39.2486 101.296 39.9615ZM21.3586 31.8441L23.17 37.232L38.0062 37.2687L41.7421 31.7626L40.1175 29.907L23.6964 29.7371C22.9153 30.4394 22.1341 31.1418 21.3586 31.8441ZM59.9292 27.2878C59.9972 27.2908 60.0707 27.3074 60.133 27.3359C60.5406 27.5146 60.5009 28.1675 60.3877 28.5055C60.1387 29.2816 59.5953 29.9676 59.0971 30.6354C58.4518 31.4927 57.7669 32.3496 56.8895 32.9456C56.3858 33.2893 55.7631 33.4268 55.1518 33.5624C53.8046 33.8603 52.4348 34.0586 51.0649 34.1771C50.6291 34.2151 50.1196 34.3381 49.8026 33.9681C49.6724 33.8111 49.5819 33.6234 49.2988 33.6433C47.5441 33.7769 45.795 33.8638 44.0402 33.9682L43.8365 33.9805L43.6723 33.9234L43.5931 33.7666L43.6327 33.6246L45.444 30.9619L45.5006 30.9035L45.5799 30.8695L59.8613 27.2943L59.9123 27.2876C59.9179 27.2875 59.9179 27.2876 59.9292 27.2878ZM45.7724 31.2905L44.2666 33.4984C45.9138 33.4005 47.5554 33.3138 49.1856 33.1952C49.4913 33.1728 49.8139 33.2355 50.0234 33.5025C50.097 33.6022 50.1593 33.7315 50.2725 33.7553C50.4423 33.7887 50.6573 33.7526 50.8611 33.737C52.4178 33.6181 53.9744 33.3999 55.4971 33.0124C55.9896 32.8865 56.4707 32.7177 56.8952 32.3749C58.0443 31.447 58.967 30.196 59.6745 28.9533C59.85 28.6494 60.0312 28.3387 60.0368 27.9703C60.0368 27.9575 60.0368 27.9446 60.0311 27.9317C60.0311 27.9207 60.0311 27.9097 60.0311 27.8987C60.0311 27.8894 60.0255 27.8801 60.0255 27.8709C60.0142 27.8042 59.9292 27.746 59.9292 27.746C55.2084 28.9275 50.4876 30.109 45.7724 31.2905ZM20.0567 28.574C19.3944 28.9609 18.7718 29.459 18.3925 30.1365C17.9227 30.9793 17.7586 31.99 17.6737 32.9318L17.9001 33.1805L18.3529 32.9171C18.4322 32.8755 18.4378 32.8788 18.5114 32.8909L20.5152 33.3095C20.5492 30.9211 20.5322 30.9127 20.0624 28.5714C20.0624 28.5723 20.0624 28.5731 20.0567 28.574ZM34.9551 23.2542C34.6778 23.3932 34.3947 23.5133 34.1061 23.6193C34.0778 23.6437 34.0438 23.6634 34.0042 23.676C30.8909 24.3648 27.8003 25.0588 24.7323 25.8824C24.0191 26.0735 23.2719 26.2162 22.6322 26.539C22.4284 26.6412 22.253 26.8155 22.0605 26.9637C21.5284 27.3802 21.0077 27.8087 20.4926 28.2418C20.4926 28.2418 20.4813 28.2484 20.4586 28.2571L20.9964 30.9146C21.002 30.9456 21.002 30.953 21.002 30.9629L20.9907 31.561L23.4643 29.3387C23.5323 29.2956 23.5323 29.2952 23.6172 29.2808L40.0326 29.4506L40.0382 29.4376C40.259 29.3021 40.5194 29.2402 40.7741 29.1502C47.5044 26.7379 54.5178 25.2037 61.5764 23.9767L61.6104 23.9709L35.1759 23.5113L35.0853 23.4925C35.0174 23.4422 35.0174 23.4414 34.9665 23.3671L34.9495 23.2798L34.9551 23.2542ZM84.6429 23.6813L81.1788 23.9706C81.1335 24.2055 81.0542 24.4191 80.8731 24.5813C80.5334 24.8812 80.0523 24.8931 79.6391 24.9242C78.7221 24.9933 77.7938 24.9598 76.8824 24.8934L76.4579 26.8874C76.4522 26.9319 76.4465 26.9385 76.4352 26.9565C76.356 27.0845 76.1749 27.1297 76.0164 27.195C75.6315 27.3484 75.1956 27.481 74.8163 27.3138C74.4484 27.1519 74.2559 26.7446 74.0861 26.3386C73.9955 26.1179 73.9163 25.8916 73.8541 25.6615C73.8541 25.6615 73.8314 25.5551 73.8597 25.4867L74.1541 24.8633L71.3295 25.0824L71.3917 25.1348L71.4314 25.2137C71.7484 26.3094 72.054 27.4074 72.3371 28.5096C76.8541 27.4451 81.3995 26.54 85.9279 25.9283C85.9335 25.901 85.9392 25.8742 85.9449 25.8476L84.6429 23.6813ZM101.064 24.49L103.283 27.3568C103.226 26.4843 103.181 25.6122 103.006 24.7627C102.938 24.4753 102.598 24.3541 102.349 24.3192C102.151 24.2908 101.941 24.2909 101.738 24.3155C101.738 24.3155 101.653 24.2976 101.579 24.2518L101.064 24.49ZM74.3069 25.6031C74.4371 26.0335 74.5786 26.4851 74.8729 26.7981C75.1163 27.0578 75.5975 26.8988 76.039 26.6867L76.4069 24.9437C76.3899 24.9453 76.3673 24.9469 76.3503 24.9484C75.9258 24.9808 75.5013 24.9484 75.0824 24.8213C74.9635 24.7869 74.8503 24.7531 74.7371 24.7211L74.7201 24.7173C74.5843 25.0126 74.4484 25.3078 74.3069 25.6031ZM94.8545 22.8291L85.1467 23.6393L86.3977 25.7164L86.426 25.8034L86.4204 25.8627C86.4826 25.8544 86.5506 25.8462 86.6128 25.8381C89.8903 25.4162 93.1846 25.0382 96.4847 24.6905L94.9111 22.9824L94.8658 22.9067L94.8545 22.8291ZM80.4655 14.2403C79.8598 14.2654 79.2598 14.326 78.6711 14.422C77.7088 14.5799 76.7466 14.8952 75.9711 15.4862C75.9315 15.5155 75.8919 15.5462 75.8579 15.5781C75.2975 16.0705 74.9013 16.7319 74.5163 17.3615C73.1239 19.6654 72.0371 22.1551 71.0068 24.638L71.0011 24.6513L74.3408 24.3918L74.3748 24.3954L74.3918 24.3534C74.4031 24.334 74.4145 24.3163 74.4314 24.3006C74.4088 24.2217 74.3861 24.138 74.3691 24.0579C74.1937 23.3704 74.1484 22.6265 74.4484 21.9893C74.7371 21.3877 75.1334 20.8186 75.6598 20.4187C75.6598 20.4187 75.7107 20.3724 75.8069 20.3709C75.8126 20.371 75.8126 20.3711 75.8183 20.3713C77.1938 20.4206 78.5806 20.4673 79.9108 20.7694C80.29 20.8547 80.6467 20.998 81.0089 21.2714C81.4278 21.5908 81.2637 22.3369 81.224 23.1093C81.2184 23.2406 81.2184 23.3759 81.2127 23.5106L83.058 23.3564C82.8995 21.7721 82.6731 20.2166 82.175 18.7062C81.6882 17.2456 81.1165 15.8155 80.5221 14.3921L80.4655 14.2654C80.4655 14.257 80.4655 14.2487 80.4655 14.2403ZM80.7542 23.5909C80.8052 23.0513 80.8334 22.51 80.8504 21.9582C80.8504 21.8195 80.8334 21.6946 80.6523 21.5782C80.4825 21.4669 80.3183 21.3572 80.0862 21.2853C79.2372 21.0233 78.3259 20.983 77.4202 20.9161C76.9107 20.8785 76.3956 20.8499 75.8862 20.8296C75.8862 20.8296 75.8748 20.8275 75.8692 20.8316C75.2635 21.3569 74.7427 22.0927 74.6918 22.867C74.6635 23.3199 74.7428 23.7765 74.8843 24.2129L74.8899 24.2278L76.7805 24.4294C77.8051 24.511 78.8466 24.56 79.8655 24.4462C80.2448 24.4041 80.6184 24.3576 80.7146 23.9028L80.6863 23.8702C80.6693 23.7964 80.6467 23.7743 80.675 23.6965C80.6806 23.6684 80.7033 23.6448 80.7146 23.6189L80.7542 23.5909ZM64.8822 23.5642C65.6633 23.5463 66.4558 23.4836 67.186 23.2394C67.2483 23.2188 67.3049 23.196 67.3672 23.1702C67.4804 23.1216 67.5483 23.0507 67.6162 22.9774C68.1426 22.4032 68.5502 21.7179 68.9747 21.0494C70.3955 18.8209 71.7144 16.5267 73.0106 14.219L73.0446 14.1545C72.8578 13.9936 72.5804 13.9463 72.3144 13.8898C71.0917 13.629 69.8181 13.6889 68.5276 13.6782C63.0312 13.6323 57.4896 13.7215 51.9762 13.8085C50.7762 13.8274 49.5592 13.7917 48.3649 14.2042L48.3592 14.205C48.2743 14.2174 48.2743 14.2173 48.1894 14.1953L48.1441 14.1638C47.9403 14.2849 47.7366 14.4105 47.5271 14.5329C44.7591 16.1721 42.0364 17.9633 39.4156 19.7945C38.1137 20.7037 37.0155 21.8714 35.7363 22.7898C35.6004 22.8858 35.4589 22.975 35.3174 23.0584L64.0614 23.558C64.2539 23.527 64.4463 23.4963 64.6388 23.466C64.6388 23.466 64.6954 23.4641 64.7463 23.4662C64.8256 23.5024 64.8256 23.5039 64.8822 23.5642ZM82.0221 14.2541C81.6599 14.2329 81.3033 14.2242 80.941 14.228C81.6825 15.9827 82.4184 17.702 82.8995 19.5461C83.2222 20.7726 83.3806 22.0455 83.5108 23.3187L84.7052 23.2189C84.7052 23.2071 84.7052 23.1955 84.6995 23.1842C84.3656 21.4792 84.009 19.7677 83.4486 18.0932C83.0184 16.7998 82.5316 15.5225 82.0221 14.2541ZM82.5259 14.2922C83.2731 16.1452 84.009 18.0784 84.4618 19.9714C84.7166 21.0371 84.9486 22.1072 85.1637 23.1809L94.8262 22.3743C94.8318 21.8351 94.8488 21.2842 94.7186 20.769C94.7016 20.7073 94.6677 20.6185 94.6677 20.6181C94.5885 20.4612 94.396 20.3264 94.2262 20.1807C93.6432 19.6758 93.0149 19.2159 92.3865 18.7579C91.2092 17.8989 90.0091 17.0695 88.7808 16.276C87.2072 15.2634 85.4071 14.7236 83.5731 14.4254C83.2279 14.3689 82.8769 14.3245 82.5259 14.2922ZM73.0843 14.0939C73.056 14.1281 73.0899 14.0841 73.0843 14.0939V14.0939Z" fill="#BABABA"/>
</svg>
